<svg xmlns="http://www.w3.org/2000/svg" width="461" height="263" fill="none" viewBox="0 0 461 263"><g clip-path="url(#a)"><rect width="460" height="262" x=".5" y=".9" fill="url(#b)" rx="8"/><rect width="460" height="262" x=".5" y=".9" fill="url(#c)" fill-opacity=".3" rx="8"/><path fill="#fff" fill-rule="evenodd" d="M43.187 58.163a1.27 1.27 0 0 0 .01 1.344l4.696 7.407c.305.48.892.7 1.437.536l13.55-4.065a1.27 1.27 0 0 0 .79-1.748l-8.712-18.896a1.27 1.27 0 0 0-2.236-.132zm11.54-11.102a.476.476 0 0 0-.904.095l-3.354 16.699a.476.476 0 0 0 .603.55l9.362-2.795a.476.476 0 0 0 .301-.645z" clip-rule="evenodd"/><g filter="url(#d)"><path stroke="#7f9cf5" stroke-width=".852" d="m250.819 74.36-6.936 30.568 5.346 28.061m1.59-58.629 26.402-30.498 32.672-10.778M250.819 74.36l-1.59 58.629m1.59-58.629 8.175 19.212m-8.175-19.212 59.074-41.276M250.819 74.36l33.067 5.193m-34.657 53.436 15.772 21.84 23.76-.098m-39.532-21.742 39.532 21.742m-39.532-21.742 9.765-39.417m-9.765 39.417 38.4 9.084m1.132 12.658 15.881 20.401 24.334-1.073m-40.215-19.328 40.215 19.328m0 0 36.838-18.643m-36.838 18.643-41.347-31.986m41.347 31.986-13.234-42.458m13.234 42.458 15.729-53.249m21.109 34.606 15.746-23.12m-15.746 23.12-21.109-34.606m36.855 11.486 5.086-22.23m-5.086 22.23-36.855-11.486m41.941-10.744-19.354-23.37m19.354 23.37L373.41 62.509m13.236 47.557-61.915-30.261m61.915 30.261-41.941 10.744m22.587-34.114 6.118-24.187m-6.118 24.187-42.561-6.891m48.679-17.296-13.218-13.257M373.41 62.51l-30.781-.55m30.781.55-48.679 17.296m35.461-30.553-16.923-10.025m16.923 10.026-50.299-16.169m33.376 6.143-33.376-6.143m33.376 6.143-.64 22.733m-32.736-28.876 32.736 28.876m-32.736-28.876 14.838 46.721m-14.838-46.72-26.007 46.468m-24.892 14.019 24.892-14.02m-24.892 14.02 30.377 30.467m53.258-62.08-17.898 17.846m0 0-40.845-.252m40.845.252-35.36 44.234m35.36-44.234-8.989 51.796m8.989-51.796 19.974 41.005m-55.334 3.229-1.742 18.034m0 0 28.113-10.472m0 0 28.963-10.791"/><path stroke="#7f9cf5" stroke-width=".639" d="m265.412 155.039 18.129 12.052 21.305 8.668"/><circle cx="365.672" cy="155.275" r="1.82" fill="#7f9cf5" transform="rotate(-44.915 365.672 155.275)"/><circle cx="381.149" cy="132.419" r="1.82" fill="#7f9cf5" transform="rotate(-44.915 381.149 132.419)"/><circle cx="386.726" cy="109.531" r="1.82" fill="#7f9cf5" transform="rotate(-44.915 386.726 109.531)"/><circle cx="344.56" cy="120.927" r="1.82" fill="#7f9cf5" transform="rotate(-44.915 344.56 120.927)"/><circle cx="368.334" cy="87.089" r="1.82" fill="#7f9cf5" transform="rotate(-44.915 368.334 87.089)"/><circle cx="284.386" cy="79.091" r="1.82" fill="#7f9cf5" transform="rotate(-44.915 284.386 79.091)"/><circle cx="373.244" cy="62.059" r="1.82" fill="#7f9cf5" transform="rotate(-44.915 373.244 62.059)"/><circle cx="358.682" cy="48.025" r="1.82" fill="#7f9cf5" transform="rotate(-44.915 358.682 48.025)"/><circle cx="343.253" cy="38.85" r="1.82" fill="#7f9cf5" transform="rotate(-44.915 343.253 38.85)"/><circle cx="309.232" cy="32.795" r="1.82" fill="#7f9cf5" transform="rotate(-44.915 309.232 32.795)"/><circle cx="276.329" cy="43.899" r="1.82" fill="#7f9cf5" transform="rotate(-44.915 276.329 43.9)"/><circle cx="250.546" cy="74.173" r="1.82" fill="#7f9cf5" transform="rotate(-44.915 250.546 74.173)"/><circle cx="243.35" cy="105.335" r="1.82" fill="#7f9cf5" transform="rotate(-44.915 243.35 105.335)"/><circle cx="249.03" cy="132.797" r="1.82" fill="#7f9cf5" transform="rotate(-44.915 249.03 132.797)"/><circle cx="265.009" cy="155.125" r="1.82" fill="#7f9cf5" transform="rotate(-44.915 265.009 155.125)"/><circle cx="283.294" cy="167.161" r="1.82" fill="#7f9cf5" transform="rotate(-44.915 283.294 167.161)"/><circle cx="304.732" cy="175.488" r="1.82" fill="#7f9cf5" transform="rotate(-44.915 304.732 175.488)"/><circle cx="328.752" cy="174.38" r="1.82" fill="#7f9cf5" transform="rotate(-44.915 328.752 174.38)"/><circle cx="289.797" cy="124.294" r="1.82" fill="#7f9cf5" transform="rotate(-44.915 289.797 124.294)"/><circle cx="316.235" cy="131.464" r="1.82" fill="#7f9cf5" transform="rotate(-44.915 316.235 131.464)"/></g><path stroke="#7f9cf5" stroke-width=".852" d="m250.819 74.36-6.936 30.568 5.346 28.061m1.59-58.629 26.402-30.498 32.672-10.778M250.819 74.36l-1.59 58.629m1.59-58.629 8.175 19.212m-8.175-19.212 59.074-41.276M250.819 74.36l33.067 5.193m-34.657 53.436 15.772 21.84 24.812-4.755m-40.584-17.085 40.584 17.085m-40.584-17.085 9.765-39.417m-9.765 39.417h39.532m1.052 17.085 14.829 25.058 24.334-1.073m-39.163-23.985 39.163 23.985m0 0 36.838-18.643m-36.838 18.643-40.215-41.07m40.215 41.07-13.234-42.458m13.234 42.458 15.729-53.249m21.109 34.606 15.746-23.12m-15.746 23.12-21.109-34.606m36.855 11.486 5.086-22.23m-5.086 22.23-36.855-11.486m41.941-10.744-19.354-23.37m19.354 23.37L373.41 62.509m13.236 47.557-64.09-23.37m64.09 23.37-41.941 10.744m22.587-34.114 6.118-24.187m-6.118 24.187h-44.736m50.854-24.187-13.218-13.257M373.41 62.51l-30.781-.55m30.781.55-50.854 24.187m37.636-37.443-16.923-10.026m16.923 10.026-50.299-16.169m33.376 6.143-33.376-6.143m33.376 6.143-.64 22.733m-32.736-28.876 32.736 28.876m-32.736-28.876 12.663 53.612m-12.663-53.612-26.007 46.469m-24.892 14.019 24.892-14.02m-24.892 14.02 20.444 18.248m63.191-49.86-20.073 24.736m0 0-38.67-7.143m38.67 7.143-43.118 25.124m43.118-25.124-6.814 44.905m6.814-44.905 22.149 34.114m-65.267-8.99 9.323 21.169m0 0 26.981-1.388m0 0 28.963-10.791"/><path stroke="#7f9cf5" stroke-width=".639" d="m265.412 155.039 18.129 12.052 21.305 8.668"/><circle cx="365.672" cy="155.275" r="1.82" fill="#7f9cf5" transform="rotate(-44.915 365.672 155.275)"/><circle cx="381.149" cy="132.419" r="1.82" fill="#7f9cf5" transform="rotate(-44.915 381.149 132.419)"/><circle cx="386.726" cy="109.531" r="1.82" fill="#7f9cf5" transform="rotate(-44.915 386.726 109.531)"/><circle cx="344.56" cy="120.927" r="1.82" fill="#7f9cf5" transform="rotate(-44.915 344.56 120.927)"/><circle cx="368.334" cy="87.089" r="1.82" fill="#7f9cf5" transform="rotate(-44.915 368.334 87.089)"/><circle cx="284.386" cy="79.091" r="1.82" fill="#7f9cf5" transform="rotate(-44.915 284.386 79.091)"/><circle cx="373.244" cy="62.059" r="1.82" fill="#7f9cf5" transform="rotate(-44.915 373.244 62.059)"/><circle cx="358.682" cy="48.025" r="1.82" fill="#7f9cf5" transform="rotate(-44.915 358.682 48.025)"/><circle cx="343.253" cy="38.85" r="1.82" fill="#7f9cf5" transform="rotate(-44.915 343.253 38.85)"/><circle cx="309.232" cy="32.795" r="1.82" fill="#7f9cf5" transform="rotate(-44.915 309.232 32.795)"/><circle cx="276.329" cy="43.899" r="1.82" fill="#7f9cf5" transform="rotate(-44.915 276.329 43.9)"/><circle cx="250.546" cy="74.173" r="1.82" fill="#7f9cf5" transform="rotate(-44.915 250.546 74.173)"/><circle cx="243.999" cy="105.01" r="1.82" fill="#7f9cf5" transform="rotate(-44.915 243.999 105.01)"/><circle cx="249.03" cy="132.797" r="1.82" fill="#7f9cf5" transform="rotate(-44.915 249.03 132.797)"/><circle cx="265.009" cy="155.125" r="1.82" fill="#7f9cf5" transform="rotate(-44.915 265.009 155.125)"/><circle cx="283.294" cy="167.161" r="1.82" fill="#7f9cf5" transform="rotate(-44.915 283.294 167.161)"/><circle cx="304.732" cy="175.488" r="1.82" fill="#7f9cf5" transform="rotate(-44.915 304.732 175.488)"/><circle cx="328.752" cy="174.38" r="1.82" fill="#7f9cf5" transform="rotate(-44.915 328.752 174.38)"/><circle cx="279.419" cy="111.799" r="1.82" fill="#7f9cf5" transform="rotate(-44.915 279.419 111.799)"/><circle cx="288.821" cy="132.87" r="1.82" fill="#7f9cf5" transform="rotate(-44.915 288.821 132.87)"/><circle cx="316.235" cy="131.464" r="1.82" fill="#7f9cf5" transform="rotate(-44.915 316.235 131.464)"/><circle cx="365.005" cy="153.943" r="5.814" fill="#fff"/><path fill="#d9f9f6" stroke="#535bcb" stroke-linejoin="round" stroke-width=".777" d="m364.82 150.223-3.202 1.848 3.202 1.849 3.201-1.849-1.6-.924z"/><path fill="url(#e)" stroke="#535bcb" stroke-linejoin="round" stroke-width=".777" d="m361.618 155.817 3.202 1.848v-3.696l-3.202-1.849z"/><path fill="url(#f)" stroke="#535bcb" stroke-linejoin="round" stroke-width=".777" d="M368.023 155.817v-3.697l-3.202 1.849v3.696z"/><circle cx="284.607" cy="80.026" r="5.814" fill="#fff"/><path fill="#d9f9f6" stroke="#535bcb" stroke-linejoin="round" stroke-width=".68" d="m284.421 76.305-3.201 1.848 3.201 1.849 3.202-1.849-1.601-.924z"/><path fill="url(#g)" stroke="#535bcb" stroke-linejoin="round" stroke-width=".68" d="m281.22 81.9 3.201 1.848V80.05l-3.201-1.849z"/><path fill="url(#h)" stroke="#535bcb" stroke-linejoin="round" stroke-width=".68" d="M287.624 81.9v-3.698l-3.201 1.849v3.697z"/><circle cx="309.242" cy="33.348" r="5.814" fill="#fff"/><circle cx="368.246" cy="86.51" r="5.814" fill="#fff"/><g clip-path="url(#i)"><path fill="#d9f9f6" d="m367.979 83.144-3.242 2.107 3.242 2.269 3.08-2.27z"/><path stroke="#535bcb" stroke-linecap="round" stroke-linejoin="round" stroke-width=".68" d="m367.979 83.143 3.242 2.108v2.269l-3.242 2.107-3.242-2.107v-2.27zm0 6.484V87.52"/><path stroke="#535bcb" stroke-linecap="round" stroke-linejoin="round" stroke-width=".68" d="m371.221 85.251-3.242 2.27-3.242-2.27"/><path stroke="#535bcb" stroke-linecap="round" stroke-linejoin="round" stroke-width=".68" d="m364.737 87.52 3.242-2.269 3.242 2.27m-3.242-4.378v2.108"/></g><circle cx="249.064" cy="132.669" r="6.263" fill="#fff"/><g clip-path="url(#j)"><ellipse cx="248.801" cy="130.461" fill="#d9f9f6" rx="2.756" ry=".81"/><path stroke="#535bcb" stroke-linecap="round" stroke-linejoin="round" stroke-width=".68" d="M248.963 131.38c1.477 0 2.674-.399 2.674-.892 0-.492-1.197-.891-2.674-.891s-2.675.399-2.675.891c0 .493 1.198.892 2.675.892m2.674 1.188c0 .494-1.188.892-2.674.892s-2.675-.398-2.675-.892"/><path stroke="#535bcb" stroke-linecap="round" stroke-linejoin="round" stroke-width=".68" d="M246.288 130.488v4.161c0 .493 1.189.891 2.675.891s2.674-.398 2.674-.891v-4.161"/></g><g clip-path="url(#k)"><circle cx="308.13" cy="34.503" r="1.459" fill="#d9f9f6"/><path stroke="#535bcb" stroke-linecap="round" stroke-linejoin="round" stroke-width=".68" d="m310.21 32.152.945-.945m.541-.54-.541.54zm-2.597 2.596a1.48 1.48 0 0 1 .331 1.624 1.5 1.5 0 0 1-.808.807 1.48 1.48 0 0 1-1.624-.33 1.486 1.486 0 0 1 2.101-2.101m0 0 1.111-1.11zm1.111-1.11.81.81.946-.946-.811-.81z"/></g><path fill="url(#l)" d="M310.218 49.615h19.699v37.612h-19.699z"/><ellipse cx="9.526" cy="9.55" fill="#f6e05e" rx="9.526" ry="9.55" transform="matrix(.98069 .1956 -.00818 .99997 311.381 75.418)"/><mask id="m" width="19" height="20" x="311" y="77" maskUnits="userSpaceOnUse" style="mask-type:alpha"><ellipse cx="9.526" cy="9.55" fill="#f6e05e" rx="9.526" ry="9.55" transform="matrix(.98069 .1956 -.00818 .99997 311.381 75.417)"/></mask><g stroke="#e9d212" stroke-width=".332" mask="url(#m)"><path d="m317.54 75.867-18.436 16.346m19.324-16.346-18.436 16.346m19.323-16.346L300.88 92.213m19.323-16.346-18.436 16.346m19.325-16.346-18.436 16.346m19.322-16.346-18.435 16.346m19.324-16.346-18.436 16.346m19.324-16.346-18.436 16.346m19.323-16.346-18.435 16.346m19.323-16.346-18.436 16.346m19.325-16.346-18.436 16.346m19.322-16.346L308.87 92.213m19.323-16.346-18.435 16.346m19.324-16.346-18.436 16.346m19.324-16.346-18.436 16.346m19.322-16.346-18.435 16.346m19.324-16.346-18.436 16.346m19.324-16.346-18.436 16.346m19.324-16.346-18.435 16.346m19.322-16.346-18.436 16.346m19.325-16.346-18.436 16.346m19.323-16.346-18.435 16.346m19.323-16.346-18.436 16.346m19.323-16.346-18.436 16.346m19.325-16.346-18.435 16.346m19.323-16.346-18.435 16.346m19.322-16.346-18.436 16.346m19.325-16.346-18.436 16.346m19.322-16.346-18.435 16.346m19.324-16.346-18.436 16.346m19.325-16.346L325.74 92.213m19.322-16.346-18.435 16.346m19.324-16.346-18.436 16.346m19.324-16.346-18.436 16.346m19.323-16.346-21.099 18.696"/></g><path fill="url(#n)" stroke="url(#o)" stroke-width=".664" d="M328.553 89.595c-.042 5.092-4.113 8.413-9.091 7.42-4.979-.993-8.983-5.924-8.941-11.016s4.113-8.413 9.091-7.42c4.979.993 8.983 5.925 8.941 11.016Z"/><path fill="url(#q)" stroke="#e9d212" stroke-width=".664" d="M328.006 89.49c-.039 4.782-3.863 7.9-8.538 6.968s-8.437-5.564-8.397-10.346 3.862-7.901 8.538-6.969c4.676.933 8.436 5.564 8.397 10.347Z"/><path fill="#fff" d="m324.748 77.305.45 3.546 3.788.42-3.788.421-.45 3.546-.45-3.546-3.788-.42 3.788-.421z"/><path fill="#e9d212" d="m319.321 93.152-.282-11.382.723.105.282 11.382zm2.067-7.524a1.6 1.6 0 0 0-.606-1.062q-.52-.426-1.296-.538-.557-.08-.957.038a1.17 1.17 0 0 0-.619.389 1 1 0 0 0-.203.657q.008.325.164.582.159.258.411.454.255.192.544.34.29.144.555.25l.888.358q.435.17.893.418.46.248.854.602.396.354.645.829.252.475.268 1.089.02.773-.363 1.316-.377.543-1.118.781-.736.24-1.795.085-1.014-.146-1.762-.578a3.45 3.45 0 0 1-1.183-1.089 3.1 3.1 0 0 1-.498-1.49l1.367.198q.051.5.338.869.29.366.73.589.445.22.97.295.578.084 1.022-.033.45-.12.702-.412.252-.296.241-.74a1.12 1.12 0 0 0-.246-.696 2.2 2.2 0 0 0-.623-.516 7 7 0 0 0-.876-.424l-1.075-.448q-1.091-.455-1.741-1.125a2.34 2.34 0 0 1-.668-1.62q-.02-.788.389-1.313t1.124-.745q.714-.224 1.623-.093a4.3 4.3 0 0 1 1.626.56 3.5 3.5 0 0 1 1.133 1.054q.42.624.456 1.36z"/><ellipse cx="5.897" cy="5.912" fill="#f6e05e" rx="5.897" ry="5.912" transform="matrix(.98069 .1956 -.00818 .99997 338.859 114.119)"/><mask id="r" width="13" height="13" x="338" y="115" maskUnits="userSpaceOnUse" style="mask-type:alpha"><ellipse cx="5.897" cy="5.912" fill="#f6e05e" rx="5.897" ry="5.912" transform="matrix(.98069 .1956 -.00818 .99997 338.859 114.119)"/></mask><g stroke="#e9d212" stroke-width=".206" mask="url(#r)"><path d="m342.672 114.216-11.414 10.12m11.964-10.12-11.414 10.12m11.963-10.12-11.413 10.12m11.963-10.12-11.413 10.12m11.964-10.12-11.413 10.12m11.962-10.12-11.414 10.12m11.964-10.12-11.414 10.12m11.962-10.12-11.413 10.12m11.965-10.12-11.413 10.12m11.961-10.12-11.413 10.12m11.963-10.12-11.414 10.12m11.964-10.12-11.414 10.12m11.962-10.12-11.413 10.12m11.964-10.12-11.413 10.12m11.962-10.12-11.413 10.12m11.962-10.12-11.413 10.12m11.964-10.12-11.414 10.12m11.962-10.12-11.413 10.12m11.963-10.12-11.413 10.12m11.963-10.12-11.413 10.12m11.963-10.12-11.413 10.12m11.962-10.12-11.414 10.12m11.964-10.12-11.413 10.12m11.963-10.12-11.413 10.12m11.963-10.12-11.413 10.12m11.963-10.12-11.413 10.12m11.962-10.12-11.414 10.12m11.965-10.12-11.414 10.12m11.962-10.12-11.413 10.12m11.963-10.12-11.413 10.12m11.963-10.12-11.413 10.12m11.963-10.12-11.414 10.12m11.965-10.12-11.414 10.12m11.96-10.12-11.413 10.12m11.964-10.12-13.062 11.575"/></g><path fill="url(#s)" stroke="url(#t)" stroke-width=".411" d="M349.49 122.896c-.026 3.152-2.547 5.208-5.629 4.593-3.082-.614-5.561-3.667-5.535-6.819s2.546-5.209 5.629-4.594 5.56 3.668 5.535 6.82Z"/><path fill="url(#u)" stroke="#e9d212" stroke-width=".411" d="M349.151 122.831c-.025 2.96-2.392 4.891-5.287 4.314-2.894-.578-5.222-3.445-5.198-6.405s2.391-4.892 5.286-4.315c2.895.578 5.223 3.445 5.199 6.406Z"/><path fill="#fff" d="m347.135 115.287.278 2.195 2.345.26-2.345.261-.278 2.195-.279-2.195-2.345-.261 2.345-.26z"/><path fill="#e9d212" d="m343.775 124.919-.175-7.046.448.065.174 7.046zm1.28-4.658a1 1 0 0 0-.376-.657 1.6 1.6 0 0 0-.802-.333 1.4 1.4 0 0 0-.592.024.72.72 0 0 0-.383.24.6.6 0 0 0-.126.407.7.7 0 0 0 .101.36q.099.16.255.281.157.12.337.211.179.089.343.154l.55.222q.269.105.553.259.283.153.529.373.245.219.398.513.157.294.167.674.012.479-.225.815-.233.336-.692.484-.457.147-1.111.052a3 3 0 0 1-1.092-.358 2.14 2.14 0 0 1-.732-.674 1.9 1.9 0 0 1-.308-.922l.846.122q.032.31.209.538.18.226.453.365.274.135.6.183.357.051.633-.021a.85.85 0 0 0 .434-.255.65.65 0 0 0 .149-.459.7.7 0 0 0-.152-.43 1.3 1.3 0 0 0-.386-.319 4 4 0 0 0-.542-.263l-.665-.277q-.676-.282-1.078-.697a1.45 1.45 0 0 1-.414-1.003q-.011-.488.241-.813.254-.325.696-.461a2.24 2.24 0 0 1 1.005-.057q.567.082 1.006.346.442.264.702.653.26.386.282.841z"/><ellipse cx="5.897" cy="5.912" fill="#f6e05e" rx="5.897" ry="5.912" transform="matrix(.98069 .1956 -.00818 .99997 253.997 86.747)"/><mask id="v" width="13" height="13" x="253" y="87" maskUnits="userSpaceOnUse" style="mask-type:alpha"><ellipse cx="5.897" cy="5.912" fill="#f6e05e" rx="5.897" ry="5.912" transform="matrix(.98069 .1956 -.00818 .99997 253.996 86.747)"/></mask><g stroke="#e9d212" stroke-width=".206" mask="url(#v)"><path d="m257.807 86.917-11.413 10.12m11.963-10.12-11.413 10.12m11.963-10.12-11.413 10.12m11.963-10.12-11.413 10.12m11.964-10.12-11.414 10.12m11.962-10.12-11.413 10.12m11.962-10.12-11.413 10.12m11.963-10.12-11.413 10.12m11.964-10.12-11.413 10.12m11.962-10.12-11.414 10.12m11.963-10.12-11.414 10.12m11.964-10.12-11.413 10.12m11.962-10.12-11.413 10.12m11.963-10.12-11.413 10.12m11.963-10.12-11.414 10.12m11.963-10.12-11.414 10.12m11.963-10.12-11.413 10.12m11.962-10.12-11.413 10.12m11.964-10.12-11.413 10.12m11.963-10.12-11.414 10.12m11.963-10.12-11.414 10.12m11.963-10.12-11.413 10.12m11.963-10.12-11.413 10.12m11.964-10.12-11.413 10.12m11.962-10.12-11.413 10.12m11.963-10.12-11.414 10.12m11.963-10.12-11.413 10.12m11.964-10.12-11.413 10.12m11.962-10.12-11.413 10.12m11.963-10.12-11.413 10.12m11.963-10.12-11.414 10.12m11.964-10.12-11.414 10.12m11.964-10.12-11.413 10.12m11.96-10.12-11.413 10.12m11.964-10.12-13.062 11.575"/></g><path fill="url(#w)" stroke="url(#x)" stroke-width=".411" d="M264.627 95.523c-.025 3.152-2.546 5.208-5.628 4.594-3.082-.615-5.561-3.668-5.535-6.82s2.546-5.208 5.628-4.594c3.082.615 5.561 3.668 5.535 6.82Z"/><path fill="url(#y)" stroke="#e9d212" stroke-width=".411" d="M264.288 95.458c-.024 2.96-2.391 4.891-5.286 4.314s-5.223-3.445-5.198-6.405 2.391-4.892 5.286-4.315c2.895.578 5.223 3.445 5.198 6.406Z"/><path fill="#fff" d="m262.272 87.916.279 2.195 2.345.26-2.345.26-.279 2.196-.278-2.195-2.346-.26 2.346-.261z"/><path fill="#e9d212" d="m258.913 97.62-.175-7.047.447.065.175 7.046zm1.279-4.658a1 1 0 0 0-.375-.658 1.6 1.6 0 0 0-.802-.333 1.4 1.4 0 0 0-.593.024.73.73 0 0 0-.383.24.6.6 0 0 0-.126.407.73.73 0 0 0 .102.36q.1.16.254.281.159.12.337.211.18.089.344.154l.55.222q.268.105.553.259.284.154.528.373t.399.513q.157.293.166.674.012.479-.224.815-.234.336-.693.484-.455.147-1.111.052a3 3 0 0 1-1.091-.358 2.14 2.14 0 0 1-.732-.674 1.9 1.9 0 0 1-.308-.922l.846.123q.032.309.209.537.18.227.452.365.276.135.601.183.357.05.633-.02a.85.85 0 0 0 .434-.256.65.65 0 0 0 .149-.458.7.7 0 0 0-.152-.431 1.3 1.3 0 0 0-.386-.32 4.4 4.4 0 0 0-.542-.262l-.665-.277q-.676-.282-1.078-.697a1.45 1.45 0 0 1-.414-1.003q-.012-.487.241-.813t.696-.461q.443-.14 1.004-.057.568.082 1.007.346.442.264.702.653.26.386.282.841z"/><ellipse cx="5.897" cy="5.912" fill="#f6e05e" rx="5.897" ry="5.912" transform="matrix(-.98069 .1956 .00818 .99997 347.343 55.416)"/><mask id="z" width="13" height="13" x="335" y="56" maskUnits="userSpaceOnUse" style="mask-type:alpha"><ellipse cx="5.897" cy="5.912" fill="#f6e05e" rx="5.897" ry="5.912" transform="matrix(-.98069 .1956 .00818 .99997 347.344 55.415)"/></mask><g stroke="#e9d212" stroke-width=".206" mask="url(#z)"><path d="m343.533 55.669 11.413 10.12m-11.963-10.12 11.413 10.12m-11.963-10.12 11.413 10.12m-11.962-10.12 11.413 10.12m-11.964-10.12 11.413 10.12m-11.962-10.12 11.413 10.12m-11.962-10.12 11.413 10.12m-11.963-10.12 11.413 10.12m-11.964-10.12 11.413 10.12m-11.961-10.12 11.413 10.12m-11.963-10.12 11.413 10.12m-11.963-10.12 11.413 10.12m-11.962-10.12 11.413 10.12m-11.963-10.12 11.413 10.12m-11.963-10.12 11.413 10.12m-11.962-10.12 11.413 10.12m-11.962-10.12 11.413 10.12m-11.962-10.12 11.413 10.12m-11.964-10.12 11.413 10.12m-11.963-10.12 11.413 10.12m-11.962-10.12 11.413 10.12m-11.963-10.12 11.414 10.12m-11.964-10.12 11.414 10.12m-11.964-10.12 11.413 10.12m-11.963-10.12 11.413 10.12m-11.963-10.12 11.414 10.12m-11.962-10.12 11.413 10.12m-11.965-10.12 11.414 10.12m-11.962-10.12 11.413 10.12m-11.963-10.12 11.413 10.12m-11.963-10.12 11.413 10.12m-11.961-10.12 11.413 10.12m-11.964-10.12 11.413 10.12m-11.961-10.12 11.413 10.12m-11.964-10.12 13.062 11.575"/></g><path fill="url(#A)" stroke="url(#B)" stroke-width=".411" d="M336.713 64.194c.025 3.152 2.546 5.208 5.628 4.593s5.561-3.668 5.535-6.82-2.546-5.208-5.628-4.593c-3.083.614-5.561 3.667-5.535 6.82Z"/><path fill="url(#C)" stroke="#e9d212" stroke-width=".411" d="M337.051 64.127c.025 2.96 2.392 4.891 5.287 4.314s5.223-3.445 5.198-6.405-2.391-4.892-5.286-4.315c-2.895.578-5.223 3.445-5.199 6.406Z"/><path fill="#fff" d="m339.068 56.585-.279 2.195-2.345.26 2.345.26.279 2.196.278-2.196 2.345-.26-2.345-.26z"/><path fill="#e9d212" d="M341.963 66.703v-7.049l.436-.117v7.049zm1.366-5.229q-.042-.38-.351-.511-.31-.135-.778-.01a1.8 1.8 0 0 0-.581.267q-.245.172-.381.399a.9.9 0 0 0-.133.462q0 .201.09.323.093.12.243.18.151.056.325.075.173.018.333.016h.533q.26-.003.535.036.275.04.509.16.234.123.378.356.147.233.147.614 0 .48-.24.915-.237.435-.69.771-.45.336-1.09.507-.612.165-1.06.083-.447-.08-.701-.382-.253-.305-.279-.806l.826-.222q.024.3.191.458a.75.75 0 0 0 .435.184q.266.025.583-.06.35-.093.621-.28.275-.188.431-.434a.96.96 0 0 0 .157-.524q0-.25-.138-.373a.73.73 0 0 0-.37-.165 3 3 0 0 0-.525-.044l-.645-.01q-.655-.008-1.039-.263-.381-.255-.381-.845 0-.488.256-.92.255-.43.693-.75.436-.32.985-.467.555-.15.978-.061.426.087.671.373.246.285.256.736z"/><ellipse cx="5.897" cy="5.912" fill="#f6e05e" rx="5.897" ry="5.912" transform="matrix(-.98069 .1956 .00818 .99997 295.039 143.142)"/><mask id="D" width="13" height="13" x="283" y="144" maskUnits="userSpaceOnUse" style="mask-type:alpha"><ellipse cx="5.897" cy="5.912" fill="#f6e05e" rx="5.897" ry="5.912" transform="matrix(-.98069 .1956 .00818 .99997 295.039 143.143)"/></mask><g stroke="#e9d212" stroke-width=".206" mask="url(#D)"><path d="m291.229 143.165 11.413 10.12m-11.963-10.12 11.413 10.12m-11.963-10.12 11.413 10.12m-11.963-10.12 11.413 10.12m-11.963-10.12 11.413 10.12m-11.962-10.12 11.413 10.12m-11.963-10.12 11.414 10.12m-11.964-10.12 11.414 10.12m-11.964-10.12 11.413 10.12m-11.961-10.12 11.413 10.12m-11.962-10.12 11.413 10.12m-11.964-10.12 11.413 10.12m-11.962-10.12 11.413 10.12m-11.963-10.12 11.413 10.12m-11.962-10.12 11.413 10.12m-11.962-10.12 11.413 10.12m-11.963-10.12 11.413 10.12m-11.962-10.12 11.413 10.12m-11.964-10.12 11.413 10.12m-11.962-10.12 11.413 10.12m-11.962-10.12 11.413 10.12m-11.963-10.12 11.413 10.12m-11.963-10.12 11.413 10.12m-11.964-10.12 11.413 10.12m-11.963-10.12 11.413 10.12m-11.961-10.12 11.413 10.12m-11.963-10.12 11.413 10.12m-11.964-10.12 11.413 10.12m-11.962-10.12 11.413 10.12m-11.963-10.12 11.413 10.12m-11.962-10.12 11.413 10.12m-11.963-10.12 11.413 10.12m-11.964-10.12 11.413 10.12m-11.961-10.12 11.414 10.12m-11.964-10.12 13.062 11.575"/></g><path fill="url(#E)" stroke="url(#F)" stroke-width=".411" d="M284.409 151.922c.026 3.152 2.546 5.208 5.628 4.593s5.561-3.667 5.535-6.82c-.025-3.152-2.546-5.208-5.628-4.593s-5.561 3.668-5.535 6.82Z"/><path fill="url(#G)" stroke="#e9d212" stroke-width=".411" d="M284.748 151.854c.024 2.96 2.391 4.891 5.286 4.314 2.895-.578 5.223-3.445 5.199-6.406s-2.392-4.891-5.287-4.314c-2.894.578-5.222 3.445-5.198 6.406Z"/><path fill="#fff" d="m286.764 144.311-.278 2.195-2.346.261 2.346.26.278 2.195.278-2.195 2.346-.26-2.346-.261z"/><path fill="#e9d212" d="M289.659 154.194v-7.048l.437-.117v7.048zm1.366-5.228q-.042-.38-.351-.512-.309-.134-.778-.009-.335.09-.581.266-.245.173-.381.4a.9.9 0 0 0-.133.462q0 .201.091.323a.57.57 0 0 0 .242.18q.152.056.325.075.172.016.333.015l.533.001q.26-.004.535.035t.509.161a.95.95 0 0 1 .378.356q.147.234.147.613 0 .48-.24.915-.237.435-.69.772-.45.335-1.089.506-.613.165-1.061.083-.448-.08-.7-.382-.253-.303-.28-.806l.826-.221q.024.299.192.458a.75.75 0 0 0 .434.184q.266.024.583-.06.35-.094.621-.28a1.5 1.5 0 0 0 .432-.435.97.97 0 0 0 .157-.524q0-.25-.139-.373a.73.73 0 0 0-.37-.165 3 3 0 0 0-.525-.044l-.645-.009q-.654-.007-1.039-.264-.38-.255-.38-.845 0-.487.255-.919.257-.432.693-.75.437-.321.986-.468.554-.148.977-.061.426.087.672.374.244.283.255.735z"/><path fill="#a3bffa" d="M429.748 75.516a.514.514 0 0 0-.711-.135l-3.738 2.586a.507.507 0 0 0-.119.71.514.514 0 0 0 .711.135l3.322-2.3 2.366 3.38a.514.514 0 0 0 .711.135.51.51 0 0 0 .12-.71zM102.9 265.064l.989.108.088-1.015-.987-.108zm2.993.324 2.039.213.083-1.016-2.036-.213zm4.113.425q1.029.103 2.076.205l.077-1.017q-1.044-.102-2.073-.205zm4.078.398q1.008.095 2.03.189l.072-1.017-2.028-.189zm4.088.375q1.037.092 2.086.181l.066-1.018q-1.048-.089-2.083-.181zm4.121.352q1.004.084 2.019.164l.059-1.019q-1.014-.08-2.016-.163zm4.061.322q1.027.078 2.065.154l.052-1.019q-1.036-.075-2.061-.153zm4.152.303 2.025.137.045-1.02a395 395 0 0 1-2.021-.137zm4.051.268 2.046.125.039-1.02-2.043-.125zm4.11.244q1.036.057 2.083.112l.031-1.02q-1.044-.054-2.079-.113zm4.117.215q1.01.05 2.029.096l.025-1.021q-1.017-.045-2.026-.095zm4.074.185q1.026.043 2.06.082l.017-1.021q-1.032-.039-2.056-.082zm4.135.157q1.024.036 2.055.067l.01-1.021q-1.03-.031-2.052-.067zm4.084.125q1.017.028 2.041.052l.002-1.022q-1.023-.024-2.038-.051zm4.095.095q1.03.02 2.066.036l-.006-1.022q-1.034-.015-2.062-.035zm4.144.064q1.012.011 2.029.019l-.014-1.022q-1.016-.007-2.025-.019zm4.065.03q1.022.004 2.048.003l-.023-1.022q-1.023.001-2.043-.003zm4.105-.002q1.031-.005 2.067-.014l-.03-1.022q-1.035.01-2.063.014zm4.128-.036q1.013-.013 2.031-.031l-.039-1.022q-1.016.018-2.027.031zm4.072-.07q1.022-.022 2.048-.049l-.048-1.021q-1.023.027-2.044.048zm4.105-.106a485 485 0 0 0 2.064-.067l-.057-1.021q-1.031.036-2.06.067zm4.114-.142q1.015-.039 2.033-.084l-.066-1.02q-1.016.044-2.028.083zm4.073-.177q1.022-.048 2.047-.103l-.075-1.02q-1.023.054-2.042.103zm4.1-.215q1.028-.058 2.058-.123l-.084-1.02q-1.03.065-2.054.123zm4.102-.254q1.015-.068 2.032-.141l-.094-1.019q-1.015.073-2.027.14zm4.069-.291q1.02-.078 2.041-.161l-.103-1.019q-1.02.084-2.037.161zm4.088-.332q1.024-.089 2.05-.183l-.114-1.017q-1.023.093-2.045.182zm4.09-.374a356 356 0 0 0 2.027-.201l-.124-1.016q-1.012.102-2.022.2zm4.058-.412q1.017-.11 2.034-.223l-.134-1.015q-1.015.114-2.029.222zm4.072-.456q1.02-.12 2.04-.246l-.145-1.014q-1.018.126-2.035.245zm4.075-.501q1.01-.13 2.02-.265l-.156-1.013q-1.008.135-2.015.264zm4.042-.541q1.011-.141 2.024-.288l-.167-1.012q-1.01.147-2.019.288zm4.05-.588q1.014-.153 2.028-.312l-.179-1.01q-1.011.16-2.022.311zm4.054-.636q1.005-.163 2.01-.333l-.19-1.008q-1.002.17-2.004.332zm4.021-.679q1.005-.175 2.011-.357l-.202-1.006q-1.003.181-2.005.357zm4.023-.728q1.005-.188 2.012-.383l-.214-1.003q-1.004.194-2.006.382zm4.024-.779q1-.2 1.999-.406l-.226-1.001q-.997.206-1.993.405zm3.994-.824q.997-.213 1.995-.432l-.238-.998q-.994.218-1.989.43zm3.99-.877a286 286 0 0 0 1.993-.459l-.251-.995q-.994.232-1.987.457zm3.985-.93q.993-.24 1.985-.485l-.264-.992q-.99.245-1.979.483zm3.962-.981q.987-.252 1.974-.51l-.277-.989q-.984.258-1.968.508zm3.947-1.034a338 338 0 0 0 1.971-.538l-.291-.986q-.981.272-1.964.537zm3.94-1.091q.983-.279 1.965-.567l-.305-.981q-.978.286-1.958.565zm3.917-1.145q.976-.293 1.95-.593l-.318-.977q-.97.298-1.943.591zm3.897-1.2q.974-.308 1.944-.623l-.333-.973q-.967.314-1.936.621zm3.884-1.26q.97-.323 1.937-.653l-.347-.968q-.964.329-1.93.65zm3.863-1.319q.962-.336 1.92-.68l-.362-.963q-.955.343-1.912.678zm3.835-1.376q.957-.351 1.911-.711l-.377-.957q-.95.358-1.903.708zm3.817-1.437q.953-.368 1.902-.743l-.392-.952q-.945.375-1.894.74zm3.797-1.501q.942-.381 1.882-.771l-.406-.946q-.936.388-1.875.768zm3.76-1.558a257 257 0 0 0 1.872-.804l-.422-.939q-.931.405-1.865.8zm3.738-1.624q.931-.414 1.86-.837l-.437-.931q-.925.42-1.853.833zm3.715-1.69q.922-.429 1.841-.867l-.454-.924q-.915.435-1.833.863zm3.673-1.749q.914-.446 1.825-.899l-.469-.917q-.907.452-1.818.895zm3.644-1.816a222 222 0 0 0 1.812-.933l-.485-.909a237 237 0 0 1-1.804.93zm3.617-1.884q.9-.48 1.795-.967l-.502-.9q-.891.486-1.787.963zm3.574-1.947q.886-.494 1.771-.997l-.518-.891q-.88.501-1.763.993zm3.534-2.012q.879-.511 1.755-1.033l-.534-.881q-.872.519-1.747 1.028zm3.502-2.083q.873-.53 1.739-1.069l-.55-.872q-.864.537-1.731 1.064zm3.461-2.15q.855-.544 1.707-1.096l-.567-.861q-.847.55-1.699 1.091zm3.406-2.21q.847-.562 1.69-1.133l-.583-.85q-.839.568-1.682 1.127zm3.371-2.284a209 209 0 0 0 1.672-1.169l-.6-.839q-.83.587-1.663 1.164zm3.334-2.357a227 227 0 0 0 1.635-1.194l-.616-.827q-.811.599-1.627 1.188zm3.26-2.407q.811-.61 1.616-1.231l-.632-.815q-.801.618-1.608 1.225zm3.222-2.481q.801-.63 1.596-1.269l-.648-.802q-.792.636-1.588 1.262zm3.182-2.557q.787-.646 1.567-1.301l-.664-.789q-.777.651-1.559 1.294zm3.11-2.609q.77-.658 1.533-1.327l-.68-.776q-.76.666-1.525 1.32zm3.055-2.673a214 214 0 0 0 1.511-1.365l-.696-.762q-.748.684-1.503 1.358zm3.011-2.749q.748-.697 1.489-1.404l-.711-.748q-.738.703-1.481 1.397zm2.952-2.813q.723-.704 1.441-1.417l-.726-.733q-.714.71-1.434 1.41zm2.87-2.854q.713-.723 1.418-1.455l-.74-.718q-.703.728-1.411 1.448zm2.825-2.93q.7-.743 1.395-1.494l-.755-.703q-.691.748-1.388 1.487zm2.778-3.008q.679-.751 1.352-1.511l-.77-.687a194 194 0 0 1-1.344 1.503zm2.681-3.03q.662-.764 1.319-1.538l-.783-.671q-.654.77-1.312 1.53zm2.625-3.095q.65-.784 1.294-1.577l-.797-.655q-.64.79-1.287 1.568zm2.576-3.173q.637-.802 1.269-1.615l-.809-.639q-.628.809-1.263 1.607zm2.506-3.223q.609-.801 1.213-1.611l-.822-.622q-.6.806-1.206 1.602zm2.413-3.241q.597-.819 1.188-1.648l-.834-.605a221 221 0 0 1-1.182 1.64zm2.363-3.315q.585-.838 1.163-1.687l-.846-.588q-.575.843-1.157 1.678zm2.314-3.392q.565-.848 1.124-1.705l-.857-.572q-.557.853-1.119 1.697zm2.215-3.396q.542-.849 1.078-1.708l-.868-.555q-.534.854-1.073 1.7zm2.144-3.435q.53-.868 1.053-1.745l-.878-.538q-.521.873-1.048 1.737zm2.094-3.509q.517-.886 1.027-1.783l-.888-.52a182 182 0 0 1-1.023 1.774zm2.043-3.584q.488-.876.97-1.762l-.897-.504q-.48.88-.966 1.754zm1.925-3.536q.474-.891.942-1.791l-.906-.487q-.466.895-.938 1.782zm1.872-3.6q.462-.909.918-1.827l-.915-.47q-.454.914-.913 1.818zm1.823-3.672q.448-.927.892-1.862l-.923-.454q-.441.932-.888 1.854zm1.766-3.733q.419-.907.832-1.824l-.931-.437q-.411.913-.828 1.816zm1.653-3.664q.406-.925.808-1.858l-.938-.421q-.4.929-.805 1.85zm1.603-3.733q.396-.941.784-1.891l-.945-.405q-.387.946-.78 1.884zm1.555-3.8q.383-.959.758-1.926l-.951-.389q-.375.964-.755 1.918zm1.502-3.863q.353-.934.701-1.876l-.957-.372q-.346.938-.699 1.868zm1.391-3.767q.342-.95.678-1.908l-.963-.357q-.335.954-.675 1.9zm1.344-3.831q.33-.966.654-1.94l-.968-.342a208 208 0 0 1-.652 1.932zm1.296-3.896q.318-.982.629-1.972l-.973-.327a252 252 0 0 1-.627 1.965zm1.247-3.961q.296-.968.587-1.944l-.978-.311q-.29.972-.585 1.937zm1.152-3.871q.28-.966.555-1.941l-.982-.297q-.273.971-.552 1.934zm1.097-3.898q.268-.981.531-1.971l-.985-.282a267 267 0 0 1-.53 1.964zm1.051-3.958q.257-.997.508-2.002l-.99-.268q-.25 1.002-.506 1.995zm1.004-4.02q.245-1.012.484-2.032l-.993-.253q-.238 1.016-.482 2.025zm.938-3.998q.222-.977.438-1.96l-.996-.24q-.215.98-.436 1.953zm.866-3.935q.211-.99.416-1.989l-.998-.226q-.205.994-.416 1.981zm.822-3.991q.2-1.005.394-2.017l-1.001-.213q-.194 1.008-.393 2.01zm.777-4.048q.189-1.019.372-2.045l-1.003-.2q-.183 1.021-.371 2.038zm.733-4.104.177-1.036-1.006-.191-.176 1.032z"/><ellipse cx="41.588" cy="41.695" fill="#f6e05e" rx="41.588" ry="41.695" transform="matrix(.98069 .1956 -.00818 .99997 328.563 134.288)"/><mask id="H" width="82" height="86" x="328" y="141" maskUnits="userSpaceOnUse" style="mask-type:alpha"><ellipse cx="41.588" cy="41.695" fill="#f6e05e" rx="41.588" ry="41.695" transform="matrix(.98069 .1956 -.00818 .99997 328.563 134.288)"/></mask><g stroke="#e9d212" stroke-width="1.701" mask="url(#H)"><path d="m355.53 136.845-80.487 71.367m84.363-71.367-80.487 71.367m84.363-71.367-80.487 71.367m84.363-71.367-80.487 71.367m84.364-71.367-80.487 71.367m84.363-71.367-80.487 71.367m84.363-71.367L298.3 208.212m84.363-71.367-80.487 71.367m84.363-71.367-80.487 71.367m84.363-71.367-80.487 71.367m84.364-71.367-80.487 71.367m84.362-71.367-80.487 71.367m84.364-71.367-80.487 71.367m84.364-71.367-80.487 71.367m84.363-71.367-80.487 71.367m84.363-71.367-80.487 71.367m84.363-71.367-80.488 71.367m84.364-71.367-80.488 71.367m84.364-71.367-80.488 71.367m84.364-71.367-80.488 71.367m84.364-71.367-80.488 71.367m84.364-71.367-80.488 71.367m84.365-71.367-80.488 71.367m84.364-71.367-80.488 71.367m84.363-71.367-80.487 71.367m84.364-71.367-80.487 71.367m84.363-71.367-80.487 71.367m84.363-71.367-80.487 71.367m84.363-71.367-80.487 71.367m84.363-71.367-80.487 71.367m84.363-71.367-80.487 71.367m84.364-71.367-80.487 71.367m84.363-71.367-80.487 71.367m84.363-71.367-80.487 71.367m84.364-71.367-92.116 81.627"/></g><path fill="url(#I)" stroke="url(#J)" stroke-width="3.402" d="M403.287 196.139c-.18 22.091-17.844 36.498-39.443 32.191-21.599-4.308-38.97-25.703-38.789-47.794s17.844-36.499 39.443-32.191c21.6 4.308 38.97 25.703 38.789 47.794Z"/><path fill="url(#K)" stroke="#e9d212" stroke-width="3.402" d="M400.894 195.661c-.17 20.74-16.753 34.266-37.03 30.222s-36.586-24.13-36.416-44.87 16.753-34.266 37.03-30.222c20.278 4.045 36.586 24.13 36.416 44.87Z"/><path fill="#e9d212" d="m363.226 212.213-1.231-49.691 3.156.458 1.232 49.691zm9.025-32.847q-.376-2.801-2.647-4.639-2.27-1.857-5.658-2.348-2.425-.351-4.177.168-1.752.5-2.7 1.697-.93 1.18-.888 2.869.034 1.418.715 2.541a7.6 7.6 0 0 0 1.794 1.981 16.3 16.3 0 0 0 2.377 1.486q1.262.628 2.424 1.087l3.875 1.567a35 35 0 0 1 3.9 1.823 19.4 19.4 0 0 1 3.728 2.629 12.8 12.8 0 0 1 2.814 3.619q1.106 2.075 1.172 4.753.084 3.377-1.583 5.747-1.649 2.371-4.883 3.412-3.216 1.042-7.835.372-4.428-.642-7.696-2.528-3.269-1.886-5.162-4.752-1.894-2.885-2.175-6.504l5.967.865q.227 2.18 1.475 3.792 1.267 1.596 3.19 2.571a14 14 0 0 0 4.232 1.29q2.521.366 4.465-.145 1.962-.528 3.062-1.8 1.1-1.291 1.052-3.232-.044-1.767-1.073-3.037-1.01-1.268-2.721-2.252a31 31 0 0 0-3.825-1.85l-4.689-1.956q-4.769-1.987-7.602-4.913-2.815-2.922-2.918-7.076-.086-3.435 1.699-5.73 1.785-2.294 4.906-3.253 3.121-.979 7.086-.404 4.004.58 7.099 2.441 3.115 1.863 4.948 4.605 1.832 2.722 1.988 5.936z"/><path fill="#fff" d="M62.09 134.227q.174 0 .28.14.14.105.14.281v3.439a.43.43 0 0 1-.14.315.38.38 0 0 1-.28.106h-6.282q-.175 0-.175.175v19.686a.44.44 0 0 1-.14.316.38.38 0 0 1-.282.105h-4.105a.5.5 0 0 1-.316-.105.5.5 0 0 1-.105-.316v-19.686q0-.175-.176-.175h-6.105a.5.5 0 0 1-.316-.106.5.5 0 0 1-.105-.315v-3.439a.38.38 0 0 1 .105-.281.43.43 0 0 1 .316-.14zm11.964 6.246q2.807 0 4.526 1.719 1.72 1.72 1.72 4.667v11.51a.44.44 0 0 1-.14.316.38.38 0 0 1-.281.105h-4.106a.5.5 0 0 1-.316-.105.5.5 0 0 1-.105-.316v-10.492q0-1.404-.807-2.281-.772-.877-2.07-.877-1.299 0-2.106.877-.772.877-.772 2.281v10.492a.44.44 0 0 1-.14.316.38.38 0 0 1-.28.105H65.07a.5.5 0 0 1-.316-.105.5.5 0 0 1-.105-.316v-23.721a.38.38 0 0 1 .105-.281.43.43 0 0 1 .316-.14h4.105q.175 0 .281.14.14.105.14.281v7.755q0 .105.07.14t.106-.035q1.439-2.035 4.28-2.035M99 147.912q.211 1.333.14 2.983-.035.42-.455.421H87.843q-.211 0-.14.175.105.702.385 1.404.912 1.965 3.72 1.965 2.245-.035 3.544-1.825.14-.21.316-.21.105 0 .245.14l2.527 2.492q.175.175.175.315 0 .07-.14.281-1.158 1.439-2.983 2.246-1.824.772-4 .772-3.018 0-5.123-1.369-2.07-1.368-2.983-3.825-.737-1.754-.737-4.596 0-1.93.526-3.404.808-2.492 2.808-3.965 2.036-1.474 4.807-1.474 3.51 0 5.615 2.035 2.14 2.035 2.596 5.439m-8.176-3.193q-2.21 0-2.912 2.07a8 8 0 0 0-.246 1.123q0 .176.176.176h6.07q.21 0 .14-.176a28 28 0 0 0-.175-.982q-.315-1.053-1.123-1.615-.771-.596-1.93-.596m27.444-10.527q2.316 0 4.071.947a6.54 6.54 0 0 1 2.702 2.702q.982 1.72.982 3.965 0 2.21-1.017 3.895-.983 1.685-2.807 2.632-1.79.913-4.141.913h-4.983q-.175 0-.175.175v8.948a.44.44 0 0 1-.141.316.38.38 0 0 1-.281.105h-4.105a.5.5 0 0 1-.316-.105.5.5 0 0 1-.105-.316v-23.756a.38.38 0 0 1 .105-.281.44.44 0 0 1 .316-.14zm-.736 11.088q1.614 0 2.596-.912.983-.948.983-2.456 0-1.544-.983-2.492-.982-.947-2.596-.947h-4.457q-.175 0-.175.175v6.457q0 .175.175.175zm19.499-4.772q1.263 0 2 .491.28.14.21.527l-.737 4q-.035.421-.491.246a3.9 3.9 0 0 0-1.228-.176 6 6 0 0 0-.772.07q-1.264.105-2.14.948-.878.807-.878 2.175v9.58a.44.44 0 0 1-.14.316.38.38 0 0 1-.281.105h-4.105a.5.5 0 0 1-.316-.105.5.5 0 0 1-.106-.316v-17.194a.38.38 0 0 1 .106-.281.43.43 0 0 1 .316-.14h4.105q.176 0 .281.14.14.105.14.281v1.333q0 .105.07.14t.106-.035q1.439-2.105 3.86-2.105m6.415-1.79q-1.193 0-2-.772-.772-.807-.772-2 0-1.228.772-2 .771-.772 2-.772 1.227 0 2 .772t.772 2q0 1.193-.807 2-.773.772-1.965.772m-2.106 20.072a.5.5 0 0 1-.316-.105.5.5 0 0 1-.105-.316V141.14a.38.38 0 0 1 .105-.281.44.44 0 0 1 .316-.141h4.106q.175 0 .281.141.14.105.14.281v17.229a.44.44 0 0 1-.14.316.38.38 0 0 1-.281.105zm14.875.246q-2.352 0-4.106-.667-1.755-.666-2.737-1.86a4.23 4.23 0 0 1-.948-2.702v-.351q0-.175.106-.28a.44.44 0 0 1 .316-.141h3.895q.175 0 .28.141.141.105.141.28v.035q0 .773.842 1.334.877.526 2.175.526 1.194 0 1.93-.456.738-.49.737-1.193 0-.632-.631-.947-.631-.316-2.071-.667-1.649-.422-2.596-.807-2.247-.773-3.58-1.895-1.333-1.124-1.333-3.228 0-2.597 2-4.106 2.036-1.544 5.369-1.544 2.245 0 3.93.737 1.685.701 2.597 2 .947 1.299.947 2.948a.43.43 0 0 1-.14.315.38.38 0 0 1-.281.106h-3.754a.5.5 0 0 1-.316-.106.5.5 0 0 1-.106-.315q0-.772-.807-1.299-.771-.526-2.07-.526-1.158 0-1.895.421t-.737 1.158q0 .702.702 1.053.737.35 2.421.737.387.105.878.245.49.105 1.052.281 2.492.737 3.93 1.895 1.44 1.158 1.439 3.369 0 2.597-2.07 4.07-2.035 1.439-5.509 1.439m29.72-18.563q2.736 0 4.281 1.649t1.544 4.632v11.615a.44.44 0 0 1-.141.316.38.38 0 0 1-.28.105h-4.106a.5.5 0 0 1-.316-.105.5.5 0 0 1-.105-.316v-10.527q0-1.439-.737-2.281t-1.965-.842q-1.229 0-2 .842-.772.842-.772 2.246v10.562a.44.44 0 0 1-.141.316.38.38 0 0 1-.28.105h-4.071a.5.5 0 0 1-.316-.105.5.5 0 0 1-.105-.316v-10.527q0-1.404-.772-2.246-.772-.877-2-.877-1.123 0-1.895.667-.737.666-.877 1.859v11.124a.44.44 0 0 1-.141.316.38.38 0 0 1-.28.105h-4.106a.5.5 0 0 1-.316-.105.5.5 0 0 1-.105-.316v-17.194a.38.38 0 0 1 .105-.281.44.44 0 0 1 .316-.14h4.106a.33.33 0 0 1 .28.14q.141.105.141.281v1.368q0 .105.07.141t.14-.071q1.439-2.14 4.457-2.14 1.755 0 3.053.737a4.9 4.9 0 0 1 2.035 2.105q.105.211.246 0 .771-1.438 2.07-2.14 1.333-.702 2.983-.702m15.789 0q2.281 0 4.071.807 1.79.772 2.772 2.14a5 5 0 0 1 1.017 3.053v11.896a.44.44 0 0 1-.14.316.38.38 0 0 1-.281.105h-4.105a.5.5 0 0 1-.316-.105.5.5 0 0 1-.105-.316v-1.158q0-.105-.071-.14t-.14.07q-1.474 1.93-4.737 1.93-2.738 0-4.422-1.334t-1.684-3.93q0-2.702 1.895-4.175 1.895-1.509 5.404-1.509h3.579q.176 0 .176-.176v-.772q0-1.158-.702-1.789-.702-.667-2.106-.667-1.088 0-1.824.386-.702.386-.913 1.088-.105.386-.456.351l-4.246-.562q-.421-.07-.386-.316.141-1.473 1.158-2.667 1.053-1.193 2.737-1.859 1.72-.667 3.825-.667m-.702 14.913q1.509 0 2.562-.807t1.053-2.07v-1.263q0-.176-.176-.176h-2.526q-1.58 0-2.492.597-.877.596-.877 1.684 0 .948.667 1.509.666.526 1.789.526M62.16 173.052a.43.43 0 0 1-.14.315.38.38 0 0 1-.282.106H50.264q-.176 0-.176.175v5.439q0 .176.176.176h7.544q.175 0 .281.14.14.105.14.281v3.404a.44.44 0 0 1-.14.315.38.38 0 0 1-.28.106h-7.545q-.176 0-.176.175v9.685a.44.44 0 0 1-.14.316.38.38 0 0 1-.28.105h-4.106a.5.5 0 0 1-.316-.105.5.5 0 0 1-.105-.316v-23.721a.38.38 0 0 1 .105-.281.43.43 0 0 1 .316-.14h16.176q.175 0 .281.14.14.105.14.281zm10.618 21.124q-2.738 0-4.843-1.123a8.13 8.13 0 0 1-3.228-3.123q-1.158-2.035-1.158-4.667v-7.509q0-2.597 1.158-4.597a7.9 7.9 0 0 1 3.228-3.088q2.106-1.123 4.843-1.123 2.772 0 4.842 1.123 2.106 1.087 3.264 3.088 1.158 2 1.158 4.597v7.509q0 2.632-1.158 4.667a8 8 0 0 1-3.264 3.158q-2.07 1.089-4.842 1.088m0-4.246q1.929 0 3.123-1.228 1.193-1.229 1.193-3.263v-7.72q0-2.035-1.193-3.264-1.158-1.263-3.123-1.263-1.93 0-3.123 1.263-1.158 1.228-1.158 3.264v7.72q0 2.034 1.158 3.263 1.193 1.228 3.123 1.228m20.777 4.141q-2.808 0-4.913-.877-2.106-.913-3.263-2.562-1.124-1.684-1.123-3.895v-.772a.38.38 0 0 1 .105-.281.44.44 0 0 1 .316-.14h4q.175 0 .28.14.141.105.141.281v.526q0 1.404 1.299 2.386 1.298.948 3.509.948 1.86 0 2.772-.772.912-.807.912-1.965 0-.842-.561-1.404-.563-.596-1.544-1.017-.948-.457-3.053-1.229-2.352-.806-4-1.649a8.3 8.3 0 0 1-2.738-2.281q-1.088-1.473-1.088-3.614 0-2.106 1.088-3.685 1.087-1.578 3.018-2.421t4.457-.842q2.667 0 4.737.947 2.105.948 3.263 2.667 1.194 1.685 1.193 3.93v.527a.44.44 0 0 1-.14.316.38.38 0 0 1-.281.105h-4.035a.5.5 0 0 1-.316-.105.5.5 0 0 1-.105-.316v-.281q0-1.474-1.228-2.491-1.194-1.053-3.299-1.053-1.65 0-2.597.702-.912.702-.912 1.93 0 .877.526 1.474.562.596 1.615 1.087 1.087.457 3.333 1.264 2.492.912 3.895 1.614 1.44.701 2.562 2.105 1.158 1.37 1.158 3.579 0 3.299-2.421 5.229-2.422 1.895-6.562 1.895m20.167 0q-2.807 0-4.913-.877-2.105-.913-3.263-2.562-1.123-1.684-1.123-3.895v-.772a.38.38 0 0 1 .105-.281.44.44 0 0 1 .316-.14h4.001q.175 0 .28.14.141.105.141.281v.526q0 1.404 1.298 2.386 1.298.948 3.509.948 1.86 0 2.772-.772.913-.807.913-1.965 0-.842-.562-1.404-.561-.596-1.544-1.017-.947-.457-3.053-1.229-2.351-.806-4-1.649a8.3 8.3 0 0 1-2.737-2.281q-1.088-1.473-1.088-3.614 0-2.106 1.088-3.685 1.088-1.578 3.018-2.421t4.456-.842q2.667 0 4.737.947 2.106.948 3.264 2.667 1.193 1.685 1.193 3.93v.527a.44.44 0 0 1-.14.316.38.38 0 0 1-.281.105h-4.036a.5.5 0 0 1-.315-.105.5.5 0 0 1-.106-.316v-.281q0-1.474-1.228-2.491-1.193-1.053-3.298-1.053-1.65 0-2.597.702-.912.702-.912 1.93 0 .877.526 1.474.561.596 1.614 1.087 1.088.457 3.334 1.264 2.491.912 3.895 1.614 1.439.701 2.561 2.105 1.158 1.37 1.158 3.579 0 3.299-2.421 5.229-2.42 1.895-6.562 1.895m35.088-21.019a.44.44 0 0 1-.14.315.38.38 0 0 1-.281.106h-11.475q-.175 0-.175.175v5.439q0 .176.175.176h7.545q.175 0 .281.14.14.105.14.281v3.404a.44.44 0 0 1-.14.315.38.38 0 0 1-.281.106h-7.545q-.175 0-.175.175v9.685a.44.44 0 0 1-.14.316.38.38 0 0 1-.281.105h-4.106a.5.5 0 0 1-.316-.105.5.5 0 0 1-.105-.316v-23.721a.38.38 0 0 1 .105-.281.44.44 0 0 1 .316-.14h16.177q.176 0 .281.14.14.105.14.281zm10.858 3.123a.38.38 0 0 1 .106-.281.43.43 0 0 1 .316-.14h4.105q.176 0 .281.14.14.105.14.281v17.194a.44.44 0 0 1-.14.316.38.38 0 0 1-.281.105h-4.105a.5.5 0 0 1-.316-.105.5.5 0 0 1-.106-.316v-1.193q0-.105-.07-.105-.07-.036-.14.07-1.404 1.895-4.351 1.895-2.667 0-4.387-1.614t-1.719-4.527v-11.72a.38.38 0 0 1 .105-.281.44.44 0 0 1 .316-.14h4.07q.176 0 .281.14.141.105.141.281v10.492q0 1.404.736 2.281.773.876 2.106.877 1.192 0 1.965-.702.772-.737.947-1.895zm17.297-.702q2.808 0 4.527 1.719t1.72 4.667v11.51a.44.44 0 0 1-.141.316.38.38 0 0 1-.281.105h-4.105a.5.5 0 0 1-.316-.105.5.5 0 0 1-.105-.316v-10.492q0-1.404-.807-2.281-.772-.877-2.071-.877-1.298 0-2.105.877-.772.877-.772 2.281v10.492a.44.44 0 0 1-.14.316.38.38 0 0 1-.281.105h-4.106a.5.5 0 0 1-.316-.105.5.5 0 0 1-.105-.316v-17.194a.38.38 0 0 1 .105-.281.44.44 0 0 1 .316-.14h4.106q.175 0 .281.14.14.105.14.281v1.228q0 .105.07.14t.105-.035q1.439-2.035 4.281-2.035m20.176-5.825a.38.38 0 0 1 .105-.281.43.43 0 0 1 .316-.14h4.105q.176 0 .281.14.14.105.14.281v23.721a.44.44 0 0 1-.14.316.38.38 0 0 1-.281.105h-4.105a.5.5 0 0 1-.316-.105.5.5 0 0 1-.105-.316v-1.158q0-.105-.071-.105-.07-.036-.14.035-1.474 1.93-4.035 1.93-2.457 0-4.246-1.369-1.755-1.368-2.527-3.754-.597-1.825-.596-4.246 0-2.492.631-4.352.807-2.245 2.527-3.544 1.754-1.333 4.316-1.333 2.526 0 3.93 1.754.07.106.14.071t.071-.141zm-.737 18.668q.701-1.299.701-3.544 0-2.352-.772-3.685-.806-1.368-2.351-1.368-1.649 0-2.491 1.368-.877 1.37-.877 3.72 0 2.105.737 3.509.877 1.509 2.596 1.509 1.58 0 2.457-1.509"/><path fill="#c3dafe" d="M49.378 92.1a.14.14 0 0 1-.047.105.13.13 0 0 1-.093.035h-3.82q-.059 0-.059.058v1.81q0 .06.059.06h2.511q.059 0 .094.046a.11.11 0 0 1 .046.094v1.132a.14.14 0 0 1-.046.106.13.13 0 0 1-.094.035h-2.511q-.059 0-.059.058v3.224a.14.14 0 0 1-.046.105.13.13 0 0 1-.094.035h-1.366a.17.17 0 0 1-.105-.035.17.17 0 0 1-.035-.105v-7.896q0-.059.035-.094a.14.14 0 0 1 .105-.046h5.385q.058 0 .093.046a.11.11 0 0 1 .047.094zm6.524 6.903a.165.165 0 0 1-.163-.105l-1.46-3.236q-.024-.046-.07-.046h-1.087q-.058 0-.058.058v3.189a.14.14 0 0 1-.047.105.13.13 0 0 1-.093.035h-1.367a.17.17 0 0 1-.105-.035.17.17 0 0 1-.035-.105v-7.896q0-.059.035-.094a.15.15 0 0 1 .105-.046h3.34q.749 0 1.309.303.573.304.876.865.315.56.315 1.296 0 .794-.397 1.367-.396.56-1.11.794-.057.024-.034.082l1.588 3.306a.2.2 0 0 1 .023.07q0 .093-.128.093zm-2.78-6.763q-.058 0-.058.058v1.998q0 .058.058.058h1.53q.491 0 .795-.292a1 1 0 0 0 .315-.76 1 1 0 0 0-.315-.758q-.305-.304-.794-.304zm12.315-.14a.14.14 0 0 1-.047.105.13.13 0 0 1-.093.035h-3.832q-.058 0-.058.058v1.81q0 .06.058.06h2.512q.058 0 .093.046a.11.11 0 0 1 .047.094v1.132a.14.14 0 0 1-.047.106.13.13 0 0 1-.093.035h-2.512q-.058 0-.058.058v1.892q0 .06.058.059h3.832q.058 0 .093.046a.11.11 0 0 1 .047.094v1.133a.14.14 0 0 1-.047.105.13.13 0 0 1-.093.035H59.9a.17.17 0 0 1-.105-.035.17.17 0 0 1-.035-.105v-7.896q0-.059.035-.094a.15.15 0 0 1 .105-.046h5.397q.058 0 .093.046a.11.11 0 0 1 .047.094zm7.99 0a.14.14 0 0 1-.047.105.13.13 0 0 1-.094.035h-3.831q-.058 0-.058.058v1.81q0 .06.058.06h2.511q.059 0 .094.046a.11.11 0 0 1 .046.094v1.132a.14.14 0 0 1-.046.106.13.13 0 0 1-.094.035h-2.511q-.058 0-.058.058v1.892q0 .06.058.059h3.831q.059 0 .094.046a.11.11 0 0 1 .046.094v1.133a.14.14 0 0 1-.046.105.13.13 0 0 1-.094.035H67.89a.17.17 0 0 1-.106-.035.17.17 0 0 1-.035-.105v-7.896q0-.059.035-.094a.15.15 0 0 1 .106-.046h5.396q.059 0 .094.046a.11.11 0 0 1 .046.094zm11.016 6.903q-.116 0-.151-.117l-.35-1.144q-.024-.048-.06-.047H81.01q-.035 0-.058.047l-.339 1.144q-.035.117-.152.117h-1.483q-.07 0-.105-.035-.036-.047-.012-.128l2.523-7.897q.035-.117.152-.116h1.834q.117 0 .152.116l2.523 7.897a.13.13 0 0 1 .011.058q0 .105-.128.105zm-3.072-2.651q-.011.07.047.07h2.056q.07 0 .047-.07l-1.052-3.47q-.01-.045-.035-.035-.023 0-.035.035zm11.575-5.385q0-.059.035-.094a.15.15 0 0 1 .105-.046h1.367q.059 0 .093.046a.11.11 0 0 1 .047.094v7.896a.14.14 0 0 1-.047.105.13.13 0 0 1-.093.035h-1.32q-.117 0-.164-.093l-3.025-5q-.024-.034-.047-.023-.023 0-.023.047l.023 4.929a.14.14 0 0 1-.047.105.13.13 0 0 1-.093.035H88.39a.17.17 0 0 1-.105-.035.17.17 0 0 1-.035-.105v-7.896q0-.059.035-.094a.15.15 0 0 1 .105-.046h1.32q.117 0 .164.093l3.014 4.976q.022.035.046.035.024-.012.024-.058zm4.312 8.036a.17.17 0 0 1-.105-.035.17.17 0 0 1-.035-.105v-7.896q0-.059.035-.094a.14.14 0 0 1 .105-.046h2.92q.877 0 1.531.315.665.303 1.028.864.362.56.362 1.297v3.224q0 .736-.362 1.296a2.43 2.43 0 0 1-1.028.877q-.654.303-1.531.303zm1.507-1.472q0 .06.058.059h1.414q.537 0 .864-.362.339-.363.351-.97v-2.686q0-.607-.339-.97-.327-.362-.888-.362h-1.401q-.06 0-.059.058zm13.157 1.6q-.911 0-1.612-.373a2.7 2.7 0 0 1-1.075-1.04q-.385-.677-.385-1.553v-2.5q0-.864.385-1.53a2.63 2.63 0 0 1 1.075-1.028q.701-.374 1.612-.374.922 0 1.612.374.7.362 1.086 1.028t.386 1.53v2.5q0 .876-.386 1.553a2.67 2.67 0 0 1-1.086 1.052q-.69.362-1.612.362m0-1.413q.642 0 1.04-.409.396-.408.397-1.086v-2.57q0-.677-.397-1.086-.386-.42-1.04-.42-.642 0-1.04.42-.385.41-.385 1.086v2.57q0 .678.385 1.087.398.408 1.04.408m8.89-6.903q.771 0 1.355.315.583.315.9.9.327.572.327 1.32 0 .735-.339 1.296a2.26 2.26 0 0 1-.935.876q-.595.304-1.378.304h-1.659q-.058 0-.058.058v2.979a.15.15 0 0 1-.047.105.12.12 0 0 1-.093.035h-1.367a.17.17 0 0 1-.105-.035.17.17 0 0 1-.035-.105v-7.908q0-.059.035-.093a.14.14 0 0 1 .105-.047zm-.245 3.691q.537 0 .864-.304.327-.316.327-.817 0-.515-.327-.83t-.864-.315h-1.484q-.058 0-.058.058v2.15q0 .058.058.058zm10.684-2.406a.15.15 0 0 1-.047.105.12.12 0 0 1-.093.035h-3.831q-.059 0-.059.058v1.81q0 .06.059.06h2.511a.11.11 0 0 1 .093.046.11.11 0 0 1 .047.094v1.132a.14.14 0 0 1-.047.106.12.12 0 0 1-.093.035h-2.511q-.059 0-.059.058v1.892q0 .06.059.059h3.831a.11.11 0 0 1 .093.046.11.11 0 0 1 .047.094v1.133a.15.15 0 0 1-.047.105.12.12 0 0 1-.093.035h-5.397a.17.17 0 0 1-.105-.035.17.17 0 0 1-.035-.105v-7.896q0-.059.035-.094a.14.14 0 0 1 .105-.046h5.397a.11.11 0 0 1 .093.046.11.11 0 0 1 .047.094zm7.008-1.133q0-.059.035-.094a.15.15 0 0 1 .106-.046h1.366q.058 0 .094.046a.11.11 0 0 1 .046.094v7.896a.14.14 0 0 1-.046.105.13.13 0 0 1-.094.035h-1.32q-.117 0-.163-.093l-3.026-5q-.023-.034-.046-.023-.024 0-.024.047l.024 4.929a.15.15 0 0 1-.047.105.13.13 0 0 1-.093.035h-1.367a.17.17 0 0 1-.105-.035.17.17 0 0 1-.035-.105v-7.896q0-.059.035-.094a.14.14 0 0 1 .105-.046h1.32q.117 0 .163.093l3.014 4.976q.023.035.047.035.023-.012.023-.058zm-91.743 20.13q-.934 0-1.635-.292-.702-.304-1.087-.853a2.3 2.3 0 0 1-.373-1.297v-.257q0-.058.035-.093a.15.15 0 0 1 .105-.047h1.331q.059 0 .094.047a.11.11 0 0 1 .047.093v.176q0 .467.432.794.432.315 1.168.315.618 0 .922-.257a.84.84 0 0 0 .304-.654.63.63 0 0 0-.187-.467 1.5 1.5 0 0 0-.514-.339q-.315-.151-1.016-.409a10 10 0 0 1-1.332-.549 2.8 2.8 0 0 1-.91-.759q-.363-.49-.363-1.203 0-.7.362-1.227a2.3 2.3 0 0 1 1.005-.806q.643-.28 1.483-.28.888 0 1.577.316.702.315 1.087.887.396.56.397 1.309v.175a.14.14 0 0 1-.047.105.13.13 0 0 1-.093.035h-1.344a.17.17 0 0 1-.105-.035.17.17 0 0 1-.035-.105v-.094q0-.49-.409-.829-.396-.35-1.098-.35-.549 0-.864.233a.77.77 0 0 0-.304.643q0 .292.175.49.187.199.538.362a24 24 0 0 0 1.11.421q.829.303 1.296.537.48.233.853.701.385.456.385 1.191 0 1.099-.806 1.741-.806.63-2.184.631m8.22.035q-.911 0-1.612-.374a2.7 2.7 0 0 1-1.075-1.04q-.385-.677-.385-1.553v-2.5q0-.864.386-1.53a2.63 2.63 0 0 1 1.074-1.028q.701-.374 1.612-.374.923 0 1.612.374.701.362 1.086 1.028t.386 1.53v2.5q0 .876-.386 1.553a2.67 2.67 0 0 1-1.086 1.052q-.69.362-1.612.362m0-1.414q.642 0 1.04-.409.397-.408.397-1.086v-2.57q0-.677-.397-1.086-.386-.42-1.04-.42-.642 0-1.04.42-.385.41-.385 1.086v2.57q0 .678.385 1.086.398.41 1.04.409m8.481 1.379q-.9 0-1.588-.351a2.63 2.63 0 0 1-1.063-.981q-.375-.642-.374-1.472v-5.326q0-.058.035-.094a.14.14 0 0 1 .105-.046H61.7a.11.11 0 0 1 .093.046.11.11 0 0 1 .047.094v5.338q0 .619.374 1.004.386.375 1.004.374.62 0 .993-.374.386-.385.386-1.004v-5.338q0-.058.035-.094a.14.14 0 0 1 .105-.046h1.367a.11.11 0 0 1 .093.046.11.11 0 0 1 .047.094v5.326q0 .83-.386 1.472-.373.632-1.063.981-.677.351-1.577.351m10.033-.094a.165.165 0 0 1-.163-.105l-1.46-3.236q-.025-.046-.07-.046H70.47q-.058 0-.058.058v3.189a.14.14 0 0 1-.047.105.13.13 0 0 1-.093.035h-1.367a.17.17 0 0 1-.105-.035.17.17 0 0 1-.035-.105v-7.896q0-.058.035-.094a.14.14 0 0 1 .105-.046h3.34q.748 0 1.309.303.572.304.876.865.315.56.315 1.296 0 .794-.397 1.367-.397.56-1.11.794-.057.024-.035.082l1.589 3.306a.2.2 0 0 1 .023.07q0 .093-.128.093zm-2.78-6.763q-.058 0-.058.058v1.998q0 .058.058.058H72q.49 0 .795-.292a1 1 0 0 0 .315-.759 1 1 0 0 0-.315-.759q-.304-.304-.795-.304zm9.511 6.857q-.91 0-1.6-.351a2.6 2.6 0 0 1-1.063-1.004q-.374-.643-.374-1.484v-2.698q0-.841.374-1.484.375-.642 1.063-.992.69-.351 1.6-.351.9 0 1.577.339.69.327 1.063.946.386.608.386 1.413 0 .106-.14.129l-1.367.082h-.023q-.117 0-.117-.129 0-.619-.386-.993-.374-.373-.993-.373-.63 0-1.016.373-.374.374-.374.993v2.815q0 .608.374.981.386.375 1.016.374.62 0 .993-.374.386-.373.386-.981 0-.128.14-.128l1.367.058q.058 0 .093.035.047.036.047.082a2.64 2.64 0 0 1-.386 1.425q-.373.62-1.063.958-.677.339-1.577.339M91.06 104.1a.14.14 0 0 1-.046.105.13.13 0 0 1-.094.035h-3.831q-.058 0-.058.058v1.811q0 .058.058.058H89.6q.059 0 .094.047a.11.11 0 0 1 .047.093v1.134a.15.15 0 0 1-.047.105.13.13 0 0 1-.094.035h-2.511q-.058 0-.058.058v1.892q0 .059.058.059h3.831a.11.11 0 0 1 .094.047.11.11 0 0 1 .046.093v1.133a.14.14 0 0 1-.046.105.13.13 0 0 1-.094.035h-5.396a.17.17 0 0 1-.105-.035.17.17 0 0 1-.036-.105v-7.896q0-.058.036-.094a.14.14 0 0 1 .105-.046h5.396a.11.11 0 0 1 .094.046.11.11 0 0 1 .046.094zm8.623 6.997q-.934 0-1.635-.292-.702-.304-1.087-.853a2.3 2.3 0 0 1-.373-1.297v-.257q0-.058.035-.093a.15.15 0 0 1 .105-.047h1.331q.059 0 .094.047a.11.11 0 0 1 .046.093v.176q0 .467.433.794.432.315 1.168.315.619 0 .923-.257a.84.84 0 0 0 .303-.654.63.63 0 0 0-.187-.467 1.5 1.5 0 0 0-.514-.339q-.315-.151-1.016-.409a10 10 0 0 1-1.331-.549 2.8 2.8 0 0 1-.912-.759q-.361-.49-.362-1.203 0-.7.362-1.227a2.3 2.3 0 0 1 1.005-.806q.642-.28 1.484-.28.887 0 1.576.316.702.315 1.087.887.396.56.397 1.309v.175a.15.15 0 0 1-.047.105.13.13 0 0 1-.093.035h-1.344a.17.17 0 0 1-.105-.035.17.17 0 0 1-.035-.105v-.094q0-.49-.409-.829-.396-.35-1.098-.35-.549 0-.864.233a.77.77 0 0 0-.304.643q0 .292.175.49.187.199.538.362.361.153 1.11.421.829.303 1.296.537.479.233.853.701.385.456.385 1.191 0 1.099-.806 1.741-.806.63-2.184.631m8.22.035q-.911 0-1.612-.374a2.7 2.7 0 0 1-1.075-1.04q-.385-.677-.385-1.553v-2.5q0-.864.385-1.53a2.63 2.63 0 0 1 1.075-1.028q.701-.374 1.612-.374.923 0 1.612.374a2.6 2.6 0 0 1 1.086 1.028q.386.666.386 1.53v2.5q0 .876-.386 1.553a2.67 2.67 0 0 1-1.086 1.052q-.689.362-1.612.362m0-1.414q.642 0 1.04-.409.396-.408.397-1.086v-2.57q0-.677-.397-1.086-.386-.42-1.04-.42-.642 0-1.04.42-.385.41-.385 1.086v2.57q0 .678.385 1.086.398.41 1.04.409m11.18-5.618a.15.15 0 0 1-.047.105.13.13 0 0 1-.093.035h-3.82q-.058 0-.058.058v1.811q0 .058.058.058h2.511q.058 0 .094.047a.11.11 0 0 1 .046.093v1.134a.15.15 0 0 1-.046.105.13.13 0 0 1-.094.035h-2.511q-.058 0-.058.058v3.224a.15.15 0 0 1-.047.105.13.13 0 0 1-.094.035h-1.366a.17.17 0 0 1-.105-.035.17.17 0 0 1-.035-.105v-7.896q0-.058.035-.094a.14.14 0 0 1 .105-.046h5.385a.11.11 0 0 1 .093.046.11.11 0 0 1 .047.094zm7.681-1.273a.11.11 0 0 1 .093.046.11.11 0 0 1 .047.094v1.144a.15.15 0 0 1-.047.106.13.13 0 0 1-.093.035h-2.091q-.059 0-.059.058v6.553a.14.14 0 0 1-.046.105.13.13 0 0 1-.094.035h-1.366a.2.2 0 0 1-.106-.035.17.17 0 0 1-.035-.105v-6.553q0-.058-.058-.058h-2.032a.2.2 0 0 1-.106-.035.2.2 0 0 1-.035-.106v-1.144a.13.13 0 0 1 .035-.094.15.15 0 0 1 .106-.046zm4.169 8.176q-.128 0-.163-.117l-2.068-7.908-.011-.046q0-.105.128-.105h1.449q.116 0 .151.116l1.11 4.754q.012.047.035.047t.035-.047l1.075-4.742q.035-.129.152-.128h1.413q.129 0 .164.116l1.168 4.754q.01.036.035.047.023 0 .035-.047l1.074-4.742q.036-.129.152-.128h1.379q.163 0 .128.151l-1.916 7.908q-.035.117-.163.117h-1.39q-.117 0-.152-.117l-1.192-5.057q-.01-.047-.035-.047-.023 0-.035.047l-1.109 5.046q-.023.128-.152.128zm13.624 0q-.116 0-.151-.117l-.351-1.144q-.023-.047-.058-.047h-2.874q-.035 0-.058.047l-.339 1.144q-.035.117-.152.117h-1.483q-.07 0-.105-.035-.036-.047-.012-.128l2.523-7.897q.035-.116.152-.116h1.834q.116 0 .152.116l2.523 7.897a.1.1 0 0 1 .011.058q0 .105-.128.105zm-3.072-2.651q-.011.07.047.07h2.056q.07 0 .047-.07l-1.052-3.47q-.01-.046-.035-.035-.023 0-.035.035zm11.365 2.651a.17.17 0 0 1-.164-.105l-1.46-3.236q-.024-.046-.07-.046h-1.086q-.059 0-.059.058v3.189a.14.14 0 0 1-.047.105.13.13 0 0 1-.093.035h-1.367a.17.17 0 0 1-.105-.035.17.17 0 0 1-.035-.105v-7.896a.13.13 0 0 1 .035-.094.14.14 0 0 1 .105-.046h3.341q.748 0 1.308.303.573.304.876.865.316.56.316 1.296 0 .794-.397 1.367-.397.56-1.11.794-.059.024-.035.082l1.589 3.306a.2.2 0 0 1 .023.07q0 .093-.129.093zm-2.78-6.763q-.059 0-.059.058v1.998q0 .058.059.058h1.53q.49 0 .794-.292a1 1 0 0 0 .315-.759 1 1 0 0 0-.315-.759q-.303-.304-.794-.304zm12.314-.14a.14.14 0 0 1-.047.105.13.13 0 0 1-.093.035h-3.831q-.059 0-.059.058v1.811q0 .058.059.058h2.511q.058 0 .094.047a.11.11 0 0 1 .046.093v1.134a.15.15 0 0 1-.046.105.13.13 0 0 1-.094.035h-2.511q-.059 0-.059.058v1.892q0 .059.059.059h3.831q.058 0 .093.047a.11.11 0 0 1 .047.093v1.133a.14.14 0 0 1-.047.105.13.13 0 0 1-.093.035h-5.396a.2.2 0 0 1-.106-.035.17.17 0 0 1-.035-.105v-7.896a.13.13 0 0 1 .035-.094.15.15 0 0 1 .106-.046h5.396a.11.11 0 0 1 .093.046.11.11 0 0 1 .047.094z"/></g><defs><linearGradient id="b" x1="230.5" x2="230.5" y1=".9" y2="262.9" gradientUnits="userSpaceOnUse"><stop stop-color="#090a15"/><stop offset=".956" stop-color="#171937"/></linearGradient><linearGradient id="e" x1="363.219" x2="363.219" y1="152.12" y2="157.665" gradientUnits="userSpaceOnUse"><stop stop-color="#fff"/><stop offset="1" stop-color="#fff" stop-opacity="0"/></linearGradient><linearGradient id="f" x1="366.422" x2="366.422" y1="152.12" y2="157.665" gradientUnits="userSpaceOnUse"><stop stop-color="#fff"/><stop offset="1" stop-color="#fff" stop-opacity="0"/></linearGradient><linearGradient id="g" x1="282.821" x2="282.821" y1="78.202" y2="83.748" gradientUnits="userSpaceOnUse"><stop stop-color="#fff"/><stop offset="1" stop-color="#fff" stop-opacity="0"/></linearGradient><linearGradient id="h" x1="286.024" x2="286.024" y1="78.202" y2="83.748" gradientUnits="userSpaceOnUse"><stop stop-color="#fff"/><stop offset="1" stop-color="#fff" stop-opacity="0"/></linearGradient><linearGradient id="l" x1="320.067" x2="320.067" y1="49.615" y2="87.228" gradientUnits="userSpaceOnUse"><stop stop-color="#fff" stop-opacity="0"/><stop offset="1" stop-color="#fff" stop-opacity=".2"/></linearGradient><linearGradient id="n" x1="324.319" x2="316.514" y1="80.529" y2="95.846" gradientUnits="userSpaceOnUse"><stop stop-color="#fffbce"/><stop offset=".641" stop-color="#f7e264"/><stop offset="1" stop-color="#f6e05e"/></linearGradient><linearGradient id="o" x1="319.615" x2="315.946" y1="78.247" y2="96.646" gradientUnits="userSpaceOnUse"><stop stop-color="ivory"/><stop offset="1" stop-color="ivory" stop-opacity="0"/></linearGradient><linearGradient id="q" x1="324.04" x2="316.693" y1="80.959" y2="95.378" gradientUnits="userSpaceOnUse"><stop stop-color="#fffbce"/><stop offset=".641" stop-color="#f7e264"/><stop offset="1" stop-color="#f6e05e"/></linearGradient><linearGradient id="s" x1="346.868" x2="342.036" y1="117.283" y2="126.766" gradientUnits="userSpaceOnUse"><stop stop-color="#fffbce"/><stop offset=".641" stop-color="#f7e264"/><stop offset="1" stop-color="#f6e05e"/></linearGradient><linearGradient id="t" x1="343.956" x2="341.684" y1="115.871" y2="127.261" gradientUnits="userSpaceOnUse"><stop stop-color="ivory"/><stop offset="1" stop-color="ivory" stop-opacity="0"/></linearGradient><linearGradient id="u" x1="346.695" x2="342.147" y1="117.549" y2="126.476" gradientUnits="userSpaceOnUse"><stop stop-color="#fffbce"/><stop offset=".641" stop-color="#f7e264"/><stop offset="1" stop-color="#f6e05e"/></linearGradient><linearGradient id="w" x1="262.006" x2="257.174" y1="89.91" y2="99.393" gradientUnits="userSpaceOnUse"><stop stop-color="#fffbce"/><stop offset=".641" stop-color="#f7e264"/><stop offset="1" stop-color="#f6e05e"/></linearGradient><linearGradient id="x" x1="259.094" x2="256.822" y1="88.498" y2="99.888" gradientUnits="userSpaceOnUse"><stop stop-color="ivory"/><stop offset="1" stop-color="ivory" stop-opacity="0"/></linearGradient><linearGradient id="y" x1="261.833" x2="257.284" y1="90.177" y2="99.103" gradientUnits="userSpaceOnUse"><stop stop-color="#fffbce"/><stop offset=".641" stop-color="#f7e264"/><stop offset="1" stop-color="#f6e05e"/></linearGradient><linearGradient id="A" x1="339.334" x2="344.166" y1="58.581" y2="68.064" gradientUnits="userSpaceOnUse"><stop stop-color="#fffbce"/><stop offset=".641" stop-color="#f7e264"/><stop offset="1" stop-color="#f6e05e"/></linearGradient><linearGradient id="B" x1="342.246" x2="344.518" y1="57.168" y2="68.559" gradientUnits="userSpaceOnUse"><stop stop-color="ivory"/><stop offset="1" stop-color="ivory" stop-opacity="0"/></linearGradient><linearGradient id="C" x1="339.507" x2="344.056" y1="58.846" y2="67.772" gradientUnits="userSpaceOnUse"><stop stop-color="#fffbce"/><stop offset=".641" stop-color="#f7e264"/><stop offset="1" stop-color="#f6e05e"/></linearGradient><linearGradient id="E" x1="287.03" x2="291.862" y1="146.309" y2="155.792" gradientUnits="userSpaceOnUse"><stop stop-color="#fffbce"/><stop offset=".641" stop-color="#f7e264"/><stop offset="1" stop-color="#f6e05e"/></linearGradient><linearGradient id="F" x1="289.942" x2="292.214" y1="144.896" y2="156.287" gradientUnits="userSpaceOnUse"><stop stop-color="ivory"/><stop offset="1" stop-color="ivory" stop-opacity="0"/></linearGradient><linearGradient id="G" x1="287.203" x2="291.752" y1="146.572" y2="155.499" gradientUnits="userSpaceOnUse"><stop stop-color="#fffbce"/><stop offset=".641" stop-color="#f7e264"/><stop offset="1" stop-color="#f6e05e"/></linearGradient><linearGradient id="I" x1="385.049" x2="350.973" y1="156.606" y2="223.479" gradientUnits="userSpaceOnUse"><stop stop-color="#fffbce"/><stop offset=".641" stop-color="#f7e264"/><stop offset="1" stop-color="#f6e05e"/></linearGradient><linearGradient id="J" x1="364.512" x2="348.491" y1="146.644" y2="226.971" gradientUnits="userSpaceOnUse"><stop stop-color="ivory"/><stop offset="1" stop-color="ivory" stop-opacity="0"/></linearGradient><linearGradient id="K" x1="383.824" x2="351.747" y1="158.468" y2="221.417" gradientUnits="userSpaceOnUse"><stop stop-color="#fffbce"/><stop offset=".641" stop-color="#f7e264"/><stop offset="1" stop-color="#f6e05e"/></linearGradient><clipPath id="a"><rect width="460" height="262" x=".5" y=".9" fill="#fff" rx="8"/></clipPath><clipPath id="i"><path fill="#fff" d="M364.089 82.495h7.781v7.781h-7.781z"/></clipPath><clipPath id="j"><path fill="#fff" d="M245.397 129.002h7.132v7.132h-7.132z"/></clipPath><clipPath id="k"><path fill="#fff" d="M306.022 30.126h6.484v6.484h-6.484z"/></clipPath><radialGradient id="c" cx="0" cy="0" r="1" gradientTransform="matrix(0 376.503 -1106.61 0 230.5 375.5)" gradientUnits="userSpaceOnUse"><stop stop-color="#a3bffa"/><stop offset="1" stop-color="#a3bffa" stop-opacity="0"/></radialGradient><filter id="d" width="167.43" height="166.747" x="231.323" y="20.768" color-interpolation-filters="sRGB" filterUnits="userSpaceOnUse"><feFlood flood-opacity="0" result="BackgroundImageFix"/><feBlend in="SourceGraphic" in2="BackgroundImageFix" result="shape"/><feGaussianBlur result="effect1_foregroundBlur_449_4226" stdDeviation="5.104"/></filter></defs></svg>