<svg xmlns="http://www.w3.org/2000/svg" width="178" height="29" fill="none" viewBox="0 0 178 29"><path fill="#fff" stroke="#fff" stroke-width=".792" d="M38.571 25.679h-5.923v-17.5c0-.27.27-.673.471-.875h-3.298c.202.202.472.606.472.875v17.5c0 .269-.27.605-.472.874h9.558l.47-1.548c-.336.27-.874.674-1.278.674Zm3.77-16.827s.134-.74.807-.74h6.865v17.566c0 .337-.471.875-.471.875h3.298s-.471-.47-.471-.875V8.113H59.3c.673 0 .808.74.808.74V7.304H42.34zm27.19-1.548h-3.297s.47.471.47.875v17.5c0 .403-.47.874-.47.874h3.297s-.47-.47-.47-.875V8.18c.067-.404.47-.875.47-.875Zm28.403.875c0-.404.337-.875.337-.875h-3.433s.54.471.54.808L88.78 22.986 82.117 8.18c-.202-.404 0-.875 0-.875h-3.096c.472.27 1.078.942 1.01 1.414l-1.75 16.893c-.067.673-.673.942-.673.942h2.221s-.673-.269-.605-.875l1.48-15.076 7.269 16.288 7.673-17.095 1.548 15.884c0 .403-.404.807-.404.807h3.433s-.472-.471-.538-.875zm17.028 17.5h-5.316v-8.01h5.182c.673 0 .808.673.808.673v-2.288s-.202.673-.808.673h-5.182V8.179h5.182c.673 0 .808.673.808.673V7.304h-8.885s.471.471.471.875v17.5c0 .403-.471.874-.471.874h9.019l.471-1.548c-.067-.067-.605.674-1.279.674Zm6.058-16.827s.135-.74.807-.74h6.866v17.566c0 .337-.471.875-.471.875h3.298s-.472-.47-.472-.875V8.113h6.865c.674 0 .808.74.808.74V7.304h-17.768v1.548zm31.364 16.827h-5.317v-8.01h5.183c.672 0 .807.673.807.673v-2.288s-.202.673-.807.673h-5.183V8.179h5.183c.672 0 .807.673.807.673V7.304h-8.884s.404.471.404.875v17.5c0 .403-.404.874-.404.874h9.019l.471-1.548c-.067-.067-.606.674-1.279.674Zm19.99-1.952s-3.836-3.635-5.384-6.462c3.028-1.211 3.634-3.769 3.634-4.846 0-3.163-3.23-5.115-6.596-5.115h-4.241s.472.471.472.875v17.5c0 .403-.472.874-.472.874h3.299s-.404-.47-.404-.875v-7.807h1.548c3.769 5.183 6.192 7 6.192 7 3.298 2.894 6.259 1.615 6.259 1.615-1.346-.067-3.365-1.817-4.307-2.76Zm-8.413-6.798h-1.279v-8.75h1.211c2.693 0 4.308 2.49 4.375 4.24.068 2.894-2.557 4.51-4.307 4.51ZM24.639 26.486l-.875-.808L12.86 1.448l-1.48 2.425.336.605-9.086 20.73c-.404.875-1.48 1.28-1.48 1.28h2.96s-.807-.337-.403-1.212l3.77-8.48H17.1l3.769 8.547c.202.471-.067 1.144-.067 1.144zM7.947 15.65l4.308-9.827 4.375 9.827z"/></svg>