<svg xmlns="http://www.w3.org/2000/svg" width="124" height="35" fill="none" viewBox="0 0 124 35"><path fill="#fff" d="M79.256.172h-4.532v25.74h4.532zm8.554 6.73h-4.533v19.01h4.532zm0-6.642h-4.533v4.178h4.532zM12.12.687H8.067L.102 25.911h4.532zm2.362.131-.044-.13H13.26l-1.738 5.777 3.135 9.815h-6.08l-1.28 4.247h8.718l1.724 5.384h4.668zm35.464 7.537c-1.134-1.273-2.775-1.92-4.868-1.92a7.2 7.2 0 0 0-3.476.85 6.5 6.5 0 0 0-2.205 1.945 5.7 5.7 0 0 0-1.855-1.88 6.66 6.66 0 0 0-3.597-.92 7.3 7.3 0 0 0-3.524.86c-.137.074-.263.156-.395.239v4.155q.057-.08.122-.151a3.03 3.03 0 0 1 2.434-1.025 3.07 3.07 0 0 1 2.434 1.025c.65.828.972 1.866.906 2.915v11.458h4.517V14.244c-.018-.703.134-1.4.443-2.03a3.1 3.1 0 0 1 1.193-1.274 3.4 3.4 0 0 1 1.708-.432 3.06 3.06 0 0 1 2.434 1.015c.646.815.968 1.84.906 2.877v11.506h4.532V13.35a7.28 7.28 0 0 0-1.709-4.995M28.912 6.902h-4.27v19.01h4.27zm29.524 0H54.39v27.294h4.045zm12.769 4.373A8.9 8.9 0 0 0 68.123 7.7a8.4 8.4 0 0 0-4.693-1.317 8.06 8.06 0 0 0-3.894.904v4.757a3.8 3.8 0 0 1 .789-.826 3.98 3.98 0 0 1 2.482-.729 4.32 4.32 0 0 1 2.658.782A4.6 4.6 0 0 1 67.01 13.4c.343.968.508 1.99.486 3.017a8.8 8.8 0 0 1-.486 3.037 4.63 4.63 0 0 1-1.505 2.119 4.13 4.13 0 0 1-2.57.773 4.25 4.25 0 0 1-2.595-.734 3.8 3.8 0 0 1-.817-.822v4.719a8.35 8.35 0 0 0 4.05.938 8.05 8.05 0 0 0 4.595-1.327 8.8 8.8 0 0 0 3.038-3.59 12.6 12.6 0 0 0 0-10.234zm31.442-4.373h-3.418v3.625h3.418z"/><path fill="#fff" d="M100.125.172c-.453 0-.973 0-1.582.039a6.5 6.5 0 0 0-1.879.394c-.69.27-1.305.704-1.791 1.263a3.95 3.95 0 0 0-.92 1.608 8 8 0 0 0-.302 1.74 27 27 0 0 0-.054 1.574v.112H90.59v3.625h3.008v15.384h4.532V5.891a1.94 1.94 0 0 1 .531-1.457 2.2 2.2 0 0 1 1.641-.54h2.341V.148zm18.647 6.73-4.95 13.018-.005-.015-2.819 7.406-2.512 6.885h4.294L123.236 7.15l.098-.248zm-5.549 11.488-4.445-11.371-.043-.117h-4.737l7.034 17.25z"/></svg>