<svg xmlns="http://www.w3.org/2000/svg" width="139" height="31" fill="none" viewBox="0 0 139 31"><path fill="#fff" d="M104.055 22.928c0 1.767-.033 3.534.026 5.301.013.398.306.783.482 1.168.052.11.215.176.255.287.104.3.273.639.202.906-.039.143-.528.222-.809.222-.645 0-1.298-.098-1.943-.105-.594 0-1.193.092-1.787.098-.228 0-.567-.078-.665-.235-.098-.163-.059-.567.078-.697 1.024-.965 1.037-2.224 1.044-3.47.019-3.462.006-6.918-.007-10.38 0-.49-.091-.979-.143-1.468-.066-.574-.274-1.037-.835-1.324-.17-.085-.372-.378-.34-.534.046-.21.262-.457.47-.542.965-.378 1.95-.71 2.935-1.043.671-.228 1.03.072 1.024.802 0 .241.071.482.104.724.254-.085.567-.104.756-.268 1.82-1.545 3.952-1.558 6.065-1.062 1.467.345 2.589 1.408 3.502 2.621.645.86.704.86 1.389-.013 1.225-1.578 2.725-2.713 4.805-2.856 2.954-.209 5.504.808 6.952 3.684.867 1.722.926 3.56.978 5.393.072 2.628.033 5.256.02 7.884 0 .6.097 1.095.573 1.539.216.202.216.639.313.971-.3.079-.6.216-.9.229q-1.75.048-3.501.02c-.307 0-.613-.138-.92-.216.118-.294.15-.698.365-.86.907-.699.881-1.716.881-2.642q.018-5.145-.131-10.29c-.052-1.689-.86-3.071-2.465-3.678-2.458-.932-4.669-.378-5.999 2.159-.45.854-.574 1.702-.574 2.615 0 3.351.013 6.71 0 10.061 0 .66.105 1.24.665 1.657a.85.85 0 0 1 .281.365c.078.228.189.509.117.704-.045.124-.398.19-.619.19-1.376 0-2.746-.02-4.121-.066-.203-.006-.509-.15-.561-.3-.072-.202-.026-.574.124-.704 1.082-.991 1.095-2.308 1.121-3.6.039-2.34.059-4.682.013-7.023a17 17 0 0 0-.352-3.078c-.424-2.06-2.093-3.286-4.206-3.371-2.067-.078-3.508.77-4.369 2.615a3.2 3.2 0 0 0-.274 1.121 77 77 0 0 0-.143 3.274c-.02 1.063 0 2.132 0 3.202h.111zm-47.63-.033c0 1.585.013 3.176 0 4.76-.006.685.144 1.285.64 1.78.123.131.26.275.312.444.079.255.183.561.098.783-.045.117-.45.137-.697.137-1.246.02-2.492.039-3.737.026-.26 0-.678-.078-.737-.229-.085-.228-.013-.639.157-.815.75-.77.971-1.675.971-2.712-.013-7.597-.02-15.194-.013-22.791 0-.913-.091-1.682-1.05-2.139-.495-.235-.43-.835.092-1.004A58 58 0 0 1 55.747.17c.49-.13.776.241.77.893-.033 2.55-.066 5.1-.085 7.643-.013 1.245 0 2.49.013 3.736 0 .163.052.405.163.47.104.065.339-.026.483-.105.567-.32 1.102-.697 1.675-.99 1.937-.992 4.076-1.11 6.006-.438 3.13 1.096 5.197 3.202 5.36 6.939.124 2.83.033 5.673.033 8.51 0 1.082.085 2.125.945 2.953.177.17.235.594.15.835-.052.144-.482.209-.743.215-1.271.02-2.543.013-3.808-.006-.215 0-.567-.052-.613-.176-.072-.196-.04-.561.104-.698.998-.926.992-2.12.978-3.326-.02-2.732.033-5.464-.045-8.197-.052-1.675-.574-3.22-1.878-4.401-.737-.665-1.552-1.128-2.583-1.115-1.03.02-2.06-.124-3.07.332-2.094.952-3 2.667-3.15 4.813-.111 1.604-.02 3.228-.02 4.838zM2.282 15.488c0-4.083-.007-8.171.006-12.253 0-.763-.143-1.357-.906-1.735-.215-.11-.274-.541-.41-.815.26-.117.52-.326.782-.333.776-.02 1.558.072 2.34.079 4.324.006 8.647 0 12.977 0 1.011 0 1.304.273 1.324 1.284.013.626.046 1.252 0 1.872-.013.241-.215.47-.332.697-.248-.15-.503-.3-.75-.45-.02-.012-.033-.045-.033-.065-.294-1.343-1.265-1.519-2.439-1.5-2.42.04-4.845.014-7.27.014A9 9 0 0 1 6.56 2.23c-.861-.097-1.09.085-1.103.946-.013.574 0 1.148 0 1.715v7.727c0 .913.118 1.083 1.011 1.102 2.133.053 4.271.079 6.404.092.971 0 1.578-.594 2.015-1.383.137-.248.189-.541.326-.795.078-.144.274-.359.352-.333.17.059.391.228.417.378.066.378.033.776.033 1.161 0 .959.02 1.917-.013 2.876-.013.3-.183.587-.28.88-.261-.13-.64-.19-.77-.404-.43-.711-1.043-.809-1.8-.809-2.315 0-4.636-.052-6.951-.091-.652-.013-.75.391-.75.926.006 3.332 0 6.658.013 9.99 0 .574.104 1.141.085 1.708-.026.848.274 1.5.932 2.041.196.163.248.51.359.77-.287.059-.567.163-.854.163-1.324 0-2.648-.013-3.965-.059-.359-.013-.704-.156-1.063-.241.176-.326.28-.75.548-.952.593-.437.789-.965.782-1.676-.02-4.16-.006-8.327-.006-12.487zm31.144 6.853c0 1.91-.006 3.47 0 5.034 0 .92.052 1.82.874 2.472.176.143.183.502.268.756-.255.078-.516.228-.77.228-.672 0-1.35-.078-2.021-.104-1.168-.052-1.487-.398-1.5-1.572 0-.208-.124-.417-.19-.626-.201.092-.45.137-.6.287-1.153 1.142-2.582 1.657-4.16 1.696a30 30 0 0 1-3.893-.144c-1.571-.17-3.24-2.282-3.364-4.056-.13-1.865.665-3.286 2.132-4.343 2.034-1.467 4.336-2.34 6.756-2.94.88-.222 1.754-.503 2.628-.75.502-.144.704-.477.69-.992-.045-2.289-2.014-4.401-4.264-4.519-.828-.045-1.689-.117-2.497.02-1.546.26-2.85.965-3.528 2.497-.072.163-.111.398-.242.476-.195.124-.482.229-.69.183-.15-.04-.34-.346-.333-.528.02-.62.071-1.246.202-1.852.059-.274.287-.607.528-.724 2.074-.978 4.14-1.982 6.534-1.826 1.487.098 2.954.235 4.29.991 1.39.79 2.211 1.97 2.687 3.483.744 2.373.3 4.805.444 6.86zm-3.136.802h-.02c0-.932.013-1.871-.006-2.804-.007-.385-.118-.782-.652-.587-1.878.691-3.763 1.344-5.608 2.12-.679.28-1.259.821-1.833 1.297-1.2.998-1.187 2.367-.815 3.652.365 1.271 1.578 1.787 2.778 1.989 2.217.372 4.095-.418 5.621-2.022.287-.306.47-.802.509-1.232.078-.796.026-1.61.026-2.413m45.177-1.441c-.046-4.604 2.536-8.38 5.96-9.762 2.204-.887 4.434-1.167 6.638-.646 3.006.711 5.51 2.315 6.788 5.335 1.305 3.084 1.063 6.162-.489 9.018-1.467 2.706-3.854 4.343-6.977 4.839-1.572.247-3.143.202-4.643-.157-2.478-.593-4.52-1.878-5.817-4.212-.932-1.683-1.428-3.437-1.467-4.422zm3.058-2.054c.11 4.388 1.324 7.29 4.695 8.927 1.734.841 3.534.867 5.275.04 2.609-1.24 3.717-3.568 4.102-6.248.326-2.243-.15-4.421-1.324-6.37-.443-.738-1.108-1.357-1.76-1.944-1.422-1.285-3.183-1.402-4.995-1.317-2.048.097-3.594 1.089-4.624 2.765-.92 1.493-1.493 3.156-1.382 4.14zm-35.07.359c0 2.027-.046 4.062.026 6.084.026.73.235 1.486.535 2.158.345.776 1.14.972 1.91.606.894-.423 1.474-1.115 1.8-2.047.091-.267.372-.463.56-.698.131.313.281.613.379.933.04.137-.026.306-.059.463-.124.62-.045 1.454-.417 1.806-.691.652-1.552 1.252-2.621 1.213-.802-.033-1.611-.046-2.413-.144-.307-.039-.633-.24-.88-.45-1.324-1.089-1.807-2.543-1.807-4.219 0-3.873-.013-7.753-.026-11.626 0-1.279-.065-1.272-1.317-1.357a2.3 2.3 0 0 1-1.298-.541c-.489-.437-.313-1.004.333-1.174.417-.11.874-.104 1.31-.11.535 0 .855-.216.842-.777-.026-1.115-.066-2.236-.098-3.352a1.93 1.93 0 0 0-.665-1.44c-.19-.177-.32-.561-.261-.81.039-.162.43-.28.685-.364.763-.261 1.538-.463 2.288-.744.946-.358 1.226-.176 1.22.854-.013 1.846-.013 3.691-.013 5.543 0 .894.15 1.05 1.037 1.07.86.013 1.721 0 2.575.006.21 0 .418-.013.626.007.646.058.998.41.972.99-.026.614-.398.868-.985.868-1.095 0-2.19-.006-3.28 0-.847 0-.958.098-.958.933-.007 2.106 0 4.212 0 6.318m95.33 8.524c0 1.108-1.083 2.223-2.158 2.145-1.298-.091-2.081-.946-2.178-2.133-.092-1.076 1.043-2.236 2.073-2.236 1.187 0 2.269 1.063 2.263 2.223"/></svg>