<svg xmlns="http://www.w3.org/2000/svg" width="53" height="40" fill="none" viewBox="0 0 53 40"><mask id="a" width="53" height="40" x="0" y="0" maskUnits="userSpaceOnUse" style="mask-type:luminance"><path fill="#fff" d="M52.082.383H.364V39.89h51.718z"/></mask><g fill="#fff" mask="url(#a)"><path d="M18.143 11.241H8.821v.995c2.101.21 2.86 1.033 3.951 3.188l8.18 15.303h.872l3.538-6.617zm-10.631 0H.672V30.73h6.84zM4.09 7.885a3.726 3.726 0 1 0 0-7.452 3.726 3.726 0 0 0 0 7.452M44.194 31.14c5.777-.329 7.889-5.847 7.889-10.415 0-5.248-2.276-10.204-7.591-10.335-2.913-.054-4.687.898-5.845 2.466v1.163c.418-.495.99-.834 1.625-.964 3.148-.596 5.003 2.018 5.003 7.67 0 5.65-1.855 8.657-5.003 8.06a3 3 0 0 1-1.625-.963c-.728-.898-1.008-1.927-1.008-3.517V11.232H27.27v.995c2.205.309 3.535 1.706 3.535 3.989l.01 23.666h6.753V27.974s1.358 3.468 6.627 3.166"/></g></svg>