<svg xmlns="http://www.w3.org/2000/svg" width="245" height="24" fill="none" viewBox="0 0 245 24"><path fill="#fff" d="M46.368 6.492h-2.676l-6 5.043V6.492h-2.17v11.043h2.17v-3.578l2.253-1.802 4.676 5.38h2.817l-5.943-6.817zm7.577 0h-2.17v11.043h9.353v-1.944h-7.184zm13.436 6.226h4.507v-1.887h-4.507V8.408h7.437V6.492H65.24v11.043h10.03v-1.944h-7.89zm15.467-6.226h-2.17v11.043h2.17zm15.041 7.522-6.62-7.522h-1.916v11.043h2.17v-7.521h.028l6.592 7.521h1.915V6.492h-2.169zm10.846-1.296h4.507v-1.887h-4.507V8.408h7.437V6.492h-9.578v11.043h10.028v-1.944h-7.887zm24.226-2.761c0-.845-.338-1.633-.929-2.225-.733-.732-1.775-1.211-3.522-1.211h-6.479v11.042h2.169v-4.112h4l2.479 4.112h2.479l-2.76-4.422c1.493-.507 2.563-1.69 2.563-3.184m-4.141 1.55h-4.648V8.408h4.338c.733 0 1.409.056 1.916.62.225.253.394.591.394.93 0 .845-.901 1.549-2 1.549m21.918-5.015h-6.536v11.043h2.169v-4.113h4.338c1.55 0 2.648-.338 3.494-1.183.591-.591.957-1.324.957-2.282a3.17 3.17 0 0 0-.929-2.281c-.93-.93-2.141-1.184-3.493-1.184m1.831 4.451c-.423.395-.958.564-1.86.564h-4.338V8.408h4.395c.535 0 1.324.028 1.859.592.225.253.366.591.366.957 0 .367-.169.733-.422.986m9.323 1.803h4.535v-1.915h-4.535V8.436h7.465V6.492h-9.606v11.043h10.057V15.62h-7.916zm24.255-2.789c0-.845-.338-1.633-.93-2.225-.732-.732-1.775-1.211-3.521-1.211h-6.479v11.042h2.169v-4.112h3.972l2.479 4.112h2.479l-2.761-4.422c1.493-.508 2.592-1.662 2.592-3.184m-4.141 1.578h-4.648V8.436h4.338c.732 0 1.408.057 1.915.62.226.253.395.592.395.93-.028.816-.93 1.549-2 1.549m20.563-5.043h-2.676l-6 5.071v-5.07h-2.169v11.042h2.169v-3.578l2.253-1.774 4.677 5.352h2.788l-5.915-6.789zm7.579 0h-2.169v11.043h2.169zm15.042 7.522h-.028l-6.592-7.522h-1.916v11.043h2.169v-7.521l6.62 7.521h1.888V6.492h-2.141zm13.973-3.38c-1.747-.113-3.437-.17-3.437-1.212s1.155-1.408 2.535-1.408c2.17 0 3.719.704 4.367 1.24l1.324-1.494c-.958-.704-3.099-1.634-5.606-1.634-2.169 0-4.789.789-4.789 3.493 0 2.733 2.986 2.93 5.606 3.127 2.085.17 3.296.48 3.296 1.719 0 1.098-1.296 1.605-2.986 1.605-2.648 0-4.31-1.211-5.268-1.972l-1.296 1.493c1.352 1.127 3.381 2.367 6.536 2.367 2.817 0 5.183-1.043 5.183-3.775 0-3.183-3.352-3.409-5.465-3.55M2.844.887A1.89 1.89 0 0 0 .957 2.774v9.38L12.225.888zM.984 21.535c0 1.043.845 1.888 1.888 1.888h9.38L.984 12.155zm11.269-7.521v9.38L23.52 12.128h-9.38c-1.071.028-1.888.873-1.888 1.887"/><path fill="#fff" d="M21.634.887h-9.381L23.52 12.155V2.774A1.89 1.89 0 0 0 21.634.887"/></svg>