<svg xmlns="http://www.w3.org/2000/svg" width="170" height="29" fill="none" viewBox="0 0 170 29"><path fill="#fff" d="M162.586 22.502q-2.37 0-4.088-1.046-1.707-1.056-2.636-2.946-.918-1.9-.918-4.418 0-2.52.918-4.44.929-1.932 2.583-3.01 1.665-1.089 3.885-1.088 1.281 0 2.529.426a6.3 6.3 0 0 1 2.274 1.388q1.024.95 1.633 2.519.608 1.569.608 3.863v1.068h-12.637V12.64h10.075q0-1.387-.555-2.476a4.2 4.2 0 0 0-1.558-1.718q-1.003-.63-2.369-.63-1.504 0-2.604.747a4.9 4.9 0 0 0-1.676 1.921 5.65 5.65 0 0 0-.587 2.54v1.452q0 1.857.64 3.148.652 1.28 1.804 1.954 1.153.66 2.679.661a5.5 5.5 0 0 0 1.793-.277 3.8 3.8 0 0 0 1.398-.854q.588-.576.907-1.43l2.434.683a5.4 5.4 0 0 1-1.292 2.177q-.906.93-2.241 1.452-1.334.512-2.999.512m-21.934-10.203v9.861h-2.519V5.767h2.433v2.561h.214a4.7 4.7 0 0 1 1.75-2.006q1.174-.768 3.031-.768 1.665 0 2.914.683 1.248.671 1.942 2.049.694 1.365.694 3.458V22.16h-2.519V11.915q0-1.933-1.003-3.01-1.003-1.089-2.754-1.089-1.205 0-2.156.523a3.74 3.74 0 0 0-1.483 1.526q-.544 1.004-.544 2.434m-6.629-1.067q0 3.457-1.249 5.976-1.248 2.52-3.426 3.885t-4.973 1.366q-2.796 0-4.974-1.366-2.176-1.366-3.426-3.885-1.248-2.518-1.248-5.976t1.248-5.977q1.25-2.52 3.426-3.885 2.178-1.365 4.974-1.366 2.796 0 4.973 1.366t3.426 3.885q1.25 2.518 1.249 5.977m-2.562 0q0-2.839-.949-4.793-.94-1.953-2.551-2.956-1.601-1.003-3.586-1.003-1.986 0-3.597 1.003-1.601 1.003-2.551 2.956-.939 1.953-.939 4.793t.939 4.791q.95 1.954 2.551 2.957 1.611 1.003 3.597 1.003t3.586-1.003q1.61-1.003 2.551-2.957.95-1.952.949-4.791m-22.663 11.099q-.79 0-1.355-.566a1.85 1.85 0 0 1-.566-1.355q0-.79.566-1.355a1.85 1.85 0 0 1 1.355-.566q.79 0 1.355.566.567.566.566 1.355 0 .524-.267.96-.256.438-.693.705-.427.255-.961.256M80.84 22.16V5.767h2.433v2.561h.214q.512-1.312 1.654-2.038 1.142-.736 2.743-.736 1.622 0 2.7.736 1.088.726 1.697 2.038h.17a4.8 4.8 0 0 1 1.89-2.017q1.26-.757 3.02-.757 2.199 0 3.597 1.376 1.398 1.366 1.398 4.259V22.16h-2.519V11.19q0-1.815-.992-2.594-.993-.78-2.338-.779-1.728 0-2.678 1.046-.95 1.035-.95 2.626V22.16h-2.562V10.933q0-1.398-.907-2.252-.907-.865-2.337-.865-.982 0-1.836.523a3.95 3.95 0 0 0-1.366 1.452q-.513.917-.512 2.124V22.16zm-10.62.342q-2.368 0-4.087-1.046-1.707-1.056-2.636-2.946-.918-1.9-.918-4.418 0-2.52.918-4.44.928-1.932 2.583-3.01 1.665-1.089 3.885-1.088a7.8 7.8 0 0 1 2.53.426q1.248.428 2.272 1.388 1.026.95 1.633 2.519.609 1.569.609 3.863v1.068H64.372V12.64h10.075q0-1.387-.555-2.476a4.2 4.2 0 0 0-1.558-1.718q-1.004-.63-2.37-.63-1.504 0-2.603.747a4.9 4.9 0 0 0-1.676 1.921 5.64 5.64 0 0 0-.587 2.54v1.452q0 1.857.64 3.148.65 1.28 1.804 1.954 1.152.66 2.679.661a5.5 5.5 0 0 0 1.793-.277 3.8 3.8 0 0 0 1.398-.854q.587-.576.907-1.43l2.434.683a5.4 5.4 0 0 1-1.292 2.177q-.908.93-2.241 1.452-1.335.512-3 .512M59.735 5.767v2.135h-8.496V5.767zm-6.02-3.928h2.52v15.625q0 1.068.309 1.601.32.524.81.705.502.17 1.057.17.416 0 .683-.042l.427-.086.513 2.263q-.257.096-.715.192-.459.107-1.164.107a5.1 5.1 0 0 1-2.092-.46 4.15 4.15 0 0 1-1.686-1.397q-.662-.939-.662-2.37zm-5.199 7.599-2.263.64a4.2 4.2 0 0 0-.63-1.099q-.405-.543-1.11-.896-.704-.352-1.803-.352-1.506 0-2.509.694-.992.682-.992 1.74 0 .938.683 1.483.683.544 2.134.907l2.434.598q2.198.533 3.276 1.633 1.078 1.087 1.078 2.806 0 1.41-.81 2.52-.802 1.11-2.242 1.75t-3.351.64q-2.508 0-4.152-1.089t-2.081-3.18l2.39-.598q.342 1.323 1.292 1.985.96.662 2.508.662 1.761 0 2.796-.747 1.046-.758 1.046-1.814 0-.855-.598-1.43-.597-.588-1.835-.876l-2.733-.64q-2.251-.534-3.308-1.655-1.046-1.13-1.046-2.828 0-1.388.78-2.454.788-1.068 2.144-1.676 1.367-.608 3.096-.608 2.433 0 3.82 1.067 1.398 1.067 1.986 2.817m-26.72 18.87a5.5 5.5 0 0 1-1.142-.107q-.502-.096-.694-.192l.64-2.22q.918.236 1.622.17.705-.063 1.25-.629.555-.555 1.013-1.803l.47-1.281-6.062-16.479h2.732l4.525 13.064h.17l4.526-13.064h2.732L26.62 24.551q-.47 1.27-1.164 2.103-.694.843-1.611 1.248-.907.405-2.05.406M13.303 5.767q-.193-1.623-1.558-2.519-1.366-.896-3.352-.896-1.45 0-2.54.47-1.077.469-1.686 1.29a3.1 3.1 0 0 0-.598 1.868q0 .876.417 1.505.426.62 1.088 1.036a8 8 0 0 0 1.388.672q.725.256 1.334.416l2.22.598q.853.225 1.9.619a8.8 8.8 0 0 1 2.017 1.078 5.5 5.5 0 0 1 1.6 1.729q.63 1.056.63 2.593 0 1.772-.928 3.202-.918 1.43-2.69 2.273-1.76.844-4.28.844-2.347 0-4.066-.758-1.707-.758-2.69-2.113Q.54 18.319.41 16.525h2.732q.108 1.239.833 2.05.736.8 1.857 1.195a7.5 7.5 0 0 0 2.433.384q1.515 0 2.722-.491 1.205-.502 1.91-1.387.705-.898.705-2.092 0-1.09-.609-1.772-.608-.682-1.6-1.11a17 17 0 0 0-2.146-.747l-2.69-.769q-2.56-.735-4.055-2.102T1.008 6.109q0-1.836.992-3.202Q3.004 1.53 4.69.772 6.387.004 8.479.004q2.113 0 3.757.757 1.643.748 2.604 2.05a5.1 5.1 0 0 1 1.024 2.956z"/></svg>