<svg xmlns="http://www.w3.org/2000/svg" width="124" height="124" fill="none" viewBox="0 0 124 124"><path fill="#fff" d="M58.923.054c-.238.011-1.138.087-2.005.152-10.84.802-21.832 4.813-30.84 11.252-2.98 2.125-5.333 4.12-7.956 6.742C3.043 33.29-3.168 54.883 1.548 75.858c1.929 8.607 6.048 17.268 11.512 24.227 8.574 10.938 20.325 18.645 33.506 21.984 5.366 1.366 9.82 1.918 15.447 1.918 5.55 0 9.637-.498 14.926-1.788 7.6-1.865 14.277-4.932 20.954-9.604 6.396-4.488 12.347-10.775 16.618-17.55 5.506-8.759 8.639-18.428 9.409-29.04.162-2.233.065-7.762-.174-10.038-.477-4.52-1.691-10.483-2.395-11.73-.282-.487-1.074-1.116-1.659-1.322-.206-.065-.661-.119-1.03-.119-1.626 0-2.992 1.355-2.992 2.949 0 .38.174 1.29.423 2.276 2.147 8.347 2.32 17.517.488 25.886-2.341 10.72-7.566 20.173-15.447 27.924-3.675 3.609-7.22 6.276-11.805 8.899-10.699 6.125-24 8.444-36.476 6.363-9.474-1.572-17.702-5.214-25.517-11.295-3.675-2.862-8.152-7.577-10.927-11.523-4.791-6.807-7.805-13.983-9.366-22.32-.79-4.249-1.062-9.885-.693-14.47.563-6.96 2.309-13.42 5.268-19.545 1.366-2.851 2.211-4.336 3.848-6.797 3.339-5.051 7.761-9.777 12.65-13.528 5.735-4.412 12.542-7.761 19.425-9.56C51.26 7.078 54.23 6.59 58.002 6.32c13.648-.976 26.916 2.948 37.723 11.176.802.607 1.648 1.268 1.875 1.474l.412.358-.162.455c-.835 2.342-.217 5.257 1.539 7.295.9 1.04 2.526 2.017 3.902 2.342.943.227 2.58.227 3.534 0 2.417-.575 4.672-2.645 5.388-4.943.802-2.57.336-5.106-1.312-7.166-1.821-2.276-4.954-3.295-7.848-2.536l-.629.163-.889-.738c-3.61-3.024-7.978-5.82-12.574-8.043-7.458-3.61-14.948-5.55-23.48-6.07-1.636-.098-5.506-.12-6.558-.033"/><path fill="#fff" d="M52.5 35.718c-1.149 2.97-3.642 9.474-5.56 14.45-1.92 4.975-5.854 15.197-8.748 22.71a3105 3105 0 0 1-5.301 13.734c-.033.054 3.013.086 6.753.086h6.819l.4-1.116c.228-.607 1.03-2.754 1.778-4.77l1.366-3.653H60.24c8.152 0 10.233-.032 10.2-.14-.108-.294-1.777-5.063-2.666-7.61l-.954-2.71-6.775-.055-6.764-.054 4.4-12.13c2.646-7.284 4.434-12.054 4.467-11.945.043.097 1.8 5.094 3.913 11.1 2.114 6.005 5.604 15.891 7.75 21.972l3.892 11.057 6.786.033c3.729.01 6.786 0 6.786-.022s-.878-2.33-1.962-5.117a7689 7689 0 0 1-5.16-13.376c-1.756-4.564-3.729-9.68-4.39-11.382-.65-1.702-1.789-4.65-2.526-6.558s-2.656-6.905-4.282-11.111a3129 3129 0 0 1-3.165-8.217l-.206-.563H54.571z"/></svg>