<svg xmlns="http://www.w3.org/2000/svg" width="50" height="48" fill="none" viewBox="0 0 50 48"><g clip-path="url(#a)"><mask id="b" width="50" height="44" x="0" y="2" maskUnits="userSpaceOnUse" style="mask-type:luminance"><path fill="#fff" d="M49.868 2.183H0v43.634h49.868z"/></mask><g mask="url(#b)"><path fill="#161d2b" d="M44.314 15.111a7 7 0 0 0-.312-.312c-.106-.1-.205-.211-.311-.311s-.206-.212-.312-.312-.206-.212-.312-.312-.205-.211-.311-.311-.206-.212-.312-.312-.206-.212-.312-.311a16.5 16.5 0 0 1 4.931 11.506c0 10.33-10.485 18.732-23.376 18.732-7.218 0-13.676-2.637-17.97-6.77l.311.312.312.312.311.312.312.311.312.312.311.312.312.311c4.289 4.308 10.89 7.081 18.283 7.081 12.89 0 23.375-8.402 23.375-18.7 0-4.4-1.895-8.571-5.242-11.85"/><path fill="#fbf0df" d="M45.505 24.436c0 9.481-9.768 17.167-21.818 17.167-12.049 0-21.817-7.686-21.817-17.167 0-5.878 3.74-11.07 9.488-14.15s9.325-6.233 12.33-6.233c3.004 0 5.572 2.574 12.33 6.233 5.746 3.08 9.487 8.272 9.487 14.15"/><path fill="#f6dece" d="M45.505 24.436a13.5 13.5 0 0 0-.5-3.603C43.306 41.591 17.985 42.588 8.03 36.38a24.93 24.93 0 0 0 15.658 5.223c12.03 0 21.818-7.698 21.818-17.167"/><path fill="#fffefc" d="M15.29 9.146c2.787-1.67 6.49-4.806 10.13-4.813a5.8 5.8 0 0 0-1.733-.28c-1.508 0-3.117.78-5.142 1.951-.705.411-1.434.866-2.207 1.34-1.452.898-3.117 1.914-4.987 2.93-5.934 3.21-9.48 8.502-9.48 14.162v.742C5.647 11.832 12.51 10.816 15.29 9.146"/><path fill="#ccbea7" fill-rule="evenodd" d="M21.892 5.63a10.23 10.23 0 0 1-3.51 7.773c-.174.156-.037.455.188.368 2.1-.817 4.936-3.26 3.74-8.19-.05-.281-.418-.207-.418.049m1.415 0a10.12 10.12 0 0 1 1.004 8.396c-.075.219.193.406.342.225 1.366-1.745 2.556-5.211-1.01-8.951-.18-.162-.46.087-.336.305zm1.72-.106a10.24 10.24 0 0 1 4.27 7.33.206.206 0 0 0 .406.07c.573-2.176.249-5.885-4.47-7.811-.25-.1-.411.236-.206.386zM13.52 12.007a10.56 10.56 0 0 0 6.527-5.61c.112-.225.467-.137.411.112-1.078 4.987-4.687 6.028-6.931 5.89-.237.007-.231-.324-.007-.392" clip-rule="evenodd"/><path fill="#161d2b" d="M23.688 43.168C10.797 43.168.311 34.765.311 24.436c0-6.233 3.852-12.049 10.304-15.533 1.87-.998 3.472-2.001 4.9-2.88.785-.487 1.527-.942 2.243-1.365 2.189-1.297 4.058-2.163 5.929-2.163 1.87 0 3.503.748 5.547 1.957a47 47 0 0 1 1.914 1.165c1.552.96 3.304 2.045 5.61 3.286 6.452 3.484 10.304 9.294 10.304 15.533 0 10.33-10.485 18.732-23.376 18.732m0-39.115c-1.509 0-3.117.78-5.143 1.95-.705.412-1.434.867-2.207 1.341-1.452.898-3.117 1.914-4.987 2.93-5.934 3.21-9.48 8.502-9.48 14.162 0 9.469 9.786 17.174 21.817 17.174 12.03 0 21.817-7.705 21.817-17.174 0-5.66-3.547-10.952-9.488-14.15-2.356-1.246-4.195-2.418-5.685-3.34-.679-.418-1.302-.805-1.87-1.148-1.888-1.122-3.266-1.745-4.774-1.745"/><path fill="#b71422" d="M28.082 28.987a5.57 5.57 0 0 1-1.82 2.936 4.25 4.25 0 0 1-2.493 1.171 4.26 4.26 0 0 1-2.575-1.171 5.57 5.57 0 0 1-1.795-2.936.45.45 0 0 1 .499-.505h7.692a.448.448 0 0 1 .492.505"/><path fill="#ff6164" d="M21.194 31.972a4.3 4.3 0 0 0 2.568 1.185 4.3 4.3 0 0 0 2.562-1.185 7 7 0 0 0 .624-.667 4.26 4.26 0 0 0-3.055-1.44 3.83 3.83 0 0 0-3.117 1.733c.144.131.268.256.418.374"/><path fill="#161d2b" d="M21.294 31.48a3.34 3.34 0 0 1 2.611-1.297 3.74 3.74 0 0 1 2.494 1.054q.215-.235.411-.48a4.36 4.36 0 0 0-2.936-1.204 3.97 3.97 0 0 0-3.048 1.472q.222.24.468.455"/><path fill="#161d2b" d="M23.744 33.468a4.63 4.63 0 0 1-2.774-1.246 5.93 5.93 0 0 1-1.939-3.148.75.75 0 0 1 .162-.624.88.88 0 0 1 .705-.317h7.692a.9.9 0 0 1 .704.317.74.74 0 0 1 .156.624 5.93 5.93 0 0 1-1.939 3.148 4.63 4.63 0 0 1-2.767 1.246m-3.846-4.612c-.1 0-.125.043-.131.056a5.17 5.17 0 0 0 1.701 2.724c.616.607 1.417.99 2.276 1.09a3.9 3.9 0 0 0 2.275-1.078 5.17 5.17 0 0 0 1.695-2.724.13.13 0 0 0-.124-.056z"/><path fill="#febbd0" d="M33.175 29.373c2.014 0 3.647-.96 3.647-2.144s-1.633-2.144-3.647-2.144-3.647.96-3.647 2.144 1.633 2.144 3.647 2.144m-18.869 0c2.014 0 3.647-.96 3.647-2.144s-1.633-2.144-3.647-2.144-3.646.96-3.646 2.144 1.632 2.144 3.646 2.144"/><path fill="#161d2b" fill-rule="evenodd" d="M16.02 26.369a3.434 3.434 0 1 0 .013-6.869 3.434 3.434 0 0 0-.013 6.869m15.44 0a3.434 3.434 0 1 0-3.41-3.435 3.43 3.43 0 0 0 3.41 3.435" clip-rule="evenodd"/><path fill="#fff" fill-rule="evenodd" d="M14.96 23.152a1.29 1.29 0 1 0 .014-2.58 1.29 1.29 0 0 0-.013 2.58m15.441 0a1.29 1.29 0 1 0-.012 0z" clip-rule="evenodd"/></g></g><defs><clipPath id="a"><path fill="#fff" d="M0 2.183h49.868v43.634H0z"/></clipPath></defs></svg>