<svg xmlns="http://www.w3.org/2000/svg" width="48" height="48" fill="none" viewBox="0 0 48 48"><path fill="#f38020" d="m16.37 16.13 2.447 1.414v2.826l-2.447 1.413-2.447-1.413v-2.826zm-2.859 21.643 2.86-2.86 2.858 2.86-2.859 2.858zm2.86-11.871c.478 0 .944.142 1.348.408.398.267.709.645.888 1.09a2.422 2.422 0 0 1-3.165 3.166 2.46 2.46 0 0 1-1.09-.888 2.422 2.422 0 0 1 2.012-3.77zM5.63 7.248l5.184-3.95.977-.298H35.21l.96.315 5.339 3.949.662 1.3V39.25l-.444 1.115-3.9 4.126-1.18.509H11.05l-1.107-.436-4.425-4.127L5 39.25V8.564zm2.592 20.511 3.61 3.99h.045v3.23h-1.478l-2.18-2.423v5.968l3.44 3.23h24.226l2.988-3.158v-6.234l-2.964 2.616H20.89v-3.23h13.89l4.19-3.722v-6.009l-2.963 2.625h-15.1v-3.23h13.889l4.191-3.715V12.11l-2.964 2.633H10.504L8.292 12.48v4.943l3.61 3.989h.044v3.23H10.47l-2.18-2.423zM34.63 6.198H12.34L9.054 8.709l2.746 2.81h22.933l3.23-2.874z"/></svg>