<svg xmlns="http://www.w3.org/2000/svg" width="48" height="48" fill="none" viewBox="0 0 48 48"><path fill="#002633" fill-rule="evenodd" d="M22.242 47.33c-8.256-1.04-14.722-7.55-16.71-12.745-2.41-6.302-1.52-13.628-.564-16.105a.423.423 0 0 1 .656-.123c.445.367.955.692 1.494.98 1.29-9.057 6.445-15.594 12.586-17.916 7.832-2.959 14.934 1.008 15.743 7.091 3.141 2.747 6.826 7.338 8.031 13.963 1.215 6.677.108 14.678-5.7 19.906 3.536.35 6.215 1 6.237 2.057.045 2.052-10.26 3.142-17.883 3.142a28 28 0 0 1-3.89-.25" clip-rule="evenodd"/><path fill="#fefdf0" fill-rule="evenodd" d="M19.002 15.157a.2.2 0 0 0-.087.026c-2.563 1.578-3.307 8.19-3.351 10.814a.34.34 0 0 1-.354.337c-2.29-.187-6.383-1.492-7.749-2.631a.139.139 0 0 0-.235.084c-.216 2.446.088 6.873 1.967 10.167 1.952 3.423 8.193 9.677 18.09 7.983 9.896-1.695 13.246-10.71 12.907-16.672-.325-5.72-2.664-9.813-4.688-11.844a.18.18 0 0 0-.305.109c-.442 2.543-3.22 7.354-5.17 8a.33.33 0 0 1-.347-.136c-1.863-2.612-6.835-6.413-10.678-6.237" clip-rule="evenodd"/><path fill="#fff" d="M22.676 9.69c.86 0 1.558-.873 1.558-1.951s-.697-1.952-1.558-1.952c-.86 0-1.558.874-1.558 1.952s.698 1.952 1.558 1.952m7.192-.001c.86 0 1.559-.873 1.559-1.951s-.698-1.952-1.56-1.952c-.86 0-1.558.874-1.558 1.952s.698 1.952 1.559 1.952"/></svg>