<svg xmlns="http://www.w3.org/2000/svg" xml:space="preserve" viewBox="0 0 439 309"><path d="M379.6 111.7c-2.3-16.7-11.5-31.2-28.1-44.3l-9.6-6.5-6.4 9.7c-8.2 12.5-12.3 29.9-11 46.6.6 5.8 2.5 16.4 8.4 25.5-5.9 3.3-17.6 7.7-33.2 7.4H1.7l-.6 3.5c-2.8 16.7-2.8 69 30.7 109.1 25.5 30.5 63.6 46 113.4 46 108 0 187.8-50.3 225.3-141.9 14.7.3 46.4.1 62.7-31.4.4-.7 1.4-2.6 4.2-8.6l1.6-3.3-9.1-6.2c-10-6.5-32.7-9-50.3-5.6M240 0h-45.3v41.7H240zm0 50.1h-45.3v41.7H240zm-53.6 0h-45.3v41.7h45.3zm-53.5 0H87.6v41.7h45.3zm-53.6 50.1H34v41.7h45.3zm53.6 0H87.6v41.7h45.3zm53.5 0h-45.3v41.7h45.3zm53.6 0h-45.3v41.7H240zm53.6 0h-45.3v41.7h45.3z" style="fill:#1d63ed"/></svg>