<svg xmlns="http://www.w3.org/2000/svg" width="48" height="48" fill="none" viewBox="0 0 48 48"><path fill="#161d2b" d="M12.572 23.696a1.78 1.78 0 0 0-.678-2.445 1.83 1.83 0 0 0-2.472.686L3.607 32.084a1.78 1.78 0 0 0 .678 2.445c.87.486 1.976.18 2.472-.685zm12.535-7.78a1.78 1.78 0 0 0-.678-2.446 1.83 1.83 0 0 0-2.472.686L16.14 24.304a1.78 1.78 0 0 0 .678 2.445c.87.486 1.977.179 2.472-.686zm19.287 0a1.78 1.78 0 0 0-.678-2.445 1.83 1.83 0 0 0-2.472.685l-5.816 10.148a1.78 1.78 0 0 0 .678 2.445c.87.486 1.977.179 2.472-.685zm-12.539 7.78a1.78 1.78 0 0 0-.678-2.445 1.83 1.83 0 0 0-2.472.686L22.89 32.084a1.78 1.78 0 0 0 .678 2.445c.87.486 1.976.18 2.472-.685z"/></svg>