<svg xmlns="http://www.w3.org/2000/svg" width="119" height="72" fill="none" viewBox="0 0 119 72"><path fill="#fff" d="M2.94 36.604H59.7q.265-6.996-1.451-13.464-1.584-6.468-5.28-11.484-3.564-5.016-9.372-8.052Q37.92.568 30 .568q-5.676 0-11.088 2.376T9.409 9.94q-4.092 4.488-6.6 11.088T.3 36.076Q.3 43.6 2.017 50.2q1.716 6.468 5.28 11.352 3.564 4.752 9.108 7.392Q22.08 71.584 30 71.452q11.616 0 19.536-6.468 7.92-6.6 9.372-18.48h-2.64q-1.716 11.22-8.844 16.896-6.996 5.544-17.688 5.544-7.26 0-12.276-2.508t-8.184-6.864-4.752-10.164q-1.452-5.94-1.584-12.804m54.12-2.64H2.94q.397-7.128 2.64-12.804 2.245-5.676 5.809-9.636 3.696-4.092 8.448-6.204 4.884-2.112 10.428-2.112 6.6 0 11.616 2.508 5.016 2.376 8.316 6.6 3.432 4.224 5.148 9.9 1.716 5.544 1.716 11.748m56.1-31.812L89.797 32.908 66.96 2.152h-3.432l24.684 32.736L61.153 70h3.168l25.476-33.132L115.405 70h3.3L91.513 34.888l24.816-32.736z"/></svg>