<svg xmlns="http://www.w3.org/2000/svg" width="176" height="176" fill="none" viewBox="0 0 176 176"><path fill="#fff" d="m158.24 53.363 4.7-12.18-.194-.756-46.517 12.25c4.963-7.181 3.256-12.936 3.256-12.936s-14.854 9.486-26.1 9.24c-11.23-.247-14.855-3.239-32.085 2.252-17.23 5.492-22.106 22.353-27.087 25.978-4.998 3.626-20.68 15.418-20.68 15.418l.035.21 14.133-4.505s-3.872 3.644-12.109 14.749c0 0-.14-.123-.387-.352l.018.071s6.617 10.12 13.112 8.236c.651-.193 1.39-.492 2.2-.915 2.605 1.461 6.019 2.887 9.785 3.274 0 0-2.552-2.957-4.681-6.336.58-.37 1.161-.757 1.76-1.144l-.264.211 5.385 1.971-.598-5.051c.018-.018.035-.018.053-.035l5.28 1.936-.651-4.594a35 35 0 0 1 2.006-.986l5.509-20.838L76.91 62.973l-1.813 4.558c-4.61 11.37-13.287 14.045-13.287 14.045l-3.626 1.373c-2.692 3.185-3.819 3.96-4.752 14.643 2.165-.546 4.242-.669 6.125-.176 9.733 2.622 13.112 14.362 10.49 17.6-.651.81-2.218 2.2-4.189 3.837h-3.942l-.053 3.203c-.141.106-.264.211-.405.317h-4.013l-.053 3.133-1.056.792c-3.784.07-8.553-3.221-8.553-3.221 0 2.992 2.499 7.621 2.499 7.621s.158-.071.44-.212c-.246.176-.387.282-.387.282s10.12 6.741 16.473 4.242c5.668-2.218 20.31-13.781 32.965-19.255l38.28-10.085 5.051-13.076-29.18 7.691V88.528l34.232-9.011 5.051-13.077-39.283 10.349V65.032zM88.756 78.267l9.081-2.393.123.457-2.833 7.34-9.416 2.48zm3.132 15.717-9.416 2.482 3.045-7.885 9.082-2.394.123.458zm12.268-2.64-9.416 2.482 3.044-7.885 9.082-2.394.123.458z"/></svg>