<svg xmlns="http://www.w3.org/2000/svg" width="121" height="135" fill="none" viewBox="0 0 121 135"><path fill="#e535ab" d="m5.991 100.03 4.956 2.861 55.21-95.624-4.955-2.861z"/><path fill="#e535ab" d="M115.278 92.39H4.858v5.723h110.42z"/><path fill="#e535ab" d="m7.043 95.605 55.23 31.889 2.862-4.956L9.904 90.649zm47.978-83.109 55.231 31.888 2.861-4.956L57.883 7.54z"/><path fill="#e535ab" d="m7.057 39.406 2.861 4.956 55.23-31.888-2.86-4.956z"/><path fill="#e535ab" d="m54.024 7.268 55.21 95.624 4.956-2.861L58.98 4.407zM14.957 35.612H9.234v63.776h5.723z"/><path fill="#e535ab" d="M110.934 35.612h-5.723v63.776h5.723z"/><path fill="#e535ab" d="m58.8 120.742 2.499 4.329 48.036-27.734-2.5-4.329z"/><path fill="#e535ab" d="M118.516 101.25c-3.31 5.757-10.687 7.722-16.444 4.413s-7.722-10.687-4.413-16.444 10.687-7.722 16.444-4.413c5.792 3.344 7.757 10.687 4.413 16.444M22.473 45.781c-3.31 5.758-10.687 7.723-16.444 4.413S-1.693 39.507 1.616 33.75s10.687-7.722 16.444-4.413c5.758 3.344 7.723 10.687 4.413 16.444M1.651 101.25c-3.31-5.757-1.344-13.1 4.413-16.444 5.757-3.31 13.1-1.344 16.444 4.413 3.31 5.757 1.345 13.1-4.412 16.444-5.792 3.309-13.135 1.344-16.445-4.413m96.043-55.469c-3.31-5.757-1.344-13.1 4.413-16.444 5.757-3.31 13.1-1.344 16.444 4.413 3.31 5.757 1.345 13.1-4.413 16.444-5.757 3.31-13.134 1.344-16.444-4.413M60.084 135a12.02 12.02 0 0 1-12.031-12.031 12.02 12.02 0 0 1 12.031-12.032 12.02 12.02 0 0 1 12.032 12.032c0 6.619-5.378 12.031-12.032 12.031m0-110.937A12.02 12.02 0 0 1 48.053 12.03 12.02 12.02 0 0 1 60.084 0a12.02 12.02 0 0 1 12.032 12.031 12.02 12.02 0 0 1-12.032 12.032"/></svg>