<svg xmlns="http://www.w3.org/2000/svg" width="159" height="153" fill="none" viewBox="0 0 159 153"><path fill="#9b99a6" d="M33.005 6.433c1.289-1.017 2.966-1.821 4.645-1.544 1.667.403 3.426 1.05 4.432 2.524 1.754 2.469 1.468 5.973-.34 8.334l-.138-.137c-.407-.406-.803-.838-1.294-1.144-.541-.355-1.405-.052-1.553.59-.193.944.262 1.845.716 2.643-1.598.327-3.336.545-4.878-.121-2.31-.949-4.096-3.21-4.294-5.715.127-2.068 1.26-3.986 2.704-5.43m24.229 28.221c1.318-.227 2.554-.83 3.903-.885 2.992-.103 6.048.081 8.895 1.08.832.3 1.653.756 2.145 1.523-1.231.219-2.377.72-3.537 1.157-4.576 1.791-9.074 3.794-13.392 6.139-1.901 1.04-3.806 2.113-5.446 3.541-1.175 1.04-2.561 1.852-3.557 3.083-.34-3.194.304-6.574 2.253-9.183.848-1.38 2.226-2.27 3.335-3.414 1.535-1.41 3.436-2.374 5.401-3.04m84.719 18.319c1.184-1.11 2.876-1.583 4.474-1.378 1.957.3 3.666 1.697 4.447 3.5 1.036 2.42.383 5.511-1.764 7.121-1.949 1.507-4.925 1.455-6.774-.195.935-.87 1.992-2.068 1.68-3.436-.932-1.199-2.786-1.027-3.985-.337-.285-1.931.388-4.02 1.922-5.275m-18.424 4.559c3.674-.359 6.861 1.941 9.576 4.115a9.55 9.55 0 0 1 2.662 4.94c.447 2.598.307 5.291-.604 7.778-.756 2.47-2.018 5.146-4.479 6.287-.029-1.43-.354-2.83-.597-4.234-1.041-5.533-2.657-10.974-5.021-16.091-.425-.978-.903-1.934-1.537-2.796M30.802 99.914c1.949-.722 4.078-.04 5.755 1.032 3.681 2.14 7.167 4.759 9.755 8.174 1.735 2.3 3.272 4.763 4.503 7.369.872 1.905 1.558 3.945 1.603 6.055.056 2.029-1.199 3.815-2.63 5.138-1.632 1.328-3.233 2.727-5.09 3.739-2.387 1.251-5.194 1.87-7.872 1.37-3.285-.548-6.362-2.121-8.852-4.308.895-.572 1.896-1.368 1.896-2.532.182-2.179-1.963-4.074-4.086-3.913-.808.356-1.32 1.136-1.901 1.765-1.337-2.089-2.388-4.542-2.145-7.066.676-4.482 2.153-8.924 4.838-12.621.283-.337.312-.782.352-1.199 1.36-.917 2.279-2.434 3.874-3.004M5.02 132.907c1.284-2.764 4.215-4.643 7.26-4.659 1.992.172 3.87.938 5.647 1.805 1.238.638 2.078 1.847 2.495 3.149 1.049 2.898.46 6.265-1.444 8.679-1.186 1.431-2.63 2.774-4.495 3.217-2.77.817-5.823-.184-7.833-2.182-2.396-2.648-3.27-6.753-1.63-10.009"/><path fill="#f79727" d="M38.756 15.056c.148-.642 1.012-.945 1.553-.59.492.306.888.738 1.294 1.144.74.904 1.598 1.694 2.396 2.545 3.246 3.56 6.166 7.396 9.246 11.095a360 360 0 0 1 4.194 5.19l-.206.214c-1.965.667-3.867 1.631-5.401 3.04-.66-.676-1.11-1.506-1.611-2.297-2.728-4.345-5.377-8.742-7.841-13.242-.869-1.55-2.015-2.922-2.908-4.456-.454-.798-.908-1.7-.716-2.643M140.028 58.25c1.199-.691 3.053-.862 3.985.337.312 1.367-.744 2.566-1.679 3.435-2.047 1.705-4.199 3.33-6.568 4.566a9.56 9.56 0 0 0-2.662-4.94c2.162-1.415 4.706-2.081 6.924-3.399M23.88 123.803c.58-.629 1.093-1.409 1.9-1.765 2.124-.161 4.268 1.734 4.086 3.913 0 1.164-1 1.96-1.896 2.532-1.246.764-2.533 1.46-3.753 2.266-1.27.811-2.44 1.778-3.797 2.453-.418-1.302-1.258-2.511-2.496-3.149 1.542-2.469 4.07-4.076 5.955-6.25"/><path fill="#787880" d="M78.321 35.22c3.285-.524 6.62-.384 9.935-.331 9.732.661 19.44 4.395 26.481 11.243.99.68 1.595 1.739 2.469 2.54 2.488 2.663 4.387 5.796 6.323 8.86.634.862 1.112 1.818 1.537 2.796 2.363 5.117 3.98 10.558 5.02 16.09.243 1.405.568 2.804.597 4.235-.119 2.466.431 4.932.09 7.393-.166 1.333-.016 2.688-.262 4.01-.38 2.485-1.473 4.775-2.577 7.007-.528 1.111-1.69 1.667-2.662 2.326-.991.643-2.303 1.23-3.455.64-1.819-1.033-2.696-3.098-3.111-5.053-.456-1.813-.298-3.689-.324-5.536-.288-5.159-.576-10.358-1.722-15.414-.769-3.314-2.084-6.655-4.648-9-1.625-1.368-3.484-2.472-5.48-3.199-2.987-.885-6.101-1.4-9.223-1.333-3.768-.084-7.481.703-11.107 1.65-3.669.95-7.134 2.51-10.556 4.11-2.718 1.148-5.287 2.595-7.9 3.957-1.462.788-2.91 1.615-4.227 2.63-2.385 1.815-4.95 3.462-6.904 5.767-1.96 2.306-3.7 4.94-4.294 7.952-.747 4.432.103 8.99 1.685 13.153 1.809 4.595 4.51 8.824 7.857 12.458 2.313 2.893 5.392 5.011 8.38 7.15 1.634 1.07 2.706 2.962 2.72 4.92-.154 1.633-1.403 2.914-2.692 3.807-1.389.856-3.013 1.412-4.658 1.362-3.853-.034-7.738-.492-11.396-1.736-1.542-.517-2.96-1.315-4.431-1.992 1.43-1.323 2.685-3.109 2.63-5.138-.045-2.11-.732-4.15-1.603-6.055-1.23-2.606-2.768-5.069-4.503-7.369-2.588-3.415-6.074-6.034-9.756-8.174-1.677-1.072-3.805-1.754-5.754-1.032-1.595.569-2.514 2.086-3.875 3.003-.398-1.156-.21-2.403-.372-3.596-.2-1.394-.09-2.804-.224-4.2-.214-1.926-.111-3.868-.146-5.802-.055-3.781.016-7.583.6-11.327.565-3.476 1.996-6.737 3.618-9.839 1.759-3.283 4.004-6.297 6.539-9.027 1.387-1.591 2.865-3.111 4.513-4.434 1.482-1.594 3.404-2.72 4.791-4.4.996-1.23 2.382-2.042 3.557-3.083 1.64-1.428 3.544-2.5 5.446-3.541 4.318-2.345 8.816-4.347 13.392-6.14 1.16-.437 2.306-.937 3.537-1.156 2.088-.155 4.059-.967 6.145-1.151"/></svg>