<svg xmlns="http://www.w3.org/2000/svg" width="24" height="24" fill="none" viewBox="0 0 24 24"><desc>Hono Streamline Icon: https://streamlinehq.com</desc><path fill="#ff5b11" d="M12.437.252a.2.2 0 0 1 .165.047 90 90 0 0 1 4.954 6.654 32.6 32.6 0 0 1 2.926 5.474q1.927 5.139-2.005 8.942-3.441 2.907-7.928 2.265-5.364-1.095-7.29-6.206a8.7 8.7 0 0 1-.33-3.397q.285-2.984 1.415-5.757A8.6 8.6 0 0 1 5.57 6.198q.615.735 1.18 1.51.26.271.542.519A44.6 44.6 0 0 1 12.437.252" opacity=".993"/><path fill="#ff9758" d="M12.106 4.074a50 50 0 0 1 4.695 6.418q.658 1.126 1.086 2.36.891 3.503-1.911 5.78-2.71 1.905-5.946 1.132-3.489-1.083-4.035-4.695a5 5 0 0 1 .236-2.218q.525-1.333 1.274-2.548l1.416-2.076a393 393 0 0 0 3.185-4.153"/></svg>