<svg xmlns="http://www.w3.org/2000/svg" width="48" height="48" fill="none" viewBox="0 0 48 48"><g clip-path="url(#a)"><mask id="b" width="42" height="42" x="3" y="3" maskUnits="userSpaceOnUse" style="mask-type:luminance"><path fill="#fff" d="M39.484 3.355H8.516a5.16 5.16 0 0 0-5.161 5.161v30.968a5.16 5.16 0 0 0 5.161 5.161h30.968a5.16 5.16 0 0 0 5.161-5.161V8.516a5.16 5.16 0 0 0-5.161-5.161"/></mask><g mask="url(#b)"><path fill="#fff" d="M39.484 3.355H8.516a5.16 5.16 0 0 0-5.161 5.161v30.968a5.16 5.16 0 0 0 5.161 5.161h30.968a5.16 5.16 0 0 0 5.161-5.161V8.516a5.16 5.16 0 0 0-5.161-5.161"/><path fill="#161d2b" d="M16.032 37.87V10.423h1.675v15.936h.188L32.37 10.422h2.224L22.68 23.41l11.808 14.46h-2.09l-10.79-13.254-3.9 4.315v8.94z"/></g><path stroke="#161d2b" stroke-width="1.29" d="M39.484 3.355H8.516a5.16 5.16 0 0 0-5.161 5.161v30.968a5.16 5.16 0 0 0 5.161 5.161h30.968a5.16 5.16 0 0 0 5.161-5.161V8.516a5.16 5.16 0 0 0-5.161-5.161Z"/></g><defs><clipPath id="a"><path fill="#fff" d="M2.71 2.71h42.581v42.58H2.71z"/></clipPath></defs></svg>