<svg xmlns="http://www.w3.org/2000/svg" width="24" height="24" fill="none" viewBox="0 0 24 24"><rect width="24" height="24" fill="#3c2e20" rx="4"/><path fill="#a6a385" d="M11 18h1v3c-.374.302-.592.327-1 0z"/><path fill="#58aa50" d="M11.5 3s4.578 3.474 4.499 8-4.499 8-4.499 8-4.42-3.475-4.499-8S11.5 3 11.5 3"/><path fill="url(#a)" d="M11.5 3s4.578 3.474 4.499 8-4.499 8-4.499 8-4.42-3.475-4.499-8S11.5 3 11.5 3"/><path fill="#499d4a" d="M11.5 3s4.578 3.474 4.499 8-4.499 8-4.499 8z"/><defs><linearGradient id="a" x1="9.5" x2="13.5" y1="5" y2="17.5" gradientUnits="userSpaceOnUse"><stop/><stop offset="1"/></linearGradient></defs></svg>