<svg xmlns="http://www.w3.org/2000/svg" width="25" height="24" fill="none" viewBox="0 0 25 24"><rect width="24.273" height="24" fill="#ee352c" rx="4"/><path fill="url(#a)" fill-rule="evenodd" d="M10.407 2c-.066-.009-1.141.379-1.834.66-.936.382-1.662.745-2.11 1.06a2 2 0 0 0-.387.37v-.004q-.002 0-.011.022l-.011.02a.3.3 0 0 0-.018.103l.01.01q.002.049.026.108c.04.097.155.215.285.336 0 0 1.347 1.314 1.51 1.502.745.86 1.069 1.707 1.1 2.876.017.75-.125 1.41-.479 2.177-.63 1.374-1.959 2.89-4.008 4.574l.033-.01-.048.037a6 6 0 0 0-.794.788c-.275.345-.493.711-.587.993-.166.508-.085 1.023.236 1.498.412.606 1.232 1.223 2.19 1.644.487.215 1.307.49 1.924.645 1.027.26 3.013.542 4.106.584.22.01.517.01.53 0 .024-.015.193-.339.39-.741.672-1.372 1.156-2.659 1.42-3.758.157-.666.281-1.553.363-2.603.021-.294.03-1.278.012-1.61a11 11 0 0 0-.151-1.42 1 1 0 0 1-.012-.093c2.433-.723 5.122-1.376 6.905-1.649l.276-.042-.043-.066a9 9 0 0 0-.608-.857c-.581-.72-1.287-1.305-2.15-1.79-1.186-.662-2.721-1.18-4.665-1.565a52 52 0 0 0-1.825-.311l-.06-.11a23 23 0 0 1-.982-1.937c-.178-.408-.348-.88-.442-1.22-.051-.206-.057-.218-.09-.22m1.118 3.417-.005-.01-.008-.01c-.078-.118-.4-.73-.502-.957-.037-.081-.052-.109-.064-.109q-.006-.004-.012.006l-.051.043-.094.078a6 6 0 0 1-.923.64l-.067.04c.516.086 1.065.175 1.726.279M9.29 5.053c.03-.013.104-.055.183-.104.327-.203.8-.466 1.229-.681.109-.052.194-.097.19-.1l-.03-.003-.157-.015c-.89-.073-2.504-.382-3.145-.6l-.118-.04.157.143c.16.152.578.551 1.111 1.069l.288.282zm-.934-.16-.07-.089-.018-.022-.046-.057a48 48 0 0 1-.475-.587l-.427-.533-.039.027c-.436.309-.693.611-.696.814v.033l.009.003.082.03c.272.095.62.176.802.216.245.053.578.113.878.165m3.595 7.554a56 56 0 0 1 1.687-.542c.042.168.121.962.143 1.484a.8.8 0 0 1-.003.206c-.024 0-.512-.287-.86-.505-.3-.19-.87-.567-.966-.643m-.392.135.067-.023c.041.019.11.06.22.128.624.39 1.472.863 1.835 1.02l.024.01c.03.013.049.02.051.032.005.02-.039.049-.155.128l-.053.036c-.551.376-1.238.745-2.08 1.117a6 6 0 0 1-.276.118 1 1 0 0 1 .037-.166c.203-.754.318-1.517.324-2.128.001-.16.002-.235.006-.272m-2.05.78a54 54 0 0 1 1.657-.64c.012.11 0 .695-.022.864a7.7 7.7 0 0 1-.348 1.529c-.012.015-.427-.39-.563-.548a4 4 0 0 1-.557-.811 3 3 0 0 1-.167-.393m-.431.178.117-.049a4 4 0 0 0 .544 1.003 5 5 0 0 0 .848.881v.001l.006.007c.002.014-.055.035-.433.18l-.042.015a38 38 0 0 1-1.91.666q-.257.082-.512.167c-.027.009-.018-.006.06-.13.355-.554.893-1.641 1.196-2.41.052-.134.103-.267.112-.297zm-2.23 1.016a35 35 0 0 1 1.723-.8c-.03.078-.161.351-.29.605a24 24 0 0 1-1.045 1.82 8 8 0 0 1-.152.239c-.015.021-.02.015-.07-.079a2.8 2.8 0 0 1-.232-.702 2.8 2.8 0 0 1 .015-.902l.003-.016c.02-.098.03-.14.049-.165m-.563.289.004-.003h.002c.012 0 .01.025-.009.134a4 4 0 0 0-.033.324c-.024.442.048.769.266 1.217.06.124.11.227.106.23-.021.018-2.025.605-2.655.778l-.24.066-.123.034c-.021.006-.024.003-.015-.049.07-.445.408-1.026.88-1.517.315-.327.567-.517.997-.763.175-.1.404-.227.576-.322zm4.075-12.69h.003c.003.003.015.087.027.187a6.3 6.3 0 0 0 .31 1.322c.057.168.078.23.06.245-.011.01-.035.002-.073-.01l-.021-.007c-.309-.084-1.693-.324-2.695-.463a4 4 0 0 1-.296-.045c-.012-.012.723-.397 1.047-.548.415-.191 1.553-.666 1.638-.681m3.44 11.791v.127a16.5 16.5 0 0 1-.216 2.495l-.19-.054A8 8 0 0 1 12 15.917c-.294-.16-.72-.424-.709-.436l.15-.08.129-.068a18 18 0 0 0 1.656-.972c.185-.124.463-.324.524-.378zm-2.786 1.741a1 1 0 0 1 .163.088 9 9 0 0 0 2.32.902l.069.015-.097.055c-.402.224-1.726.775-3.079 1.28l-.427.16a.2.2 0 0 1-.07.022c0-.003.055-.11.125-.24.378-.708.76-1.57.954-2.17.014-.034.025-.066.032-.087zm-.482.158a1 1 0 0 1-.05.139A19 19 0 0 1 9.43 18.1c-.112.2-.206.36-.21.36-.002 0-.093-.054-.202-.12-.642-.394-1.211-.879-1.583-1.348l-.055-.067.275-.075a20 20 0 0 0 2.658-.918c.119-.048.215-.088.218-.088m2.992 1.044c.003.07-.152.693-.279 1.144a33 33 0 0 1-.502 1.62.2.2 0 0 1-.04-.01 12.7 12.7 0 0 1-2.461-.692 7 7 0 0 1-.533-.236c-.006-.007.176-.091.406-.191 1.377-.603 2.806-1.287 3.297-1.58a.4.4 0 0 1 .112-.055m-6.906.236c.006.006-.378.56-.917 1.314l-.369.52-.119.167c-.081.115-.205.297-.275.406l-.127.197-.137-.115a5 5 0 0 1-.563-.576c-.26-.323-.436-.666-.505-.977-.033-.146-.033-.218-.003-.227.045-.012.853-.203 1.61-.379a137 137 0 0 0 1.405-.33m.388.148.096.11c.436.487.881.847 1.42 1.162.097.054.17.103.164.106-.021.015-1.871.672-2.728.969-.481.17-.878.305-.88.305l-.061-.039-.055-.04.088-.126c.284-.412.642-.863 1.42-1.802zm2.416 1.73c.002-.004.136.044.3.105.393.148.704.242 1.122.348.515.13 1.26.258 1.699.294.066.006.103.012.09.021-.02.012-.466.16-.793.264a215 215 0 0 1-3.863 1.135c-.03.006-.13-.022-.13-.034 0-.006.073-.1.16-.202a18 18 0 0 0 1.351-1.836c.039-.057.064-.094.064-.096m-.533.014c.003.003-.212.348-.588.942-.105.164-.217.343-.3.475l-.102.16-.157.258-.046.075-.088.155-.045-.012c-.11-.03-.875-.3-1.078-.382a8 8 0 0 1-.706-.323c-.242-.13-.544-.324-.52-.33.004-.003.183-.051.447-.123l.473-.129a75 75 0 0 0 2.543-.72 1 1 0 0 1 .167-.046m3.769.884h.003c.012.03-.479 1.393-.657 1.823-.04.097-.055.12-.076.118a62 62 0 0 1-1.196-.167 55 55 0 0 1-2.337-.408l-.072-.015.45-.104c.97-.218 1.436-.335 1.908-.48a13.5 13.5 0 0 0 1.783-.688c.094-.042.173-.076.194-.079M6.923 4.863a.3.3 0 0 0-.067-.02c0 .003.064.057.149.118.647.508 1.208 1.141 1.562 1.765.04.07.072.12.075.118.003 0-.027-.121-.066-.264-.103-.375-.409-1.353-.43-1.374L8.1 5.194l-.29-.076q-.2-.051-.4-.106a8 8 0 0 1-.439-.133zm1.586.419a1 1 0 0 0-.163-.027h-.003c.005.016.03.073.06.136a10 10 0 0 1 .542 1.483c.015.064.033.115.033.115s.076-.072.164-.16a6 6 0 0 1 .857-.684c.133-.091.535-.33.635-.382a.3.3 0 0 0 .082-.051.7.7 0 0 0-.178-.04c-.59-.1-1.514-.275-2.029-.39m2.567.808c-.06-.227-.09-.33-.109-.336-.027-.01-.856.633-1.162.902-.16.142-.536.518-.536.536 0 .006.209.07.466.14.451.126.978.28 1.302.384l.157.051.01-.03a5 5 0 0 0-.127-1.647m1.92.01c-.566-.11-1.81-.325-1.82-.316a.5.5 0 0 0 .037.097c.212.49.327 1.072.327 1.647 0 .106.003.194.006.194s.133-.085.287-.188c.59-.393 1.184-.717 1.983-1.078.203-.09.267-.127.248-.133a27 27 0 0 0-1.068-.224m1.332.72c.036-.146.076-.39.066-.4-.012-.012-.678.357-1.086.606-.515.308-1.49.953-1.469.971.002.005.056.027.13.058l.1.042a10 10 0 0 1 1.187.581c.094.055.176.1.182.097s.063-.093.127-.205c.36-.63.654-1.3.763-1.75m1.162-.127a19 19 0 0 0-.866-.237c-.009 0-.018.046-.02.103-.052.612-.261 1.33-.585 2.017a1 1 0 0 0-.063.154c.005 0 .084-.03.172-.067a22.6 22.6 0 0 1 3.49-1.08l.155-.037-.221-.1a18 18 0 0 0-2.062-.753M9.796 7.87c-.227-.063-.648-.163-.657-.154a1 1 0 0 0 .009.105l.006.055c.097.663.112 1.317.042 1.826-.003.024 0 .042.006.042.007 0 .122-.106.258-.236a22 22 0 0 1 1.32-1.194c.055-.048.094-.082.094-.084 0-.018-.733-.263-1.078-.36m7.865.354a5 5 0 0 0 .32-.5 13 13 0 0 0-.762.222c-.7.215-1.632.548-2.316.826-.39.158-.905.379-.905.388 0 .003.027.027.06.051.034.025.134.106.224.182.482.4.887.845 1.226 1.353.043.067.082.121.085.121.002 0 .05-.06.12-.148l.104-.13c.118-.152.476-.603.793-1.002.603-.757.87-1.102 1.051-1.363m.727-.354a.7.7 0 0 0-.173-.085c-.006.01-.067.137-.136.285-.497.999-.918 1.56-1.838 2.446-.148.142-.266.26-.26.26s.1-.02.206-.045c1.568-.378 3.2-.648 4.474-.745l.303-.024a10.3 10.3 0 0 0-2.576-2.092m-6.182.948c-.297-.149-.69-.333-.733-.342-.01 0-.021.03-.033.075a6.3 6.3 0 0 1-.615 1.668c-.082.149-.085.16-.072.16.002 0 .124-.072.269-.16.509-.308.996-.578 1.565-.862.179-.088.324-.164.321-.167-.021-.018-.43-.236-.702-.372m-1.284.315c.064-.203.166-.576.157-.585s-.608.473-.893.718c-.396.339-.914.808-.914.832 0 .006.064.043.145.085.206.106.367.224.564.415l.169.163.076-.12.088-.154.072-.125a7.4 7.4 0 0 0 .536-1.23m2.713.502-.149-.097-.106.164c-.527.79-1.235 1.601-2.034 2.337-.25.231-.29.267-.287.272h.008c.01 0 .127-.042.267-.094 1.25-.46 2.322-.802 3.708-1.186l.245-.07-.036-.04c-.066-.072-.4-.372-.572-.514-.306-.257-.705-.55-1.044-.772m-1.438.981c.248-.33.663-.914.657-.92-.01-.006-.597.29-.972.49-.557.3-1.438.802-1.496.854-.015.015-.003.048.067.188.163.332.257.723.257 1.09 0 .069.003.114.012.111.006-.003.136-.15.288-.33.363-.43.89-1.09 1.187-1.483m-3.013.097a1 1 0 0 0-.157-.079.5.5 0 0 0-.06.155 6 6 0 0 1-.255.632 6 6 0 0 1-.406.7c-.03.045-.02.039.246-.173.254-.203.69-.533.977-.739.103-.075.182-.139.176-.145a3.3 3.3 0 0 0-.52-.351m.976.863c-.08-.119-.098-.146-.113-.143h-.006a2 2 0 0 0-.127.149c-.587.72-1.371 1.44-2.277 2.098a5 5 0 0 0-.209.157c0 .003.122-.054.27-.13.148-.073.375-.182.505-.242a37 37 0 0 1 1.89-.784l.414-.16-.006-.061a2.2 2.2 0 0 0-.339-.881zm-1.151.614c.236-.239.581-.63.569-.641-.012-.013-1.038.684-1.484 1.005a1 1 0 0 0-.302.287 8 8 0 0 1-.524.62c-.315.343-.342.373-.32.361l.18-.115a10 10 0 0 0 1.88-1.517" clip-rule="evenodd"/><defs><radialGradient id="a" cx="0" cy="0" r="1" gradientTransform="rotate(188.543 6.308 4.17)scale(1.50245 3.00564)" gradientUnits="userSpaceOnUse"><stop stop-color="#fff"/><stop offset="1" stop-color="#fff"/></radialGradient></defs></svg>