<svg xmlns="http://www.w3.org/2000/svg" width="24" height="24" fill="none" viewBox="0 0 24 24"><rect width="24" height="24" fill="#e48e00" rx="4"/><path fill="#fff" d="M6.865 6.912a1.8 1.8 0 0 0-.474.06v.023h.022c.094.188.256.319.37.483.094.189.175.376.267.565l.023-.024c.163-.117.243-.305.243-.588-.07-.084-.08-.165-.139-.248-.069-.118-.22-.176-.312-.27"/><path fill="#fff" d="M18.658 17.149c-.925-.024-1.642.07-2.243.33-.173.07-.45.07-.474.294.093.094.104.247.186.377.138.236.38.553.6.718.243.189.486.377.74.542.452.284.96.448 1.4.73.254.165.508.377.763.554.127.094.207.248.37.306v-.036c-.082-.105-.105-.259-.185-.377-.116-.117-.231-.224-.347-.34a5.6 5.6 0 0 0-1.202-1.19c-.37-.26-1.18-.613-1.33-1.048l-.024-.024c.255-.024.556-.118.799-.19.392-.105.75-.081 1.155-.187.185-.047.37-.107.556-.165v-.106c-.209-.212-.359-.495-.578-.695a15.5 15.5 0 0 0-1.908-1.449c-.36-.236-.822-.388-1.203-.589-.138-.07-.37-.105-.45-.224-.209-.259-.325-.6-.475-.907a29 29 0 0 1-.948-2.05c-.208-.458-.335-.917-.59-1.341-1.19-2.003-2.485-3.216-4.474-4.405-.428-.248-.936-.354-1.48-.484-.289-.012-.578-.035-.867-.046-.185-.083-.37-.307-.532-.413-.66-.424-2.358-1.342-2.844-.13-.312.767.462 1.52.728 1.909.197.27.452.577.59.883.08.2.104.413.185.624.185.518.358 1.096.601 1.579.127.247.266.507.428.73.093.13.254.188.29.4-.162.236-.175.59-.267.884-.416 1.33-.255 2.98.335 3.957.185.295.625.943 1.214.695.52-.212.405-.883.555-1.472.035-.142.012-.236.08-.33v.024c.163.33.325.647.475.978.36.576.983 1.177 1.504 1.577.276.213.496.577.843.707v-.035h-.023c-.07-.106-.173-.153-.266-.235a6 6 0 0 1-.601-.707c-.486-.66-.914-1.39-1.295-2.144-.185-.366-.347-.766-.497-1.131-.07-.14-.07-.353-.185-.424-.174.26-.428.483-.555.8-.22.507-.243 1.131-.324 1.78-.046.012-.023 0-.046.023-.37-.094-.497-.483-.636-.812-.347-.837-.405-2.18-.104-3.145.08-.247.428-1.025.29-1.26-.07-.225-.302-.353-.429-.53a4.7 4.7 0 0 1-.415-.754c-.278-.66-.418-1.39-.717-2.05-.14-.307-.383-.625-.578-.907-.22-.318-.463-.541-.637-.918-.057-.13-.138-.342-.046-.483.023-.094.07-.13.162-.153.15-.13.578.035.728.105.428.176.787.342 1.145.59.162.117.335.341.543.4h.243c.37.082.786.023 1.134.13a7.3 7.3 0 0 1 1.664.812 10.4 10.4 0 0 1 3.607 4.029c.139.27.197.518.324.8.243.578.544 1.167.786 1.732.243.553.475 1.118.822 1.578.173.247.867.377 1.179.506.23.106.59.2.798.33.393.247.785.53 1.156.801.184.142.763.436.797.672"/></svg>