<svg xmlns="http://www.w3.org/2000/svg" width="24" height="24" fill="none" viewBox="0 0 24 24"><desc>Nuxt Icon Streamline Icon: https://streamlinehq.com</desc><path fill="#00dc82" d="M13.434 19.666h8.736c.277 0 .55-.07.79-.205s.44-.328.578-.561a1.5 1.5 0 0 0 0-1.533L17.67 7.51a1.56 1.56 0 0 0-.578-.561 1.62 1.62 0 0 0-1.58 0c-.241.134-.44.328-.58.56l-1.5 2.523-2.93-4.932a1.56 1.56 0 0 0-.579-.561 1.62 1.62 0 0 0-1.58 0 1.57 1.57 0 0 0-.58.561l-7.3 12.266a1.5 1.5 0 0 0 0 1.534c.138.233.338.426.578.561s.513.205.79.205h5.484c2.173 0 3.775-.925 4.878-2.731l2.676-4.497 1.434-2.406 4.303 7.228h-5.737zm-6.21-2.408-3.826-.001L9.134 7.62l2.863 4.818-1.917 3.22c-.732 1.173-1.564 1.6-2.855 1.6"/></svg>