<svg xmlns="http://www.w3.org/2000/svg" width="24" height="24" fill="none" viewBox="0 0 24 24"><desc>React Router Streamline Icon: https://streamlinehq.com</desc><path fill="#000" d="M7.416 14.1a2.13 2.13 0 1 0 0-4.262 2.13 2.13 0 0 0 0 4.261M2.38 18.36a2.13 2.13 0 1 0 0-4.26 2.13 2.13 0 0 0 0 4.26m19.24 0a2.13 2.13 0 1 0 0-4.26 2.13 2.13 0 0 0 0 4.26"/><path fill="#d0021b" d="M14.622 12.059c-.068-.712-.103-1.305-.648-1.721-.69-.527-1.473-.185-2.436-.533a2.14 2.14 0 0 1-1.65-2.072c0-1.178.972-2.133 2.17-2.133.887 0 1.65.524 1.985 1.274.515.977.18 1.971.826 2.472.765.593 1.797.158 2.947.72.37.17.683.44.904.774s.348.732.348 1.16a2.14 2.14 0 0 1-1.649 2.072c-.963.347-1.746.005-2.436.533-.777.593-.36 1.585-.994 2.633a2.17 2.17 0 0 1-1.932 1.162c-1.197 0-2.168-.955-2.168-2.133 0-.856.512-1.594 1.252-1.934 1.15-.562 2.182-.128 2.947-.72.44-.343.534-.87.534-1.554"/></svg>