<svg xmlns="http://www.w3.org/2000/svg" width="48" height="48" fill="none" viewBox="0 0 48 48"><g clip-path="url(#a)"><path fill="url(#b)" d="m22.412 41.383 6.868-.536s2.348-.382 3.727-2.651l-4.85-1.173z"/><path fill="url(#c)" d="M12.915 25.295c-2.042.102-5.82.46-5.82.46L23.56 37.71l3.753.944 5.693-.434-16.568-11.98s-1.327-.944-3.242-.944z"/><path fill="url(#d)" d="m34.156 22.924 7.072-.433s2.425-.357 3.803-2.6l-5.029-1.25z"/><path fill="url(#e)" d="M24.148 6.607c-2.119.077-6 .383-6 .383l17.157 12.237 3.88.995 5.872-.357L27.8 7.602s-1.43-.995-3.446-.995z"/><path fill="url(#f)" d="M3.01 28.406c-.026.025-.026.05-.026.076l4.519 3.263 11.973 8.669c2.528 1.81 5.949 1.045 7.685-1.76l-9.14-6.577-7.43-5.405a5 5 0 0 0-2.96-.969c-1.788 0-3.55.943-4.622 2.703"/><path fill="url(#g)" d="M14.14 9.616c0 .025-.025.05-.05.076l4.697 3.34 4.697 3.314 7.812 5.558c2.63 1.861 6.153 1.122 7.89-1.657l-4.75-3.39-4.748-3.366-7.761-5.533a5.42 5.42 0 0 0-3.14-1.02c-1.813.026-3.574.944-4.647 2.678"/><path fill="url(#h)" d="m10.822 13.389 6.05 6.629c.281.382.587.739.945 1.045l11.795 12.952 5.872-.358c1.736-2.778 1.02-6.552-1.609-8.413l-7.812-5.558-4.672-3.314-4.697-3.34z"/><path fill="url(#i)" d="M10.77 13.465c-1.71 2.754-.995 6.476 1.583 8.312l7.736 5.507 4.774 3.365 4.748 3.365c1.736-2.778 1.021-6.552-1.608-8.413L10.822 13.39c0 .026-.026.051-.052.076"/></g><defs><linearGradient id="b" x1="34.558" x2="25.524" y1="5.474" y2="50.063" gradientUnits="userSpaceOnUse"><stop stop-color="#1593f5"/><stop offset="1" stop-color="#0084ce"/></linearGradient><linearGradient id="c" x1="33.672" x2="-4.207" y1="53.768" y2="-7.007" gradientUnits="userSpaceOnUse"><stop stop-color="#1593f5"/><stop offset="1" stop-color="#0084ce"/></linearGradient><linearGradient id="d" x1="58.608" x2="35.797" y1="54.791" y2="13.848" gradientUnits="userSpaceOnUse"><stop stop-color="#fff"/><stop offset="1" stop-color="#15abff"/></linearGradient><linearGradient id="e" x1="18.15" x2="37.514" y1="-17.318" y2="27.064" gradientUnits="userSpaceOnUse"><stop stop-color="#fff"/><stop offset="1" stop-color="#79cfff"/></linearGradient><linearGradient id="f" x1="39.945" x2="9.163" y1="-.435" y2="42.244" gradientUnits="userSpaceOnUse"><stop stop-color="#0057e5"/><stop offset="1" stop-color="#0084ce"/></linearGradient><linearGradient id="g" x1="32.966" x2="23.285" y1="-2.048" y2="24.664" gradientUnits="userSpaceOnUse"><stop stop-color="#fff"/><stop offset="1" stop-color="#15abff"/></linearGradient><linearGradient id="h" x1="45.058" x2="-3.594" y1="51.229" y2="-13.01" gradientUnits="userSpaceOnUse"><stop stop-color="#fff"/><stop offset="1" stop-color="#79cfff"/></linearGradient><linearGradient id="i" x1="36.569" x2="11.608" y1="-8.532" y2="40.811" gradientUnits="userSpaceOnUse"><stop stop-color="#fff"/><stop offset="1" stop-color="#79cfff"/></linearGradient><clipPath id="a"><path fill="#fff" d="M3 5.5h42v37H3z"/></clipPath></defs></svg>