<svg xmlns="http://www.w3.org/2000/svg" width="24" height="24" fill="none" viewBox="0 0 24 24"><desc>Svelte Icon Streamline Icon: https://streamlinehq.com</desc><path fill="#ff3e00" d="M20.53 3.36C18.349.235 14.04-.69 10.924 1.295L5.45 4.784a6.28 6.28 0 0 0-2.837 4.205 6.6 6.6 0 0 0 .652 4.245 6.3 6.3 0 0 0-.939 2.347 6.7 6.7 0 0 0 1.143 5.06c2.183 3.123 6.493 4.049 9.608 2.063l5.473-3.488a6.28 6.28 0 0 0 2.836-4.205 6.6 6.6 0 0 0-.651-4.245c.468-.711.788-1.51.939-2.347a6.7 6.7 0 0 0-1.143-5.06"/><path fill="#fff" d="M10.388 20.938a4.35 4.35 0 0 1-4.668-1.73 4.02 4.02 0 0 1-.687-3.044 4 4 0 0 1 .13-.511l.104-.315.28.206a7 7 0 0 0 2.141 1.07l.204.062-.019.203c-.025.289.053.577.22.814.314.451.875.66 1.406.522q.18-.048.336-.148l5.475-3.489c.27-.17.457-.447.514-.762a1.22 1.22 0 0 0-.207-.917 1.31 1.31 0 0 0-1.406-.522 1.2 1.2 0 0 0-.336.147l-2.089 1.332a4 4 0 0 1-1.111.488 4.35 4.35 0 0 1-4.667-1.73A4.02 4.02 0 0 1 5.32 9.57a3.78 3.78 0 0 1 1.706-2.529L12.5 3.552a4 4 0 0 1 1.113-.489 4.35 4.35 0 0 1 4.667 1.73c.629.881.877 1.978.687 3.044a4 4 0 0 1-.13.511l-.103.315-.28-.206a7 7 0 0 0-2.142-1.07l-.204-.062.019-.203a1.23 1.23 0 0 0-.22-.814 1.31 1.31 0 0 0-1.406-.522 1.2 1.2 0 0 0-.336.148L8.69 9.423c-.27.17-.457.447-.514.762-.057.321.018.652.207.917.313.452.874.66 1.406.522a1.2 1.2 0 0 0 .336-.148l2.089-1.33a4 4 0 0 1 1.111-.49 4.35 4.35 0 0 1 4.667 1.73c.63.882.878 1.979.688 3.045a3.78 3.78 0 0 1-1.706 2.53L11.5 20.448a4 4 0 0 1-1.113.489"/></svg>