<svg xmlns="http://www.w3.org/2000/svg" width="135" height="135" fill="none" viewBox="0 0 41 41"><path fill="#3178c6" d="M36.164.07H3.977A3.906 3.906 0 0 0 .07 3.977v32.187a3.906 3.906 0 0 0 3.907 3.906h32.187a3.906 3.906 0 0 0 3.906-3.906V3.977A3.906 3.906 0 0 0 36.164.07"/><path fill="#3178c6" d="M36.164.07H3.977A3.906 3.906 0 0 0 .07 3.977v32.187a3.906 3.906 0 0 0 3.907 3.906h32.187a3.906 3.906 0 0 0 3.906-3.906V3.977A3.906 3.906 0 0 0 36.164.07"/><path fill="#fff" fill-rule="evenodd" d="M24.831 31.9v3.911q.954.489 2.256.734 1.302.244 2.745.244 1.406 0 2.672-.269 1.265-.27 2.219-.886a4.5 4.5 0 0 0 1.51-1.613q.555-.996.556-2.463 0-1.063-.318-1.864a4.4 4.4 0 0 0-.917-1.424 6.7 6.7 0 0 0-1.437-1.118 15 15 0 0 0-1.889-.935 24 24 0 0 1-1.381-.617 7 7 0 0 1-1.04-.611 2.7 2.7 0 0 1-.66-.66 1.4 1.4 0 0 1-.232-.788q0-.404.208-.728.207-.323.587-.556.378-.233.929-.36a5.4 5.4 0 0 1 1.223-.129q.489 0 1.033.074.543.073 1.094.226.55.153 1.07.385.519.232.96.538v-3.655a9.5 9.5 0 0 0-1.95-.507 16 16 0 0 0-2.427-.165q-1.395 0-2.642.3-1.246.299-2.194.934a4.7 4.7 0 0 0-1.498 1.62q-.55.984-.55 2.352 0 1.749 1.009 2.983 1.008 1.235 3.062 2.09.807.33 1.504.647.697.318 1.205.66.507.343.8.746t.294.917q0 .378-.183.702a1.6 1.6 0 0 1-.557.563 3 3 0 0 1-.929.372q-.556.135-1.302.135a7.52 7.52 0 0 1-4.83-1.784m-6.575-9.636h5.017v-3.21H9.29v3.21h4.993v14.29h3.974z" clip-rule="evenodd"/></svg>