<svg xmlns="http://www.w3.org/2000/svg" width="48" height="48" fill="none" viewBox="0 0 48 48"><path fill="#161d2b" d="M23.983 10.05c-7.692 0-13.95 6.258-13.95 13.95s6.258 13.95 13.95 13.95 13.95-6.258 13.95-13.95-6.258-13.95-13.95-13.95m0 21.17a7.22 7.22 0 0 1-7.22-7.22 7.22 7.22 0 0 1 7.22-7.22 7.22 7.22 0 0 1 7.22 7.22 7.22 7.22 0 0 1-7.22 7.22"/><path fill="url(#a)" fill-rule="evenodd" d="M25.152 7.759V2.55c11.321.605 20.315 9.978 20.315 21.45s-8.994 20.842-20.315 21.45v-5.209c8.438-.602 15.12-7.653 15.12-16.241S33.59 8.361 25.151 7.759M11.68 34.65a16.22 16.22 0 0 1-3.936-9.482h-5.21A21.4 21.4 0 0 0 7.99 38.337l3.687-3.686zm11.134 10.8v-5.21a16.2 16.2 0 0 1-9.484-3.935l-3.687 3.686a21.4 21.4 0 0 0 13.169 5.458z" clip-rule="evenodd"/><defs><linearGradient id="a" x1="25.994" x2="4.879" y1="5.566" y2="26.681" gradientUnits="userSpaceOnUse"><stop stop-color="#0096ff"/><stop offset="1" stop-color="#ff1e56"/></linearGradient></defs></svg>