<svg xmlns="http://www.w3.org/2000/svg" width="48" height="48" fill="none" viewBox="0 0 48 48"><path fill="#2a004e" d="M30.97 9.755a.827.827 0 0 1 1.173 0l13.594 13.649a.835.835 0 0 1 0 1.177l-13.595 13.65a.827.827 0 0 1-1.172 0L17.376 24.582a.835.835 0 0 1 0-1.177z"/><path fill="#f14a00" d="M12.15 24.586a.83.83 0 0 1 0-1.172l11.375-11.42c.382-.384.3-1.026-.184-1.268a14.6 14.6 0 0 0-6.554-1.554C8.633 9.172 2.02 15.812 2.02 24c0 8.189 6.613 14.828 14.767 14.828 2.358 0 4.58-.565 6.554-1.554.485-.242.566-.884.184-1.268z"/></svg>