<svg xmlns="http://www.w3.org/2000/svg" width="560" height="216" fill="none" viewBox="0 0 560 216"><mask id="b" width="560" height="205" x="0" y="0" maskUnits="userSpaceOnUse" style="mask-type:luminance"><path fill="url(#a)" d="M0 0h560v205H0z"/></mask><g mask="url(#b)"><rect width="1124.22" height="702.368" x=".356" y=".356" fill="#030712" rx="3.444"/><rect width="1124.22" height="702.368" x=".356" y=".356" stroke="#111827" stroke-width=".713" rx="3.444"/><g clip-path="url(#c)"><g clip-path="url(#d)"><g filter="url(#e)"><g clip-path="url(#f)"><rect width="142.5" height="76" x="104.5" y="8.55" fill="#030712" rx="3.8"/><g clip-path="url(#g)"><path fill="#9ca3af" d="M124.507 32.678v-1.325h6.963v1.325h-2.697v7.402h-1.568v-7.402zm10.186 7.53q-.984 0-1.7-.41a2.77 2.77 0 0 1-1.096-1.167q-.383-.758-.383-1.785 0-1.011.383-1.773.389-.767 1.083-1.193.695-.43 1.632-.43.605 0 1.142.195.541.192.955.597a2.8 2.8 0 0 1 .656 1.031q.238.623.238 1.483v.473h-5.365v-1.04h3.887a1.66 1.66 0 0 0-.192-.788 1.4 1.4 0 0 0-.524-.55q-.332-.2-.776-.2-.472 0-.831.23-.357.226-.558.597a1.7 1.7 0 0 0-.2.805v.908q0 .57.209.98.208.405.583.622.375.213.878.213.337 0 .61-.094.272-.097.473-.285t.302-.465l1.44.162q-.136.571-.519.997-.38.422-.972.657-.593.23-1.355.23m6.099.004q-.622 0-1.121-.222a1.83 1.83 0 0 1-.784-.664q-.285-.44-.285-1.083 0-.553.204-.916.206-.361.558-.58.354-.216.797-.328.448-.114.925-.166.576-.06.933-.106.358-.05.52-.154.166-.105.166-.328v-.025q0-.482-.285-.746-.286-.264-.823-.264-.566 0-.899.247-.328.248-.443.584l-1.44-.205q.17-.597.562-.997a2.45 2.45 0 0 1 .959-.605 3.7 3.7 0 0 1 1.253-.205q.472 0 .942.111.469.111.856.366.388.252.622.687.239.435.239 1.086v4.381h-1.483v-.9h-.051a1.9 1.9 0 0 1-.396.512q-.252.234-.635.38a2.6 2.6 0 0 1-.891.14m.401-1.134q.464 0 .805-.183.34-.188.524-.494a1.26 1.26 0 0 0 .188-.67v-.77a.7.7 0 0 1-.248.11 3 3 0 0 1-.383.09q-.213.038-.422.068l-.362.051q-.345.048-.618.154-.273.105-.43.298a.73.73 0 0 0-.158.486q0 .426.311.643t.793.218m4.606 1.002v-6.545h1.475v1.112h.076q.205-.563.678-.878.473-.32 1.129-.32.665 0 1.121.324.46.32.648.874h.068q.217-.546.733-.87.52-.328 1.231-.328.903 0 1.475.571.57.571.571 1.666v4.394h-1.547v-4.155q0-.61-.324-.89a1.16 1.16 0 0 0-.793-.286q-.558 0-.873.35-.311.345-.311.899v4.082h-1.513v-4.219q0-.507-.307-.81-.303-.302-.793-.302a1.1 1.1 0 0 0-.605.17q-.272.166-.434.474a1.5 1.5 0 0 0-.162.707v3.98zm13.814 0v-8.727h3.273q1.006 0 1.688.375a2.5 2.5 0 0 1 1.035 1.03q.354.654.354 1.484 0 .84-.354 1.491a2.53 2.53 0 0 1-1.044 1.027q-.69.371-1.7.371h-2.169v-1.3h1.956q.588 0 .963-.204.375-.205.554-.563.183-.358.183-.822 0-.465-.183-.818a1.25 1.25 0 0 0-.558-.55q-.375-.2-.968-.2h-1.449v7.406zm7.655 0v-6.545h1.496v1.09h.068a1.634 1.634 0 0 1 1.615-1.184q.264 0 .486.064.22.063.392.174l-.478 1.279a1.36 1.36 0 0 0-.609-.136q-.401 0-.724.178-.324.18-.516.499-.188.315-.188.733v3.848zm7.496.128q-.96 0-1.662-.422a2.86 2.86 0 0 1-1.091-1.18q-.384-.759-.384-1.773t.384-1.777a2.86 2.86 0 0 1 1.091-1.185q.702-.422 1.662-.422.959 0 1.662.422.702.422 1.086 1.185.388.762.388 1.777t-.388 1.773q-.384.758-1.086 1.18-.704.422-1.662.422m.008-1.236q.52 0 .869-.285.35-.29.52-.776.175-.486.175-1.083 0-.6-.175-1.086a1.7 1.7 0 0 0-.52-.78q-.349-.29-.869-.29-.532 0-.886.29a1.74 1.74 0 0 0-.524.78 3.3 3.3 0 0 0-.171 1.087q0 .596.171 1.082.174.486.524.776.354.285.886.285m4.437-5.437h1.543v6.92q0 .706-.269 1.168a1.65 1.65 0 0 1-.775.686q-.507.225-1.232.226a3 3 0 0 1-.157-.005q-.073 0-.158-.004V41.27q.064.004.115.004.051.004.107.004.443 0 .634-.217.192-.212.192-.626zm.767-.93a.9.9 0 0 1-.635-.242.8.8 0 0 1-.26-.593.78.78 0 0 1 .26-.592.9.9 0 0 1 .635-.247q.367 0 .627.247.264.244.264.592 0 .345-.264.593a.9.9 0 0 1-.627.242m5.26 7.603q-.984 0-1.7-.41a2.77 2.77 0 0 1-1.096-1.167q-.383-.758-.383-1.785 0-1.011.383-1.773.389-.767 1.083-1.193.695-.43 1.632-.43.605 0 1.142.195.541.192.954.597.418.405.657 1.031.238.623.238 1.483v.473h-5.365v-1.04h3.887a1.66 1.66 0 0 0-.192-.788 1.4 1.4 0 0 0-.524-.55q-.332-.2-.776-.2-.473 0-.831.23-.357.226-.558.597a1.7 1.7 0 0 0-.2.805v.908q0 .57.209.98.208.405.583.622.375.213.878.213.337 0 .61-.094.272-.097.473-.285t.302-.465l1.44.162q-.136.571-.519.997-.38.422-.972.657-.593.23-1.355.23m7.071 0q-.98 0-1.684-.43a2.87 2.87 0 0 1-1.078-1.19q-.375-.762-.375-1.755 0-.998.384-1.76.383-.767 1.082-1.193.703-.43 1.662-.43.796 0 1.411.293.617.29.984.823.366.528.418 1.235h-1.475a1.4 1.4 0 0 0-.426-.788q-.333-.32-.891-.32-.472 0-.831.256-.357.252-.558.725-.196.473-.196 1.133 0 .67.196 1.15t.55.738q.357.256.839.256.342 0 .61-.128.273-.132.456-.38.183-.246.251-.6h1.475a2.6 2.6 0 0 1-.41 1.231 2.4 2.4 0 0 1-.963.836q-.609.297-1.431.298m7.339-6.673v1.193h-3.763v-1.194zm-2.834-1.569h1.542v6.145q0 .312.094.478a.5.5 0 0 0 .256.221q.158.06.349.06.145 0 .265-.022.123-.021.187-.038l.26 1.206q-.123.042-.354.094-.225.051-.554.06a2.5 2.5 0 0 1-1.044-.175 1.63 1.63 0 0 1-.737-.605q-.268-.41-.264-1.023z"/></g><rect width="76" height="7.6" x="124.03" y="56.579" fill="#042f2e" rx="3.8"/></g><rect width="141.5" height="75" x="105" y="9.05" stroke="#042f2e" rx="3.3"/></g><g filter="url(#h)" opacity=".5"><g clip-path="url(#i)"><rect width="142.5" height="76" x="253.65" y="8.55" fill="#030712" rx="3.125"/><path fill="#9ca3af" d="M274.041 40.08v-8.727h1.581v7.402h3.843v1.325zm9.584.128q-.96 0-1.662-.422a2.86 2.86 0 0 1-1.091-1.18q-.384-.759-.384-1.773t.384-1.777a2.86 2.86 0 0 1 1.091-1.185q.702-.422 1.662-.422.959 0 1.661.422t1.087 1.185q.388.762.388 1.777t-.388 1.773q-.384.758-1.087 1.18-.702.422-1.661.422m.008-1.236q.52 0 .869-.285.35-.29.52-.776.175-.486.175-1.083 0-.6-.175-1.086a1.7 1.7 0 0 0-.52-.78q-.349-.29-.869-.29-.533 0-.886.29a1.74 1.74 0 0 0-.524.78 3.3 3.3 0 0 0-.171 1.087q0 .596.171 1.082.174.486.524.776.353.285.886.285m7.292 1.236q-.98 0-1.683-.43a2.87 2.87 0 0 1-1.078-1.19q-.375-.762-.375-1.755 0-.998.383-1.76.384-.767 1.083-1.193.704-.43 1.662-.43.796 0 1.41.293.618.29.985.823.366.528.417 1.235h-1.474a1.4 1.4 0 0 0-.426-.788q-.333-.32-.891-.32-.472 0-.831.256a1.63 1.63 0 0 0-.558.725q-.196.473-.196 1.133 0 .67.196 1.15t.55.738q.357.256.839.256a1.4 1.4 0 0 0 .609-.128q.273-.132.456-.38.184-.246.252-.6h1.474a2.6 2.6 0 0 1-.409 1.231 2.4 2.4 0 0 1-.963.836q-.609.297-1.432.298m5.955.004a2.7 2.7 0 0 1-1.121-.222 1.83 1.83 0 0 1-.784-.664q-.286-.44-.286-1.083 0-.553.205-.916.204-.361.558-.58.353-.216.797-.328.447-.114.925-.166.575-.06.933-.106.358-.05.52-.154.166-.105.166-.328v-.025q0-.482-.286-.746-.285-.264-.822-.264-.567 0-.899.247a1.2 1.2 0 0 0-.443.584l-1.441-.205q.17-.597.563-.997.392-.405.959-.605a3.7 3.7 0 0 1 1.252-.205q.474 0 .942.111.469.111.857.366.388.252.622.687.238.435.238 1.086v4.381h-1.482v-.9h-.052a1.86 1.86 0 0 1-1.031.891q-.38.141-.89.141m.4-1.134q.465 0 .805-.183.341-.188.525-.494.187-.307.187-.67v-.77a.7.7 0 0 1-.247.11 4 4 0 0 1-.384.09 12 12 0 0 1-.421.068l-.363.051q-.345.048-.618.154a1.03 1.03 0 0 0-.43.298.73.73 0 0 0-.158.486q0 .426.311.643.312.218.793.218m6.149-7.725v8.727h-1.542v-8.727zm7.589 8.727h-2.958v-8.727h3.017q1.3 0 2.233.524a3.5 3.5 0 0 1 1.441 1.496q.502.975.502 2.335 0 1.363-.507 2.343a3.5 3.5 0 0 1-1.453 1.505q-.946.524-2.275.524m-1.377-1.368h1.3q.912 0 1.521-.332.61-.337.916-1.002.307-.67.307-1.67 0-1.002-.307-1.662a2.1 2.1 0 0 0-.907-.993q-.597-.333-1.483-.332h-1.347zm8.93 1.5q-.622 0-1.121-.222a1.83 1.83 0 0 1-.784-.664q-.285-.44-.285-1.083 0-.553.204-.916.205-.361.558-.58.354-.216.797-.328.448-.114.925-.166.575-.06.933-.106.358-.05.52-.154.166-.105.166-.328v-.025q0-.482-.285-.746-.286-.264-.823-.264-.567 0-.899.247-.328.248-.443.584l-1.44-.205q.17-.597.562-.997a2.45 2.45 0 0 1 .959-.605 3.7 3.7 0 0 1 1.253-.205q.473 0 .942.111t.856.366q.388.252.622.687.239.435.239 1.086v4.381h-1.483v-.9h-.051a1.88 1.88 0 0 1-1.031.891 2.6 2.6 0 0 1-.891.141m.4-1.134q.465 0 .806-.183.34-.188.524-.494a1.26 1.26 0 0 0 .188-.67v-.77a.7.7 0 0 1-.248.11 3 3 0 0 1-.383.09q-.213.038-.422.068l-.362.051q-.345.048-.618.154-.273.105-.431.298a.73.73 0 0 0-.157.486q0 .426.311.643.31.218.792.218m7.875-5.544v1.194h-3.762v-1.194zm-2.833-1.568h1.542v6.145q0 .312.094.478a.5.5 0 0 0 .256.221q.157.06.349.06.145 0 .264-.022.124-.021.188-.038l.26 1.206q-.124.042-.354.094-.225.051-.554.06a2.5 2.5 0 0 1-1.044-.175 1.6 1.6 0 0 1-.737-.605q-.268-.41-.264-1.023zm6.007 8.246q-.622 0-1.121-.222a1.83 1.83 0 0 1-.784-.664q-.285-.44-.285-1.083 0-.553.204-.916.205-.361.559-.58.353-.216.796-.328.448-.114.925-.166.576-.06.933-.106.358-.05.52-.154.166-.105.166-.328v-.025q0-.482-.285-.746-.286-.264-.822-.264-.567 0-.9.247-.327.248-.443.584l-1.44-.205q.17-.597.562-.997a2.45 2.45 0 0 1 .959-.605 3.7 3.7 0 0 1 1.253-.205q.472 0 .942.111.469.111.856.366.388.252.622.687.24.435.239 1.086v4.381h-1.483v-.9h-.051a1.9 1.9 0 0 1-.396.512q-.252.234-.635.38a2.6 2.6 0 0 1-.891.14m.401-1.134q.464 0 .805-.183.34-.188.524-.494a1.26 1.26 0 0 0 .188-.67v-.77a.7.7 0 0 1-.247.11 4 4 0 0 1-.384.09q-.213.038-.422.068l-.362.051q-.345.048-.618.154-.273.105-.43.298a.73.73 0 0 0-.158.486q0 .426.311.643t.793.218m4.674 1.002v-8.727h1.543v3.264h.064q.119-.24.337-.507.217-.273.588-.465.37-.195.946-.196.758 0 1.368.388.614.384.971 1.138.363.75.362 1.84 0 1.08-.353 1.833-.354.754-.963 1.15a2.5 2.5 0 0 1-1.381.397q-.562 0-.933-.187a1.9 1.9 0 0 1-.597-.452 3 3 0 0 1-.345-.507h-.09v1.031zm1.513-3.273q0 .635.179 1.112.183.478.524.746.345.264.836.264.51 0 .856-.272.345-.277.52-.755.179-.48.179-1.095a3.1 3.1 0 0 0-.175-1.082 1.6 1.6 0 0 0-.52-.742q-.345-.268-.86-.268-.495 0-.84.26t-.524.728q-.175.469-.175 1.104m7.861 3.405a2.7 2.7 0 0 1-1.12-.222 1.83 1.83 0 0 1-.784-.664q-.286-.44-.286-1.083 0-.553.205-.916.204-.361.558-.58.353-.216.797-.328.447-.114.924-.166.576-.06.934-.106.358-.05.52-.154.165-.105.166-.328v-.025q0-.482-.286-.746-.285-.264-.822-.264-.567 0-.899.247-.329.248-.444.584l-1.44-.205q.17-.597.563-.997.392-.405.958-.605a3.7 3.7 0 0 1 1.253-.205q.473 0 .942.111t.857.366q.387.252.622.687.238.435.238 1.086v4.381h-1.483v-.9h-.051a1.9 1.9 0 0 1-.396.512 1.9 1.9 0 0 1-.635.38 2.6 2.6 0 0 1-.891.14m.401-1.134q.465 0 .805-.183.341-.188.524-.494a1.26 1.26 0 0 0 .188-.67v-.77a.7.7 0 0 1-.247.11 4 4 0 0 1-.384.09q-.212.038-.422.068l-.362.051q-.345.048-.618.154-.273.105-.43.298a.73.73 0 0 0-.158.486q0 .426.311.643.312.218.793.218m9.78-3.813-1.407.153a1.1 1.1 0 0 0-.208-.4 1.05 1.05 0 0 0-.392-.303 1.4 1.4 0 0 0-.605-.115q-.482 0-.81.209-.324.21-.32.54a.57.57 0 0 0 .209.465q.218.18.716.294l1.116.239q.93.2 1.381.635.457.435.46 1.138a1.77 1.77 0 0 1-.362 1.09q-.354.469-.984.734-.632.264-1.449.264-1.202 0-1.935-.503a2.02 2.02 0 0 1-.873-1.41l1.504-.145q.102.443.435.669.332.225.865.225.549 0 .882-.225.336-.226.336-.559a.58.58 0 0 0-.217-.464q-.213-.183-.665-.281l-1.116-.235q-.942-.195-1.394-.66-.452-.47-.447-1.185a1.67 1.67 0 0 1 .328-1.048q.337-.448.933-.69.601-.248 1.385-.248 1.15 0 1.811.49.665.49.823 1.326m4.31 4.943q-.984 0-1.7-.41a2.76 2.76 0 0 1-1.095-1.167q-.384-.758-.384-1.785 0-1.011.384-1.773.387-.767 1.082-1.193.695-.43 1.632-.43.606 0 1.142.195.541.192.955.597a2.8 2.8 0 0 1 .656 1.031q.239.623.239 1.483v.473h-5.365v-1.04h3.886a1.66 1.66 0 0 0-.192-.788 1.4 1.4 0 0 0-.524-.55q-.332-.2-.776-.2-.472 0-.831.23-.357.226-.558.597-.195.366-.2.805v.908q0 .57.209.98.209.405.584.622.375.213.877.213.337 0 .61-.094.272-.097.473-.285t.302-.465l1.441.162q-.136.571-.52.997-.38.422-.972.657a3.7 3.7 0 0 1-1.355.23"/><rect width="94.347" height="7.862" x="273.18" y="56.579" fill="#111827" rx="3.931"/></g><rect width="141.719" height="75.219" x="254.041" y="8.941" stroke="#111827" stroke-width=".781" rx="2.734"/></g><g filter="url(#j)" opacity=".36"><g clip-path="url(#k)"><rect width="142.5" height="76" x="402.8" y="8.55" fill="#030712" rx="3.125"/><g clip-path="url(#l)"><path fill="#9ca3af" d="M430.661 34.297h-1.594a2 2 0 0 0-.251-.694 1.86 1.86 0 0 0-1.078-.84 2.4 2.4 0 0 0-.746-.11q-.711 0-1.261.357-.55.354-.861 1.04-.312.682-.311 1.666 0 1.002.311 1.688.315.681.861 1.031.549.345 1.257.345.391 0 .733-.102.345-.107.618-.311.276-.204.464-.503a1.9 1.9 0 0 0 .264-.682l1.594.009q-.09.622-.388 1.167a3.4 3.4 0 0 1-.771.963q-.477.414-1.117.648-.639.23-1.419.23-1.15 0-2.054-.532t-1.423-1.539q-.52-1.005-.52-2.412 0-1.41.524-2.412.525-1.005 1.428-1.538t2.045-.533q.729 0 1.356.205a3.5 3.5 0 0 1 1.116.6q.49.393.805.964.32.567.418 1.295m2.922-2.944v8.727h-1.542v-8.727zm4.442 8.855q-.96 0-1.662-.422a2.86 2.86 0 0 1-1.091-1.18q-.384-.759-.384-1.773t.384-1.777a2.86 2.86 0 0 1 1.091-1.185q.702-.422 1.662-.422.959 0 1.662.422a2.83 2.83 0 0 1 1.086 1.185q.388.762.388 1.777t-.388 1.773q-.383.758-1.086 1.18t-1.662.422m.008-1.236q.52 0 .87-.285.349-.29.519-.776.175-.486.175-1.083 0-.6-.175-1.086a1.7 1.7 0 0 0-.519-.78q-.35-.29-.87-.29-.532 0-.886.29a1.74 1.74 0 0 0-.524.78 3.3 3.3 0 0 0-.171 1.087q0 .596.171 1.082.174.486.524.776.354.285.886.285m8.609-1.645v-3.792h1.543v6.545h-1.496v-1.163h-.068a1.97 1.97 0 0 1-.729.899q-.502.35-1.24.35-.643 0-1.138-.286a2 2 0 0 1-.767-.84q-.277-.554-.277-1.338v-4.167h1.543v3.929q0 .621.341.988.34.367.895.367.34 0 .66-.167.32-.165.524-.494.21-.332.209-.83m5.558 2.868a2.5 2.5 0 0 1-1.381-.396q-.609-.397-.963-1.15-.353-.755-.353-1.833 0-1.09.358-1.841.361-.754.975-1.138.615-.388 1.368-.388.576 0 .946.196.372.192.588.465.218.268.337.507h.064v-3.264h1.547v8.727h-1.517V39.05h-.094a2.6 2.6 0 0 1-.345.507 1.9 1.9 0 0 1-.597.452q-.37.186-.933.187m.431-1.266q.49 0 .835-.264a1.65 1.65 0 0 0 .524-.746q.179-.477.179-1.112 0-.634-.179-1.104a1.6 1.6 0 0 0-.52-.728q-.34-.26-.839-.26-.516 0-.861.268-.346.27-.52.742a3.1 3.1 0 0 0-.175 1.082q0 .614.175 1.095.179.478.524.755.349.273.857.272m7.743 1.151v-8.727h3.273q1.006 0 1.688.375a2.5 2.5 0 0 1 1.035 1.03q.354.654.354 1.484 0 .84-.354 1.491a2.53 2.53 0 0 1-1.044 1.027q-.69.371-1.7.371h-2.169v-1.3h1.956q.588 0 .963-.204.375-.205.554-.563.183-.358.183-.822 0-.465-.183-.818a1.25 1.25 0 0 0-.558-.55q-.375-.2-.968-.2h-1.449v7.406zm7.655 0v-6.545h1.496v1.09h.068a1.634 1.634 0 0 1 1.615-1.184q.264 0 .486.064.22.063.392.174l-.478 1.279a1.36 1.36 0 0 0-.609-.136q-.4 0-.724.178-.324.18-.516.499-.187.315-.187.733v3.848zm7.496.128q-.96 0-1.662-.422a2.86 2.86 0 0 1-1.091-1.18q-.384-.759-.384-1.773t.384-1.777a2.86 2.86 0 0 1 1.091-1.185q.702-.422 1.662-.422.959 0 1.662.422a2.83 2.83 0 0 1 1.086 1.185q.388.762.388 1.777t-.388 1.773q-.383.758-1.086 1.18t-1.662.422m.008-1.236q.52 0 .87-.285.349-.29.519-.776.175-.486.175-1.083 0-.6-.175-1.086a1.7 1.7 0 0 0-.519-.78q-.35-.29-.87-.29-.532 0-.886.29a1.74 1.74 0 0 0-.524.78 3.3 3.3 0 0 0-.171 1.087q0 .596.171 1.082.174.486.524.776.354.285.886.285m4.437-5.437h1.543v6.92q0 .706-.269 1.168a1.64 1.64 0 0 1-.775.686q-.507.225-1.232.226-.084 0-.157-.005-.073 0-.158-.004V41.27q.064.004.115.004.051.004.107.004.443 0 .635-.217.19-.212.191-.626zm.767-.93a.9.9 0 0 1-.635-.242.8.8 0 0 1-.259-.593.78.78 0 0 1 .259-.592.9.9 0 0 1 .635-.247q.368 0 .627.247.264.244.264.592 0 .345-.264.593a.88.88 0 0 1-.627.242m5.26 7.603q-.984 0-1.7-.41a2.76 2.76 0 0 1-1.095-1.167q-.384-.758-.384-1.785 0-1.011.384-1.773.387-.767 1.082-1.193.695-.43 1.632-.43.605 0 1.142.195.541.192.955.597a2.8 2.8 0 0 1 .656 1.031q.238.623.238 1.483v.473h-5.365v-1.04h3.887a1.66 1.66 0 0 0-.192-.788 1.4 1.4 0 0 0-.524-.55q-.332-.2-.776-.2-.472 0-.831.23-.357.226-.558.597a1.7 1.7 0 0 0-.2.805v.908q0 .57.209.98.208.405.583.622.375.213.878.213.337 0 .61-.094.272-.097.473-.285t.302-.465l1.441.162q-.137.571-.52.997-.38.422-.972.657a3.7 3.7 0 0 1-1.355.23m7.071 0q-.98 0-1.684-.43a2.9 2.9 0 0 1-1.078-1.19q-.375-.762-.375-1.755 0-.998.384-1.76.383-.767 1.082-1.193.704-.43 1.662-.43.797 0 1.411.293.618.29.984.823.367.528.418 1.235h-1.475a1.4 1.4 0 0 0-.426-.788q-.332-.32-.891-.32-.472 0-.831.256-.357.252-.558.725-.195.473-.196 1.133 0 .67.196 1.15t.55.738q.358.256.839.256.342 0 .61-.128.273-.132.456-.38.183-.246.251-.6h1.475a2.6 2.6 0 0 1-.409 1.231 2.4 2.4 0 0 1-.964.836q-.609.297-1.431.298m7.339-6.673v1.193h-3.763v-1.194zm-2.834-1.569h1.543v6.145q0 .312.093.478a.5.5 0 0 0 .256.221q.158.06.349.06.145 0 .265-.022.123-.021.187-.038l.26 1.206q-.123.042-.354.094-.225.051-.554.06a2.5 2.5 0 0 1-1.044-.175 1.63 1.63 0 0 1-.737-.605q-.268-.41-.264-1.023z"/></g><rect width="76" height="7.6" x="422.33" y="56.579" fill="#111827" rx="3.8"/></g><rect width="141.719" height="75.219" x="403.191" y="8.941" stroke="#111827" stroke-width=".781" rx="2.734"/></g><g filter="url(#m)" opacity=".34"><g clip-path="url(#n)"><rect width="142.5" height="76" x="104.5" y="91.2" fill="#030712" rx="3.8"/><g clip-path="url(#o)"><path fill="#9ca3af" d="M124.891 122.73v-8.727h3.272q1.006 0 1.688.375.685.375 1.035 1.031.354.652.354 1.483 0 .84-.354 1.491a2.5 2.5 0 0 1-1.044 1.027q-.69.371-1.7.371h-2.169v-1.3h1.956q.588 0 .963-.204.375-.205.554-.563.183-.357.183-.822t-.183-.818a1.24 1.24 0 0 0-.558-.55q-.376-.2-.967-.2h-1.449v7.406zm7.654 0v-6.545h1.496v1.09h.068a1.63 1.63 0 0 1 .614-.873q.434-.312 1.001-.311.264 0 .486.064t.392.174l-.477 1.279a1.3 1.3 0 0 0-.61-.137q-.4 0-.724.179-.324.18-.516.499-.187.316-.187.733v3.848zm7.496.128q-.959 0-1.662-.422a2.87 2.87 0 0 1-1.091-1.18q-.383-.759-.383-1.773 0-1.015.383-1.777a2.86 2.86 0 0 1 1.091-1.185q.703-.422 1.662-.422t1.662.422a2.8 2.8 0 0 1 1.086 1.185q.388.762.388 1.777t-.388 1.773a2.83 2.83 0 0 1-1.086 1.18q-.703.422-1.662.422m.008-1.236q.52 0 .87-.285.35-.29.52-.776.174-.486.174-1.082 0-.601-.174-1.087a1.7 1.7 0 0 0-.52-.78q-.35-.29-.87-.29-.532 0-.886.29a1.74 1.74 0 0 0-.524.78 3.3 3.3 0 0 0-.171 1.087q0 .596.171 1.082.174.486.524.776.354.285.886.285m4.438-5.437h1.542v6.92q0 .708-.268 1.168a1.66 1.66 0 0 1-.776.686q-.507.225-1.231.226-.086 0-.158-.005a3 3 0 0 1-.158-.004v-1.257q.064.004.115.004.051.004.107.004.443 0 .635-.217.192-.213.192-.626zm.767-.929a.9.9 0 0 1-.635-.243.8.8 0 0 1-.26-.593q0-.35.26-.592a.9.9 0 0 1 .635-.247q.366 0 .626.247a.77.77 0 0 1 .264.592q0 .345-.264.593a.88.88 0 0 1-.626.243m5.259 7.602q-.984 0-1.7-.409a2.77 2.77 0 0 1-1.095-1.168q-.384-.759-.384-1.785 0-1.011.384-1.773a2.9 2.9 0 0 1 1.082-1.193q.695-.43 1.632-.431.605 0 1.142.196.541.192.955.597.417.405.656 1.031.239.622.239 1.483v.473h-5.365v-1.04h3.886a1.66 1.66 0 0 0-.192-.788 1.4 1.4 0 0 0-.524-.55q-.332-.2-.775-.2-.474 0-.831.23-.358.227-.559.597-.195.366-.2.805v.908q0 .57.209.98.209.405.584.622.374.213.878.213.336 0 .609-.094.272-.097.473-.285t.302-.465l1.441.162a2.24 2.24 0 0 1-.52.997q-.38.422-.972.657a3.7 3.7 0 0 1-1.355.23m7.071 0q-.981 0-1.683-.431a2.87 2.87 0 0 1-1.078-1.188q-.375-.763-.375-1.756 0-.998.383-1.76a2.87 2.87 0 0 1 1.082-1.193q.703-.43 1.662-.431.798 0 1.411.294.618.29.984.823.367.528.418 1.236h-1.475a1.4 1.4 0 0 0-.426-.789q-.332-.32-.89-.319-.474 0-.831.255a1.64 1.64 0 0 0-.559.725q-.195.473-.196 1.133 0 .67.196 1.151.196.477.55.737.358.256.84.256.34 0 .609-.128.273-.132.456-.379t.251-.601h1.475a2.6 2.6 0 0 1-.409 1.231 2.43 2.43 0 0 1-.963.836q-.61.297-1.432.298m7.339-6.673v1.193h-3.763v-1.193zm-2.834-1.569h1.543v6.145q0 .312.094.478.098.16.255.221.158.06.35.06.144 0 .264-.022.123-.021.187-.038l.26 1.206q-.123.043-.353.094a3 3 0 0 1-.554.059 2.5 2.5 0 0 1-1.044-.174 1.63 1.63 0 0 1-.738-.605q-.268-.41-.264-1.023z"/></g><rect width="76" height="7.6" x="124.03" y="139.229" fill="#111827" rx="3.8"/></g><rect width="141.719" height="75.219" x="104.891" y="91.591" stroke="#111827" stroke-width=".781" rx="3.409"/></g><g filter="url(#p)" opacity=".34"><g clip-path="url(#q)"><rect width="142.5" height="76" x="253.65" y="91.2" fill="#030712" rx="3.8"/><g clip-path="url(#r)"><path fill="#9ca3af" d="M276.998 122.73h-2.957v-8.727h3.017q1.3 0 2.233.524a3.5 3.5 0 0 1 1.44 1.496q.503.976.503 2.335 0 1.363-.507 2.344a3.5 3.5 0 0 1-1.453 1.504q-.947.524-2.276.524m-1.376-1.368h1.299q.912 0 1.522-.332.609-.338.916-1.002.307-.67.307-1.67 0-1.002-.307-1.662a2.1 2.1 0 0 0-.908-.993q-.596-.332-1.483-.332h-1.346zm9.944 1.496q-.985 0-1.701-.409a2.8 2.8 0 0 1-1.095-1.168q-.383-.759-.383-1.785 0-1.011.383-1.773a2.9 2.9 0 0 1 1.083-1.193q.695-.43 1.632-.431.605 0 1.142.196.54.192.954.597.418.405.656 1.031.24.622.239 1.483v.473h-5.365v-1.04h3.886a1.65 1.65 0 0 0-.191-.788 1.4 1.4 0 0 0-.525-.55q-.332-.2-.775-.2-.472 0-.831.23-.358.227-.558.597a1.7 1.7 0 0 0-.201.805v.908q0 .57.209.98.209.405.584.622.375.213.878.213.336 0 .609-.094.273-.097.473-.285.201-.187.303-.465l1.44.162a2.24 2.24 0 0 1-.52.997q-.379.422-.971.657-.593.23-1.355.23m9.874-6.673-2.331 6.545h-1.704l-2.331-6.545h1.645l1.504 4.862h.068l1.509-4.862zm3.743 6.673q-.984 0-1.701-.409a2.8 2.8 0 0 1-1.095-1.168q-.383-.759-.383-1.785 0-1.011.383-1.773.389-.767 1.083-1.193.695-.43 1.632-.431.605 0 1.142.196.541.192.954.597.418.405.657 1.031.238.622.238 1.483v.473h-5.365v-1.04h3.887a1.66 1.66 0 0 0-.192-.788 1.4 1.4 0 0 0-.524-.55 1.5 1.5 0 0 0-.776-.2q-.472 0-.831.23-.358.227-.558.597a1.7 1.7 0 0 0-.2.805v.908q0 .57.208.98.21.405.584.622.375.213.878.213.338 0 .609-.094.273-.097.473-.285.201-.187.303-.465l1.44.162a2.24 2.24 0 0 1-.52.997q-.378.422-.971.657-.593.23-1.355.23m5.758-8.855v8.727h-1.543v-8.727zm4.441 8.855q-.959 0-1.662-.422a2.87 2.87 0 0 1-1.09-1.18q-.384-.759-.384-1.773 0-1.015.384-1.777a2.86 2.86 0 0 1 1.09-1.185q.704-.422 1.662-.422.96 0 1.662.422.703.421 1.087 1.185.387.762.388 1.777 0 1.014-.388 1.773a2.84 2.84 0 0 1-1.087 1.18q-.702.422-1.662.422m.009-1.236q.52 0 .869-.285.35-.29.52-.776.175-.486.175-1.082 0-.601-.175-1.087a1.7 1.7 0 0 0-.52-.78q-.35-.29-.869-.29-.533 0-.886.29a1.75 1.75 0 0 0-.525.78q-.17.486-.17 1.087 0 .596.17 1.082.176.486.525.776.353.285.886.285m4.437 3.563v-9h1.517v1.082h.09q.118-.239.336-.507a1.8 1.8 0 0 1 .588-.465q.371-.195.946-.196.759 0 1.368.388.614.384.972 1.138.362.75.362 1.841 0 1.078-.354 1.832-.353.755-.963 1.151a2.5 2.5 0 0 1-1.38.396q-.563 0-.934-.187a1.9 1.9 0 0 1-.596-.452 3 3 0 0 1-.345-.507h-.064v3.486zm1.513-5.728q0 .636.179 1.112.183.478.524.746.345.264.835.264.512 0 .857-.272.345-.277.52-.755.179-.481.179-1.095a3.1 3.1 0 0 0-.175-1.082 1.63 1.63 0 0 0-.52-.742q-.345-.268-.861-.268-.494 0-.839.26t-.524.729a3.1 3.1 0 0 0-.175 1.103m5.987 3.273v-6.545h1.474v1.112h.077q.205-.563.678-.878.472-.32 1.129-.32.665 0 1.121.324.46.32.647.874h.069q.217-.546.733-.87.52-.328 1.231-.328.903 0 1.475.571.57.571.571 1.667v4.393h-1.547v-4.155q0-.61-.324-.89a1.15 1.15 0 0 0-.793-.286q-.558 0-.873.349-.312.346-.311.9v4.082h-1.513v-4.219q0-.507-.307-.809-.303-.303-.793-.303-.332 0-.605.17a1.2 1.2 0 0 0-.434.473 1.5 1.5 0 0 0-.162.708v3.98zm13.667.128q-.984 0-1.7-.409a2.77 2.77 0 0 1-1.095-1.168q-.384-.759-.384-1.785 0-1.011.384-1.773a2.9 2.9 0 0 1 1.082-1.193q.695-.43 1.632-.431.606 0 1.142.196.541.192.955.597.417.405.656 1.031.239.622.239 1.483v.473h-5.365v-1.04h3.886a1.66 1.66 0 0 0-.192-.788 1.4 1.4 0 0 0-.524-.55q-.332-.2-.775-.2-.474 0-.831.23-.358.227-.559.597-.195.366-.2.805v.908q0 .57.209.98.209.405.584.622.374.213.878.213.336 0 .609-.094.273-.097.473-.285t.303-.465l1.44.162a2.24 2.24 0 0 1-.52.997q-.38.422-.972.657a3.7 3.7 0 0 1-1.355.23m5.758-3.963v3.835h-1.542v-6.545h1.474v1.112h.077q.227-.55.72-.874.499-.324 1.232-.324.677 0 1.18.29.507.29.784.84.282.55.277 1.333v4.168h-1.542v-3.929q0-.656-.341-1.027-.337-.37-.934-.371-.405 0-.72.179a1.25 1.25 0 0 0-.49.507 1.7 1.7 0 0 0-.175.806m9.039-2.71v1.193h-3.763v-1.193zm-2.834-1.569h1.543v6.145q0 .312.093.478a.5.5 0 0 0 .256.221q.158.06.349.06.145 0 .265-.022.123-.021.187-.038l.26 1.206q-.123.043-.354.094-.225.051-.554.059a2.5 2.5 0 0 1-1.044-.174 1.63 1.63 0 0 1-.737-.605q-.269-.41-.264-1.023z"/></g><rect width="76" height="7.6" x="273.18" y="139.229" fill="#111827" rx="3.8"/></g><rect width="141.719" height="75.219" x="254.041" y="91.591" stroke="#111827" stroke-width=".781" rx="3.409"/></g><g filter="url(#s)" opacity=".34"><g clip-path="url(#t)"><rect width="142.5" height="76" x="402.8" y="91.2" fill="#030712" rx="3.8"/><path fill="#9ca3af" d="M426.148 122.73h-2.957v-8.727h3.017q1.3 0 2.233.524a3.5 3.5 0 0 1 1.44 1.496q.503.976.503 2.335 0 1.363-.507 2.344a3.5 3.5 0 0 1-1.453 1.504q-.946.524-2.276.524m-1.376-1.368h1.3q.912 0 1.521-.332a2.13 2.13 0 0 0 .916-1.002q.307-.67.307-1.67 0-1.002-.307-1.662a2.1 2.1 0 0 0-.908-.993q-.596-.332-1.483-.332h-1.346zm9.944 1.496q-.985 0-1.701-.409a2.8 2.8 0 0 1-1.095-1.168q-.383-.759-.383-1.785 0-1.011.383-1.773.388-.767 1.083-1.193.695-.43 1.632-.431.605 0 1.142.196.541.192.954.597.418.405.657 1.031.238.622.238 1.483v.473h-5.365v-1.04h3.887a1.66 1.66 0 0 0-.192-.788 1.4 1.4 0 0 0-.524-.55 1.5 1.5 0 0 0-.776-.2q-.472 0-.831.23-.359.227-.558.597a1.7 1.7 0 0 0-.2.805v.908q0 .57.208.98.21.405.584.622.375.213.878.213.337 0 .609-.094.273-.097.473-.285.201-.187.303-.465l1.44.162a2.24 2.24 0 0 1-.52.997q-.378.422-.971.657-.593.23-1.355.23m9.389-4.943-1.407.153a1.1 1.1 0 0 0-.208-.401 1.04 1.04 0 0 0-.393-.302 1.4 1.4 0 0 0-.605-.115q-.482 0-.809.209-.324.208-.32.541a.56.56 0 0 0 .209.464q.217.18.716.294l1.116.239q.93.2 1.381.635.456.435.46 1.138a1.78 1.78 0 0 1-.362 1.091q-.354.468-.984.733-.631.264-1.449.264-1.201 0-1.935-.503a2.02 2.02 0 0 1-.873-1.411l1.504-.144q.102.442.434.669.333.225.865.225.55 0 .883-.225.336-.226.336-.559a.58.58 0 0 0-.217-.464q-.213-.183-.665-.281l-1.116-.235q-.942-.196-1.394-.66-.452-.47-.447-1.185a1.67 1.67 0 0 1 .328-1.048q.336-.448.933-.691.601-.246 1.385-.247 1.15 0 1.811.49.664.49.823 1.326m1.412 4.815v-6.545h1.543v6.545zm.776-7.474a.9.9 0 0 1-.631-.243.8.8 0 0 1-.264-.593q0-.35.264-.592a.9.9 0 0 1 .631-.247q.37 0 .63.247a.77.77 0 0 1 .265.592q0 .345-.265.593a.9.9 0 0 1-.63.243m5.2 10.065q-.831 0-1.428-.226-.596-.222-.959-.597a2.06 2.06 0 0 1-.502-.831l1.389-.336q.093.192.272.379.18.192.482.315.307.129.771.128.657 0 1.087-.319.43-.316.43-1.04v-1.24h-.076a2.2 2.2 0 0 1-.35.49q-.226.252-.601.422-.37.17-.933.17-.755 0-1.368-.353-.61-.358-.971-1.066-.358-.711-.358-1.781 0-1.078.358-1.82.361-.745.975-1.129.615-.387 1.368-.388.576 0 .946.196.375.192.597.465.222.269.337.507h.085v-1.082h1.521v6.652q0 .838-.4 1.389a2.4 2.4 0 0 1-1.096.822q-.694.273-1.576.273m.013-3.895q.49 0 .835-.239.345-.238.524-.686.179-.447.179-1.074 0-.618-.179-1.082-.175-.465-.52-.72-.34-.26-.839-.26-.516 0-.861.268-.346.269-.52.738a3 3 0 0 0-.175 1.056q0 .602.175 1.053.179.447.524.699.349.247.857.247m6.183-2.531v3.835h-1.543v-6.545h1.475v1.112h.076q.227-.55.72-.874.499-.324 1.232-.324.678 0 1.18.29.508.29.784.84.282.55.277 1.333v4.168h-1.542v-3.929q0-.656-.341-1.027-.338-.37-.933-.371-.405 0-.72.179a1.25 1.25 0 0 0-.491.507 1.7 1.7 0 0 0-.174.806"/><rect width="76" height="7.6" x="422.33" y="139.229" fill="#111827" rx="3.8"/></g><rect width="141.719" height="75.219" x="403.191" y="91.591" stroke="#111827" stroke-width=".781" rx="3.409"/></g><g filter="url(#u)" opacity=".5"><g clip-path="url(#v)"><rect width="142.5" height="76" x="104.5" y="173.85" fill="#030712" rx="3.8"/><g clip-path="url(#w)"><path fill="#9ca3af" d="M124.927 207.38v-9.09h3.408q1.049 0 1.758.364a2.5 2.5 0 0 1 1.079 1.02q.368.653.368 1.523 0 .874-.373 1.518a2.46 2.46 0 0 1-1.087.99q-.72.345-1.767.346h-2.428v-1.367h2.206q.613 0 1.003-.169.391-.173.577-.501.192-.334.191-.817 0-.484-.191-.826a1.2 1.2 0 0 0-.581-.523q-.39-.183-1.008-.182h-1.509v7.714zm4.696-4.119 2.25 4.119h-1.838l-2.21-4.119zm6.282 4.252q-1.024 0-1.771-.426a2.9 2.9 0 0 1-1.14-1.216q-.4-.79-.4-1.86 0-1.052.4-1.847a3 3 0 0 1 1.127-1.242q.723-.449 1.7-.449.63 0 1.19.205.564.2.994.621.435.422.684 1.074.248.648.248 1.545v.492h-5.588v-1.083h4.048a1.7 1.7 0 0 0-.2-.821 1.45 1.45 0 0 0-.546-.572 1.54 1.54 0 0 0-.808-.209q-.492 0-.865.24a1.65 1.65 0 0 0-.582.621 1.8 1.8 0 0 0-.208.839v.945q0 .595.217 1.021.218.422.608.648.391.222.915.222.35 0 .634-.097.285-.102.493-.298.209-.195.315-.484l1.5.169a2.33 2.33 0 0 1-.541 1.039 2.6 2.6 0 0 1-1.012.683q-.617.24-1.412.24m9.78-5.149-1.465.16a1.2 1.2 0 0 0-.217-.417 1.1 1.1 0 0 0-.409-.315 1.5 1.5 0 0 0-.63-.12q-.501 0-.843.217-.338.218-.333.564a.59.59 0 0 0 .217.484q.227.186.746.306l1.163.249q.967.208 1.438.661.475.453.479 1.185a1.85 1.85 0 0 1-.377 1.136q-.368.489-1.025.764t-1.509.275q-1.253 0-2.015-.524a2.1 2.1 0 0 1-.91-1.469l1.566-.151q.107.462.453.697t.901.235q.573 0 .919-.235.351-.236.351-.581a.6.6 0 0 0-.227-.484q-.221-.19-.692-.293l-1.163-.244q-.981-.204-1.452-.688-.47-.489-.466-1.234-.005-.63.342-1.092.351-.467.972-.719.626-.258 1.443-.258 1.199 0 1.886.511.693.51.857 1.38m4.49 5.149q-1.026 0-1.771-.426a2.9 2.9 0 0 1-1.141-1.216q-.4-.79-.4-1.86 0-1.052.4-1.847a3 3 0 0 1 1.127-1.242q.724-.449 1.7-.449.63 0 1.19.205.564.2.994.621.435.422.684 1.074.248.648.248 1.545v.492h-5.588v-1.083h4.048a1.7 1.7 0 0 0-.2-.821 1.45 1.45 0 0 0-.546-.572 1.54 1.54 0 0 0-.808-.209q-.492 0-.865.24a1.66 1.66 0 0 0-.582.621 1.8 1.8 0 0 0-.208.839v.945q0 .595.217 1.021.218.422.608.648.391.222.915.222.35 0 .635-.097.284-.102.492-.298.209-.195.315-.484l1.501.169a2.35 2.35 0 0 1-.542 1.039 2.6 2.6 0 0 1-1.012.683q-.617.24-1.411.24m6.352.004a2.8 2.8 0 0 1-1.167-.23 1.9 1.9 0 0 1-.817-.693q-.297-.457-.297-1.127 0-.577.213-.954a1.65 1.65 0 0 1 .581-.604q.37-.227.83-.342a7 7 0 0 1 .964-.173q.599-.062.972-.111.373-.053.541-.16.174-.111.173-.342v-.026q0-.502-.297-.777t-.857-.275q-.59 0-.936.257a1.3 1.3 0 0 0-.462.608l-1.5-.213q.177-.621.586-1.038a2.55 2.55 0 0 1 .998-.631 3.8 3.8 0 0 1 1.305-.213q.494 0 .981.116.488.115.893.381.404.262.648.715.248.453.248 1.132v4.563h-1.545v-.937h-.053a1.94 1.94 0 0 1-1.074.928 2.7 2.7 0 0 1-.928.146m.418-1.18q.483 0 .839-.191.354-.195.545-.515.196-.32.196-.697v-.803a.8.8 0 0 1-.258.115 3 3 0 0 1-.399.093q-.222.04-.44.071l-.377.054q-.36.049-.643.159-.284.111-.449.311a.76.76 0 0 0-.164.506q0 .445.324.67.324.227.826.227m4.798 1.043v-6.818h1.558v1.136h.071q.186-.59.639-.909a1.75 1.75 0 0 1 1.043-.325q.133 0 .297.014.17.009.28.031v1.478a1.7 1.7 0 0 0-.324-.062 3 3 0 0 0-.422-.031q-.44 0-.79.191a1.4 1.4 0 0 0-.546.519 1.47 1.47 0 0 0-.199.768v4.008zm7.649.133q-1.021 0-1.754-.448a3 3 0 0 1-1.123-1.239q-.39-.794-.39-1.828 0-1.04.399-1.834a3 3 0 0 1 1.128-1.242q.732-.449 1.731-.449.83 0 1.469.307.644.301 1.025.856.382.55.435 1.287h-1.535a1.48 1.48 0 0 0-.444-.821q-.346-.333-.928-.333-.492 0-.866.267a1.7 1.7 0 0 0-.581.754q-.204.493-.204 1.181 0 .697.204 1.198.204.498.573.768.373.267.874.267.355 0 .635-.134.283-.137.475-.395.19-.257.262-.625h1.535q-.057.724-.426 1.282-.368.555-1.003.87-.635.31-1.491.311m5.846-4.128v3.995h-1.606v-9.09h1.571v3.431h.08q.24-.577.741-.91.506-.338 1.287-.338.711 0 1.239.298a2 2 0 0 1 .816.87q.294.572.293 1.398v4.341h-1.606v-4.093q0-.687-.356-1.069-.35-.387-.985-.386-.426 0-.763.186a1.3 1.3 0 0 0-.524.528 1.75 1.75 0 0 0-.187.839"/></g></g><rect width="141.719" height="75.219" x="104.891" y="174.241" stroke="#111827" stroke-width=".781" rx="3.409"/></g><g filter="url(#x)" opacity=".5"><g clip-path="url(#y)"><rect width="142.5" height="76" x="253.65" y="173.85" fill="#030712" rx="3.8"/><g clip-path="url(#z)"><path fill="#9ca3af" d="M273.677 199.67v-1.38h7.253v1.38h-2.81v7.71h-1.633v-7.71zm10.61 7.843q-1.026 0-1.772-.426a2.9 2.9 0 0 1-1.14-1.216q-.4-.79-.4-1.86 0-1.052.4-1.847a3 3 0 0 1 1.127-1.242q.724-.449 1.7-.449.63 0 1.19.205.564.2.994.621.435.422.684 1.074.248.648.248 1.545v.492h-5.588v-1.083h4.048a1.7 1.7 0 0 0-.2-.821 1.45 1.45 0 0 0-.546-.572 1.54 1.54 0 0 0-.808-.209q-.492 0-.865.24a1.65 1.65 0 0 0-.582.621 1.8 1.8 0 0 0-.208.839v.945q0 .595.217 1.021.218.422.608.648.392.222.915.222.35 0 .634-.097.285-.102.493-.298.209-.195.315-.484l1.501.169a2.35 2.35 0 0 1-.542 1.039 2.6 2.6 0 0 1-1.012.683q-.617.24-1.411.24m9.779-5.149-1.465.16a1.2 1.2 0 0 0-.217-.417 1.1 1.1 0 0 0-.409-.315 1.5 1.5 0 0 0-.63-.12q-.501 0-.843.217-.338.218-.333.564a.59.59 0 0 0 .217.484q.227.186.746.306l1.163.249q.967.208 1.438.661.475.453.479 1.185a1.85 1.85 0 0 1-.377 1.136q-.368.489-1.025.764t-1.509.275q-1.253 0-2.015-.524a2.1 2.1 0 0 1-.91-1.469l1.566-.151q.106.462.453.697.346.235.901.235.573 0 .919-.235.351-.236.351-.581a.6.6 0 0 0-.227-.484q-.221-.19-.692-.293l-1.163-.244q-.981-.204-1.451-.688-.47-.489-.467-1.234-.004-.63.342-1.092.351-.467.972-.719.626-.258 1.443-.258 1.199 0 1.886.511.692.51.857 1.38m4.876-1.802v1.243h-3.92v-1.243zm-2.952-1.633h1.607v6.4q0 .324.098.497a.52.52 0 0 0 .266.231q.164.063.364.062.15 0 .275-.022.129-.022.195-.04l.271 1.256a3 3 0 0 1-.945.16 2.6 2.6 0 0 1-1.088-.182 1.7 1.7 0 0 1-.768-.63q-.28-.426-.275-1.065zm4.296 8.451v-6.818h1.606v6.818zm.807-7.785a.94.94 0 0 1-.656-.253.82.82 0 0 1-.276-.617q0-.365.276-.617a.93.93 0 0 1 .656-.258q.387 0 .657.258a.8.8 0 0 1 .276.617.82.82 0 0 1-.276.617.93.93 0 0 1-.657.253m4.058 3.79v3.995h-1.606v-6.818h1.535v1.159h.08a1.95 1.95 0 0 1 .75-.91q.52-.338 1.283-.338.707 0 1.23.302.528.302.816.875.294.572.289 1.389v4.341h-1.607v-4.093q0-.683-.355-1.069-.351-.387-.972-.386-.421 0-.75.186a1.3 1.3 0 0 0-.511.528 1.8 1.8 0 0 0-.182.839m8.975 6.694q-.865 0-1.487-.236-.621-.231-.998-.621a2.15 2.15 0 0 1-.524-.866l1.447-.35q.098.2.284.395a1.4 1.4 0 0 0 .502.328q.319.133.803.133.684 0 1.132-.333.448-.327.448-1.083v-1.291h-.08a2.3 2.3 0 0 1-.364.51 1.9 1.9 0 0 1-.626.44q-.385.177-.972.177-.785 0-1.424-.368-.636-.373-1.012-1.11-.373-.74-.373-1.855 0-1.124.373-1.895.377-.777 1.016-1.177a2.6 2.6 0 0 1 1.425-.404q.599 0 .985.205.391.2.622.483.23.28.35.529h.089v-1.128h1.585v6.929q0 .874-.418 1.447a2.5 2.5 0 0 1-1.14.857q-.724.284-1.643.284m.014-4.057q.51 0 .87-.249.358-.249.546-.715.186-.465.186-1.118 0-.644-.186-1.127a1.6 1.6 0 0 0-.542-.751q-.355-.27-.874-.27-.537 0-.897.279-.36.28-.541.768a3.1 3.1 0 0 0-.182 1.101q0 .626.182 1.096.186.467.546.728.363.258.892.258"/></g></g><rect width="141.719" height="75.219" x="254.041" y="174.241" stroke="#111827" stroke-width=".781" rx="3.409"/></g><g filter="url(#A)" opacity=".5"><g clip-path="url(#B)"><rect width="142.5" height="76" x="402.8" y="173.85" fill="#030712" rx="3.8"/><path fill="#9ca3af" d="M426.307 207.38h-3.08v-9.09h3.142q1.354 0 2.326.546a3.65 3.65 0 0 1 1.5 1.557q.524 1.017.524 2.433 0 1.42-.528 2.441a3.65 3.65 0 0 1-1.514 1.567q-.986.546-2.37.546m-1.434-1.425h1.354q.95 0 1.585-.346.635-.351.954-1.043.32-.697.32-1.74t-.32-1.731a2.17 2.17 0 0 0-.945-1.034q-.622-.347-1.545-.347h-1.403zm10.358 1.558q-1.026 0-1.771-.426a2.9 2.9 0 0 1-1.141-1.216q-.399-.79-.399-1.86 0-1.052.399-1.847.404-.798 1.128-1.242.723-.449 1.7-.449.63 0 1.189.205.564.2.994.621.435.422.684 1.074.249.648.249 1.545v.492h-5.589v-1.083h4.048a1.7 1.7 0 0 0-.199-.821 1.47 1.47 0 0 0-.546-.572 1.54 1.54 0 0 0-.808-.209q-.493 0-.866.24a1.66 1.66 0 0 0-.581.621 1.8 1.8 0 0 0-.209.839v.945q0 .595.218 1.021.217.422.608.648.39.222.914.222.351 0 .635-.097.284-.102.493-.298.209-.195.315-.484l1.5.169a2.34 2.34 0 0 1-.542 1.039q-.394.44-1.012.683-.616.24-1.411.24m4.391 2.424v-9.375h1.58v1.128h.093q.125-.249.351-.529.227-.284.612-.483.386-.205.986-.205.79 0 1.425.404.639.4 1.012 1.185.377.781.377 1.918 0 1.123-.368 1.909-.368.785-1.004 1.198a2.6 2.6 0 0 1-1.438.413q-.585 0-.972-.196a2 2 0 0 1-.621-.47 3 3 0 0 1-.36-.528h-.066v3.631zm1.576-5.966q0 .661.186 1.158.19.498.546.777.36.275.87.275.532 0 .892-.284.36-.288.542-.785a3.3 3.3 0 0 0 .186-1.141q0-.635-.182-1.127a1.7 1.7 0 0 0-.541-.773q-.36-.279-.897-.279-.515 0-.874.27-.36.272-.546.759-.183.489-.182 1.15m7.843-5.681v9.09h-1.607v-9.09zm4.626 9.223q-.999 0-1.731-.439a3 3 0 0 1-1.136-1.23q-.4-.79-.4-1.846 0-1.058.4-1.851.404-.795 1.136-1.234.732-.44 1.731-.44t1.731.44 1.132 1.234q.404.793.404 1.851 0 1.056-.404 1.846a2.96 2.96 0 0 1-1.132 1.23q-.732.44-1.731.439m.009-1.287q.542 0 .905-.298.364-.301.542-.807.182-.507.182-1.128a3.3 3.3 0 0 0-.182-1.132 1.8 1.8 0 0 0-.542-.812q-.363-.302-.905-.302-.555 0-.923.302a1.8 1.8 0 0 0-.546.812 3.4 3.4 0 0 0-.178 1.132q0 .621.178 1.128.182.506.546.807.368.298.923.298m5.388 3.711q-.328 0-.608-.054a2.2 2.2 0 0 1-.439-.115l.373-1.252q.35.102.625.098a.77.77 0 0 0 .484-.173q.213-.165.36-.551l.137-.368-2.472-6.96h1.704l1.572 5.149h.071l1.575-5.149h1.709l-2.729 7.643a3.1 3.1 0 0 1-.506.928 2.05 2.05 0 0 1-.773.595q-.453.209-1.083.209m6.203-2.557v-6.818h1.536v1.159h.08q.213-.587.706-.915.492-.333 1.176-.333.693 0 1.167.338.48.333.675.91h.071q.226-.568.763-.906.542-.342 1.283-.342.94 0 1.536.595.595.595.595 1.736v4.576h-1.612v-4.328q0-.635-.337-.927a1.2 1.2 0 0 0-.825-.298q-.582 0-.91.364-.324.36-.324.937v4.252h-1.576v-4.394q0-.53-.32-.844-.315-.315-.825-.315-.346 0-.631.178-.284.173-.452.492-.17.315-.169.737v4.146zm14.236.133q-1.025 0-1.771-.426a2.9 2.9 0 0 1-1.141-1.216q-.399-.79-.399-1.86 0-1.052.399-1.847.404-.798 1.128-1.242.723-.449 1.7-.449.63 0 1.189.205.564.2.995.621.435.422.683 1.074.249.648.249 1.545v.492h-5.589v-1.083h4.048a1.7 1.7 0 0 0-.199-.821 1.45 1.45 0 0 0-.546-.572 1.54 1.54 0 0 0-.808-.209q-.493 0-.866.24a1.66 1.66 0 0 0-.581.621 1.8 1.8 0 0 0-.209.839v.945q0 .595.218 1.021.218.422.608.648.39.222.914.222.351 0 .635-.097.284-.102.493-.298.209-.195.315-.484l1.5.169a2.34 2.34 0 0 1-.541 1.039 2.64 2.64 0 0 1-1.012.683q-.618.24-1.412.24m5.998-4.128v3.995h-1.607v-6.818h1.536v1.159h.08q.235-.573.75-.91.52-.338 1.283-.338.705 0 1.229.302.528.302.817.875.292.572.288 1.389v4.341h-1.607v-4.093q0-.683-.355-1.069-.35-.387-.972-.386-.422 0-.75.186a1.3 1.3 0 0 0-.51.528q-.183.347-.182.839m9.414-2.823v1.243h-3.919v-1.243zm-2.952-1.633h1.607v6.4q0 .324.098.497.102.17.266.231.165.063.364.062.152 0 .275-.022.129-.022.196-.04l.27 1.256q-.128.045-.368.098a3 3 0 0 1-.577.062 2.6 2.6 0 0 1-1.087-.182 1.7 1.7 0 0 1-.768-.63q-.28-.426-.276-1.065z"/></g><rect width="141.719" height="75.219" x="403.191" y="174.241" stroke="#111827" stroke-width=".781" rx="3.409"/></g></g></g><mask id="C" fill="#fff"><path d="M.95.95H96.9v668.8H.95z"/></mask><path fill="#111827" d="M96.9.95h-.781v668.8h1.562V.95z" mask="url(#C)"/><g clip-path="url(#D)"><rect width="24.998" height="24.998" x="7.6" y="8.55" fill="#0a101d" rx="3.125"/><path fill="#9ca3af" d="M16.98 18.876V17.55h6.242v1.325h-2.327v6.275h-1.588v-6.275z"/></g><g clip-path="url(#E)"><g clip-path="url(#F)"><path fill="#9ca3af" d="M42.363 18.444v-1.395h6.57v1.395h-2.449v6.605h-1.671v-6.605zm9.486 6.722q-.926 0-1.594-.375a2.57 2.57 0 0 1-1.023-1.07q-.36-.695-.36-1.645 0-.925.36-1.625.36-.699 1.011-1.09.656-.39 1.54-.39.593 0 1.105.192.516.187.898.566.387.379.602.953.215.57.215 1.336v.457h-5.067v-1.031h3.5q0-.36-.156-.637a1.1 1.1 0 0 0-.434-.434 1.24 1.24 0 0 0-.636-.16q-.38 0-.672.176-.29.172-.453.465-.165.289-.168.644v.98q0 .446.164.77a1.2 1.2 0 0 0 .472.5q.305.177.723.176.277 0 .508-.078t.394-.234q.165-.156.25-.383l1.54.101q-.118.555-.481.97-.36.41-.93.64-.566.225-1.308.226m6.05-.02q-.683 0-1.238-.35-.55-.356-.875-1.044-.32-.69-.32-1.695 0-1.032.332-1.715.332-.687.883-1.027.555-.344 1.215-.344.503 0 .84.172.339.167.546.422.212.249.32.492h.051v-1.008h1.66v6h-1.64v-.96h-.07a2.2 2.2 0 0 1-.332.495 1.65 1.65 0 0 1-.551.403q-.336.16-.82.16m.528-1.323q.402 0 .68-.22.28-.222.43-.62a2.6 2.6 0 0 0 .152-.934q0-.535-.149-.93a1.34 1.34 0 0 0-.43-.609 1.1 1.1 0 0 0-.683-.215 1.08 1.08 0 0 0-.691.223q-.282.222-.426.617a2.7 2.7 0 0 0-.145.914q0 .524.145.926.148.399.425.625.282.222.692.223m4.255 1.226v-6h1.586v1.059h.07q.187-.529.625-.832.437-.305 1.047-.305.617 0 1.05.309.434.304.579.828h.062q.184-.516.664-.824.485-.313 1.145-.313.84 0 1.363.535.528.531.527 1.508v4.035h-1.66v-3.707q0-.5-.265-.75a.93.93 0 0 0-.664-.25q-.453 0-.707.29-.255.284-.254.753v3.664h-1.613v-3.742q0-.442-.254-.703-.25-.262-.66-.262a.9.9 0 0 0-.5.14.97.97 0 0 0-.348.387 1.2 1.2 0 0 0-.13.579v3.601z"/></g></g><g clip-path="url(#G)"><rect width="80.75" height="24.998" x="8.55" y="52.548" fill="#111827" rx="3.125"/><path fill="#4b5563" d="m15.584 65.15 5.469-4.784 5.47 4.787.01 4.914c0 .54-.437.98-.976.98h-1.965a.976.976 0 0 1-.977-.977v-2.156a.78.78 0 0 0-.781-.781H20.27a.78.78 0 0 0-.78.78v2.157c0 .54-.438.976-.977.976h-1.95a.976.976 0 0 1-.977-.976z" opacity=".4"/><path fill="#4b5563" d="M20.531 58.74a.786.786 0 0 1 1.03 0l6.25 5.468a.783.783 0 0 1-1.03 1.177l-5.735-5.02-5.734 5.02a.781.781 0 1 1-1.03-1.177z"/><path fill="#9ca3af" d="M35.92 69.048v-8h2.968q.923 0 1.543.343.625.34.942.938.32.597.32 1.355t-.32 1.356q-.32.594-.95.937-.628.34-1.554.34h-1.98V65.17h1.808q.55 0 .898-.192.352-.19.516-.527a1.7 1.7 0 0 0 .168-.766q0-.433-.168-.765a1.17 1.17 0 0 0-.516-.52q-.352-.187-.91-.187H37.31v6.836zm6.997 0v-6h1.313v.988h.063q.164-.512.566-.793.406-.285.926-.285.246 0 .445.058.2.06.352.16l-.422 1.13a1.2 1.2 0 0 0-.246-.09 1.37 1.37 0 0 0-.984.129q-.301.168-.481.464-.176.293-.176.676v3.563zm6.83.12q-.87 0-1.511-.386a2.63 2.63 0 0 1-.992-1.086q-.352-.695-.352-1.621 0-.934.352-1.633.351-.699.992-1.086.64-.387 1.512-.387.87 0 1.511.387t.992 1.086q.352.699.352 1.633 0 .925-.352 1.621a2.63 2.63 0 0 1-.992 1.086q-.64.387-1.511.387m.005-1.097q.5 0 .828-.27t.488-.722q.165-.457.164-1.012 0-.555-.164-1.012a1.6 1.6 0 0 0-.488-.726q-.33-.274-.828-.274-.5 0-.833.274-.33.27-.496.726-.16.457-.16 1.012t.16 1.012q.165.453.496.723.333.27.833.269m4.069-5.023h1.355v6.355q0 .637-.238 1.055-.238.421-.695.629-.453.21-1.11.21-.07 0-.133-.003h-.14v-1.117h.105q.043.003.094.003.41 0 .586-.203t.176-.59zm.672-.868a.8.8 0 0 1-.563-.218.7.7 0 0 1-.234-.536q0-.308.234-.527a.8.8 0 0 1 .563-.223q.332 0 .566.223a.7.7 0 0 1 .235.527.7.7 0 0 1-.235.536.8.8 0 0 1-.566.218M59.3 69.17q-.902 0-1.554-.38a2.57 2.57 0 0 1-1-1.073q-.348-.696-.348-1.633 0-.927.352-1.625a2.64 2.64 0 0 1 .984-1.094q.633-.395 1.488-.395.543.001 1.031.176.493.176.872.543.378.367.597.942.219.57.219 1.367v.43h-4.883v-.934h3.578q0-.422-.176-.75a1.3 1.3 0 0 0-.492-.516 1.4 1.4 0 0 0-.73-.187q-.45 0-.79.215a1.47 1.47 0 0 0-.519.566 1.64 1.64 0 0 0-.187.762v.793q0 .543.195.93.196.386.547.59.355.202.832.202.312 0 .57-.09a1.2 1.2 0 0 0 .442-.265q.188-.18.285-.441l1.27.164q-.13.51-.477.894a2.36 2.36 0 0 1-.883.598q-.535.21-1.223.21m6.452 0q-.89 0-1.53-.395a2.64 2.64 0 0 1-.981-1.094q-.345-.698-.344-1.605 0-.918.348-1.617.35-.7.988-1.094.64-.395 1.508-.395.722 0 1.277.266.559.262.89.738.337.476.391 1.118H67a1.3 1.3 0 0 0-.399-.727q-.316-.293-.836-.293-.45 0-.785.238a1.55 1.55 0 0 0-.523.684q-.188.441-.188 1.055 0 .624.184 1.074.183.45.52.691.339.243.792.242.317 0 .57-.12.255-.122.426-.348.176-.231.239-.551h1.3a2.3 2.3 0 0 1-.379 1.105q-.32.48-.875.754-.55.274-1.293.274m6.68-6.121v1.054H69.03v-1.054zm-2.548-1.438h1.356v5.645q0 .297.09.453t.238.21.332.055q.133 0 .242-.02l.168-.03.23 1.07q-.109.034-.312.082a2.6 2.6 0 0 1-.5.055 2.25 2.25 0 0 1-.934-.164 1.5 1.5 0 0 1-.668-.547q-.245-.372-.242-.93zm8.353 2.996-1.235.153a1.1 1.1 0 0 0-.191-.376 1 1 0 0 0-.367-.285 1.3 1.3 0 0 0-.567-.109q-.457 0-.765.2-.305.198-.305.519 0 .27.203.437.207.168.672.278l1.004.218q.848.187 1.262.586t.414 1.04q0 .558-.324.988-.325.429-.895.672-.57.242-1.316.242-1.08 0-1.743-.457a1.86 1.86 0 0 1-.796-1.278l1.32-.14a.98.98 0 0 0 .406.625q.313.21.809.21.523 0 .836-.214.315-.214.32-.532a.56.56 0 0 0-.203-.433q-.2-.176-.617-.266l-1.024-.218q-.855-.184-1.265-.61t-.41-1.074q0-.55.3-.957.305-.405.848-.629.543-.227 1.254-.227 1.03 0 1.625.446.597.441.75 1.191"/><path fill="#4b5563" d="M14.8 98.74v1.563c0 .862.7 1.563 1.562 1.563h9.374c.862 0 1.563-.701 1.563-1.563v-1.562c0-.862-.701-1.562-1.563-1.562h-9.374c-.862 0-1.563.7-1.563 1.562m8.983.782a.586.586 0 1 1-1.171 0 .586.586 0 0 1 1.171 0m.586-6.25a.586.586 0 1 0 1.171 0 .586.586 0 0 0-1.171 0m1.367 6.25a.586.586 0 1 1-1.171 0 .586.586 0 0 1 1.171 0" opacity=".4"/><path fill="#4b5563" d="M16.362 90.929c-.862 0-1.563.7-1.563 1.562v1.563c0 .861.701 1.562 1.563 1.562h9.374c.862 0 1.563-.7 1.563-1.562V92.49c0-.862-.701-1.562-1.563-1.562zm6.835 1.757a.586.586 0 1 1 0 1.173.586.586 0 0 1 0-1.172m1.172.586a.586.586 0 1 1 1.172 0 .586.586 0 0 1-1.172 0m.781 6.836a.587.587 0 1 0 0-1.174.587.587 0 0 0 0 1.174"/><g clip-path="url(#H)"><rect width="53.2" height="7.6" x="35.111" y="92.598" fill="#111827" rx="3.8"/></g><path fill="#4b5563" d="M14.8 130.39v1.562c0 .862.7 1.562 1.562 1.562h9.374c.862 0 1.563-.7 1.563-1.562v-1.562c0-.862-.701-1.563-1.563-1.563h-9.374c-.862 0-1.563.701-1.563 1.563m8.983.781a.586.586 0 1 1-1.172 0 .586.586 0 0 1 1.172 0m.586-6.25a.587.587 0 1 0 1.173 0 .587.587 0 0 0-1.173 0m1.367 6.25a.586.586 0 1 1-1.172 0 .586.586 0 0 1 1.172 0" opacity=".4"/><path fill="#4b5563" d="M16.362 122.578c-.862 0-1.563.7-1.563 1.562v1.562c0 .862.701 1.563 1.563 1.563h9.374c.862 0 1.563-.701 1.563-1.563v-1.562c0-.862-.701-1.562-1.563-1.562zm6.835 1.757a.586.586 0 1 1 0 1.172.586.586 0 0 1 0-1.172m1.172.586a.586.586 0 1 1 1.172 0 .586.586 0 0 1-1.172 0m.781 6.836a.586.586 0 1 0 0-1.172.586.586 0 0 0 0 1.172"/><g clip-path="url(#I)"><rect width="53.2" height="7.6" x="35.111" y="124.246" fill="#111827" rx="3.8"/></g><path fill="#4b5563" d="M14.8 162.038v1.562c0 .862.7 1.562 1.562 1.562h9.374c.862 0 1.563-.7 1.563-1.562v-1.562c0-.862-.701-1.563-1.563-1.563h-9.374c-.862 0-1.563.701-1.563 1.563m8.983.781a.586.586 0 1 1-1.172 0 .586.586 0 0 1 1.172 0m.586-6.25a.587.587 0 1 0 1.173 0 .587.587 0 0 0-1.173 0m1.367 6.25a.586.586 0 1 1-1.172 0 .586.586 0 0 1 1.172 0" opacity=".4"/><path fill="#4b5563" d="M16.362 154.226c-.862 0-1.563.7-1.563 1.562v1.562c0 .862.701 1.563 1.563 1.563h9.374c.862 0 1.563-.701 1.563-1.563v-1.562c0-.862-.701-1.562-1.563-1.562zm6.835 1.757a.586.586 0 1 1 0 1.172.586.586 0 0 1 0-1.172m1.172.586a.586.586 0 1 1 1.172 0 .586.586 0 0 1-1.172 0m.781 6.836a.586.586 0 1 0 0-1.172.586.586 0 0 0 0 1.172"/><g clip-path="url(#J)"><rect width="53.2" height="8.55" x="35.111" y="155.419" fill="#111827" rx="3.969"/></g></g></g><defs><clipPath id="c"><path fill="#fff" d="M96.9.95h1027.08V684H96.9z"/></clipPath><clipPath id="d"><path fill="#fff" d="M96.9.95h1027.08v606.212H96.9z"/></clipPath><clipPath id="f"><rect width="142.5" height="76" x="104.5" y="8.55" fill="#fff" rx="3.8"/></clipPath><clipPath id="g"><path fill="#fff" d="M124.03 28.08h77v16h-77z"/></clipPath><clipPath id="i"><rect width="142.5" height="76" x="253.65" y="8.55" fill="#fff" rx="3.125"/></clipPath><clipPath id="k"><rect width="142.5" height="76" x="402.8" y="8.55" fill="#fff" rx="3.125"/></clipPath><clipPath id="l"><path fill="#fff" d="M422.33 28.08h79v16h-79z"/></clipPath><clipPath id="n"><rect width="142.5" height="76" x="104.5" y="91.2" fill="#fff" rx="3.8"/></clipPath><clipPath id="o"><path fill="#fff" d="M124.03 110.73h76v16h-76z"/></clipPath><clipPath id="q"><rect width="142.5" height="76" x="253.65" y="91.2" fill="#fff" rx="3.8"/></clipPath><clipPath id="r"><path fill="#fff" d="M273.18 110.73h78v16h-78z"/></clipPath><clipPath id="t"><rect width="142.5" height="76" x="402.8" y="91.2" fill="#fff" rx="3.8"/></clipPath><clipPath id="v"><rect width="142.5" height="76" x="104.5" y="173.85" fill="#fff" rx="3.8"/></clipPath><clipPath id="w"><path fill="#fff" d="M124.03 193.38h76v19h-76z"/></clipPath><clipPath id="y"><rect width="142.5" height="76" x="253.65" y="173.85" fill="#fff" rx="3.8"/></clipPath><clipPath id="z"><path fill="#fff" d="M273.18 193.38h76v19h-76z"/></clipPath><clipPath id="B"><rect width="142.5" height="76" x="402.8" y="173.85" fill="#fff" rx="3.8"/></clipPath><clipPath id="D"><rect width="24.998" height="24.998" x="7.6" y="8.55" fill="#fff" rx="3.125"/></clipPath><clipPath id="E"><path fill="#fff" d="M41.973 13.05h31v16h-31z"/></clipPath><clipPath id="F"><path fill="#fff" d="M41.973 13.05h31v16h-31z"/></clipPath><clipPath id="G"><path fill="#fff" d="M.95 41.148h127.3V669.75H.95z"/></clipPath><clipPath id="H"><path fill="#fff" d="M35.11 92.598h53.2v7.6h-53.2z"/></clipPath><clipPath id="I"><path fill="#fff" d="M35.11 124.246h53.2v7.6h-53.2z"/></clipPath><clipPath id="J"><path fill="#fff" d="M35.11 155.419h53.2v8.55h-53.2z"/></clipPath><filter id="e" width="150.312" height="83.812" x="100.594" y="7.769" color-interpolation-filters="sRGB" filterUnits="userSpaceOnUse"><feFlood flood-opacity="0" result="BackgroundImageFix"/><feColorMatrix in="SourceAlpha" result="hardAlpha" values="0 0 0 0 0 0 0 0 0 0 0 0 0 0 0 0 0 0 127 0"/><feMorphology in="SourceAlpha" radius="1.562" result="effect1_dropShadow_4008_16362"/><feOffset dy="1.562"/><feGaussianBlur stdDeviation="1.562"/><feComposite in2="hardAlpha" operator="out"/><feColorMatrix values="0 0 0 0 0 0 0 0 0 0 0 0 0 0 0 0 0 0 0.1 0"/><feBlend in2="BackgroundImageFix" result="effect1_dropShadow_4008_16362"/><feColorMatrix in="SourceAlpha" result="hardAlpha" values="0 0 0 0 0 0 0 0 0 0 0 0 0 0 0 0 0 0 127 0"/><feMorphology in="SourceAlpha" radius=".781" result="effect2_dropShadow_4008_16362"/><feOffset dy="3.125"/><feGaussianBlur stdDeviation="2.344"/><feComposite in2="hardAlpha" operator="out"/><feColorMatrix values="0 0 0 0 0 0 0 0 0 0 0 0 0 0 0 0 0 0 0.1 0"/><feBlend in2="effect1_dropShadow_4008_16362" result="effect2_dropShadow_4008_16362"/><feBlend in="SourceGraphic" in2="effect2_dropShadow_4008_16362" result="shape"/></filter><filter id="h" width="150.312" height="83.812" x="249.744" y="7.769" color-interpolation-filters="sRGB" filterUnits="userSpaceOnUse"><feFlood flood-opacity="0" result="BackgroundImageFix"/><feColorMatrix in="SourceAlpha" result="hardAlpha" values="0 0 0 0 0 0 0 0 0 0 0 0 0 0 0 0 0 0 127 0"/><feMorphology in="SourceAlpha" radius="1.562" result="effect1_dropShadow_4008_16362"/><feOffset dy="1.562"/><feGaussianBlur stdDeviation="1.562"/><feComposite in2="hardAlpha" operator="out"/><feColorMatrix values="0 0 0 0 0 0 0 0 0 0 0 0 0 0 0 0 0 0 0.1 0"/><feBlend in2="BackgroundImageFix" result="effect1_dropShadow_4008_16362"/><feColorMatrix in="SourceAlpha" result="hardAlpha" values="0 0 0 0 0 0 0 0 0 0 0 0 0 0 0 0 0 0 127 0"/><feMorphology in="SourceAlpha" radius=".781" result="effect2_dropShadow_4008_16362"/><feOffset dy="3.125"/><feGaussianBlur stdDeviation="2.344"/><feComposite in2="hardAlpha" operator="out"/><feColorMatrix values="0 0 0 0 0 0 0 0 0 0 0 0 0 0 0 0 0 0 0.1 0"/><feBlend in2="effect1_dropShadow_4008_16362" result="effect2_dropShadow_4008_16362"/><feBlend in="SourceGraphic" in2="effect2_dropShadow_4008_16362" result="shape"/></filter><filter id="j" width="150.312" height="83.812" x="398.894" y="7.769" color-interpolation-filters="sRGB" filterUnits="userSpaceOnUse"><feFlood flood-opacity="0" result="BackgroundImageFix"/><feColorMatrix in="SourceAlpha" result="hardAlpha" values="0 0 0 0 0 0 0 0 0 0 0 0 0 0 0 0 0 0 127 0"/><feMorphology in="SourceAlpha" radius="1.562" result="effect1_dropShadow_4008_16362"/><feOffset dy="1.562"/><feGaussianBlur stdDeviation="1.562"/><feComposite in2="hardAlpha" operator="out"/><feColorMatrix values="0 0 0 0 0 0 0 0 0 0 0 0 0 0 0 0 0 0 0.1 0"/><feBlend in2="BackgroundImageFix" result="effect1_dropShadow_4008_16362"/><feColorMatrix in="SourceAlpha" result="hardAlpha" values="0 0 0 0 0 0 0 0 0 0 0 0 0 0 0 0 0 0 127 0"/><feMorphology in="SourceAlpha" radius=".781" result="effect2_dropShadow_4008_16362"/><feOffset dy="3.125"/><feGaussianBlur stdDeviation="2.344"/><feComposite in2="hardAlpha" operator="out"/><feColorMatrix values="0 0 0 0 0 0 0 0 0 0 0 0 0 0 0 0 0 0 0.1 0"/><feBlend in2="effect1_dropShadow_4008_16362" result="effect2_dropShadow_4008_16362"/><feBlend in="SourceGraphic" in2="effect2_dropShadow_4008_16362" result="shape"/></filter><filter id="m" width="150.312" height="83.812" x="100.594" y="90.419" color-interpolation-filters="sRGB" filterUnits="userSpaceOnUse"><feFlood flood-opacity="0" result="BackgroundImageFix"/><feColorMatrix in="SourceAlpha" result="hardAlpha" values="0 0 0 0 0 0 0 0 0 0 0 0 0 0 0 0 0 0 127 0"/><feMorphology in="SourceAlpha" radius="1.562" result="effect1_dropShadow_4008_16362"/><feOffset dy="1.562"/><feGaussianBlur stdDeviation="1.562"/><feComposite in2="hardAlpha" operator="out"/><feColorMatrix values="0 0 0 0 0 0 0 0 0 0 0 0 0 0 0 0 0 0 0.1 0"/><feBlend in2="BackgroundImageFix" result="effect1_dropShadow_4008_16362"/><feColorMatrix in="SourceAlpha" result="hardAlpha" values="0 0 0 0 0 0 0 0 0 0 0 0 0 0 0 0 0 0 127 0"/><feMorphology in="SourceAlpha" radius=".781" result="effect2_dropShadow_4008_16362"/><feOffset dy="3.125"/><feGaussianBlur stdDeviation="2.344"/><feComposite in2="hardAlpha" operator="out"/><feColorMatrix values="0 0 0 0 0 0 0 0 0 0 0 0 0 0 0 0 0 0 0.1 0"/><feBlend in2="effect1_dropShadow_4008_16362" result="effect2_dropShadow_4008_16362"/><feBlend in="SourceGraphic" in2="effect2_dropShadow_4008_16362" result="shape"/></filter><filter id="p" width="150.312" height="83.812" x="249.744" y="90.419" color-interpolation-filters="sRGB" filterUnits="userSpaceOnUse"><feFlood flood-opacity="0" result="BackgroundImageFix"/><feColorMatrix in="SourceAlpha" result="hardAlpha" values="0 0 0 0 0 0 0 0 0 0 0 0 0 0 0 0 0 0 127 0"/><feMorphology in="SourceAlpha" radius="1.562" result="effect1_dropShadow_4008_16362"/><feOffset dy="1.562"/><feGaussianBlur stdDeviation="1.562"/><feComposite in2="hardAlpha" operator="out"/><feColorMatrix values="0 0 0 0 0 0 0 0 0 0 0 0 0 0 0 0 0 0 0.1 0"/><feBlend in2="BackgroundImageFix" result="effect1_dropShadow_4008_16362"/><feColorMatrix in="SourceAlpha" result="hardAlpha" values="0 0 0 0 0 0 0 0 0 0 0 0 0 0 0 0 0 0 127 0"/><feMorphology in="SourceAlpha" radius=".781" result="effect2_dropShadow_4008_16362"/><feOffset dy="3.125"/><feGaussianBlur stdDeviation="2.344"/><feComposite in2="hardAlpha" operator="out"/><feColorMatrix values="0 0 0 0 0 0 0 0 0 0 0 0 0 0 0 0 0 0 0.1 0"/><feBlend in2="effect1_dropShadow_4008_16362" result="effect2_dropShadow_4008_16362"/><feBlend in="SourceGraphic" in2="effect2_dropShadow_4008_16362" result="shape"/></filter><filter id="s" width="150.312" height="83.812" x="398.894" y="90.419" color-interpolation-filters="sRGB" filterUnits="userSpaceOnUse"><feFlood flood-opacity="0" result="BackgroundImageFix"/><feColorMatrix in="SourceAlpha" result="hardAlpha" values="0 0 0 0 0 0 0 0 0 0 0 0 0 0 0 0 0 0 127 0"/><feMorphology in="SourceAlpha" radius="1.562" result="effect1_dropShadow_4008_16362"/><feOffset dy="1.562"/><feGaussianBlur stdDeviation="1.562"/><feComposite in2="hardAlpha" operator="out"/><feColorMatrix values="0 0 0 0 0 0 0 0 0 0 0 0 0 0 0 0 0 0 0.1 0"/><feBlend in2="BackgroundImageFix" result="effect1_dropShadow_4008_16362"/><feColorMatrix in="SourceAlpha" result="hardAlpha" values="0 0 0 0 0 0 0 0 0 0 0 0 0 0 0 0 0 0 127 0"/><feMorphology in="SourceAlpha" radius=".781" result="effect2_dropShadow_4008_16362"/><feOffset dy="3.125"/><feGaussianBlur stdDeviation="2.344"/><feComposite in2="hardAlpha" operator="out"/><feColorMatrix values="0 0 0 0 0 0 0 0 0 0 0 0 0 0 0 0 0 0 0.1 0"/><feBlend in2="effect1_dropShadow_4008_16362" result="effect2_dropShadow_4008_16362"/><feBlend in="SourceGraphic" in2="effect2_dropShadow_4008_16362" result="shape"/></filter><filter id="u" width="150.312" height="83.812" x="100.594" y="173.069" color-interpolation-filters="sRGB" filterUnits="userSpaceOnUse"><feFlood flood-opacity="0" result="BackgroundImageFix"/><feColorMatrix in="SourceAlpha" result="hardAlpha" values="0 0 0 0 0 0 0 0 0 0 0 0 0 0 0 0 0 0 127 0"/><feMorphology in="SourceAlpha" radius="1.562" result="effect1_dropShadow_4008_16362"/><feOffset dy="1.562"/><feGaussianBlur stdDeviation="1.562"/><feComposite in2="hardAlpha" operator="out"/><feColorMatrix values="0 0 0 0 0 0 0 0 0 0 0 0 0 0 0 0 0 0 0.1 0"/><feBlend in2="BackgroundImageFix" result="effect1_dropShadow_4008_16362"/><feColorMatrix in="SourceAlpha" result="hardAlpha" values="0 0 0 0 0 0 0 0 0 0 0 0 0 0 0 0 0 0 127 0"/><feMorphology in="SourceAlpha" radius=".781" result="effect2_dropShadow_4008_16362"/><feOffset dy="3.125"/><feGaussianBlur stdDeviation="2.344"/><feComposite in2="hardAlpha" operator="out"/><feColorMatrix values="0 0 0 0 0 0 0 0 0 0 0 0 0 0 0 0 0 0 0.1 0"/><feBlend in2="effect1_dropShadow_4008_16362" result="effect2_dropShadow_4008_16362"/><feBlend in="SourceGraphic" in2="effect2_dropShadow_4008_16362" result="shape"/></filter><filter id="x" width="150.312" height="83.812" x="249.744" y="173.069" color-interpolation-filters="sRGB" filterUnits="userSpaceOnUse"><feFlood flood-opacity="0" result="BackgroundImageFix"/><feColorMatrix in="SourceAlpha" result="hardAlpha" values="0 0 0 0 0 0 0 0 0 0 0 0 0 0 0 0 0 0 127 0"/><feMorphology in="SourceAlpha" radius="1.562" result="effect1_dropShadow_4008_16362"/><feOffset dy="1.562"/><feGaussianBlur stdDeviation="1.562"/><feComposite in2="hardAlpha" operator="out"/><feColorMatrix values="0 0 0 0 0 0 0 0 0 0 0 0 0 0 0 0 0 0 0.1 0"/><feBlend in2="BackgroundImageFix" result="effect1_dropShadow_4008_16362"/><feColorMatrix in="SourceAlpha" result="hardAlpha" values="0 0 0 0 0 0 0 0 0 0 0 0 0 0 0 0 0 0 127 0"/><feMorphology in="SourceAlpha" radius=".781" result="effect2_dropShadow_4008_16362"/><feOffset dy="3.125"/><feGaussianBlur stdDeviation="2.344"/><feComposite in2="hardAlpha" operator="out"/><feColorMatrix values="0 0 0 0 0 0 0 0 0 0 0 0 0 0 0 0 0 0 0.1 0"/><feBlend in2="effect1_dropShadow_4008_16362" result="effect2_dropShadow_4008_16362"/><feBlend in="SourceGraphic" in2="effect2_dropShadow_4008_16362" result="shape"/></filter><filter id="A" width="150.312" height="83.812" x="398.894" y="173.069" color-interpolation-filters="sRGB" filterUnits="userSpaceOnUse"><feFlood flood-opacity="0" result="BackgroundImageFix"/><feColorMatrix in="SourceAlpha" result="hardAlpha" values="0 0 0 0 0 0 0 0 0 0 0 0 0 0 0 0 0 0 127 0"/><feMorphology in="SourceAlpha" radius="1.562" result="effect1_dropShadow_4008_16362"/><feOffset dy="1.562"/><feGaussianBlur stdDeviation="1.562"/><feComposite in2="hardAlpha" operator="out"/><feColorMatrix values="0 0 0 0 0 0 0 0 0 0 0 0 0 0 0 0 0 0 0.1 0"/><feBlend in2="BackgroundImageFix" result="effect1_dropShadow_4008_16362"/><feColorMatrix in="SourceAlpha" result="hardAlpha" values="0 0 0 0 0 0 0 0 0 0 0 0 0 0 0 0 0 0 127 0"/><feMorphology in="SourceAlpha" radius=".781" result="effect2_dropShadow_4008_16362"/><feOffset dy="3.125"/><feGaussianBlur stdDeviation="2.344"/><feComposite in2="hardAlpha" operator="out"/><feColorMatrix values="0 0 0 0 0 0 0 0 0 0 0 0 0 0 0 0 0 0 0.1 0"/><feBlend in2="effect1_dropShadow_4008_16362" result="effect2_dropShadow_4008_16362"/><feBlend in="SourceGraphic" in2="effect2_dropShadow_4008_16362" result="shape"/></filter><linearGradient id="a" x1="280" x2="280" y1="117.785" y2="205" gradientUnits="userSpaceOnUse"><stop stop-color="#fff"/><stop offset="1"/></linearGradient></defs></svg>