<svg xmlns="http://www.w3.org/2000/svg" width="1440" height="341" fill="none" viewBox="0 0 1440 341"><g clip-path="url(#a)" opacity=".5"><path fill="url(#paint0_radial_4008_16891)" d="M0 0h1440v341H0z"/><mask id="c" width="1440" height="341" x="0" y="0" maskUnits="userSpaceOnUse" style="mask-type:alpha"><path fill="url(#b)" d="M0 0h1440v341H0z"/></mask><g stroke="#2dd4bf" stroke-width=".5" mask="url(#c)" opacity=".1"><path d="M-29.75.25h49.5v49.5h-49.5zm50 0h49.5v49.5h-49.5zm50 0h49.5v49.5h-49.5zm50 0h49.5v49.5h-49.5zm50 0h49.5v49.5h-49.5zm50 0h49.5v49.5h-49.5zm50 0h49.5v49.5h-49.5zm50 0h49.5v49.5h-49.5zm50 0h49.5v49.5h-49.5zm50 0h49.5v49.5h-49.5zm50 0h49.5v49.5h-49.5zm50 0h49.5v49.5h-49.5zm50 0h49.5v49.5h-49.5zm50 0h49.5v49.5h-49.5zm50 0h49.5v49.5h-49.5zm50 0h49.5v49.5h-49.5zm50 0h49.5v49.5h-49.5zm50 0h49.5v49.5h-49.5zm50 0h49.5v49.5h-49.5zm50 0h49.5v49.5h-49.5zm50 0h49.5v49.5h-49.5zm50 0h49.5v49.5h-49.5zm50 0h49.5v49.5h-49.5zm50 0h49.5v49.5h-49.5zm50 0h49.5v49.5h-49.5zm50 0h49.5v49.5h-49.5zm50 0h49.5v49.5h-49.5zm50 0h49.5v49.5h-49.5zm50 0h49.5v49.5h-49.5zm50 0h49.5v49.5h-49.5zm-1450 50h49.5v49.5h-49.5zm50 0h49.5v49.5h-49.5zm50 0h49.5v49.5h-49.5zm50 0h49.5v49.5h-49.5zm50 0h49.5v49.5h-49.5zm50 0h49.5v49.5h-49.5zm50 0h49.5v49.5h-49.5zm50 0h49.5v49.5h-49.5zm50 0h49.5v49.5h-49.5zm50 0h49.5v49.5h-49.5zm50 0h49.5v49.5h-49.5zm50 0h49.5v49.5h-49.5zm50 0h49.5v49.5h-49.5zm50 0h49.5v49.5h-49.5zm50 0h49.5v49.5h-49.5zm50 0h49.5v49.5h-49.5zm50 0h49.5v49.5h-49.5zm50 0h49.5v49.5h-49.5zm50 0h49.5v49.5h-49.5zm50 0h49.5v49.5h-49.5zm50 0h49.5v49.5h-49.5zm50 0h49.5v49.5h-49.5zm50 0h49.5v49.5h-49.5zm50 0h49.5v49.5h-49.5zm50 0h49.5v49.5h-49.5zm50 0h49.5v49.5h-49.5zm50 0h49.5v49.5h-49.5zm50 0h49.5v49.5h-49.5zm50 0h49.5v49.5h-49.5zm50 0h49.5v49.5h-49.5zm-1450 50h49.5v49.5h-49.5zm50 0h49.5v49.5h-49.5zm50 0h49.5v49.5h-49.5zm50 0h49.5v49.5h-49.5zm50 0h49.5v49.5h-49.5zm50 0h49.5v49.5h-49.5zm50 0h49.5v49.5h-49.5zm50 0h49.5v49.5h-49.5zm50 0h49.5v49.5h-49.5zm50 0h49.5v49.5h-49.5zm50 0h49.5v49.5h-49.5zm50 0h49.5v49.5h-49.5zm50 0h49.5v49.5h-49.5zm50 0h49.5v49.5h-49.5zm50 0h49.5v49.5h-49.5zm50 0h49.5v49.5h-49.5zm50 0h49.5v49.5h-49.5zm50 0h49.5v49.5h-49.5zm50 0h49.5v49.5h-49.5zm50 0h49.5v49.5h-49.5zm50 0h49.5v49.5h-49.5zm50 0h49.5v49.5h-49.5zm50 0h49.5v49.5h-49.5zm50 0h49.5v49.5h-49.5zm50 0h49.5v49.5h-49.5zm50 0h49.5v49.5h-49.5zm50 0h49.5v49.5h-49.5zm50 0h49.5v49.5h-49.5zm50 0h49.5v49.5h-49.5zm50 0h49.5v49.5h-49.5zm-1450 50h49.5v49.5h-49.5zm50 0h49.5v49.5h-49.5zm50 0h49.5v49.5h-49.5zm50 0h49.5v49.5h-49.5zm50 0h49.5v49.5h-49.5zm50 0h49.5v49.5h-49.5zm50 0h49.5v49.5h-49.5zm50 0h49.5v49.5h-49.5zm50 0h49.5v49.5h-49.5zm50 0h49.5v49.5h-49.5zm50 0h49.5v49.5h-49.5zm50 0h49.5v49.5h-49.5zm50 0h49.5v49.5h-49.5zm50 0h49.5v49.5h-49.5zm50 0h49.5v49.5h-49.5zm50 0h49.5v49.5h-49.5zm50 0h49.5v49.5h-49.5zm50 0h49.5v49.5h-49.5zm50 0h49.5v49.5h-49.5zm50 0h49.5v49.5h-49.5zm50 0h49.5v49.5h-49.5zm50 0h49.5v49.5h-49.5zm50 0h49.5v49.5h-49.5zm50 0h49.5v49.5h-49.5zm50 0h49.5v49.5h-49.5zm50 0h49.5v49.5h-49.5zm50 0h49.5v49.5h-49.5zm50 0h49.5v49.5h-49.5zm50 0h49.5v49.5h-49.5zm50 0h49.5v49.5h-49.5zm-1450 50h49.5v49.5h-49.5zm50 0h49.5v49.5h-49.5zm50 0h49.5v49.5h-49.5zm50 0h49.5v49.5h-49.5zm50 0h49.5v49.5h-49.5zm50 0h49.5v49.5h-49.5zm50 0h49.5v49.5h-49.5zm50 0h49.5v49.5h-49.5zm50 0h49.5v49.5h-49.5zm50 0h49.5v49.5h-49.5zm50 0h49.5v49.5h-49.5zm50 0h49.5v49.5h-49.5zm50 0h49.5v49.5h-49.5zm50 0h49.5v49.5h-49.5zm50 0h49.5v49.5h-49.5zm50 0h49.5v49.5h-49.5zm50 0h49.5v49.5h-49.5zm50 0h49.5v49.5h-49.5zm50 0h49.5v49.5h-49.5zm50 0h49.5v49.5h-49.5zm50 0h49.5v49.5h-49.5zm50 0h49.5v49.5h-49.5zm50 0h49.5v49.5h-49.5zm50 0h49.5v49.5h-49.5zm50 0h49.5v49.5h-49.5zm50 0h49.5v49.5h-49.5zm50 0h49.5v49.5h-49.5zm50 0h49.5v49.5h-49.5zm50 0h49.5v49.5h-49.5zm50 0h49.5v49.5h-49.5zm-1450 50h49.5v49.5h-49.5zm50 0h49.5v49.5h-49.5zm50 0h49.5v49.5h-49.5zm50 0h49.5v49.5h-49.5zm50 0h49.5v49.5h-49.5zm50 0h49.5v49.5h-49.5zm50 0h49.5v49.5h-49.5zm50 0h49.5v49.5h-49.5zm50 0h49.5v49.5h-49.5zm50 0h49.5v49.5h-49.5zm50 0h49.5v49.5h-49.5zm50 0h49.5v49.5h-49.5zm50 0h49.5v49.5h-49.5zm50 0h49.5v49.5h-49.5zm50 0h49.5v49.5h-49.5zm50 0h49.5v49.5h-49.5zm50 0h49.5v49.5h-49.5zm50 0h49.5v49.5h-49.5zm50 0h49.5v49.5h-49.5zm50 0h49.5v49.5h-49.5zm50 0h49.5v49.5h-49.5zm50 0h49.5v49.5h-49.5zm50 0h49.5v49.5h-49.5zm50 0h49.5v49.5h-49.5zm50 0h49.5v49.5h-49.5zm50 0h49.5v49.5h-49.5zm50 0h49.5v49.5h-49.5zm50 0h49.5v49.5h-49.5zm50 0h49.5v49.5h-49.5zm50 0h49.5v49.5h-49.5zm-1450 50h49.5v49.5h-49.5zm50 0h49.5v49.5h-49.5zm50 0h49.5v49.5h-49.5zm50 0h49.5v49.5h-49.5zm50 0h49.5v49.5h-49.5zm50 0h49.5v49.5h-49.5zm50 0h49.5v49.5h-49.5zm50 0h49.5v49.5h-49.5zm50 0h49.5v49.5h-49.5zm50 0h49.5v49.5h-49.5zm50 0h49.5v49.5h-49.5zm50 0h49.5v49.5h-49.5zm50 0h49.5v49.5h-49.5zm50 0h49.5v49.5h-49.5zm50 0h49.5v49.5h-49.5zm50 0h49.5v49.5h-49.5zm50 0h49.5v49.5h-49.5zm50 0h49.5v49.5h-49.5zm50 0h49.5v49.5h-49.5zm50 0h49.5v49.5h-49.5zm50 0h49.5v49.5h-49.5zm50 0h49.5v49.5h-49.5zm50 0h49.5v49.5h-49.5zm50 0h49.5v49.5h-49.5zm50 0h49.5v49.5h-49.5zm50 0h49.5v49.5h-49.5zm50 0h49.5v49.5h-49.5zm50 0h49.5v49.5h-49.5zm50 0h49.5v49.5h-49.5zm50 0h49.5v49.5h-49.5z"/></g></g><defs><radialGradient id="b" cx="0" cy="0" r="1" gradientTransform="matrix(0 284.281 -1200.48 0 720 170.5)" gradientUnits="userSpaceOnUse"><stop stop-color="#030712"/><stop offset=".769" stop-color="#030712" stop-opacity=".5"/></radialGradient><clipPath id="a"><path fill="#fff" d="M0 0h1440v341H0z"/></clipPath></defs></svg>