<svg xmlns="http://www.w3.org/2000/svg" width="359" height="188" fill="none" viewBox="0 0 359 188"><rect width="343" height="150" x="8.5" y=".5" fill="#111827" rx="7.216"/><rect width="343" height="150" x="8.5" y=".5" stroke="#111827" rx="7.216"/><g opacity=".78"><path fill="#9ca3af" d="M18 9.959c.344 0 .672.203.86.5.171.312.171.703 0 1a1.01 1.01 0 0 1-.86.5c-.36 0-.687-.188-.875-.5a1.03 1.03 0 0 1 0-1c.188-.297.516-.5.875-.5m1.875.625h4.75a.38.38 0 0 1 .375.375.37.37 0 0 1-.375.375h-4.75a.36.36 0 0 1-.375-.375.37.37 0 0 1 .375-.375m0 2.5h4.75a.38.38 0 0 1 .375.375.37.37 0 0 1-.375.375h-4.75a.36.36 0 0 1-.375-.375.37.37 0 0 1 .375-.375m0 2.5h4.75a.38.38 0 0 1 .375.375.37.37 0 0 1-.375.375h-4.75a.36.36 0 0 1-.375-.375.37.37 0 0 1 .375-.375M18 13.834a.37.37 0 0 0 .375-.375.38.38 0 0 0-.375-.375.37.37 0 0 0-.375.375c0 .218.156.375.375.375m0-1.375c.344 0 .672.203.86.5.171.312.171.703 0 1a1.01 1.01 0 0 1-.86.5c-.36 0-.687-.188-.875-.5a1.03 1.03 0 0 1 0-1c.188-.297.516-.5.875-.5m-.375 3.5c0 .218.156.375.375.375a.37.37 0 0 0 .375-.375.38.38 0 0 0-.375-.375.37.37 0 0 0-.375.375m1.375 0c0 .359-.203.687-.5.875a1.03 1.03 0 0 1-1 0 1.02 1.02 0 0 1-.5-.875c0-.344.188-.672.5-.86a1.03 1.03 0 0 1 1 0c.297.188.5.516.5.86"/><path fill="#9ca3af" d="M29.483 10.467v-.781h5.454v.781h-2.286v6.492h-.881v-6.492zm8.125 6.605q-.738 0-1.296-.351a2.4 2.4 0 0 1-.867-.984q-.309-.632-.309-1.477 0-.854.31-1.488.312-.636.866-.988.557-.351 1.296-.351.738 0 1.293.351.557.352.866.988.313.635.313 1.488 0 .845-.313 1.477-.31.632-.866.984-.554.351-1.293.351m0-.753q.561 0 .923-.287.362-.288.537-.757.174-.468.174-1.015t-.174-1.02a1.7 1.7 0 0 0-.537-.763q-.362-.291-.923-.291t-.923.291-.537.764a2.9 2.9 0 0 0-.174 1.019q0 .547.174 1.015.174.47.537.757.362.287.923.287m6.876-2.869v.781h-3.182v-.781zm3.534 3.622q-.682 0-1.204-.344a2.33 2.33 0 0 1-.816-.98q-.295-.636-.295-1.503 0-.859.294-1.491a2.3 2.3 0 0 1 .82-.977q.526-.344 1.215-.344.533 0 .842.178.312.173.476.397.166.22.259.362h.071V9.686h.838v7.273h-.81v-.839h-.099q-.093.15-.263.377-.17.224-.486.401-.317.174-.842.174m.114-.753q.504 0 .852-.262.347-.267.53-.736a3 3 0 0 0 .18-1.09q0-.61-.177-1.069a1.56 1.56 0 0 0-.526-.717q-.347-.26-.86-.26-.531 0-.887.274-.35.27-.53.735a2.9 2.9 0 0 0-.173 1.037q0 .583.177 1.059.182.471.533.752.355.277.88.277m6.253.753q-.738 0-1.296-.351a2.4 2.4 0 0 1-.866-.984q-.31-.632-.31-1.477 0-.854.31-1.488.312-.636.866-.988.558-.351 1.296-.351.74 0 1.293.351.557.352.866.988.313.635.313 1.488 0 .845-.313 1.477-.309.632-.866.984-.554.351-1.293.351m0-.753q.561 0 .924-.287.362-.288.536-.757.174-.468.174-1.015t-.174-1.02a1.7 1.7 0 0 0-.536-.763q-.363-.291-.924-.291-.56 0-.923.291-.362.291-.536.764a2.9 2.9 0 0 0-.174 1.019q0 .547.174 1.015.173.47.536.757.362.287.923.287M62 12.726l-.753.213a1.4 1.4 0 0 0-.21-.366q-.135-.18-.369-.299a1.34 1.34 0 0 0-.6-.117q-.501 0-.834.231-.33.228-.33.579 0 .312.226.494.228.18.71.301l.81.2q.733.177 1.09.543.36.361.36.934 0 .468-.27.838a1.8 1.8 0 0 1-.746.582q-.48.213-1.115.213-.835 0-1.382-.362-.546-.363-.692-1.058l.795-.2q.114.442.43.661.32.22.834.22.587 0 .93-.248.35-.252.349-.604a.63.63 0 0 0-.2-.476q-.198-.195-.61-.29l-.909-.214q-.75-.178-1.1-.55-.35-.377-.349-.941 0-.462.26-.817.262-.356.713-.558a2.5 2.5 0 0 1 1.03-.202q.81 0 1.271.355.465.356.66.938" opacity=".7"/><path fill="#4b5563" d="M71.026 17.058q-.625 0-1.126-.249a2.1 2.1 0 0 1-.803-.681 1.86 1.86 0 0 1-.33-.988h.852q.05.495.448.817.4.32.959.32.447 0 .795-.21.351-.21.55-.575.203-.37.203-.835 0-.476-.21-.848a1.54 1.54 0 0 0-.568-.593 1.6 1.6 0 0 0-.827-.22 2.3 2.3 0 0 0-.686.102 1.9 1.9 0 0 0-.579.267l-.823-.1.44-3.58h3.778v.782h-3.04l-.255 2.145h.043q.224-.178.56-.295.338-.117.704-.117.667 0 1.19.32.525.316.823.866.302.55.302 1.257 0 .696-.312 1.243-.309.543-.853.86a2.43 2.43 0 0 1-1.235.312" opacity=".9"/></g><path fill="#4b5563" d="M17 32.18a5 5 0 0 1 2.518-4.347 5.01 5.01 0 0 1 5.037 0 5.04 5.04 0 0 1 2.519 4.348c0 1.81-.964 3.463-2.519 4.368a5.01 5.01 0 0 1-5.036 0A5.01 5.01 0 0 1 17 32.18m5.529 2.539 2.203-2.204a.487.487 0 0 0 0-.669l-2.203-2.184c-.197-.196-.492-.196-.67 0a.43.43 0 0 0 0 .65l1.398 1.397h-3.581a.466.466 0 0 0-.472.472c0 .275.196.472.472.472l3.58.02-1.396 1.397a.43.43 0 0 0 0 .649c.177.197.472.197.669 0"/><rect width="99" height="6" x="36" y="29.459" fill="#4b5563" rx="3"/><path fill="#374151" d="M26.13 53.18c0-1.455-.788-2.793-2.047-3.54a4.11 4.11 0 0 0-4.092 0 4.09 4.09 0 0 0-2.047 3.54c0 1.477.768 2.814 2.047 3.562a4.11 4.11 0 0 0 4.092 0 4.14 4.14 0 0 0 2.046-3.561m-9.13 0a5 5 0 0 1 2.518-4.347 5.01 5.01 0 0 1 5.037 0 5.04 5.04 0 0 1 2.519 4.348c0 1.81-.964 3.463-2.519 4.368a5.01 5.01 0 0 1-5.036 0A5.01 5.01 0 0 1 17 53.18"/><rect width="174" height="6" x="36" y="50.459" fill="#374151" rx="3"/><g fill="#374151" opacity=".58"><path d="M26.13 74.18c0-1.455-.788-2.793-2.047-3.54a4.11 4.11 0 0 0-4.092 0 4.09 4.09 0 0 0-2.047 3.54c0 1.476.768 2.814 2.047 3.562a4.11 4.11 0 0 0 4.092 0 4.14 4.14 0 0 0 2.046-3.561m-9.13 0a5 5 0 0 1 2.518-4.347 5.01 5.01 0 0 1 5.037 0 5.04 5.04 0 0 1 2.519 4.348c0 1.81-.964 3.463-2.519 4.368a5.01 5.01 0 0 1-5.036 0A5.01 5.01 0 0 1 17 74.18"/><rect width="118" height="6" x="36" y="71.459" rx="3"/></g><g fill="#374151" opacity=".4"><path d="M26.13 95.18c0-1.455-.788-2.793-2.047-3.54a4.11 4.11 0 0 0-4.092 0 4.09 4.09 0 0 0-2.047 3.54c0 1.476.768 2.814 2.047 3.562a4.11 4.11 0 0 0 4.092 0 4.14 4.14 0 0 0 2.046-3.561m-9.13 0a5 5 0 0 1 2.518-4.347 5.01 5.01 0 0 1 5.037 0 5.04 5.04 0 0 1 2.519 4.348c0 1.81-.964 3.463-2.519 4.368a5.01 5.01 0 0 1-5.036 0A5.01 5.01 0 0 1 17 95.18"/><rect width="99" height="6" x="36" y="92.459" rx="3"/></g><g fill="#374151" opacity=".4"><path d="M26.13 116.181c0-1.456-.788-2.794-2.047-3.542a4.09 4.09 0 0 0-6.139 3.542c0 1.475.768 2.813 2.047 3.561a4.11 4.11 0 0 0 4.092 0 4.14 4.14 0 0 0 2.046-3.561m-9.13 0a5 5 0 0 1 2.518-4.349 5.01 5.01 0 0 1 5.037 0 5.04 5.04 0 0 1 2.519 4.349c0 1.81-.964 3.463-2.519 4.368a5.01 5.01 0 0 1-5.036 0A5.01 5.01 0 0 1 17 116.181"/><rect width="79" height="6" x="36" y="113.458" rx="3"/><rect width="101" height="6" x="123" y="113.458" rx="3"/></g><g opacity=".4"><path fill="#4b5563" d="M26.13 137.181c0-1.456-.788-2.794-2.047-3.542a4.09 4.09 0 0 0-6.139 3.542c0 1.475.768 2.813 2.047 3.561a4.11 4.11 0 0 0 4.092 0 4.14 4.14 0 0 0 2.046-3.561m-9.13 0a5 5 0 0 1 2.518-4.349 5.01 5.01 0 0 1 5.037 0 5.04 5.04 0 0 1 2.519 4.349c0 1.81-.964 3.463-2.519 4.368a5.01 5.01 0 0 1-5.036 0A5.01 5.01 0 0 1 17 137.181"/><rect width="99" height="6" x="36" y="134.458" fill="#374151" rx="3"/></g><rect width="358" height="71.143" x=".5" y="116.3" fill="#030712" rx="7.216"/><rect width="358" height="71.143" x=".5" y="116.3" stroke="#14b8a6" rx="7.216"/><path fill="#f9fafb" d="M21.037 134.896a1.32 1.32 0 0 0-.615-.995q-.54-.354-1.324-.354-.573 0-1.003.186a1.6 1.6 0 0 0-.666.509 1.23 1.23 0 0 0-.236.738q0 .345.165.594.168.244.43.409.26.16.547.266.288.1.527.164l.877.236q.338.088.75.244.417.156.797.426.383.266.632.683.248.417.248 1.024 0 .7-.366 1.264-.363.565-1.062.898-.696.333-1.69.333-.927 0-1.606-.299-.674-.3-1.062-.835a2.4 2.4 0 0 1-.434-1.243h1.079q.042.488.329.809.29.316.733.472.447.152.96.152.6 0 1.075-.194.477-.198.755-.548.278-.354.278-.826 0-.43-.24-.7a1.8 1.8 0 0 0-.632-.438 7 7 0 0 0-.848-.295l-1.062-.303q-1.011-.291-1.601-.831-.59-.539-.59-1.411 0-.726.392-1.265a2.6 2.6 0 0 1 1.062-.843 3.6 3.6 0 0 1 1.496-.303q.834 0 1.483.299.65.296 1.029.809.384.514.404 1.168zm5.19 6.608q-.936 0-1.614-.413a2.77 2.77 0 0 1-1.041-1.163q-.363-.75-.363-1.745t.363-1.753a2.86 2.86 0 0 1 1.02-1.189q.657-.43 1.534-.43.506 0 .998.169.494.168.898.548.405.375.645.994.24.62.24 1.526v.422h-4.99v-.86h3.979q0-.548-.22-.978a1.64 1.64 0 0 0-.615-.678 1.7 1.7 0 0 0-.935-.249q-.595 0-1.029.295a1.95 1.95 0 0 0-.661.758 2.2 2.2 0 0 0-.232 1.004v.573q0 .733.253 1.243.257.506.712.771.455.261 1.058.261.391 0 .708-.109.32-.114.552-.337.232-.228.358-.565l.961.27a2.1 2.1 0 0 1-.51.859 2.5 2.5 0 0 1-.885.574 3.3 3.3 0 0 1-1.184.202m6.771-6.608v.843h-3.355v-.843zm-2.377-1.551h.995v6.17q0 .421.122.632.126.207.32.278.198.067.417.067.165 0 .27-.016l.169-.034.202.893a2 2 0 0 1-.282.076q-.181.042-.46.042-.42 0-.826-.181a1.64 1.64 0 0 1-.666-.552q-.261-.37-.261-.936zm10.816 5.377v-3.826h.994v6.473h-.994v-1.096h-.068a2.1 2.1 0 0 1-.708.839q-.48.342-1.213.341-.608 0-1.08-.265a1.86 1.86 0 0 1-.741-.809q-.27-.544-.27-1.37v-4.113h.995v4.046q0 .708.396 1.129.4.421 1.02.421.371 0 .754-.189.388-.19.65-.582.264-.392.265-.999m2.579 5.075v-8.901h.96v1.028h.119a9 9 0 0 1 .303-.43q.198-.265.565-.472.37-.21 1.003-.211.817 0 1.441.409.623.41.974 1.159.35.75.35 1.77 0 1.029-.35 1.783-.35.75-.97 1.163-.62.41-1.428.409-.624 0-1-.207a1.8 1.8 0 0 1-.576-.476 6 6 0 0 1-.312-.447h-.085v3.423zm.977-5.665q0 .734.215 1.294.216.557.628.873.414.311 1.012.311.624 0 1.04-.328.422-.333.633-.894.215-.564.215-1.256 0-.683-.21-1.23a1.9 1.9 0 0 0-.629-.873q-.417-.324-1.05-.324-.606 0-1.02.308a1.85 1.85 0 0 0-.623.851q-.21.543-.21 1.268m11.023 3.389q-.616 0-1.117-.232a1.9 1.9 0 0 1-.797-.679q-.294-.446-.295-1.078 0-.557.22-.902.218-.35.585-.548t.81-.295q.446-.102.897-.16.59-.077.957-.114.37-.042.54-.139t.172-.337v-.034q0-.624-.341-.969-.337-.346-1.024-.346-.712 0-1.117.312t-.57.666l-.943-.337q.252-.59.674-.919.426-.333.927-.464.506-.135.995-.135.312 0 .716.076.41.072.788.3.384.227.637.686.252.46.253 1.231v4.265h-.995v-.877h-.05q-.102.211-.338.451a1.9 1.9 0 0 1-.628.409q-.391.17-.956.169m.151-.894q.59 0 .995-.231a1.58 1.58 0 0 0 .826-1.37v-.91q-.063.075-.278.139a5 5 0 0 1-.489.105q-.274.042-.535.076l-.417.05a4 4 0 0 0-.725.165 1.25 1.25 0 0 0-.54.333q-.202.219-.202.598 0 .519.383.784.388.261.982.261m7.629.742v-8.631h2.916q1.016 0 1.66.367.65.362.962.982.312.619.312 1.382t-.312 1.386a2.3 2.3 0 0 1-.953.995q-.645.367-1.652.367h-2.09v-.927h2.057q.694 0 1.116-.241.422-.24.612-.649.193-.413.193-.931 0-.519-.194-.927a1.4 1.4 0 0 0-.615-.641q-.425-.236-1.13-.236h-1.837v7.704zm7.161 0v-6.473h.961v.977h.067q.177-.48.641-.779t1.045-.299a10 10 0 0 1 .523.016v1.012a3 3 0 0 0-.232-.038 2 2 0 0 0-.375-.03 1.75 1.75 0 0 0-.843.199 1.5 1.5 0 0 0-.582.539q-.21.341-.21.78v4.096zm4.178 0v-6.473h.995v6.473zm.506-7.552a.7.7 0 0 1-.501-.198.64.64 0 0 1-.207-.476q0-.279.207-.477a.7.7 0 0 1 .501-.198q.291 0 .497.198.21.198.211.477a.63.63 0 0 1-.21.476.7.7 0 0 1-.498.198m6.659 2.528-.894.253a1.7 1.7 0 0 0-.249-.434 1.2 1.2 0 0 0-.438-.354q-.278-.139-.712-.139-.594 0-.99.274-.392.27-.392.687 0 .371.27.586t.842.358l.961.236q.868.212 1.294.645.426.43.426 1.108 0 .557-.32.995-.316.438-.886.691-.569.253-1.323.253-.99 0-1.64-.43-.648-.43-.821-1.256l.944-.236q.135.523.51.784.38.261.99.261.696 0 1.104-.295.413-.299.413-.716a.75.75 0 0 0-.236-.565q-.236-.232-.725-.345l-1.078-.253q-.89-.212-1.307-.654-.413-.446-.413-1.116 0-.549.308-.97.312-.421.847-.661a3 3 0 0 1 1.222-.241q.96 0 1.509.422.552.422.784 1.112m1.377 5.024v-6.473h.961v1.011h.085q.202-.518.653-.805.45-.291 1.083-.291.64 0 1.066.291.43.287.67.805h.068q.248-.501.746-.796.497-.3 1.192-.3.87 0 1.42.544.553.54.553 1.682v4.332h-.995v-4.332q0-.717-.392-1.024a1.45 1.45 0 0 0-.923-.308q-.683 0-1.058.413-.375.408-.375 1.037v4.214H87.42v-4.434q0-.552-.358-.889-.36-.34-.923-.341-.388 0-.725.206a1.56 1.56 0 0 0-.54.574 1.7 1.7 0 0 0-.202.838v4.046zm11.983.152q-.615 0-1.117-.232a1.9 1.9 0 0 1-.797-.679q-.294-.446-.294-1.078 0-.557.219-.902.219-.35.585-.548a3 3 0 0 1 .81-.295q.446-.102.897-.16.591-.077.957-.114.37-.042.54-.139.172-.097.172-.337v-.034q0-.624-.341-.969-.337-.346-1.024-.346-.712 0-1.117.312t-.57.666l-.943-.337q.252-.59.674-.919.426-.333.927-.464.507-.135.995-.135.312 0 .716.076.41.072.789.3.382.227.636.686.253.46.253 1.231v4.265h-.995v-.877h-.05a1.7 1.7 0 0 1-.337.451 1.9 1.9 0 0 1-.629.409q-.391.17-.956.169m.152-.894q.59 0 .994-.231a1.58 1.58 0 0 0 .826-1.37v-.91q-.063.075-.278.139-.21.059-.489.105-.273.042-.535.076l-.417.05a4 4 0 0 0-.725.165 1.25 1.25 0 0 0-.54.333q-.202.219-.202.598 0 .519.384.784.387.261.982.261m7.628.742v-8.631h2.917q1.015 0 1.66.367.65.362.961.982.312.619.312 1.382t-.312 1.386a2.3 2.3 0 0 1-.953.995q-.644.367-1.652.367h-2.09v-.927h2.057q.695 0 1.116-.241.421-.24.612-.649.193-.413.193-.931 0-.519-.193-.927a1.4 1.4 0 0 0-.616-.641q-.425-.236-1.129-.236h-1.838v7.704zm9.721.135q-.876 0-1.538-.417a2.84 2.84 0 0 1-1.028-1.168q-.367-.75-.367-1.753 0-1.011.367-1.766.37-.754 1.028-1.171.662-.418 1.538-.418.877 0 1.535.418.661.417 1.028 1.171.37.755.371 1.766 0 1.003-.371 1.753-.367.75-1.028 1.168-.658.417-1.535.417m0-.894q.666 0 1.096-.341a2 2 0 0 0 .637-.898q.206-.555.206-1.205a3.5 3.5 0 0 0-.206-1.209 2.04 2.04 0 0 0-.637-.907q-.43-.345-1.096-.345-.665 0-1.095.345a2.04 2.04 0 0 0-.637.907 3.5 3.5 0 0 0-.206 1.209q0 .65.206 1.205.207.557.637.898t1.095.341m8.8-4.265-.894.253a1.7 1.7 0 0 0-.248-.434 1.2 1.2 0 0 0-.438-.354q-.279-.139-.713-.139-.594 0-.99.274-.392.27-.392.687 0 .371.27.586.269.215.843.358l.96.236q.869.212 1.294.645.426.43.426 1.108 0 .557-.32.995a2.13 2.13 0 0 1-.885.691q-.57.253-1.324.253-.99 0-1.639-.43-.65-.43-.822-1.256l.944-.236q.135.523.51.784.38.261.99.261.696 0 1.105-.295.413-.299.413-.716a.76.76 0 0 0-.236-.565q-.237-.232-.725-.345l-1.079-.253q-.889-.212-1.307-.654-.413-.446-.413-1.116 0-.549.308-.97a2.1 2.1 0 0 1 .847-.661q.54-.241 1.222-.241.962 0 1.509.422.552.422.784 1.112m4.193-1.449v.843H122.8v-.843zm-2.377-1.551h.995v6.17q0 .421.122.632.126.207.32.278.198.067.417.067.165 0 .27-.016l.169-.034.202.893a2 2 0 0 1-.282.076 2 2 0 0 1-.46.042 2 2 0 0 1-.826-.181 1.64 1.64 0 0 1-.666-.552q-.261-.37-.261-.936zm6.179 10.586q-.72 0-1.239-.185a2.7 2.7 0 0 1-.864-.48 2.6 2.6 0 0 1-.543-.633l.792-.556q.135.177.341.405.207.232.565.4.363.173.948.173.784 0 1.294-.379.51-.38.51-1.189v-1.315h-.084a5 5 0 0 1-.312.438 1.8 1.8 0 0 1-.573.46q-.372.198-1.003.198-.784 0-1.408-.371a2.6 2.6 0 0 1-.982-1.079q-.358-.708-.358-1.719 0-.995.35-1.732.35-.742.973-1.147a2.57 2.57 0 0 1 1.441-.409q.633 0 1.003.211.376.207.574.472.202.262.312.43h.101v-1.028h.961v6.659q0 .834-.38 1.357a2.16 2.16 0 0 1-1.011.771 3.8 3.8 0 0 1-1.408.248m-.034-3.557q.599 0 1.012-.273.413-.274.628-.789.215-.514.215-1.23 0-.7-.211-1.235a1.85 1.85 0 0 0-.624-.839q-.413-.303-1.02-.303-.631 0-1.053.32a1.95 1.95 0 0 0-.628.86 3.3 3.3 0 0 0-.207 1.197q0 .674.211 1.193.215.513.632.809.422.29 1.045.29m4.416.995v-6.473h.961v.977h.067q.177-.48.641-.779a1.9 1.9 0 0 1 1.045-.299 10 10 0 0 1 .523.016v1.012a3 3 0 0 0-.232-.038 2 2 0 0 0-.375-.03 1.75 1.75 0 0 0-.843.199 1.5 1.5 0 0 0-.582.539q-.21.341-.211.78v4.096zm6.695.135q-.936 0-1.614-.413a2.8 2.8 0 0 1-1.041-1.163q-.362-.75-.362-1.745t.362-1.753a2.87 2.87 0 0 1 1.02-1.189q.657-.43 1.534-.43.505 0 .999.169.493.168.898.548.404.375.644.994.241.62.241 1.526v.422h-4.99v-.86h3.978q0-.548-.219-.978a1.64 1.64 0 0 0-.615-.678 1.7 1.7 0 0 0-.936-.249q-.594 0-1.028.295a1.95 1.95 0 0 0-.662.758 2.24 2.24 0 0 0-.232 1.004v.573q0 .733.253 1.243.258.506.712.771a2.1 2.1 0 0 0 1.058.261q.392 0 .708-.109.321-.114.552-.337.232-.228.359-.565l.96.27a2.1 2.1 0 0 1-.51.859 2.5 2.5 0 0 1-.885.574 3.3 3.3 0 0 1-1.184.202m8.542-5.159-.894.253a1.7 1.7 0 0 0-.249-.434 1.2 1.2 0 0 0-.438-.354q-.278-.139-.712-.139-.594 0-.991.274-.391.27-.391.687 0 .371.269.586.27.215.843.358l.961.236q.868.212 1.294.645.426.43.426 1.108 0 .557-.321.995a2.13 2.13 0 0 1-.885.691q-.569.253-1.323.253-.99 0-1.64-.43-.648-.43-.821-1.256l.944-.236q.135.523.51.784.379.261.99.261.696 0 1.104-.295.414-.299.413-.716a.75.75 0 0 0-.236-.565q-.236-.232-.725-.345l-1.079-.253q-.888-.212-1.306-.654-.413-.446-.413-1.116 0-.549.308-.97.311-.421.847-.661a3 3 0 0 1 1.222-.241q.96 0 1.509.422.552.422.784 1.112m6.922 5.159a2.53 2.53 0 0 1-1.429-.409q-.62-.413-.969-1.163-.35-.754-.35-1.783 0-1.02.35-1.77t.974-1.159a2.57 2.57 0 0 1 1.441-.409q.631 0 .999.211.37.207.565.472.198.262.307.43h.085v-3.186h.994v8.631h-.961v-.995h-.118a6 6 0 0 1-.312.447 1.8 1.8 0 0 1-.577.476q-.375.207-.999.207m.135-.894q.599 0 1.011-.311a1.95 1.95 0 0 0 .628-.873q.216-.56.215-1.294 0-.725-.21-1.268a1.85 1.85 0 0 0-.624-.851q-.413-.309-1.02-.308-.632 0-1.054.324a1.95 1.95 0 0 0-.628.873 3.5 3.5 0 0 0-.206 1.23q0 .692.211 1.256.215.561.632.894.421.328 1.045.328m6.459.911a2.6 2.6 0 0 1-1.116-.232 1.9 1.9 0 0 1-.797-.679q-.295-.446-.295-1.078 0-.557.219-.902.22-.35.586-.548t.809-.295q.447-.102.898-.16.59-.077.957-.114.37-.042.539-.139.173-.097.173-.337v-.034q0-.624-.342-.969-.337-.346-1.024-.346-.712 0-1.117.312-.404.312-.568.666l-.945-.337q.254-.59.675-.919a2.5 2.5 0 0 1 .927-.464q.506-.135.995-.135a4 4 0 0 1 .716.076q.409.072.788.3.384.227.637.686.252.46.252 1.231v4.265h-.994v-.877h-.051q-.101.211-.337.451a1.9 1.9 0 0 1-.628.409q-.392.17-.957.169m.152-.894q.59 0 .995-.231a1.58 1.58 0 0 0 .826-1.37v-.91q-.063.075-.278.139a5 5 0 0 1-.489.105q-.274.042-.535.076l-.418.05q-.387.051-.725.165a1.25 1.25 0 0 0-.539.333q-.202.219-.202.598 0 .519.383.784.388.261.982.261m7.209-5.731v.843h-3.355v-.843zm-2.377-1.551h.994v6.17q0 .421.123.632.126.207.32.278.198.067.417.067.165 0 .27-.016l.168-.034.203.893a2 2 0 0 1-.283.076 2 2 0 0 1-.459.042 2 2 0 0 1-.826-.181 1.64 1.64 0 0 1-.666-.552q-.261-.37-.261-.936zm5.54 8.176q-.615 0-1.117-.232a1.9 1.9 0 0 1-.796-.679q-.295-.446-.295-1.078 0-.557.219-.902.219-.35.586-.548.366-.199.809-.295.447-.102.898-.16.59-.077.956-.114.371-.042.54-.139.173-.097.173-.337v-.034q0-.624-.342-.969-.337-.346-1.024-.346-.712 0-1.117.312-.404.312-.569.666l-.944-.337q.254-.59.675-.919.425-.333.927-.464.506-.135.994-.135.312 0 .717.076.408.072.788.3.384.227.636.686.253.46.253 1.231v4.265h-.994v-.877h-.051q-.101.211-.337.451a1.9 1.9 0 0 1-.628.409q-.392.17-.957.169m.152-.894q.59 0 .995-.231a1.58 1.58 0 0 0 .826-1.37v-.91q-.063.075-.278.139a5 5 0 0 1-.489.105q-.274.042-.536.076l-.417.05q-.387.051-.725.165a1.25 1.25 0 0 0-.539.333q-.202.219-.202.598 0 .519.383.784.388.261.982.261m4.528.742v-8.631h.995v3.186h.084q.11-.168.303-.43a1.8 1.8 0 0 1 .565-.472q.371-.21 1.003-.211.818 0 1.442.409.623.41.973 1.159t.35 1.77q0 1.029-.35 1.783-.35.75-.969 1.163a2.53 2.53 0 0 1-1.429.409q-.624 0-.999-.207a1.85 1.85 0 0 1-.577-.476 6 6 0 0 1-.312-.447h-.118v.995zm.978-3.237q0 .734.215 1.294.214.557.628.873.412.311 1.011.311.624 0 1.041-.328.422-.333.632-.894.216-.564.215-1.256 0-.683-.21-1.23a1.9 1.9 0 0 0-.628-.873q-.418-.324-1.05-.324-.606 0-1.02.308a1.84 1.84 0 0 0-.623.851q-.211.543-.211 1.268m7.926 3.389q-.615 0-1.117-.232a1.9 1.9 0 0 1-.796-.679q-.295-.446-.295-1.078 0-.557.219-.902.219-.35.585-.548.368-.199.81-.295.446-.102.897-.16.591-.077.957-.114.37-.042.539-.139.173-.097.173-.337v-.034q0-.624-.341-.969-.337-.346-1.024-.346-.712 0-1.117.312t-.569.666l-.944-.337q.253-.59.674-.919a2.5 2.5 0 0 1 .927-.464q.506-.135.995-.135.312 0 .716.076.41.072.789.3.382.227.636.686.253.46.253 1.231v4.265h-.995v-.877h-.05a1.8 1.8 0 0 1-.337.451 1.9 1.9 0 0 1-.628.409q-.393.17-.957.169m.152-.894q.59 0 .994-.231a1.58 1.58 0 0 0 .826-1.37v-.91q-.063.075-.278.139-.21.059-.489.105-.273.042-.535.076l-.417.05q-.388.051-.725.165a1.25 1.25 0 0 0-.54.333q-.201.219-.202.598 0 .519.384.784.387.261.982.261m8.978-4.282-.893.253a1.7 1.7 0 0 0-.249-.434 1.2 1.2 0 0 0-.438-.354q-.279-.139-.713-.139-.594 0-.99.274-.392.27-.392.687 0 .371.27.586t.843.358l.961.236q.868.212 1.293.645.426.43.426 1.108 0 .557-.32.995a2.13 2.13 0 0 1-.885.691q-.569.253-1.324.253-.99 0-1.639-.43-.65-.43-.822-1.256l.944-.236q.135.523.51.784.38.261.991.261.695 0 1.104-.295.413-.299.413-.716a.76.76 0 0 0-.236-.565q-.236-.232-.725-.345l-1.079-.253q-.89-.212-1.306-.654-.413-.446-.413-1.116 0-.549.307-.97a2.1 2.1 0 0 1 .847-.661q.54-.241 1.222-.241.962 0 1.509.422.553.422.784 1.112m4.092 5.159q-.936 0-1.614-.413a2.77 2.77 0 0 1-1.041-1.163q-.362-.75-.362-1.745t.362-1.753a2.85 2.85 0 0 1 1.02-1.189q.657-.43 1.534-.43.505 0 .999.169.493.168.897.548.405.375.645.994.24.62.24 1.526v.422h-4.989v-.86h3.978q0-.548-.219-.978a1.65 1.65 0 0 0-.615-.678 1.7 1.7 0 0 0-.936-.249q-.594 0-1.028.295a1.94 1.94 0 0 0-.662.758 2.2 2.2 0 0 0-.232 1.004v.573q0 .733.253 1.243.257.506.712.771a2.1 2.1 0 0 0 1.058.261q.392 0 .708-.109.321-.114.552-.337.232-.228.358-.565l.961.27a2.1 2.1 0 0 1-.51.859 2.5 2.5 0 0 1-.885.574 3.3 3.3 0 0 1-1.184.202"/><rect width="58.773" height="17.005" x="15.272" y="154.369" fill="#111827" rx="4.165"/><path fill="#4b5563" d="M20.29 162.146c0-1.013.818-1.843 1.83-1.843.507 0 .987.22 1.337.584l.987 1.038.973-1.038c.35-.364.831-.584 1.337-.584a1.85 1.85 0 0 1 1.844 1.843v.48c0 1.013-.831 1.83-1.844 1.83-.506 0-.986-.207-1.337-.571l-.973-1.051-.987 1.051c-.35.364-.83.571-1.337.571a1.83 1.83 0 0 1-1.83-1.83zm3.726.233-1.013-1.064a1.2 1.2 0 0 0-.883-.389c-.675 0-1.207.545-1.207 1.22v.48c0 .675.532 1.207 1.207 1.207a1.2 1.2 0 0 0 .883-.376zm.843 0 1.013 1.078a1.2 1.2 0 0 0 .882.376c.675 0 1.22-.532 1.22-1.207v-.48c0-.675-.545-1.22-1.22-1.22a1.23 1.23 0 0 0-.882.389l-1 1.064z"/><path fill="#9ca3af" d="M33.334 166.872h-.921l2.663-7.253h.907l2.663 7.253h-.921l-2.167-6.106H35.5zm.34-2.833h3.71v.779h-3.71zm7.984 4.986q-.605 0-1.04-.156a2.2 2.2 0 0 1-.727-.404 2.2 2.2 0 0 1-.457-.531l.666-.467q.113.148.287.34.174.194.474.336.306.145.797.145.66 0 1.087-.319.429-.318.429-.998v-1.105h-.07a5 5 0 0 1-.263.368 1.5 1.5 0 0 1-.482.386q-.31.167-.842.167-.66 0-1.183-.312a2.2 2.2 0 0 1-.825-.907q-.301-.594-.301-1.444 0-.837.294-1.456.293-.624.818-.963a2.16 2.16 0 0 1 1.21-.344q.532 0 .844.177.315.174.481.397.17.22.262.361h.085v-.864h.808v5.595q0 .702-.319 1.141-.315.442-.85.648a3.2 3.2 0 0 1-1.183.209m-.028-2.989q.502 0 .85-.23.346-.231.528-.663.18-.432.18-1.034 0-.588-.177-1.037a1.56 1.56 0 0 0-.524-.705q-.347-.255-.857-.255-.532 0-.885.269-.351.27-.528.723a2.8 2.8 0 0 0-.174 1.005q0 .567.177 1.003.18.432.532.68.354.244.878.244m5.99.949q-.785 0-1.355-.347a2.33 2.33 0 0 1-.875-.978q-.305-.63-.305-1.466 0-.835.305-1.473.307-.64.857-.999.552-.36 1.289-.361.425 0 .84.142.413.142.753.46.34.315.542.836t.202 1.282v.354H45.68v-.722h3.343q0-.46-.184-.822a1.4 1.4 0 0 0-.517-.57 1.45 1.45 0 0 0-.786-.209q-.5 0-.864.248-.361.244-.556.637t-.195.843v.482q0 .616.212 1.045.216.424.599.648.382.219.889.219.33 0 .595-.092.27-.096.464-.283.195-.192.3-.475l.808.227a1.8 1.8 0 0 1-.428.722q-.301.309-.744.482-.443.17-.995.17m4.16-3.386v3.273h-.835v-5.44h.807v.85h.071q.192-.414.581-.666.39-.255 1.006-.255.552 0 .967.227.414.223.644.68.23.454.23 1.147v3.457h-.835v-3.4q0-.64-.333-.999-.333-.361-.914-.361-.4 0-.715.174a1.24 1.24 0 0 0-.493.506q-.18.333-.18.807m7.165-2.167v.708h-2.82v-.708zm-1.998-1.303h.836v5.184q0 .355.103.532.105.173.27.233.165.057.35.057.138 0 .226-.014l.142-.028.17.75a2 2 0 0 1-.237.064q-.152.035-.386.035-.355 0-.694-.152a1.4 1.4 0 0 1-.56-.464q-.22-.311-.22-.786z"/><path fill="#4b5563" d="M65.713 160.913a.305.305 0 0 1 .428 0l2.09 2.076a.32.32 0 0 1 0 .442c-.13.13-.325.13-.442 0l-1.856-1.856-1.856 1.856c-.13.13-.325.13-.441 0a.285.285 0 0 1 0-.429z"/><path fill="#9ca3af" d="M87.239 166.872h-.921l2.663-7.253h.906l2.664 7.253h-.921l-2.167-6.106h-.057zm.34-2.833h3.71v.779h-3.71zm9.217.609v-3.216h.835v5.44h-.835v-.921h-.057a1.8 1.8 0 0 1-.595.705q-.405.286-1.02.286-.51 0-.907-.223a1.56 1.56 0 0 1-.623-.68q-.226-.456-.226-1.151v-3.456h.835v3.4q0 .594.333.949.336.354.857.354.313 0 .634-.159.326-.16.545-.489.225-.33.224-.839m4.532-3.216v.708h-2.819v-.708zm-1.997-1.303h.836v5.184q0 .355.102.532a.53.53 0 0 0 .27.233q.166.057.35.057.138 0 .227-.014l.141-.028.17.75a1.5 1.5 0 0 1-.237.064q-.152.035-.386.035-.354 0-.694-.152a1.4 1.4 0 0 1-.56-.464q-.22-.311-.22-.786zm5.206 6.856q-.737 0-1.292-.351a2.37 2.37 0 0 1-.864-.981q-.309-.63-.308-1.473 0-.85.308-1.484.311-.633.864-.984.555-.351 1.292-.351t1.289.351q.556.351.865.984.31.635.311 1.484 0 .843-.311 1.473a2.34 2.34 0 0 1-.865.981q-.552.351-1.289.351m0-.751q.56 0 .921-.287.361-.286.535-.754t.173-1.013a2.9 2.9 0 0 0-.173-1.016 1.7 1.7 0 0 0-.535-.762q-.361-.29-.921-.29t-.92.29a1.7 1.7 0 0 0-.535.762 2.9 2.9 0 0 0-.174 1.016q0 .546.174 1.013.174.468.535.754.36.287.92.287m9.08-5.321a.306.306 0 0 1 .429 0l2.09 2.076a.324.324 0 0 1 0 .442c-.13.13-.325.13-.442 0l-1.856-1.856-1.856 1.856c-.13.13-.325.13-.442 0a.286.286 0 0 1 0-.429z"/><circle cx="251.691" cy="162.872" r="5" stroke="#4b5563"/><path stroke="#9ca3af" stroke-linecap="round" d="M256.691 162.872a5 5 0 0 0-5-5"/><path fill="#9ca3af" d="M271.677 158.769a4.367 4.367 0 0 0-4.362 4.363 4.355 4.355 0 0 0 4.362 4.363c.156 0 .312.156.312.312a.32.32 0 0 1-.312.311 4.97 4.97 0 0 1-4.986-4.986 4.984 4.984 0 0 1 4.986-4.986 4.995 4.995 0 0 1 4.986 4.986v.468c0 .954-.779 1.713-1.714 1.713-.662 0-1.227-.35-1.519-.895a2.177 2.177 0 0 1-3.934-1.286 2.19 2.19 0 0 1 2.181-2.181c.604 0 1.15.253 1.559.662v-.039a.32.32 0 0 1 .311-.312c.156 0 .312.156.312.312v2.026c0 .603.487 1.09 1.09 1.09.585 0 1.091-.487 1.091-1.09v-.468c0-2.396-1.967-4.363-4.363-4.363m1.559 4.363c0-.545-.312-1.052-.78-1.344a1.59 1.59 0 0 0-1.558 0 1.57 1.57 0 0 0-.779 1.344c0 .565.292 1.071.779 1.363a1.58 1.58 0 0 0 1.558 0c.468-.292.78-.798.78-1.363m18.441 4.363c.312 0 .78-.273 1.189-1.11.194-.39.37-.857.487-1.383h-3.351c.098.526.273.993.468 1.383.409.837.876 1.11 1.207 1.11m-1.791-3.116h3.564a8.4 8.4 0 0 0 .097-1.247 9 9 0 0 0-.097-1.246h-3.564a9 9 0 0 0-.078 1.246c0 .448.019.857.078 1.247m.116-3.117h3.351a6 6 0 0 0-.487-1.363c-.409-.838-.877-1.13-1.189-1.13-.331 0-.798.292-1.207 1.13-.195.389-.37.837-.468 1.363m4.091.624c.039.409.078.818.078 1.246 0 .448-.039.857-.078 1.247h1.753c.116-.39.194-.799.194-1.247 0-.428-.078-.837-.194-1.246zm1.519-.624a4.43 4.43 0 0 0-2.552-2.259c.409.545.74 1.344.916 2.259zm-6.252 0c.195-.915.506-1.714.915-2.259a4.43 4.43 0 0 0-2.551 2.259zm-1.87.624a4.5 4.5 0 0 0-.175 1.246c0 .448.058.857.175 1.247h1.772a8.5 8.5 0 0 1-.078-1.247c0-.428.02-.837.078-1.246zm5.57 5.395a4.4 4.4 0 0 0 2.552-2.279h-1.636c-.176.935-.507 1.714-.916 2.279m-2.785 0c-.409-.565-.72-1.344-.915-2.279h-1.636a4.4 4.4 0 0 0 2.551 2.279m1.402.837a4.96 4.96 0 0 1-4.323-2.493 4.96 4.96 0 0 1 0-4.986 5 5 0 0 1 4.323-2.493 4.99 4.99 0 0 1 4.305 2.493 4.96 4.96 0 0 1 0 4.986 4.95 4.95 0 0 1-4.305 2.493m16.261-8.725a.627.627 0 0 0-.623.623v4.557l1.305-1.324a.813.813 0 0 1 1.11 0l1.324 1.324 2.552-2.571a.813.813 0 0 1 1.11 0l1.324 1.325v-3.311a.64.64 0 0 0-.623-.623zm-.623 6.057v.798c0 .351.272.624.623.624h.798l1.87-1.87-1.324-1.305a.15.15 0 0 0-.214 0zm6.953-3a.153.153 0 0 0-.214 0l-4.441 4.422h5.804a.63.63 0 0 0 .623-.624v-2.045zm-7.577-2.434c0-.682.546-1.247 1.247-1.247h7.479c.682 0 1.247.565 1.247 1.247v6.232c0 .702-.565 1.247-1.247 1.247h-7.479a1.23 1.23 0 0 1-1.247-1.247zm3.117.935a.336.336 0 0 0-.312-.312.32.32 0 0 0-.312.312c0 .175.137.311.312.311a.32.32 0 0 0 .312-.311m-1.247 0c0-.331.175-.624.468-.799a.9.9 0 0 1 .935 0c.272.175.467.468.467.799 0 .35-.195.642-.467.818a.9.9 0 0 1-.935 0 .93.93 0 0 1-.468-.818"/><rect width="17.037" height="16.005" x="326.691" y="154.869" fill="#042f2e" rx="8.003"/><rect width="7" height="7" x="331.71" y="159.372" fill="#99f6e4" rx="2"/></svg>