<svg xmlns="http://www.w3.org/2000/svg" width="338" height="300" fill="none" viewBox="0 0 338 300"><g clip-path="url(#a)"><path fill="url(#b)" d="M0 12C0 5.373 5.373 0 12 0h314c6.627 0 12 5.373 12 12v276c0 6.627-5.373 12-12 12H12c-6.627 0-12-5.373-12-12z"/><g stroke="#0d9488" stroke-width=".825" opacity=".42"><path d="M153.542 194.067c27.748 0 52.85 4.241 71 11.085 9.077 3.422 16.394 7.487 21.434 11.98s7.769 9.381 7.769 14.459c0 5.079-2.728 9.966-7.769 14.459-5.04 4.493-12.357 8.558-21.434 11.981-18.15 6.843-43.252 11.084-71 11.084s-52.849-4.241-71-11.084c-9.076-3.423-16.393-7.488-21.433-11.981s-7.77-9.38-7.77-14.459 2.73-9.966 7.77-14.459 12.357-8.558 21.434-11.98c18.15-6.844 43.252-11.085 70.999-11.085Z" opacity=".8"/><path d="M153.542 172.871c37.464 0 71.364 5.719 95.882 14.95 12.26 4.617 22.154 10.103 28.974 16.175 6.822 6.072 10.534 12.695 10.535 19.595s-3.713 13.523-10.535 19.596c-6.82 6.071-16.714 11.558-28.974 16.174-24.518 9.232-58.418 14.95-95.882 14.95s-71.364-5.718-95.882-14.95c-12.26-4.616-22.154-10.103-28.974-16.174-6.822-6.073-10.535-12.696-10.535-19.596s3.713-13.523 10.535-19.595c6.82-6.072 16.714-11.558 28.974-16.175 24.518-9.231 58.418-14.95 95.882-14.95Z" opacity=".6"/><path d="M153.542 149.477c48.395 0 92.192 7.441 123.873 19.459 15.842 6.009 28.634 13.154 37.458 21.067s13.645 16.561 13.646 25.588c0 9.027-4.822 17.675-13.646 25.589s-21.616 15.058-37.458 21.067c-31.681 12.017-75.478 19.459-123.873 19.459s-92.19-7.442-123.872-19.459c-15.842-6.009-28.634-13.154-37.458-21.067s-13.647-16.562-13.647-25.589 4.823-17.675 13.647-25.588 21.616-15.058 37.458-21.067c31.681-12.018 75.477-19.459 123.872-19.459Z" opacity=".45"/><path d="M153.542 126.082c59.631 0 113.598 9.165 152.642 23.968 19.523 7.402 35.294 16.206 46.177 25.96 10.883 9.756 16.844 20.429 16.844 31.582-.001 11.152-5.961 21.824-16.844 31.58s-26.654 18.559-46.177 25.961C267.14 279.936 213.173 289.1 153.542 289.1S39.944 279.936.9 265.133c-19.523-7.402-35.294-16.206-46.177-25.961-10.883-9.756-16.843-20.428-16.844-31.58 0-11.153 5.961-21.826 16.844-31.582 10.883-9.754 26.654-18.558 46.177-25.96 39.044-14.803 93.012-23.968 152.642-23.968Z" opacity=".3"/><path d="M153.542 99.388c72.991 0 139.054 11.257 186.854 29.443 23.901 9.093 43.214 19.912 56.545 31.903 13.332 11.992 20.646 25.123 20.646 38.858s-7.314 26.865-20.646 38.857c-13.331 11.991-32.645 22.809-56.545 31.902-47.8 18.186-113.863 29.443-186.854 29.443S14.488 288.537-33.311 270.351c-23.901-9.093-43.215-19.911-56.546-31.902-13.332-11.992-20.647-25.123-20.647-38.857 0-13.735 7.315-26.866 20.647-38.858 13.33-11.991 32.644-22.81 56.546-31.903 47.8-18.186 113.862-29.443 186.853-29.443Z" opacity=".2"/><path d="M153.542 73.794c85.441 0 162.774 13.227 218.732 34.596 27.981 10.685 50.596 23.399 66.208 37.495 15.613 14.097 24.19 29.542 24.19 45.706s-8.577 31.61-24.19 45.706c-15.612 14.097-38.227 26.81-66.208 37.495-55.958 21.37-133.291 34.595-218.732 34.595-85.44 0-162.774-13.225-218.732-34.595-27.98-10.685-50.596-23.398-66.208-37.495s-24.19-29.542-24.19-45.706 8.577-31.61 24.19-45.706c15.612-14.096 38.227-26.81 66.208-37.495C-9.232 87.02 68.1 73.794 153.542 73.794Z" opacity=".1"/></g><path fill="url(#c)" fill-opacity=".5" d="m150.408 227.094-.005.291c-.411 12.315-26.857 22.25-59.42 22.25-32.562 0-59.007-9.935-59.418-22.25l-.005-.291V104.148h118.848z"/><path fill="#ccfbf1" stroke="#fff" stroke-width=".683" d="M90.984 204.896c16.379 0 31.192 2.518 41.898 6.579 5.354 2.031 9.664 4.441 12.628 7.099s4.556 5.539 4.556 8.52-1.591 5.861-4.556 8.52-7.274 5.068-12.628 7.099c-10.706 4.061-25.519 6.579-41.898 6.579s-31.192-2.518-41.898-6.579c-5.354-2.031-9.664-4.441-12.628-7.099s-4.556-5.539-4.556-8.52 1.59-5.861 4.556-8.52c2.964-2.658 7.274-5.068 12.628-7.099 10.706-4.061 25.52-6.579 41.898-6.579Z"/><path fill="#f0fdfa" stroke="#0d9488" stroke-width=".683" d="M134.683 211.879v14.91c0 2.085-1.16 4.116-3.356 6.005s-5.391 3.606-9.37 5.054c-7.956 2.896-18.97 4.694-31.152 4.694-12.181-.001-23.195-1.798-31.15-4.694-3.98-1.448-7.176-3.165-9.371-5.054s-3.356-3.92-3.356-6.005v-14.91z"/><path fill="#f0fdfa" stroke="#0d9488" stroke-width=".683" d="M90.805 193.967c12.18 0 23.192 1.875 31.147 4.896 3.978 1.511 7.174 3.301 9.37 5.272s3.361 4.095 3.361 6.282-1.166 4.312-3.361 6.283-5.392 3.761-9.37 5.272c-7.955 3.021-18.967 4.896-31.147 4.896s-23.192-1.875-31.146-4.896c-3.978-1.511-7.174-3.301-9.37-5.272s-3.36-4.095-3.36-6.283c0-2.187 1.165-4.311 3.36-6.282 2.196-1.971 5.392-3.761 9.37-5.272 7.954-3.021 18.966-4.896 31.146-4.896Z"/><path fill="#14b8a6" stroke="#f0fdfa" stroke-width=".683" d="M132.443 197.382v11.301c0 1.965-1.096 3.881-3.179 5.667-2.082 1.785-5.114 3.408-8.891 4.777-7.551 2.739-18.004 4.439-29.567 4.439-11.564 0-22.018-1.7-29.569-4.439-3.776-1.369-6.809-2.992-8.89-4.777-2.083-1.786-3.18-3.702-3.18-5.667v-11.301z"/><path fill="#f0fdfa" stroke="#0d9488" stroke-width=".683" d="M134.683 187.29v14.909c0 2.085-1.16 4.116-3.356 6.006-2.195 1.889-5.391 3.606-9.37 5.054-7.956 2.895-18.97 4.693-31.152 4.693-12.181 0-23.195-1.798-31.15-4.693-3.98-1.449-7.176-3.165-9.371-5.054s-3.356-3.921-3.356-6.006V187.29z"/><path fill="#f0fdfa" stroke="#0d9488" stroke-width=".683" d="M90.805 169.378c12.18 0 23.192 1.875 31.147 4.896 3.978 1.51 7.174 3.301 9.37 5.272s3.361 4.095 3.361 6.282-1.166 4.312-3.361 6.283-5.392 3.761-9.37 5.272c-7.955 3.021-18.967 4.896-31.147 4.896s-23.192-1.875-31.146-4.896c-3.978-1.511-7.174-3.301-9.37-5.272s-3.36-4.095-3.36-6.283c0-2.187 1.165-4.311 3.36-6.282 2.196-1.971 5.392-3.762 9.37-5.272 7.954-3.021 18.966-4.896 31.146-4.896Z"/><path fill="#0f766e" stroke="#f0fdfa" stroke-width=".683" d="M132.443 172.793v11.301c0 1.965-1.096 3.881-3.179 5.667-2.082 1.785-5.114 3.408-8.891 4.777-7.551 2.739-18.004 4.439-29.567 4.439-11.564 0-22.018-1.7-29.569-4.439-3.776-1.369-6.809-2.992-8.89-4.777-2.083-1.786-3.18-3.702-3.18-5.667v-11.301z"/><path fill="#f0fdfa" stroke="#0d9488" stroke-width=".683" d="M134.683 162.701v14.909c0 2.085-1.16 4.116-3.356 6.006-2.195 1.889-5.391 3.605-9.37 5.054-7.956 2.895-18.97 4.693-31.152 4.693-12.181 0-23.195-1.798-31.15-4.693-3.98-1.449-7.176-3.165-9.371-5.054s-3.356-3.921-3.356-6.006v-14.909z"/><path fill="#f0fdfa" stroke="#0d9488" stroke-width=".683" d="M90.805 144.789c12.18 0 23.192 1.875 31.147 4.896 3.978 1.51 7.174 3.301 9.37 5.272s3.361 4.095 3.361 6.282-1.166 4.311-3.361 6.282-5.392 3.762-9.37 5.273c-7.955 3.021-18.967 4.895-31.147 4.895s-23.192-1.874-31.146-4.895c-3.978-1.511-7.174-3.302-9.37-5.273s-3.36-4.094-3.36-6.282 1.165-4.311 3.36-6.282c2.196-1.971 5.392-3.762 9.37-5.272 7.954-3.021 18.966-4.896 31.146-4.896Z"/><path fill="url(#d)" fill-opacity=".5" d="M316.539 227.094c0 12.449-26.605 22.54-59.424 22.54s-59.424-10.091-59.424-22.54V61.8h118.848z"/><path fill="#0d9488" stroke="#fff" stroke-width=".683" d="M257.115 204.896c16.379 0 31.193 2.518 41.899 6.579 5.354 2.031 9.663 4.441 12.628 7.099s4.555 5.539 4.555 8.52-1.591 5.861-4.555 8.52c-2.965 2.658-7.274 5.068-12.628 7.099-10.706 4.061-25.52 6.579-41.899 6.579s-31.191-2.518-41.897-6.579c-5.354-2.031-9.664-4.441-12.629-7.099s-4.556-5.539-4.556-8.52 1.591-5.861 4.556-8.52 7.275-5.068 12.629-7.099c10.706-4.061 25.519-6.579 41.897-6.579Z"/><path fill="#f0fdfa" stroke="#0d9488" stroke-width=".683" d="M300.814 211.879v14.91c0 2.085-1.16 4.116-3.356 6.005s-5.392 3.606-9.371 5.054c-7.955 2.896-18.969 4.694-31.151 4.694-12.181-.001-23.195-1.798-31.15-4.694-3.98-1.448-7.176-3.165-9.371-5.054s-3.356-3.92-3.356-6.005v-14.91z"/><path fill="#f0fdfa" stroke="#0d9488" stroke-width=".683" d="M256.937 193.967c12.18 0 23.192 1.875 31.146 4.896 3.978 1.511 7.175 3.301 9.37 5.272s3.361 4.095 3.361 6.282-1.166 4.312-3.361 6.283-5.392 3.761-9.37 5.272c-7.954 3.021-18.966 4.896-31.146 4.896s-23.193-1.875-31.147-4.896c-3.978-1.511-7.174-3.301-9.369-5.272-2.196-1.971-3.361-4.095-3.361-6.283 0-2.187 1.165-4.311 3.361-6.282 2.195-1.971 5.391-3.761 9.369-5.272 7.954-3.021 18.966-4.896 31.147-4.896Z"/><path fill="#ccfbf1" stroke="#f0fdfa" stroke-width=".683" d="M298.574 197.382v11.301c0 1.965-1.097 3.881-3.179 5.667-2.082 1.785-5.115 3.408-8.891 4.777-7.551 2.739-18.004 4.439-29.567 4.439-11.564 0-22.018-1.7-29.569-4.439-3.776-1.369-6.809-2.992-8.89-4.777-2.083-1.786-3.18-3.702-3.18-5.667v-11.301z"/><path fill="#f0fdfa" stroke="#0d9488" stroke-width=".683" d="M300.814 187.29v14.909c0 2.085-1.16 4.116-3.356 6.006-2.195 1.889-5.392 3.606-9.371 5.054-7.955 2.895-18.969 4.693-31.151 4.693s-23.195-1.798-31.15-4.693c-3.98-1.449-7.176-3.165-9.371-5.054s-3.356-3.921-3.356-6.006V187.29z"/><path fill="#f0fdfa" stroke="#0d9488" stroke-width=".683" d="M256.937 169.378c12.18 0 23.192 1.875 31.146 4.896 3.978 1.51 7.175 3.301 9.37 5.272s3.361 4.095 3.361 6.282-1.166 4.312-3.361 6.283-5.392 3.761-9.37 5.272c-7.954 3.021-18.966 4.896-31.146 4.896s-23.193-1.875-31.147-4.896c-3.978-1.511-7.174-3.301-9.369-5.272-2.196-1.972-3.361-4.095-3.361-6.283 0-2.187 1.165-4.311 3.361-6.282 2.195-1.971 5.391-3.762 9.369-5.272 7.954-3.021 18.966-4.896 31.147-4.896Z"/><path fill="#14b8a6" stroke="#f0fdfa" stroke-width=".683" d="M298.574 172.793v11.301c0 1.965-1.097 3.881-3.179 5.667-2.082 1.785-5.115 3.408-8.891 4.777-7.551 2.739-18.004 4.439-29.567 4.439-11.564 0-22.018-1.7-29.569-4.439-3.776-1.369-6.809-2.992-8.89-4.777-2.083-1.786-3.18-3.702-3.18-5.667v-11.301z"/><path fill="#f0fdfa" stroke="#0d9488" stroke-width=".683" d="M300.814 162.701v14.909c0 2.085-1.16 4.116-3.356 6.006-2.195 1.889-5.392 3.605-9.371 5.054-7.955 2.895-18.969 4.693-31.151 4.693s-23.195-1.798-31.15-4.693c-3.98-1.449-7.176-3.165-9.371-5.054s-3.356-3.921-3.356-6.006v-14.909z"/><path fill="#f0fdfa" stroke="#0d9488" stroke-width=".683" d="M256.937 144.789c12.18 0 23.192 1.875 31.146 4.896 3.978 1.51 7.175 3.301 9.37 5.272s3.361 4.095 3.361 6.282-1.166 4.311-3.361 6.282-5.392 3.762-9.37 5.273c-7.954 3.021-18.966 4.895-31.146 4.895s-23.193-1.874-31.147-4.895c-3.978-1.511-7.174-3.302-9.369-5.273-2.196-1.971-3.361-4.094-3.361-6.282s1.165-4.311 3.361-6.282c2.195-1.971 5.391-3.762 9.369-5.272 7.954-3.021 18.966-4.896 31.147-4.896Z"/><path fill="#0f766e" stroke="#f0fdfa" stroke-width=".683" d="M298.574 148.204v11.301c0 1.965-1.097 3.881-3.179 5.667-2.082 1.785-5.115 3.408-8.891 4.777-7.551 2.739-18.004 4.439-29.567 4.439-11.564 0-22.018-1.7-29.569-4.439-3.776-1.369-6.809-2.992-8.89-4.777-2.083-1.786-3.18-3.702-3.18-5.667v-11.301z"/><path fill="#f0fdfa" stroke="#0d9488" stroke-width=".683" d="M300.814 138.112v14.909c0 2.085-1.16 4.116-3.356 6.006-2.195 1.889-5.391 3.605-9.37 5.054-7.956 2.895-18.97 4.693-31.151 4.693s-23.195-1.798-31.151-4.693c-3.979-1.449-7.176-3.165-9.371-5.054s-3.355-3.921-3.355-6.006v-14.909z"/><path fill="#f0fdfa" stroke="#0d9488" stroke-width=".683" d="M256.937 120.2c12.18 0 23.192 1.875 31.146 4.895 3.978 1.511 7.175 3.302 9.37 5.273s3.361 4.095 3.361 6.282-1.166 4.311-3.361 6.282-5.392 3.762-9.37 5.273c-7.954 3.02-18.966 4.895-31.146 4.895s-23.193-1.875-31.147-4.895c-3.978-1.511-7.174-3.302-9.369-5.273-2.196-1.971-3.361-4.095-3.361-6.282s1.165-4.311 3.361-6.282c2.195-1.971 5.391-3.762 9.369-5.273 7.954-3.02 18.966-4.895 31.147-4.895Z"/><g clip-path="url(#e)"><path fill="#fff" d="m245.62 125.81-5.409 3.871a8.32 8.32 0 0 0-3.836 6.692s-.047.967-.023 1.457a6.78 6.78 0 0 0 3.882 5.911h4.512l.105.641h8.51a3 3 0 0 0 1.772-.641h4.232a3.06 3.06 0 0 0 1.714.606h8.511l.093-.606h4.162a6.79 6.79 0 0 0 3.882-5.911 13.4 13.4 0 0 0-.14-2.367l-.058-.338-.035-.21a8.12 8.12 0 0 0-3.614-5.223l-4.978-3.555-2.332-5.06-.618-.513a12.76 12.76 0 0 1-5.631 1.947l-6.167.035a12.76 12.76 0 0 1-5.631-1.947c-.14.128-.35.303-.618.513 0 0-2.25 4.698-2.262 4.71"/><path stroke="#0d9488" stroke-linejoin="round" stroke-width=".699" d="m245.62 125.81-5.409 3.871a8.32 8.32 0 0 0-3.836 6.692s-.047.967-.023 1.457a6.78 6.78 0 0 0 3.882 5.911h4.512l.105.641h8.51a3 3 0 0 0 1.772-.641h4.232a3.06 3.06 0 0 0 1.714.606h8.511l.093-.606h4.162a6.79 6.79 0 0 0 3.882-5.911 13.4 13.4 0 0 0-.14-2.367l-.058-.338-.035-.21a8.12 8.12 0 0 0-3.614-5.223l-4.978-3.555-2.332-5.06-.618-.513a12.76 12.76 0 0 1-5.631 1.947l-6.167.035a12.76 12.76 0 0 1-5.631-1.947c-.14.128-.35.303-.618.513 0 0-2.25 4.698-2.262 4.71"/><path fill="#fff" stroke="#0d9488" stroke-linejoin="round" stroke-width=".699" d="M265.918 120.541c.14.128.35.303.618.513 1.317 1.737 2.261 4.71 2.261 4.71l.77 3.87a8.6 8.6 0 0 1 1.55 4.64l-.128.863-1.364 8.86-.058.338h-8.511a3 3 0 0 1-1.947-.769 1.5 1.5 0 0 1-.198-.187 3.41 3.41 0 0 1-.781-3.45l1.807-4.209c.233-.431.35-.921.35-1.411v-1.061c-.035.012-.07.024-.105.047a4 4 0 0 1-1.422.268h-3.09a3.9 3.9 0 0 1-1.55-.315v1.108c0 .489.116.979.349 1.411l1.807 4.208c.117.362.164.746.175 1.119 0 .875-.349 1.702-.956 2.332-.058.07-.128.128-.198.187a3 3 0 0 1-1.947.769h-8.51l-.059-.338-1.364-8.86-.128-.863a8.6 8.6 0 0 1 1.551-4.64l.769-3.871c.012-.011.245-1.83 2.262-4.71.268-.221.478-.396.618-.513a12.8 12.8 0 0 0 5.631 1.947h6.144v-.035h.023a12.75 12.75 0 0 0 5.631-1.947z"/><path fill="#fff" stroke="#0d9488" stroke-linejoin="round" stroke-width=".699" d="m280.595 112.636-.198-.373c-2.879-5.083-10.481-15.913-23.188-15.913-12.708 0-20.309 10.83-23.188 15.913a8.74 8.74 0 0 0-.887 6.436c.257 1.095.653 2.191 1.341 3.101.595.781 1.527 1.504 2.355 1.888 2.32 1.038 4.64.758 6.599.047 1.947-.711 3.556-1.865 4.465-2.612l.186-.151a9.7 9.7 0 0 0 5.561 1.737h7.182c2.052 0 3.952-.63 5.526-1.714.047.047.105.082.163.128.91.747 2.518 1.901 4.465 2.612s4.279 1.003 6.599-.035c.828-.385 1.679-.956 2.355-1.9.664-.933 1.084-2.006 1.341-3.101a8.74 8.74 0 0 0-.688-6.063z"/><path fill="#0d9488" d="M248.116 120.564c-3.591-2.402-4.524-6.529-4.524-11.029 0 0 .152-1.107.315-1.609.117-.349.233-.664.327-.979-2.577.187-4.78 1.877-6.389 4.453-1.702 2.717-2.705 6.366-2.74 10.038a.34.34 0 0 1-.245.327h-.093c.525.746 1.213 1.352 2.029 1.725 2.296 1.026 4.593.746 6.517.047 1.923-.7 3.509-1.842 4.418-2.577.175-.14.303-.256.42-.361-.012 0-.024-.012-.047-.023zm31.173 1.049c-.035-3.719-1.049-7.403-2.774-10.166-1.632-2.6-3.859-4.313-6.471-4.5.105.315.222.641.338.991.164.501.315 1.061.315 1.632 0 4.559-.944 8.732-4.582 11.169-.011 0-.023.011-.046.023.116.105.256.222.431.373.91.746 2.518 1.9 4.465 2.612 1.947.711 4.279 1.002 6.599-.035.828-.385 1.527-1.003 2.063-1.761-.035 0-.07.012-.104 0a.36.36 0 0 1-.257-.338zm-14.864-9.967a.72.72 0 0 0-.536.221 1.46 1.46 0 0 0-.35 1.014c-.011.373.117.723.362 1.003.14.14.326.221.513.221a.77.77 0 0 0 .536-.221 1.45 1.45 0 0 0 .35-1.003 1.47 1.47 0 0 0-.362-1.014.73.73 0 0 0-.513-.221m-12.859.233a.74.74 0 0 0-.513-.233.77.77 0 0 0-.536.221c-.245.268-.373.63-.361 1.003a1.4 1.4 0 0 0 .349 1.002c.14.152.327.222.513.233a.77.77 0 0 0 .537-.221 1.58 1.58 0 0 0 0-2.005z"/><path fill="#fff" d="M261.23 114.84v6.004c0 .501.198.979.56 1.34.361.362.828.56 1.341.56a3.513 3.513 0 0 1 3.509 3.509 3.513 3.513 0 0 1-3.509 3.509c-1.936 0-4.617-.921-6.296-2.611a8.85 8.85 0 0 1-2.611-6.296v-6.004"/><path stroke="#0d9488" stroke-linecap="round" stroke-linejoin="round" stroke-width=".699" d="M261.23 114.84v6.004c0 .501.198.979.56 1.34.361.362.828.56 1.341.56a3.513 3.513 0 0 1 3.509 3.509 3.513 3.513 0 0 1-3.509 3.509c-1.936 0-4.617-.921-6.296-2.611a8.85 8.85 0 0 1-2.611-6.296v-6.004"/></g><g filter="url(#f)"><rect width="433" height="40" x="35" y="37.8" fill="#f9fafb" rx="8"/><rect width="432" height="39" x="35.5" y="38.3" stroke="#e5e7eb" rx="7.5"/><g filter="url(#g)"><circle cx="51" cy="56.8" r="3" fill="#0f766e"/><circle cx="51" cy="56.8" r="2.689" stroke="#e5e7eb" stroke-width=".621"/></g><path fill="#6b7280" d="M72.92 62.6v-7.3h.9v1.05H74l-.18.21q0-.63.41-.99.42-.37 1.1-.37.83 0 1.32.55.5.54.5 1.49v1.61q0 .63-.23 1.09a1.64 1.64 0 0 1-.63.71q-.4.25-.96.25-.67 0-1.09-.37t-.42-.99l.18.21h-.2l.02 1.25v1.6zm2.11-2.48q.57 0 .89-.34.33-.34.33-.98v-1.5q0-.64-.33-.98-.32-.34-.89-.34-.55 0-.88.35t-.33.97v1.5q0 .62.33.97t.88.35m5.966.76q-.66 0-1.14-.25a1.8 1.8 0 0 1-.75-.72q-.26-.48-.26-1.13v-1.46q0-.66.26-1.13.27-.47.75-.72t1.14-.25 1.14.25.74.72q.27.47.27 1.12v1.47q0 .65-.27 1.13-.26.47-.74.72t-1.14.25m0-.8q.59 0 .92-.33t.33-.97v-1.46q0-.64-.33-.97t-.92-.33q-.58 0-.92.33-.33.33-.33.97v1.46q0 .64.33.97.34.33.92.33m5.826.8a2.6 2.6 0 0 1-.98-.17 1.7 1.7 0 0 1-.66-.5 1.53 1.53 0 0 1-.29-.76h.9q.06.29.32.46.27.17.71.17h.42q.53 0 .79-.21a.72.72 0 0 0 .26-.58.68.68 0 0 0-.24-.55q-.23-.21-.69-.28l-.74-.12q-.81-.14-1.21-.5-.39-.37-.39-1.07 0-.74.47-1.14.47-.41 1.41-.41h.38q.79 0 1.27.37t.58 1h-.9a.64.64 0 0 0-.3-.41q-.24-.16-.65-.16h-.38q-.51 0-.75.19-.23.19-.23.57 0 .34.2.5t.63.23l.74.12q.89.14 1.29.52.41.38.41 1.1 0 .76-.49 1.2-.48.43-1.46.43zm6.766-.08q-.71 0-1.11-.38-.39-.38-.39-1.07v-3.23h-1.55v-.82h1.55v-1.55h.9v1.55h2.2v.82h-2.2v3.23q0 .63.6.63h1.5v.82zm4.006 1.8v-.82h1.75q.42 0 .61-.19.2-.19.2-.59v-.7l.02-1h-.18l.17-.15q0 .6-.4.95t-1.07.35q-.85 0-1.34-.55-.49-.56-.49-1.5v-1.16q0-.94.49-1.49t1.34-.55q.67 0 1.07.35t.4.95l-.17-.15h.17V55.3h.89V61q0 .74-.46 1.17-.45.43-1.26.43zm1.37-2.93q.56 0 .88-.35t.32-.97V57.3q0-.62-.32-.97t-.88-.35q-.57 0-.89.34-.31.34-.31.98v1.05q0 .64.31.98.32.34.89.34m4.126 1.13v-5.5h.88v1.05h.21l-.29.65q0-.89.38-1.34.39-.46 1.15-.46.87 0 1.38.55.52.54.52 1.47v.33h-.9v-.25q0-.65-.32-.99-.31-.35-.89-.35-.57 0-.9.35-.32.35-.32.99v3.5zm7.887.1q-.651 0-1.14-.26a1.9 1.9 0 0 1-.75-.73q-.26-.48-.26-1.11v-1.5q0-.64.26-1.11.27-.47.75-.73.489-.26 1.14-.26t1.13.26q.489.26.75.73.27.47.27 1.11v.97h-3.42v.53q0 .65.33 1 .33.34.94.34.519 0 .84-.18a.8.8 0 0 0 .39-.56h.9q-.09.69-.68 1.1-.58.4-1.45.4m1.27-3.23v-.37q0-.65-.33-1-.32-.35-.94-.35-.61 0-.94.35t-.33 1v.29h2.61zm4.556 3.21q-.56 0-.98-.17a1.66 1.66 0 0 1-.66-.5 1.5 1.5 0 0 1-.29-.76h.9q.06.29.32.46.27.17.71.17h.42q.53 0 .79-.21a.72.72 0 0 0 .26-.58.68.68 0 0 0-.24-.55q-.231-.21-.69-.28l-.74-.12q-.81-.14-1.21-.5-.39-.37-.39-1.07 0-.74.47-1.14.47-.41 1.41-.41h.38q.79 0 1.27.37t.58 1h-.9a.64.64 0 0 0-.3-.41q-.24-.16-.65-.16h-.38q-.51 0-.75.19-.23.19-.23.57 0 .34.2.5t.63.23l.74.12q.89.14 1.29.52.41.38.41 1.1 0 .76-.49 1.2-.48.43-1.46.43zm6.166-4.18q-.37 0-.6-.2a.7.7 0 0 1-.23-.55q0-.34.23-.54.23-.21.6-.21.38 0 .6.21a.68.68 0 0 1 .23.54.71.71 0 0 1-.23.55q-.22.2-.6.2m0 4.2q-.37 0-.6-.2a.7.7 0 0 1-.23-.55q0-.34.23-.54.23-.21.6-.21.38 0 .6.21a.68.68 0 0 1 .23.54.71.71 0 0 1-.23.55q-.22.2-.6.2m8.992 1 3.55-9.4h.95l-3.55 9.4zm-4.5 0 3.55-9.4h.95l-3.55 9.4zm11.396-1.1v-.82h1.98v-5.73l-1.98 1.48v-1l1.65-1.23h1.23v6.48h1.62v.82zm6.016 0v-.92l2.23-2.37q.57-.61.83-1.08.26-.48.26-.92 0-.61-.34-.96-.33-.35-.91-.35-.64 0-1.01.36-.36.36-.36.99h-.9q.02-.66.3-1.14.29-.49.79-.75.51-.26 1.18-.26.66 0 1.14.26.49.25.75.72t.26 1.12q0 .62-.33 1.23t-1.08 1.39l-1.8 1.86h3.33v.82zm8.076.1q-.65 0-1.14-.26a1.9 1.9 0 0 1-.75-.73q-.26-.48-.26-1.11v-1.5q0-.64.26-1.11.27-.47.75-.73a2.4 2.4 0 0 1 1.14-.26q.65 0 1.13.26.49.26.75.73.27.47.27 1.11v.97h-3.42v.53q0 .65.33 1 .33.34.94.34.52 0 .84-.18a.79.79 0 0 0 .39-.56h.9a1.53 1.53 0 0 1-.68 1.1q-.58.4-1.45.4m1.27-3.23v-.37q0-.65-.33-1-.32-.35-.94-.35-.61 0-.94.35t-.33 1v.29h2.61zm4.706 3.23q-.89 0-1.46-.46t-.67-1.24h.9q.05.43.37.67.321.23.87.23.63 0 .94-.34.32-.34.32-.96v-.71q0-.62-.32-.96-.309-.34-.93-.34-.39 0-.68.21a1.13 1.13 0 0 0-.42.54h-.9l.05-4.04h3.84v.82h-2.97l-.03 2.43h.28l-.28.26q0-.47.37-.74.38-.27 1.01-.27.891-.01 1.38.55.5.55.5 1.54v.71q0 .97-.57 1.54-.57.56-1.6.56m5.696 0q-.82 0-1.33-.55-.5-.55-.5-1.49v-1.61q0-.95.5-1.5t1.33-.55q.68 0 1.09.37t.41.99l-.18-.21h.2l-.02-1.25v-1.6h.9v7.3h-.9v-1.05h-.18l.18-.21q0 .63-.41 1-.41.36-1.09.36m.3-.78q.56 0 .88-.35t.32-.97v-1.5q0-.62-.32-.97t-.88-.35q-.57 0-.9.34t-.33.98v1.5q0 .64.33.98t.9.34m5.537.78q-.87 0-1.37-.44-.5-.45-.5-1.21 0-.77.5-1.21t1.35-.44h1.7v-.55q0-.51-.31-.78-.3-.28-.86-.28-.49 0-.82.21a.75.75 0 0 0-.38.55h-.9q.09-.71.67-1.13t1.45-.42q.95 0 1.5.49t.55 1.33v3.78h-.88v-1.05h-.15l.15-.15q0 .6-.47.95-.46.35-1.23.35m.22-.71q.639 0 1.05-.32a1 1 0 0 0 .41-.82v-.78h-1.68q-.45 0-.71.25t-.26.68q0 .46.31.73.32.26.88.26m5.776.71q-.87 0-1.37-.44-.5-.45-.5-1.21 0-.77.5-1.21t1.35-.44h1.7v-.55q0-.51-.31-.78-.3-.28-.86-.28-.49 0-.82.21a.75.75 0 0 0-.38.55h-.9q.09-.71.67-1.13t1.45-.42q.95 0 1.5.49t.55 1.33v3.78h-.88v-1.05h-.15l.15-.15q0 .6-.47.95-.46.35-1.23.35m.22-.71q.639 0 1.05-.32a1 1 0 0 0 .41-.82v-.78h-1.68q-.45 0-.71.25t-.26.68q0 .46.31.73.32.26.88.26m6.236.71q-.89 0-1.46-.46t-.67-1.24h.9a.93.93 0 0 0 .37.67q.32.23.87.23.63 0 .94-.34.32-.34.32-.96v-.71q0-.62-.32-.96-.31-.34-.93-.34-.39 0-.68.21a1.12 1.12 0 0 0-.42.54h-.9l.05-4.04h3.84v.82h-2.97l-.03 2.43h.28l-.28.26q0-.47.37-.74.38-.27 1.01-.27.89-.01 1.38.55.5.55.5 1.54v.71q0 .97-.57 1.54-.57.56-1.6.56m6.016-4.2q-.37 0-.6-.2a.7.7 0 0 1-.23-.55q0-.34.23-.54.23-.21.6-.21.38 0 .6.21a.68.68 0 0 1 .23.54.71.71 0 0 1-.23.55q-.22.2-.6.2m0 4.2q-.37 0-.6-.2a.7.7 0 0 1-.23-.55q0-.34.23-.54.23-.21.6-.21.38 0 .6.21a.68.68 0 0 1 .23.54.71.71 0 0 1-.23.55q-.22.2-.6.2m5.826-.02a2.6 2.6 0 0 1-.98-.17 1.7 1.7 0 0 1-.66-.5 1.5 1.5 0 0 1-.29-.76h.9q.06.29.32.46.27.17.71.17h.42q.53 0 .79-.21a.72.72 0 0 0 .26-.58.68.68 0 0 0-.24-.55q-.23-.21-.69-.28l-.74-.12q-.81-.14-1.21-.5-.39-.37-.39-1.07 0-.74.47-1.14.47-.41 1.41-.41h.38q.79 0 1.27.37t.58 1h-.9a.64.64 0 0 0-.3-.41q-.24-.16-.65-.16h-.38q-.51 0-.75.19-.23.19-.23.57 0 .34.2.5t.63.23l.74.12q.89.14 1.29.52.41.38.41 1.1 0 .76-.49 1.2-.48.43-1.46.43zm4.116-.08v-7.3h.9v4.07h1.06l1.6-2.27h1.03l-1.85 2.62 1.88 2.88h-1.05l-1.6-2.45h-1.07v2.45zm5.646 1v-.75h4.8v.75zm6.326-1v-7.3h.9v3.12h2.34V53.5h.9v7.3h-.9v-3.36h-2.34v3.36zm7.896.08a2.6 2.6 0 0 1-.98-.17 1.7 1.7 0 0 1-.66-.5 1.53 1.53 0 0 1-.29-.76h.9q.06.29.32.46.27.17.71.17h.42q.53 0 .79-.21a.72.72 0 0 0 .26-.58.68.68 0 0 0-.24-.55q-.23-.21-.69-.28l-.74-.12q-.81-.14-1.21-.5-.39-.37-.39-1.07 0-.74.47-1.14.471-.41 1.41-.41h.38q.79 0 1.27.37t.58 1h-.9a.64.64 0 0 0-.3-.41q-.24-.16-.65-.16h-.38q-.51 0-.75.19-.23.19-.23.57 0 .34.2.5.201.16.63.23l.74.12q.891.14 1.29.52.41.38.41 1.1 0 .76-.49 1.2-.48.43-1.46.43zm4.166-.08v-7.3h4.2v.82h-3.31v2.26h2.96v.81h-2.96v2.59h3.31v.82zm8.036.1q-.66 0-1.16-.25a1.8 1.8 0 0 1-.76-.72q-.27-.48-.27-1.13v-1.5q0-.66.27-1.13t.76-.72q.5-.25 1.16-.25.951 0 1.53.51t.61 1.39h-.9q-.03-.53-.36-.81-.32-.29-.88-.29-.59 0-.94.34-.35.33-.35.95v1.51q0 .62.35.96t.94.34q.56 0 .88-.29.33-.29.36-.81h.9q-.03.88-.61 1.39-.579.51-1.53.51m4.827-.1 2.07-3.32-.04-.03q-.19.28-.52.43t-.74.15q-.59 0-1.04-.28a1.83 1.83 0 0 1-.68-.79q-.24-.52-.24-1.21 0-.71.29-1.23.29-.53.81-.82.52-.3 1.21-.3.7 0 1.22.3.53.29.82.82.29.52.29 1.23 0 .55-.16 1.08-.15.53-.46 1.02l-1.83 2.95zm1.13-3.5q.64 0 1.03-.42.39-.43.39-1.13t-.39-1.12q-.39-.43-1.03-.43t-1.03.43q-.39.42-.39 1.12t.39 1.13q.39.42 1.03.42m6.746 3.5q-.48 0-.84-.19a1.36 1.36 0 0 1-.56-.54 1.6 1.6 0 0 1-.2-.82v-4.93h-1.85v-.82h2.75v5.75q0 .34.19.54.189.19.51.19h1.75v.82zm3.176 0v-7.3h.9v3.12h2.34V53.5h.9v7.3h-.9v-3.36h-2.34v3.36zm8.316 1.8q-.85 0-1.48-.36a2.4 2.4 0 0 1-.98-1.01q-.34-.65-.34-1.53v-3.4q0-.9.32-1.55.33-.65.93-1 .61-.35 1.45-.35.76 0 1.31.3.549.29.84.84.3.55.3 1.31v4.3h-.71v-.55h-.28l.19-.2q0 .38-.29.62-.29.23-.77.23-.65 0-1-.39-.34-.4-.34-1.16v-1.2q0-.76.34-1.15.35-.4 1-.4.48 0 .77.24.29.23.29.62l-.14-.21h.24l-.1-.7v-.05q0-.57-.19-.96a1.3 1.3 0 0 0-.56-.59q-.36-.2-.9-.2-.9 0-1.4.58t-.5 1.62v3.4q0 1 .53 1.57.54.58 1.47.58h.7v.75zm.75-2.98q.41 0 .6-.25.2-.25.2-.77v-1.11q0-.47-.2-.69-.19-.22-.6-.22-.4 0-.6.23-.2.22-.2.69v1.2q0 .47.2.7.2.22.6.22m4.676 1.28q-.82 0-1.33-.55-.5-.55-.5-1.49v-1.61q0-.95.5-1.5t1.33-.55q.68 0 1.09.37t.41.99l-.18-.21h.2l-.02-1.25v-1.6h.9v7.3h-.9v-1.05h-.18l.18-.21q0 .63-.41 1-.41.36-1.09.36m.3-.78q.56 0 .88-.35t.32-.97v-1.5q0-.62-.32-.97t-.88-.35q-.57 0-.9.34t-.33.98v1.5q0 .64.33.98t.9.34m6.336.78q-.68 0-1.09-.36-.41-.37-.41-1l.18.21h-.18v1.05h-.9v-7.3h.9v1.6l-.02 1.25h.2l-.18.21q0-.62.41-.99.42-.37 1.09-.37.83 0 1.33.55t.5 1.5v1.61q0 .94-.5 1.49t-1.33.55m-.3-.78q.57 0 .9-.34t.33-.98v-1.5q0-.64-.33-.98t-.9-.34q-.55 0-.88.35-.32.35-.32.97v1.5q0 .62.32.97.33.35.88.35m5.976.78q-.38 0-.61-.22-.22-.22-.22-.59 0-.39.22-.62.23-.23.61-.23t.6.23q.23.23.23.62 0 .37-.23.59-.22.22-.6.22m3.916 1.7v-7.3h.9v1.05h.18l-.18.21q0-.63.41-.99.42-.37 1.1-.37.831 0 1.32.55.5.54.5 1.49v1.61q0 .63-.23 1.09a1.63 1.63 0 0 1-.63.71q-.399.25-.96.25-.67 0-1.09-.37t-.42-.99l.18.21h-.2l.02 1.25v1.6zm2.11-2.48q.57 0 .89-.34.33-.34.33-.98v-1.5q0-.64-.33-.98-.32-.34-.89-.34-.55 0-.88.35t-.33.97v1.5q0 .62.33.97t.88.35m4.076.68v-5.5h.88v1.05h.21l-.29.65q0-.89.38-1.34.39-.46 1.15-.46.87 0 1.38.55.52.54.52 1.47v.33h-.9v-.25q0-.65-.32-.99-.31-.35-.89-.35-.57 0-.9.35-.32.35-.32.99v3.5zm5.736 0v-.82h1.95v-3.86h-1.7v-.82h2.6v4.68h1.85v.82zm2.3-6.49q-.33 0-.52-.17a.59.59 0 0 1-.19-.46.6.6 0 0 1 .19-.47q.19-.18.52-.18t.52.18q.19.17.19.47a.59.59 0 0 1-.19.46q-.19.17-.52.17m5.676 6.57a2.6 2.6 0 0 1-.98-.17 1.7 1.7 0 0 1-.66-.5 1.53 1.53 0 0 1-.29-.76h.9q.06.29.32.46.27.17.71.17h.42q.53 0 .79-.21a.72.72 0 0 0 .26-.58.68.68 0 0 0-.24-.55q-.23-.21-.69-.28l-.74-.12q-.81-.14-1.21-.5-.39-.37-.39-1.07 0-.74.47-1.14.471-.41 1.41-.41h.38q.79 0 1.27.37t.58 1h-.9a.64.64 0 0 0-.3-.41q-.24-.16-.65-.16h-.38q-.51 0-.75.19-.23.19-.23.57 0 .34.2.5.201.16.63.23l.74.12q.891.14 1.29.52.41.38.41 1.1 0 .76-.49 1.2-.48.43-1.46.43zm3.827-.08v-5.5h.79v.66h.18l-.14.24q0-.46.24-.73.25-.27.67-.27.46 0 .71.34t.25.96l-.27-.54h.42l-.19.24q0-.46.25-.73.26-.27.68-.27.52 0 .8.39.29.39.29 1.03v4.18h-.83v-4.19q0-.34-.15-.53-.141-.19-.42-.19a.53.53 0 0 0-.43.19q-.15.18-.15.52v4.2h-.72v-4.19q0-.35-.16-.53a.52.52 0 0 0-.43-.19q-.28 0-.42.19-.14.18-.14.52v4.2zm7.856.1q-.87 0-1.37-.44-.5-.45-.5-1.21 0-.77.5-1.21t1.35-.44h1.7v-.55q0-.51-.31-.78-.3-.28-.86-.28-.49 0-.82.21a.75.75 0 0 0-.38.55h-.9q.09-.71.67-1.13t1.45-.42q.95 0 1.5.49t.55 1.33v3.78h-.88v-1.05h-.15l.15-.15q0 .6-.47.95-.46.35-1.23.35m.22-.71q.639 0 1.05-.32a1 1 0 0 0 .41-.82v-.78h-1.68q-.45 0-.71.25t-.26.68q0 .46.31.73.32.26.88.26m6.256.71q-.38 0-.61-.22-.22-.22-.22-.59 0-.39.22-.62.23-.23.61-.23t.6.23q.23.23.23.62 0 .37-.23.59-.22.22-.6.22m3.846-.1v-.82h1.95v-3.86h-1.7v-.82h2.6v4.68h1.85v.82zm2.3-6.49q-.33 0-.52-.17a.59.59 0 0 1-.19-.46q0-.3.19-.47.19-.18.52-.18t.52.18q.19.17.19.47a.59.59 0 0 1-.19.46q-.19.17-.52.17m5.846 6.57q-.66 0-1.14-.25a1.8 1.8 0 0 1-.75-.72q-.26-.48-.26-1.13v-1.46q0-.66.26-1.13.27-.47.75-.72t1.14-.25 1.14.25.74.72q.27.47.27 1.12v1.47q0 .65-.27 1.13a1.75 1.75 0 0 1-.74.72q-.48.25-1.14.25m0-.8q.59 0 .92-.33t.33-.97v-1.46q0-.64-.33-.97t-.92-.33q-.58 0-.92.33-.33.33-.33.97v1.46q0 .64.33.97.34.33.92.33m5.996-3.38q-.37 0-.6-.2a.71.71 0 0 1-.23-.55.68.68 0 0 1 .23-.54q.23-.21.6-.21.38 0 .6.21a.68.68 0 0 1 .23.54.71.71 0 0 1-.23.55q-.22.2-.6.2m0 4.2q-.37 0-.6-.2a.71.71 0 0 1-.23-.55.68.68 0 0 1 .23-.54q.23-.21.6-.21.38 0 .6.21a.68.68 0 0 1 .23.54.71.71 0 0 1-.23.55q-.22.2-.6.2m5.976 0q-.89 0-1.46-.46t-.67-1.24h.9q.05.43.37.67.32.23.87.23.63 0 .94-.34.32-.34.32-.96v-.71q0-.62-.32-.96-.31-.34-.93-.34-.39 0-.68.21a1.13 1.13 0 0 0-.42.54h-.9l.05-4.04h3.84v.82h-2.97l-.03 2.43h.28l-.28.26q0-.47.37-.74.38-.27 1.01-.27.89-.01 1.38.55.5.55.5 1.54v.71q0 .97-.57 1.54-.57.56-1.6.56m7.116-.1v-1.6h-3.3v-1.41l2.89-4.29h.98l-2.97 4.48v.4h2.4V56.6h.9v4.2zm4.786.1a2.5 2.5 0 0 1-1.16-.26 1.94 1.94 0 0 1-.76-.74 2.17 2.17 0 0 1-.27-1.1h.9q0 .61.34.96.351.34.96.34.621 0 .96-.36.34-.36.34-.94v-.52q0-.62-.34-.96-.339-.34-.96-.34h-.75v-.9l1.81-1.76h-2.96v-.82h3.87v.9l-1.95 1.89v-.11q1 0 1.59.57t.59 1.53v.52q0 .63-.28 1.1-.27.47-.77.74-.5.26-1.16.26m4.026-.1v-.92l2.23-2.37q.57-.61.83-1.08.26-.48.26-.92 0-.61-.34-.96-.33-.35-.91-.35-.64 0-1.01.36-.36.36-.36.99h-.9q.021-.66.3-1.14.29-.49.79-.75.51-.26 1.18-.26.66 0 1.14.26.49.25.75.72t.26 1.12q0 .62-.33 1.23t-1.08 1.39l-1.8 1.86h3.33v.82zm5.827 1.1 3.55-9.4h.95l-3.55 9.4zm6.166.7v-7.3h.9v1.05h.18l-.18.21q0-.63.41-.99.42-.37 1.1-.37.83 0 1.32.55.5.54.5 1.49v1.61q0 .63-.23 1.09a1.64 1.64 0 0 1-.63.71q-.4.25-.96.25-.67 0-1.09-.37t-.42-.99l.18.21h-.2l.02 1.25v1.6zm2.11-2.48q.57 0 .89-.34.33-.34.33-.98v-1.5q0-.64-.33-.98-.32-.34-.89-.34-.55 0-.88.35t-.33.97v1.5q0 .62.33.97t.88.35m5.966.76q-.66 0-1.14-.25a1.8 1.8 0 0 1-.75-.72q-.26-.48-.26-1.13v-1.46q0-.66.26-1.13.27-.47.75-.72t1.14-.25 1.14.25.74.72q.27.47.27 1.12v1.47q0 .65-.27 1.13-.26.47-.74.72t-1.14.25m0-.8q.59 0 .92-.33t.33-.97v-1.46q0-.64-.33-.97t-.92-.33q-.58 0-.92.33-.33.33-.33.97v1.46q0 .64.33.97.34.33.92.33m5.826.8q-.56 0-.98-.17a1.66 1.66 0 0 1-.66-.5 1.5 1.5 0 0 1-.29-.76h.9q.06.29.32.46.27.17.71.17h.42q.53 0 .79-.21a.72.72 0 0 0 .26-.58.68.68 0 0 0-.24-.55q-.231-.21-.69-.28l-.74-.12q-.81-.14-1.21-.5-.39-.37-.39-1.07 0-.74.47-1.14.47-.41 1.41-.41h.38q.79 0 1.27.37t.58 1h-.9a.64.64 0 0 0-.3-.41q-.24-.16-.65-.16h-.38q-.51 0-.75.19-.23.19-.23.57 0 .34.2.5t.63.23l.74.12q.89.14 1.29.52.41.38.41 1.1 0 .76-.49 1.2-.48.43-1.46.43zm6.766-.08q-.71 0-1.11-.38-.39-.38-.39-1.07v-3.23h-1.55v-.82h1.55v-1.55h.9v1.55h2.2v.82h-2.2v3.23q0 .63.6.63h1.5v.82zm4.006 1.8v-.82h1.75q.42 0 .61-.19.2-.19.2-.59v-.7l.02-1h-.18l.17-.15q0 .6-.4.95t-1.07.35q-.85 0-1.34-.55-.49-.56-.49-1.5v-1.16q0-.94.49-1.49t1.34-.55q.67 0 1.07.35t.4.95l-.17-.15h.17V55.3h.89V61q0 .74-.46 1.17-.45.43-1.26.43zm1.37-2.93q.56 0 .88-.35t.32-.97V57.3q0-.62-.32-.97t-.88-.35q-.57 0-.89.34-.31.34-.31.98v1.05q0 .64.31.98.32.34.89.34m4.126 1.13v-5.5h.88v1.05h.21l-.29.65q0-.89.38-1.34.39-.46 1.15-.46.87 0 1.38.55.52.54.52 1.47v.33h-.9v-.25q0-.65-.32-.99-.31-.35-.89-.35-.57 0-.9.35-.32.35-.32.99v3.5zm7.886.1q-.65 0-1.14-.26a1.9 1.9 0 0 1-.75-.73q-.26-.48-.26-1.11v-1.5q0-.64.26-1.11.27-.47.75-.73a2.4 2.4 0 0 1 1.14-.26q.65 0 1.13.26.49.26.75.73.27.47.27 1.11v.97h-3.42v.53q0 .65.33 1 .33.34.94.34.52 0 .84-.18a.8.8 0 0 0 .39-.56h.9q-.09.69-.68 1.1-.58.4-1.45.4m1.27-3.23v-.37q0-.65-.33-1-.32-.35-.94-.35-.61 0-.94.35t-.33 1v.29h2.61zm4.556 3.21a2.6 2.6 0 0 1-.98-.17 1.7 1.7 0 0 1-.66-.5 1.53 1.53 0 0 1-.29-.76h.9q.06.29.32.46.27.17.71.17h.42q.53 0 .79-.21a.72.72 0 0 0 .26-.58.68.68 0 0 0-.24-.55q-.23-.21-.69-.28l-.74-.12q-.81-.14-1.21-.5-.39-.37-.39-1.07 0-.74.47-1.14.471-.41 1.41-.41h.38q.79 0 1.27.37t.58 1h-.9a.64.64 0 0 0-.3-.41q-.24-.16-.65-.16h-.38q-.51 0-.75.19-.23.19-.23.57 0 .34.2.5.201.16.63.23l.74.12q.891.14 1.29.52.41.38.41 1.1 0 .76-.49 1.2-.48.43-1.46.43z"/></g></g><path stroke="#e5e7eb" d="M12 .5h314c6.351 0 11.5 5.149 11.5 11.5v276c0 6.351-5.149 11.5-11.5 11.5H12C5.649 299.5.5 294.351.5 288V12C.5 5.649 5.649.5 12 .5Z"/><defs><linearGradient id="b" x1="169" x2="169" y1="0" y2="496" gradientUnits="userSpaceOnUse"><stop stop-color="#fff"/><stop offset="1" stop-color="#f0fdfa"/></linearGradient><linearGradient id="c" x1="90.984" x2="90.984" y1="115.681" y2="384.539" gradientUnits="userSpaceOnUse"><stop stop-color="#3f827d" stop-opacity="0"/><stop offset="1" stop-color="#71e8df"/></linearGradient><linearGradient id="d" x1="257.115" x2="257.115" y1="105.235" y2="217.946" gradientUnits="userSpaceOnUse"><stop stop-color="#3f827d" stop-opacity="0"/><stop offset="1" stop-color="#71e8df"/></linearGradient><clipPath id="a"><path fill="#fff" d="M0 12C0 5.373 5.373 0 12 0h314c6.627 0 12 5.373 12 12v276c0 6.627-5.373 12-12 12H12c-6.627 0-12-5.373-12-12z"/></clipPath><clipPath id="e"><path fill="#fff" d="M232.429 96h49.56v48.72h-49.56z"/></clipPath><filter id="f" width="443.518" height="50.518" x="29.741" y="35.922" color-interpolation-filters="sRGB" filterUnits="userSpaceOnUse"><feFlood flood-opacity="0" result="BackgroundImageFix"/><feColorMatrix in="SourceAlpha" result="hardAlpha" values="0 0 0 0 0 0 0 0 0 0 0 0 0 0 0 0 0 0 127 0"/><feOffset dy="1.223"/><feGaussianBlur stdDeviation=".951"/><feColorMatrix values="0 0 0 0 0 0 0 0 0 0 0 0 0 0 0 0 0 0 0.142849 0"/><feBlend in2="BackgroundImageFix" result="effect1_dropShadow_4246_11142"/><feColorMatrix in="SourceAlpha" result="hardAlpha" values="0 0 0 0 0 0 0 0 0 0 0 0 0 0 0 0 0 0 127 0"/><feOffset dy="3.381"/><feGaussianBlur stdDeviation="2.63"/><feColorMatrix values="0 0 0 0 0 0 0 0 0 0 0 0 0 0 0 0 0 0 0.205 0"/><feBlend in2="effect1_dropShadow_4246_11142" result="effect2_dropShadow_4246_11142"/><feBlend in="SourceGraphic" in2="effect2_dropShadow_4246_11142" result="shape"/></filter><filter id="g" width="38" height="38" x="32" y="37.8" color-interpolation-filters="sRGB" filterUnits="userSpaceOnUse"><feFlood flood-opacity="0" result="BackgroundImageFix"/><feColorMatrix in="SourceAlpha" result="hardAlpha" values="0 0 0 0 0 0 0 0 0 0 0 0 0 0 0 0 0 0 127 0"/><feOffset/><feGaussianBlur stdDeviation=".221"/><feColorMatrix values="0 0 0 0 0.254902 0 0 0 0 0.764706 0 0 0 0 0.694118 0 0 0 0.106835 0"/><feBlend in2="BackgroundImageFix" result="effect1_dropShadow_4246_11142"/><feColorMatrix in="SourceAlpha" result="hardAlpha" values="0 0 0 0 0 0 0 0 0 0 0 0 0 0 0 0 0 0 127 0"/><feOffset/><feGaussianBlur stdDeviation=".532"/><feColorMatrix values="0 0 0 0 0.254902 0 0 0 0 0.764706 0 0 0 0 0.694118 0 0 0 0.153479 0"/><feBlend in2="effect1_dropShadow_4246_11142" result="effect2_dropShadow_4246_11142"/><feColorMatrix in="SourceAlpha" result="hardAlpha" values="0 0 0 0 0 0 0 0 0 0 0 0 0 0 0 0 0 0 127 0"/><feOffset/><feGaussianBlur stdDeviation="1.002"/><feColorMatrix values="0 0 0 0 0.254902 0 0 0 0 0.764706 0 0 0 0 0.694118 0 0 0 0.19 0"/><feBlend in2="effect2_dropShadow_4246_11142" result="effect3_dropShadow_4246_11142"/><feColorMatrix in="SourceAlpha" result="hardAlpha" values="0 0 0 0 0 0 0 0 0 0 0 0 0 0 0 0 0 0 127 0"/><feOffset/><feGaussianBlur stdDeviation="1.787"/><feColorMatrix values="0 0 0 0 0.254902 0 0 0 0 0.764706 0 0 0 0 0.694118 0 0 0 0.226521 0"/><feBlend in2="effect3_dropShadow_4246_11142" result="effect4_dropShadow_4246_11142"/><feColorMatrix in="SourceAlpha" result="hardAlpha" values="0 0 0 0 0 0 0 0 0 0 0 0 0 0 0 0 0 0 127 0"/><feOffset/><feGaussianBlur stdDeviation="3.342"/><feColorMatrix values="0 0 0 0 0.254902 0 0 0 0 0.764706 0 0 0 0 0.694118 0 0 0 0.273165 0"/><feBlend in2="effect4_dropShadow_4246_11142" result="effect5_dropShadow_4246_11142"/><feColorMatrix in="SourceAlpha" result="hardAlpha" values="0 0 0 0 0 0 0 0 0 0 0 0 0 0 0 0 0 0 127 0"/><feOffset/><feGaussianBlur stdDeviation="8"/><feColorMatrix values="0 0 0 0 0.254902 0 0 0 0 0.764706 0 0 0 0 0.694118 0 0 0 0.38 0"/><feBlend in2="effect5_dropShadow_4246_11142" result="effect6_dropShadow_4246_11142"/><feBlend in="SourceGraphic" in2="effect6_dropShadow_4246_11142" result="shape"/></filter></defs></svg>