<svg xmlns="http://www.w3.org/2000/svg" width="512" height="294" fill="none" viewBox="0 0 512 294"><rect width="511.349" height="293.4" fill="#fff" rx="7.2"/><path fill="#f9fafb" d="M0 5.4A5.4 5.4 0 0 1 5.4 0h54v293.4h-54A5.4 5.4 0 0 1 0 288z"/><g clip-path="url(#a)"><path fill="#6b7280" d="M34.65 21.6h-8.1l-1.35 1.35V27h-4.05l-1.35 1.35v13.563l1.35 1.287h10.864l1.287-1.287V37.8h4.23l1.17-1.287V25.65zm0 1.908 2.143 2.142H34.65zm-2.7 18.342h-10.8v-13.5h4.05v8.163l1.35 1.287h5.4zm5.4-5.4h-10.8v-13.5h6.75V27h4.05z"/></g><g stroke="#6b7280" stroke-linecap="round" stroke-linejoin="round" stroke-width="1.8" clip-path="url(#b)"><path d="M28.802 81.9a7.2 7.2 0 1 0 0-14.4 7.2 7.2 0 0 0 0 14.4m9 1.8-3.915-3.915"/></g><g clip-path="url(#c)"><path fill="#6b7280" d="M36.912 116.192a3.364 3.364 0 0 0-6.488-1.263 3.363 3.363 0 0 0 2.162 4.469 2.69 2.69 0 0 1-2.4 1.503h-2.691a4 4 0 0 0-2.69 1.049v-6.499a3.366 3.366 0 0 0 2.673-3.633 3.365 3.365 0 0 0-5.602-2.157 3.364 3.364 0 0 0 1.583 5.79v8.206a3.4 3.4 0 1 0 1.634.089 2.7 2.7 0 0 1 .988-1.091 2.7 2.7 0 0 1 1.414-.409h2.69a4.04 4.04 0 0 0 3.802-2.735 3.364 3.364 0 0 0 2.924-3.319m-14.798-4.035a2.02 2.02 0 0 1 2.411-1.98 2.01 2.01 0 0 1 1.586 1.586 2.02 2.02 0 0 1-1.98 2.411 2.016 2.016 0 0 1-2.017-2.017m4.035 14.797a2.019 2.019 0 1 1-4.037 0 2.019 2.019 0 0 1 4.038 0m7.4-8.744a2.015 2.015 0 0 1-1.98-2.411 2.02 2.02 0 0 1 1.586-1.586 2.01 2.01 0 0 1 2.071.858 2.018 2.018 0 0 1-1.678 3.139"/></g><g fill="#6b7280" clip-path="url(#d)"><path d="m22.018 164.467-.004-.063zm6.537.622-2.73-2.745.912-.913 2.888 2.903 2.846-2.847.913.913-2.73 2.731 2.73 2.745-.912.912-2.888-2.902-2.847 2.846-.913-.912z"/><path fill-rule="evenodd" d="M34.14 157.395v.898h1.211l2.558-2.558.913.913-2.422 2.422.029.076c.51 1.33.797 2.831.797 4.421q0 .453-.03.895l-.006.068h3.187v1.291h-3.349l-.01.051c-.271 1.488-.8 2.845-1.522 3.987l-.053.085 3.08 3.095-.915.911-2.947-2.962-.089.1c-1.331 1.489-3.056 2.381-4.935 2.381-1.908 0-3.657-.92-4.996-2.451l-.089-.101-2.887 2.888-.913-.913 3.029-3.029-.053-.085c-.695-1.125-1.206-2.453-1.472-3.906l-.01-.051H18.9v-1.291h3.184l-.004-.068a13 13 0 0 1-.03-.895c0-1.569.279-3.052.776-4.369l.029-.076-2.486-2.498.916-.91 2.565 2.579h1.285v-.898a4.503 4.503 0 0 1 9.005 0m-7.714 0v.898h6.423v-.898a3.212 3.212 0 0 0-6.423 0m8.82 2.27-.032-.081H24.06l-.03.081a11.1 11.1 0 0 0-.69 3.902c0 2.484.776 4.681 1.966 6.227 1.188 1.545 2.732 2.384 4.331 2.384s3.144-.839 4.332-2.384c1.19-1.546 1.966-3.743 1.966-6.227 0-1.417-.253-2.74-.69-3.902" clip-rule="evenodd"/></g><g clip-path="url(#e)"><path fill="#6b7280" fill-rule="evenodd" d="m31.05 197.8 1.35-1.35h6.75l1.35 1.35v6.75l-1.35 1.35H32.4l-1.35-1.35zm1.35 0v6.75h6.75v-6.75zm-13.5 12.15v-8.1l1.35-1.35H27l1.35 1.35v6.75h6.75l1.35 1.35v6.75l-1.35 1.35H20.25l-1.35-1.35zm8.1-1.35v-6.75h-6.75v6.75zm0 1.35h-6.75v6.75H27zm1.35 6.75h6.75v-6.75h-6.75z" clip-rule="evenodd"/></g><rect width="8.563" height="8.319" x="70.404" y="16.541" fill="#6b7280" rx="4.16"/><rect width="8.563" height="8.319" x="82.637" y="16.54" fill="#6b7280" rx="4.16"/><rect width="8.563" height="8.319" x="94.869" y="16.54" fill="#6b7280" rx="4.16"/><path fill="#6b7280" d="M256.358 22.1v-6.873h1.906V22.1zm.958-7.759q-.426 0-.73-.281-.3-.287-.3-.685 0-.394.3-.676.304-.285.73-.286.425 0 .724.286a.9.9 0 0 1 .305.676.9.9 0 0 1-.305.684 1.02 1.02 0 0 1-.724.282m4.381 3.786V22.1h-1.906v-6.873h1.817v1.213h.08q.228-.6.765-.949.537-.353 1.302-.353.717 0 1.249.313t.827.895q.296.577.296 1.378V22.1h-1.906v-4.036q.004-.63-.322-.984-.327-.358-.9-.358a1.37 1.37 0 0 0-.68.165 1.15 1.15 0 0 0-.456.484q-.162.312-.166.756m8.465 4.085q-.783 0-1.419-.403-.63-.407-1.002-1.195-.367-.791-.367-1.941 0-1.182.38-1.965.38-.787 1.012-1.176a2.6 2.6 0 0 1 1.391-.394q.578 0 .962.197.39.192.627.483.242.286.366.564h.059v-3.446h1.901V22.1h-1.879V21h-.081q-.134.285-.38.568a1.9 1.9 0 0 1-.631.46q-.385.184-.939.184m.604-1.517q.46 0 .778-.25.322-.256.492-.712.175-.456.175-1.07 0-.612-.17-1.064a1.53 1.53 0 0 0-.492-.698 1.25 1.25 0 0 0-.783-.246q-.471 0-.792.255-.323.255-.488.707-.165.45-.166 1.047 0 .6.166 1.06.17.456.488.716.321.255.792.255m8.006 1.54q-1.06 0-1.826-.43a2.94 2.94 0 0 1-1.172-1.226q-.412-.797-.412-1.884 0-1.06.412-1.861.41-.8 1.159-1.249.751-.447 1.762-.447.68 0 1.267.22.59.213 1.029.648.443.434.689 1.092.246.652.246 1.53v.523h-5.803v-1.18h4.009q0-.412-.179-.73a1.3 1.3 0 0 0-.497-.497 1.4 1.4 0 0 0-.729-.183q-.435 0-.77.201a1.4 1.4 0 0 0-.519.532q-.187.331-.192.739v1.123q0 .51.188.881.192.372.541.573t.828.201q.318 0 .582-.09a1.16 1.16 0 0 0 .738-.707l1.763.117q-.135.636-.551 1.11a2.76 2.76 0 0 1-1.065.734q-.649.26-1.498.26m5.868-7.008 1.262 2.403 1.293-2.403h1.955l-1.991 3.437 2.045 3.436h-1.947l-1.355-2.376-1.334 2.376h-1.969l2.041-3.436-1.969-3.437zm6.756 6.99q-.443 0-.761-.314a1.05 1.05 0 0 1-.313-.76q0-.439.313-.752.318-.313.761-.313.43 0 .752.313.322.314.322.752 0 .295-.152.54-.148.243-.389.39a1.03 1.03 0 0 1-.533.143m6.295-6.99v1.432h-4.139v-1.432zm-3.2-1.646h1.906v6.407q0 .264.081.412a.44.44 0 0 0 .224.201.9.9 0 0 0 .34.058q.134 0 .268-.022l.206-.04.3 1.418q-.144.045-.403.103a3.2 3.2 0 0 1-.631.076q-.689.027-1.208-.183a1.7 1.7 0 0 1-.801-.654q-.287-.443-.282-1.118zm10.073 3.606-1.745.107a.9.9 0 0 0-.192-.402 1 1 0 0 0-.389-.291 1.3 1.3 0 0 0-.569-.112q-.442 0-.747.188-.304.183-.304.492a.53.53 0 0 0 .197.416q.196.171.675.273l1.244.25q1.003.207 1.495.663t.492 1.2q0 .675-.398 1.185-.394.51-1.083.796-.684.282-1.58.282-1.364 0-2.174-.568a2.2 2.2 0 0 1-.944-1.557l1.875-.099q.084.417.411.636.327.215.837.215.502 0 .805-.193.31-.197.314-.505a.53.53 0 0 0-.22-.425q-.215-.17-.662-.26l-1.19-.237q-1.007-.201-1.499-.698-.488-.497-.488-1.266 0-.663.358-1.141.363-.48 1.016-.739.657-.26 1.539-.26 1.302 0 2.049.551.753.55.877 1.5m2.95-1.96 1.262 2.403 1.293-2.403h1.955l-1.991 3.437 2.045 3.436h-1.946l-1.356-2.376-1.333 2.376h-1.969l2.04-3.436-1.969-3.437z"/><g clip-path="url(#f)"><path fill="#6b7280" d="M71.638 53.8v-1.328h3.208v-9.283l-3.208 2.398v-1.62l2.673-1.993h1.993v10.498h2.624V53.8z"/><path fill="#14b8a6" d="M98.196 53.962q-1.41 0-2.22-.713-.81-.73-.81-1.96 0-1.248.81-1.96.81-.713 2.187-.713h2.754v-.891q0-.825-.502-1.264-.486-.453-1.393-.453-.794 0-1.329.34-.534.324-.615.891H95.62a2.57 2.57 0 0 1 1.085-1.83q.94-.681 2.35-.681 1.538 0 2.429.794t.891 2.154V53.8h-1.425v-1.701h-.243l.243-.243q0 .972-.762 1.539-.744.567-1.992.567m.356-1.15q1.036 0 1.701-.519.664-.518.664-1.328v-1.264h-2.721q-.73 0-1.15.405-.422.406-.422 1.102 0 .745.502 1.183.519.42 1.426.42m7.268.988-1.426-8.91h1.296l.891 6.318q.048.357.097.778.065.404.097.68a17 17 0 0 1 .098-.68q.081-.421.129-.778l.988-6.318h1.394l.988 6.318q.048.357.113.778.081.404.114.68.032-.275.097-.68.081-.421.129-.778l.924-6.318h1.231l-1.49 8.91h-1.604l-.956-6.156a26 26 0 0 0-.146-.907q-.081-.454-.113-.713-.033.259-.097.713-.065.453-.146.907l-1.005 6.156zm11.803.162q-1.41 0-2.219-.713-.81-.73-.81-1.96 0-1.248.81-1.96.81-.713 2.187-.713h2.754v-.891q0-.825-.503-1.264-.486-.453-1.393-.453-.794 0-1.328.34-.535.324-.616.891h-1.458a2.57 2.57 0 0 1 1.086-1.83q.939-.681 2.349-.681 1.539 0 2.43.794t.891 2.154V53.8h-1.426v-1.701h-.243l.243-.243q0 .972-.761 1.539-.745.567-1.993.567m.356-1.15q1.038 0 1.701-.519.665-.518.665-1.328v-1.264h-2.722q-.729 0-1.15.405-.421.406-.421 1.102 0 .745.502 1.183.518.42 1.425.42m6.652.988v-1.328h3.159v-6.254h-2.754V44.89h4.212v7.582h2.997V53.8zm3.726-10.514q-.534 0-.842-.275-.308-.276-.308-.745 0-.486.308-.762.308-.291.842-.291.535 0 .843.291.307.276.307.762 0 .47-.307.745-.308.275-.843.275M138.8 53.8q-1.15 0-1.798-.616-.632-.615-.632-1.733v-5.233h-2.511V44.89h2.511v-2.511h1.458v2.511h3.564v1.328h-3.564v5.233q0 1.02.972 1.02h2.43V53.8z"/><path fill="#6366f1" d="M153.886 56.716V44.89h1.458v1.701h.291l-.291.34q0-1.02.664-1.604.681-.6 1.782-.599 1.344 0 2.138.891.81.875.81 2.414v2.608q0 1.02-.372 1.766-.357.745-1.021 1.15-.648.405-1.555.405-1.085 0-1.766-.6-.68-.599-.68-1.603l.291.34h-.324l.033 2.025v2.592zm3.418-4.018q.924 0 1.442-.55.534-.552.534-1.588v-2.43q0-1.036-.534-1.588-.518-.55-1.442-.55-.89 0-1.426.567-.534.567-.534 1.571v2.43q0 1.005.534 1.571.535.567 1.426.567m6.603 1.102v-8.91h1.426v1.701h.34l-.47 1.053q0-1.442.616-2.17.631-.746 1.863-.746 1.41 0 2.235.891.843.875.843 2.381v.535h-1.458v-.405q0-1.053-.519-1.604-.501-.567-1.441-.567-.924 0-1.458.567-.519.567-.519 1.604v5.67zm9.293 0v-1.328h3.159v-6.254h-2.754V44.89h4.212v7.582h2.997V53.8zm3.726-10.514q-.536 0-.843-.275-.308-.276-.308-.745 0-.486.308-.762.308-.291.843-.291t.842.291q.308.276.308.762 0 .47-.308.745t-.842.275m9.195 10.644q-.907 0-1.588-.276a2.7 2.7 0 0 1-1.069-.81 2.5 2.5 0 0 1-.47-1.231h1.458q.097.47.519.745.437.276 1.15.276h.68q.859 0 1.28-.34.421-.357.421-.94 0-.567-.388-.891-.373-.34-1.118-.454l-1.199-.194q-1.312-.226-1.96-.81-.632-.6-.632-1.734 0-1.198.761-1.846.762-.665 2.285-.665h.615q1.28 0 2.058.6t.939 1.62h-1.458a1.04 1.04 0 0 0-.486-.664q-.388-.26-1.053-.26h-.615q-.826 0-1.215.308-.373.308-.373.924 0 .55.324.81.324.259 1.021.372l1.198.195q1.442.226 2.09.842.664.615.664 1.782 0 1.23-.793 1.944-.778.696-2.366.697zm6.198-.13v-8.91h1.28v1.07h.292l-.227.388q0-.745.389-1.183.405-.437 1.085-.437.745 0 1.15.55.405.552.405 1.556l-.437-.875h.68l-.308.389q0-.745.405-1.183.421-.437 1.102-.437.843 0 1.296.632.47.631.47 1.668V53.8h-1.345v-6.788q0-.55-.243-.858-.227-.308-.68-.308a.86.86 0 0 0-.697.308q-.243.291-.243.842V53.8h-1.166v-6.788q0-.567-.259-.858-.244-.308-.697-.308t-.68.308q-.227.291-.227.842V53.8zm12.727.162q-1.41 0-2.219-.713-.81-.73-.81-1.96 0-1.248.81-1.96.81-.713 2.187-.713h2.754v-.891q0-.825-.503-1.264-.486-.453-1.393-.453-.794 0-1.328.34-.535.324-.616.891h-1.458a2.57 2.57 0 0 1 1.086-1.83q.939-.681 2.349-.681 1.539 0 2.43.794t.891 2.154V53.8H207.8v-1.701h-.243l.243-.243q0 .972-.761 1.539-.745.567-1.993.567m.356-1.15q1.038 0 1.701-.519.665-.518.665-1.328v-1.264h-2.722q-.729 0-1.15.405-.421.406-.421 1.102 0 .745.502 1.183.518.42 1.425.42m19.833 1.15q-1.539 0-2.463-.907-.923-.924-.923-2.495v-5.67h1.458v5.67q0 1.005.518 1.571.519.552 1.41.551.907 0 1.425-.55.535-.568.535-1.572v-5.67h1.458v5.67q0 1.572-.94 2.495-.939.907-2.478.907m9.454-.032q-.907 0-1.587-.276a2.7 2.7 0 0 1-1.07-.81 2.5 2.5 0 0 1-.469-1.231h1.458q.096.47.518.745.438.276 1.15.276h.681q.858 0 1.279-.34.422-.357.422-.94 0-.567-.389-.891-.373-.34-1.118-.454l-1.199-.194q-1.312-.226-1.96-.81-.632-.6-.632-1.734 0-1.198.762-1.846.761-.665 2.284-.665h.615q1.28 0 2.058.6t.939 1.62h-1.458a1.03 1.03 0 0 0-.486-.664q-.388-.26-1.053-.26h-.615q-.826 0-1.215.308-.373.308-.373.924 0 .55.324.81.324.259 1.021.372l1.199.195q1.441.226 2.089.842.665.615.665 1.782 0 1.23-.794 1.944-.778.696-2.365.697zm9.989.032q-1.053 0-1.846-.421a3.04 3.04 0 0 1-1.215-1.183q-.422-.777-.422-1.798v-2.43q0-1.036.422-1.798a3.04 3.04 0 0 1 1.215-1.183q.793-.42 1.846-.421 1.053 0 1.831.421.793.421 1.215 1.183.438.761.437 1.798V49.7h-5.54v.859q0 1.053.535 1.62.535.55 1.522.55.843 0 1.361-.29.519-.309.632-.908h1.458q-.145 1.118-1.102 1.782-.939.648-2.349.648m2.058-5.233v-.599q0-1.053-.535-1.62-.518-.567-1.523-.567-.987 0-1.522.567t-.535 1.62v.47h4.228zm4.594 5.071v-8.91h1.426v1.701h.34l-.47 1.053q0-1.442.616-2.17.631-.746 1.863-.746 1.41 0 2.235.891.843.875.843 2.381v.535h-1.458v-.405q0-1.053-.519-1.604-.502-.567-1.441-.567-.924 0-1.458.567-.519.567-.519 1.604v5.67z"/><path fill="#9ca3af" d="M215.537 53.962q-.615 0-.988-.356-.356-.357-.356-.956 0-.632.356-1.005.373-.372.988-.372.617 0 .972.372.373.373.373 1.005 0 .6-.373.956-.355.356-.972.356m48.569 0q-.616 0-.989-.356-.356-.357-.356-.956 0-.632.356-1.005.373-.372.989-.372.615 0 .972.372.372.373.372 1.005 0 .6-.372.956-.357.356-.972.356m90.42 1.782q-2.3-.567-3.58-2.236-1.28-1.668-1.28-4.082V46.51q0-1.587.583-2.867.6-1.296 1.685-2.187 1.101-.892 2.592-1.264v1.377a3.95 3.95 0 0 0-1.798.94 4.6 4.6 0 0 0-1.183 1.7q-.421 1.021-.421 2.301v2.916q0 1.248.405 2.268.422 1.02 1.182 1.701a4.24 4.24 0 0 0 1.815.907zm9.47-.162q-.956 0-1.652-.324a2.22 2.22 0 0 1-1.037-.923q-.356-.6-.308-1.442l.162-2.657q.049-.858-.259-1.231-.308-.39-1.361-.389h-1.782V47.32h1.782q1.053 0 1.361-.373.308-.389.259-1.247l-.162-2.657q-.048-.858.308-1.458t1.037-.907q.696-.324 1.652-.324h.729v1.296h-.729q-.76 0-1.166.356-.405.34-.373 1.037l.162 2.657q.066 1.053-.502 1.685-.566.615-1.604.615v-.08q1.021 0 1.588.631.584.632.518 1.685l-.162 2.657q-.032.696.373 1.037.405.356 1.166.356h.729v1.296z"/><path fill="#f97316" d="M272.523 53.8v-6.69h-2.592v-1.33h2.592v-1.539q0-1.053.665-1.652.664-.615 1.83-.616h2.608v1.328h-2.608q-.502 0-.777.243-.26.228-.26.697v1.539h3.645v1.328h-3.645V53.8zm7.527 0v-1.328h3.159v-6.254h-2.754V44.89h4.212v7.582h2.997V53.8zm3.726-10.514q-.534 0-.842-.275-.308-.276-.308-.745 0-.486.308-.762.308-.291.842-.291t.842.291q.309.276.308.762 0 .47-.308.745t-.842.275m6.101 10.514v-8.91h1.458v1.701h.308l-.308.34q0-1.053.632-1.62.632-.583 1.749-.583 1.346 0 2.139.826.794.827.794 2.252V53.8h-1.458v-5.832q0-.956-.519-1.458-.502-.518-1.377-.518-.907 0-1.442.55-.518.552-.518 1.588v5.67zm12.565.162q-1.329 0-2.155-.891-.81-.891-.81-2.414V48.05q0-1.539.81-2.43t2.155-.891q1.101 0 1.766.6.664.599.664 1.603l-.292-.34h.324l-.032-2.025v-2.592h1.458V53.8h-1.458v-1.701h-.292l.292-.34q0 1.02-.664 1.62-.665.583-1.766.583m.486-1.264q.907 0 1.426-.567t.518-1.571v-2.43q0-1.005-.518-1.571-.519-.567-1.426-.567-.924 0-1.458.55-.534.552-.535 1.588v2.43q0 1.036.535 1.588.534.55 1.458.55m6.117 1.102V41.974h1.912l1.231 3.823q.178.518.324 1.037.145.502.211.778.081-.276.21-.778.13-.519.292-1.053l1.166-3.807h1.912V53.8h-1.426v-4.293q0-.712.049-1.62.048-.907.129-1.847.081-.956.162-1.814.098-.875.162-1.523l-1.911 5.913h-1.539l-1.928-5.913q.081.632.162 1.474.081.827.146 1.766.065.924.113 1.847.05.923.049 1.717V53.8zm12.565.162q-1.409 0-2.219-.713-.81-.73-.81-1.96 0-1.248.81-1.96.81-.713 2.187-.713h2.754v-.891q0-.825-.502-1.264-.486-.453-1.394-.453-.794 0-1.328.34-.534.324-.616.891h-1.458a2.57 2.57 0 0 1 1.086-1.83q.939-.681 2.349-.681 1.539 0 2.43.794t.891 2.154V53.8h-1.426v-1.701h-.243l.243-.243q0 .972-.761 1.539-.745.567-1.993.567m.357-1.15q1.036 0 1.701-.519.663-.518.664-1.328v-1.264h-2.722q-.729 0-1.15.405-.421.406-.421 1.102 0 .745.502 1.183.519.42 1.426.42m6.765.988v-8.91h1.458v1.701h.308l-.308.34q0-1.053.632-1.62.632-.583 1.749-.583 1.345 0 2.139.826.793.827.793 2.252V53.8h-1.458v-5.832q0-.956-.518-1.458-.502-.518-1.377-.518-.907 0-1.442.55-.518.552-.518 1.588v5.67zm11.107 2.916 1.312-3.467-3.305-8.359h1.62l2.074 5.508q.113.276.21.664.097.374.162.632.065-.259.162-.632.097-.388.195-.664l1.944-5.508h1.571l-4.39 11.826z"/><path fill="#6b7280" d="M71.67 78.1v-1.49l3.613-3.84q.924-.988 1.345-1.75.42-.777.42-1.49 0-.988-.55-1.555-.534-.567-1.474-.567-1.037 0-1.636.583-.585.584-.584 1.604h-1.458q.033-1.069.486-1.847a3.15 3.15 0 0 1 1.28-1.215q.826-.42 1.912-.421 1.069 0 1.847.421.793.405 1.215 1.167.42.76.42 1.814 0 1.005-.534 1.993t-1.75 2.251l-2.915 3.014H78.7V78.1z"/><path fill="#14b8a6" d="m115.555 78.1-1.426-8.91h1.296l.891 6.318q.049.357.098.778.064.404.097.68.033-.275.097-.68.08-.421.13-.778l.988-6.318h1.393l.988 6.318q.049.357.114.778.08.404.113.68.033-.275.097-.68.08-.421.13-.778l.923-6.318h1.231l-1.49 8.91h-1.604l-.955-6.156a29 29 0 0 0-.146-.907q-.081-.454-.114-.713-.032.259-.097.713t-.146.907l-1.004 6.156zm9.212 0V66.274h1.458v4.617h.307l-.307.34q0-1.053.631-1.62.633-.583 1.75-.583 1.344 0 2.138.826.794.827.794 2.252V78.1h-1.458v-5.832q0-.956-.518-1.474-.502-.535-1.377-.535-.908 0-1.442.567-.519.567-.518 1.604v5.67zm13.083.162q-1.053 0-1.847-.421a3.05 3.05 0 0 1-1.215-1.183q-.421-.778-.421-1.798v-2.43q0-1.036.421-1.798a3.05 3.05 0 0 1 1.215-1.183q.794-.42 1.847-.421 1.053 0 1.83.421.795.421 1.215 1.183.438.761.438 1.798v1.571h-5.541v.859q0 1.053.535 1.62.534.55 1.523.55.842 0 1.361-.29.518-.308.631-.908h1.458q-.145 1.118-1.101 1.782-.94.648-2.349.648m2.057-5.233v-.599q0-1.053-.534-1.62-.52-.567-1.523-.567-.989 0-1.523.567-.535.567-.535 1.62v.47h4.229zm4.595 5.071v-8.91h1.425v1.701h.341l-.47 1.053q0-1.442.615-2.17.633-.746 1.863-.746 1.41 0 2.236.891.843.875.842 2.381v.535h-1.458v-.405q0-1.053-.518-1.604-.502-.567-1.442-.567-.923 0-1.458.567-.518.567-.518 1.604v5.67zm12.775.162q-1.053 0-1.847-.421a3.05 3.05 0 0 1-1.215-1.183q-.42-.778-.421-1.798v-2.43q0-1.036.421-1.798a3.05 3.05 0 0 1 1.215-1.183q.794-.42 1.847-.421 1.053 0 1.831.421.793.421 1.215 1.183.437.761.437 1.798v1.571h-5.54v.859q0 1.053.534 1.62.535.55 1.523.55.843 0 1.361-.29.518-.308.632-.908h1.458q-.146 1.118-1.102 1.782-.939.648-2.349.648m2.058-5.233v-.599q0-1.053-.535-1.62-.519-.567-1.523-.567-.988 0-1.523.567t-.534 1.62v.47h4.228zm7.656-1.571q-.6 0-.972-.324-.373-.34-.373-.891t.373-.875q.372-.34.972-.34.615 0 .972.34.372.324.372.875t-.372.891q-.357.324-.972.324m0 6.804q-.6 0-.972-.324-.373-.34-.373-.891t.373-.875q.372-.34.972-.34.615 0 .972.34.372.324.372.875t-.372.891q-.357.324-.972.324"/><path fill="#9ca3af" d="M189.172 79.882q-.956 0-1.652-.324a2.22 2.22 0 0 1-1.037-.923q-.357-.6-.308-1.442l.162-2.657q.049-.859-.259-1.231-.308-.39-1.361-.389h-1.782V71.62h1.782q1.053 0 1.361-.373.308-.389.259-1.247l-.162-2.657q-.049-.858.308-1.458.356-.6 1.037-.907.696-.324 1.652-.324h.729v1.296h-.729q-.76 0-1.166.356-.405.34-.373 1.037l.162 2.657q.065 1.053-.502 1.685-.567.615-1.604.615v-.08q1.021 0 1.588.631.583.632.518 1.685l-.162 2.657q-.032.696.373 1.037.405.356 1.166.356h.729v1.296z"/><path fill="#6b7280" d="M74.862 102.562q-1.07 0-1.88-.421a3.13 3.13 0 0 1-1.23-1.199q-.438-.762-.438-1.782h1.458q0 .988.55 1.555.568.55 1.556.551 1.005 0 1.555-.583.55-.584.551-1.523v-.842q0-1.005-.55-1.556-.551-.55-1.556-.55h-1.215v-1.458l2.932-2.852H71.8v-1.328h6.27v1.458l-3.16 3.062v-.178q1.62 0 2.576.923.956.924.956 2.479v.842q0 1.02-.454 1.782a3.1 3.1 0 0 1-1.247 1.199q-.81.421-1.88.421"/><path fill="#14b8a6" d="M137.856 102.562q-1.053 0-1.847-.421a3.05 3.05 0 0 1-1.215-1.183q-.421-.778-.421-1.798v-2.43q0-1.036.421-1.798a3.05 3.05 0 0 1 1.215-1.183q.794-.42 1.847-.421 1.053 0 1.831.421.793.421 1.215 1.183.437.761.437 1.798v1.571h-5.54v.859q0 1.053.534 1.62.535.55 1.523.551.843 0 1.361-.292.518-.307.632-.907h1.458q-.147 1.118-1.102 1.782-.939.648-2.349.648m2.057-5.233v-.599q0-1.053-.534-1.62-.519-.567-1.523-.567-.988 0-1.523.567t-.534 1.62v.47h4.228zm3.866 5.071v-8.91h1.28v1.07h.291l-.226.388q0-.745.388-1.183.405-.437 1.086-.437.745 0 1.15.55.405.551.405 1.556l-.437-.875h.68l-.308.389q0-.745.405-1.183.421-.437 1.102-.437.842 0 1.296.632.47.632.47 1.668v6.772h-1.345v-6.788q0-.55-.243-.858-.227-.309-.68-.308a.86.86 0 0 0-.697.308q-.243.291-.243.842v6.804h-1.166v-6.788q0-.567-.26-.858-.243-.309-.696-.308-.454 0-.681.308-.226.291-.226.842v6.804zm12.727.162q-1.41 0-2.22-.713-.81-.729-.81-1.96 0-1.248.81-1.96.81-.713 2.187-.713h2.754v-.891q0-.825-.502-1.264-.486-.453-1.393-.453-.794 0-1.328.34-.535.324-.616.891h-1.458a2.57 2.57 0 0 1 1.085-1.83q.94-.681 2.349-.681 1.539 0 2.43.794.891.793.891 2.154v6.124h-1.425v-1.701h-.243l.243-.243q0 .972-.762 1.539-.745.567-1.992.567m.356-1.15q1.037 0 1.701-.519.664-.518.664-1.328v-1.264h-2.721q-.73 0-1.15.405-.422.405-.422 1.102 0 .745.503 1.183.517.42 1.425.421m6.652.988v-1.328h3.159v-6.254h-2.754V93.49h4.212v7.582h2.997v1.328zm3.726-10.514q-.534 0-.842-.275-.308-.276-.308-.745 0-.486.308-.762.308-.291.842-.291.535 0 .843.291.307.276.307.762 0 .47-.307.745-.308.275-.843.275m10.686 10.514q-.778 0-1.361-.308a2.2 2.2 0 0 1-.907-.875q-.324-.566-.324-1.328v-7.987h-2.997v-1.328h4.455v9.315q0 .55.308.875.307.308.826.308h2.835v1.328zm8.498-6.642q-.599 0-.972-.324-.372-.34-.372-.891t.372-.875q.374-.34.972-.34.617 0 .972.34.373.324.373.875t-.373.891q-.356.324-.972.324m0 6.804q-.599 0-.972-.324-.372-.34-.372-.891t.372-.875q.374-.34.972-.34.617 0 .972.34.373.324.373.875t-.373.891q-.356.324-.972.324"/><path fill="#9ca3af" d="M208.606 104.182q-.956 0-1.653-.324a2.2 2.2 0 0 1-1.036-.923q-.357-.6-.308-1.442l.162-2.657q.048-.859-.259-1.231-.309-.39-1.361-.389h-1.782V95.92h1.782q1.052 0 1.361-.373.307-.389.259-1.247l-.162-2.657q-.05-.858.308-1.458.356-.6 1.036-.907.697-.324 1.653-.324h.729v1.296h-.729q-.762 0-1.167.356-.405.34-.372 1.037l.162 2.657q.065 1.053-.502 1.685-.567.615-1.604.615v-.08q1.02 0 1.587.631.583.632.519 1.685l-.162 2.657q-.033.696.372 1.037.405.356 1.167.356h.729v1.296z"/><path fill="#6b7280" d="M76.822 126.7v-2.592h-5.346v-2.284l4.682-6.95h1.587l-4.811 7.258v.648h3.888v-2.884h1.458v6.804z"/><path fill="#14b8a6" d="M157.305 126.862q-1.053 0-1.846-.421a3.04 3.04 0 0 1-1.215-1.183q-.422-.777-.422-1.798v-2.43q0-1.037.422-1.798a3.04 3.04 0 0 1 1.215-1.183q.793-.421 1.846-.421t1.831.421q.794.421 1.215 1.183.438.761.437 1.798v1.571h-5.54v.859q0 1.053.535 1.62.534.55 1.522.551.843 0 1.361-.292.519-.307.632-.907h1.458q-.145 1.117-1.102 1.782-.939.648-2.349.648m2.058-5.233v-.599q0-1.053-.535-1.62-.518-.567-1.523-.567-.988 0-1.522.567-.535.567-.535 1.62v.47h4.228zm4.286 5.071v-8.91h1.458v1.701h.308l-.308.34q0-1.053.632-1.62.632-.583 1.75-.583 1.344 0 2.138.826.794.827.794 2.252v5.994h-1.458v-5.832q0-.956-.518-1.458-.502-.518-1.377-.518-.908 0-1.442.55-.519.552-.519 1.588v5.67zm12.565.162q-1.328 0-2.154-.891-.81-.891-.81-2.414v-2.608q0-1.539.81-2.43t2.154-.891q1.102 0 1.766.599.664.6.664 1.604l-.291-.34h.324l-.033-2.025v-2.592h1.458V126.7h-1.458v-1.701h-.291l.291-.34q0 1.02-.664 1.62-.664.583-1.766.583m.486-1.264q.907 0 1.426-.567.518-.566.518-1.571v-2.43q0-1.005-.518-1.571-.519-.567-1.426-.567-.923 0-1.458.55-.534.552-.534 1.588v2.43q0 1.036.534 1.588.535.55 1.458.55m9.471 1.232q-.907 0-1.588-.276a2.7 2.7 0 0 1-1.069-.81 2.5 2.5 0 0 1-.47-1.231h1.458q.097.47.519.745.437.276 1.15.276h.68q.859 0 1.28-.341.421-.356.421-.939 0-.567-.388-.891-.373-.34-1.118-.454l-1.199-.194q-1.312-.227-1.96-.81-.632-.6-.632-1.734 0-1.198.761-1.846.762-.665 2.285-.665h.615q1.28 0 2.058.6.777.599.939 1.62h-1.458a1.04 1.04 0 0 0-.486-.664q-.388-.26-1.053-.26h-.615q-.827 0-1.215.308-.373.308-.373.924 0 .55.324.81.324.259 1.021.372l1.198.195q1.442.227 2.09.842.664.615.664 1.782 0 1.231-.793 1.944-.778.697-2.366.697zm6.895-.13-1.361-11.826h1.393l.891 8.748.065.745q.033.373.049.713.032.34.032.567.033-.227.049-.567.032-.34.064-.713.049-.388.098-.745l1.101-8.748h1.507l1.004 8.748q.05.357.081.745.05.373.081.713.049.34.065.567.017-.227.032-.567.033-.34.065-.713.05-.388.081-.745l.924-8.748h1.328l-1.393 11.826h-1.831l-1.004-8.91a16 16 0 0 0-.081-.729 46 46 0 0 0-.065-.664 24 24 0 0 1-.049-.502q-.016.194-.064.502-.033.307-.065.664-.033.357-.081.729l-1.086 8.91zm9.325 0v-1.328h3.159v-6.254h-2.754v-1.328h4.212v7.582h2.997v1.328zm3.726-10.514q-.536 0-.843-.275-.308-.276-.308-.745 0-.486.308-.762.308-.291.843-.291t.842.291q.308.276.308.762 0 .47-.308.745t-.842.275m10.442 10.514q-1.15 0-1.798-.616-.632-.615-.632-1.733v-5.233h-2.511v-1.328h2.511v-2.511h1.458v2.511h3.564v1.328h-3.564v5.233q0 1.02.972 1.021h2.43v1.328zm5.372 0v-11.826h1.458v4.617h.308l-.308.34q0-1.053.632-1.62.632-.583 1.75-.583 1.344 0 2.138.826.794.827.794 2.252v5.994h-1.458v-5.832q0-.956-.518-1.474-.503-.535-1.377-.535-.908 0-1.442.567-.519.567-.519 1.604v5.67zm13.084-6.642q-.6 0-.972-.324-.373-.34-.373-.891t.373-.875q.372-.34.972-.34.615 0 .972.34.372.324.372.875t-.372.891q-.357.324-.972.324m0 6.804q-.6 0-.972-.324-.373-.34-.373-.891t.373-.875q.372-.34.972-.34.615 0 .972.34.372.324.372.875t-.372.891q-.357.324-.972.324"/><path fill="#f97316" d="m253.762 119.734-.195-2.43v-2.43h1.572v2.43l-.179 2.43zm10.799 9.882q-1.377 0-2.398-.583a3.94 3.94 0 0 1-1.588-1.636q-.55-1.053-.55-2.479v-5.508q0-1.458.518-2.511a3.84 3.84 0 0 1 1.507-1.62q.987-.567 2.349-.567 1.23 0 2.122.486a3.2 3.2 0 0 1 1.361 1.361q.486.89.486 2.122v6.966h-1.151v-.891h-.453l.308-.324q0 .615-.47 1.004-.47.373-1.248.373-1.053 0-1.62-.632-.55-.648-.55-1.879v-1.944q0-1.231.55-1.863.567-.648 1.62-.648.778 0 1.248.389.47.372.47 1.004l-.227-.34h.389l-.162-1.134v-.081q0-.924-.308-1.555a2.1 2.1 0 0 0-.907-.956q-.584-.324-1.458-.324-1.458 0-2.268.94t-.81 2.624v5.508q0 1.62.858 2.543.875.94 2.382.94h1.134v1.215zm1.215-4.828q.663 0 .972-.405.324-.404.324-1.247v-1.798q0-.761-.324-1.118-.309-.356-.972-.356-.648 0-.972.372-.324.357-.324 1.118v1.944q0 .762.324 1.134.324.356.972.356m4.724 4.828V117.79h1.458v1.701h.291l-.291.34q0-1.02.664-1.604.681-.599 1.782-.599 1.344 0 2.138.891.81.875.81 2.414v2.608q0 1.02-.372 1.766a2.65 2.65 0 0 1-1.021 1.15q-.648.405-1.555.405-1.086 0-1.766-.599-.68-.6-.68-1.604l.291.34h-.324l.033 2.025v2.592zm3.418-4.018q.923 0 1.442-.55.534-.552.534-1.588v-2.43q0-1.036-.534-1.588-.519-.55-1.442-.55-.89 0-1.426.567-.534.566-.534 1.571v2.43q0 1.004.534 1.571.535.567 1.426.567m6.603 1.102v-8.91h1.426v1.701h.34l-.47 1.053q0-1.442.616-2.171.631-.745 1.863-.745 1.41 0 2.235.891.843.875.843 2.381v.535h-1.458v-.405q0-1.053-.519-1.604-.502-.567-1.441-.567-.924 0-1.458.567-.519.567-.519 1.604v5.67zm9.293 0v-1.328h3.159v-6.254h-2.754v-1.328h4.212v7.582h2.997v1.328zm3.726-10.514q-.535 0-.843-.275-.307-.276-.307-.745 0-.486.307-.762.308-.291.843-.291t.842.291q.308.276.308.762 0 .47-.308.745t-.842.275m9.195 10.644q-.907 0-1.588-.276a2.7 2.7 0 0 1-1.069-.81 2.5 2.5 0 0 1-.47-1.231h1.458q.098.47.519.745.437.276 1.15.276h.68q.859 0 1.28-.341.421-.356.421-.939 0-.567-.388-.891-.373-.34-1.118-.454l-1.199-.194q-1.312-.227-1.96-.81-.632-.6-.632-1.734 0-1.198.761-1.846.762-.665 2.285-.665h.615q1.28 0 2.058.6.777.599.939 1.62h-1.458a1.04 1.04 0 0 0-.486-.664q-.389-.26-1.053-.26h-.615q-.827 0-1.215.308-.373.308-.373.924 0 .55.324.81.324.259 1.021.372l1.198.195q1.443.227 2.09.842.664.615.664 1.782 0 1.231-.793 1.944-.778.697-2.366.697zm6.198-.13v-8.91h1.28v1.069h.292l-.227.389q0-.745.389-1.183.404-.437 1.085-.437.745 0 1.15.551.405.55.405 1.555l-.437-.875h.68l-.308.389q0-.745.405-1.183.421-.437 1.102-.437.843 0 1.296.632.47.632.47 1.668v6.772h-1.345v-6.788q0-.55-.243-.858-.227-.309-.68-.308-.438 0-.697.308-.243.291-.243.842v6.804h-1.166v-6.788q0-.567-.259-.858-.243-.309-.697-.308-.453 0-.68.308-.227.291-.227.842v6.804zm12.727.162q-1.409 0-2.219-.713-.81-.729-.81-1.96 0-1.248.81-1.96.81-.713 2.187-.713h2.754v-.891q0-.826-.502-1.264-.486-.453-1.394-.453-.794 0-1.328.34-.534.324-.616.891h-1.458a2.57 2.57 0 0 1 1.086-1.831q.939-.68 2.349-.68 1.539 0 2.43.794.891.793.891 2.154v6.124h-1.426v-1.701h-.243l.243-.243q0 .972-.761 1.539-.745.567-1.993.567m.357-1.15q1.036 0 1.701-.519.663-.518.664-1.328v-1.264h-2.722q-.729 0-1.15.405t-.421 1.102q0 .745.502 1.183.519.42 1.426.421m10.134 1.15q-.615 0-.988-.356-.356-.357-.356-.956 0-.632.356-1.005.373-.372.988-.372.617 0 .972.372.373.373.373 1.005 0 .599-.373.956-.356.356-.972.356m6.231-.162v-1.328h3.159v-6.254h-2.754v-1.328h4.212v7.582h2.997v1.328zm3.726-10.514q-.534 0-.842-.275-.309-.276-.308-.745 0-.486.308-.762.308-.291.842-.291t.842.291q.308.276.308.762 0 .47-.308.745t-.842.275m9.471 10.644q-1.07 0-1.847-.405a2.94 2.94 0 0 1-1.215-1.167q-.421-.777-.421-1.83v-2.366q0-1.069.421-1.83a2.94 2.94 0 0 1 1.215-1.167q.777-.405 1.847-.405t1.847.405 1.198 1.167q.438.76.438 1.814v2.382q0 1.053-.438 1.83-.42.762-1.198 1.167t-1.847.405m0-1.296q.956 0 1.49-.535.535-.534.535-1.571v-2.366q0-1.037-.535-1.571-.534-.534-1.49-.535-.94 0-1.491.535-.534.534-.534 1.571v2.366q0 1.037.534 1.571.551.534 1.491.535m9.033-5.8-.194-2.43v-2.43h1.571v2.43l-.178 2.43z"/><path fill="#9ca3af" d="m368.819 129.292 1.296-5.038h2.106l-2.106 5.038z"/><path fill="#6b7280" d="M75.008 151.162q-1.442 0-2.366-.745-.923-.746-1.085-2.009h1.458q.081.696.6 1.085.518.373 1.409.373 1.02 0 1.523-.551.518-.55.518-1.555v-1.15q0-1.005-.518-1.555-.502-.551-1.507-.551-.631 0-1.102.34a1.83 1.83 0 0 0-.68.875H71.8l.081-6.545h6.22v1.328h-4.81l-.05 3.937h.454l-.453.421q0-.76.6-1.199.615-.437 1.635-.437 1.443-.017 2.236.891.81.891.81 2.495v1.15q0 1.571-.923 2.495-.924.907-2.592.907"/><path fill="#9ca3af" d="M134.373 152.782v-1.296h.729q.762 0 1.166-.356.406-.34.373-1.037l-.162-2.657q-.065-1.053.502-1.685.584-.632 1.604-.632v.081q-1.037 0-1.604-.615-.567-.632-.502-1.685l.162-2.657q.032-.696-.373-1.037-.404-.356-1.166-.356h-.729v-1.296h.729q.956 0 1.636.324a2.23 2.23 0 0 1 1.053.907q.357.6.308 1.458l-.162 2.657q-.048.858.259 1.247.308.373 1.361.373h1.782v1.296h-1.782q-1.037 0-1.361.389-.307.372-.259 1.231l.162 2.657q.049.842-.308 1.442-.355.615-1.053.923-.68.324-1.636.324z"/><path fill="#6b7280" d="M75.056 175.462q-1.134 0-1.992-.47a3.4 3.4 0 0 1-1.313-1.344q-.47-.86-.47-1.993a6.4 6.4 0 0 1 .244-1.75 6.7 6.7 0 0 1 .761-1.652l2.965-4.779h1.62l-3.354 5.378.065.049q.308-.453.842-.697a2.9 2.9 0 0 1 1.2-.243q.971 0 1.684.454.712.453 1.102 1.28.388.826.388 1.96t-.47 1.993a3.4 3.4 0 0 1-1.312 1.344q-.826.47-1.96.47m-.016-1.296q1.036 0 1.669-.68.63-.697.631-1.831 0-1.134-.631-1.814-.633-.697-1.669-.697t-1.669.697q-.63.68-.631 1.814 0 1.134.631 1.831.633.68 1.669.68"/><path fill="#9ca3af" d="M114.939 177.082v-1.296h.73q.76 0 1.166-.356.405-.34.372-1.037l-.162-2.657q-.064-1.053.503-1.685.582-.632 1.604-.632v.081q-1.037 0-1.604-.615-.567-.632-.503-1.685l.162-2.657q.033-.696-.372-1.037-.405-.356-1.166-.356h-.73v-1.296h.73q.955 0 1.636.324a2.24 2.24 0 0 1 1.053.907q.356.6.308 1.458l-.163 2.657q-.049.858.26 1.247.307.373 1.361.373h1.782v1.296h-1.782q-1.037 0-1.361.389-.309.373-.26 1.231l.163 2.657q.048.842-.308 1.442-.357.615-1.053.923-.68.324-1.636.324zm11.01.81 1.296-5.038h2.106l-2.106 5.038z"/><path fill="#6b7280" d="m73.177 199.6 4.228-10.498h-4.471v1.75h-1.458v-3.078h7.371v1.426l-4.099 10.4z"/><path fill="#14b8a6" d="M114.939 199.6v-1.328h3.159v-6.254h-2.754v-1.328h4.212v7.582h2.997v1.328zm3.727-10.514q-.535 0-.843-.275-.308-.276-.308-.745 0-.486.308-.762.308-.291.843-.291t.842.291q.308.276.308.762 0 .47-.308.745t-.842.275m6.101 10.514v-8.91h1.458v1.701h.307l-.307.34q0-1.053.631-1.62.633-.583 1.75-.583 1.344 0 2.138.826.794.827.794 2.252v5.994h-1.458v-5.832q0-.956-.518-1.458-.502-.519-1.377-.518-.908 0-1.442.55-.519.552-.518 1.588v5.67zm13.148.162q-1.07 0-1.88-.405a2.9 2.9 0 0 1-1.231-1.166q-.437-.778-.437-1.831v-2.43q0-1.07.437-1.831a2.9 2.9 0 0 1 1.231-1.166q.81-.405 1.88-.405 1.539 0 2.478.826.94.827.988 2.252h-1.458q-.048-.858-.583-1.312-.518-.47-1.425-.47-.957 0-1.523.551-.567.534-.567 1.539v2.446q0 1.005.567 1.555.566.55 1.523.551.907 0 1.425-.47.535-.47.583-1.312h1.458q-.048 1.425-.988 2.252-.939.826-2.478.826m10.864-.162q-.778 0-1.361-.308a2.2 2.2 0 0 1-.907-.875q-.324-.566-.324-1.328v-7.987h-2.997v-1.328h4.455v9.315q0 .55.307.875.308.308.827.308h2.835v1.328zm8.482.162q-1.54 0-2.462-.907-.924-.924-.924-2.495v-5.67h1.458v5.67q0 1.005.519 1.571.518.552 1.409.551.907 0 1.426-.551.534-.566.534-1.571v-5.67h1.458v5.67q0 1.571-.939 2.495-.94.907-2.479.907m9.211 0q-1.327 0-2.154-.891-.81-.891-.81-2.414v-2.608q0-1.539.81-2.43t2.154-.891q1.102 0 1.766.599.664.6.664 1.604l-.291-.34h.324l-.033-2.025v-2.592h1.458V199.6h-1.458v-1.701h-.291l.291-.34q0 1.02-.664 1.62-.664.583-1.766.583m.486-1.264q.907 0 1.426-.567.518-.566.518-1.571v-2.43q0-1.005-.518-1.571-.519-.567-1.426-.567-.922 0-1.458.55-.534.552-.534 1.588v2.43q0 1.036.534 1.588.536.55 1.458.55m9.747 1.264q-1.053 0-1.847-.421a3.04 3.04 0 0 1-1.215-1.183q-.421-.778-.421-1.798v-2.43q0-1.037.421-1.798a3.04 3.04 0 0 1 1.215-1.183q.794-.421 1.847-.421t1.83.421q.793.421 1.215 1.183.438.761.438 1.798v1.571h-5.541v.859q0 1.053.535 1.62.534.55 1.523.551.842 0 1.36-.292.52-.307.632-.907h1.458q-.145 1.117-1.101 1.782-.94.648-2.349.648m2.057-5.233v-.599q0-1.053-.535-1.62-.518-.567-1.522-.567-.989 0-1.523.567-.535.567-.535 1.62v.47h4.228zm7.656-1.571q-.599 0-.972-.324-.372-.34-.372-.891t.372-.875q.374-.34.972-.34.617 0 .972.34.373.324.373.875t-.373.891q-.356.324-.972.324m0 6.804q-.599 0-.972-.324-.372-.34-.372-.891t.372-.875q.374-.34.972-.34.617 0 .972.34.373.324.373.875t-.373.891q-.356.324-.972.324"/><path fill="#9ca3af" d="M208.6 201.382q-.956 0-1.653-.324a2.23 2.23 0 0 1-1.037-.923q-.356-.6-.307-1.442l.162-2.657q.048-.858-.26-1.231-.307-.389-1.36-.389h-1.782v-1.296h1.782q1.053 0 1.36-.373.308-.389.26-1.247l-.162-2.657q-.049-.858.307-1.458a2.25 2.25 0 0 1 1.037-.907q.697-.324 1.653-.324h.729v1.296h-.729q-.762 0-1.167.356-.405.34-.372 1.037l.162 2.657q.064 1.053-.503 1.685-.567.615-1.603.615v-.081q1.02 0 1.587.632.583.632.519 1.685l-.162 2.657q-.033.696.372 1.037.405.356 1.167.356h.729v1.296z"/><path fill="#6b7280" d="M75.04 224.062q-1.086 0-1.895-.373a2.9 2.9 0 0 1-1.232-1.101q-.437-.713-.437-1.669 0-1.053.567-1.814.583-.762 1.83-1.361l1.572-.761q.712-.34 1.102-.891.388-.552.388-1.215 0-.778-.518-1.232-.502-.453-1.377-.453t-1.393.47q-.502.453-.502 1.231 0 .647.372 1.199.39.55 1.053.874l1.572.746q1.296.599 1.879 1.377.583.76.583 1.83 0 1.442-.972 2.301-.956.842-2.592.842m0-1.296q.988 0 1.555-.502.583-.519.583-1.377 0-.697-.372-1.264-.373-.567-1.07-.907l-1.555-.761q-1.296-.633-1.879-1.361-.583-.729-.583-1.75 0-.907.405-1.571t1.15-1.021q.746-.356 1.766-.356t1.766.356 1.15 1.021.405 1.571q0 1.021-.583 1.75-.584.712-1.928 1.377l-1.555.761a2.54 2.54 0 0 0-1.037.891 2.2 2.2 0 0 0-.356 1.231q0 .875.567 1.394.582.518 1.571.518"/><path fill="#6366f1" d="M124.745 226.816V214.99h1.458v1.701h.291l-.291.34q0-1.02.664-1.604.68-.599 1.782-.599 1.344 0 2.138.891.81.875.81 2.414v2.608q0 1.02-.372 1.766a2.65 2.65 0 0 1-1.021 1.15q-.648.405-1.555.405-1.085 0-1.766-.599-.68-.6-.68-1.604l.291.34h-.324l.033 2.025v2.592zm3.418-4.018q.923 0 1.442-.55.534-.552.534-1.588v-2.43q0-1.036-.534-1.588-.52-.55-1.442-.55-.89 0-1.426.567-.534.566-.534 1.571v2.43q0 1.005.534 1.571.535.567 1.426.567"/><path fill="#6b7280" d="m73.21 248.2 3.353-5.378-.065-.049a2 2 0 0 1-.842.697 2.9 2.9 0 0 1-1.2.243q-.954 0-1.684-.454a3 3 0 0 1-1.102-1.28q-.388-.842-.388-1.96 0-1.15.47-1.993a3.3 3.3 0 0 1 1.312-1.328q.842-.486 1.96-.486 1.134 0 1.976.486a3.3 3.3 0 0 1 1.329 1.328q.47.843.47 1.993 0 .89-.26 1.75a6.3 6.3 0 0 1-.745 1.652l-2.965 4.779zm1.83-5.67q1.036 0 1.669-.68.63-.697.631-1.831 0-1.134-.631-1.814-.633-.697-1.669-.697t-1.669.697q-.63.68-.631 1.814 0 1.134.631 1.831.633.68 1.669.68"/><path fill="#9ca3af" d="M114.939 249.982v-1.296h.73q.76 0 1.166-.356.405-.34.372-1.037l-.162-2.657q-.064-1.053.503-1.685.582-.632 1.604-.632v.081q-1.037 0-1.604-.615-.567-.632-.503-1.685l.162-2.657q.033-.696-.372-1.037-.405-.356-1.166-.356h-.73v-1.296h.73q.955 0 1.636.324a2.24 2.24 0 0 1 1.053.907q.356.6.308 1.458l-.163 2.657q-.049.858.26 1.247.307.373 1.361.373h1.782v1.296h-1.782q-1.037 0-1.361.389-.309.373-.26 1.231l.163 2.657q.048.842-.308 1.442-.357.615-1.053.923-.68.324-1.636.324z"/><path fill="#6b7280" d="M71.642 272.5v-1.328h3.207v-9.283l-3.208 2.398v-1.62l2.673-1.993h1.993v10.498h2.624v1.328zm13.115.162q-1.085 0-1.895-.421a3.1 3.1 0 0 1-1.231-1.215q-.438-.794-.438-1.847v-5.184q0-1.069.438-1.847a3 3 0 0 1 1.23-1.199q.81-.437 1.896-.437 1.102 0 1.896.437.794.422 1.23 1.199.438.778.438 1.847v5.184q0 1.053-.437 1.847a3.1 3.1 0 0 1-1.248 1.215q-.793.421-1.879.421m0-1.247q.972 0 1.555-.616.6-.631.6-1.62v-5.184q0-.988-.6-1.604-.582-.632-1.555-.632-.972 0-1.571.632-.583.616-.583 1.604v5.184q0 .989.583 1.62.6.615 1.571.616m0-3.872q-.437 0-.713-.276-.258-.275-.259-.729 0-.437.26-.696.274-.276.712-.276t.697.276q.275.26.275.696 0 .454-.275.729-.26.276-.697.276"/><path fill="#9ca3af" d="M105.209 274.282v-1.296h.729q.761 0 1.166-.356.405-.34.373-1.037l-.162-2.657q-.065-1.053.502-1.685.584-.632 1.604-.632v.081q-1.037 0-1.604-.615-.567-.632-.502-1.685l.162-2.657q.032-.696-.373-1.037-.404-.356-1.166-.356h-.729v-1.296h.729q.956 0 1.636.324a2.23 2.23 0 0 1 1.053.907q.356.6.308 1.458l-.162 2.657q-.048.858.259 1.247.308.373 1.361.373h1.782v1.296h-1.782q-1.037 0-1.361.389-.307.373-.259 1.231l.162 2.657q.049.842-.308 1.442-.355.615-1.053.923-.68.324-1.636.324zm10.2.162v-1.442a4.1 4.1 0 0 0 1.814-.907 4.44 4.44 0 0 0 1.167-1.701q.42-1.02.421-2.268v-2.916q0-1.28-.421-2.3a4.6 4.6 0 0 0-1.183-1.701 3.95 3.95 0 0 0-1.798-.94v-1.377q1.506.373 2.592 1.264a5.94 5.94 0 0 1 1.668 2.187q.6 1.28.6 2.867v2.916q0 2.414-1.28 4.082-1.28 1.67-3.58 2.236"/></g><path stroke="#6b7280" stroke-width=".9" d="M145.352 189.9v27.9"/><path fill="#6b7280" d="M145.352 218.419H371.41v46.237H145.352z"/><path stroke="#6b7280" stroke-width=".9" d="M145.352 218.419H371.41v46.237H145.352z"/><path fill="#c7d2fe" d="M145.828 218.869h225.105v22.669H145.828z"/><g stroke="#9ca3af" stroke-linecap="round" stroke-linejoin="round" stroke-width="1.2" clip-path="url(#g)"><path d="M165.841 232.603v-4.8a1.2 1.2 0 0 0-.6-1.038l-4.2-2.4a1.2 1.2 0 0 0-1.2 0l-4.2 2.4a1.21 1.21 0 0 0-.6 1.038v4.8a1.2 1.2 0 0 0 .6 1.038l4.2 2.4a1.19 1.19 0 0 0 1.2 0l4.2-2.4a1.2 1.2 0 0 0 .6-1.038"/><path d="m155.203 227.179 5.238 3.03 5.238-3.03m-5.238 9.072v-6.048"/></g><path fill="#9ca3af" d="M173.015 238.585v-11.826h1.976v1.701h.454l-.454.47q0-1.086.648-1.701.648-.632 1.75-.632 1.345 0 2.155.923.81.924.81 2.479v2.414q0 1.037-.373 1.814a2.74 2.74 0 0 1-1.021 1.183q-.663.42-1.571.421-1.102 0-1.75-.616-.648-.631-.648-1.717l.454.47h-.47l.065 2.122v2.495zm3.661-4.504q.779 0 1.215-.453.438-.455.438-1.296v-2.236q0-.843-.438-1.296-.436-.454-1.215-.454-.76 0-1.199.47-.437.454-.437 1.28v2.236q0 .825.437 1.296.438.453 1.199.453m9.665 1.717q-1.069 0-1.847-.405a2.94 2.94 0 0 1-1.215-1.166q-.42-.778-.421-1.831v-2.365q0-1.07.421-1.83a2.94 2.94 0 0 1 1.215-1.167q.778-.405 1.847-.405 1.07 0 1.847.405t1.199 1.167q.437.76.437 1.814v2.381q0 1.054-.437 1.831a2.84 2.84 0 0 1-1.199 1.166q-.777.405-1.847.405m0-1.296q.955 0 1.491-.534.534-.535.534-1.572v-2.365q0-1.037-.534-1.571-.536-.535-1.491-.535-.94 0-1.49.535-.535.534-.535 1.571v2.365q0 1.037.535 1.572.55.534 1.49.534m9.439 1.296q-.907 0-1.588-.275a2.7 2.7 0 0 1-1.069-.81 2.5 2.5 0 0 1-.47-1.231h1.458q.098.47.518.745.438.275 1.151.275h.68q.858 0 1.28-.34.421-.356.421-.939 0-.567-.389-.891-.372-.34-1.118-.454l-1.198-.194q-1.313-.228-1.961-.81-.631-.6-.631-1.734 0-1.199.761-1.847.762-.663 2.284-.664h.616q1.28 0 2.057.6.778.598.94 1.62h-1.458a1.04 1.04 0 0 0-.486-.665q-.388-.258-1.053-.259h-.616q-.826 0-1.215.308-.372.308-.372.923 0 .552.324.81.324.26 1.02.373l1.199.194q1.442.227 2.09.843.664.615.664 1.782 0 1.231-.794 1.944-.778.696-2.365.696zm10.961-.129q-1.15 0-1.799-.616-.631-.615-.631-1.733v-5.233H201.8v-1.328h2.511v-2.511h1.458v2.511h3.564v1.328h-3.564v5.233q0 1.02.972 1.02h2.43v1.329zm8.466.129q-.907 0-1.588-.275a2.7 2.7 0 0 1-1.069-.81 2.5 2.5 0 0 1-.47-1.231h1.458q.097.47.519.745.437.275 1.15.275h.68q.859 0 1.28-.34.421-.356.421-.939 0-.567-.389-.891-.373-.34-1.117-.454l-1.199-.194q-1.312-.228-1.96-.81-.632-.6-.632-1.734 0-1.199.761-1.847.762-.663 2.284-.664h.616q1.28 0 2.057.6.778.598.94 1.62h-1.458a1.04 1.04 0 0 0-.486-.665q-.388-.258-1.053-.259h-.616q-.825 0-1.215.308-.372.308-.372.923 0 .552.324.81.324.26 1.02.373l1.199.194q1.442.227 2.09.843.664.615.664 1.782 0 1.231-.794 1.944-.777.696-2.365.696zm102.399-1.329 1.504-9.461h3.045q.882 0 1.478.35.596.337.842.959.26.622.13 1.477a3.3 3.3 0 0 1-.596 1.478 3.15 3.15 0 0 1-1.154.972 3.6 3.6 0 0 1-1.581.337h-1.879l-.622 3.888zm1.944-4.938h1.88q.763 0 1.296-.467.544-.479.674-1.27.13-.803-.26-1.27-.388-.466-1.153-.466h-1.879zm8.497 5.067q-.842 0-1.412-.324a1.78 1.78 0 0 1-.791-.933q-.233-.622-.104-1.464l.298-1.944q.142-.856.571-1.465a2.8 2.8 0 0 1 1.101-.933 3.46 3.46 0 0 1 1.517-.324q.855 0 1.412.324.558.324.791.933.246.609.116 1.452l-.311 1.957a3.4 3.4 0 0 1-.57 1.464 2.8 2.8 0 0 1-1.102.933q-.66.324-1.516.324m.169-1.036q.764 0 1.244-.428.48-.427.609-1.257l.298-1.944q.143-.83-.207-1.257-.337-.428-1.102-.428-.751 0-1.231.428t-.622 1.257l-.298 1.944q-.13.83.207 1.257.35.428 1.102.428m7.317 1.036q-1.101 0-1.672-.505-.57-.519-.531-1.374h1.166a.81.81 0 0 0 .324.609q.312.234.881.234h.545q.687 0 1.062-.286.39-.297.467-.764.064-.454-.194-.726-.26-.285-.83-.376l-.933-.155q-1.024-.169-1.464-.635-.442-.466-.298-1.374.142-.958.842-1.491.7-.544 1.918-.544h.492q1.024 0 1.569.493.544.492.544 1.309h-1.166a.72.72 0 0 0-.311-.545q-.273-.22-.804-.22h-.492q-.662 0-1.011.259-.337.26-.415.752-.065.44.142.661.22.22.765.311l.933.155q1.115.182 1.568.661.466.48.324 1.413-.168.985-.894 1.568-.713.57-1.983.57zm8.86-.129q-.92 0-1.361-.493-.427-.492-.285-1.386l.661-4.187h-2.009l.168-1.062h2.009l.311-1.944h1.167l-.312 1.944h2.852l-.169 1.062h-2.851l-.661 4.187q-.129.816.648.816h1.944l-.168 1.063zm5.541 1.425 1.918-12.182h3.176l-.156 1.037h-2.009l-1.607 10.109h2.009l-.155 1.036zm7.058 0 .156-1.036h2.009l1.607-10.109h-2.009l.156-1.037h3.175l-1.918 12.182z"/><path fill="#fff" d="M145.828 241.537h225.105v22.669H145.828z"/><g stroke="#9ca3af" stroke-linecap="round" stroke-linejoin="round" stroke-width="1.2" clip-path="url(#h)"><path d="M165.841 255.272v-4.8a1.2 1.2 0 0 0-.6-1.038l-4.2-2.4a1.2 1.2 0 0 0-1.2 0l-4.2 2.4a1.2 1.2 0 0 0-.6 1.038v4.8a1.2 1.2 0 0 0 .6 1.038l4.2 2.4a1.2 1.2 0 0 0 1.2 0l4.2-2.4a1.19 1.19 0 0 0 .6-1.038"/><path d="m155.203 249.848 5.238 3.03 5.238-3.03m-5.238 9.072v-6.048"/></g><path fill="#9ca3af" d="M173.015 261.253v-11.826h1.976v1.701h.454l-.454.47q0-1.084.648-1.701.648-.632 1.75-.632 1.345 0 2.155.924.81.923.81 2.478v2.414q0 1.037-.373 1.815a2.74 2.74 0 0 1-1.021 1.182q-.663.421-1.571.421-1.102 0-1.75-.615-.648-.632-.648-1.717l.454.469h-.47l.065 2.123v2.494zm3.661-4.503q.779 0 1.215-.454.438-.453.438-1.296v-2.235q0-.843-.438-1.296-.436-.454-1.215-.454-.76 0-1.199.47-.437.453-.437 1.28V255q0 .827.437 1.296.438.454 1.199.454m6.603 1.587v-8.91h1.426v1.701h.34l-.47 1.053q0-1.441.616-2.17.632-.746 1.863-.746 1.41 0 2.236.891.842.875.842 2.382v.534h-1.458v-.405q0-1.053-.518-1.603-.503-.567-1.442-.567-.924 0-1.458.567-.519.567-.519 1.603v5.67zm12.776.13q-1.069 0-1.847-.405a2.95 2.95 0 0 1-1.215-1.166q-.421-.778-.421-1.831V252.7q0-1.07.421-1.831a2.95 2.95 0 0 1 1.215-1.166q.778-.405 1.847-.405t1.847.405 1.199 1.166q.437.762.437 1.815v2.381q0 1.053-.437 1.831a2.85 2.85 0 0 1-1.199 1.166q-.778.405-1.847.405m0-1.296q.956 0 1.49-.535.535-.534.535-1.571V252.7q0-1.037-.535-1.572-.534-.534-1.49-.534-.94 0-1.49.534-.535.535-.535 1.572v2.365q0 1.037.535 1.571.55.535 1.49.535m8.418 1.166v-6.69h-2.592v-1.329h2.592v-1.539q0-1.053.664-1.652.664-.615 1.83-.616h2.609v1.329h-2.609q-.502 0-.777.243-.26.227-.259.696v1.539h3.645v1.329h-3.645v6.69zm7.526 0v-1.328h3.159v-6.253h-2.754v-1.329h4.212v7.582h2.997v1.328zm3.726-10.513q-.534 0-.842-.276-.308-.275-.308-.745 0-.486.308-.761.308-.292.842-.292.535 0 .843.292.307.275.307.761 0 .47-.307.745-.308.276-.843.276m10.686 10.513q-.777 0-1.361-.307a2.2 2.2 0 0 1-.907-.875q-.324-.567-.324-1.329v-7.986h-2.997v-1.329h4.455v9.315q0 .552.308.875.307.308.826.308h2.835v1.328zm8.499.162q-1.053 0-1.847-.421a3.04 3.04 0 0 1-1.215-1.182q-.421-.778-.421-1.799v-2.43q0-1.036.421-1.798a3.04 3.04 0 0 1 1.215-1.182q.794-.422 1.847-.422t1.83.422q.793.42 1.215 1.182.438.762.438 1.798v1.572h-5.541v.858q0 1.053.535 1.62.534.551 1.523.551.842 0 1.36-.291.52-.308.632-.908h1.458q-.145 1.119-1.101 1.782-.94.648-2.349.648m2.057-5.232v-.6q0-1.053-.535-1.62-.518-.567-1.522-.567-.989 0-1.523.567-.535.567-.535 1.62v.47h4.228zm72.876 3.87 1.503-9.46h3.046q.881 0 1.477.35.596.336.843.959.259.621.129 1.477a3.3 3.3 0 0 1-.596 1.477 3.14 3.14 0 0 1-1.153.972q-.7.337-1.582.337h-1.879l-.622 3.888zm1.944-4.937h1.879q.765 0 1.296-.467.545-.48.674-1.27.13-.804-.259-1.27-.389-.467-1.154-.467h-1.879zm6.073 4.937 1.127-7.128h1.141l-.22 1.361h.272l-.506.843q.182-1.154.778-1.737.596-.596 1.581-.596 1.128 0 1.672.713.557.699.376 1.905l-.078.427h-1.166l.051-.324q.143-.842-.194-1.283-.337-.453-1.089-.453-.738 0-1.231.453-.492.454-.635 1.283l-.713 4.536zm10.194.13q-.842 0-1.412-.324a1.8 1.8 0 0 1-.791-.933q-.233-.622-.103-1.465l.298-1.944q.142-.855.57-1.464a2.8 2.8 0 0 1 1.101-.933 3.46 3.46 0 0 1 1.517-.324q.855 0 1.412.324.558.324.791.933.246.61.117 1.451l-.311 1.957a3.4 3.4 0 0 1-.571 1.465 2.8 2.8 0 0 1-1.101.933q-.661.324-1.517.324m.169-1.037q.764 0 1.244-.427.48-.429.609-1.258l.298-1.944q.143-.83-.207-1.257-.337-.427-1.102-.427-.751 0-1.231.427-.48.428-.622 1.257l-.298 1.944q-.129.83.207 1.258.35.427 1.102.427m3.701 3.24.169-1.062h1.464q.544 0 .843-.247.298-.246.376-.764l.881-5.612h-2.074l.169-1.063h2.073l.156-.972a2.46 2.46 0 0 1 .441-1.101 2.16 2.16 0 0 1 .881-.713 2.86 2.86 0 0 1 1.244-.259h2.255l-.168 1.062h-2.268q-.544 0-.843.247-.298.246-.376.764l-.155.972h2.916l-.169 1.063h-2.916l-.881 5.612q-.143.958-.829 1.516-.687.557-1.737.557zm8.847-2.333.168-1.062h2.528l.79-5.003h-2.203l.169-1.063h3.369l-.959 6.066h2.398l-.169 1.062zm4.38-8.411q-.427 0-.635-.22-.207-.22-.155-.596a.95.95 0 0 1 .337-.609q.285-.233.713-.233.427 0 .635.233.22.22.155.609a.87.87 0 0 1-.337.596q-.285.22-.713.22m7.085 8.411q-.946 0-1.426-.544-.466-.557-.324-1.464l1.011-6.39h-2.139l.169-1.062h3.305l-1.18 7.452q-.065.44.13.699.207.247.622.247h2.398l-.169 1.062zm6.902.13q-.842 0-1.4-.337a1.92 1.92 0 0 1-.803-.946q-.233-.622-.104-1.439l.298-1.944a3.5 3.5 0 0 1 .571-1.438 3.05 3.05 0 0 1 1.101-.946 3.34 3.34 0 0 1 1.517-.337q.842 0 1.399.337.57.336.804.946.246.609.103 1.438l-.194 1.258h-4.355l-.103.686q-.13.843.194 1.296.338.441 1.128.441.673 0 1.101-.233.441-.246.609-.726h1.167a2.4 2.4 0 0 1-.596 1.037 3 3 0 0 1-1.063.674 3.9 3.9 0 0 1-1.374.233m2.281-4.186.065-.48q.142-.841-.194-1.296-.324-.453-1.128-.453-.79 0-1.27.453-.48.455-.622 1.296l-.052.376h3.305z"/><defs><clipPath id="a"><path fill="#fff" d="M18.9 21.6h21.6v21.6H18.9z"/></clipPath><clipPath id="b"><path fill="#fff" d="M18.9 64.8h21.6v21.6H18.9z"/></clipPath><clipPath id="c"><path fill="#fff" d="M18.9 108h21.6v22.5H18.9z"/></clipPath><clipPath id="d"><path fill="#fff" d="M18.9 152.1h21.6v22.5H18.9z"/></clipPath><clipPath id="e"><path fill="#fff" d="M18.9 196.2h21.6v22.5H18.9z"/></clipPath><clipPath id="f"><rect width="455.768" height="257.4" x="55.582" y="36" fill="#fff" rx="7.2"/></clipPath><clipPath id="g"><path fill="#fff" d="M153.24 223.003h14.822v14.4H153.24z"/></clipPath><clipPath id="h"><path fill="#fff" d="M153.24 245.672h14.822v14.4H153.24z"/></clipPath></defs></svg>