<svg xmlns="http://www.w3.org/2000/svg" width="48" height="48" fill="none" viewBox="0 0 48 48"><g fill="#fff" clip-path="url(#a)"><path d="M43.513 7.534 34.86 3.368a2.62 2.62 0 0 0-2.984.507l-28.33 25.83a1.75 1.75 0 0 0 .002 2.588l2.314 2.104a1.75 1.75 0 0 0 2.235.099L42.21 8.616C43.356 7.746 45 8.562 45 10v-.1a2.63 2.63 0 0 0-1.487-2.366" opacity=".48"/><path d="m43.513 40.466-8.654 4.166a2.62 2.62 0 0 1-2.985-.507l-28.33-25.83a1.75 1.75 0 0 1 .002-2.588l2.315-2.104a1.75 1.75 0 0 1 2.234-.099l34.116 25.88c1.144.869 2.788.053 2.788-1.384v.1a2.63 2.63 0 0 1-1.486 2.366" opacity=".84"/><path d="M34.86 44.633a2.62 2.62 0 0 1-2.985-.508c.969.969 2.625.283 2.625-1.087V4.962c0-1.37-1.656-2.056-2.625-1.087a2.62 2.62 0 0 1 2.985-.508l8.653 4.16A2.63 2.63 0 0 1 45 9.895v28.213a2.63 2.63 0 0 1-1.487 2.365z"/></g><defs><clipPath id="a"><path fill="#fff" d="M3 3h42v42H3z"/></clipPath></defs></svg>