<svg xmlns="http://www.w3.org/2000/svg" width="48" height="48" fill="none" viewBox="0 0 48 48"><path fill="#fff" fill-rule="evenodd" d="M44.616 11.865h-.4a3.81 3.81 0 0 0-3.816 3.809v8.52c0 1.7-1.406 3.079-3.08 3.079a3.19 3.19 0 0 1-2.575-1.34l-8.702-12.428a3.85 3.85 0 0 0-3.168-1.647c-1.983 0-3.768 1.687-3.768 3.768v8.57a3.09 3.09 0 0 1-3.08 3.079c-.997 0-1.988-.5-2.577-1.34L3.713 12.028a.392.392 0 0 0-.713.224v7.43c0 .376.114.74.33 1.049l9.58 13.684c.566.809 1.401 1.41 2.364 1.628 2.41.547 4.628-1.308 4.628-3.672v-8.564a3.08 3.08 0 0 1 3.08-3.08c1.025 0 1.992.501 2.58 1.341l8.702 12.426a3.77 3.77 0 0 0 3.166 1.647c2.028 0 3.765-1.688 3.765-3.769v-8.567a3.08 3.08 0 0 1 3.08-3.079h.34A.385.385 0 0 0 45 20.34v-8.093a.38.38 0 0 0-.384-.383" clip-rule="evenodd"/></svg>