<svg xmlns="http://www.w3.org/2000/svg" width="372" height="330" fill="none" viewBox="0 0 372 330"><g clip-path="url(#a)"><mask id="c" width="442" height="400" x="0" y="-32" maskUnits="userSpaceOnUse" style="mask-type:luminance"><path fill="url(#b)" d="M0-32h442v400H0z"/></mask><g mask="url(#c)"><path fill="url(#d)" d="M12.44-8.406h1.464v36.587H12.44z"/><circle cx="13.172" cy="42.816" r="5.304" fill="#4b5563"/><path fill="#4b5563" d="M12.44 57.451h1.464v36.587H12.44z"/><circle cx="13.172" cy="108.673" r="5.304" fill="#14b8a6"/><path fill="#4b5563" d="M12.44 123.308h1.464v36.587H12.44z"/><circle cx="13.172" cy="174.531" r="5.304" fill="#4b5563"/><path fill="#4b5563" d="M12.44 189.166h1.464v36.587H12.44z"/><circle cx="13.172" cy="240.388" r="5.304" fill="#4b5563" opacity=".8"/><path fill="#4b5563" d="M12.44 255.023h1.464v36.587H12.44z"/><circle cx="13.172" cy="306.245" r="5.304" fill="#4b5563" opacity=".75"/><path fill="#4b5563" d="M12.44 320.88h1.464v36.587H12.44z"/><path fill="#9ca3af" d="M27.995 46.384v-1.29h2.345v-8.907h-2.345v-1.29h6.137v1.29h-2.344v8.906h2.344v1.29zm8.917 0v-8.655h1.416v1.652h.299l-.3.33q0-1.022.615-1.573.613-.567 1.7-.567 1.305 0 2.076.803t.771 2.187v5.823h-1.416v-5.665q0-.93-.503-1.417-.489-.503-1.338-.503-.88 0-1.4.535-.504.534-.504 1.542v5.508zm9.01 0v-1.29h3.07v-6.075h-2.676v-1.29h4.091v7.364h2.912v1.29zm3.62-10.213q-.52 0-.818-.268-.3-.267-.3-.724 0-.47.3-.74.299-.282.818-.282.52 0 .818.283.3.267.3.74 0 .456-.3.723-.3.268-.818.268m9.83 10.213q-1.119 0-1.748-.598-.613-.598-.613-1.684v-5.083h-2.44v-1.29h2.44v-2.44h1.416v2.44h3.462v1.29h-3.462v5.083q0 .99.944.991h2.36v1.29zm4.793 0v-1.29h3.068v-6.075h-2.675v-1.29h4.092v7.364h2.91v1.29zm3.62-10.213q-.52 0-.82-.268-.298-.267-.298-.724 0-.47.299-.74.3-.282.818-.282.52 0 .818.283.3.267.3.74 0 .456-.3.723-.299.268-.818.268m8.129 10.37q-1.37 0-2.156-.692-.787-.708-.787-1.904 0-1.212.787-1.904.787-.693 2.124-.693h2.675v-.865q0-.803-.487-1.228-.472-.44-1.354-.44-.771 0-1.29.33-.52.315-.598.865h-1.416a2.5 2.5 0 0 1 1.054-1.778q.914-.66 2.282-.66 1.494 0 2.36.77.866.771.866 2.093v5.949h-1.385V44.73h-.236l.236-.236q0 .945-.74 1.495-.723.551-1.935.551m.346-1.117q1.007 0 1.652-.504.645-.503.645-1.29v-1.228h-2.643q-.708 0-1.118.394-.409.393-.409 1.07 0 .724.488 1.149.504.41 1.385.409m10.71.96q-.755 0-1.322-.3a2.15 2.15 0 0 1-.88-.849q-.315-.55-.315-1.29v-7.758H81.54v-1.29h4.328v9.048q0 .535.299.85.3.298.802.298h2.754v1.29zm4.558 0v-1.29h3.069v-6.075H91.92v-1.29h4.092v7.364h2.911v1.29zm3.62-10.213q-.52 0-.819-.268-.3-.267-.299-.724 0-.47.299-.74.3-.282.818-.282.52 0 .819.283.299.267.299.74 0 .456-.3.723-.299.268-.818.268m5.58 10.213v-1.416l4.846-5.949h-4.72v-1.29h6.31v1.416l-4.941 5.948h5.114v1.29zm12.425.157q-1.023 0-1.794-.409a2.96 2.96 0 0 1-1.18-1.149q-.41-.755-.409-1.746v-2.361q0-1.007.409-1.747a2.96 2.96 0 0 1 1.18-1.148q.771-.41 1.794-.41t1.779.41q.77.408 1.18 1.148.425.74.425 1.747v1.526h-5.382v.834q0 1.023.519 1.574.519.535 1.479.535.82 0 1.322-.283.504-.3.614-.881h1.416q-.141 1.085-1.07 1.73-.912.63-2.282.63m1.999-5.083v-.582q0-1.023-.519-1.574-.504-.55-1.48-.55-.96 0-1.479.55t-.519 1.574v.456h4.107zm15.74 5.083q-1.29 0-2.093-.865-.787-.866-.787-2.345v-2.534q0-1.494.787-2.36t2.093-.866q1.07 0 1.715.583.645.582.645 1.557l-.283-.33h.315l-.032-1.967v-2.518h1.417v11.488h-1.417V44.73h-.283l.283-.33q0 .99-.645 1.574-.645.566-1.715.566m.472-1.227q.881 0 1.385-.551.504-.55.503-1.526v-2.361q0-.976-.503-1.526-.504-.551-1.385-.551-.897 0-1.416.535-.52.534-.52 1.542v2.36q0 1.008.52 1.543.519.535 1.416.535m8.397 1.227q-1.368 0-2.156-.692-.787-.708-.787-1.904 0-1.212.787-1.904.787-.693 2.125-.693h2.675v-.865q0-.803-.488-1.228-.472-.44-1.353-.44-.77 0-1.291.33-.519.315-.598.865h-1.416a2.5 2.5 0 0 1 1.054-1.778q.914-.66 2.282-.66 1.495 0 2.361.77.865.771.865 2.093v5.949h-1.385V44.73h-.236l.236-.236q0 .945-.739 1.495-.724.551-1.936.551m.346-1.117q1.008 0 1.653-.504.645-.503.645-1.29v-1.228h-2.644q-.708 0-1.117.394-.41.393-.409 1.07 0 .724.488 1.149.503.41 1.384.409m10.475.96q-1.117 0-1.747-.598-.614-.598-.614-1.684v-5.083h-2.439v-1.29h2.439v-2.44h1.417v2.44h3.462v1.29h-3.462v5.083q0 .99.944.991h2.36v1.29zm7.421.157q-1.368 0-2.156-.692-.786-.708-.786-1.904 0-1.212.786-1.904.787-.693 2.125-.693h2.675v-.865q0-.803-.488-1.228-.472-.44-1.353-.44-.771 0-1.29.33-.52.315-.598.865h-1.417a2.5 2.5 0 0 1 1.055-1.778q.912-.66 2.281-.66 1.495 0 2.361.77.865.771.865 2.093v5.949h-1.384V44.73h-.236l.236-.236q0 .945-.74 1.495-.724.551-1.936.551m.347-1.117q1.007 0 1.652-.504.645-.503.645-1.29v-1.228h-2.644q-.708 0-1.117.394-.41.393-.409 1.07 0 .724.488 1.149.503.41 1.385.409m10.033 1.117q-1.07 0-1.715-.566-.645-.583-.645-1.574l.283.33h-.283v1.653h-1.416V34.896h1.416v2.518l-.032 1.967h.315l-.283.33q0-.976.645-1.557.661-.583 1.715-.583 1.307 0 2.093.866.787.866.787 2.36v2.534q0 1.48-.787 2.345-.786.865-2.093.865m-.472-1.227q.897 0 1.417-.535.519-.535.519-1.543v-2.36q0-1.007-.519-1.542-.52-.535-1.417-.535-.865 0-1.385.55-.503.552-.503 1.527v2.36q0 .976.503 1.527.52.55 1.385.55m8.335 1.227q-1.37 0-2.156-.692-.787-.708-.787-1.904 0-1.212.787-1.904.786-.693 2.124-.693h2.675v-.865q0-.803-.488-1.228-.471-.44-1.353-.44-.771 0-1.29.33-.52.315-.598.865h-1.417a2.5 2.5 0 0 1 1.055-1.778q.912-.66 2.282-.66 1.494 0 2.36.77.866.771.866 2.093v5.949h-1.385V44.73h-.236l.236-.236q0 .945-.74 1.495-.724.551-1.935.551m.346-1.117q1.007 0 1.652-.504.645-.503.645-1.29v-1.228h-2.643q-.709 0-1.118.394-.41.393-.409 1.07 0 .724.488 1.149.504.41 1.385.409m9.262 1.086q-.88 0-1.542-.268a2.6 2.6 0 0 1-1.038-.787 2.4 2.4 0 0 1-.457-1.196h1.417q.093.457.503.724.425.268 1.117.268h.661q.834 0 1.244-.33a1.14 1.14 0 0 0 .409-.913q0-.552-.378-.866-.362-.33-1.086-.44l-1.164-.19q-1.275-.22-1.904-.786-.614-.583-.614-1.684 0-1.164.739-1.794.74-.645 2.219-.645h.598q1.243 0 1.999.582.755.582.913 1.574h-1.417a1 1 0 0 0-.472-.645q-.378-.252-1.023-.252h-.598q-.802 0-1.18.299-.362.298-.362.897 0 .535.315.786.315.252.991.362l1.165.19q1.4.22 2.03.818.645.597.645 1.73 0 1.196-.771 1.889-.756.677-2.298.677zm9.389.031q-1.023 0-1.794-.409a2.96 2.96 0 0 1-1.18-1.149q-.41-.755-.409-1.746v-2.361q0-1.007.409-1.747a2.96 2.96 0 0 1 1.18-1.148q.771-.41 1.794-.41t1.778.41q.772.408 1.18 1.148.425.74.425 1.747v1.526h-5.382v.834q0 1.023.52 1.574.519.535 1.479.535.818 0 1.322-.283.503-.3.614-.881h1.416q-.142 1.085-1.07 1.73-.913.63-2.282.63m1.999-5.083v-.582q0-1.023-.52-1.574-.503-.55-1.479-.55-.96 0-1.479.55t-.52 1.574v.456h4.108z"/><path fill="#4b5563" d="M29.293 60.5q-1.018.001-1.604-.514-.585-.527-.585-1.417 0-.901.585-1.417.585-.515 1.58-.515h1.991v-.644q0-.597-.363-.913-.351-.328-1.007-.328-.573 0-.96.246-.386.233-.445.644h-1.053q.105-.831.784-1.323.68-.492 1.698-.492 1.112 0 1.756.574.645.573.644 1.557v4.426h-1.03v-1.23h-.176l.175-.175q0 .702-.55 1.112-.539.41-1.44.41m.258-.83q.75 0 1.23-.375t.48-.96v-.913h-1.968q-.526 0-.831.292-.305.293-.305.797 0 .538.363.854.376.305 1.03.305m4.655 2.821v-8.547h1.054v1.23h.21l-.21.246q0-.738.48-1.16.492-.432 1.288-.433.971 0 1.545.644.585.632.585 1.745V58.1q0 .738-.269 1.276a1.9 1.9 0 0 1-.738.831q-.468.293-1.123.293-.785 0-1.277-.433-.49-.434-.491-1.16l.21.246h-.234l.024 1.464v1.873zm2.47-2.903q.668 0 1.042-.398.387-.398.387-1.148v-1.756q0-.75-.387-1.147-.375-.399-1.042-.398-.643 0-1.03.41-.386.409-.386 1.135v1.756q0 .726.386 1.136.387.41 1.03.41m4.316 2.903v-8.547h1.054v1.23h.21l-.21.246q0-.738.48-1.16.492-.432 1.288-.433.972 0 1.545.644.585.632.585 1.745V58.1q0 .738-.269 1.276a1.9 1.9 0 0 1-.737.831q-.469.293-1.124.293-.785 0-1.277-.433-.49-.434-.491-1.16l.21.246h-.234l.024 1.464v1.873zm2.47-2.903q.668 0 1.042-.398.387-.398.387-1.148v-1.756q0-.75-.387-1.147-.375-.399-1.042-.398-.643 0-1.03.41-.387.409-.386 1.135v1.756q0 .726.386 1.136.387.41 1.03.41m7.63.796q-.562 0-.984-.223a1.6 1.6 0 0 1-.656-.632 1.9 1.9 0 0 1-.234-.96v-5.772h-2.166v-.96h3.22v6.732q0 .398.222.632.223.223.597.223h2.05v.96zm3.39 0v-.96h2.283v-4.52h-1.99v-.96h3.044v5.48h2.166v.96zm2.693-7.599q-.386 0-.609-.199a.69.69 0 0 1-.222-.538q0-.352.222-.55.222-.211.609-.211.386 0 .609.21.222.2.222.55a.69.69 0 0 1-.222.54q-.223.198-.609.198m6.61 7.716q-.76 0-1.334-.304a2.2 2.2 0 0 1-.878-.855q-.305-.562-.305-1.3v-1.756q0-.75.305-1.3.315-.55.878-.854.573-.305 1.334-.305t1.323.305q.574.305.879.854.315.55.316 1.3v1.136h-4.004v.62q0 .762.386 1.171.386.398 1.1.398.609 0 .984-.21a.93.93 0 0 0 .456-.656h1.054q-.105.807-.796 1.288-.68.468-1.698.468m1.487-3.782v-.433q0-.761-.386-1.17-.375-.41-1.1-.41-.715 0-1.101.41-.387.409-.387 1.17v.34h3.056zm4.925 3.782q-.96 0-1.557-.644-.585-.644-.586-1.745v-1.885q0-1.111.586-1.756.585-.644 1.557-.644.796 0 1.276.434.48.432.48 1.159l-.21-.246h.233l-.023-1.464v-1.873h1.054v8.547h-1.054v-1.23h-.21l.21-.245q0 .737-.48 1.17-.48.422-1.276.422m.351-.913q.655 0 1.03-.41t.375-1.136v-1.756q0-.726-.375-1.136t-1.03-.41q-.667 0-1.054.399-.386.397-.386 1.147v1.756q0 .75.386 1.148.387.398 1.054.398m13.572.913q-1.042 0-1.71-.539-.666-.539-.784-1.452h1.054q.059.504.433.785.375.27 1.019.27.738 0 1.1-.399.375-.398.375-1.124v-.831q0-.726-.375-1.124-.363-.398-1.088-.398-.457 0-.797.246-.34.234-.491.632h-1.054l.058-4.73h4.496v.96H82.88l-.035 2.845h.328l-.328.304q0-.55.433-.866.444-.316 1.183-.316 1.042-.012 1.615.644.585.644.586 1.803v.831q0 1.136-.668 1.803-.666.656-1.873.656m13.221 0q-.96 0-1.557-.644-.586-.644-.586-1.745v-1.885q0-1.111.586-1.756.586-.644 1.557-.644.795 0 1.276.434.48.432.48 1.159l-.21-.246h.234l-.024-1.464v-1.873h1.054v8.547h-1.054v-1.23h-.21l.21-.245q0 .737-.48 1.17-.48.422-1.276.422m.351-.913q.655 0 1.03-.41t.375-1.136v-1.756q0-.726-.374-1.136-.375-.41-1.03-.41-.668 0-1.055.399-.386.397-.386 1.147v1.756q0 .75.386 1.148.387.398 1.054.398m6.248.913q-1.019 0-1.604-.515-.586-.527-.586-1.417 0-.901.586-1.417.585-.515 1.58-.515h1.991v-.644q0-.597-.363-.913-.351-.328-1.007-.328-.575 0-.96.246-.387.233-.445.644h-1.054q.105-.831.785-1.323.678-.492 1.697-.492 1.113 0 1.756.574.645.573.644 1.557v4.426h-1.03v-1.23h-.176l.176-.175q0 .702-.55 1.112-.538.41-1.44.41m.257-.831q.75 0 1.23-.375t.48-.96v-.913h-1.967q-.528 0-.832.292-.304.293-.304.797 0 .538.363.854.375.305 1.03.305m5.662 2.821.949-2.505-2.389-6.042h1.171l1.499 3.981q.081.2.152.48l.117.457.117-.457a5 5 0 0 1 .141-.48l1.404-3.98h1.136l-3.173 8.546zm8.016-2.014q-.656 0-1.148-.199a1.95 1.95 0 0 1-.772-.585 1.8 1.8 0 0 1-.34-.89h1.054a.83.83 0 0 0 .374.539q.316.2.832.199h.491q.62 0 .925-.246a.85.85 0 0 0 .305-.68q0-.409-.281-.643-.27-.246-.808-.328l-.866-.14q-.95-.165-1.417-.586-.457-.433-.457-1.252 0-.867.551-1.335.55-.48 1.65-.48h.445q.926 0 1.487.433.562.434.679 1.17h-1.053a.75.75 0 0 0-.352-.48q-.28-.186-.761-.187h-.445q-.597 0-.878.223-.269.222-.269.667 0 .398.234.586t.738.269l.866.14q1.042.165 1.51.61.48.444.481 1.287 0 .89-.574 1.405-.562.504-1.71.504zm13.209.024q-1.019 0-1.604-.515-.586-.527-.586-1.417 0-.901.586-1.417.585-.515 1.58-.515h1.991v-.644q0-.597-.363-.913-.351-.328-1.007-.328-.574 0-.96.246-.387.233-.445.644h-1.054a1.86 1.86 0 0 1 .785-1.323q.678-.492 1.697-.492 1.112 0 1.757.574.644.573.644 1.557v4.426h-1.031v-1.23h-.175l.175-.175q0 .702-.55 1.112-.538.41-1.44.41m.257-.831q.75 0 1.23-.375t.48-.96v-.913h-1.967q-.526 0-.831.292-.305.293-.305.797 0 .538.363.854.375.305 1.03.305m5.463 2.821v-.96h2.049q.492 0 .715-.222.234-.223.234-.691v-.82l.023-1.17h-.211l.199-.176q0 .702-.468 1.112t-1.253.41q-.994 0-1.569-.644-.573-.655-.573-1.756v-1.358q0-1.1.573-1.745.575-.644 1.569-.644.785 0 1.253.41t.468 1.112l-.199-.175h.199v-1.23h1.042v6.674q0 .867-.538 1.37-.527.503-1.475.503zm1.604-3.43q.656 0 1.031-.41t.374-1.136v-1.229q0-.726-.374-1.136t-1.031-.41q-.666 0-1.042.399-.362.397-.362 1.147v1.23q0 .748.362 1.147.376.398 1.042.398m6.81 1.416q-.772 0-1.335-.292a2.13 2.13 0 0 1-.878-.843q-.304-.563-.304-1.323v-1.71q0-.773.304-1.323.317-.549.878-.843.562-.292 1.335-.292t1.335.292q.561.294.866.843.316.55.316 1.312v1.72q0 .763-.316 1.324a2.06 2.06 0 0 1-.866.843q-.562.292-1.335.292m0-.936q.69 0 1.077-.386.387-.387.386-1.136v-1.71q0-.75-.386-1.135-.387-.387-1.077-.387-.68 0-1.077.387-.387.386-.387 1.135v1.71q0 .75.387 1.136.398.386 1.077.386"/><path fill="#14b8a6" d="m27.13 112.241 2.99-11.488h1.904l2.974 11.488h-1.432l-.756-3.053h-3.477l-.756 3.053zm2.486-4.249h2.895l-.88-3.541a46 46 0 0 1-.394-1.683 22 22 0 0 1-.173-.882q-.032.205-.173.882a42 42 0 0 1-.394 1.668zm10.065 4.406q-1.29 0-2.093-.865-.787-.866-.787-2.345v-2.533q0-1.495.787-2.361.787-.865 2.093-.865 1.07 0 1.716.582t.645 1.558l-.284-.331h.315l-.031-1.967v-2.518h1.416v11.488h-1.416v-1.652h-.284l.284-.331q0 .992-.645 1.574-.645.566-1.716.566m.472-1.227q.882 0 1.385-.551.504-.55.504-1.526v-2.361q0-.975-.504-1.526-.504-.55-1.385-.551-.897 0-1.416.535-.52.535-.52 1.542v2.361q0 1.007.52 1.542.519.535 1.416.535m8.65 1.227q-1.29 0-2.094-.865-.787-.866-.787-2.345v-2.533q0-1.495.787-2.361.788-.865 2.093-.865 1.07 0 1.716.582t.645 1.558l-.283-.331h.314l-.031-1.967v-2.518h1.416v11.488h-1.416v-1.652h-.283l.283-.331q0 .992-.645 1.574-.645.566-1.716.566m.471-1.227q.882 0 1.385-.551.504-.55.504-1.526v-2.361q0-.975-.504-1.526-.503-.55-1.385-.551-.897 0-1.416.535-.52.535-.52 1.542v2.361q0 1.007.52 1.542.519.535 1.416.535m18.258 1.227q-1.494 0-2.392-.881-.897-.897-.897-2.423v-5.508h1.417v5.508q0 .975.503 1.526.504.535 1.37.535.88 0 1.384-.535.52-.55.52-1.526v-5.508h1.416v5.508q0 1.526-.913 2.423-.912.881-2.408.881m8.87-.031q-.882 0-1.543-.268a2.6 2.6 0 0 1-1.038-.786 2.4 2.4 0 0 1-.457-1.196h1.417q.094.456.503.724.425.267 1.118.267h.66q.834 0 1.244-.33.41-.346.409-.913 0-.55-.378-.866-.361-.33-1.086-.44l-1.164-.189q-1.275-.22-1.904-.787-.614-.582-.614-1.684 0-1.164.74-1.794.739-.645 2.219-.645h.597q1.244 0 1.999.582t.913 1.574H78.62a1 1 0 0 0-.472-.645q-.377-.252-1.022-.252h-.599q-.802 0-1.18.299-.362.298-.362.897 0 .535.315.787.315.251.991.362l1.165.189q1.4.22 2.03.818.645.598.645 1.731 0 1.196-.77 1.888-.756.677-2.299.677zm9.388.031q-1.023 0-1.794-.409a2.95 2.95 0 0 1-1.18-1.148q-.41-.756-.41-1.747v-2.361q0-1.007.41-1.746a2.96 2.96 0 0 1 1.18-1.149q.771-.41 1.794-.409 1.023 0 1.778.409.771.409 1.18 1.149.426.74.425 1.746v1.527h-5.381v.834q0 1.023.519 1.573.52.535 1.48.535.817 0 1.321-.283a1.25 1.25 0 0 0 .614-.881h1.416q-.141 1.086-1.07 1.731-.914.63-2.282.629m1.999-5.082v-.583q0-1.023-.52-1.573-.502-.552-1.479-.551-.96 0-1.48.551-.518.55-.518 1.573v.457h4.107zm4.148 4.925v-8.655h1.385v1.652h.33l-.456 1.023q0-1.4.598-2.109.614-.723 1.81-.723 1.368 0 2.171.865.819.85.819 2.313v.52h-1.417v-.394q0-1.023-.503-1.558-.489-.55-1.4-.55-.898 0-1.417.55-.504.552-.504 1.558v5.508zm22.161 0q-1.118 0-1.747-.598-.614-.598-.614-1.684v-5.083h-2.439v-1.29h2.439v-2.439h1.416v2.439h3.462v1.29h-3.462v5.083q0 .992.945.992h2.36v1.29zm7.421.157q-1.369 0-2.156-.692-.787-.708-.787-1.904 0-1.212.787-1.904.787-.693 2.125-.693h2.675v-.865q0-.802-.488-1.228-.473-.44-1.353-.44-.771 0-1.291.33-.519.315-.598.866h-1.416a2.5 2.5 0 0 1 1.054-1.778q.913-.661 2.282-.661 1.495 0 2.361.771.865.77.865 2.093v5.948h-1.385v-1.652h-.236l.236-.236q0 .943-.739 1.495-.724.55-1.936.55m.346-1.117q1.008 0 1.653-.503.645-.504.645-1.291v-1.227h-2.644q-.708 0-1.117.393t-.409 1.07q0 .724.487 1.149.504.41 1.385.409m10.034 1.117q-1.07 0-1.715-.566-.645-.582-.645-1.574l.283.331h-.283v1.652h-1.417v-11.488h1.417v2.518l-.032 1.967h.315l-.283.331q0-.976.645-1.558.66-.582 1.715-.582 1.307 0 2.093.865.787.866.787 2.361v2.533q0 1.48-.787 2.345-.786.865-2.093.865m-.472-1.227q.897 0 1.416-.535.52-.535.52-1.542v-2.361q0-1.007-.52-1.542-.519-.535-1.416-.535-.866 0-1.385.551-.504.55-.503 1.526v2.361q0 .975.503 1.526.52.55 1.385.551m10.27 1.07q-.755 0-1.322-.299a2.14 2.14 0 0 1-.881-.85q-.315-.55-.315-1.29v-7.758h-2.911v-1.291h4.327v9.049q0 .535.299.85.3.299.803.299h2.754v1.29zm7.941.157q-1.023 0-1.794-.409a2.96 2.96 0 0 1-1.181-1.148q-.409-.756-.409-1.747v-2.361q0-1.007.409-1.746a2.96 2.96 0 0 1 1.181-1.149q.771-.41 1.794-.409 1.023 0 1.778.409a2.83 2.83 0 0 1 1.18 1.149q.425.74.425 1.746v1.527h-5.382v.834q0 1.023.519 1.573.52.535 1.48.535.818 0 1.322-.283a1.25 1.25 0 0 0 .613-.881h1.417q-.142 1.086-1.071 1.731-.912.63-2.281.629m1.998-5.082v-.583q0-1.023-.519-1.573-.504-.552-1.479-.551-.96 0-1.48.551-.519.55-.519 1.573v.457h4.107z"/><path fill="#4b5563" d="M29.293 126.358q-1.018 0-1.604-.515-.585-.526-.585-1.417 0-.901.585-1.416t1.58-.515h1.991v-.644q0-.597-.363-.914-.351-.327-1.007-.327-.573 0-.96.245-.386.235-.445.644h-1.053q.105-.831.784-1.323.68-.49 1.698-.491 1.112 0 1.756.573.645.575.644 1.557v4.426h-1.03v-1.229h-.176l.175-.176q0 .702-.55 1.112-.539.41-1.44.41m.258-.831q.75 0 1.23-.375t.48-.96v-.913h-1.968q-.526 0-.831.293-.305.292-.305.796 0 .539.363.854.376.305 1.03.305m4.655 2.822v-8.547h1.054v1.229h.21l-.21.246q0-.738.48-1.159.492-.433 1.288-.433.971 0 1.545.644.585.632.585 1.744v1.885q0 .738-.269 1.276a1.9 1.9 0 0 1-.738.831q-.468.294-1.123.293-.785 0-1.277-.433-.49-.433-.491-1.159l.21.246h-.234l.024 1.463v1.874zm2.47-2.904q.668 0 1.042-.398.387-.399.387-1.148v-1.756q0-.749-.387-1.147-.375-.398-1.042-.398-.643 0-1.03.41-.386.41-.386 1.135v1.756q0 .726.386 1.136.387.41 1.03.41m4.316 2.904v-8.547h1.054v1.229h.21l-.21.246q0-.738.48-1.159.492-.433 1.288-.433.972 0 1.545.644.585.632.585 1.744v1.885q0 .738-.269 1.276a1.9 1.9 0 0 1-.737.831q-.469.294-1.124.293-.785 0-1.277-.433-.49-.433-.491-1.159l.21.246h-.234l.024 1.463v1.874zm2.47-2.904q.668 0 1.042-.398.387-.399.387-1.148v-1.756q0-.749-.387-1.147-.375-.398-1.042-.398-.643 0-1.03.41t-.386 1.135v1.756q0 .726.386 1.136.387.41 1.03.41m7.63.796a2.1 2.1 0 0 1-.984-.222 1.6 1.6 0 0 1-.656-.633 1.9 1.9 0 0 1-.234-.96v-5.772h-2.166v-.96h3.22v6.732q0 .398.222.633.223.222.597.222h2.05v.96zm3.39 0v-.96h2.283v-4.519h-1.99v-.96h3.044v5.479h2.166v.96zm2.693-7.598q-.386 0-.609-.199a.69.69 0 0 1-.222-.539q0-.351.222-.55.222-.211.609-.211.386 0 .609.211.222.199.222.55a.69.69 0 0 1-.222.539q-.223.198-.609.199m6.61 7.715q-.76 0-1.334-.304a2.2 2.2 0 0 1-.878-.855q-.305-.562-.305-1.3v-1.756q0-.749.305-1.299.315-.55.878-.855.573-.304 1.334-.304t1.323.304q.574.305.879.855.315.55.316 1.299v1.136h-4.004v.62q0 .762.386 1.171.386.399 1.1.398.609 0 .984-.21a.93.93 0 0 0 .456-.656h1.054q-.105.808-.796 1.288-.68.468-1.698.468m1.487-3.782v-.433q0-.76-.386-1.17-.375-.41-1.1-.41-.715 0-1.101.41-.387.41-.387 1.17v.34h3.056zm4.925 3.782q-.96 0-1.557-.644-.585-.644-.586-1.744v-1.885q0-1.113.586-1.756.585-.645 1.557-.644.796 0 1.276.433t.48 1.159l-.21-.246h.233l-.023-1.463v-1.874h1.054v8.547h-1.054v-1.229h-.21l.21-.246q0 .738-.48 1.171-.48.421-1.276.421m.351-.913q.655 0 1.03-.41t.375-1.136v-1.756q0-.726-.375-1.135t-1.03-.41q-.667 0-1.054.398-.386.398-.386 1.147v1.756q0 .75.386 1.148.387.398 1.054.398m13.572.913q-1.042 0-1.71-.538-.666-.538-.784-1.452h1.054q.059.503.433.784.375.27 1.019.27.738 0 1.1-.399.375-.398.375-1.124v-.831q0-.725-.375-1.124-.363-.398-1.088-.398-.457 0-.797.246-.34.234-.491.632h-1.054l.058-4.73h4.496v.96H82.88l-.035 2.845h.328l-.328.305q0-.55.433-.867.444-.315 1.183-.316 1.042-.012 1.615.644.585.644.586 1.803v.831q0 1.137-.668 1.804-.666.655-1.873.655m13.221 0q-.96 0-1.557-.644-.586-.644-.586-1.744v-1.885q0-1.113.586-1.756.586-.645 1.557-.644.795 0 1.276.433.48.433.48 1.159l-.21-.246h.234l-.024-1.463v-1.874h1.054v8.547h-1.054v-1.229h-.21l.21-.246q0 .738-.48 1.171-.48.421-1.276.421m.351-.913q.655 0 1.03-.41t.375-1.136v-1.756q0-.726-.374-1.135-.375-.41-1.03-.41-.668 0-1.055.398t-.386 1.147v1.756q0 .75.386 1.148.387.398 1.054.398m6.248.913q-1.019 0-1.604-.515-.586-.526-.586-1.417 0-.901.586-1.416.585-.515 1.58-.515h1.991v-.644q0-.597-.363-.914-.351-.327-1.007-.327-.575 0-.96.245-.387.235-.445.644h-1.054q.105-.831.785-1.323.678-.49 1.697-.491 1.113 0 1.756.573.645.575.644 1.557v4.426h-1.03v-1.229h-.176l.176-.176q0 .702-.55 1.112-.538.41-1.44.41m.257-.831q.75 0 1.23-.375t.48-.96v-.913h-1.967q-.528 0-.832.293-.304.292-.304.796 0 .539.363.854.375.305 1.03.305m5.662 2.822.949-2.506-2.389-6.041h1.171l1.499 3.98q.081.2.152.48l.117.457.117-.457q.07-.28.141-.48l1.404-3.98h1.136l-3.173 8.547zm8.016-2.014q-.656 0-1.148-.199a1.96 1.96 0 0 1-.772-.586 1.8 1.8 0 0 1-.34-.889h1.054a.83.83 0 0 0 .374.538q.316.2.832.199h.491q.62 0 .925-.246a.85.85 0 0 0 .305-.679q0-.41-.281-.644-.27-.246-.808-.328l-.866-.14q-.95-.163-1.417-.585-.457-.434-.457-1.253 0-.867.551-1.335.55-.48 1.65-.48h.445q.926 0 1.487.433.562.433.679 1.171h-1.053a.75.75 0 0 0-.352-.48q-.28-.187-.761-.187h-.445q-.597 0-.878.222-.269.222-.269.667 0 .399.234.586.234.188.738.269l.866.141q1.042.164 1.51.608.48.445.481 1.288 0 .89-.574 1.405-.562.504-1.71.504zm13.209.023q-1.019 0-1.604-.515-.586-.526-.586-1.417 0-.901.586-1.416.585-.515 1.58-.515h1.991v-.644q0-.597-.363-.914-.351-.327-1.007-.327-.574 0-.96.245-.387.235-.445.644h-1.054a1.86 1.86 0 0 1 .785-1.323q.678-.49 1.697-.491 1.112 0 1.757.573.644.575.644 1.557v4.426h-1.031v-1.229h-.175l.175-.176q0 .702-.55 1.112-.538.41-1.44.41m.257-.831q.75 0 1.23-.375t.48-.96v-.913h-1.967q-.526 0-.831.293-.305.292-.305.796 0 .539.363.854.375.305 1.03.305m5.463 2.822v-.961h2.049q.492 0 .715-.222.234-.222.234-.691v-.819l.023-1.171h-.211l.199-.176q0 .703-.468 1.113t-1.253.409q-.994 0-1.569-.644-.573-.655-.573-1.756v-1.358q0-1.1.573-1.744.575-.645 1.569-.644.785 0 1.253.409.468.41.468 1.113l-.199-.176h.199v-1.229h1.042v6.673q0 .867-.538 1.37-.527.504-1.475.504zm1.604-3.431q.656 0 1.031-.41t.374-1.135v-1.23q0-.726-.374-1.135t-1.031-.41q-.666 0-1.042.398-.362.398-.362 1.147v1.23q0 .749.362 1.147.376.398 1.042.398m6.81 1.417q-.772 0-1.335-.293a2.13 2.13 0 0 1-.878-.843q-.304-.563-.304-1.323v-1.709q0-.773.304-1.323.317-.55.878-.843.562-.293 1.335-.293t1.335.293q.561.292.866.843.316.55.316 1.311v1.721q0 .76-.316 1.323a2.05 2.05 0 0 1-.866.843q-.562.293-1.335.293m0-.937q.69 0 1.077-.386t.386-1.136v-1.709q0-.75-.386-1.136-.387-.386-1.077-.386-.68 0-1.077.386-.387.386-.387 1.136v1.709q0 .75.387 1.136.398.386 1.077.386"/><path fill="#9ca3af" d="m27.13 178.098 2.99-11.487h1.904l2.974 11.487h-1.432l-.756-3.053h-3.477l-.756 3.053zm2.486-4.248h2.895l-.88-3.541a46 46 0 0 1-.394-1.684 22 22 0 0 1-.173-.881q-.032.204-.173.881a42 42 0 0 1-.394 1.668zm10.065 4.406q-1.29 0-2.093-.866-.787-.865-.787-2.345v-2.533q0-1.496.787-2.361t2.093-.865q1.07 0 1.716.582.645.583.645 1.558l-.284-.33h.315l-.031-1.967v-2.518h1.416v11.487h-1.416v-1.652h-.284l.284-.33q0 .991-.645 1.573-.645.567-1.716.567m.472-1.228q.882 0 1.385-.55.504-.551.504-1.527v-2.36q0-.977-.504-1.527t-1.385-.551q-.897 0-1.416.535-.52.535-.52 1.543v2.36q0 1.007.52 1.542.519.535 1.416.535m8.65 1.228q-1.29 0-2.094-.866-.787-.865-.787-2.345v-2.533q0-1.496.787-2.361.788-.865 2.093-.865 1.07 0 1.716.582.645.583.645 1.558l-.283-.33h.314l-.031-1.967v-2.518h1.416v11.487h-1.416v-1.652h-.283l.283-.33q0 .991-.645 1.573-.645.567-1.716.567m.471-1.228q.882 0 1.385-.55.504-.551.504-1.527v-2.36q0-.977-.504-1.527-.503-.55-1.385-.551-.897 0-1.416.535-.52.535-.52 1.543v2.36q0 1.007.52 1.542.519.535 1.416.535m14.89 1.07v-1.29h3.07v-6.074h-2.676v-1.291h4.092v7.365h2.91v1.29zm3.62-10.213q-.52 0-.818-.267-.3-.268-.3-.724 0-.472.3-.74.3-.283.818-.283.52 0 .818.283.3.268.3.74 0 .456-.3.724-.299.267-.818.267m5.612 10.213v-8.655h1.416v1.653h.3l-.3.33q0-1.022.614-1.574.614-.566 1.7-.566 1.306 0 2.077.802.77.804.77 2.188v5.822h-1.415v-5.665q0-.928-.504-1.416-.488-.504-1.338-.504-.88 0-1.4.535-.504.535-.504 1.543v5.507zm11.89.158q-1.29 0-2.092-.866-.787-.865-.787-2.345v-2.533q0-1.496.787-2.361.786-.865 2.093-.865 1.07 0 1.715.582.645.583.645 1.558l-.283-.33h.315l-.032-1.967v-2.518h1.416v11.487h-1.416v-1.652h-.283l.283-.33q0 .991-.645 1.573-.645.567-1.715.567m.473-1.228q.88 0 1.385-.55.503-.551.503-1.527v-2.36q0-.977-.504-1.527-.503-.55-1.384-.551-.897 0-1.417.535-.519.535-.519 1.543v2.36q0 1.007.52 1.542.519.535 1.416.535m9.152 1.228q-1.023 0-1.794-.409a2.96 2.96 0 0 1-1.18-1.149q-.41-.756-.41-1.747v-2.36q0-1.008.41-1.747a2.96 2.96 0 0 1 1.18-1.149q.771-.41 1.794-.409 1.023 0 1.778.409.772.41 1.18 1.149.426.74.426 1.747v1.526h-5.382v.834q0 1.023.519 1.574.52.535 1.48.535.817 0 1.321-.283.504-.3.614-.882h1.416q-.141 1.086-1.07 1.731-.912.63-2.282.63m1.999-5.083v-.582q0-1.023-.52-1.574-.502-.55-1.479-.551-.96 0-1.479.551-.52.55-.52 1.574v.456h4.108zm3.188 4.925 3.069-4.453-2.88-4.202h1.668l1.715 2.675q.11.174.205.378.11.205.173.331.048-.126.142-.331.11-.204.22-.378l1.731-2.675h1.652l-2.879 4.218 3.052 4.437h-1.668l-1.857-2.832a5 5 0 0 1-.22-.394 4 4 0 0 0-.173-.377q-.063.141-.189.377a3 3 0 0 1-.236.394l-1.872 2.832zm22.176.126q-1.038 0-1.794-.393a2.86 2.86 0 0 1-1.18-1.133q-.41-.755-.409-1.778v-2.298q0-1.038.409-1.778a2.86 2.86 0 0 1 1.18-1.133q.756-.394 1.794-.394 1.04 0 1.794.394.756.393 1.165 1.133.425.74.425 1.762v2.314q0 1.023-.425 1.778a2.76 2.76 0 0 1-1.165 1.133q-.754.393-1.794.393m0-1.259q.929 0 1.448-.519.52-.52.52-1.526v-2.298q0-1.007-.52-1.526t-1.448-.52q-.912 0-1.447.52-.52.52-.52 1.526v2.298q0 1.007.52 1.526.534.519 1.447.519m5.848 1.133v-8.655h1.417v1.653h.299l-.299.33q0-1.022.613-1.574.614-.566 1.7-.566 1.306 0 2.077.802.771.804.771 2.188v5.822h-1.416v-5.665q0-.928-.504-1.416-.488-.504-1.337-.504-.882 0-1.401.535-.504.535-.503 1.543v5.507zm21.516.158q-1.023 0-1.794-.409a2.97 2.97 0 0 1-1.181-1.149q-.409-.756-.409-1.747v-2.36q0-1.008.409-1.747a2.97 2.97 0 0 1 1.181-1.149q.771-.41 1.794-.409 1.023 0 1.778.409.77.41 1.18 1.149.425.74.425 1.747v1.526h-5.382v.834q0 1.023.519 1.574.52.535 1.48.535.818 0 1.322-.283.503-.3.613-.882h1.417q-.142 1.086-1.071 1.731-.912.63-2.281.63m1.998-5.083v-.582q0-1.023-.519-1.574-.504-.55-1.479-.551-.96 0-1.48.551-.519.55-.519 1.574v.456h4.107zm3.44 4.925v-8.655h1.244v1.039h.283l-.22.378q0-.725.377-1.149.393-.425 1.055-.425.724 0 1.117.535t.393 1.511l-.425-.85h.661l-.299.378q0-.725.394-1.149.408-.425 1.07-.425.818 0 1.259.614.456.614.456 1.62v6.578h-1.306v-6.593q0-.536-.236-.834-.22-.3-.661-.299a.84.84 0 0 0-.677.299q-.236.283-.236.818v6.609h-1.133v-6.593q0-.55-.252-.834-.236-.3-.676-.299-.44 0-.661.299-.22.283-.22.818v6.609zm12.048.158q-1.369 0-2.155-.693-.787-.708-.787-1.904 0-1.212.787-1.904.786-.692 2.124-.692h2.675v-.866q0-.803-.488-1.227-.471-.441-1.353-.441-.771 0-1.29.331-.52.314-.598.865h-1.417a2.5 2.5 0 0 1 1.055-1.778q.912-.661 2.281-.661 1.496 0 2.361.771t.865 2.093v5.948H169.8v-1.652h-.236l.236-.236q0 .944-.74 1.495-.724.55-1.936.551m.347-1.118q1.007 0 1.652-.503.645-.504.645-1.291v-1.227h-2.644q-.708 0-1.117.393-.41.394-.409 1.071 0 .723.488 1.148.504.41 1.385.409m6.147.96v-1.29h3.068v-6.074h-2.675v-1.291h4.091v7.365h2.912v1.29zm3.619-10.213q-.52 0-.818-.267-.3-.268-.299-.724 0-.472.299-.74.299-.283.818-.283.52 0 .818.283.3.268.299.74 0 .456-.299.724t-.818.267m10.065 10.213q-.755 0-1.322-.299a2.15 2.15 0 0 1-.881-.849q-.315-.552-.315-1.291v-7.758h-2.911v-1.29h4.328v9.048q0 .535.299.85.298.299.802.299h2.754v1.29zm13.679 0v-1.29h3.068v-6.074h-2.675v-1.291h4.092v7.365h2.911v1.29zm3.619-10.213q-.52 0-.818-.267-.3-.268-.299-.724 0-.472.299-.74.299-.283.818-.283.52 0 .818.283.3.268.299.74 0 .456-.299.724t-.818.267m5.612 10.213v-8.655h1.416v1.653h.299l-.299.33q0-1.022.614-1.574.614-.566 1.7-.566 1.305 0 2.077.802.771.804.771 2.188v5.822h-1.416v-5.665q0-.928-.504-1.416-.488-.504-1.338-.504-.88 0-1.4.535-.504.535-.504 1.543v5.507zm21.5.158q-1.495 0-2.392-.881-.897-.897-.897-2.424v-5.508h1.416v5.508q0 .976.503 1.527.504.534 1.37.535.881 0 1.384-.535.52-.551.52-1.527v-5.508h1.416v5.508q0 1.527-.913 2.424-.912.88-2.407.881m8.869-.032q-.882 0-1.542-.267a2.6 2.6 0 0 1-1.039-.787 2.4 2.4 0 0 1-.456-1.196h1.416q.094.456.504.724.424.267 1.117.267h.661q.834 0 1.243-.33.41-.346.409-.913 0-.551-.378-.865-.362-.331-1.085-.441l-1.165-.189q-1.274-.22-1.904-.787-.614-.582-.614-1.683 0-1.166.74-1.794.74-.646 2.219-.646h.598q1.244 0 1.998.583.756.582.913 1.573H242.8a1 1 0 0 0-.472-.645q-.378-.252-1.023-.252h-.598q-.803 0-1.181.299-.361.3-.361.897 0 .535.314.787.315.252.992.362l1.164.189q1.401.22 2.03.818.645.599.645 1.731 0 1.196-.771 1.889-.755.676-2.297.676zm9.388.032q-1.022 0-1.794-.409a2.97 2.97 0 0 1-1.18-1.149q-.41-.756-.409-1.747v-2.36q0-1.008.409-1.747a2.97 2.97 0 0 1 1.18-1.149q.772-.41 1.794-.409 1.023 0 1.779.409.77.41 1.18 1.149.425.74.425 1.747v1.526h-5.382v.834q0 1.023.519 1.574.519.535 1.479.535.82 0 1.322-.283.504-.3.614-.882h1.416q-.141 1.086-1.07 1.731-.912.63-2.282.63m1.999-5.083v-.582q0-1.023-.519-1.574-.504-.55-1.48-.551-.96 0-1.479.551-.519.55-.519 1.574v.456h4.107zm4.148 4.925v-8.655h1.385v1.653h.331l-.457 1.022q0-1.4.598-2.108.614-.724 1.81-.724 1.37 0 2.172.865.818.85.818 2.314v.519h-1.416v-.393q0-1.023-.504-1.558-.488-.551-1.401-.551-.897 0-1.416.551-.504.55-.503 1.558v5.507z"/><path fill="#4b5563" d="M29.293 192.215q-1.018 0-1.604-.515-.585-.526-.585-1.416 0-.902.585-1.417t1.58-.515h1.991v-.644q0-.597-.363-.913-.351-.328-1.007-.328-.573 0-.96.246-.386.234-.445.644h-1.053q.105-.833.784-1.323.68-.492 1.698-.492 1.112 0 1.756.574.645.573.644 1.557v4.425h-1.03v-1.229h-.176l.175-.176q0 .703-.55 1.113-.539.41-1.44.409m.258-.831q.75 0 1.23-.374.48-.375.48-.961v-.913h-1.968q-.526 0-.831.293-.305.292-.305.796 0 .538.363.855.376.304 1.03.304m4.655 2.822v-8.547h1.054v1.229h.21l-.21.246q0-.738.48-1.159.492-.433 1.288-.433.971 0 1.545.644.585.632.585 1.744v1.885q0 .738-.269 1.277a1.9 1.9 0 0 1-.738.831q-.468.292-1.123.292-.785 0-1.277-.433-.49-.433-.491-1.159l.21.246h-.234l.024 1.464v1.873zm2.47-2.904q.668 0 1.042-.398.387-.398.387-1.147v-1.756q0-.75-.387-1.148-.375-.398-1.042-.398-.643 0-1.03.41-.386.41-.386 1.136v1.756q0 .726.386 1.135.387.41 1.03.41m4.316 2.904v-8.547h1.054v1.229h.21l-.21.246q0-.738.48-1.159.492-.433 1.288-.433.972 0 1.545.644.585.632.585 1.744v1.885q0 .738-.269 1.277a1.9 1.9 0 0 1-.737.831q-.469.292-1.124.292-.785 0-1.277-.433-.49-.433-.491-1.159l.21.246h-.234l.024 1.464v1.873zm2.47-2.904q.668 0 1.042-.398.387-.398.387-1.147v-1.756q0-.75-.387-1.148-.375-.398-1.042-.398-.643 0-1.03.41t-.386 1.136v1.756q0 .726.386 1.135.387.41 1.03.41m7.63.796a2.1 2.1 0 0 1-.984-.222 1.6 1.6 0 0 1-.656-.632 1.9 1.9 0 0 1-.234-.96v-5.772h-2.166v-.96h3.22v6.732q0 .398.222.632.223.222.597.222h2.05v.96zm3.39 0v-.96h2.283v-4.519h-1.99v-.96h3.044v5.479h2.166v.96zm2.693-7.598q-.386 0-.609-.199a.69.69 0 0 1-.222-.539q0-.35.222-.55.222-.21.609-.211.386 0 .609.211.222.2.222.55a.69.69 0 0 1-.222.539q-.223.2-.609.199m6.61 7.715q-.76 0-1.334-.304a2.2 2.2 0 0 1-.878-.855q-.305-.561-.305-1.299v-1.756q0-.75.305-1.3.315-.55.878-.855.573-.304 1.334-.304t1.323.304q.574.304.879.855.315.55.316 1.3v1.135h-4.004v.621q0 .76.386 1.171.386.398 1.1.398.609 0 .984-.211a.93.93 0 0 0 .456-.656h1.054q-.105.808-.796 1.288-.68.468-1.698.468m1.487-3.781v-.433q0-.762-.386-1.171-.375-.41-1.1-.41-.715 0-1.101.41-.387.41-.387 1.171v.339h3.056zm4.925 3.781q-.96 0-1.557-.643-.585-.645-.586-1.745v-1.885q0-1.112.586-1.756.585-.644 1.557-.644.796 0 1.276.433t.48 1.159l-.21-.246h.233l-.023-1.463v-1.873h1.054v8.546h-1.054v-1.229h-.21l.21-.246q0 .738-.48 1.171-.48.421-1.276.421m.351-.913q.655 0 1.03-.41t.375-1.135v-1.756q0-.726-.375-1.136t-1.03-.41q-.667 0-1.054.398-.386.399-.386 1.148v1.756q0 .749.386 1.147.387.398 1.054.398m14.883.796v-1.873h-3.863v-1.651l3.383-5.022h1.15l-3.478 5.245v.468h2.81v-2.084h1.054v4.917zm11.91.117q-.96 0-1.557-.643-.586-.645-.586-1.745v-1.885q0-1.112.586-1.756t1.557-.644q.795 0 1.276.433.48.433.48 1.159l-.21-.246h.234l-.024-1.463v-1.873h1.054v8.546h-1.054v-1.229h-.21l.21-.246q0 .738-.48 1.171-.48.421-1.276.421m.351-.913q.655 0 1.03-.41t.375-1.135v-1.756q0-.726-.374-1.136-.375-.41-1.03-.41-.668 0-1.055.398-.386.399-.386 1.148v1.756q0 .749.386 1.147.387.398 1.054.398m6.248.913q-1.019 0-1.604-.515-.586-.526-.586-1.416 0-.902.586-1.417.585-.515 1.58-.515h1.991v-.644q0-.597-.363-.913-.351-.328-1.007-.328-.575 0-.96.246-.387.234-.445.644h-1.054q.105-.833.785-1.323.678-.492 1.697-.492 1.113 0 1.756.574.645.573.644 1.557v4.425h-1.03v-1.229h-.176l.176-.176q0 .703-.55 1.113-.538.41-1.44.409m.257-.831q.75 0 1.23-.374.48-.375.48-.961v-.913h-1.967q-.528 0-.832.293-.304.292-.304.796 0 .538.363.855.375.304 1.03.304m5.662 2.822.949-2.506-2.389-6.041h1.171l1.499 3.981q.081.198.152.48.07.268.117.456.046-.187.117-.456.07-.282.141-.48l1.404-3.981h1.136l-3.173 8.547zm8.016-2.014q-.656 0-1.148-.199a1.96 1.96 0 0 1-.772-.585 1.8 1.8 0 0 1-.34-.89h1.054a.83.83 0 0 0 .374.538q.316.2.832.199h.491q.62 0 .925-.245a.85.85 0 0 0 .305-.68q0-.41-.281-.643-.27-.246-.808-.328l-.866-.141q-.95-.163-1.417-.585-.457-.434-.457-1.253 0-.866.551-1.335.55-.48 1.65-.48h.445q.926 0 1.487.434.562.433.679 1.17h-1.053a.75.75 0 0 0-.352-.48q-.28-.187-.761-.187h-.445q-.597 0-.878.222-.269.223-.269.668 0 .398.234.585.234.188.738.269l.866.141q1.042.163 1.51.609.48.445.481 1.288 0 .89-.574 1.405-.562.503-1.71.503zm13.209.023q-1.019 0-1.604-.515-.586-.526-.586-1.416 0-.902.586-1.417.585-.515 1.58-.515h1.991v-.644q0-.597-.363-.913-.351-.328-1.007-.328-.574 0-.96.246-.387.234-.445.644h-1.054q.106-.833.785-1.323.678-.492 1.697-.492 1.112 0 1.757.574.644.573.644 1.557v4.425h-1.031v-1.229h-.175l.175-.176q0 .703-.55 1.113-.538.41-1.44.409m.257-.831q.75 0 1.23-.374.48-.375.48-.961v-.913h-1.967q-.526 0-.831.293-.305.292-.305.796 0 .538.363.855.375.304 1.03.304m5.463 2.822v-.96h2.049q.492 0 .715-.223.234-.222.234-.69v-.82l.023-1.171h-.211l.199-.175q0 .702-.468 1.112t-1.253.41q-.994 0-1.569-.644-.573-.656-.573-1.757v-1.358q0-1.1.573-1.744.575-.644 1.569-.644.785 0 1.253.41t.468 1.112l-.199-.176h.199v-1.229h1.042v6.674q0 .866-.538 1.369-.527.504-1.475.504zm1.604-3.431q.656 0 1.031-.409.375-.41.374-1.136v-1.229q0-.726-.374-1.136t-1.031-.41q-.666 0-1.042.398-.362.399-.362 1.148v1.229q0 .749.362 1.147.376.399 1.042.398m6.81 1.417q-.772 0-1.335-.293a2.13 2.13 0 0 1-.878-.843q-.304-.561-.304-1.323v-1.709q0-.772.304-1.323.317-.55.878-.843.562-.293 1.335-.293t1.335.293q.561.292.866.843.316.55.316 1.311v1.721q0 .762-.316 1.323a2.05 2.05 0 0 1-.866.843q-.562.293-1.335.293m0-.937q.69 0 1.077-.386t.386-1.136v-1.709q0-.75-.386-1.136-.387-.386-1.077-.386-.68 0-1.077.386-.387.387-.387 1.136v1.709q0 .75.387 1.136.398.387 1.077.386"/><g opacity=".8"><path fill="#9ca3af" d="M31.127 244.113q-1.133 0-1.952-.378a2.85 2.85 0 0 1-1.243-1.085q-.441-.71-.456-1.684h1.416q0 .865.582 1.369.599.504 1.653.503.99 0 1.542-.487.566-.489.566-1.354 0-.692-.377-1.212-.362-.519-1.055-.723l-1.558-.488q-1.18-.362-1.825-1.212-.63-.85-.63-1.998 0-.929.41-1.606a2.85 2.85 0 0 1 1.18-1.07q.756-.393 1.778-.393 1.51 0 2.424.85.913.834.928 2.234h-1.416q0-.85-.52-1.322-.503-.487-1.432-.487-.912 0-1.432.44-.503.44-.503 1.228 0 .708.377 1.227.378.52 1.086.74l1.574.503q1.15.363 1.778 1.228.63.865.63 2.03 0 .944-.44 1.652a2.97 2.97 0 0 1-1.244 1.102q-.787.393-1.841.393m5.785 2.675v-11.487h1.416v1.652h.283l-.283.33q0-.991.645-1.558.66-.582 1.731-.582 1.306 0 2.077.866.787.85.787 2.344v2.534q0 .992-.362 1.715-.345.724-.991 1.118-.63.393-1.51.393-1.056 0-1.716-.582-.66-.583-.661-1.558l.283.33h-.315l.032 1.967v2.518zm3.32-3.902q.897 0 1.4-.535.52-.535.52-1.543v-2.36q0-1.008-.52-1.542-.503-.535-1.4-.535-.866 0-1.385.55-.52.551-.52 1.527v2.36q0 .976.52 1.527t1.385.551m10.254 1.07q-.755 0-1.322-.299a2.15 2.15 0 0 1-.881-.85q-.315-.55-.315-1.29v-7.759h-2.911v-1.29h4.328v9.049q0 .534.299.849.298.3.802.299h2.754v1.291zm4.558 0v-1.291h3.068v-6.074h-2.675v-1.29h4.092v7.364h2.91v1.291zm3.619-10.213q-.52 0-.818-.268-.3-.268-.3-.724 0-.472.3-.739.299-.284.818-.284.52 0 .818.284.3.267.3.739 0 .456-.3.724-.299.268-.818.268m9.83 10.213q-1.119 0-1.747-.598-.615-.598-.614-1.684v-5.083h-2.44v-1.29h2.44v-2.44h1.416v2.44h3.462v1.29h-3.462v5.083q0 .991.944.991h2.36v1.291zm14.024 0v-8.655h1.416v1.652h.3l-.3.33q0-1.023.614-1.573.614-.567 1.7-.567 1.306 0 2.077.803.77.802.77 2.187v5.823H87.68v-5.665q0-.929-.504-1.417-.488-.503-1.338-.503-.88 0-1.4.535-.504.534-.504 1.542v5.508zm11.639.157q-1.37 0-2.156-.692-.787-.708-.787-1.904 0-1.212.787-1.905.788-.692 2.124-.692H96.8v-.866q0-.802-.488-1.227-.472-.441-1.354-.441-.771 0-1.29.331-.52.315-.598.865h-1.416a2.5 2.5 0 0 1 1.054-1.778q.914-.66 2.282-.661 1.495 0 2.36.771.866.771.866 2.093v5.949H96.83v-1.653h-.236l.236-.236q0 .945-.74 1.495-.723.55-1.935.551m.346-1.117q1.007 0 1.652-.504.646-.504.646-1.29v-1.228h-2.644q-.708 0-1.117.394-.41.393-.41 1.07 0 .723.488 1.149.504.409 1.385.409m5.848.96v-8.655h1.243v1.038h.283l-.22.378q0-.725.378-1.149.393-.425 1.054-.425.724 0 1.117.535.394.536.394 1.511l-.425-.85h.661l-.299.378q0-.725.393-1.149.41-.425 1.07-.425.82 0 1.259.614.457.613.457 1.621v6.578h-1.306v-6.594q0-.535-.237-.834-.22-.299-.66-.299a.84.84 0 0 0-.677.299q-.236.284-.236.818v6.61h-1.133v-6.594q0-.55-.252-.834-.236-.299-.677-.299-.44 0-.661.299-.22.284-.22.818v6.61zm12.803.157q-1.023 0-1.794-.409a2.97 2.97 0 0 1-1.18-1.149q-.41-.755-.409-1.747v-2.36q0-1.008.409-1.747a2.97 2.97 0 0 1 1.18-1.149q.771-.409 1.794-.409t1.779.409q.77.41 1.18 1.149.425.74.425 1.747v1.526h-5.382v.834q0 1.023.519 1.574.519.535 1.479.535.82 0 1.322-.283.504-.3.614-.881h1.416q-.141 1.085-1.07 1.731-.912.629-2.282.629m1.999-5.083v-.582q0-1.023-.519-1.574-.504-.55-1.48-.551-.96 0-1.479.551-.519.55-.519 1.574v.456h4.107zm12.86 4.926v-1.291h3.069v-6.074h-2.675v-1.29h4.091v7.364h2.911v1.291zm3.62-10.213q-.52 0-.819-.268t-.299-.724q0-.472.299-.739.3-.284.819-.284.52 0 .818.284.299.267.299.739 0 .456-.299.724t-.818.268m5.611 10.213v-8.655h1.417v1.652h.299l-.299.33q0-1.023.613-1.573.614-.567 1.7-.567 1.306 0 2.077.803.771.802.771 2.187v5.823h-1.416v-5.665q0-.929-.504-1.417-.488-.503-1.337-.503-.882 0-1.401.535-.503.534-.503 1.542v5.508zm13.339 0q-1.117 0-1.747-.598-.614-.598-.614-1.684v-5.083h-2.439v-1.29h2.439v-2.44h1.417v2.44h3.462v1.29h-3.462v5.083q0 .991.944.991h2.36v1.291zm8.177.126q-1.04 0-1.794-.394a2.85 2.85 0 0 1-1.18-1.133q-.41-.755-.41-1.778v-2.298q0-1.038.41-1.778a2.85 2.85 0 0 1 1.18-1.133q.754-.393 1.794-.393 1.038 0 1.794.393.755.393 1.164 1.133.425.74.425 1.763v2.313q0 1.023-.425 1.778a2.76 2.76 0 0 1-1.164 1.133q-.756.393-1.794.394m0-1.259q.928 0 1.447-.52.52-.52.52-1.526v-2.298q0-1.007-.52-1.526-.519-.519-1.447-.519-.913 0-1.448.519-.519.52-.519 1.526v2.298q0 1.007.519 1.526.535.52 1.448.52m16.983 1.133v-6.5h-2.518v-1.29h2.518v-1.495q0-1.023.645-1.605.645-.598 1.778-.598h2.534v1.29h-2.534q-.488 0-.755.236-.252.22-.252.677v1.495h3.541v1.29h-3.541v6.5zm6.997 0v-1.291h3.068v-6.074h-2.675v-1.29h4.091v7.364h2.912v1.291zm3.619-10.213q-.52 0-.818-.268-.3-.268-.299-.724 0-.472.299-.739.299-.284.818-.284.52 0 .818.284.3.267.299.739 0 .456-.299.724t-.818.268m5.911 10.213v-8.655h1.385v1.652h.33l-.456 1.023q0-1.401.598-2.109.614-.724 1.809-.724 1.37 0 2.172.866.819.849.818 2.313v.519h-1.416v-.393q0-1.023-.503-1.558-.489-.55-1.401-.551-.897 0-1.416.551-.504.55-.504 1.558v5.508zm11.828.126q-.882 0-1.543-.268a2.6 2.6 0 0 1-1.038-.787 2.4 2.4 0 0 1-.457-1.196h1.417q.094.457.503.724.425.268 1.118.268h.66q.835 0 1.244-.331a1.14 1.14 0 0 0 .409-.913q0-.55-.378-.865-.362-.33-1.086-.441l-1.164-.189q-1.275-.22-1.904-.786-.614-.583-.614-1.684 0-1.164.74-1.794.74-.645 2.218-.645h.598q1.243 0 1.999.582t.913 1.574h-1.417a1 1 0 0 0-.472-.646q-.376-.25-1.023-.251h-.598q-.802 0-1.18.299-.362.298-.362.897 0 .535.315.786.315.252.991.362l1.165.189q1.4.22 2.03.818.645.598.645 1.732 0 1.195-.771 1.888-.755.677-2.298.677zm10.332-.126q-1.117 0-1.746-.598-.614-.598-.614-1.684v-5.083h-2.439v-1.29h2.439v-2.44h1.416v2.44h3.462v1.29h-3.462v5.083q0 .991.944.991h2.361v1.291zm16.543.157q-1.369 0-2.156-.692-.787-.708-.787-1.904 0-1.212.787-1.905.787-.692 2.124-.692h2.676v-.866q0-.802-.488-1.227-.472-.441-1.353-.441-.772 0-1.291.331-.519.315-.598.865h-1.416a2.5 2.5 0 0 1 1.054-1.778q.913-.66 2.282-.661 1.495 0 2.36.771.866.771.866 2.093v5.949h-1.385v-1.653h-.236l.236-.236q0 .945-.739 1.495-.724.55-1.936.551m.346-1.117q1.008 0 1.652-.504.646-.504.646-1.29v-1.228h-2.644q-.708 0-1.117.394-.41.393-.41 1.07 0 .723.488 1.149.504.409 1.385.409m6.257.96v-8.655h1.416v1.652h.299l-.299.33q0-1.023.614-1.573.614-.567 1.7-.567 1.306 0 2.077.803.771.802.771 2.187v5.823h-1.416v-5.665q0-.929-.504-1.417-.488-.503-1.337-.503-.882 0-1.401.535-.504.534-.504 1.542v5.508zm11.891.157q-1.29 0-2.093-.865-.787-.866-.787-2.345v-2.534q0-1.494.787-2.36.786-.866 2.093-.866 1.07 0 1.715.582.645.583.645 1.558l-.283-.33h.315l-.032-1.967v-2.518h1.417v11.488h-1.417v-1.653h-.283l.283-.33q0 .991-.645 1.574-.645.566-1.715.566m.472-1.227q.88 0 1.385-.551.503-.55.503-1.527v-2.36q0-.976-.503-1.527-.504-.55-1.385-.55-.897 0-1.416.535-.52.534-.52 1.542v2.36q0 1.008.52 1.543.519.535 1.416.535m19.454 1.07q-.756 0-1.322-.299a2.15 2.15 0 0 1-.881-.85q-.315-.55-.315-1.29v-7.759h-2.911v-1.29h4.327v9.049q0 .534.299.849.3.3.803.299h2.754v1.291zm7.185.157q-1.368 0-2.156-.692-.786-.708-.786-1.904 0-1.212.786-1.905.787-.692 2.125-.692h2.675v-.866q0-.802-.488-1.227-.473-.441-1.353-.441-.77 0-1.291.331-.519.315-.598.865h-1.416a2.5 2.5 0 0 1 1.055-1.778q.913-.66 2.281-.661 1.496 0 2.361.771t.865 2.093v5.949h-1.384v-1.653h-.237l.237-.236q0 .945-.74 1.495-.724.55-1.936.551m.346-1.117q1.008 0 1.653-.504t.645-1.29v-1.228h-2.644q-.708 0-1.117.394-.41.393-.409 1.07 0 .723.488 1.149.503.409 1.384.409m9.263 1.086q-.88 0-1.542-.268a2.64 2.64 0 0 1-1.039-.787 2.4 2.4 0 0 1-.456-1.196h1.416q.094.457.504.724.425.268 1.117.268h.661q.834 0 1.243-.331.41-.346.409-.913 0-.55-.377-.865-.362-.33-1.086-.441l-1.165-.189q-1.274-.22-1.904-.786-.613-.583-.613-1.684 0-1.164.739-1.794.74-.645 2.219-.645h.598q1.243 0 1.999.582.755.582.912 1.574h-1.416a1 1 0 0 0-.472-.646q-.378-.25-1.023-.251h-.598q-.802 0-1.18.299-.362.298-.362.897 0 .535.315.786.314.252.991.362l1.165.189q1.4.22 2.03.818.645.598.645 1.732 0 1.195-.771 1.888-.756.677-2.298.677zm10.333-.126q-1.117 0-1.747-.598-.614-.598-.614-1.684v-5.083h-2.439v-1.29h2.439v-2.44h1.417v2.44h3.462v1.29h-3.462v5.083q0 .991.944.991h2.36v1.291z"/><path fill="#4b5563" d="M29.293 258.073q-1.018 0-1.604-.515-.585-.528-.585-1.417 0-.901.585-1.417.585-.515 1.58-.515h1.991v-.644q0-.597-.363-.913-.351-.328-1.007-.328-.573 0-.96.246-.386.234-.445.644h-1.053q.105-.831.784-1.323.68-.492 1.698-.492 1.112 0 1.756.574.645.573.644 1.557v4.426h-1.03v-1.23h-.176l.175-.175q0 .702-.55 1.112-.539.41-1.44.41m.258-.831q.75 0 1.23-.375t.48-.96v-.913h-1.968q-.526 0-.831.292-.305.293-.305.796 0 .538.363.855.376.305 1.03.305m4.655 2.821v-8.547h1.054v1.23h.21l-.21.246q0-.738.48-1.16.492-.433 1.288-.433.971 0 1.545.644.585.632.585 1.745v1.885q0 .737-.269 1.276a1.9 1.9 0 0 1-.738.831q-.468.293-1.123.293-.785 0-1.277-.433-.49-.434-.491-1.16l.21.246h-.234l.024 1.464v1.873zm2.47-2.903q.668 0 1.042-.399.387-.397.387-1.147v-1.756q0-.75-.387-1.147-.375-.399-1.042-.399-.643 0-1.03.41-.386.41-.386 1.136v1.756q0 .726.386 1.136.387.41 1.03.41m4.316 2.903v-8.547h1.054v1.23h.21l-.21.246q0-.738.48-1.16.492-.433 1.288-.433.972 0 1.545.644.585.632.585 1.745v1.885q0 .737-.269 1.276a1.9 1.9 0 0 1-.737.831q-.469.293-1.124.293-.785 0-1.277-.433-.49-.434-.491-1.16l.21.246h-.234l.024 1.464v1.873zm2.47-2.903q.668 0 1.042-.399.387-.397.387-1.147v-1.756q0-.75-.387-1.147-.375-.399-1.042-.399-.643 0-1.03.41t-.386 1.136v1.756q0 .726.386 1.136.387.41 1.03.41m7.63.796a2.1 2.1 0 0 1-.984-.223 1.6 1.6 0 0 1-.656-.632 1.9 1.9 0 0 1-.234-.96v-5.772h-2.166v-.96h3.22v6.732q0 .398.222.632.223.222.597.223h2.05v.96zm3.39 0v-.96h2.283v-4.52h-1.99v-.96h3.044v5.48h2.166v.96zm2.693-7.599q-.386 0-.609-.199a.69.69 0 0 1-.222-.538q0-.352.222-.551.222-.21.609-.21.386 0 .609.21.222.199.222.551a.69.69 0 0 1-.222.538q-.223.2-.609.199m6.61 7.716q-.76 0-1.334-.305a2.2 2.2 0 0 1-.878-.854q-.305-.562-.305-1.3v-1.756q0-.75.305-1.3a2.2 2.2 0 0 1 .878-.854q.573-.305 1.334-.305t1.323.305q.574.304.879.854.315.55.316 1.3v1.136h-4.004v.62q0 .761.386 1.171.386.398 1.1.398.609 0 .984-.211a.93.93 0 0 0 .456-.655h1.054q-.105.807-.796 1.287-.68.47-1.698.469m1.487-3.782v-.433q0-.761-.386-1.171-.375-.41-1.1-.41-.715 0-1.101.41-.387.41-.387 1.171v.339h3.056zm4.925 3.782q-.96 0-1.557-.644-.585-.644-.586-1.745v-1.885q0-1.112.586-1.756.585-.644 1.557-.644.796 0 1.276.433.48.434.48 1.16l-.21-.246h.233l-.023-1.464v-1.873h1.054v8.547h-1.054v-1.23h-.21l.21-.246q0 .738-.48 1.171-.48.422-1.276.422m.351-.913q.655 0 1.03-.41t.375-1.136v-1.756q0-.726-.375-1.136t-1.03-.41q-.667 0-1.054.399-.386.397-.386 1.147v1.756q0 .75.386 1.147.387.399 1.054.399m11.16.796v-1.077l2.611-2.775q.668-.714.972-1.265.304-.561.304-1.077 0-.714-.398-1.124-.386-.41-1.065-.41-.75 0-1.183.422-.42.421-.421 1.159h-1.054q.024-.772.351-1.335a2.3 2.3 0 0 1 .925-.878q.597-.304 1.382-.304.773 0 1.334.304.575.293.879.843t.304 1.311q0 .726-.386 1.441-.387.714-1.265 1.627l-2.107 2.178h3.898v.96zm15.633.117q-.96 0-1.557-.644-.586-.644-.586-1.745v-1.885q0-1.112.586-1.756t1.557-.644q.795 0 1.276.433.48.434.48 1.16l-.21-.246h.234l-.024-1.464v-1.873h1.054v8.547h-1.054v-1.23h-.21l.21-.246q0 .738-.48 1.171-.48.422-1.276.422m.351-.913q.655 0 1.03-.41t.375-1.136v-1.756q0-.726-.374-1.136-.375-.41-1.03-.41-.668 0-1.055.399-.386.397-.386 1.147v1.756q0 .75.386 1.147.387.399 1.054.399m6.248.913q-1.019 0-1.604-.515-.586-.528-.586-1.417 0-.901.586-1.417.585-.515 1.58-.515h1.991v-.644q0-.597-.363-.913-.351-.328-1.007-.328-.575 0-.96.246-.387.234-.445.644h-1.054q.105-.831.785-1.323.678-.492 1.697-.492 1.113 0 1.756.574.645.573.644 1.557v4.426h-1.03v-1.23h-.176l.176-.175q0 .702-.55 1.112-.538.41-1.44.41m.257-.831q.75 0 1.23-.375t.48-.96v-.913h-1.967q-.528 0-.832.292-.304.293-.304.796 0 .538.363.855.375.305 1.03.305m5.662 2.821.949-2.505-2.389-6.042h1.171l1.499 3.981q.081.2.152.48l.117.457.117-.457q.07-.28.141-.48l1.404-3.981h1.136l-3.173 8.547zm8.016-2.014q-.656 0-1.148-.199a1.95 1.95 0 0 1-.772-.585 1.8 1.8 0 0 1-.34-.89h1.054a.83.83 0 0 0 .374.539q.316.198.832.199h.491q.62 0 .925-.246a.85.85 0 0 0 .305-.679q0-.41-.281-.644-.27-.246-.808-.328l-.866-.14q-.95-.165-1.417-.586-.457-.433-.457-1.253 0-.866.551-1.334.55-.48 1.65-.48h.445q.926 0 1.487.433.562.433.679 1.171h-1.053a.75.75 0 0 0-.352-.48q-.28-.188-.761-.188h-.445q-.597 0-.878.223-.269.222-.269.667 0 .398.234.585.234.188.738.27l.866.14q1.042.164 1.51.609.48.445.481 1.288 0 .89-.574 1.405-.562.503-1.71.503zm13.209.024q-1.019 0-1.604-.515-.586-.528-.586-1.417 0-.901.586-1.417.585-.515 1.58-.515h1.991v-.644q0-.597-.363-.913-.351-.328-1.007-.328-.574 0-.96.246-.387.234-.445.644h-1.054a1.86 1.86 0 0 1 .785-1.323q.678-.492 1.697-.492 1.112 0 1.757.574.644.573.644 1.557v4.426h-1.031v-1.23h-.175l.175-.175q0 .702-.55 1.112-.538.41-1.44.41m.257-.831q.75 0 1.23-.375t.48-.96v-.913h-1.967q-.526 0-.831.292-.305.293-.305.796 0 .538.363.855.375.305 1.03.305m5.463 2.821v-.96h2.049q.492 0 .715-.222.234-.223.234-.691v-.82l.023-1.171h-.211l.199-.175q0 .702-.468 1.112t-1.253.41q-.994 0-1.569-.644-.573-.656-.573-1.756v-1.358q0-1.101.573-1.745.575-.644 1.569-.644.785 0 1.253.41t.468 1.112l-.199-.175h.199v-1.23h1.042v6.674q0 .866-.538 1.37-.527.503-1.475.503zm1.604-3.43q.656 0 1.031-.41t.374-1.136v-1.229q0-.726-.374-1.136t-1.031-.41q-.666 0-1.042.399-.362.397-.362 1.147v1.229q0 .75.362 1.148.376.398 1.042.398m6.81 1.416q-.772 0-1.335-.292a2.13 2.13 0 0 1-.878-.843q-.304-.562-.304-1.323v-1.71q0-.772.304-1.323.317-.55.878-.843.562-.292 1.335-.292t1.335.292q.561.292.866.843.316.55.316 1.312v1.721q0 .76-.316 1.323a2.05 2.05 0 0 1-.866.843q-.562.292-1.335.292m0-.936q.69 0 1.077-.387.387-.386.386-1.135v-1.71q0-.749-.386-1.135-.387-.387-1.077-.387-.68 0-1.077.387-.387.386-.387 1.135v1.71q0 .749.387 1.135.398.387 1.077.387"/></g><g opacity=".62"><path fill="#9ca3af" d="m27.13 309.81 2.99-11.488h1.904l2.974 11.488h-1.432l-.756-3.053h-3.477l-.756 3.053zm2.486-4.249h2.895l-.88-3.541a46 46 0 0 1-.394-1.684 22 22 0 0 1-.173-.881q-.032.204-.173.881a42 42 0 0 1-.394 1.668zm10.065 4.406q-1.29 0-2.093-.866-.787-.865-.787-2.344v-2.534q0-1.495.787-2.36.787-.866 2.093-.866 1.07 0 1.716.582.645.583.645 1.558l-.284-.33h.315l-.031-1.967v-2.518h1.416v11.488h-1.416v-1.653h-.284l.284-.33q0 .991-.645 1.573-.645.567-1.716.567m.472-1.228q.882 0 1.385-.55.504-.55.504-1.527v-2.36q0-.976-.504-1.527t-1.385-.55q-.897 0-1.416.535-.52.534-.52 1.542v2.36q0 1.008.52 1.542.519.535 1.416.535m8.65 1.228q-1.29 0-2.094-.866-.787-.865-.787-2.344v-2.534q0-1.495.787-2.36.788-.866 2.093-.866 1.07 0 1.716.582.645.583.645 1.558l-.283-.33h.314l-.031-1.967v-2.518h1.416v11.488h-1.416v-1.653h-.283l.283-.33q0 .991-.645 1.573-.645.567-1.716.567m.471-1.228q.882 0 1.385-.55.504-.55.504-1.527v-2.36q0-.976-.504-1.527-.503-.55-1.385-.55-.897 0-1.416.535-.52.534-.52 1.542v2.36q0 1.008.52 1.542.519.535 1.416.535m18.274 1.228q-1.023 0-1.794-.409a2.96 2.96 0 0 1-1.18-1.149q-.41-.756-.41-1.747v-2.36q0-1.008.41-1.747a2.96 2.96 0 0 1 1.18-1.149q.771-.41 1.794-.409 1.023 0 1.778.409.771.41 1.18 1.149.425.74.425 1.747v1.526h-5.38v.834q0 1.023.52 1.574.52.535 1.479.535.819 0 1.322-.283.504-.3.614-.882H70.9q-.142 1.086-1.07 1.731-.914.63-2.282.63m1.999-5.083v-.582q0-1.023-.52-1.574-.503-.55-1.479-.551-.96 0-1.48.551-.518.55-.519 1.574v.456h4.108zm3.44 4.926v-8.656h1.243v1.039h.283l-.22.378q0-.724.378-1.149.393-.425 1.054-.425.724 0 1.117.535.394.535.394 1.511l-.425-.85h.66l-.298.378q0-.724.393-1.149.41-.425 1.07-.425.818 0 1.26.614.455.613.456 1.621v6.578h-1.307v-6.594q0-.535-.236-.834-.22-.299-.66-.299a.84.84 0 0 0-.677.299q-.237.284-.236.818v6.61h-1.133v-6.594q0-.55-.252-.834-.236-.299-.677-.299t-.66.299q-.221.284-.221.818v6.61zm12.048.157q-1.37 0-2.156-.692-.787-.709-.787-1.905 0-1.21.787-1.904.787-.692 2.124-.692h2.676v-.866q0-.803-.488-1.227-.472-.441-1.354-.441-.771 0-1.29.331-.52.315-.598.865h-1.416a2.5 2.5 0 0 1 1.054-1.778q.913-.661 2.282-.661 1.494 0 2.36.771t.866 2.093v5.949H87.71v-1.653h-.236l.236-.236q0 .945-.74 1.495-.723.55-1.935.551m.346-1.117q1.007 0 1.652-.504.646-.504.646-1.29v-1.228h-2.644q-.708 0-1.117.394-.41.393-.41 1.07 0 .723.488 1.148.503.41 1.385.41m6.147.96v-1.291h3.069v-6.074H91.92v-1.291h4.092v7.365h2.911v1.291zm3.62-10.213q-.52 0-.819-.268-.3-.267-.299-.724 0-.472.299-.739.3-.284.818-.284.52 0 .819.284.299.267.299.739 0 .457-.3.724-.299.267-.818.268m10.065 10.213q-.756 0-1.322-.299a2.16 2.16 0 0 1-.882-.85q-.314-.551-.314-1.291v-7.758h-2.912v-1.29h4.328v9.048q0 .535.299.85.299.3.803.299h2.753v1.291zm16.102 0-2.896-8.656h1.448l1.92 5.823q.173.52.314 1.007.142.472.205.74l.22-.74q.142-.488.299-1.007l1.873-5.823h1.432l-2.896 8.656zm9.325.157q-1.369 0-2.156-.692-.787-.709-.787-1.905 0-1.21.787-1.904.787-.692 2.125-.692h2.675v-.866q0-.803-.488-1.227-.472-.441-1.353-.441-.77 0-1.291.331-.519.315-.598.865h-1.416a2.5 2.5 0 0 1 1.054-1.778q.913-.661 2.282-.661 1.495 0 2.361.771.865.771.865 2.093v5.949h-1.385v-1.653h-.236l.236-.236q0 .945-.739 1.495-.724.55-1.936.551m.346-1.117q1.008 0 1.653-.504t.645-1.29v-1.228h-2.644q-.708 0-1.117.394-.41.393-.409 1.07 0 .723.488 1.148.503.41 1.384.41m10.711.96q-.755 0-1.322-.299a2.15 2.15 0 0 1-.881-.85q-.315-.551-.315-1.291v-7.758h-2.911v-1.29h4.327v9.048q0 .535.299.85.3.3.803.299h2.754v1.291zm4.557 0v-1.291h3.069v-6.074h-2.675v-1.291h4.091v7.365h2.911v1.291zm3.62-10.213q-.52 0-.819-.268-.299-.267-.299-.724 0-.472.299-.739.3-.284.819-.284.52 0 .818.284.299.267.299.739 0 .457-.299.724t-.818.268m8.381 10.37q-1.29 0-2.093-.866-.787-.865-.787-2.344v-2.534q0-1.495.787-2.36.787-.866 2.093-.866 1.07 0 1.715.582.646.583.646 1.558l-.284-.33h.315l-.031-1.967v-2.518h1.416v11.488h-1.416v-1.653h-.284l.284-.33q0 .991-.646 1.573-.645.567-1.715.567m.472-1.228q.881 0 1.385-.55t.504-1.527v-2.36q0-.976-.504-1.527t-1.385-.55q-.897 0-1.416.535-.519.534-.519 1.542v2.36q0 1.008.519 1.542.519.535 1.416.535m8.397 1.228q-1.369 0-2.155-.692-.787-.709-.787-1.905 0-1.21.787-1.904.786-.692 2.124-.692h2.675v-.866q0-.803-.488-1.227-.471-.441-1.353-.441-.771 0-1.29.331-.52.315-.598.865h-1.417a2.5 2.5 0 0 1 1.055-1.778q.912-.661 2.281-.661 1.496 0 2.361.771t.865 2.093v5.949H169.8v-1.653h-.236l.236-.236q0 .945-.74 1.495-.724.55-1.936.551m.347-1.117q1.007 0 1.652-.504t.645-1.29v-1.228h-2.644q-.708 0-1.117.394-.41.393-.409 1.07 0 .723.488 1.148.504.41 1.385.41m10.474.96q-1.117 0-1.747-.598-.613-.598-.613-1.684v-5.083h-2.44v-1.291h2.44v-2.439h1.416v2.439h3.462v1.291h-3.462v5.083q0 .991.944.991h2.361v1.291zm4.794 0v-1.291h3.068v-6.074h-2.675v-1.291h4.091v7.365h2.912v1.291zm3.619-10.213q-.52 0-.818-.268-.3-.267-.299-.724 0-.472.299-.739.299-.284.818-.284.52 0 .818.284.3.267.299.739 0 .457-.299.724t-.818.268m8.885 10.338q-1.038 0-1.794-.393a2.85 2.85 0 0 1-1.18-1.133q-.41-.755-.409-1.778v-2.298q0-1.038.409-1.778a2.85 2.85 0 0 1 1.18-1.133q.756-.393 1.794-.393t1.794.393 1.164 1.133q.425.74.425 1.763v2.313q0 1.023-.425 1.778-.408.74-1.164 1.133t-1.794.393m0-1.258q.929 0 1.448-.52t.519-1.526v-2.298q0-1.007-.519-1.526-.52-.52-1.448-.52-.912 0-1.448.52-.519.52-.519 1.526v2.298q0 1.007.519 1.526.536.52 1.448.52m5.848 1.133v-8.656h1.416v1.653h.299l-.299.33q0-1.023.614-1.573.614-.567 1.699-.567 1.307 0 2.078.803t.771 2.187v5.823h-1.417v-5.666q0-.928-.503-1.416-.487-.504-1.338-.503-.88 0-1.4.535-.504.534-.504 1.542v5.508z"/><path fill="#4b5563" d="M29.294 323.927q-1.02 0-1.605-.516-.585-.526-.585-1.416 0-.903.585-1.417.586-.516 1.581-.516h1.991v-.644q0-.597-.363-.913-.351-.328-1.007-.328-.575 0-.96.246-.387.234-.445.644h-1.054q.105-.831.784-1.323.68-.492 1.698-.492 1.113 0 1.757.574.645.573.644 1.557v4.427h-1.03v-1.23h-.176l.175-.176q0 .703-.55 1.113-.54.41-1.44.41m.257-.832q.75 0 1.23-.374.48-.375.48-.961v-.913h-1.967q-.528 0-.832.293-.304.292-.304.796 0 .538.363.855.375.304 1.03.304m4.656 2.822v-8.548h1.054v1.23h.211l-.21.246q0-.738.48-1.16.491-.433 1.287-.433.973 0 1.546.644.585.633.586 1.745v1.885q0 .738-.27 1.277a1.9 1.9 0 0 1-.737.831q-.469.293-1.125.293-.784 0-1.276-.434-.492-.433-.492-1.159l.211.246h-.234l.023 1.464v1.873zm2.471-2.904q.668 0 1.042-.398.387-.398.387-1.147v-1.757q0-.75-.387-1.148-.375-.398-1.042-.398-.645 0-1.03.41-.387.41-.387 1.136v1.757q0 .726.387 1.135.385.41 1.03.41m4.317 2.904v-8.548h1.053v1.23h.211l-.21.246q0-.738.48-1.16.491-.433 1.288-.433.972 0 1.545.644.586.633.586 1.745v1.885q0 .738-.27 1.277a1.9 1.9 0 0 1-.737.831q-.468.293-1.124.293-.785 0-1.277-.434-.492-.433-.492-1.159l.211.246h-.234l.023 1.464v1.873zm2.47-2.904q.668 0 1.042-.398.387-.398.387-1.147v-1.757q0-.75-.386-1.148-.375-.398-1.043-.398-.644 0-1.03.41-.387.41-.387 1.136v1.757q0 .726.387 1.135t1.03.41m7.63.797q-.561 0-.983-.223a1.6 1.6 0 0 1-.656-.632 1.9 1.9 0 0 1-.234-.96v-5.774h-2.166v-.96h3.22v6.734q0 .398.222.632.223.222.598.222h2.049v.961zm3.392 0v-.961h2.283v-4.52h-1.99v-.96h3.044v5.48h2.167v.961zm2.693-7.6q-.386 0-.609-.199a.69.69 0 0 1-.222-.539q0-.351.222-.55.223-.211.61-.211.386 0 .608.211.223.198.223.55a.69.69 0 0 1-.223.539q-.222.199-.609.199m6.612 7.717q-.762 0-1.335-.305a2.2 2.2 0 0 1-.878-.855q-.305-.562-.305-1.299v-1.757q0-.75.305-1.3.315-.55.878-.855.575-.304 1.335-.304t1.323.304q.574.304.878.855.317.55.317 1.3v1.136h-4.005v.621q0 .76.386 1.171.387.398 1.1.398.61 0 .984-.211a.93.93 0 0 0 .457-.656h1.054q-.105.808-.796 1.288-.68.47-1.698.469m1.487-3.783v-.433q0-.761-.386-1.171-.375-.41-1.101-.41-.714 0-1.1.41t-.387 1.171v.34h3.056zm4.925 3.783q-.96 0-1.557-.644-.585-.644-.586-1.745v-1.885q0-1.113.586-1.757t1.557-.644q.797 0 1.277.433.48.434.48 1.16l-.21-.246h.233l-.023-1.464v-1.874h1.054v8.549H71.96v-1.23h-.21l.21-.246q0 .738-.48 1.171-.48.422-1.277.422m.352-.914q.655 0 1.03-.41t.375-1.135v-1.757q0-.726-.375-1.136t-1.03-.41q-.668 0-1.054.398-.387.399-.387 1.148v1.757q0 .749.387 1.147.386.399 1.054.398m11.162.797v-1.078l2.611-2.775q.668-.714.972-1.265.305-.562.305-1.077 0-.714-.398-1.124-.387-.41-1.066-.41-.75 0-1.183.422-.42.421-.421 1.159h-1.054q.023-.772.351-1.335.34-.574.925-.878.597-.305 1.382-.305.772 0 1.335.305.573.292.878.843.304.55.304 1.311 0 .726-.386 1.441-.387.714-1.265 1.627l-2.107 2.178h3.9v.961zm15.635.117q-.96 0-1.557-.644-.585-.644-.586-1.745v-1.885q0-1.113.586-1.757t1.557-.644q.797 0 1.277.433.48.434.48 1.16l-.211-.246h.234l-.023-1.464v-1.874h1.054v8.549H99.11v-1.23h-.211l.21-.246q0 .738-.48 1.171-.48.422-1.276.422m.352-.914q.655 0 1.03-.41t.375-1.135v-1.757q0-.726-.375-1.136t-1.03-.41q-.668 0-1.054.398-.387.399-.387 1.148v1.757q0 .749.387 1.147.386.399 1.054.398m6.248.914q-1.019 0-1.604-.516-.586-.526-.586-1.416 0-.903.586-1.417.585-.516 1.581-.516h1.99v-.644q0-.597-.363-.913-.35-.328-1.007-.328-.573 0-.96.246-.386.234-.445.644h-1.054a1.86 1.86 0 0 1 .785-1.323q.68-.492 1.698-.492 1.112 0 1.756.574.645.573.644 1.557v4.427h-1.03v-1.23h-.176l.176-.176q0 .703-.55 1.113-.54.41-1.441.41m.258-.832q.749 0 1.229-.374.48-.375.48-.961v-.913h-1.967q-.526 0-.831.293-.305.292-.305.796 0 .538.363.855.375.304 1.031.304m5.663 2.822.948-2.506-2.388-6.042h1.171l1.498 3.981q.082.2.153.481l.117.456.117-.456q.07-.282.14-.481l1.406-3.981h1.135l-3.173 8.548zm8.017-2.014a3 3 0 0 1-1.148-.199 1.96 1.96 0 0 1-.773-.585q-.28-.375-.339-.89h1.054a.82.82 0 0 0 .374.538q.316.2.832.199h.491q.621 0 .926-.245a.85.85 0 0 0 .304-.68q0-.41-.281-.644-.27-.246-.808-.328l-.867-.14q-.948-.164-1.416-.586-.457-.432-.457-1.253 0-.866.55-1.334.55-.481 1.651-.481h.445q.926 0 1.487.434.563.433.68 1.171h-1.054a.75.75 0 0 0-.352-.48q-.28-.188-.761-.188h-.445q-.597 0-.878.223-.269.222-.269.667 0 .399.234.586t.738.269l.866.141q1.043.164 1.511.608.48.445.48 1.289 0 .89-.574 1.405-.562.503-1.71.503zm13.211.024q-1.019 0-1.604-.516-.586-.526-.586-1.416 0-.903.586-1.417.585-.516 1.581-.516h1.99v-.644q0-.597-.363-.913-.351-.328-1.007-.328-.573 0-.96.246-.387.234-.445.644h-1.054q.105-.831.785-1.323t1.698-.492q1.112 0 1.756.574.644.573.644 1.557v4.427h-1.03v-1.23h-.176l.176-.176q0 .703-.551 1.113-.538.41-1.44.41m.258-.832q.749 0 1.229-.374.48-.375.48-.961v-.913h-1.967q-.526 0-.831.293-.305.292-.305.796 0 .538.363.855.375.304 1.031.304m5.464 2.822v-.96h2.049q.492 0 .714-.222.234-.223.234-.691v-.82l.024-1.171h-.211l.199-.176q0 .704-.468 1.113t-1.253.41q-.996 0-1.569-.644-.574-.657-.574-1.757v-1.358q0-1.101.574-1.745.573-.644 1.569-.644.784 0 1.253.41t.468 1.112l-.199-.175h.199v-1.23h1.042v6.675q0 .866-.538 1.37-.527.504-1.476.503zm1.604-3.431q.656 0 1.03-.41.375-.41.375-1.135v-1.23q0-.726-.375-1.136-.374-.41-1.03-.41-.667 0-1.042.398-.363.399-.363 1.148v1.23q0 .749.363 1.147.375.399 1.042.398m6.811 1.417q-.774 0-1.335-.292a2.13 2.13 0 0 1-.879-.844q-.304-.561-.304-1.323v-1.71q0-.773.304-1.323.317-.55.879-.843.561-.293 1.335-.293.772 0 1.335.293.561.293.866.843.316.55.316 1.312v1.721q0 .762-.316 1.323a2.06 2.06 0 0 1-.866.844q-.562.292-1.335.292m0-.937q.69 0 1.077-.386.387-.387.386-1.136v-1.71q0-.749-.386-1.135-.387-.387-1.077-.387-.68 0-1.078.387-.386.386-.386 1.135v1.71q0 .75.386 1.136.399.387 1.078.386"/></g></g></g><defs><linearGradient id="b" x1="221" x2="221" y1="197.825" y2="429.468" gradientUnits="userSpaceOnUse"><stop stop-color="#fff"/><stop offset="1"/></linearGradient><linearGradient id="d" x1="13.172" x2="13.172" y1="-8.406" y2="28.181" gradientUnits="userSpaceOnUse"><stop stop-color="#030712" stop-opacity="0"/><stop offset=".452" stop-color="#374151"/><stop offset="1" stop-color="#374151"/></linearGradient><clipPath id="a"><path fill="#fff" d="M0 0h372v330H0z"/></clipPath></defs></svg>