<svg xmlns="http://www.w3.org/2000/svg" width="452" height="330" fill="none" viewBox="0 0 452 330"><rect width="432.353" height="189.076" x="10.454" y="111.487" fill="#f9fafb" rx="9.096"/><rect width="432.353" height="189.076" x="10.454" y="111.487" stroke="#fff" stroke-width="1.26" rx="9.096"/><g opacity=".78"><path fill="#9ca3af" d="M22.429 124.195c.433 0 .846.256 1.083.631.216.394.216.886 0 1.26-.237.394-.65.63-1.084.63a1.28 1.28 0 0 1-1.102-.63 1.3 1.3 0 0 1 0-1.26c.236-.375.65-.631 1.102-.631m2.363.788h5.987a.48.48 0 0 1 .473.473.467.467 0 0 1-.473.473h-5.987a.455.455 0 0 1-.473-.473c0-.256.197-.473.473-.473m0 3.151h5.987a.48.48 0 0 1 .473.473.467.467 0 0 1-.473.473h-5.987a.455.455 0 0 1-.473-.473c0-.256.197-.473.473-.473m0 3.152h5.987c.256 0 .473.216.473.472a.467.467 0 0 1-.473.473h-5.987a.455.455 0 0 1-.473-.473c0-.256.197-.472.473-.472m-2.364-2.206a.467.467 0 0 0 .473-.473.48.48 0 0 0-.473-.473.467.467 0 0 0-.472.473c0 .276.197.473.473.473m0-1.733c.434 0 .847.256 1.084.63.216.394.216.886 0 1.26-.237.394-.65.631-1.084.631a1.28 1.28 0 0 1-1.102-.631 1.3 1.3 0 0 1 0-1.26c.236-.374.65-.63 1.102-.63m-.472 4.411c0 .276.197.473.473.473a.467.467 0 0 0 .472-.473.48.48 0 0 0-.473-.472.466.466 0 0 0-.472.472m1.733 0c0 .453-.256.867-.63 1.103a1.3 1.3 0 0 1-1.26 0 1.28 1.28 0 0 1-.631-1.103c0-.433.236-.846.63-1.083a1.3 1.3 0 0 1 1.26 0c.375.237.631.65.631 1.083"/><path fill="#6b7280" d="M37.79 125.099v-.938h6.545v.938h-2.744v7.79h-1.057v-7.79zm9.75 7.926q-.887 0-1.556-.422a2.87 2.87 0 0 1-1.04-1.18q-.37-.759-.37-1.773 0-1.023.37-1.785.375-.764 1.04-1.185.67-.422 1.555-.422.886 0 1.552.422.669.422 1.04 1.185.374.762.374 1.785 0 1.014-.375 1.773a2.83 2.83 0 0 1-1.04 1.18q-.665.422-1.55.422m0-.903q.672 0 1.108-.346.435-.345.643-.907.21-.562.209-1.219 0-.656-.21-1.223a2.06 2.06 0 0 0-.642-.916q-.435-.35-1.109-.35t-1.107.35a2.06 2.06 0 0 0-.644.916q-.21.567-.209 1.223 0 .657.21 1.219.208.562.643.907.435.346 1.107.346m8.25-3.444v.938h-3.818v-.938zm4.242 4.347a2.57 2.57 0 0 1-1.445-.413q-.626-.418-.98-1.176-.354-.764-.354-1.803 0-1.032.354-1.79t.984-1.172q.63-.413 1.458-.413.64 0 1.01.213.375.208.57.477.201.264.312.435h.085v-3.222h1.006v8.728h-.972v-1.006h-.12q-.11.179-.315.452-.204.268-.583.481-.38.209-1.01.209m.136-.903q.605 0 1.023-.316.417-.32.635-.882a3.6 3.6 0 0 0 .217-1.308q0-.733-.213-1.283a1.87 1.87 0 0 0-.63-.861q-.42-.31-1.032-.311-.639 0-1.065.329a1.95 1.95 0 0 0-.635.882q-.21.554-.209 1.244 0 .699.213 1.27.217.567.64.903.425.333 1.056.333m7.504.903q-.886 0-1.555-.422a2.87 2.87 0 0 1-1.04-1.18q-.37-.759-.37-1.773 0-1.023.37-1.785.375-.764 1.04-1.185.669-.422 1.555-.422t1.552.422q.668.422 1.04 1.185.374.762.374 1.785 0 1.014-.375 1.773a2.83 2.83 0 0 1-1.04 1.18q-.665.422-1.55.422m0-.903q.675 0 1.108-.346.435-.345.644-.907.208-.562.208-1.219 0-.656-.208-1.223a2.06 2.06 0 0 0-.644-.916q-.435-.35-1.108-.35-.672 0-1.108.35a2.06 2.06 0 0 0-.643.916q-.21.567-.209 1.223 0 .657.209 1.219.21.562.643.907.436.346 1.108.346m9.138-4.313-.904.256a1.7 1.7 0 0 0-.251-.439 1.2 1.2 0 0 0-.443-.358q-.282-.141-.72-.141-.601 0-1.002.277-.396.273-.396.695 0 .375.273.592.272.218.852.362l.971.239q.879.213 1.309.652.43.434.43 1.121 0 .563-.324 1.005a2.14 2.14 0 0 1-.895.699q-.575.256-1.338.256-1.001 0-1.657-.435-.657-.434-.831-1.27l.954-.238q.137.528.516.792.383.265 1.001.265.703 0 1.117-.299.417-.302.417-.724a.76.76 0 0 0-.238-.571q-.24-.234-.733-.35l-1.091-.255q-.9-.213-1.321-.661-.418-.451-.418-1.129 0-.554.311-.98a2.1 2.1 0 0 1 .857-.669 3 3 0 0 1 1.236-.243q.971 0 1.525.426.558.426.793 1.125" opacity=".7"/><path fill="#9ca3af" d="M88.143 133.008q-.75 0-1.35-.298a2.5 2.5 0 0 1-.964-.818 2.23 2.23 0 0 1-.396-1.185h1.023q.06.592.537.98.48.383 1.15.383.538 0 .955-.251a1.8 1.8 0 0 0 .66-.69q.243-.444.243-1.002 0-.57-.251-1.018a1.85 1.85 0 0 0-.682-.712 1.93 1.93 0 0 0-.993-.264 2.7 2.7 0 0 0-.822.124 2.3 2.3 0 0 0-.695.319l-.989-.119.529-4.296h4.534v.938h-3.648l-.306 2.574h.05q.27-.213.674-.354.405-.141.844-.141.801 0 1.427.384.63.379.989 1.04.362.66.362 1.508 0 .835-.375 1.492a2.75 2.75 0 0 1-1.023 1.031 2.9 2.9 0 0 1-1.483.375" opacity=".9"/></g><path fill="#9ca3af" d="M21.168 154.732a6.3 6.3 0 0 1 3.175-5.481 6.32 6.32 0 0 1 6.349 0 6.35 6.35 0 0 1 3.174 5.481 6.36 6.36 0 0 1-3.174 5.506 6.32 6.32 0 0 1-6.35 0 6.31 6.31 0 0 1-3.174-5.506m6.969 3.199 2.778-2.778c.223-.223.223-.595 0-.843l-2.778-2.753c-.248-.248-.62-.248-.843 0a.544.544 0 0 0 0 .819l1.76 1.761h-4.513a.587.587 0 0 0-.595.595c0 .347.248.595.595.595l4.514.025-1.761 1.761a.543.543 0 0 0 0 .818c.223.248.595.248.843 0"/><rect width="124.79" height="7.563" x="44.252" y="151.212" fill="#9ca3af" rx="3.782"/><path fill="#f3f4f6" d="M32.676 180.858c0-1.835-.992-3.522-2.58-4.464a5.18 5.18 0 0 0-5.158 0 5.15 5.15 0 0 0-2.58 4.464c0 1.86.968 3.547 2.58 4.489a5.18 5.18 0 0 0 5.158 0c1.588-.942 2.58-2.629 2.58-4.489m-11.508 0a6.3 6.3 0 0 1 3.175-5.481 6.32 6.32 0 0 1 6.349 0 6.35 6.35 0 0 1 3.174 5.481 6.36 6.36 0 0 1-3.174 5.506 6.32 6.32 0 0 1-6.35 0 6.31 6.31 0 0 1-3.174-5.506"/><rect width="219.328" height="7.563" x="44.252" y="177.338" fill="#f3f4f6" rx="3.782"/><g fill="#fff" opacity=".58"><path d="M32.676 206.984c0-1.835-.992-3.522-2.58-4.464a5.18 5.18 0 0 0-5.158 0 5.15 5.15 0 0 0-2.58 4.464c0 1.86.968 3.546 2.58 4.489a5.18 5.18 0 0 0 5.158 0c1.588-.943 2.58-2.629 2.58-4.489m-11.508 0a6.3 6.3 0 0 1 3.175-5.481 6.32 6.32 0 0 1 6.349 0 6.35 6.35 0 0 1 3.174 5.481 6.36 6.36 0 0 1-3.174 5.506 6.32 6.32 0 0 1-6.35 0 6.31 6.31 0 0 1-3.174-5.506"/><rect width="148.74" height="7.563" x="44.252" y="203.464" rx="3.782"/></g><g fill="#fff" opacity=".4"><path d="M32.676 233.11c0-1.835-.992-3.522-2.58-4.464a5.18 5.18 0 0 0-5.158 0 5.15 5.15 0 0 0-2.58 4.464c0 1.86.968 3.547 2.58 4.489a5.18 5.18 0 0 0 5.158 0c1.588-.942 2.58-2.629 2.58-4.489m-11.508 0a6.3 6.3 0 0 1 3.175-5.481 6.32 6.32 0 0 1 6.349 0 6.35 6.35 0 0 1 3.174 5.481 6.36 6.36 0 0 1-3.174 5.506 6.32 6.32 0 0 1-6.35 0 6.31 6.31 0 0 1-3.174-5.506"/><rect width="124.79" height="7.563" x="44.252" y="229.59" rx="3.782"/></g><g fill="#fff" opacity=".4"><path d="M32.676 259.236c0-1.835-.992-3.522-2.58-4.464a5.18 5.18 0 0 0-5.158 0 5.15 5.15 0 0 0-2.58 4.464c0 1.86.968 3.547 2.58 4.489a5.18 5.18 0 0 0 5.158 0c1.588-.942 2.58-2.629 2.58-4.489m-11.508 0a6.3 6.3 0 0 1 3.175-5.481 6.32 6.32 0 0 1 6.349 0 6.35 6.35 0 0 1 3.174 5.481 6.36 6.36 0 0 1-3.174 5.506 6.32 6.32 0 0 1-6.35 0 6.31 6.31 0 0 1-3.174-5.506"/><rect width="99.58" height="7.563" x="44.252" y="255.716" rx="3.782"/><rect width="127.311" height="7.563" x="153.916" y="255.716" rx="3.782"/></g><g opacity=".4"><path fill="#9ca3af" d="M32.676 285.362c0-1.835-.992-3.522-2.58-4.464a5.18 5.18 0 0 0-5.158 0 5.15 5.15 0 0 0-2.58 4.464c0 1.86.968 3.547 2.58 4.489a5.18 5.18 0 0 0 5.158 0c1.588-.942 2.58-2.629 2.58-4.489m-11.508 0a6.3 6.3 0 0 1 3.175-5.481 6.32 6.32 0 0 1 6.349 0 6.35 6.35 0 0 1 3.174 5.481 6.36 6.36 0 0 1-3.174 5.506 6.32 6.32 0 0 1-6.35 0 6.31 6.31 0 0 1-3.174-5.506"/><rect width="124.79" height="7.563" x="44.252" y="281.842" fill="#fff" rx="3.782"/></g><rect width="451" height="98.727" x=".5" y="197.181" fill="#fff" rx="8.965"/><rect width="451" height="98.727" x=".5" y="197.181" stroke="#14b8a6" rx="8.965"/><path fill="#111827" d="M21.376 217.766v14.352h-.853v-14.352z"/><path fill="#9ca3af" d="M23.972 229.305v-8.727h2.949q1.022 0 1.679.35.656.344.971.95.316.605.316 1.376t-.316 1.368-.967.938q-.652.336-1.666.336H24.55v-.954h2.353q.698 0 1.125-.205a1.3 1.3 0 0 0 .622-.579q.195-.38.196-.904 0-.524-.196-.916a1.34 1.34 0 0 0-.627-.605q-.43-.217-1.137-.217h-1.858v7.789zm4.108-3.92 2.148 3.92H29l-2.113-3.92zm6.105 4.057q-.945 0-1.632-.418a2.8 2.8 0 0 1-1.052-1.176q-.367-.759-.367-1.764 0-1.007.367-1.773.37-.771 1.03-1.202.666-.434 1.552-.434.511 0 1.01.17.498.17.908.554.408.38.652 1.006.242.626.242 1.542v.427H31.85v-.87h4.023q0-.554-.222-.988a1.66 1.66 0 0 0-.622-.686 1.74 1.74 0 0 0-.946-.252q-.6 0-1.04.298-.434.294-.669.767a2.26 2.26 0 0 0-.234 1.015v.579q0 .743.255 1.257.261.511.72.78.46.264 1.07.264a2.2 2.2 0 0 0 .716-.11q.324-.116.558-.341.235-.23.363-.571l.971.272q-.153.495-.515.87-.363.37-.895.579a3.3 3.3 0 0 1-1.198.205m4.24-6.682h1.006v7.023q0 .605-.209 1.048a1.5 1.5 0 0 1-.622.686q-.413.243-1.044.243h-.204v-.938h.187q.46 0 .673-.272.213-.269.213-.767zm.495-1.091a.72.72 0 0 1-.507-.2.64.64 0 0 1-.21-.482q0-.281.21-.481a.7.7 0 0 1 .507-.201q.294 0 .502.201a.64.64 0 0 1 .214.481.64.64 0 0 1-.214.482.7.7 0 0 1-.502.2m5.097 7.773q-.945 0-1.632-.418a2.8 2.8 0 0 1-1.052-1.176q-.367-.759-.367-1.764 0-1.007.367-1.773.37-.771 1.03-1.202.666-.434 1.552-.434.511 0 1.01.17.498.17.908.554.409.38.652 1.006.242.626.242 1.542v.427h-5.045v-.87h4.023q0-.554-.222-.988a1.67 1.67 0 0 0-.622-.686 1.74 1.74 0 0 0-.946-.252q-.6 0-1.04.298-.435.294-.669.767a2.26 2.26 0 0 0-.234 1.015v.579q0 .743.255 1.257.261.511.72.78.46.264 1.07.264a2.2 2.2 0 0 0 .716-.11q.324-.116.559-.341.234-.23.362-.571l.971.272q-.153.495-.515.87a2.5 2.5 0 0 1-.895.579 3.3 3.3 0 0 1-1.198.205m6.9 0q-.921 0-1.586-.435a2.84 2.84 0 0 1-1.023-1.197q-.357-.764-.357-1.743 0-.998.366-1.76.37-.768 1.031-1.198.665-.434 1.551-.434.69 0 1.245.255.555.257.907.716.354.46.44 1.074h-1.006a1.56 1.56 0 0 0-.512-.792q-.392-.35-1.056-.35-.589 0-1.032.307a2 2 0 0 0-.686.856q-.243.55-.243 1.292 0 .758.239 1.321.243.563.682.873a1.76 1.76 0 0 0 1.04.311q.39 0 .711-.136.32-.137.541-.392a1.5 1.5 0 0 0 .316-.614h1.005a2.32 2.32 0 0 1-1.304 1.777q-.545.269-1.27.269m6.89-6.682v.852h-3.392v-.852zm-2.403-1.568h1.005v6.238q0 .427.124.64a.64.64 0 0 0 .324.281q.2.068.422.068.165 0 .272-.017l.17-.034.205.903a2 2 0 0 1-.285.077 2 2 0 0 1-.465.043q-.426 0-.835-.184a1.66 1.66 0 0 1-.673-.558q-.264-.375-.264-.946zm5.416 6.92-.068.46a9 9 0 0 1-.222 1.04q-.144.555-.303 1.044-.157.49-.26.78H59.2l.144-.72a27 27 0 0 0 .333-2.126l.051-.478zm9.875-3.886-.904.256a1.7 1.7 0 0 0-.251-.439 1.2 1.2 0 0 0-.444-.358q-.28-.141-.72-.141-.6 0-1.001.277-.396.273-.396.695 0 .375.272.592.273.218.853.362l.971.239q.878.213 1.308.652.43.435.43 1.121 0 .563-.323 1.005a2.14 2.14 0 0 1-.895.699q-.575.256-1.338.256-1.002 0-1.658-.435t-.83-1.27l.954-.238q.136.528.516.792.383.264 1.001.264.703 0 1.116-.298.418-.303.418-.724a.76.76 0 0 0-.239-.571q-.238-.235-.733-.35l-1.09-.255q-.9-.214-1.322-.661-.417-.452-.417-1.129 0-.554.311-.98.315-.426.856-.669a3 3 0 0 1 1.236-.243q.972 0 1.526.426.558.426.793 1.125m5.758 2.403v-3.869h1.005v6.545h-1.005v-1.108h-.069a2.14 2.14 0 0 1-.715.848q-.486.346-1.228.346-.613 0-1.09-.269a1.9 1.9 0 0 1-.75-.818q-.273-.55-.273-1.385v-4.159h1.005v4.091q0 .716.4 1.142.406.426 1.032.426.375 0 .763-.192.392-.192.656-.588.27-.396.269-1.01m5.49 5.267q-.729 0-1.254-.187a2.7 2.7 0 0 1-.873-.486 2.7 2.7 0 0 1-.55-.639l.801-.563q.136.18.346.409.21.236.57.405.367.175.96.175.792 0 1.308-.384.515-.383.515-1.201v-1.33h-.085q-.111.18-.315.443a1.8 1.8 0 0 1-.58.465q-.375.2-1.014.2a2.73 2.73 0 0 1-1.423-.375 2.63 2.63 0 0 1-.993-1.091q-.362-.716-.362-1.738 0-1.006.353-1.752.354-.75.985-1.159.63-.413 1.457-.413.639 0 1.014.213.38.208.58.477.204.264.315.435h.102v-1.04h.972v6.733q0 .844-.384 1.372a2.2 2.2 0 0 1-1.022.78q-.64.252-1.424.251m-.035-3.596q.606 0 1.023-.277.417-.278.635-.797.217-.52.217-1.244 0-.708-.213-1.249a1.87 1.87 0 0 0-.63-.848q-.419-.307-1.032-.307-.639 0-1.065.324a2 2 0 0 0-.635.869q-.21.546-.209 1.211 0 .681.213 1.206.217.52.64.818.426.294 1.056.294m7.347 3.596q-.729 0-1.253-.187a2.7 2.7 0 0 1-.873-.486 2.7 2.7 0 0 1-.55-.639l.8-.563q.138.18.346.409.21.236.571.405.366.175.959.175.792 0 1.308-.384.516-.383.516-1.201v-1.33h-.085q-.111.18-.316.443a1.8 1.8 0 0 1-.58.465q-.374.2-1.014.2a2.73 2.73 0 0 1-1.423-.375 2.63 2.63 0 0 1-.993-1.091q-.362-.716-.362-1.738 0-1.006.354-1.752.354-.75.984-1.159.63-.413 1.457-.413.64 0 1.015.213.379.208.58.477.203.264.315.435h.102v-1.04h.971v6.733q0 .844-.383 1.372a2.2 2.2 0 0 1-1.023.78q-.639.252-1.423.251m-.034-3.596q.605 0 1.022-.277.418-.278.636-.797.216-.52.217-1.244 0-.708-.213-1.249a1.87 1.87 0 0 0-.631-.848q-.417-.307-1.031-.307-.64 0-1.065.324a2 2 0 0 0-.636.869q-.208.546-.208 1.211 0 .681.213 1.206.218.52.639.818.426.294 1.057.294m7.449 1.142q-.947 0-1.632-.418a2.8 2.8 0 0 1-1.053-1.176q-.367-.759-.367-1.764 0-1.007.367-1.773.37-.771 1.031-1.202.664-.434 1.551-.434.512 0 1.01.17.499.17.908.554.41.38.652 1.006t.243 1.542v.427h-5.046v-.87h4.023q0-.554-.221-.988a1.66 1.66 0 0 0-.623-.686 1.74 1.74 0 0 0-.946-.252q-.6 0-1.04.298-.434.294-.668.767a2.26 2.26 0 0 0-.235 1.015v.579q0 .743.256 1.257.26.511.72.78.46.264 1.07.264a2.2 2.2 0 0 0 .716-.11q.324-.116.558-.341.234-.23.362-.571l.972.272q-.154.495-.516.87-.363.37-.895.579a3.3 3.3 0 0 1-1.197.205m8.876-5.216-.903.256a1.7 1.7 0 0 0-.252-.439 1.2 1.2 0 0 0-.443-.358q-.28-.141-.72-.141-.6 0-1.002.277-.396.273-.396.695 0 .375.273.592.273.218.852.362l.972.239q.877.213 1.308.652.43.435.43 1.121 0 .563-.323 1.005a2.15 2.15 0 0 1-.895.699q-.576.256-1.338.256-1.002 0-1.658-.435-.657-.435-.831-1.27l.954-.238q.136.528.516.792.384.264 1.002.264.702 0 1.116-.298.418-.303.418-.724a.76.76 0 0 0-.239-.571q-.238-.235-.733-.35l-1.091-.255q-.899-.214-1.321-.661-.418-.452-.418-1.129 0-.554.312-.98.315-.426.856-.669a3 3 0 0 1 1.236-.243q.972 0 1.525.426.56.426.793 1.125m4.48-1.466v.852h-3.392v-.852zm-2.404-1.568h1.006v6.238q0 .427.124.64a.64.64 0 0 0 .324.281q.2.068.421.068.166 0 .273-.017l.171-.034.204.903a2 2 0 0 1-.285.077 2 2 0 0 1-.465.043q-.426 0-.835-.184a1.66 1.66 0 0 1-.673-.558q-.265-.375-.265-.946zm5.417 6.92-.069.46a9 9 0 0 1-.221 1.04q-.145.555-.303 1.044a27 27 0 0 1-.26.78h-.767l.145-.72q.09-.447.179-1.001.094-.55.154-1.125l.051-.478zm8.153-5.352v.852h-3.529v-.852zm-2.472 6.545v-7.448q0-.563.264-.938t.686-.562.891-.188q.37 0 .605.06.234.058.35.111l-.29.869a4 4 0 0 0-.213-.064 1.3 1.3 0 0 0-.35-.038q-.498 0-.72.251-.217.252-.217.737v7.21zm6.271.137q-.887 0-1.556-.422a2.87 2.87 0 0 1-1.039-1.18q-.372-.759-.371-1.773 0-1.023.371-1.786a2.86 2.86 0 0 1 1.039-1.184q.67-.422 1.556-.422t1.551.422q.668.422 1.04 1.184.375.763.375 1.786 0 1.014-.375 1.773a2.84 2.84 0 0 1-1.04 1.18q-.664.422-1.551.422m0-.904q.673 0 1.108-.345.434-.345.643-.907t.209-1.219-.209-1.223a2.06 2.06 0 0 0-.643-.916q-.435-.35-1.108-.35-.674 0-1.108.35t-.644.916a3.5 3.5 0 0 0-.209 1.223q0 .656.209 1.219.209.562.644.907.434.345 1.108.345m5.506-7.96v8.727h-1.005v-8.727zm2.848 0v8.727h-1.006v-8.727zm4.501 8.864q-.886 0-1.555-.422a2.87 2.87 0 0 1-1.04-1.18q-.37-.759-.371-1.773 0-1.023.371-1.786.375-.762 1.04-1.184.669-.422 1.555-.422.887 0 1.551.422a2.8 2.8 0 0 1 1.04 1.184q.375.763.375 1.786 0 1.014-.375 1.773a2.83 2.83 0 0 1-1.04 1.18q-.665.422-1.551.422m0-.904q.673 0 1.108-.345.434-.345.644-.907.208-.563.208-1.219t-.208-1.223a2.07 2.07 0 0 0-.644-.916q-.435-.35-1.108-.35t-1.108.35-.643.916a3.5 3.5 0 0 0-.209 1.223q0 .656.209 1.219.208.562.643.907t1.108.345m5.762.767-1.995-6.545h1.057l1.415 5.011h.068l1.398-5.011h1.074l1.38 4.994h.068l1.415-4.994h1.057l-1.994 6.545h-.989l-1.432-5.028h-.102l-1.432 5.028zm15.767-2.676v-3.869h1.005v6.545h-1.005v-1.108h-.069a2.13 2.13 0 0 1-.716.848q-.484.346-1.227.346-.614 0-1.091-.269a1.9 1.9 0 0 1-.75-.818q-.272-.55-.272-1.385v-4.159h1.005v4.091q0 .716.401 1.142.404.426 1.031.426.375 0 .763-.192.392-.192.656-.588.269-.396.269-1.01m2.847 5.131v-9h.972v1.04h.119q.11-.171.307-.435a1.8 1.8 0 0 1 .571-.477q.375-.213 1.014-.213.826 0 1.458.413.63.413.984 1.172t.354 1.79q0 1.04-.354 1.802-.354.759-.98 1.176a2.56 2.56 0 0 1-1.445.414q-.63 0-1.01-.209a1.9 1.9 0 0 1-.584-.482 7 7 0 0 1-.315-.451h-.085v3.46zm.989-5.727q0 .741.217 1.308.218.563.635.882.418.315 1.023.315.63 0 1.052-.332.426-.337.64-.903.216-.571.217-1.27 0-.69-.213-1.245a1.9 1.9 0 0 0-.635-.882q-.422-.327-1.061-.328-.614 0-1.031.311a1.87 1.87 0 0 0-.631.861q-.213.55-.213 1.283m7.057 3.341a.74.74 0 0 1-.542-.226.74.74 0 0 1-.225-.541.74.74 0 0 1 .225-.542.74.74 0 0 1 .542-.225q.315 0 .541.225.226.226.226.542a.7.7 0 0 1-.107.383.8.8 0 0 1-.277.281.7.7 0 0 1-.383.103m3.304 0a.74.74 0 0 1-.541-.226.74.74 0 0 1-.226-.541q0-.316.226-.542a.74.74 0 0 1 .541-.225.74.74 0 0 1 .542.225.74.74 0 0 1 .225.542.8.8 0 0 1-.383.664.73.73 0 0 1-.384.103m3.305 0a.74.74 0 0 1-.541-.226.74.74 0 0 1-.226-.541q0-.316.226-.542a.74.74 0 0 1 .541-.225q.315 0 .541.225a.74.74 0 0 1 .226.542.7.7 0 0 1-.106.383.8.8 0 0 1-.277.281.73.73 0 0 1-.384.103"/><rect width="72.881" height="27.351" x="18.989" y="248.432" fill="#fff" rx="5.25"/><path fill="#9ca3af" d="M25.315 262.171a2.32 2.32 0 0 1 2.307-2.323c.639 0 1.244.278 1.686.736l1.243 1.309 1.227-1.309a2.36 2.36 0 0 1 1.686-.736 2.33 2.33 0 0 1 2.323 2.323v.605a2.32 2.32 0 0 1-2.323 2.307 2.34 2.34 0 0 1-1.686-.719l-1.227-1.326-1.243 1.326a2.34 2.34 0 0 1-1.686.719 2.304 2.304 0 0 1-2.307-2.307zm4.696.295-1.276-1.342a1.53 1.53 0 0 0-1.113-.491c-.85 0-1.521.687-1.521 1.538v.605c0 .851.67 1.522 1.521 1.522.426 0 .819-.164 1.113-.474zm1.064 0 1.276 1.358c.294.31.687.474 1.113.474.85 0 1.538-.671 1.538-1.522v-.605c0-.851-.687-1.538-1.538-1.538-.41 0-.819.18-1.113.491l-1.26 1.342z"/><path fill="#6b7280" d="M41.345 266.107h-1.108l3.204-8.727h1.091l3.205 8.727h-1.108l-2.608-7.347h-.069zm.409-3.409h4.465v.937h-4.465zm9.848 6q-.73 0-1.253-.188a2.7 2.7 0 0 1-.874-.485 2.7 2.7 0 0 1-.55-.64l.802-.562q.136.179.345.409.21.234.57.405.367.175.96.175.792 0 1.308-.384.515-.383.515-1.202v-1.329h-.085a6 6 0 0 1-.315.443 1.8 1.8 0 0 1-.58.464q-.375.201-1.014.201a2.73 2.73 0 0 1-1.423-.375 2.63 2.63 0 0 1-.993-1.091q-.362-.716-.362-1.739 0-1.005.353-1.751.354-.75.985-1.159.63-.414 1.457-.414.639 0 1.014.213.38.21.58.478.204.264.315.434h.102v-1.039h.972v6.733q0 .843-.383 1.372a2.2 2.2 0 0 1-1.023.78q-.639.25-1.423.251m-.034-3.597q.605 0 1.022-.277.418-.276.635-.796t.218-1.245q0-.707-.214-1.248a1.87 1.87 0 0 0-.63-.848q-.418-.307-1.031-.307-.64 0-1.066.324a1.97 1.97 0 0 0-.635.869q-.209.546-.209 1.21 0 .683.213 1.206.217.52.64.818.426.294 1.056.294m7.448 1.142q-.945 0-1.632-.417a2.8 2.8 0 0 1-1.052-1.176q-.367-.759-.367-1.765t.367-1.772q.37-.771 1.03-1.202.666-.435 1.552-.435.512 0 1.01.171.498.17.908.554.409.38.652 1.005.243.627.243 1.543v.426H56.68v-.869h4.023q0-.554-.222-.989a1.7 1.7 0 0 0-.622-.686 1.75 1.75 0 0 0-.946-.251q-.6 0-1.04.298-.435.294-.669.767a2.25 2.25 0 0 0-.234 1.014v.58q0 .741.256 1.257.26.512.72.78.46.264 1.07.264.396 0 .715-.111.324-.114.559-.341a1.54 1.54 0 0 0 .362-.571l.971.273q-.153.494-.515.869-.363.371-.895.58a3.3 3.3 0 0 1-1.198.204m5.246-4.073v3.937h-1.006v-6.545h.972v1.022h.085q.23-.498.7-.801.468-.307 1.21-.307.663 0 1.163.273.498.269.775.818.277.546.277 1.381v4.159h-1.005v-4.091q0-.771-.401-1.202-.4-.434-1.1-.434-.48 0-.86.209-.375.209-.593.609t-.217.972m8.86-2.608v.852H69.73v-.852zm-2.403-1.569h1.006v6.239q0 .426.123.639a.65.65 0 0 0 .324.282q.2.068.422.068.166 0 .273-.017l.17-.034.205.903a2.1 2.1 0 0 1-.75.119q-.427 0-.835-.183a1.66 1.66 0 0 1-.674-.558q-.264-.375-.264-.946z"/><path fill="#9ca3af" d="M80.932 260.617a.384.384 0 0 1 .54 0l2.634 2.618a.405.405 0 0 1 0 .556c-.164.164-.409.164-.556 0l-2.34-2.34-2.34 2.34c-.163.164-.409.164-.556 0a.358.358 0 0 1 0-.54z"/><path fill="#6b7280" d="M108.435 266.107h-1.108l3.205-8.727h1.091l3.204 8.727h-1.108l-2.608-7.347h-.068zm.409-3.409h4.466v.937h-4.466zm11.331.733v-3.869h1.006v6.545h-1.006v-1.108h-.068a2.15 2.15 0 0 1-.716.848q-.486.345-1.227.345-.614 0-1.091-.268a1.9 1.9 0 0 1-.75-.818q-.273-.55-.273-1.385v-4.159h1.006v4.091q0 .715.401 1.142.404.426 1.031.426.375 0 .763-.192.392-.192.656-.588.268-.396.268-1.01m5.695-3.869v.852h-3.392v-.852zm-2.404-1.569h1.006v6.239q0 .426.123.639a.65.65 0 0 0 .324.282q.2.068.422.068.166 0 .273-.017l.17-.034.205.903a2.1 2.1 0 0 1-.75.119q-.427 0-.835-.183a1.66 1.66 0 0 1-.674-.558q-.264-.375-.264-.946zm6.505 8.25q-.886 0-1.555-.421a2.87 2.87 0 0 1-1.04-1.181q-.37-.758-.371-1.773 0-1.022.371-1.785.375-.764 1.04-1.185.669-.422 1.555-.422.887 0 1.551.422.67.421 1.04 1.185.375.763.375 1.785 0 1.015-.375 1.773a2.83 2.83 0 0 1-1.04 1.181q-.665.421-1.551.421m0-.903q.673 0 1.108-.345.434-.345.644-.908.208-.562.208-1.219 0-.656-.208-1.223a2.07 2.07 0 0 0-.644-.916q-.435-.35-1.108-.349-.673 0-1.108.349-.435.35-.643.916a3.5 3.5 0 0 0-.209 1.223q0 .657.209 1.219.208.563.643.908t1.108.345m11.051-4.723a.384.384 0 0 1 .54 0l2.634 2.618a.406.406 0 0 1 0 .556c-.164.164-.409.164-.556 0l-2.34-2.34-2.34 2.34c-.164.164-.409.164-.556 0a.358.358 0 0 1 0-.54z"/><circle cx="315.812" cy="262.107" r="6.303" stroke="#9ca3af" stroke-width="1.26"/><path stroke="#6b7280" stroke-linecap="round" stroke-width="1.26" d="M322.115 262.107a6.303 6.303 0 0 0-6.303-6.303"/><path fill="#6b7280" d="M341.005 256.394a5.506 5.506 0 0 0-5.5 5.499c0 3.044 2.455 5.5 5.5 5.5.196 0 .393.196.393.392a.404.404 0 0 1-.393.393 6.266 6.266 0 0 1-6.285-6.285 6.28 6.28 0 0 1 6.285-6.285c3.461 0 6.285 2.824 6.285 6.285v.589a2.164 2.164 0 0 1-2.161 2.161 2.14 2.14 0 0 1-1.915-1.129 2.71 2.71 0 0 1-2.209 1.129 2.746 2.746 0 0 1-2.75-2.75 2.76 2.76 0 0 1 2.75-2.749 2.77 2.77 0 0 1 1.964.834v-.049c0-.196.172-.393.393-.393.196 0 .392.197.392.393v2.553c0 .761.614 1.375 1.375 1.375.737 0 1.375-.614 1.375-1.375v-.589c0-3.02-2.48-5.499-5.499-5.499m1.964 5.499c0-.687-.393-1.326-.982-1.694a2 2 0 0 0-1.964 0 1.98 1.98 0 0 0-.982 1.694c0 .712.368 1.35.982 1.719.589.343 1.35.343 1.964 0 .589-.369.982-1.007.982-1.719m23.641 5.5c.393 0 .982-.344 1.498-1.4.245-.491.466-1.08.614-1.743h-4.223c.123.663.344 1.252.589 1.743.516 1.056 1.105 1.4 1.522 1.4m-2.258-3.929h4.492a10.4 10.4 0 0 0 .123-1.571c0-.54-.049-1.055-.123-1.571h-4.492a11 11 0 0 0-.099 1.571c0 .565.025 1.08.099 1.571m.147-3.928h4.223a7.4 7.4 0 0 0-.614-1.718c-.516-1.056-1.105-1.424-1.498-1.424-.417 0-1.006.368-1.522 1.424a6.4 6.4 0 0 0-.589 1.718m5.155.786c.05.516.099 1.031.099 1.571 0 .565-.049 1.08-.099 1.571h2.21a5.4 5.4 0 0 0 .246-1.571c0-.54-.099-1.055-.246-1.571zm1.915-.786a5.6 5.6 0 0 0-3.216-2.848c.516.688.933 1.694 1.154 2.848zm-7.88 0c.245-1.154.638-2.16 1.154-2.848a5.6 5.6 0 0 0-3.217 2.848zm-2.357.786a5.6 5.6 0 0 0-.221 1.571c0 .565.073 1.08.221 1.571h2.234a10.5 10.5 0 0 1-.098-1.571c0-.54.024-1.055.098-1.571zm7.021 6.8a5.54 5.54 0 0 0 3.216-2.872h-2.062c-.221 1.179-.638 2.161-1.154 2.872m-3.51 0c-.516-.711-.909-1.693-1.154-2.872h-2.063a5.55 5.55 0 0 0 3.217 2.872m1.767 1.056a6.25 6.25 0 0 1-5.45-3.142 6.26 6.26 0 0 1 0-6.285 6.3 6.3 0 0 1 5.45-3.143 6.29 6.29 0 0 1 5.426 3.143 6.26 6.26 0 0 1 0 6.285 6.24 6.24 0 0 1-5.426 3.142m20.891-10.999a.79.79 0 0 0-.786.786v5.745l1.645-1.669a1.024 1.024 0 0 1 1.4 0l1.669 1.669 3.216-3.241a1.026 1.026 0 0 1 1.4 0l1.669 1.67v-4.174a.81.81 0 0 0-.786-.786zm-.786 7.636v1.006c0 .442.344.786.786.786h1.007l2.356-2.357-1.669-1.645a.194.194 0 0 0-.27 0zm8.765-3.781a.19.19 0 0 0-.27 0l-5.598 5.573h7.316a.79.79 0 0 0 .786-.786v-2.578zm-9.55-3.069c0-.859.687-1.571 1.571-1.571h9.427c.86 0 1.572.712 1.572 1.571v7.856c0 .884-.712 1.572-1.572 1.572h-9.427a1.55 1.55 0 0 1-1.571-1.572zm3.928 1.179a.42.42 0 0 0-.393-.393.404.404 0 0 0-.393.393c0 .22.172.392.393.392a.404.404 0 0 0 .393-.392m-1.571 0c0-.418.221-.786.589-1.007a1.13 1.13 0 0 1 1.178 0c.344.221.589.589.589 1.007 0 .441-.245.81-.589 1.031a1.13 1.13 0 0 1-1.178 0 1.18 1.18 0 0 1-.589-1.031"/><rect width="21.475" height="20.174" x="411.535" y="252.02" fill="#f0fdfa" rx="10.087"/><rect width="8.824" height="8.824" x="417.861" y="257.695" fill="#115e59" rx="2.521"/><rect width="309" height="44.267" x="1" y="36.649" fill="#fff" rx="5.824"/><path fill="#6b7280" d="M12.65 53.385c0-1.183.946-2.163 2.162-2.163H27.79c1.183 0 2.163.98 2.163 2.163V64.2c0 1.217-.98 2.163-2.163 2.163H14.812A2.135 2.135 0 0 1 12.65 64.2zm3.447 1.893a.837.837 0 0 0 .034 1.149l2.602 2.365-2.602 2.4a.837.837 0 0 0-.034 1.15.84.84 0 0 0 1.149.033l3.244-2.974a.8.8 0 0 0 .27-.609.77.77 0 0 0-.27-.574l-3.244-2.974c-.338-.304-.845-.304-1.15.034m4.934 6.218a.8.8 0 0 0-.811.811c0 .474.338.811.811.811h4.867a.8.8 0 0 0 .81-.81.82.82 0 0 0-.81-.812zm29.042-5.442a1.78 1.78 0 0 0-.83-1.34q-.728-.478-1.784-.478-.773 0-1.352.25a2.16 2.16 0 0 0-.898.688 1.65 1.65 0 0 0-.318.994q0 .466.221.801.228.33.58.551.352.216.738.358.387.136.71.222l1.183.318q.455.12 1.01.33.564.21 1.075.573.517.359.852.92.336.564.335 1.381 0 .944-.494 1.705-.489.761-1.432 1.21-.937.45-2.278.449-1.25 0-2.165-.403-.909-.404-1.432-1.125a3.2 3.2 0 0 1-.585-1.676h1.455q.056.659.443 1.09.391.427.988.637.603.204 1.296.204.806 0 1.449-.261.642-.267 1.017-.739.375-.478.375-1.113 0-.58-.324-.944-.324-.363-.852-.59a9 9 0 0 0-1.142-.398l-1.432-.41q-1.365-.39-2.16-1.119-.795-.726-.795-1.903 0-.977.528-1.704a3.5 3.5 0 0 1 1.432-1.137q.904-.41 2.017-.409 1.125 0 2 .403.876.4 1.387 1.091.516.694.545 1.574zm7.316 8.91q-1.26 0-2.176-.558a3.74 3.74 0 0 1-1.403-1.568q-.489-1.011-.489-2.352t.489-2.364q.495-1.028 1.375-1.602.886-.58 2.068-.58.681 0 1.346.228.666.227 1.21.739.546.506.87 1.34.324.836.324 2.057v.568h-6.727v-1.159h5.363q0-.738-.295-1.318a2.23 2.23 0 0 0-.83-.915q-.534-.335-1.261-.335-.801 0-1.386.398a2.6 2.6 0 0 0-.892 1.023q-.313.63-.313 1.352v.773q0 .988.341 1.676.346.68.96 1.04.615.352 1.426.352.529 0 .955-.148.432-.154.744-.454.313-.307.483-.762l1.296.364q-.205.659-.688 1.159-.483.494-1.193.773a4.4 4.4 0 0 1-1.597.272m9.45-8.91v1.137h-4.523v-1.137zm-3.205-2.09h1.34v8.318q0 .567.165.852.171.277.432.375.267.09.563.09.221 0 .363-.022l.228-.045.272 1.204q-.136.051-.38.102-.245.057-.62.057a2.7 2.7 0 0 1-1.113-.244 2.2 2.2 0 0 1-.898-.744q-.352-.5-.352-1.262zm15.221 7.25v-5.16h1.341v8.727h-1.34v-1.477h-.092q-.306.665-.954 1.13-.648.462-1.637.461-.818 0-1.454-.358-.636-.364-1-1.09-.364-.734-.364-1.847v-5.546h1.341v5.455q0 .954.534 1.523.54.567 1.375.568.501 0 1.017-.256.523-.256.875-.784.358-.528.358-1.347m3.797 6.84v-12h1.296v1.387h.159q.147-.228.409-.58.267-.358.761-.636.5-.284 1.352-.284 1.102 0 1.944.55.84.552 1.312 1.563t.472 2.387q0 1.386-.472 2.403-.471 1.011-1.307 1.568-.835.552-1.926.551-.841 0-1.346-.278-.506-.285-.779-.642a9 9 0 0 1-.42-.602h-.114v4.613zm1.318-7.636q0 .988.29 1.744.29.75.847 1.176.556.42 1.363.42.84 0 1.404-.442.568-.45.852-1.205.29-.762.29-1.693 0-.92-.284-1.66-.279-.743-.847-1.175-.563-.438-1.415-.438-.817 0-1.375.415-.556.409-.84 1.148-.285.732-.285 1.71m16.228 4.545q-1.092 0-1.927-.55-.835-.558-1.306-1.569-.472-1.018-.472-2.403 0-1.376.472-2.387.471-1.011 1.312-1.562.84-.551 1.943-.551.852 0 1.347.284.5.278.761.636.267.352.415.58h.114v-1.387h1.341v8.727h-1.296v-1.34h-.159a9 9 0 0 1-.42.602q-.273.358-.779.642-.506.279-1.346.278m.181-1.204q.807 0 1.364-.42.556-.427.847-1.177.29-.756.289-1.744 0-.978-.284-1.71-.283-.739-.841-1.148-.556-.415-1.375-.415-.852 0-1.42.438-.562.432-.847 1.176a4.7 4.7 0 0 0-.278 1.659q0 .931.284 1.693.29.755.852 1.205.57.443 1.409.443m11.142 1.022V53.146h3.932q1.37 0 2.239.494.875.489 1.295 1.324.421.835.421 1.864t-.421 1.87q-.414.84-1.284 1.34-.869.495-2.227.495h-2.818v-1.25h2.773q.937 0 1.505-.324.569-.324.824-.875.261-.557.261-1.256 0-.7-.261-1.25a1.86 1.86 0 0 0-.829-.864q-.575-.318-1.523-.318h-2.477v10.386zm9.975 0v-8.727h1.295v1.318h.091q.234-.647.858-1.05a2.55 2.55 0 0 1 1.415-.404q.363 0 .636.085t.478.233l-.455 1.136a1.3 1.3 0 0 0-.335-.113 2 2 0 0 0-.438-.046q-.636 0-1.136.267-.495.267-.784.728-.285.46-.284 1.05v5.523zm6.14 0v-8.727h1.341v8.727zm.682-10.181a.95.95 0 0 1-.676-.267.86.86 0 0 1-.278-.642.86.86 0 0 1 .278-.643.96.96 0 0 1 .676-.267q.393 0 .671.267a.85.85 0 0 1 .284.643q0 .375-.284.642a.93.93 0 0 1-.671.267m9.297 3.409-1.204.34a2.2 2.2 0 0 0-.336-.585 1.6 1.6 0 0 0-.591-.477q-.375-.187-.96-.187-.801 0-1.335.369-.528.363-.528.926 0 .5.363.79.364.29 1.137.483l1.295.318q1.17.285 1.744.87.574.579.574 1.494 0 .75-.432 1.34-.425.592-1.193.932-.767.341-1.784.341-1.335 0-2.21-.58-.875-.579-1.108-1.692l1.273-.319q.181.705.687 1.057.512.352 1.335.352.938 0 1.489-.397.557-.404.557-.966 0-.455-.318-.761-.318-.313-.978-.466l-1.454-.341q-1.198-.284-1.761-.881-.558-.601-.557-1.506 0-.738.414-1.306a2.8 2.8 0 0 1 1.143-.893q.727-.324 1.647-.323 1.296 0 2.034.568.745.568 1.057 1.5m2.178 6.772v-8.727h1.295v1.364h.114q.273-.7.88-1.085.609-.392 1.461-.392.863 0 1.437.392.58.386.904 1.085h.091q.334-.676 1.005-1.074.67-.403 1.608-.403 1.17 0 1.915.732.744.727.744 2.268v5.84h-1.341v-5.84q0-.966-.528-1.381a1.96 1.96 0 0 0-1.244-.415q-.92 0-1.427.557-.505.55-.505 1.398v5.681h-1.364v-5.977q0-.744-.483-1.199-.483-.46-1.244-.46-.523 0-.977.278-.45.28-.728.773a2.3 2.3 0 0 0-.272 1.13v5.455zm17.201.182q-1.09 0-1.926-.55-.835-.558-1.307-1.569-.471-1.018-.471-2.403 0-1.376.471-2.387.472-1.011 1.313-1.562t1.943-.551q.852 0 1.347.284.5.278.761.636.267.352.415.58h.114v-1.387h1.34v8.727h-1.295v-1.34h-.159a9 9 0 0 1-.421.602q-.272.358-.778.642-.506.279-1.347.278m.182-1.204q.807 0 1.364-.42.556-.427.846-1.177.29-.756.29-1.744 0-.978-.284-1.71-.284-.739-.841-1.148-.556-.415-1.375-.415-.852 0-1.42.438-.562.432-.847 1.176a4.7 4.7 0 0 0-.278 1.659q0 .931.284 1.693.29.755.852 1.205.569.443 1.409.443m11.142 1.022V53.146h3.932q1.37 0 2.239.494.875.489 1.295 1.324.421.835.421 1.864t-.421 1.87q-.414.84-1.284 1.34-.869.495-2.227.495h-2.818v-1.25h2.772q.938 0 1.506-.324t.824-.875q.261-.557.261-1.256 0-.7-.261-1.25a1.87 1.87 0 0 0-.83-.864q-.574-.318-1.522-.318h-2.478v10.386zm13.426.182q-1.181 0-2.073-.562-.886-.563-1.387-1.574-.494-1.011-.494-2.364 0-1.363.494-2.38.5-1.017 1.387-1.58.892-.562 2.073-.562t2.069.562q.891.563 1.386 1.58.5 1.017.5 2.38 0 1.353-.5 2.364-.495 1.011-1.386 1.574-.887.562-2.069.562m0-1.204q.898 0 1.478-.46.579-.46.858-1.21.278-.75.278-1.626t-.278-1.63a2.75 2.75 0 0 0-.858-1.222q-.58-.465-1.478-.466-.897 0-1.477.466-.579.465-.858 1.222a4.7 4.7 0 0 0-.278 1.63q0 .875.278 1.625.279.75.858 1.21.58.46 1.477.46m12.184-5.75-1.205.34a2.2 2.2 0 0 0-.335-.585 1.6 1.6 0 0 0-.591-.477q-.375-.187-.96-.187-.801 0-1.335.369-.53.363-.529.926 0 .5.364.79.363.29 1.136.483l1.296.318q1.17.285 1.744.87.574.579.574 1.494 0 .75-.432 1.34-.426.592-1.193.932t-1.784.341q-1.335 0-2.211-.58-.874-.579-1.108-1.692l1.273-.319q.182.705.688 1.057.512.352 1.335.352.937 0 1.489-.397.556-.404.556-.966 0-.455-.318-.761-.318-.313-.977-.466l-1.455-.341q-1.198-.284-1.761-.881-.557-.601-.557-1.506 0-.738.415-1.306.42-.57 1.142-.893.727-.324 1.648-.323 1.294 0 2.034.568.744.568 1.057 1.5m5.973-1.955v1.137h-4.523v-1.137zm-3.205-2.09h1.341v8.318q0 .567.165.852.17.277.432.375.267.09.562.09.222 0 .364-.022l.227-.045.273 1.204a3 3 0 0 1-.381.102 2.8 2.8 0 0 1-.619.057 2.7 2.7 0 0 1-1.114-.244 2.2 2.2 0 0 1-.898-.744q-.352-.5-.352-1.262zm8.651 14.272q-.972 0-1.671-.25a3.6 3.6 0 0 1-1.165-.648 3.5 3.5 0 0 1-.732-.852l1.068-.75q.181.239.46.545.279.313.761.54.489.233 1.279.233 1.056 0 1.744-.511t.688-1.602v-1.773h-.114a7 7 0 0 1-.421.59q-.267.347-.772.62-.5.267-1.353.267-1.056 0-1.897-.5-.835-.5-1.324-1.454-.483-.956-.483-2.319 0-1.34.471-2.335.472-1 1.313-1.545.841-.551 1.943-.551.852 0 1.352.284.507.278.773.636.273.352.421.58h.136v-1.387h1.295v8.977q0 1.125-.511 1.83-.506.71-1.364 1.04a5.1 5.1 0 0 1-1.897.335m-.046-4.795q.807 0 1.364-.37.556-.369.846-1.062t.29-1.66q0-.942-.284-1.664t-.841-1.13q-.556-.41-1.375-.41-.852 0-1.42.432a2.64 2.64 0 0 0-.847 1.159 4.5 4.5 0 0 0-.278 1.614q0 .909.284 1.608.29.693.852 1.09.569.393 1.409.393m6.273 1.34v-8.727h1.295v1.318h.091q.234-.647.858-1.05a2.55 2.55 0 0 1 1.415-.404q.364 0 .636.085.273.086.478.233l-.455 1.136a1.3 1.3 0 0 0-.335-.113 2 2 0 0 0-.438-.046q-.636 0-1.136.267-.494.267-.784.728a1.96 1.96 0 0 0-.284 1.05v5.523zm9.534.182q-1.261 0-2.176-.556a3.73 3.73 0 0 1-1.403-1.569q-.489-1.011-.489-2.352t.489-2.364q.493-1.028 1.375-1.602.886-.58 2.068-.58.681 0 1.346.228.665.227 1.211.739.545.506.869 1.34.324.836.324 2.057v.568h-6.728V59.71h5.364q0-.738-.295-1.318a2.23 2.23 0 0 0-.83-.915q-.534-.335-1.261-.335-.801 0-1.387.398a2.6 2.6 0 0 0-.892 1.023q-.312.63-.312 1.352v.773q0 .988.341 1.676.346.68.96 1.04.613.352 1.426.352.528 0 .955-.148.431-.154.744-.454.312-.307.483-.762l1.295.364q-.204.659-.687 1.159-.483.494-1.193.773a4.4 4.4 0 0 1-1.597.272m11.835-6.954-1.204.34a2.3 2.3 0 0 0-.335-.585 1.6 1.6 0 0 0-.591-.477q-.375-.187-.961-.187-.801 0-1.335.369-.528.363-.528.926 0 .5.363.79.365.29 1.137.483l1.295.318q1.171.285 1.745.87.573.579.573 1.494 0 .75-.431 1.34-.427.592-1.194.932t-1.784.341q-1.335 0-2.21-.58-.875-.579-1.108-1.692l1.273-.319q.181.705.687 1.057.511.352 1.336.352.938 0 1.488-.397.557-.404.557-.966 0-.455-.318-.761-.318-.313-.977-.466l-1.455-.341q-1.198-.284-1.761-.881-.558-.601-.557-1.506 0-.738.415-1.306.42-.57 1.142-.893.727-.324 1.647-.323 1.296 0 2.034.568.745.568 1.057 1.5m9.973 6.954q-1.09 0-1.926-.55-.835-.558-1.307-1.569-.471-1.018-.471-2.403 0-1.376.471-2.387.472-1.011 1.313-1.562.84-.551 1.943-.551.852 0 1.347.284.5.278.761.636.267.352.415.58h.113v-4.296h1.341v11.636h-1.295v-1.34h-.159a9 9 0 0 1-.421.602q-.273.358-.778.642-.505.279-1.347.278m.182-1.204q.807 0 1.364-.42.556-.427.846-1.177.29-.756.29-1.744 0-.978-.284-1.71-.284-.739-.841-1.148-.556-.415-1.375-.415-.853 0-1.42.438-.563.432-.847 1.176a4.7 4.7 0 0 0-.278 1.659q0 .931.284 1.693.29.755.852 1.205.569.443 1.409.443m9.756 1.204q-1.091 0-1.926-.55-.836-.558-1.307-1.569-.472-1.018-.472-2.403 0-1.376.472-2.387.471-1.011 1.312-1.562t1.944-.551q.852 0 1.346.284.5.278.761.636.268.352.415.58h.114v-1.387h1.341v8.727h-1.296v-1.34h-.159q-.147.239-.42.602-.273.358-.779.642-.506.279-1.346.278m.182-1.204q.807 0 1.363-.42.557-.427.847-1.177.29-.756.29-1.744 0-.978-.284-1.71-.285-.739-.841-1.148-.558-.415-1.375-.415-.853 0-1.421.438-.563.432-.846 1.176a4.7 4.7 0 0 0-.279 1.659q0 .931.284 1.693.29.755.853 1.205.567.443 1.409.443m10.255-7.705v1.137h-4.522v-1.137zm-3.204-2.09h1.341v8.318q0 .567.164.852.171.277.432.375.267.09.563.09.221 0 .363-.022l.228-.045.272 1.204a3 3 0 0 1-.38.102q-.245.057-.62.057-.568 0-1.113-.244a2.2 2.2 0 0 1-.898-.744q-.352-.5-.352-1.262zm8.423 11q-1.09 0-1.926-.552-.836-.557-1.307-1.568-.471-1.018-.471-2.403 0-1.376.471-2.387t1.313-1.562q.84-.551 1.943-.551.852 0 1.346.284.5.278.762.636.267.352.415.58h.113v-1.387h1.341v8.727h-1.295v-1.34h-.159a9 9 0 0 1-.421.602q-.273.358-.778.642-.505.279-1.347.278m.182-1.205q.806 0 1.364-.42.556-.427.846-1.177.29-.756.29-1.744 0-.978-.284-1.71-.285-.739-.841-1.148-.557-.415-1.375-.415-.852 0-1.421.438-.562.432-.846 1.176a4.7 4.7 0 0 0-.279 1.659q0 .931.285 1.693.29.755.852 1.205.568.443 1.409.443m6.642 1.022V53.146h1.341v4.296h.113q.148-.228.41-.58.266-.358.761-.636.5-.284 1.352-.284 1.103 0 1.943.55.841.552 1.313 1.563.471 1.011.471 2.387 0 1.386-.471 2.403-.472 1.011-1.307 1.568-.836.552-1.926.551-.841 0-1.347-.278-.505-.285-.778-.642a9 9 0 0 1-.421-.602h-.159v1.34zm1.318-4.363q0 .988.29 1.744.29.75.846 1.176.558.42 1.364.42.841 0 1.404-.442.567-.45.852-1.205a4.7 4.7 0 0 0 .29-1.693q0-.92-.285-1.66-.277-.743-.846-1.175-.563-.438-1.415-.438-.818 0-1.375.415-.556.409-.841 1.148-.284.732-.284 1.71m11.733 4.545q-1.09 0-1.926-.55-.836-.558-1.307-1.569-.471-1.018-.471-2.403 0-1.376.471-2.387t1.313-1.562q.84-.551 1.943-.551.852 0 1.346.284.5.278.762.636.267.352.415.58h.113V56.05h1.341v8.727h-1.295v-1.34h-.159a9 9 0 0 1-.421.602q-.273.358-.778.642-.505.279-1.347.278m.182-1.204q.806 0 1.364-.42.556-.427.846-1.177.29-.756.29-1.744 0-.978-.284-1.71-.285-.739-.841-1.148-.557-.415-1.375-.415-.852 0-1.421.438-.562.432-.846 1.176a4.7 4.7 0 0 0-.279 1.659q0 .931.285 1.693.29.755.852 1.205.568.443 1.409.443m12.642-5.75-1.205.34a2.2 2.2 0 0 0-.335-.585 1.6 1.6 0 0 0-.591-.477q-.375-.187-.96-.187-.801 0-1.335.369-.528.363-.529.926 0 .5.364.79.363.29 1.136.483l1.296.318q1.17.285 1.744.87.574.579.574 1.494 0 .75-.432 1.34-.426.592-1.193.932t-1.784.341q-1.335 0-2.21-.58-.876-.579-1.108-1.692l1.272-.319q.183.705.688 1.057.512.352 1.335.352.937 0 1.489-.397.557-.404.557-.966 0-.455-.319-.761-.317-.313-.977-.466l-1.454-.341q-1.2-.284-1.762-.881-.557-.601-.557-1.506 0-.738.415-1.306a2.83 2.83 0 0 1 1.142-.893q.727-.324 1.648-.323 1.296 0 2.034.568.744.568 1.057 1.5m5.837 6.954q-1.262 0-2.177-.556a3.74 3.74 0 0 1-1.403-1.569q-.489-1.011-.489-2.352t.489-2.364q.495-1.028 1.375-1.602.886-.58 2.068-.58.683 0 1.347.228a3.3 3.3 0 0 1 1.21.739q.546.506.869 1.34.324.836.324 2.057v.568h-6.727v-1.159h5.364q0-.738-.296-1.318a2.23 2.23 0 0 0-.829-.915q-.534-.335-1.262-.335-.801 0-1.386.398a2.6 2.6 0 0 0-.892 1.023q-.313.63-.313 1.352v.773q0 .988.341 1.676.346.68.96 1.04.615.352 1.427.352.528 0 .954-.148.432-.154.744-.454.314-.307.483-.762l1.296.364a2.9 2.9 0 0 1-.688 1.159q-.483.494-1.193.773a4.4 4.4 0 0 1-1.596.272"/><path fill="#6b7280" d="M1.58 90.21v-.937h4.159v.937zm0 7.79v-.937h4.159V98zm2.608-8.727V98H3.13v-8.727zm3.922 0v3h-.937v-3zm2.797 0V98H9.9v-8.727zm2.847 0V98H12.75v-8.727zm9.854 3.648-.904.255a1.7 1.7 0 0 0-.251-.439 1.2 1.2 0 0 0-.443-.358q-.282-.14-.72-.14-.602 0-1.002.277-.396.272-.396.694 0 .375.272.593.273.216.853.362l.971.238q.878.214 1.309.652.43.435.43 1.121 0 .562-.324 1.006a2.15 2.15 0 0 1-.895.699q-.575.255-1.338.255-1.001 0-1.658-.434-.656-.435-.83-1.27l.954-.239q.136.53.516.793.383.264 1.001.264.703 0 1.117-.298.417-.303.417-.725a.76.76 0 0 0-.239-.57q-.238-.235-.732-.35l-1.091-.256q-.9-.213-1.321-.66-.418-.453-.418-1.13 0-.554.311-.98.315-.426.857-.669a3 3 0 0 1 1.235-.243q.972 0 1.526.427.558.425.793 1.124m4.377 5.215q-.946 0-1.632-.417a2.8 2.8 0 0 1-1.053-1.176q-.366-.759-.366-1.765t.366-1.772a2.9 2.9 0 0 1 1.032-1.202q.665-.435 1.55-.435.512 0 1.01.17.5.172.908.555.41.38.652 1.005.243.627.243 1.543v.426H25.65v-.87h4.023q0-.552-.222-.988a1.67 1.67 0 0 0-.622-.686 1.74 1.74 0 0 0-.946-.251q-.6 0-1.04.298-.435.294-.669.767a2.25 2.25 0 0 0-.234 1.014v.58q0 .741.255 1.257.261.51.72.78a2.1 2.1 0 0 0 1.07.264q.396 0 .716-.11.324-.116.558-.342.235-.23.362-.57l.972.272q-.153.495-.516.87-.362.37-.895.579a3.3 3.3 0 0 1-1.197.204m7.087-6.681v.852H31.68v-.853zm-2.404-1.569h1.006v6.239q0 .426.124.64a.64.64 0 0 0 .323.28q.201.069.422.069.166 0 .273-.017l.17-.034.205.903a2 2 0 0 1-.285.077 2 2 0 0 1-.465.042q-.426 0-.835-.183a1.66 1.66 0 0 1-.674-.558q-.264-.376-.264-.946zm11.417 5.438v-3.87h1.005V98h-1.006v-1.108h-.068a2.15 2.15 0 0 1-.716.848q-.484.345-1.227.345-.614 0-1.09-.268a1.9 1.9 0 0 1-.75-.818q-.274-.55-.273-1.385v-4.16h1.005v4.092q0 .715.4 1.141.405.427 1.032.427.375 0 .763-.192.392-.192.656-.588.268-.396.268-1.01m2.847 5.131v-9h.972v1.04h.12q.11-.172.306-.435.2-.269.57-.478.375-.213 1.015-.213.827 0 1.458.414.63.413.984 1.171.354.76.354 1.79 0 1.04-.354 1.803-.354.759-.98 1.176-.627.413-1.445.413-.63 0-1.01-.208a1.9 1.9 0 0 1-.584-.482 7 7 0 0 1-.315-.452h-.085v3.461zm.989-5.728q0 .742.217 1.308.218.564.635.883.418.315 1.023.315.63 0 1.052-.332.427-.337.64-.904.217-.57.217-1.27 0-.69-.213-1.244a1.9 1.9 0 0 0-.635-.882q-.422-.328-1.061-.328-.615 0-1.031.31a1.87 1.87 0 0 0-.631.862q-.213.55-.213 1.282m12.545-3.273v.853h-3.392v-.853zm-2.403-1.568h1.005v6.239q0 .426.124.64a.64.64 0 0 0 .324.28q.2.069.422.069.166 0 .273-.017l.17-.034.205.903a2 2 0 0 1-.286.077 2 2 0 0 1-.464.042q-.427 0-.836-.183a1.66 1.66 0 0 1-.673-.558q-.264-.376-.264-.946zm5.062 4.177V98H62.12v-8.727h1.005v3.204h.086a1.85 1.85 0 0 1 .69-.805q.464-.303 1.236-.303.668 0 1.172.269.502.264.78.814.28.544.28 1.389V98h-1.005v-4.09q0-.78-.405-1.207-.4-.43-1.112-.43-.495 0-.886.209-.388.209-.614.609-.222.4-.222.972m8.829 4.073q-.946 0-1.632-.417a2.8 2.8 0 0 1-1.053-1.176q-.366-.759-.366-1.765t.366-1.772a2.9 2.9 0 0 1 1.031-1.202q.665-.435 1.552-.435.51 0 1.01.17.498.172.907.555.41.38.652 1.005.243.627.243 1.543v.426H69.62v-.87h4.022q0-.552-.221-.988a1.67 1.67 0 0 0-.622-.686 1.74 1.74 0 0 0-.946-.251q-.602 0-1.04.298-.435.294-.67.767a2.25 2.25 0 0 0-.234 1.014v.58q0 .741.256 1.257.26.51.72.78.46.264 1.07.264.396 0 .716-.11.324-.116.558-.342.234-.23.362-.57l.972.272q-.153.495-.516.87-.362.37-.895.579a3.3 3.3 0 0 1-1.197.204m7.75-.136v-8.727h2.95q1.026 0 1.678.37.656.367.972.993.315.627.315 1.398 0 .772-.315 1.402-.312.63-.963 1.006-.653.37-1.67.37h-2.114v-.937h2.08q.702 0 1.128-.243.426-.242.618-.656a2.2 2.2 0 0 0 .196-.942q0-.525-.196-.937a1.4 1.4 0 0 0-.622-.648q-.43-.24-1.142-.239h-1.858V98zm7.481 0v-6.546h.972v.99h.068q.174-.487.643-.79a1.9 1.9 0 0 1 1.061-.302q.273 0 .478.064t.358.175l-.341.852a1 1 0 0 0-.252-.085 1.4 1.4 0 0 0-.328-.034q-.477 0-.852.2a1.56 1.56 0 0 0-.588.546 1.47 1.47 0 0 0-.213.788V98zm4.605 0v-6.546h1.006V98zm.512-7.636a.72.72 0 0 1-.507-.2.64.64 0 0 1-.209-.482q0-.281.209-.482a.72.72 0 0 1 .507-.2.7.7 0 0 1 .503.2.64.64 0 0 1 .213.482.64.64 0 0 1-.213.481.7.7 0 0 1-.503.2m6.973 2.557-.904.255a1.7 1.7 0 0 0-.251-.439 1.2 1.2 0 0 0-.443-.358q-.282-.14-.72-.14-.601 0-1.002.277-.396.272-.396.694 0 .375.272.593.273.216.853.362l.971.238q.878.214 1.308.652.43.435.43 1.121 0 .562-.323 1.006a2.15 2.15 0 0 1-.895.699q-.575.255-1.338.255-1 0-1.658-.434-.656-.435-.83-1.27l.954-.239q.136.53.516.793.383.264 1.001.264.703 0 1.117-.298.417-.303.417-.725a.76.76 0 0 0-.239-.57q-.238-.235-.733-.35l-1.09-.256q-.9-.213-1.321-.66-.418-.453-.418-1.13 0-.554.311-.98.315-.426.857-.669a3 3 0 0 1 1.235-.243q.972 0 1.526.427.558.425.793 1.124M100.909 98v-6.546h.971v1.023h.086q.204-.524.66-.814.456-.294 1.095-.294.648 0 1.078.294.435.29.678.814h.068a1.9 1.9 0 0 1 .754-.805q.504-.303 1.206-.303.879 0 1.436.55.56.546.559 1.7V98h-1.006v-4.38q0-.726-.396-1.036a1.47 1.47 0 0 0-.934-.311q-.69 0-1.069.417-.38.413-.379 1.049V98h-1.023v-4.483q0-.558-.362-.9-.363-.345-.934-.344-.391 0-.733.209-.336.208-.545.58a1.7 1.7 0 0 0-.205.847V98zm12.356.153q-.623 0-1.13-.234a1.94 1.94 0 0 1-.805-.686q-.298-.452-.298-1.091 0-.562.221-.912.221-.353.593-.554.37-.2.818-.298.451-.102.907-.162.597-.077.968-.115.375-.043.545-.14.175-.099.175-.342v-.034q0-.63-.345-.98-.342-.35-1.036-.35-.72 0-1.129.316t-.575.673l-.955-.34q.256-.597.682-.93.43-.336.937-.468.512-.137 1.006-.137.315 0 .725.077.413.073.796.303.388.23.644.694.256.465.256 1.245V98h-1.006v-.886h-.051a1.8 1.8 0 0 1-.341.456 2 2 0 0 1-.635.413q-.397.17-.967.17m.153-.903q.597 0 1.006-.234a1.6 1.6 0 0 0 .835-1.385v-.92q-.064.075-.281.14-.213.06-.495.106a22 22 0 0 1-.963.128q-.391.052-.733.166a1.26 1.26 0 0 0-.545.337q-.205.222-.205.605 0 .525.388.793.391.264.993.264m10.801.886q-.945 0-1.632-.417a2.8 2.8 0 0 1-1.052-1.176q-.367-.759-.367-1.765t.367-1.772a2.9 2.9 0 0 1 1.031-1.202q.664-.435 1.551-.435a3.1 3.1 0 0 1 1.01.17 2.5 2.5 0 0 1 .908.555q.41.38.652 1.005.243.627.243 1.543v.426h-5.046v-.87h4.023q0-.552-.222-.988a1.67 1.67 0 0 0-.622-.686 1.74 1.74 0 0 0-.946-.251q-.6 0-1.04.298a2 2 0 0 0-.669.767 2.26 2.26 0 0 0-.234 1.014v.58q0 .741.256 1.257.26.51.72.78a2.1 2.1 0 0 0 1.069.264q.397 0 .716-.11a1.5 1.5 0 0 0 .559-.342q.234-.23.362-.57l.971.272q-.153.495-.515.87a2.5 2.5 0 0 1-.895.579 3.3 3.3 0 0 1-1.198.204m5.246-4.073V98h-1.005v-6.546h.971v1.023h.085q.231-.499.699-.8.47-.308 1.21-.308.665 0 1.164.273.499.269.775.818.277.546.277 1.38V98h-1.005v-4.09q0-.773-.401-1.203-.4-.435-1.099-.434-.482 0-.861.209-.375.209-.592.609-.218.4-.218.972m11.132-2.609L138.176 98h-1.022l-2.421-6.546h1.091l1.807 5.217h.068l1.807-5.217zM141.924 98v-6.546h1.006V98zm.512-7.636a.72.72 0 0 1-.507-.2.64.64 0 0 1-.209-.482.64.64 0 0 1 .209-.482.72.72 0 0 1 .507-.2q.294 0 .503.2a.64.64 0 0 1 .213.482.64.64 0 0 1-.213.481.7.7 0 0 1-.503.2M144.772 98v-6.546h.972v.99h.068q.174-.487.643-.79a1.9 1.9 0 0 1 1.061-.302q.273 0 .478.064t.358.175l-.341.852a1.4 1.4 0 0 0-.58-.12 1.8 1.8 0 0 0-.852.201 1.56 1.56 0 0 0-.588.546 1.47 1.47 0 0 0-.213.788V98zm7.065.136q-.886 0-1.555-.421a2.87 2.87 0 0 1-1.04-1.18q-.37-.76-.371-1.774 0-1.022.371-1.785.375-.764 1.04-1.185.669-.422 1.555-.422.887 0 1.551.422.67.422 1.04 1.185.375.762.375 1.785 0 1.015-.375 1.773a2.8 2.8 0 0 1-1.04 1.18q-.665.422-1.551.422m0-.903q.674 0 1.108-.345t.644-.908a3.5 3.5 0 0 0 .209-1.219q0-.656-.209-1.223a2.06 2.06 0 0 0-.644-.916q-.434-.35-1.108-.35-.673 0-1.108.35a2.06 2.06 0 0 0-.643.916 3.5 3.5 0 0 0-.209 1.223q0 .657.209 1.22.209.561.643.907.435.345 1.108.345m5.507-3.17V98h-1.006v-6.546h.972v1.023h.085q.231-.499.699-.8.47-.308 1.21-.308.665 0 1.164.273.499.269.775.818.277.546.277 1.38V98h-1.005v-4.09q0-.773-.401-1.203-.401-.435-1.099-.434-.481 0-.861.209-.375.209-.593.609t-.217.972M163.358 98v-6.546h.972v1.023h.085q.204-.524.66-.814.456-.294 1.095-.294.648 0 1.079.294.434.29.677.814h.068q.251-.507.755-.805.503-.303 1.206-.303.877 0 1.436.55.558.546.558 1.7V98h-1.006v-4.38q0-.726-.396-1.036a1.47 1.47 0 0 0-.933-.311q-.691 0-1.07.417-.38.413-.379 1.049V98h-1.023v-4.483q0-.558-.362-.9-.363-.345-.933-.344-.393 0-.733.209-.338.208-.546.58a1.7 1.7 0 0 0-.204.847V98zm13.174.136q-.947 0-1.632-.417a2.8 2.8 0 0 1-1.053-1.176q-.366-.759-.366-1.765t.366-1.772a2.9 2.9 0 0 1 1.032-1.202q.665-.435 1.551-.435.511 0 1.01.17.498.172.907.555.41.38.652 1.005.243.627.243 1.543v.426h-5.045v-.87h4.022q0-.552-.221-.988a1.67 1.67 0 0 0-.622-.686 1.74 1.74 0 0 0-.946-.251q-.601 0-1.04.298-.435.294-.669.767a2.26 2.26 0 0 0-.234 1.014v.58q0 .741.255 1.257.26.51.72.78.46.264 1.07.264.396 0 .716-.11.324-.116.558-.342.234-.23.362-.57l.972.272q-.153.495-.516.87-.361.37-.895.579a3.3 3.3 0 0 1-1.197.204m5.246-4.073V98h-1.006v-6.546h.972v1.023h.085q.23-.499.699-.8.468-.308 1.21-.308.665 0 1.163.273.499.269.776.818.277.546.277 1.38V98h-1.006v-4.09q0-.773-.4-1.203-.4-.435-1.1-.434-.481 0-.861.209-.375.209-.592.609t-.217.972m8.86-2.609v.853h-3.392v-.853zm-2.403-1.568h1.005v6.239q0 .426.124.64.127.208.324.28.2.069.422.069.166 0 .272-.017l.171-.034.204.903a2 2 0 0 1-.285.077 2 2 0 0 1-.465.042q-.426 0-.835-.183a1.66 1.66 0 0 1-.673-.558q-.264-.376-.264-.946zm9.217 8.267q-.622 0-1.129-.234a1.94 1.94 0 0 1-.806-.686q-.298-.452-.298-1.091 0-.562.222-.912a1.56 1.56 0 0 1 .592-.554q.37-.2.818-.298.452-.102.908-.162.597-.077.967-.115.375-.043.546-.14.174-.099.174-.342v-.034q0-.63-.345-.98-.34-.35-1.035-.35-.72 0-1.13.316-.408.316-.575.673l-.954-.34q.255-.597.681-.93.43-.336.938-.468.511-.137 1.006-.137.315 0 .724.077.413.073.797.303.387.23.643.694.256.465.256 1.245V98h-1.006v-.886h-.051a1.8 1.8 0 0 1-.341.456q-.238.243-.635.413-.396.17-.967.17m.153-.903q.597 0 1.006-.234a1.59 1.59 0 0 0 .835-1.385v-.92q-.063.075-.281.14-.213.06-.494.106a23 23 0 0 1-.963.128q-.393.052-.733.166a1.3 1.3 0 0 0-.546.337q-.204.222-.204.605 0 .525.388.793.392.264.992.264m5.688-3.187V98h-1.005v-6.546h.971v1.023h.085q.231-.499.699-.8.469-.308 1.211-.308.665 0 1.163.273.498.269.775.818.277.546.277 1.38V98h-1.005v-4.09q0-.773-.401-1.203-.4-.435-1.099-.434-.482 0-.861.209-.375.209-.592.609-.218.4-.218.972m8.486 4.073a2.56 2.56 0 0 1-1.445-.413q-.626-.417-.98-1.176-.354-.763-.354-1.803 0-1.03.354-1.79.354-.758.984-1.171.631-.414 1.458-.414.64 0 1.01.213.375.21.571.478.2.263.311.434h.085v-3.221h1.006V98h-.972v-1.006h-.119q-.111.18-.315.452-.205.269-.584.482-.38.208-1.01.208m.136-.903q.605 0 1.023-.315a2 2 0 0 0 .635-.883q.217-.566.217-1.308 0-.733-.213-1.282a1.86 1.86 0 0 0-.631-.861q-.417-.311-1.031-.311-.639 0-1.065.328-.422.324-.635.882a3.5 3.5 0 0 0-.209 1.244q0 .7.213 1.27.218.567.639.904.426.332 1.057.332m10.146.92a2.7 2.7 0 0 1-1.129-.234 1.94 1.94 0 0 1-.805-.686q-.299-.452-.299-1.091 0-.562.222-.912.222-.353.592-.554.371-.2.819-.298.451-.102.907-.162.596-.077.968-.115.375-.043.545-.14.175-.099.175-.342v-.034q0-.63-.345-.98-.342-.35-1.036-.35-.72 0-1.129.316t-.575.673l-.955-.34q.256-.597.682-.93.43-.336.937-.468.511-.137 1.006-.137.316 0 .724.077.414.073.797.303.388.23.644.694.255.465.255 1.245V98h-1.005v-.886h-.051a1.8 1.8 0 0 1-.341.456 2 2 0 0 1-.635.413q-.396.17-.968.17m.154-.903q.597 0 1.006-.234.412-.235.622-.606.213-.37.213-.78v-.92q-.065.077-.281.14-.214.06-.495.107a22 22 0 0 1-.963.128q-.392.052-.733.166a1.26 1.26 0 0 0-.545.337q-.205.222-.205.605 0 .525.388.793.392.264.993.264m8.057.75v-6.546h.972v1.023h.085q.204-.524.66-.814.456-.294 1.096-.294.647 0 1.078.294.434.29.677.814h.068q.251-.507.755-.805.502-.303 1.206-.303.878 0 1.436.55.558.546.558 1.7V98h-1.006v-4.38q0-.726-.396-1.036a1.47 1.47 0 0 0-.933-.311q-.691 0-1.07.417-.38.413-.379 1.049V98h-1.023v-4.483q0-.558-.362-.9-.363-.345-.933-.344-.393 0-.733.209-.338.208-.546.58a1.7 1.7 0 0 0-.204.847V98zm12.356.153q-.622 0-1.129-.234a1.94 1.94 0 0 1-.806-.686q-.298-.452-.298-1.091 0-.562.221-.912a1.57 1.57 0 0 1 .593-.554q.37-.2.818-.298.452-.102.908-.162.596-.077.967-.115.375-.043.545-.14.175-.099.175-.342v-.034q0-.63-.345-.98-.34-.35-1.036-.35-.72 0-1.129.316t-.575.673l-.955-.34q.256-.597.682-.93.43-.336.938-.468.512-.137 1.005-.137.316 0 .725.077.413.073.797.303.388.23.643.694.256.465.256 1.245V98h-1.006v-.886h-.051a1.8 1.8 0 0 1-.341.456 2 2 0 0 1-.635.413q-.396.17-.967.17m.153-.903q.597 0 1.006-.234a1.59 1.59 0 0 0 .835-1.385v-.92q-.063.075-.281.14-.213.06-.494.106a22 22 0 0 1-.963.128q-.393.052-.733.166a1.26 1.26 0 0 0-.546.337q-.204.222-.204.605 0 .525.387.793.393.264.993.264m5.688-3.187V98h-1.006v-6.546h.972v1.023h.085q.231-.499.699-.8.47-.308 1.21-.308.665 0 1.164.273.499.269.775.818.277.546.277 1.38V98h-1.005v-4.09q0-.773-.401-1.203-.401-.435-1.099-.434-.481 0-.861.209-.375.209-.593.609t-.217.972m7.94 4.09q-.622 0-1.129-.234a1.94 1.94 0 0 1-.806-.686q-.297-.452-.298-1.091 0-.562.222-.912a1.56 1.56 0 0 1 .592-.554q.37-.2.818-.298.452-.102.908-.162.597-.077.967-.115.375-.043.546-.14.174-.099.174-.342v-.034q0-.63-.345-.98-.34-.35-1.035-.35-.72 0-1.13.316-.408.316-.575.673l-.954-.34q.255-.597.681-.93.43-.336.938-.468.511-.137 1.006-.137.315 0 .724.077.413.073.797.303.387.23.643.694.256.465.256 1.245V98h-1.006v-.886h-.051a1.8 1.8 0 0 1-.341.456q-.238.243-.635.413-.396.17-.967.17m.153-.903q.597 0 1.006-.234a1.59 1.59 0 0 0 .835-1.385v-.92q-.063.075-.281.14-.213.06-.494.106a23 23 0 0 1-.963.128q-.393.052-.733.166a1.3 1.3 0 0 0-.546.337q-.204.222-.204.605 0 .525.388.793.392.264.992.264m7.325 3.341q-.73 0-1.253-.188a2.7 2.7 0 0 1-.874-.485 2.7 2.7 0 0 1-.549-.64l.801-.562q.137.18.345.409.208.234.571.405.366.174.959.174.792 0 1.308-.383t.516-1.202v-1.33h-.086a6 6 0 0 1-.315.444 1.8 1.8 0 0 1-.58.464q-.375.2-1.014.2a2.73 2.73 0 0 1-1.423-.374 2.63 2.63 0 0 1-.993-1.091q-.362-.716-.362-1.739 0-1.005.354-1.751.353-.75.984-1.16.63-.413 1.457-.413.64 0 1.015.213.379.21.579.478.205.263.315.434h.103v-1.04h.971v6.734q0 .843-.383 1.372a2.2 2.2 0 0 1-1.023.779 3.9 3.9 0 0 1-1.423.252m-.034-3.597q.605 0 1.022-.277.418-.276.635-.796t.218-1.245q0-.708-.213-1.248a1.9 1.9 0 0 0-.631-.849q-.418-.306-1.031-.306-.64 0-1.066.324a1.97 1.97 0 0 0-.635.869 3.4 3.4 0 0 0-.208 1.21q0 .682.213 1.206.217.52.639.818.426.294 1.057.294m7.448 1.142q-.945 0-1.632-.417a2.8 2.8 0 0 1-1.052-1.176q-.367-.759-.367-1.765t.367-1.772a2.9 2.9 0 0 1 1.031-1.202q.664-.435 1.551-.435a3.1 3.1 0 0 1 1.01.17 2.5 2.5 0 0 1 .908.555q.41.38.652 1.005.243.627.243 1.543v.426h-5.046v-.87h4.023q0-.552-.222-.988a1.66 1.66 0 0 0-.622-.686 1.74 1.74 0 0 0-.946-.251q-.6 0-1.04.298a2 2 0 0 0-.669.767 2.26 2.26 0 0 0-.234 1.014v.58q0 .741.256 1.257.26.51.72.78a2.1 2.1 0 0 0 1.069.264q.397 0 .716-.11a1.5 1.5 0 0 0 .559-.342q.234-.23.362-.57l.971.272q-.153.495-.515.87a2.5 2.5 0 0 1-.895.579 3.3 3.3 0 0 1-1.198.204m6.712 0a2.56 2.56 0 0 1-1.444-.413q-.627-.417-.981-1.176-.353-.763-.353-1.803 0-1.03.353-1.79.354-.758.985-1.171.63-.414 1.457-.414.64 0 1.01.213.375.21.571.478.2.263.311.434h.085v-3.221h1.006V98h-.971v-1.006h-.12q-.111.18-.315.452-.204.269-.584.482-.379.208-1.01.208m.137-.903q.605 0 1.022-.315.418-.32.635-.883.218-.566.218-1.308 0-.733-.214-1.282a1.87 1.87 0 0 0-.63-.861q-.418-.311-1.031-.311-.64 0-1.066.328-.422.324-.635.882a3.5 3.5 0 0 0-.209 1.244q0 .7.213 1.27.217.567.64.904.426.332 1.057.332m8.356.767v-8.727h2.949q1.027 0 1.679.37.656.367.971.993.316.627.316 1.398 0 .772-.316 1.402a2.34 2.34 0 0 1-.963 1.006q-.651.37-1.67.37h-2.114v-.937h2.08q.703 0 1.129-.243.426-.242.618-.656.196-.419.196-.942 0-.525-.196-.937a1.4 1.4 0 0 0-.622-.648q-.43-.24-1.142-.239h-1.858V98zm10.07.136q-.887 0-1.556-.421a2.87 2.87 0 0 1-1.04-1.18q-.37-.76-.37-1.774 0-1.022.37-1.785.375-.764 1.04-1.185.67-.422 1.556-.422.887 0 1.551.422.668.422 1.04 1.185.375.762.375 1.785 0 1.015-.375 1.773-.372.76-1.04 1.18-.664.422-1.551.422m0-.903q.673 0 1.108-.345.434-.345.643-.908a3.5 3.5 0 0 0 .209-1.219q0-.656-.209-1.223a2.06 2.06 0 0 0-.643-.916q-.435-.35-1.108-.35-.674 0-1.108.35t-.644.916a3.5 3.5 0 0 0-.209 1.223q0 .657.209 1.22.209.561.644.907.434.345 1.108.345m9.137-4.312-.903.255a1.7 1.7 0 0 0-.252-.439 1.2 1.2 0 0 0-.443-.358q-.28-.14-.72-.14-.6 0-1.002.277-.396.272-.396.694 0 .375.273.593.273.216.852.362l.972.238q.877.214 1.308.652.43.435.43 1.121 0 .562-.323 1.006a2.16 2.16 0 0 1-.895.699q-.576.255-1.338.255-1.002 0-1.658-.434-.657-.435-.831-1.27l.954-.239q.136.53.516.793.384.264 1.002.264.702 0 1.116-.298.418-.303.418-.725a.76.76 0 0 0-.239-.57q-.238-.235-.733-.35l-1.091-.256q-.899-.213-1.321-.66-.418-.453-.418-1.13 0-.554.312-.98.315-.426.856-.669a3 3 0 0 1 1.236-.243q.972 0 1.525.427.56.425.793 1.124m4.48-1.467v.853h-3.392v-.853zm-2.404-1.568h1.006v6.239q0 .426.124.64.127.208.324.28.2.069.421.069.166 0 .273-.017l.171-.034.204.903a2 2 0 0 1-.285.077 2 2 0 0 1-.465.042q-.426 0-.835-.183a1.66 1.66 0 0 1-.673-.558q-.265-.376-.265-.946zm6.488 10.705q-.728 0-1.252-.188a2.7 2.7 0 0 1-.874-.485 2.7 2.7 0 0 1-.55-.64l.801-.562q.136.18.346.409.208.234.571.405.366.174.958.174.793 0 1.309-.383t.515-1.202v-1.33h-.085a6 6 0 0 1-.315.444 1.8 1.8 0 0 1-.58.464q-.375.2-1.014.2a2.73 2.73 0 0 1-1.423-.374 2.63 2.63 0 0 1-.993-1.091q-.363-.716-.363-1.739 0-1.005.354-1.751.354-.75.985-1.16.63-.413 1.457-.413.639 0 1.014.213.38.21.58.478a7 7 0 0 1 .315.434h.102v-1.04h.972v6.734q0 .843-.384 1.372a2.17 2.17 0 0 1-1.022.779 3.9 3.9 0 0 1-1.424.252m-.034-3.597q.606 0 1.023-.277.417-.276.635-.796.217-.52.217-1.245 0-.708-.213-1.248a1.9 1.9 0 0 0-.63-.849q-.418-.306-1.032-.306-.639 0-1.065.324a1.97 1.97 0 0 0-.635.869 3.4 3.4 0 0 0-.209 1.21q0 .682.213 1.206.217.52.639.818.427.294 1.057.294M318.948 98v-6.546h.971v.99h.069q.175-.487.643-.79a1.9 1.9 0 0 1 1.061-.302 1.6 1.6 0 0 1 .477.064q.205.064.358.175l-.341.852a1 1 0 0 0-.251-.085 1.4 1.4 0 0 0-.328-.034 1.8 1.8 0 0 0-.852.2 1.54 1.54 0 0 0-.588.546q-.214.345-.214.788V98zm7.15.136q-.945 0-1.632-.417a2.8 2.8 0 0 1-1.052-1.176q-.367-.759-.367-1.765t.367-1.772a2.9 2.9 0 0 1 1.031-1.202q.665-.435 1.551-.435a3.1 3.1 0 0 1 1.01.17q.498.172.908.555.409.38.652 1.005.243.627.243 1.543v.426h-5.046v-.87h4.023q0-.552-.222-.988a1.67 1.67 0 0 0-.622-.686 1.74 1.74 0 0 0-.946-.251q-.6 0-1.04.298a2 2 0 0 0-.669.767 2.26 2.26 0 0 0-.234 1.014v.58q0 .741.256 1.257.26.51.72.78a2.1 2.1 0 0 0 1.069.264q.397 0 .716-.11a1.5 1.5 0 0 0 .559-.342q.234-.23.362-.57l.971.272q-.153.495-.515.87a2.5 2.5 0 0 1-.895.579 3.3 3.3 0 0 1-1.198.204m8.877-5.215-.904.255a1.7 1.7 0 0 0-.251-.439 1.2 1.2 0 0 0-.443-.358q-.282-.14-.72-.14-.602 0-1.002.277-.396.272-.396.694 0 .375.273.593.272.216.852.362l.971.238q.879.214 1.309.652.43.435.43 1.121 0 .562-.324 1.006a2.15 2.15 0 0 1-.895.699q-.575.255-1.338.255-1.001 0-1.657-.434-.657-.435-.831-1.27l.954-.239q.137.53.516.793.384.264 1.001.264.703 0 1.117-.298.417-.303.417-.725a.76.76 0 0 0-.238-.57q-.239-.235-.733-.35l-1.091-.256q-.9-.213-1.321-.66-.418-.453-.418-1.13 0-.554.311-.98.316-.426.857-.669a3 3 0 0 1 1.236-.243q.971 0 1.525.427.558.425.793 1.124m7.48 5.215a2.56 2.56 0 0 1-1.445-.413q-.627-.417-.98-1.176-.354-.763-.354-1.803 0-1.03.354-1.79.354-.758.984-1.171t1.458-.414q.639 0 1.01.213.375.21.571.478.2.263.311.434h.085v-3.221h1.006V98h-.972v-1.006h-.119q-.11.18-.316.452-.204.269-.584.482-.378.208-1.009.208m.136-.903q.605 0 1.023-.315a2 2 0 0 0 .635-.883q.216-.566.217-1.308 0-.733-.213-1.282a1.86 1.86 0 0 0-.631-.861q-.417-.311-1.031-.311-.639 0-1.065.328-.422.324-.635.882-.21.555-.209 1.244 0 .7.213 1.27.217.567.639.904.426.332 1.057.332m6.771.92q-.622 0-1.129-.234a1.93 1.93 0 0 1-.805-.686q-.299-.452-.299-1.091 0-.562.222-.912.222-.353.592-.554.37-.2.818-.298.452-.102.908-.162.597-.077.967-.115.375-.043.546-.14.175-.099.175-.342v-.034q0-.63-.346-.98-.34-.35-1.035-.35-.72 0-1.129.316t-.576.673l-.954-.34q.255-.597.682-.93.43-.336.937-.468.511-.137 1.006-.137.315 0 .724.077.414.073.797.303.388.23.644.694.255.465.255 1.245V98h-1.005v-.886h-.052a1.8 1.8 0 0 1-.341.456q-.238.243-.634.413-.397.17-.968.17m.154-.903q.596 0 1.005-.234a1.6 1.6 0 0 0 .622-.606q.214-.37.214-.78v-.92q-.065.077-.282.14-.213.06-.494.107a23 23 0 0 1-.963.128q-.392.052-.733.166a1.3 1.3 0 0 0-.546.337q-.204.222-.204.605 0 .525.388.793.391.264.993.264m7.528-5.796v.853h-3.392v-.853zm-2.403-1.568h1.006v6.239q0 .426.123.64.127.208.324.28.2.069.422.069.166 0 .273-.017l.17-.034.205.903a2 2 0 0 1-.286.077 2 2 0 0 1-.464.042 2 2 0 0 1-.836-.183 1.66 1.66 0 0 1-.673-.558q-.264-.376-.264-.946zm5.842 8.267a2.7 2.7 0 0 1-1.129-.234 1.94 1.94 0 0 1-.805-.686q-.299-.452-.299-1.091 0-.562.222-.912.222-.353.592-.554.37-.2.818-.298.453-.102.908-.162.597-.077.967-.115.375-.043.546-.14.174-.099.175-.342v-.034q0-.63-.346-.98-.34-.35-1.035-.35-.72 0-1.129.316t-.576.673l-.954-.34q.256-.597.682-.93.43-.336.937-.468.511-.137 1.006-.137.316 0 .724.077.413.073.797.303.388.23.644.694.255.465.255 1.245V98h-1.005v-.886h-.052a1.8 1.8 0 0 1-.34.456q-.24.243-.635.413-.397.17-.968.17m.154-.903q.596 0 1.005-.234a1.6 1.6 0 0 0 .836-1.385v-.92q-.065.075-.282.14-.212.06-.494.106a23 23 0 0 1-.963.128q-.392.052-.733.166a1.26 1.26 0 0 0-.545.337q-.205.222-.205.605 0 .525.388.793.392.264.993.264m4.818.75v-8.727h1.006v3.221h.085q.11-.17.307-.434.2-.269.571-.478.375-.213 1.014-.213.827 0 1.458.414.63.413.984 1.171.354.76.354 1.79 0 1.04-.354 1.803-.354.759-.98 1.176a2.56 2.56 0 0 1-1.445.413q-.63 0-1.01-.208a1.9 1.9 0 0 1-.583-.482 6 6 0 0 1-.316-.452h-.119V98zm.989-3.273q0 .742.217 1.308.218.564.635.883.418.315 1.023.315.63 0 1.052-.332.427-.337.64-.904.217-.57.217-1.27 0-.69-.213-1.244a1.9 1.9 0 0 0-.635-.882q-.422-.328-1.061-.328-.614 0-1.031.31a1.86 1.86 0 0 0-.631.862q-.213.55-.213 1.282m8.254 3.426q-.622 0-1.129-.234a1.94 1.94 0 0 1-.806-.686q-.297-.452-.298-1.091 0-.562.222-.912.222-.353.592-.554.37-.2.818-.298.452-.102.908-.162.597-.077.967-.115.375-.043.546-.14.174-.099.174-.342v-.034q0-.63-.345-.98-.34-.35-1.035-.35-.72 0-1.129.316t-.576.673l-.954-.34q.255-.597.682-.93.43-.336.937-.468.511-.137 1.006-.137.315 0 .724.077.413.073.797.303.388.23.643.694.256.465.256 1.245V98h-1.006v-.886h-.051a1.8 1.8 0 0 1-.341.456q-.238.243-.635.413-.396.17-.967.17m.154-.903q.596 0 1.005-.234a1.59 1.59 0 0 0 .835-1.385v-.92q-.063.075-.281.14-.213.06-.494.106a23 23 0 0 1-.963.128q-.393.052-.733.166a1.3 1.3 0 0 0-.546.337q-.204.222-.204.605 0 .525.388.793.392.264.993.264m9.318-4.33-.903.256a1.7 1.7 0 0 0-.252-.439 1.2 1.2 0 0 0-.443-.358q-.28-.14-.72-.14-.6 0-1.002.277-.396.272-.396.694 0 .375.273.593.273.216.852.362l.972.238q.877.214 1.308.652.43.435.43 1.121 0 .562-.323 1.006a2.16 2.16 0 0 1-.895.699q-.576.255-1.338.255-1.002 0-1.658-.434-.657-.435-.831-1.27l.955-.239q.135.53.515.793.384.264 1.002.264.702 0 1.116-.298.418-.303.418-.725a.76.76 0 0 0-.239-.57q-.238-.235-.733-.35l-1.091-.256q-.899-.213-1.321-.66-.417-.453-.417-1.13 0-.554.311-.98.315-.426.856-.669a3 3 0 0 1 1.236-.243q.972 0 1.525.427.56.425.793 1.124m4.378 5.216q-.946 0-1.633-.417a2.8 2.8 0 0 1-1.052-1.176q-.367-.759-.367-1.765t.367-1.772a2.9 2.9 0 0 1 1.031-1.202q.664-.435 1.551-.435a3.1 3.1 0 0 1 1.01.17 2.5 2.5 0 0 1 .908.555q.41.38.652 1.005.243.627.243 1.543v.426h-5.046v-.87h4.023q0-.552-.222-.988a1.66 1.66 0 0 0-.622-.686 1.74 1.74 0 0 0-.946-.251q-.6 0-1.039.298-.435.294-.669.767a2.24 2.24 0 0 0-.235 1.014v.58q0 .741.256 1.257.26.51.72.78a2.1 2.1 0 0 0 1.07.264q.396 0 .715-.11a1.5 1.5 0 0 0 .559-.342q.234-.23.362-.57l.972.272q-.154.495-.516.87a2.5 2.5 0 0 1-.895.579 3.3 3.3 0 0 1-1.197.204m4.973-.068a.74.74 0 0 1-.542-.226.74.74 0 0 1-.225-.54q0-.317.225-.542a.74.74 0 0 1 .542-.226q.315 0 .541.226a.74.74 0 0 1 .226.541q0 .21-.107.384a.8.8 0 0 1-.277.28.73.73 0 0 1-.383.103m3.304 0a.74.74 0 0 1-.541-.226.74.74 0 0 1-.226-.54q0-.317.226-.542a.74.74 0 0 1 .541-.226q.316 0 .541.226.226.225.226.541 0 .21-.106.384a.8.8 0 0 1-.277.28.73.73 0 0 1-.384.103m3.305 0a.74.74 0 0 1-.541-.226.74.74 0 0 1-.226-.54q0-.317.226-.542a.74.74 0 0 1 .541-.226q.316 0 .541.226.226.225.226.541 0 .21-.107.384a.8.8 0 0 1-.277.28.73.73 0 0 1-.383.103" opacity=".64"/></svg>