<svg xmlns="http://www.w3.org/2000/svg" width="364" height="330" fill="none" viewBox="0 0 364 330"><rect width="342.26" height="189.26" x="9.37" y="111.37" fill="#f9fafb" rx="9.096"/><rect width="342.26" height="189.26" x="9.37" y="111.37" stroke="#fff" stroke-width="1.26" rx="9.096"/><g opacity=".78"><path fill="#9ca3af" d="M21.345 124.078c.433 0 .846.256 1.083.63.216.394.216.887 0 1.261-.237.394-.65.63-1.084.63a1.28 1.28 0 0 1-1.103-.63 1.3 1.3 0 0 1 0-1.261c.237-.374.65-.63 1.104-.63m2.363.788h5.987c.256 0 .473.216.473.472a.467.467 0 0 1-.473.473h-5.987a.455.455 0 0 1-.473-.473c0-.256.197-.472.473-.472m0 3.151h5.987a.48.48 0 0 1 .473.473.466.466 0 0 1-.473.472h-5.987a.455.455 0 0 1-.473-.472c0-.256.197-.473.473-.473m0 3.151h5.987a.48.48 0 0 1 .473.473.467.467 0 0 1-.473.473h-5.987a.455.455 0 0 1-.473-.473c0-.256.197-.473.473-.473m-2.363-2.206a.466.466 0 0 0 .472-.472.48.48 0 0 0-.473-.473.467.467 0 0 0-.472.473c0 .275.197.472.473.472m0-1.733c.433 0 .846.256 1.083.63.216.394.216.887 0 1.261-.237.394-.65.63-1.084.63a1.28 1.28 0 0 1-1.103-.63 1.3 1.3 0 0 1 0-1.261c.237-.374.65-.63 1.104-.63m-.473 4.412c0 .276.197.473.473.473a.467.467 0 0 0 .472-.473.48.48 0 0 0-.473-.473.467.467 0 0 0-.472.473m1.733 0c0 .453-.256.867-.63 1.103a1.3 1.3 0 0 1-1.26 0 1.28 1.28 0 0 1-.631-1.103c0-.433.236-.847.63-1.083a1.3 1.3 0 0 1 1.26 0c.375.236.631.65.631 1.083"/><path fill="#6b7280" d="M36.706 124.981v-.937h6.545v.937h-2.744v7.79H39.45v-7.79zm9.75 7.927q-.887 0-1.556-.422a2.87 2.87 0 0 1-1.04-1.181q-.37-.758-.37-1.772 0-1.023.37-1.786a2.87 2.87 0 0 1 1.04-1.185q.67-.421 1.556-.421.885 0 1.55.421a2.83 2.83 0 0 1 1.04 1.185q.375.763.375 1.786 0 1.014-.375 1.772a2.83 2.83 0 0 1-1.04 1.181q-.665.422-1.55.422m0-.904q.673 0 1.107-.345.435-.345.644-.908.21-.562.209-1.218 0-.657-.21-1.223a2.06 2.06 0 0 0-.643-.917q-.435-.35-1.108-.349-.673 0-1.107.349-.435.35-.644.917-.21.566-.209 1.223 0 .655.21 1.218.208.563.643.908t1.108.345m8.25-3.443v.938h-3.818v-.938zm4.242 4.347a2.56 2.56 0 0 1-1.445-.414q-.626-.417-.98-1.176-.354-.762-.354-1.802 0-1.032.354-1.79.354-.76.984-1.172.63-.413 1.458-.413.639 0 1.01.213.375.209.57.477.201.264.312.435h.085v-3.222h1.006v8.727h-.972v-1.005h-.12a7 7 0 0 1-.315.451q-.204.269-.583.482-.38.209-1.01.209m.136-.904q.604 0 1.023-.315.417-.32.635-.882a3.6 3.6 0 0 0 .217-1.308q0-.734-.213-1.283a1.87 1.87 0 0 0-.63-.861q-.42-.31-1.032-.311-.639 0-1.065.328-.422.324-.635.882a3.5 3.5 0 0 0-.209 1.245q0 .698.213 1.269.217.567.64.904.425.332 1.056.332m7.504.904q-.886 0-1.555-.422a2.87 2.87 0 0 1-1.04-1.181q-.37-.758-.37-1.772 0-1.023.37-1.786a2.87 2.87 0 0 1 1.04-1.185q.669-.421 1.555-.421t1.552.421a2.83 2.83 0 0 1 1.04 1.185q.374.763.374 1.786 0 1.014-.375 1.772a2.83 2.83 0 0 1-1.04 1.181q-.665.422-1.55.422m0-.904q.675 0 1.108-.345.435-.345.644-.908.209-.562.209-1.218 0-.657-.21-1.223a2.06 2.06 0 0 0-.643-.917q-.435-.35-1.108-.349-.672 0-1.108.349-.435.35-.643.917-.21.566-.209 1.223 0 .655.209 1.218.21.563.643.908.436.345 1.108.345m9.138-4.312-.904.255a1.7 1.7 0 0 0-.251-.439 1.2 1.2 0 0 0-.443-.357q-.282-.141-.72-.141-.601 0-1.002.277-.396.273-.396.694 0 .375.273.593.272.217.852.362l.971.239q.879.213 1.309.652.43.434.43 1.12 0 .563-.324 1.006-.32.443-.895.699t-1.338.256q-1.001 0-1.657-.435t-.831-1.27l.954-.239q.137.53.516.793.383.264 1.001.264.703 0 1.117-.298.417-.303.417-.724a.76.76 0 0 0-.238-.572q-.24-.234-.733-.349l-1.091-.256q-.9-.213-1.321-.66-.418-.452-.418-1.129 0-.554.311-.981.315-.426.857-.669a3 3 0 0 1 1.236-.242q.971 0 1.525.426.558.426.793 1.125" opacity=".7"/><path fill="#9ca3af" d="M87.06 132.891q-.75 0-1.352-.299a2.5 2.5 0 0 1-.962-.818 2.23 2.23 0 0 1-.397-1.185h1.023q.06.593.537.981.48.383 1.15.383.538 0 .955-.251.422-.252.66-.691.243-.443.243-1.001 0-.571-.251-1.019a1.84 1.84 0 0 0-.682-.711 1.9 1.9 0 0 0-.993-.264 2.7 2.7 0 0 0-.822.123 2.3 2.3 0 0 0-.695.32l-.989-.12.529-4.295h4.534v.937H85.9l-.306 2.574h.05a2.3 2.3 0 0 1 .674-.353q.405-.141.844-.141.801 0 1.427.384.63.378.989 1.039.362.66.362 1.509 0 .835-.375 1.491a2.74 2.74 0 0 1-1.023 1.032 2.9 2.9 0 0 1-1.483.375" opacity=".9"/></g><path fill="#9ca3af" d="M20.084 154.614c0-2.256 1.19-4.34 3.175-5.481a6.32 6.32 0 0 1 6.349 0 6.36 6.36 0 0 1 3.174 5.481 6.36 6.36 0 0 1-3.174 5.506 6.32 6.32 0 0 1-6.35 0 6.31 6.31 0 0 1-3.174-5.506m6.969 3.2 2.778-2.778c.223-.223.223-.595 0-.843l-2.778-2.753c-.248-.248-.62-.248-.843 0a.543.543 0 0 0 0 .818l1.76 1.761h-4.513a.59.59 0 0 0-.595.595c0 .348.248.596.595.596l4.514.024-1.761 1.761a.544.544 0 0 0 0 .819c.223.248.595.248.843 0"/><rect width="124.79" height="7.563" x="43.168" y="151.095" fill="#9ca3af" rx="3.782"/><path fill="#f3f4f6" d="M31.592 180.74c0-1.835-.992-3.521-2.58-4.464a5.18 5.18 0 0 0-5.158 0 5.16 5.16 0 0 0-2.58 4.464c0 1.86.968 3.547 2.58 4.489a5.18 5.18 0 0 0 5.158 0c1.588-.942 2.58-2.629 2.58-4.489m-11.508 0c0-2.256 1.19-4.34 3.175-5.481a6.32 6.32 0 0 1 6.349 0 6.36 6.36 0 0 1 3.174 5.481 6.36 6.36 0 0 1-3.174 5.506 6.32 6.32 0 0 1-6.35 0 6.31 6.31 0 0 1-3.174-5.506"/><rect width="219.328" height="7.563" x="43.168" y="177.221" fill="#f3f4f6" rx="3.782"/><g fill="#fff" opacity=".58"><path d="M31.592 206.867c0-1.836-.992-3.522-2.58-4.465a5.18 5.18 0 0 0-5.158 0 5.16 5.16 0 0 0-2.58 4.465c0 1.86.968 3.546 2.58 4.489a5.18 5.18 0 0 0 5.158 0c1.588-.943 2.58-2.629 2.58-4.489m-11.508 0a6.3 6.3 0 0 1 3.175-5.481 6.32 6.32 0 0 1 6.349 0 6.35 6.35 0 0 1 3.174 5.481 6.36 6.36 0 0 1-3.174 5.505 6.32 6.32 0 0 1-6.35 0 6.31 6.31 0 0 1-3.174-5.505"/><rect width="148.74" height="7.563" x="43.168" y="203.347" rx="3.782"/></g><g fill="#fff" opacity=".4"><path d="M31.592 232.993c0-1.836-.992-3.522-2.58-4.465a5.18 5.18 0 0 0-5.158 0 5.16 5.16 0 0 0-2.58 4.465c0 1.86.968 3.546 2.58 4.489a5.18 5.18 0 0 0 5.158 0c1.588-.943 2.58-2.629 2.58-4.489m-11.508 0a6.3 6.3 0 0 1 3.175-5.481 6.32 6.32 0 0 1 6.349 0 6.35 6.35 0 0 1 3.174 5.481 6.36 6.36 0 0 1-3.174 5.505 6.32 6.32 0 0 1-6.35 0 6.31 6.31 0 0 1-3.174-5.505"/><rect width="124.79" height="7.563" x="43.168" y="229.473" rx="3.782"/></g><g fill="#fff" opacity=".4"><path d="M31.592 259.119c0-1.836-.992-3.522-2.58-4.465a5.18 5.18 0 0 0-5.158 0 5.16 5.16 0 0 0-2.58 4.465c0 1.86.968 3.546 2.58 4.489a5.18 5.18 0 0 0 5.158 0c1.588-.943 2.58-2.629 2.58-4.489m-11.508 0a6.3 6.3 0 0 1 3.175-5.481 6.32 6.32 0 0 1 6.349 0 6.35 6.35 0 0 1 3.174 5.481 6.36 6.36 0 0 1-3.174 5.505 6.32 6.32 0 0 1-6.35 0 6.31 6.31 0 0 1-3.174-5.505"/><rect width="99.58" height="7.563" x="43.168" y="255.599" rx="3.782"/><rect width="127.311" height="7.563" x="152.832" y="255.599" rx="3.782"/></g><g opacity=".4"><path fill="#9ca3af" d="M31.592 285.245c0-1.836-.992-3.522-2.58-4.465a5.18 5.18 0 0 0-5.158 0 5.16 5.16 0 0 0-2.58 4.465c0 1.86.968 3.546 2.58 4.489a5.18 5.18 0 0 0 5.158 0c1.588-.943 2.58-2.629 2.58-4.489m-11.508 0a6.3 6.3 0 0 1 3.175-5.481 6.32 6.32 0 0 1 6.349 0 6.35 6.35 0 0 1 3.174 5.481 6.36 6.36 0 0 1-3.174 5.505 6.32 6.32 0 0 1-6.35 0 6.31 6.31 0 0 1-3.174-5.505"/><rect width="124.79" height="7.563" x="43.168" y="281.725" fill="#fff" rx="3.782"/></g><rect width="342" height="98.727" x="9.5" y="196.773" fill="#fff" rx="8.965"/><rect width="342" height="98.727" x="9.5" y="196.773" stroke="#14b8a6" rx="8.965"/><path fill="#111827" d="M30.376 217.358v14.353h-.853v-14.353z"/><path fill="#9ca3af" d="M32.972 228.898v-8.727h2.949q1.022 0 1.679.349.656.345.971.951.316.605.316 1.376t-.316 1.368-.967.937q-.652.337-1.666.337H33.55v-.954h2.353q.698 0 1.125-.205.43-.204.622-.58.195-.379.196-.903 0-.524-.196-.916a1.34 1.34 0 0 0-.627-.605q-.43-.218-1.137-.218h-1.858v7.79zm4.108-3.92 2.148 3.92H38l-2.113-3.92zm6.105 4.057q-.945 0-1.632-.418a2.8 2.8 0 0 1-1.052-1.176q-.367-.759-.367-1.764 0-1.006.367-1.773.37-.771 1.03-1.202.666-.435 1.552-.434.511 0 1.01.17.498.17.908.554.408.38.652 1.006.242.626.242 1.542v.426H40.85v-.869h4.023a2.15 2.15 0 0 0-.222-.989 1.7 1.7 0 0 0-.622-.686 1.75 1.75 0 0 0-.946-.251q-.6 0-1.04.298-.434.294-.669.767a2.26 2.26 0 0 0-.234 1.014v.58q0 .741.255 1.257.261.512.72.78.46.264 1.07.264.396 0 .716-.111.324-.114.558-.341.235-.23.363-.571l.971.273q-.153.495-.515.869a2.5 2.5 0 0 1-.895.58 3.3 3.3 0 0 1-1.198.205m4.24-6.682h1.006v7.022q0 .606-.209 1.049a1.5 1.5 0 0 1-.622.686q-.413.243-1.044.243h-.204v-.938h.187q.46 0 .673-.272.213-.268.213-.768zm.495-1.091a.72.72 0 0 1-.507-.2.64.64 0 0 1-.21-.482q0-.28.21-.482a.72.72 0 0 1 .507-.2q.294 0 .502.2a.64.64 0 0 1 .214.482.64.64 0 0 1-.214.482.7.7 0 0 1-.502.2m5.097 7.773q-.945 0-1.632-.418a2.8 2.8 0 0 1-1.052-1.176q-.367-.759-.367-1.764 0-1.006.367-1.773.37-.771 1.03-1.202.666-.435 1.552-.434.511 0 1.01.17.498.17.908.554.409.38.652 1.006.242.626.242 1.542v.426h-5.045v-.869h4.023a2.15 2.15 0 0 0-.222-.989 1.7 1.7 0 0 0-.622-.686 1.75 1.75 0 0 0-.946-.251q-.6 0-1.04.298-.435.294-.669.767a2.26 2.26 0 0 0-.234 1.014v.58q0 .741.255 1.257.261.512.72.78.46.264 1.07.264.396 0 .716-.111.324-.114.559-.341.234-.23.362-.571l.971.273a2.15 2.15 0 0 1-.515.869 2.5 2.5 0 0 1-.895.58 3.3 3.3 0 0 1-1.198.205m6.9 0q-.921 0-1.586-.435a2.83 2.83 0 0 1-1.023-1.198q-.357-.762-.357-1.742 0-.998.366-1.76.37-.768 1.031-1.198.665-.435 1.551-.434.69 0 1.245.255.555.256.907.716.354.46.44 1.074h-1.006a1.56 1.56 0 0 0-.512-.793q-.392-.35-1.056-.349-.589 0-1.032.307a2 2 0 0 0-.686.856q-.243.55-.243 1.291 0 .759.239 1.321.243.563.682.874.443.31 1.04.311.39 0 .711-.136.32-.137.541-.392.222-.256.316-.614h1.005a2.3 2.3 0 0 1-.422 1.044 2.36 2.36 0 0 1-.882.733q-.545.269-1.27.269m6.89-6.682v.852h-3.392v-.852zm-2.403-1.568h1.005v6.238q0 .426.124.639.127.21.324.282.2.068.422.068.165 0 .272-.017l.17-.034.205.903a2.1 2.1 0 0 1-.75.119q-.426 0-.835-.183a1.66 1.66 0 0 1-.673-.558q-.264-.375-.264-.946zm5.416 6.92-.068.46a9 9 0 0 1-.222 1.04q-.145.553-.302 1.044-.158.49-.26.78H68.2l.144-.72a27 27 0 0 0 .333-2.127l.051-.477zm9.875-3.886-.904.255a1.7 1.7 0 0 0-.251-.439 1.2 1.2 0 0 0-.444-.358q-.28-.14-.72-.14-.6 0-1.001.277-.396.273-.396.694 0 .375.272.593.273.217.853.362l.971.239q.878.213 1.308.652.43.434.43 1.12 0 .563-.323 1.006a2.16 2.16 0 0 1-.895.699q-.575.256-1.338.256-1.002 0-1.658-.435t-.83-1.27l.954-.239q.136.53.516.793.383.264 1.001.264.703 0 1.116-.298.418-.303.418-.725a.76.76 0 0 0-.239-.571q-.238-.234-.733-.349l-1.09-.256q-.9-.213-1.322-.66-.417-.452-.417-1.129 0-.554.311-.981.315-.426.856-.669a3 3 0 0 1 1.236-.242q.972 0 1.526.426.558.426.793 1.125m5.758 2.403v-3.869h1.005v6.545h-1.005v-1.108h-.069a2.14 2.14 0 0 1-.715.848q-.486.345-1.228.345-.613 0-1.09-.268a1.9 1.9 0 0 1-.75-.818q-.273-.55-.273-1.385v-4.159h1.005v4.091q0 .716.4 1.142.406.426 1.032.426.375 0 .763-.192.392-.192.656-.588.27-.396.269-1.01m5.49 5.267q-.729 0-1.254-.187a2.7 2.7 0 0 1-.873-.486 2.7 2.7 0 0 1-.55-.639l.801-.563q.136.179.346.409.21.234.57.405.367.175.96.175.792 0 1.308-.384.515-.383.515-1.201v-1.33h-.085a6 6 0 0 1-.315.443 1.8 1.8 0 0 1-.58.465q-.375.2-1.014.2a2.73 2.73 0 0 1-1.423-.375 2.63 2.63 0 0 1-.993-1.091q-.362-.716-.362-1.739 0-1.005.353-1.751.354-.75.985-1.159.63-.414 1.457-.413.639 0 1.014.213.38.209.58.477.204.264.315.435h.102v-1.04h.972v6.733q0 .844-.384 1.372a2.2 2.2 0 0 1-1.022.78q-.64.25-1.424.251m-.035-3.596q.606 0 1.023-.277.417-.278.635-.797.217-.52.217-1.245a3.4 3.4 0 0 0-.213-1.248 1.87 1.87 0 0 0-.63-.848q-.419-.307-1.032-.307-.639 0-1.065.324a1.97 1.97 0 0 0-.635.869q-.21.546-.209 1.21 0 .683.213 1.206.217.52.64.818.426.295 1.056.295m7.347 3.596q-.729 0-1.253-.187a2.7 2.7 0 0 1-.873-.486 2.7 2.7 0 0 1-.55-.639l.8-.563q.138.179.346.409.21.234.571.405.366.175.959.175.792 0 1.308-.384.516-.383.516-1.201v-1.33h-.085a6 6 0 0 1-.316.443 1.8 1.8 0 0 1-.58.465q-.374.2-1.014.2a2.73 2.73 0 0 1-1.423-.375 2.63 2.63 0 0 1-.993-1.091q-.362-.716-.362-1.739 0-1.005.354-1.751.354-.75.984-1.159.63-.414 1.457-.413.64 0 1.015.213.379.209.58.477.203.264.315.435h.102v-1.04h.971v6.733q0 .844-.383 1.372a2.2 2.2 0 0 1-1.023.78q-.639.25-1.423.251m-.034-3.596q.605 0 1.022-.277.418-.278.636-.797.216-.52.217-1.245 0-.707-.213-1.248a1.87 1.87 0 0 0-.631-.848q-.417-.307-1.031-.307-.64 0-1.065.324a1.97 1.97 0 0 0-.636.869q-.208.546-.208 1.21 0 .683.213 1.206.218.52.639.818.426.295 1.057.295m7.449 1.142q-.947 0-1.632-.418a2.8 2.8 0 0 1-1.053-1.176q-.366-.759-.366-1.764 0-1.006.366-1.773a2.9 2.9 0 0 1 1.031-1.202q.664-.435 1.551-.434.512 0 1.01.17.499.17.908.554.41.38.652 1.006t.243 1.542v.426h-5.046v-.869h4.023q0-.554-.221-.989a1.7 1.7 0 0 0-.623-.686 1.75 1.75 0 0 0-.946-.251q-.6 0-1.039.298a1.96 1.96 0 0 0-.669.767 2.25 2.25 0 0 0-.235 1.014v.58q0 .741.256 1.257.26.512.72.78.46.264 1.07.264.395 0 .716-.111.323-.114.558-.341a1.54 1.54 0 0 0 .362-.571l.972.273q-.154.495-.516.869-.362.372-.895.58a3.3 3.3 0 0 1-1.197.205m8.876-5.216-.903.255a1.7 1.7 0 0 0-.252-.439 1.2 1.2 0 0 0-.443-.358q-.28-.14-.72-.14-.6 0-1.002.277-.396.273-.396.694 0 .375.273.593t.852.362l.972.239q.877.213 1.308.652.43.434.43 1.12 0 .563-.323 1.006a2.17 2.17 0 0 1-.895.699q-.576.256-1.338.256-1.002 0-1.658-.435-.657-.435-.831-1.27l.954-.239q.136.53.516.793.384.264 1.002.264.702 0 1.116-.298.418-.303.418-.725a.76.76 0 0 0-.239-.571q-.238-.234-.733-.349l-1.091-.256q-.899-.213-1.321-.66-.418-.452-.418-1.129 0-.554.312-.981.315-.426.856-.669a3 3 0 0 1 1.236-.242q.972 0 1.525.426.56.426.793 1.125m4.48-1.466v.852h-3.392v-.852zm-2.404-1.568h1.006v6.238q0 .426.124.639a.64.64 0 0 0 .324.282q.2.068.421.068.166 0 .273-.017l.171-.034.204.903a2.1 2.1 0 0 1-.75.119q-.426 0-.835-.183a1.66 1.66 0 0 1-.673-.558q-.265-.375-.265-.946zm5.417 6.92-.069.46a9 9 0 0 1-.221 1.04q-.145.553-.303 1.044a27 27 0 0 1-.26.78h-.767l.145-.72q.09-.448.179-1.002.094-.549.154-1.125l.051-.477zm8.153-5.352v.852h-3.529v-.852zm-2.472 6.545v-7.449q0-.562.264-.937t.686-.563a2.2 2.2 0 0 1 .891-.187q.37 0 .605.059.234.06.35.111l-.29.87a4 4 0 0 0-.213-.064 1.3 1.3 0 0 0-.35-.039q-.498 0-.72.252-.217.25-.217.737v7.21zm6.271.137q-.887 0-1.556-.422a2.87 2.87 0 0 1-1.039-1.181q-.371-.758-.371-1.772 0-1.023.371-1.786.375-.762 1.039-1.185.67-.421 1.556-.421.887 0 1.551.421.669.423 1.04 1.185.375.763.375 1.786 0 1.014-.375 1.772a2.84 2.84 0 0 1-1.04 1.181q-.665.422-1.551.422m0-.904q.673 0 1.108-.345.434-.345.643-.908.209-.562.209-1.218 0-.657-.209-1.223a2.07 2.07 0 0 0-.643-.917q-.435-.35-1.108-.349-.674 0-1.108.349a2.06 2.06 0 0 0-.644.917 3.5 3.5 0 0 0-.209 1.223q0 .656.209 1.218.209.563.644.908.434.345 1.108.345m5.506-7.96v8.727h-1.005v-8.727zm2.848 0v8.727h-1.006v-8.727zm4.501 8.864q-.886 0-1.555-.422a2.87 2.87 0 0 1-1.04-1.181q-.37-.758-.371-1.772 0-1.023.371-1.786.375-.762 1.04-1.185.669-.421 1.555-.421.887 0 1.551.421a2.83 2.83 0 0 1 1.04 1.185q.375.763.375 1.786 0 1.014-.375 1.772a2.83 2.83 0 0 1-1.04 1.181q-.665.422-1.551.422m0-.904q.673 0 1.108-.345.434-.345.644-.908.208-.562.208-1.218a3.5 3.5 0 0 0-.208-1.223 2.07 2.07 0 0 0-.644-.917q-.435-.35-1.108-.349-.673 0-1.108.349-.435.35-.643.917a3.5 3.5 0 0 0-.209 1.223q0 .656.209 1.218.208.563.643.908t1.108.345m5.762.767-1.995-6.545h1.057l1.415 5.011h.068l1.398-5.011h1.074l1.38 4.994h.068l1.415-4.994h1.057l-1.994 6.545h-.989l-1.432-5.028h-.102l-1.432 5.028zm15.767-2.676v-3.869h1.005v6.545h-1.005v-1.108h-.069a2.14 2.14 0 0 1-.716.848q-.484.345-1.227.345-.614 0-1.091-.268a1.9 1.9 0 0 1-.75-.818q-.272-.55-.272-1.385v-4.159h1.005v4.091q0 .716.401 1.142.404.426 1.031.426.375 0 .763-.192.392-.192.656-.588.269-.396.269-1.01m2.847 5.131v-9h.972v1.04h.119q.11-.171.307-.435a1.8 1.8 0 0 1 .571-.477q.375-.213 1.014-.213.827 0 1.458.413.63.413.984 1.172t.354 1.79q0 1.04-.354 1.802-.354.759-.98 1.176a2.56 2.56 0 0 1-1.445.414q-.63 0-1.01-.209a1.9 1.9 0 0 1-.584-.482 7 7 0 0 1-.315-.451h-.085v3.46zm.989-5.728q0 .742.217 1.309.218.563.635.882.418.315 1.023.315.63 0 1.052-.332.426-.337.64-.904.216-.57.217-1.27 0-.69-.213-1.244a1.9 1.9 0 0 0-.635-.882q-.422-.328-1.061-.328-.614 0-1.031.311a1.86 1.86 0 0 0-.631.861q-.213.55-.213 1.282m7.057 3.341a.74.74 0 0 1-.542-.225.74.74 0 0 1-.225-.542q0-.315.225-.541a.74.74 0 0 1 .542-.226q.315 0 .541.226t.226.541q0 .21-.107.384a.8.8 0 0 1-.277.281.73.73 0 0 1-.383.102m3.304 0a.74.74 0 0 1-.541-.225.74.74 0 0 1-.226-.542q0-.315.226-.541a.74.74 0 0 1 .541-.226q.316 0 .542.226a.74.74 0 0 1 .225.541q0 .21-.106.384a.8.8 0 0 1-.277.281.74.74 0 0 1-.384.102m3.305 0a.74.74 0 0 1-.541-.225.74.74 0 0 1-.226-.542q0-.315.226-.541a.74.74 0 0 1 .541-.226.74.74 0 0 1 .541.226.74.74 0 0 1 .226.541q0 .21-.106.384a.8.8 0 0 1-.277.281.74.74 0 0 1-.384.102"/><rect width="72.881" height="27.351" x="27.989" y="248.024" fill="#fff" rx="5.25"/><path fill="#9ca3af" d="M34.315 261.764a2.32 2.32 0 0 1 2.308-2.324c.638 0 1.243.278 1.685.737l1.243 1.309 1.227-1.309a2.35 2.35 0 0 1 1.686-.737 2.33 2.33 0 0 1 2.323 2.324v.605a2.32 2.32 0 0 1-2.323 2.307 2.34 2.34 0 0 1-1.686-.72l-1.227-1.325-1.243 1.325a2.34 2.34 0 0 1-1.685.72 2.304 2.304 0 0 1-2.308-2.307zm4.696.294-1.276-1.341a1.53 1.53 0 0 0-1.112-.491c-.851 0-1.522.687-1.522 1.538v.605c0 .851.67 1.522 1.522 1.522a1.5 1.5 0 0 0 1.112-.475zm1.064 0 1.276 1.358c.294.311.687.475 1.113.475.85 0 1.538-.671 1.538-1.522v-.605c0-.851-.687-1.538-1.538-1.538-.41 0-.819.18-1.113.491l-1.26 1.341z"/><path fill="#6b7280" d="M50.345 265.7h-1.108l3.204-8.728h1.091l3.205 8.728h-1.108l-2.608-7.347h-.069zm.409-3.409h4.465v.937h-4.465zm9.848 6q-.73 0-1.253-.188a2.7 2.7 0 0 1-.874-.486 2.7 2.7 0 0 1-.55-.639l.802-.562q.136.178.345.409.21.234.57.405.367.174.96.174.792 0 1.308-.383.515-.384.515-1.202v-1.33h-.085q-.111.18-.315.444a1.8 1.8 0 0 1-.58.464q-.375.2-1.014.2a2.73 2.73 0 0 1-1.423-.375 2.63 2.63 0 0 1-.993-1.09q-.362-.717-.362-1.739 0-1.006.353-1.752.354-.75.985-1.159.63-.413 1.457-.413.639 0 1.014.213.38.209.58.477.204.265.315.435h.102v-1.04h.972v6.733q0 .844-.383 1.372a2.2 2.2 0 0 1-1.023.78q-.639.252-1.423.252m-.034-3.597q.605 0 1.022-.277t.635-.797.218-1.244q0-.708-.214-1.249a1.87 1.87 0 0 0-.63-.848q-.418-.307-1.031-.307-.64 0-1.066.324a1.97 1.97 0 0 0-.635.87q-.209.545-.209 1.21 0 .681.213 1.206.217.52.64.818.426.294 1.056.294m7.448 1.142q-.945 0-1.632-.418a2.8 2.8 0 0 1-1.052-1.176q-.367-.757-.367-1.764 0-1.005.367-1.773a2.9 2.9 0 0 1 1.03-1.201q.666-.435 1.552-.435.512 0 1.01.17.498.171.908.554.408.38.652 1.006.243.627.243 1.543v.426H65.68v-.869h4.023q0-.555-.222-.989a1.66 1.66 0 0 0-.622-.686 1.74 1.74 0 0 0-.946-.252q-.6 0-1.04.299-.434.294-.669.767a2.25 2.25 0 0 0-.234 1.014v.58q0 .741.256 1.257.26.511.72.779.46.265 1.07.265.396 0 .715-.111a1.5 1.5 0 0 0 .558-.341q.235-.23.363-.571l.971.273a2.16 2.16 0 0 1-.515.869q-.363.37-.895.58a3.3 3.3 0 0 1-1.198.204m5.246-4.074v3.938h-1.006v-6.546h.972v1.023h.085q.23-.498.7-.801.468-.307 1.21-.307.663 0 1.163.273.498.268.775.818.277.546.277 1.381v4.159h-1.005v-4.091q0-.771-.401-1.202-.4-.435-1.1-.435-.48 0-.86.209-.375.209-.593.61-.217.4-.217.971m8.86-2.608v.853H78.73v-.853zm-2.403-1.568h1.006v6.239q0 .426.123.639a.64.64 0 0 0 .324.281q.2.068.422.068.166 0 .273-.017l.17-.034.205.904a2 2 0 0 1-.286.076 2 2 0 0 1-.464.043q-.427 0-.835-.183a1.66 1.66 0 0 1-.674-.559q-.264-.375-.264-.946z"/><path fill="#9ca3af" d="M89.932 260.209a.386.386 0 0 1 .54 0l2.634 2.618a.406.406 0 0 1 0 .557c-.164.163-.409.163-.556 0l-2.34-2.34-2.34 2.34c-.163.163-.409.163-.556 0a.358.358 0 0 1 0-.54z"/><path fill="#6b7280" d="M117.435 265.7h-1.108l3.205-8.728h1.091l3.204 8.728h-1.108l-2.608-7.347h-.068zm.409-3.409h4.466v.937h-4.466zm11.331.733v-3.87h1.006v6.546h-1.006v-1.108h-.068a2.15 2.15 0 0 1-.716.848q-.486.345-1.227.345-.614 0-1.091-.269a1.87 1.87 0 0 1-.75-.818q-.273-.55-.273-1.385v-4.159h1.006v4.091q0 .716.401 1.142.404.426 1.031.426.375 0 .763-.191.392-.192.656-.588.268-.397.268-1.01m5.695-3.87v.853h-3.392v-.853zm-2.404-1.568h1.006v6.239q0 .426.123.639a.65.65 0 0 0 .324.281q.2.068.422.068.166 0 .273-.017l.17-.034.205.904a2 2 0 0 1-.286.076 2 2 0 0 1-.464.043q-.427 0-.835-.183a1.66 1.66 0 0 1-.674-.559q-.264-.375-.264-.946zm6.505 8.25q-.886 0-1.555-.422a2.87 2.87 0 0 1-1.04-1.18q-.37-.759-.371-1.773 0-1.023.371-1.785.375-.763 1.04-1.185.669-.422 1.555-.422.887 0 1.551.422.67.422 1.04 1.185.375.762.375 1.785 0 1.014-.375 1.773a2.83 2.83 0 0 1-1.04 1.18q-.665.422-1.551.422m0-.903q.673 0 1.108-.346.434-.345.644-.907.208-.562.208-1.219 0-.656-.208-1.223a2.07 2.07 0 0 0-.644-.916q-.435-.35-1.108-.35t-1.108.35-.643.916a3.5 3.5 0 0 0-.209 1.223q0 .657.209 1.219.208.562.643.907.435.346 1.108.346m11.051-4.724a.386.386 0 0 1 .54 0l2.634 2.618a.407.407 0 0 1 0 .557c-.164.163-.409.163-.556 0l-2.34-2.34-2.34 2.34c-.164.163-.409.163-.556 0a.358.358 0 0 1 0-.54z"/><circle cx="215.812" cy="261.699" r="6.303" stroke="#9ca3af" stroke-width="1.26"/><path stroke="#6b7280" stroke-linecap="round" stroke-width="1.26" d="M222.115 261.699a6.303 6.303 0 0 0-6.303-6.302"/><path fill="#6b7280" d="M241.005 255.986c-3.045 0-5.5 2.48-5.5 5.5a5.49 5.49 0 0 0 5.5 5.499c.196 0 .393.196.393.393a.404.404 0 0 1-.393.393 6.266 6.266 0 0 1-6.285-6.285 6.28 6.28 0 0 1 6.285-6.285c3.461 0 6.285 2.823 6.285 6.285v.589c0 1.203-.982 2.16-2.161 2.16a2.14 2.14 0 0 1-1.915-1.129 2.71 2.71 0 0 1-2.209 1.129 2.745 2.745 0 0 1-2.75-2.749 2.76 2.76 0 0 1 2.75-2.75c.761 0 1.448.319 1.964.835v-.049c0-.197.172-.393.393-.393.196 0 .392.196.392.393v2.553c0 .761.614 1.375 1.375 1.375.737 0 1.375-.614 1.375-1.375v-.589c0-3.02-2.48-5.5-5.499-5.5m1.964 5.5c0-.688-.393-1.326-.982-1.694a2 2 0 0 0-1.964 0 1.98 1.98 0 0 0-.982 1.694c0 .712.368 1.35.982 1.718.589.344 1.35.344 1.964 0 .589-.368.982-1.006.982-1.718m23.641 5.499c.393 0 .982-.344 1.498-1.399a7.7 7.7 0 0 0 .614-1.743h-4.223a6.6 6.6 0 0 0 .589 1.743c.516 1.055 1.105 1.399 1.522 1.399m-2.258-3.928h4.492a10.4 10.4 0 0 0 .123-1.571c0-.54-.049-1.056-.123-1.572h-4.492a11 11 0 0 0-.099 1.572c0 .564.025 1.08.099 1.571m.147-3.928h4.223a7.5 7.5 0 0 0-.614-1.719c-.516-1.055-1.105-1.424-1.498-1.424-.417 0-1.006.369-1.522 1.424a6.5 6.5 0 0 0-.589 1.719m5.155.785c.05.516.099 1.032.099 1.572 0 .564-.049 1.08-.099 1.571h2.21a5.4 5.4 0 0 0 .246-1.571c0-.54-.099-1.056-.246-1.572zm1.915-.785a5.58 5.58 0 0 0-3.216-2.848c.516.687.933 1.694 1.154 2.848zm-7.88 0c.245-1.154.638-2.161 1.154-2.848a5.6 5.6 0 0 0-3.217 2.848zm-2.357.785a5.6 5.6 0 0 0-.221 1.572c0 .564.073 1.08.221 1.571h2.234a10.5 10.5 0 0 1-.098-1.571c0-.54.024-1.056.098-1.572zm7.021 6.801a5.54 5.54 0 0 0 3.216-2.872h-2.062c-.221 1.178-.638 2.16-1.154 2.872m-3.51 0c-.516-.712-.909-1.694-1.154-2.872h-2.063a5.55 5.55 0 0 0 3.217 2.872m1.767 1.056a6.25 6.25 0 0 1-5.45-3.143 6.26 6.26 0 0 1 0-6.285 6.3 6.3 0 0 1 5.45-3.142 6.29 6.29 0 0 1 5.426 3.142 6.26 6.26 0 0 1 0 6.285 6.24 6.24 0 0 1-5.426 3.143m20.891-10.999a.79.79 0 0 0-.786.786v5.744l1.645-1.669a1.026 1.026 0 0 1 1.4 0l1.669 1.669 3.216-3.24a1.026 1.026 0 0 1 1.4 0l1.669 1.669v-4.173a.81.81 0 0 0-.786-.786zm-.786 7.635v1.007c0 .442.344.785.786.785h1.007l2.356-2.356-1.669-1.645a.19.19 0 0 0-.27 0zm8.765-3.781a.194.194 0 0 0-.27 0l-5.598 5.573h7.316a.79.79 0 0 0 .786-.785v-2.578zm-9.55-3.068c0-.86.687-1.572 1.571-1.572h9.427c.86 0 1.572.712 1.572 1.572v7.856c0 .884-.712 1.571-1.572 1.571h-9.427a1.55 1.55 0 0 1-1.571-1.571zm3.928 1.178a.42.42 0 0 0-.393-.393.404.404 0 0 0-.393.393c0 .221.172.393.393.393a.404.404 0 0 0 .393-.393m-1.571 0c0-.417.221-.786.589-1.007.343-.22.81-.22 1.178 0 .344.221.589.59.589 1.007 0 .442-.245.81-.589 1.031a1.13 1.13 0 0 1-1.178 0 1.18 1.18 0 0 1-.589-1.031"/><rect width="21.475" height="20.174" x="311.535" y="251.612" fill="#f0fdfa" rx="10.087"/><rect width="8.824" height="8.824" x="317.861" y="257.288" fill="#115e59" rx="2.521"/><rect width="309" height="44.267" y="36.649" fill="#fff" rx="5.824"/><path fill="#6b7280" d="M11.65 53.385c0-1.183.946-2.163 2.162-2.163H26.79c1.183 0 2.163.98 2.163 2.163V64.2c0 1.217-.98 2.163-2.163 2.163H13.812A2.135 2.135 0 0 1 11.65 64.2zm3.447 1.893a.837.837 0 0 0 .034 1.149l2.602 2.365-2.603 2.4a.837.837 0 0 0-.033 1.15.84.84 0 0 0 1.149.033l3.244-2.974a.8.8 0 0 0 .27-.609.77.77 0 0 0-.27-.574l-3.244-2.974c-.338-.304-.845-.304-1.15.034m4.934 6.218a.8.8 0 0 0-.811.811c0 .474.338.811.811.811h4.867a.8.8 0 0 0 .81-.81.82.82 0 0 0-.81-.812zm29.042-5.442a1.78 1.78 0 0 0-.83-1.34q-.728-.478-1.784-.478-.773 0-1.352.25a2.16 2.16 0 0 0-.898.688 1.65 1.65 0 0 0-.318.994q0 .466.221.801.228.33.58.551.352.216.738.358.387.136.71.222l1.183.318q.455.12 1.01.33.564.21 1.075.573.517.359.852.92.336.564.335 1.381 0 .944-.494 1.705-.489.761-1.432 1.21-.937.45-2.278.449-1.25 0-2.165-.403-.909-.404-1.432-1.125a3.2 3.2 0 0 1-.585-1.676h1.455q.056.659.443 1.09.391.427.988.637.603.204 1.296.204.806 0 1.449-.261.642-.267 1.017-.739.375-.478.375-1.113 0-.58-.324-.944-.324-.363-.852-.59a9 9 0 0 0-1.142-.398l-1.432-.41q-1.365-.39-2.16-1.119-.795-.726-.795-1.903 0-.977.528-1.704a3.5 3.5 0 0 1 1.432-1.137q.904-.41 2.017-.409 1.125 0 2 .403.876.4 1.387 1.091.516.694.545 1.574zm7.316 8.91q-1.26 0-2.176-.558a3.74 3.74 0 0 1-1.403-1.568q-.489-1.011-.489-2.352t.489-2.364q.495-1.028 1.375-1.602.886-.58 2.068-.58.681 0 1.346.228.666.227 1.21.739.546.506.87 1.34.324.836.324 2.057v.568h-6.727v-1.159h5.363q0-.738-.295-1.318a2.23 2.23 0 0 0-.83-.915q-.534-.335-1.261-.335-.801 0-1.386.398a2.6 2.6 0 0 0-.892 1.023q-.313.63-.313 1.352v.773q0 .988.341 1.676.346.68.96 1.04.615.352 1.426.352.529 0 .955-.148.432-.154.744-.454.313-.307.483-.762l1.296.364q-.205.659-.688 1.159-.483.494-1.193.773a4.4 4.4 0 0 1-1.597.272m9.45-8.91v1.137h-4.523v-1.137zm-3.205-2.09h1.34v8.318q0 .567.165.852.171.277.432.375.267.09.563.09.221 0 .363-.022l.228-.045.272 1.204q-.136.051-.38.102-.245.057-.62.057a2.7 2.7 0 0 1-1.113-.244 2.2 2.2 0 0 1-.898-.744q-.352-.5-.352-1.262zm15.221 7.25v-5.16h1.341v8.727h-1.34v-1.477h-.092q-.306.665-.954 1.13-.648.462-1.637.461-.818 0-1.454-.358-.636-.364-1-1.09-.364-.734-.364-1.847v-5.546h1.341v5.455q0 .954.534 1.523.54.567 1.375.568.501 0 1.017-.256.523-.256.875-.784.358-.528.358-1.347m3.797 6.84v-12h1.296v1.387h.159q.147-.228.409-.58.267-.358.761-.636.5-.284 1.352-.284 1.102 0 1.944.55.84.552 1.312 1.563t.472 2.387q0 1.386-.472 2.403-.471 1.011-1.307 1.568-.835.552-1.926.551-.841 0-1.346-.278-.506-.285-.779-.642a9 9 0 0 1-.42-.602h-.114v4.613zm1.318-7.636q0 .988.29 1.744.29.75.847 1.176.556.42 1.363.42.84 0 1.404-.442.568-.45.852-1.205.29-.762.29-1.693 0-.92-.284-1.66-.279-.743-.847-1.175-.563-.438-1.415-.438-.817 0-1.375.415-.556.409-.84 1.148-.285.732-.285 1.71m16.228 4.545q-1.092 0-1.927-.55-.835-.558-1.306-1.569-.472-1.018-.472-2.403 0-1.376.472-2.387.471-1.011 1.312-1.562.84-.551 1.943-.551.853 0 1.347.284.5.278.761.636.267.352.415.58h.114v-1.387h1.341v8.727h-1.296v-1.34h-.159a9 9 0 0 1-.42.602q-.273.358-.779.642-.506.279-1.346.278m.181-1.204q.807 0 1.364-.42.556-.427.847-1.177.29-.756.289-1.744 0-.978-.284-1.71-.283-.739-.841-1.148-.557-.415-1.375-.415-.852 0-1.42.438-.562.432-.847 1.176a4.7 4.7 0 0 0-.278 1.659q0 .931.284 1.693.29.755.852 1.205.57.443 1.41.443m11.142 1.022V53.146h3.932q1.37 0 2.239.494.875.489 1.295 1.324.421.835.421 1.864t-.421 1.87q-.414.84-1.284 1.34-.869.495-2.227.495h-2.818v-1.25h2.773q.937 0 1.505-.324.569-.324.824-.875.261-.557.261-1.256 0-.7-.261-1.25a1.86 1.86 0 0 0-.829-.864q-.575-.318-1.523-.318h-2.477v10.386zm9.975 0v-8.727h1.295v1.318h.091q.234-.647.858-1.05a2.55 2.55 0 0 1 1.415-.404q.363 0 .636.085t.478.233l-.455 1.136a1.3 1.3 0 0 0-.335-.113 2 2 0 0 0-.438-.046q-.636 0-1.136.267-.495.267-.784.728-.285.46-.284 1.05v5.523zm6.14 0v-8.727h1.341v8.727zm.682-10.181a.95.95 0 0 1-.676-.267.86.86 0 0 1-.278-.642.86.86 0 0 1 .278-.643.96.96 0 0 1 .676-.267q.392 0 .671.267a.85.85 0 0 1 .284.643q0 .375-.284.642a.93.93 0 0 1-.671.267m9.297 3.409-1.204.34a2.2 2.2 0 0 0-.336-.585 1.6 1.6 0 0 0-.591-.477q-.375-.187-.96-.187-.801 0-1.335.369-.528.363-.528.926 0 .5.363.79.364.29 1.137.483l1.295.318q1.17.285 1.744.87.574.579.574 1.494 0 .75-.432 1.34-.425.592-1.193.932-.767.341-1.784.341-1.335 0-2.21-.58-.875-.579-1.108-1.692l1.273-.319q.181.705.687 1.057.512.352 1.335.352.938 0 1.489-.397.557-.404.557-.966 0-.455-.318-.761-.318-.313-.978-.466l-1.454-.341q-1.198-.284-1.761-.881-.558-.601-.557-1.506 0-.738.414-1.306a2.8 2.8 0 0 1 1.143-.893q.727-.324 1.647-.323 1.296 0 2.034.568.745.568 1.057 1.5m2.178 6.772v-8.727h1.295v1.364h.114q.273-.7.88-1.085.609-.392 1.461-.392.863 0 1.437.392.58.386.904 1.085h.091q.334-.676 1.005-1.074.67-.403 1.608-.403 1.17 0 1.915.732.744.727.744 2.268v5.84h-1.341v-5.84q0-.966-.528-1.381a1.96 1.96 0 0 0-1.244-.415q-.92 0-1.427.557-.505.55-.505 1.398v5.681h-1.364v-5.977q0-.744-.483-1.199-.483-.46-1.244-.46-.523 0-.977.278-.45.28-.728.773a2.3 2.3 0 0 0-.272 1.13v5.455zm17.201.182q-1.09 0-1.926-.55-.835-.558-1.307-1.569-.471-1.018-.471-2.403 0-1.376.471-2.387.472-1.011 1.313-1.562t1.943-.551q.852 0 1.347.284.5.278.761.636.267.352.415.58h.114v-1.387h1.34v8.727h-1.295v-1.34h-.159a9 9 0 0 1-.421.602q-.272.358-.778.642-.506.279-1.347.278m.182-1.204q.807 0 1.364-.42.556-.427.846-1.177.29-.756.29-1.744 0-.978-.284-1.71-.284-.739-.841-1.148-.556-.415-1.375-.415-.852 0-1.42.438-.562.432-.847 1.176a4.7 4.7 0 0 0-.278 1.659q0 .931.284 1.693.29.755.852 1.205.569.443 1.409.443m11.142 1.022V53.146h3.932q1.37 0 2.239.494.875.489 1.295 1.324.421.835.421 1.864t-.421 1.87q-.414.84-1.284 1.34-.869.495-2.227.495h-2.818v-1.25h2.772q.938 0 1.506-.324t.824-.875q.261-.557.261-1.256 0-.7-.261-1.25a1.87 1.87 0 0 0-.83-.864q-.574-.318-1.522-.318h-2.478v10.386zm13.426.182q-1.181 0-2.073-.562-.886-.563-1.387-1.574-.494-1.011-.494-2.364 0-1.363.494-2.38.5-1.017 1.387-1.58.892-.562 2.073-.562t2.069.562q.891.563 1.386 1.58.5 1.017.5 2.38 0 1.353-.5 2.364-.495 1.011-1.386 1.574-.887.562-2.069.562m0-1.204q.898 0 1.478-.46.579-.46.858-1.21.278-.75.278-1.626t-.278-1.63a2.75 2.75 0 0 0-.858-1.222q-.58-.465-1.478-.466-.897 0-1.477.466-.579.465-.858 1.222a4.7 4.7 0 0 0-.278 1.63q0 .875.278 1.625.279.75.858 1.21.58.46 1.477.46m12.184-5.75-1.205.34a2.2 2.2 0 0 0-.335-.585 1.6 1.6 0 0 0-.591-.477q-.375-.187-.96-.187-.801 0-1.335.369-.53.363-.529.926 0 .5.364.79.363.29 1.136.483l1.296.318q1.17.285 1.744.87.574.579.574 1.494 0 .75-.432 1.34-.426.592-1.193.932t-1.784.341q-1.335 0-2.211-.58-.874-.579-1.108-1.692l1.273-.319q.182.705.688 1.057.512.352 1.335.352.937 0 1.489-.397.556-.404.556-.966 0-.455-.318-.761-.318-.313-.977-.466l-1.455-.341q-1.198-.284-1.761-.881-.557-.601-.557-1.506 0-.738.415-1.306.42-.57 1.142-.893.727-.324 1.648-.323 1.294 0 2.034.568.744.568 1.057 1.5m5.973-1.955v1.137h-4.523v-1.137zm-3.205-2.09h1.341v8.318q0 .567.165.852.17.277.432.375.267.09.562.09.222 0 .364-.022l.227-.045.273 1.204a3 3 0 0 1-.381.102 2.8 2.8 0 0 1-.619.057 2.7 2.7 0 0 1-1.114-.244 2.2 2.2 0 0 1-.898-.744q-.352-.5-.352-1.262zm8.651 14.272q-.972 0-1.671-.25a3.6 3.6 0 0 1-1.165-.648 3.5 3.5 0 0 1-.732-.852l1.068-.75q.181.239.46.545.279.313.761.54.489.233 1.279.233 1.056 0 1.744-.511t.688-1.602v-1.773h-.114a7 7 0 0 1-.421.59q-.267.347-.772.62-.5.267-1.353.267-1.056 0-1.897-.5-.835-.5-1.324-1.454-.483-.956-.483-2.319 0-1.34.471-2.335.472-1 1.313-1.545.841-.551 1.943-.551.852 0 1.352.284.507.278.773.636.273.352.421.58h.136v-1.387h1.295v8.977q0 1.125-.511 1.83-.506.71-1.364 1.04a5.1 5.1 0 0 1-1.897.335m-.046-4.795q.807 0 1.364-.37.556-.369.846-1.062t.29-1.66q0-.942-.284-1.664t-.841-1.13q-.556-.41-1.375-.41-.852 0-1.42.432a2.64 2.64 0 0 0-.847 1.159 4.5 4.5 0 0 0-.278 1.614q0 .909.284 1.608.29.693.852 1.09.569.393 1.409.393m6.273 1.34v-8.727h1.295v1.318h.091q.234-.647.858-1.05a2.55 2.55 0 0 1 1.415-.404q.364 0 .636.085.273.086.478.233l-.455 1.136a1.3 1.3 0 0 0-.335-.113 2 2 0 0 0-.438-.046q-.636 0-1.136.267-.494.267-.784.728a1.96 1.96 0 0 0-.284 1.05v5.523zm9.534.182q-1.261 0-2.176-.556a3.73 3.73 0 0 1-1.403-1.569q-.489-1.011-.489-2.352t.489-2.364q.493-1.028 1.375-1.602.886-.58 2.068-.58.681 0 1.346.228.665.227 1.211.739.545.506.869 1.34.324.836.324 2.057v.568h-6.728V59.71h5.364q0-.738-.295-1.318a2.23 2.23 0 0 0-.83-.915q-.534-.335-1.261-.335-.801 0-1.387.398a2.6 2.6 0 0 0-.892 1.023q-.312.63-.312 1.352v.773q0 .988.341 1.676.346.68.96 1.04.613.352 1.426.352.528 0 .955-.148.431-.154.744-.454.312-.307.483-.762l1.295.364q-.204.659-.687 1.159-.483.494-1.193.773a4.4 4.4 0 0 1-1.597.272m11.835-6.954-1.204.34a2.3 2.3 0 0 0-.335-.585 1.6 1.6 0 0 0-.591-.477q-.375-.187-.961-.187-.801 0-1.335.369-.528.363-.528.926 0 .5.363.79.365.29 1.137.483l1.295.318q1.171.285 1.745.87.573.579.573 1.494 0 .75-.431 1.34-.427.592-1.194.932t-1.784.341q-1.335 0-2.21-.58-.875-.579-1.108-1.692l1.273-.319q.181.705.687 1.057.511.352 1.336.352.938 0 1.488-.397.557-.404.557-.966 0-.455-.318-.761-.318-.313-.977-.466l-1.455-.341q-1.198-.284-1.761-.881-.558-.601-.557-1.506 0-.738.415-1.306.42-.57 1.142-.893.727-.324 1.647-.323 1.296 0 2.034.568.745.568 1.057 1.5m9.973 6.954q-1.09 0-1.926-.55-.835-.558-1.307-1.569-.471-1.018-.471-2.403 0-1.376.471-2.387.472-1.011 1.313-1.562.84-.551 1.943-.551.852 0 1.347.284.5.278.761.636.267.352.415.58h.113v-4.296h1.341v11.636h-1.295v-1.34h-.159a9 9 0 0 1-.421.602q-.273.358-.778.642-.505.279-1.347.278m.182-1.204q.807 0 1.364-.42.556-.427.846-1.177.29-.756.29-1.744 0-.978-.284-1.71-.284-.739-.841-1.148-.556-.415-1.375-.415-.853 0-1.42.438-.563.432-.847 1.176a4.7 4.7 0 0 0-.278 1.659q0 .931.284 1.693.29.755.852 1.205.569.443 1.409.443m9.756 1.204q-1.091 0-1.926-.55-.836-.558-1.307-1.569-.472-1.018-.472-2.403 0-1.376.472-2.387.471-1.011 1.312-1.562t1.944-.551q.852 0 1.346.284.5.278.761.636.268.352.415.58h.114v-1.387h1.341v8.727h-1.296v-1.34h-.159q-.147.239-.42.602-.273.358-.779.642-.506.279-1.346.278m.182-1.204q.807 0 1.363-.42.557-.427.847-1.177.29-.756.29-1.744 0-.978-.284-1.71-.285-.739-.841-1.148-.558-.415-1.375-.415-.853 0-1.421.438-.563.432-.846 1.176a4.7 4.7 0 0 0-.279 1.659q0 .931.284 1.693.29.755.853 1.205.567.443 1.409.443m10.255-7.705v1.137h-4.522v-1.137zm-3.204-2.09h1.341v8.318q0 .567.164.852.171.277.432.375.267.09.563.09.221 0 .363-.022l.228-.045.272 1.204a3 3 0 0 1-.38.102q-.245.057-.62.057-.568 0-1.113-.244a2.2 2.2 0 0 1-.898-.744q-.352-.5-.352-1.262zm8.423 11q-1.09 0-1.926-.552-.836-.557-1.307-1.568-.471-1.018-.471-2.403 0-1.376.471-2.387t1.313-1.562q.84-.551 1.943-.551.852 0 1.346.284.5.278.762.636.267.352.415.58h.113v-1.387h1.341v8.727h-1.295v-1.34h-.159a9 9 0 0 1-.421.602q-.273.358-.778.642-.505.279-1.347.278m.182-1.205q.806 0 1.364-.42.556-.427.846-1.177.29-.756.29-1.744 0-.978-.284-1.71-.285-.739-.841-1.148-.557-.415-1.375-.415-.852 0-1.421.438-.562.432-.846 1.176a4.7 4.7 0 0 0-.279 1.659q0 .931.285 1.693.29.755.852 1.205.568.443 1.409.443m6.642 1.022V53.146h1.341v4.296h.113q.148-.228.41-.58.266-.358.761-.636.5-.284 1.352-.284 1.103 0 1.943.55.841.552 1.313 1.563.471 1.011.471 2.387 0 1.386-.471 2.403-.472 1.011-1.307 1.568-.836.552-1.926.551-.841 0-1.347-.278-.505-.285-.778-.642a9 9 0 0 1-.421-.602h-.159v1.34zm1.318-4.363q0 .988.29 1.744.29.75.846 1.176.558.42 1.364.42.841 0 1.404-.442.567-.45.852-1.205a4.7 4.7 0 0 0 .29-1.693q0-.92-.285-1.66-.277-.743-.846-1.175-.563-.438-1.415-.438-.818 0-1.375.415-.556.409-.841 1.148-.284.732-.284 1.71m11.733 4.545q-1.09 0-1.926-.55-.836-.558-1.307-1.569-.471-1.018-.471-2.403 0-1.376.471-2.387t1.313-1.562q.84-.551 1.943-.551.852 0 1.346.284.5.278.762.636.267.352.415.58h.113V56.05h1.341v8.727h-1.295v-1.34h-.159a9 9 0 0 1-.421.602q-.273.358-.778.642-.505.279-1.347.278m.182-1.204q.806 0 1.364-.42.556-.427.846-1.177.29-.756.29-1.744 0-.978-.284-1.71-.285-.739-.841-1.148-.557-.415-1.375-.415-.852 0-1.421.438-.562.432-.846 1.176a4.7 4.7 0 0 0-.279 1.659q0 .931.285 1.693.29.755.852 1.205.568.443 1.409.443m12.642-5.75-1.205.34a2.2 2.2 0 0 0-.335-.585 1.6 1.6 0 0 0-.591-.477q-.375-.187-.96-.187-.801 0-1.335.369-.528.363-.529.926 0 .5.364.79.363.29 1.136.483l1.296.318q1.17.285 1.744.87.574.579.574 1.494 0 .75-.432 1.34-.426.592-1.193.932t-1.784.341q-1.335 0-2.21-.58-.876-.579-1.108-1.692l1.272-.319q.183.705.688 1.057.512.352 1.335.352.937 0 1.489-.397.557-.404.557-.966 0-.455-.319-.761-.317-.313-.977-.466l-1.454-.341q-1.2-.284-1.762-.881-.557-.601-.557-1.506 0-.738.415-1.306a2.83 2.83 0 0 1 1.142-.893q.727-.324 1.648-.323 1.296 0 2.034.568.744.568 1.057 1.5m5.837 6.954q-1.262 0-2.177-.556a3.74 3.74 0 0 1-1.403-1.569q-.489-1.011-.489-2.352t.489-2.364q.495-1.028 1.375-1.602.886-.58 2.068-.58.683 0 1.347.228a3.3 3.3 0 0 1 1.21.739q.546.506.869 1.34.324.836.324 2.057v.568h-6.727v-1.159h5.364q0-.738-.296-1.318a2.23 2.23 0 0 0-.829-.915q-.534-.335-1.262-.335-.801 0-1.386.398a2.6 2.6 0 0 0-.892 1.023q-.313.63-.313 1.352v.773q0 .988.341 1.676.346.68.96 1.04.615.352 1.427.352.528 0 .954-.148.432-.154.744-.454.314-.307.483-.762l1.296.364a2.9 2.9 0 0 1-.688 1.159q-.483.494-1.193.773a4.4 4.4 0 0 1-1.596.272"/><path fill="#6b7280" d="M9.58 80.21v-.937h4.159v.937zm0 7.79v-.937h4.159V88zm2.608-8.727V88H11.13v-8.727zm3.922 0v3h-.937v-3zm2.797 0V88H17.9v-8.727zm2.847 0V88H20.75v-8.727zm9.854 3.648-.904.255a1.7 1.7 0 0 0-.251-.439 1.2 1.2 0 0 0-.443-.358q-.282-.14-.72-.14-.602 0-1.002.277-.396.272-.396.694 0 .375.272.593.273.216.853.362l.971.238q.878.213 1.309.652.43.435.43 1.121 0 .562-.324 1.006a2.15 2.15 0 0 1-.895.699q-.575.255-1.338.255-1.001 0-1.658-.434-.656-.435-.83-1.27l.954-.239q.136.53.516.793.383.264 1.001.264.703 0 1.117-.298.417-.303.417-.725a.76.76 0 0 0-.239-.57q-.238-.235-.732-.35l-1.091-.256q-.9-.213-1.321-.66-.418-.453-.418-1.13 0-.554.311-.98.315-.426.857-.669a3 3 0 0 1 1.235-.243q.972 0 1.526.427.558.425.793 1.124m4.377 5.215q-.946 0-1.632-.417a2.8 2.8 0 0 1-1.053-1.176q-.366-.759-.366-1.765t.366-1.772a2.9 2.9 0 0 1 1.032-1.202q.665-.435 1.55-.435.513 0 1.01.17.5.172.908.555.41.38.652 1.005.243.627.243 1.543v.426H33.65v-.87h4.023q0-.552-.222-.988a1.67 1.67 0 0 0-.622-.686 1.74 1.74 0 0 0-.946-.251q-.6 0-1.04.298-.435.294-.669.767a2.25 2.25 0 0 0-.234 1.014v.58q0 .741.255 1.257.261.51.72.78a2.1 2.1 0 0 0 1.07.264q.396 0 .716-.11.324-.116.558-.342.235-.23.362-.57l.972.272q-.153.495-.516.87-.362.37-.895.579a3.3 3.3 0 0 1-1.197.204m7.087-6.681v.852H39.68v-.853zm-2.404-1.569h1.006v6.239q0 .426.124.64a.64.64 0 0 0 .323.28q.201.069.422.069.166 0 .273-.017l.17-.034.205.903a2 2 0 0 1-.285.077 2 2 0 0 1-.465.042q-.426 0-.835-.183a1.66 1.66 0 0 1-.674-.558q-.264-.376-.264-.946zm11.417 5.438v-3.87h1.005V88h-1.006v-1.108h-.068a2.15 2.15 0 0 1-.716.848q-.484.345-1.227.345-.614 0-1.09-.268a1.9 1.9 0 0 1-.75-.818q-.274-.55-.273-1.385v-4.16h1.005v4.092q0 .715.4 1.141.405.427 1.032.427.375 0 .763-.192.392-.192.656-.588.268-.396.268-1.01m2.847 5.13v-9h.972v1.04h.12q.11-.17.306-.434.2-.269.57-.478.375-.213 1.015-.213.827 0 1.458.414.63.413.984 1.171.354.76.354 1.79 0 1.04-.354 1.803-.354.759-.98 1.176-.627.413-1.445.413-.63 0-1.01-.208a1.9 1.9 0 0 1-.584-.482 7 7 0 0 1-.315-.452h-.085v3.46zm.989-5.727q0 .742.217 1.308.218.564.635.883.418.315 1.023.315.63 0 1.052-.332.427-.337.64-.904.217-.57.217-1.27 0-.69-.213-1.244a1.9 1.9 0 0 0-.635-.882q-.422-.328-1.061-.328-.615 0-1.031.31a1.87 1.87 0 0 0-.631.862q-.213.55-.213 1.282m12.545-3.273v.853h-3.392v-.853zm-2.403-1.568h1.005v6.239q0 .426.124.64a.64.64 0 0 0 .324.28q.2.069.422.069.166 0 .273-.017l.17-.034.205.903a2 2 0 0 1-.286.077 2 2 0 0 1-.464.042q-.426 0-.836-.183a1.66 1.66 0 0 1-.673-.558q-.264-.376-.264-.946zm5.062 4.177V88H70.12v-8.727h1.005v3.204h.086a1.85 1.85 0 0 1 .69-.805q.465-.303 1.236-.303.668 0 1.172.269.502.264.78.814.28.544.28 1.389V88h-1.005v-4.09q0-.78-.405-1.207-.4-.43-1.112-.43-.495 0-.886.209-.388.209-.614.609-.222.4-.222.972m8.829 4.073q-.946 0-1.632-.417a2.8 2.8 0 0 1-1.053-1.176q-.366-.759-.366-1.765t.366-1.772a2.9 2.9 0 0 1 1.031-1.202q.665-.435 1.552-.435.51 0 1.01.17.498.172.907.555.41.38.652 1.005.243.627.243 1.543v.426H77.62v-.87h4.022q0-.552-.221-.988a1.67 1.67 0 0 0-.622-.686 1.74 1.74 0 0 0-.946-.251q-.602 0-1.04.298-.435.294-.67.767a2.25 2.25 0 0 0-.234 1.014v.58q0 .741.256 1.257.26.51.72.78.46.264 1.07.264.396 0 .716-.11.324-.116.558-.342.234-.23.362-.57l.972.272q-.153.495-.516.87-.362.37-.895.579a3.3 3.3 0 0 1-1.197.204m7.75-.136v-8.727h2.95q1.026 0 1.678.37.656.367.972.993.315.627.315 1.398 0 .772-.315 1.402-.312.63-.963 1.006-.653.37-1.67.37h-2.114v-.937h2.08q.702 0 1.128-.243.426-.242.618-.656a2.2 2.2 0 0 0 .196-.942q0-.525-.196-.937a1.4 1.4 0 0 0-.622-.648q-.43-.24-1.142-.239h-1.858V88zm7.481 0v-6.546h.972v.99h.068q.174-.487.643-.79a1.9 1.9 0 0 1 1.061-.302q.273 0 .478.064t.358.175l-.341.852a1 1 0 0 0-.252-.085 1.4 1.4 0 0 0-.328-.034q-.477 0-.852.2a1.56 1.56 0 0 0-.588.546 1.47 1.47 0 0 0-.213.788V88zm4.605 0v-6.546h1.006V88zm.512-7.636a.72.72 0 0 1-.507-.2.64.64 0 0 1-.209-.482q0-.281.209-.482a.72.72 0 0 1 .507-.2.7.7 0 0 1 .503.2.64.64 0 0 1 .213.482.64.64 0 0 1-.213.481.7.7 0 0 1-.503.2m6.973 2.557-.904.255a1.7 1.7 0 0 0-.251-.439 1.2 1.2 0 0 0-.443-.358q-.282-.14-.721-.14-.6 0-1.001.277-.396.272-.396.694 0 .375.272.593.273.216.853.362l.971.238q.878.213 1.308.652.43.435.431 1.121 0 .562-.324 1.006a2.15 2.15 0 0 1-.895.699q-.574.255-1.338.255-1.001 0-1.658-.434-.655-.435-.831-1.27l.955-.239q.137.53.516.793.383.264 1.001.264.703 0 1.117-.298.417-.303.417-.725a.76.76 0 0 0-.239-.57q-.239-.235-.732-.35l-1.091-.256q-.9-.213-1.321-.66-.418-.453-.418-1.13 0-.554.311-.98.315-.426.857-.669a3 3 0 0 1 1.235-.243q.972 0 1.526.427.558.425.793 1.124M108.909 88v-6.546h.971v1.023h.086q.204-.524.66-.814.456-.294 1.095-.294.648 0 1.078.294.435.29.678.814h.068a1.9 1.9 0 0 1 .754-.805q.504-.303 1.206-.303.879 0 1.436.55.56.546.559 1.7V88h-1.006v-4.38q0-.726-.396-1.036a1.47 1.47 0 0 0-.934-.311q-.69 0-1.069.417-.38.413-.379 1.049V88h-1.023v-4.483q0-.558-.362-.9-.363-.345-.934-.344-.391 0-.733.209-.336.208-.545.58a1.7 1.7 0 0 0-.205.847V88zm12.356.153q-.623 0-1.13-.234a1.94 1.94 0 0 1-.805-.686q-.298-.452-.298-1.091 0-.562.221-.912.221-.353.593-.554.37-.2.818-.298.451-.102.907-.162.597-.077.968-.115.375-.043.545-.14.175-.099.175-.342v-.034q0-.63-.345-.98-.342-.35-1.036-.35-.72 0-1.129.316-.41.315-.575.673l-.955-.34q.256-.597.682-.93.43-.336.937-.468.512-.137 1.006-.137.315 0 .725.077.413.073.796.303.388.23.644.694.256.465.256 1.245V88h-1.006v-.886h-.051a1.8 1.8 0 0 1-.341.456 2 2 0 0 1-.635.413q-.397.17-.967.17m.153-.903q.597 0 1.006-.234a1.6 1.6 0 0 0 .835-1.385v-.92q-.064.075-.281.14-.213.06-.495.106a22 22 0 0 1-.963.128q-.391.052-.733.166a1.26 1.26 0 0 0-.545.337q-.205.222-.205.605 0 .525.388.793.391.264.993.264m10.801.886q-.945 0-1.632-.417a2.8 2.8 0 0 1-1.052-1.176q-.367-.759-.367-1.765t.367-1.772a2.9 2.9 0 0 1 1.031-1.202q.665-.435 1.551-.435a3.1 3.1 0 0 1 1.01.17 2.5 2.5 0 0 1 .908.555q.41.38.652 1.005.243.627.243 1.543v.426h-5.046v-.87h4.023q0-.552-.222-.988a1.67 1.67 0 0 0-.622-.686 1.74 1.74 0 0 0-.946-.251q-.6 0-1.04.298a2 2 0 0 0-.669.767 2.26 2.26 0 0 0-.234 1.014v.58q0 .741.256 1.257.26.51.72.78a2.1 2.1 0 0 0 1.069.264q.397 0 .716-.11a1.5 1.5 0 0 0 .559-.342q.234-.23.362-.57l.971.272q-.153.495-.515.87a2.5 2.5 0 0 1-.895.579 3.3 3.3 0 0 1-1.198.204m5.246-4.073V88h-1.005v-6.546h.971v1.023h.085q.231-.499.699-.8.47-.308 1.21-.308.665 0 1.164.273.499.269.775.818.277.546.277 1.38V88h-1.005v-4.09q0-.772-.401-1.203-.4-.434-1.099-.434-.482 0-.861.209-.375.209-.592.609-.218.4-.218.972m11.132-2.609L146.176 88h-1.022l-2.421-6.546h1.091l1.807 5.217h.068l1.807-5.217zM149.924 88v-6.546h1.006V88zm.512-7.636a.72.72 0 0 1-.507-.2.64.64 0 0 1-.209-.482.64.64 0 0 1 .209-.482.72.72 0 0 1 .507-.2q.294 0 .503.2a.64.64 0 0 1 .213.482.64.64 0 0 1-.213.481.7.7 0 0 1-.503.2M152.772 88v-6.546h.972v.99h.068q.174-.487.643-.79a1.9 1.9 0 0 1 1.061-.302q.273 0 .478.064t.358.175l-.341.852a1.4 1.4 0 0 0-.58-.12 1.8 1.8 0 0 0-.852.201 1.56 1.56 0 0 0-.588.546 1.47 1.47 0 0 0-.213.788V88zm7.065.136q-.886 0-1.555-.421a2.87 2.87 0 0 1-1.04-1.18q-.37-.76-.371-1.774 0-1.022.371-1.785.375-.763 1.04-1.185.669-.422 1.555-.422.887 0 1.551.422.67.422 1.04 1.185.375.762.375 1.785 0 1.015-.375 1.773a2.8 2.8 0 0 1-1.04 1.18q-.665.422-1.551.422m0-.903q.674 0 1.108-.345t.644-.908a3.5 3.5 0 0 0 .209-1.219q0-.656-.209-1.223a2.06 2.06 0 0 0-.644-.916q-.434-.35-1.108-.35-.673 0-1.108.35a2.06 2.06 0 0 0-.643.916 3.5 3.5 0 0 0-.209 1.223q0 .656.209 1.22.209.561.643.907.435.345 1.108.345m5.507-3.17V88h-1.006v-6.546h.972v1.023h.085q.231-.499.699-.8.47-.308 1.21-.308.665 0 1.164.273.499.269.775.818.277.546.277 1.38V88h-1.005v-4.09q0-.772-.401-1.203-.401-.434-1.099-.434-.481 0-.861.209-.375.209-.593.609t-.217.972M171.358 88v-6.546h.972v1.023h.085q.204-.524.66-.814.456-.294 1.095-.294.648 0 1.079.294.434.29.677.814h.068q.251-.507.755-.805.502-.303 1.206-.303.877 0 1.436.55.558.546.558 1.7V88h-1.006v-4.38q0-.726-.396-1.036a1.47 1.47 0 0 0-.933-.311q-.691 0-1.07.417-.38.413-.379 1.049V88h-1.023v-4.483q0-.558-.362-.9-.363-.345-.933-.344-.393 0-.733.209-.338.208-.546.58a1.7 1.7 0 0 0-.204.847V88zm13.174.136q-.947 0-1.632-.417a2.8 2.8 0 0 1-1.053-1.176q-.366-.759-.366-1.765t.366-1.772a2.9 2.9 0 0 1 1.032-1.202q.665-.435 1.551-.435.511 0 1.01.17.498.172.907.555.41.38.652 1.005.243.627.243 1.543v.426h-5.045v-.87h4.022q0-.552-.221-.988a1.67 1.67 0 0 0-.622-.686 1.74 1.74 0 0 0-.946-.251q-.601 0-1.04.298-.435.294-.669.767a2.26 2.26 0 0 0-.234 1.014v.58q0 .741.255 1.257.26.51.72.78.46.264 1.07.264.396 0 .716-.11.324-.116.558-.342.234-.23.362-.57l.972.272q-.153.495-.516.87-.361.37-.895.579a3.3 3.3 0 0 1-1.197.204m5.246-4.073V88h-1.006v-6.546h.972v1.023h.085q.23-.499.699-.8.468-.308 1.21-.308.665 0 1.163.273.499.269.776.818.277.546.277 1.38V88h-1.006v-4.09q0-.772-.4-1.203-.4-.434-1.1-.434-.481 0-.861.209-.375.209-.592.609t-.217.972m8.86-2.609v.853h-3.392v-.853zm-2.403-1.568h1.005v6.239q0 .426.124.64.127.208.324.28.2.069.422.069.166 0 .272-.017l.171-.034.204.903a2 2 0 0 1-.285.077 2 2 0 0 1-.465.042q-.426 0-.835-.183a1.66 1.66 0 0 1-.673-.558q-.264-.376-.264-.946zm9.217 8.267q-.622 0-1.129-.234a1.94 1.94 0 0 1-.806-.686q-.298-.452-.298-1.091 0-.562.222-.912a1.56 1.56 0 0 1 .592-.554q.37-.2.818-.298.452-.102.908-.162.597-.077.967-.115.375-.043.546-.14.174-.099.174-.342v-.034q0-.63-.345-.98-.34-.35-1.035-.35-.72 0-1.13.316-.408.315-.575.673l-.954-.34q.255-.597.681-.93.43-.336.938-.468.511-.137 1.006-.137.315 0 .724.077.413.073.797.303.387.23.643.694.256.465.256 1.245V88h-1.006v-.886h-.051a1.8 1.8 0 0 1-.341.456q-.238.243-.635.413-.396.17-.967.17m.153-.903q.597 0 1.006-.234a1.59 1.59 0 0 0 .835-1.385v-.92q-.063.075-.281.14-.213.06-.494.106a23 23 0 0 1-.963.128q-.393.052-.733.166a1.3 1.3 0 0 0-.546.337q-.204.222-.204.605 0 .525.388.793.392.264.992.264m5.688-3.187V88h-1.005v-6.546h.971v1.023h.085q.231-.499.699-.8.469-.308 1.211-.308.665 0 1.163.273.498.269.775.818.277.546.277 1.38V88h-1.005v-4.09q0-.772-.401-1.203-.4-.434-1.099-.434-.482 0-.861.209-.375.209-.592.609-.218.4-.218.972m8.486 4.073a2.56 2.56 0 0 1-1.445-.413q-.626-.417-.98-1.176-.354-.763-.354-1.803 0-1.03.354-1.79.354-.758.984-1.171.631-.414 1.458-.414.64 0 1.01.213.375.21.571.478.2.263.311.434h.085v-3.221h1.006V88h-.972v-1.006h-.119q-.111.18-.315.452-.205.269-.584.482-.38.208-1.01.208m.136-.903q.605 0 1.023-.315a2 2 0 0 0 .635-.883q.217-.566.217-1.308 0-.733-.213-1.282a1.86 1.86 0 0 0-.631-.861q-.417-.311-1.031-.311-.639 0-1.065.328-.422.324-.635.882a3.5 3.5 0 0 0-.209 1.244q0 .7.213 1.27.218.567.639.904.426.332 1.057.332m10.146.92a2.7 2.7 0 0 1-1.129-.234 1.94 1.94 0 0 1-.805-.686q-.299-.452-.299-1.091 0-.562.222-.912.222-.353.592-.554.371-.2.819-.298.451-.102.907-.162.596-.077.968-.115.375-.043.545-.14.175-.099.175-.342v-.034q0-.63-.345-.98-.342-.35-1.036-.35-.72 0-1.129.316-.41.315-.575.673l-.955-.34q.256-.597.682-.93.43-.336.937-.468.511-.137 1.006-.137.316 0 .724.077.414.073.797.303.388.23.644.694.255.465.255 1.245V88h-1.005v-.886h-.051a1.8 1.8 0 0 1-.341.456 2 2 0 0 1-.635.413q-.396.17-.968.17m.154-.903q.597 0 1.006-.234.412-.235.622-.606.213-.37.213-.78v-.92q-.065.077-.281.14-.214.06-.495.107a22 22 0 0 1-.963.128q-.392.052-.733.166a1.26 1.26 0 0 0-.545.337q-.205.222-.205.605 0 .525.388.793.392.264.993.264m8.057.75v-6.546h.972v1.023h.085q.204-.524.66-.814.456-.294 1.096-.294.647 0 1.078.294.434.29.677.814h.068q.251-.507.755-.805.502-.303 1.206-.303.878 0 1.436.55.558.546.558 1.7V88h-1.006v-4.38q0-.726-.396-1.036a1.47 1.47 0 0 0-.933-.311q-.691 0-1.07.417-.38.413-.379 1.049V88h-1.023v-4.483q0-.558-.362-.9-.363-.345-.933-.344-.393 0-.733.209-.338.208-.546.58a1.7 1.7 0 0 0-.204.847V88zm12.356.153q-.622 0-1.129-.234a1.94 1.94 0 0 1-.806-.686q-.298-.452-.298-1.091 0-.562.221-.912a1.57 1.57 0 0 1 .593-.554q.37-.2.818-.298.452-.102.908-.162.596-.077.967-.115.375-.043.545-.14.175-.099.175-.342v-.034q0-.63-.345-.98-.34-.35-1.036-.35-.72 0-1.129.316-.409.315-.575.673l-.955-.34q.256-.597.682-.93.43-.336.938-.468.512-.137 1.005-.137.316 0 .725.077.413.073.797.303.388.23.643.694.256.465.256 1.245V88h-1.006v-.886h-.051a1.8 1.8 0 0 1-.341.456 2 2 0 0 1-.635.413q-.396.17-.967.17m.153-.903q.597 0 1.006-.234a1.59 1.59 0 0 0 .835-1.385v-.92q-.063.075-.281.14-.213.06-.494.106a22 22 0 0 1-.963.128q-.393.052-.733.166a1.26 1.26 0 0 0-.546.337q-.204.222-.204.605 0 .525.387.793.393.264.993.264m5.688-3.187V88h-1.006v-6.546h.972v1.023h.085q.231-.499.699-.8.47-.308 1.21-.308.665 0 1.164.273.499.269.775.818.277.546.277 1.38V88h-1.005v-4.09q0-.772-.401-1.203-.401-.434-1.099-.434-.481 0-.861.209-.375.209-.593.609-.216.4-.217.972m7.94 4.09q-.622 0-1.129-.234a1.94 1.94 0 0 1-.806-.686q-.297-.452-.298-1.091 0-.562.222-.912a1.56 1.56 0 0 1 .592-.554q.37-.2.818-.298.452-.102.908-.162.597-.077.967-.115.375-.043.546-.14.174-.099.174-.342v-.034q0-.63-.345-.98-.34-.35-1.035-.35-.72 0-1.13.316-.408.315-.575.673l-.954-.34q.255-.597.681-.93.43-.336.938-.468.511-.137 1.006-.137.315 0 .724.077.413.073.797.303.387.23.643.694.256.465.256 1.245V88h-1.006v-.886h-.051a1.8 1.8 0 0 1-.341.456q-.238.243-.635.413-.396.17-.967.17m.153-.903q.597 0 1.006-.234a1.59 1.59 0 0 0 .835-1.385v-.92q-.063.075-.281.14-.213.06-.494.106a23 23 0 0 1-.963.128q-.393.052-.733.166a1.3 1.3 0 0 0-.546.337q-.204.222-.204.605 0 .525.388.793.392.264.992.264m7.325 3.34q-.73 0-1.253-.187a2.7 2.7 0 0 1-.874-.485 2.7 2.7 0 0 1-.549-.64l.801-.562q.137.18.345.409.208.234.571.405.366.174.959.174.792 0 1.308-.383t.516-1.202v-1.33h-.086a6 6 0 0 1-.315.444 1.8 1.8 0 0 1-.58.464q-.375.2-1.014.2a2.73 2.73 0 0 1-1.423-.374 2.63 2.63 0 0 1-.993-1.091q-.362-.716-.362-1.739 0-1.005.354-1.751.353-.75.984-1.16.63-.413 1.457-.413.64 0 1.015.213.379.21.579.478.205.263.315.434h.103v-1.04h.971v6.734q0 .843-.383 1.372a2.2 2.2 0 0 1-1.023.78 3.9 3.9 0 0 1-1.423.25m-.034-3.596q.605 0 1.022-.277.418-.276.635-.796t.218-1.245q0-.708-.213-1.248a1.9 1.9 0 0 0-.631-.849q-.418-.306-1.031-.306-.64 0-1.066.324a1.97 1.97 0 0 0-.635.869 3.4 3.4 0 0 0-.208 1.21q0 .682.213 1.206.217.52.639.818.426.294 1.057.294m7.448 1.142q-.945 0-1.632-.417a2.8 2.8 0 0 1-1.052-1.176q-.367-.759-.367-1.765t.367-1.772a2.9 2.9 0 0 1 1.031-1.202q.664-.435 1.551-.435a3.1 3.1 0 0 1 1.01.17 2.5 2.5 0 0 1 .908.555q.41.38.652 1.005.243.627.243 1.543v.426h-5.046v-.87h4.023q0-.552-.222-.988a1.66 1.66 0 0 0-.622-.686 1.74 1.74 0 0 0-.946-.251q-.6 0-1.04.298a2 2 0 0 0-.669.767 2.26 2.26 0 0 0-.234 1.014v.58q0 .741.256 1.257.26.51.72.78a2.1 2.1 0 0 0 1.069.264q.397 0 .716-.11a1.5 1.5 0 0 0 .559-.342q.234-.23.362-.57l.971.272q-.153.495-.515.87a2.5 2.5 0 0 1-.895.579 3.3 3.3 0 0 1-1.198.204m6.712 0a2.56 2.56 0 0 1-1.444-.413q-.627-.417-.981-1.176-.353-.763-.353-1.803 0-1.03.353-1.79.354-.758.985-1.171.63-.414 1.457-.414.64 0 1.01.213.375.21.571.478.2.263.311.434h.085v-3.221h1.006V88h-.971v-1.006h-.12q-.111.18-.315.452-.204.269-.584.482-.379.208-1.01.208m.137-.903q.605 0 1.022-.315.418-.32.635-.883.218-.566.218-1.308 0-.733-.214-1.282a1.87 1.87 0 0 0-.63-.861q-.418-.311-1.031-.311-.64 0-1.066.328-.422.324-.635.882a3.5 3.5 0 0 0-.209 1.244q0 .7.213 1.27.217.567.64.904.426.332 1.057.332M10.057 104v-8.727h2.949q1.026 0 1.679.37.656.367.971.993.316.627.316 1.398 0 .772-.316 1.402-.31.63-.963 1.006-.651.37-1.67.37h-2.114v-.937h2.08q.702 0 1.129-.243.426-.242.618-.656a2.2 2.2 0 0 0 .196-.942q0-.525-.196-.937a1.4 1.4 0 0 0-.622-.648q-.43-.24-1.142-.239h-1.858V104zm10.07.136q-.887 0-1.556-.422a2.86 2.86 0 0 1-1.04-1.18q-.37-.759-.37-1.773 0-1.022.37-1.785a2.86 2.86 0 0 1 1.04-1.185q.669-.422 1.555-.422t1.552.422a2.8 2.8 0 0 1 1.04 1.185q.374.763.374 1.785 0 1.014-.375 1.773a2.8 2.8 0 0 1-1.04 1.18q-.665.423-1.55.422m0-.903q.673 0 1.107-.345.435-.345.644-.908.209-.562.209-1.219 0-.656-.21-1.223a2.06 2.06 0 0 0-.643-.916q-.435-.35-1.108-.35t-1.108.35a2.06 2.06 0 0 0-.643.916 3.5 3.5 0 0 0-.209 1.223q0 .657.209 1.219.21.563.643.908.436.345 1.108.345m9.137-4.312-.904.255a1.7 1.7 0 0 0-.251-.439 1.2 1.2 0 0 0-.443-.358q-.282-.14-.72-.14-.6 0-1.002.277-.396.272-.396.694 0 .375.273.593.272.216.852.362l.972.238q.877.213 1.308.652.43.435.43 1.121 0 .562-.324 1.006a2.16 2.16 0 0 1-.895.699q-.575.255-1.338.255-1.001 0-1.657-.434-.657-.435-.831-1.27l.954-.239q.137.529.516.793.384.264 1.001.264.704 0 1.117-.298.417-.303.417-.725a.76.76 0 0 0-.238-.571q-.24-.234-.733-.349l-1.091-.256q-.9-.213-1.321-.66-.418-.453-.418-1.13 0-.554.311-.98.315-.426.857-.669a3 3 0 0 1 1.236-.243q.971 0 1.525.427.559.425.793 1.124m4.48-1.467v.853h-3.392v-.853zm-2.404-1.568h1.006v6.239q0 .426.123.639a.64.64 0 0 0 .324.281q.201.069.422.069.166 0 .273-.017l.17-.035.205.904a2.2 2.2 0 0 1-.75.119q-.426 0-.835-.183a1.66 1.66 0 0 1-.674-.558q-.264-.376-.264-.946zm6.488 10.705q-.728 0-1.253-.188a2.7 2.7 0 0 1-.873-.485 2.7 2.7 0 0 1-.55-.64l.801-.562q.137.179.345.409.21.234.571.405.367.174.96.175.791 0 1.307-.384.516-.383.516-1.202v-1.329h-.085a6 6 0 0 1-.316.443 1.8 1.8 0 0 1-.58.464q-.375.201-1.013.201a2.73 2.73 0 0 1-1.424-.375 2.63 2.63 0 0 1-.992-1.091q-.363-.716-.363-1.739 0-1.005.354-1.751.354-.75.984-1.16.63-.413 1.458-.413.639 0 1.014.213.38.21.58.478.203.263.315.434h.102v-1.04h.972v6.734q0 .843-.384 1.372a2.2 2.2 0 0 1-1.023.779 3.9 3.9 0 0 1-1.423.252m-.034-3.597q.605 0 1.023-.277.417-.276.635-.797.217-.52.217-1.244 0-.707-.213-1.248a1.87 1.87 0 0 0-.63-.849q-.42-.306-1.032-.306-.639 0-1.065.324a1.97 1.97 0 0 0-.635.869q-.21.546-.21 1.21 0 .683.214 1.206.217.52.64.818.425.294 1.056.294M42.499 104v-6.546h.971v.99h.068q.175-.487.644-.79a1.9 1.9 0 0 1 1.06-.302q.274 0 .478.064.205.064.358.175l-.34.852a1 1 0 0 0-.252-.085 1.4 1.4 0 0 0-.328-.034q-.478 0-.853.2a1.56 1.56 0 0 0-.588.546 1.47 1.47 0 0 0-.213.788V104zm7.15.136q-.946 0-1.632-.417a2.8 2.8 0 0 1-1.053-1.176q-.366-.759-.366-1.765t.367-1.772a2.9 2.9 0 0 1 1.03-1.202q.666-.435 1.552-.435.51 0 1.01.17.498.172.907.555.409.38.653 1.005.242.627.242 1.543v.426h-5.045v-.869h4.023q0-.555-.222-.989a1.67 1.67 0 0 0-.622-.686 1.74 1.74 0 0 0-.946-.251q-.6 0-1.04.298-.435.294-.669.767a2.25 2.25 0 0 0-.234 1.014v.58q0 .741.255 1.257.261.512.72.78.46.264 1.07.264.396 0 .716-.111.324-.115.558-.341.235-.23.362-.571l.972.273a2.16 2.16 0 0 1-.515.869q-.363.371-.895.58a3.3 3.3 0 0 1-1.198.204m8.877-5.215-.904.255a1.7 1.7 0 0 0-.251-.439 1.2 1.2 0 0 0-.443-.358q-.282-.14-.72-.14-.602 0-1.002.277-.396.272-.396.694 0 .375.272.593.273.216.853.362l.971.238q.879.213 1.309.652.43.435.43 1.121 0 .562-.324 1.006a2.15 2.15 0 0 1-.895.699q-.575.255-1.338.255-1.001 0-1.658-.434-.656-.435-.83-1.27l.954-.239q.136.529.516.793.384.264 1.001.264.703 0 1.117-.298.417-.303.417-.725a.76.76 0 0 0-.238-.571q-.24-.234-.733-.349l-1.091-.256q-.9-.213-1.321-.66-.418-.453-.418-1.13 0-.554.311-.98.315-.426.857-.669a3 3 0 0 1 1.235-.243q.972 0 1.526.427.558.425.793 1.124m7.48 5.215q-.82 0-1.445-.413-.627-.417-.98-1.176-.354-.763-.354-1.803 0-1.03.354-1.79.352-.758.984-1.171.63-.414 1.457-.414.64 0 1.01.213.375.21.571.478.201.263.311.434H68v-3.221h1.005V104h-.971v-1.006h-.12q-.11.18-.315.452-.203.269-.584.482-.38.208-1.01.208m.136-.903q.605 0 1.022-.315.418-.32.635-.882.218-.567.218-1.309 0-.733-.213-1.282a1.87 1.87 0 0 0-.631-.861q-.418-.311-1.031-.311-.64 0-1.066.328-.42.324-.635.882-.208.555-.208 1.244 0 .699.213 1.27.218.567.639.904.426.332 1.057.332m6.771.92q-.622 0-1.13-.234a1.94 1.94 0 0 1-.805-.686q-.297-.452-.298-1.091 0-.562.222-.912.221-.354.592-.554.37-.2.818-.298.452-.102.908-.162.597-.077.967-.115.375-.043.546-.14.174-.099.174-.342v-.034q0-.63-.345-.98-.34-.35-1.035-.35-.72 0-1.13.316-.408.316-.575.673l-.954-.34q.255-.597.681-.93.43-.336.938-.468.51-.137 1.006-.137.315 0 .724.077.413.073.797.303.387.23.643.694.256.465.256 1.245V104h-1.006v-.886h-.05a1.8 1.8 0 0 1-.342.456q-.238.243-.635.413-.396.17-.967.17m.153-.903q.597 0 1.006-.234a1.6 1.6 0 0 0 .835-1.385v-.921q-.063.077-.28.141-.215.06-.495.106a21 21 0 0 1-.963.128 4 4 0 0 0-.733.166 1.26 1.26 0 0 0-.546.337q-.204.221-.204.605 0 .525.387.793.393.264.993.264m7.53-5.796v.853h-3.393v-.853zm-2.404-1.568h1.005v6.239q0 .426.124.639a.64.64 0 0 0 .324.281q.2.069.422.069.166 0 .273-.017l.17-.035.204.904a2.2 2.2 0 0 1-.75.119q-.426 0-.835-.183a1.66 1.66 0 0 1-.673-.558q-.264-.376-.264-.946zm5.842 8.267q-.622 0-1.13-.234a1.94 1.94 0 0 1-.805-.686q-.297-.452-.298-1.091 0-.562.222-.912.222-.354.592-.554t.818-.298q.452-.102.908-.162.597-.077.967-.115.375-.043.546-.14.174-.099.174-.342v-.034q0-.63-.345-.98-.34-.35-1.035-.35-.72 0-1.13.316-.408.316-.575.673l-.954-.34q.255-.597.681-.93.43-.336.938-.468.51-.137 1.006-.137.315 0 .724.077.413.073.797.303.388.23.643.694.256.465.256 1.245V104h-1.006v-.886h-.05a1.8 1.8 0 0 1-.342.456q-.238.243-.635.413-.396.17-.967.17m.153-.903q.597 0 1.006-.234a1.6 1.6 0 0 0 .835-1.385v-.921q-.064.077-.28.141-.215.06-.495.106a21 21 0 0 1-.963.128 4 4 0 0 0-.733.166 1.26 1.26 0 0 0-.546.337q-.204.221-.204.605 0 .525.388.793.391.264.993.264m4.819.75v-8.727h1.006v3.221h.085q.11-.17.307-.434.2-.269.57-.478.375-.213 1.015-.213.827 0 1.457.414.63.413.985 1.171.353.76.353 1.79 0 1.04-.353 1.803-.354.759-.98 1.176-.627.413-1.445.413-.63 0-1.01-.208a1.9 1.9 0 0 1-.584-.482 6 6 0 0 1-.315-.452h-.12V104zm.989-3.273q0 .742.217 1.309.217.563.635.882.418.315 1.023.315.63 0 1.052-.332.426-.337.64-.904.217-.571.217-1.27 0-.69-.213-1.244a1.9 1.9 0 0 0-.635-.882q-.422-.328-1.061-.328-.614 0-1.032.31a1.87 1.87 0 0 0-.63.862q-.213.55-.213 1.282m8.254 3.426q-.622 0-1.13-.234a1.94 1.94 0 0 1-.805-.686q-.298-.452-.298-1.091 0-.562.222-.912.221-.354.592-.554a3.1 3.1 0 0 1 .818-.298 10 10 0 0 1 .908-.162q.597-.077.967-.115.375-.043.546-.14.174-.099.174-.342v-.034q0-.63-.345-.98-.34-.35-1.035-.35-.72 0-1.13.316-.408.316-.575.673l-.954-.34q.255-.597.681-.93.43-.336.938-.468.51-.137 1.006-.137.315 0 .724.077.413.073.797.303.387.23.643.694.256.465.256 1.245V104h-1.006v-.886h-.051a1.8 1.8 0 0 1-.34.456q-.24.243-.636.413t-.967.17m.153-.903q.597 0 1.006-.234a1.6 1.6 0 0 0 .835-1.385v-.921q-.063.077-.281.141a5 5 0 0 1-.494.106 21 21 0 0 1-.963.128q-.393.052-.733.166a1.26 1.26 0 0 0-.546.337q-.204.221-.204.605 0 .525.387.793.393.264.993.264m9.319-4.33-.904.256a1.7 1.7 0 0 0-.251-.439 1.2 1.2 0 0 0-.443-.358q-.282-.14-.72-.14-.602 0-1.002.277-.396.272-.396.694 0 .375.273.593.273.216.852.362l.972.238q.877.213 1.308.652.43.435.43 1.121 0 .562-.324 1.006a2.15 2.15 0 0 1-.895.699q-.575.255-1.338.255-1.001 0-1.657-.434-.657-.435-.831-1.27l.954-.239q.137.529.516.793.383.264 1.001.264.703 0 1.117-.298.417-.303.417-.725a.76.76 0 0 0-.238-.571q-.239-.234-.733-.349l-1.091-.256q-.9-.213-1.321-.66-.418-.453-.418-1.13 0-.554.311-.98.316-.426.857-.669a3 3 0 0 1 1.236-.243q.971 0 1.525.427.558.425.793 1.124m4.377 5.216q-.945 0-1.632-.417a2.8 2.8 0 0 1-1.052-1.176q-.367-.759-.367-1.765t.367-1.772a2.9 2.9 0 0 1 1.031-1.202q.665-.435 1.551-.435a3.1 3.1 0 0 1 1.01.17q.498.172.908.555.408.38.652 1.005.243.627.243 1.543v.426h-5.046v-.869h4.023q0-.555-.222-.989a1.67 1.67 0 0 0-.622-.686 1.74 1.74 0 0 0-.946-.251q-.6 0-1.04.298a2 2 0 0 0-.669.767 2.26 2.26 0 0 0-.234 1.014v.58q0 .741.256 1.257.26.512.72.78a2.1 2.1 0 0 0 1.069.264q.397 0 .716-.111a1.5 1.5 0 0 0 .559-.341q.234-.23.362-.571l.971.273a2.16 2.16 0 0 1-.515.869 2.5 2.5 0 0 1-.895.58 3.3 3.3 0 0 1-1.198.204m4.973-.068a.74.74 0 0 1-.541-.226.74.74 0 0 1-.226-.541q0-.315.226-.541a.74.74 0 0 1 .541-.226q.316 0 .542.226a.74.74 0 0 1 .225.541.73.73 0 0 1-.106.384.8.8 0 0 1-.277.281.74.74 0 0 1-.384.102m3.305 0a.74.74 0 0 1-.541-.226.74.74 0 0 1-.226-.541q0-.315.226-.541a.74.74 0 0 1 .541-.226q.316 0 .541.226a.74.74 0 0 1 .226.541.73.73 0 0 1-.106.384.8.8 0 0 1-.277.281.74.74 0 0 1-.384.102m3.305 0a.74.74 0 0 1-.541-.226.74.74 0 0 1-.226-.541q0-.315.226-.541a.74.74 0 0 1 .541-.226q.315 0 .541.226a.74.74 0 0 1 .226.541.8.8 0 0 1-.384.665.73.73 0 0 1-.383.102" opacity=".64"/></svg>