<svg xmlns="http://www.w3.org/2000/svg" fill="none" viewBox="31.13 16.2 455.37 254.5"><g filter="url(#a)"><g clip-path="url(#b)"><path fill="#fcfdfd" d="M408.381 17.2H39.619C35.411 17.2 32 21.219 32 26.177v175.046c0 4.958 3.411 8.977 7.619 8.977h368.762c4.208 0 7.619-4.019 7.619-8.977V26.177c0-4.958-3.411-8.977-7.619-8.977"/><path fill="url(#c)" d="M408.381 17.2H39.619C35.411 17.2 32 21.219 32 26.177v175.046c0 4.958 3.411 8.977 7.619 8.977h368.762c4.208 0 7.619-4.019 7.619-8.977V26.177c0-4.958-3.411-8.977-7.619-8.977"/><path fill="#f9fafb" d="M486.5 16.2H32v31.5h454.5zM177.381 98.486h-94.5a3.6 3.6 0 0 0-3.6 3.6v.9a3.6 3.6 0 0 0 3.6 3.6h94.5a3.6 3.6 0 0 0 3.6-3.6v-.9a3.6 3.6 0 0 0-3.6-3.6"/><path fill="#99f6e4" d="M47.3 98.838h-1.8a3.6 3.6 0 0 0-3.6 3.6v.9a3.6 3.6 0 0 0 3.6 3.6h1.8a3.6 3.6 0 0 0 3.6-3.6v-.9a3.6 3.6 0 0 0-3.6-3.6"/><path fill="#f9fafb" d="M397.882 98.486h-179.1a3.6 3.6 0 0 0-3.6 3.6v.9a3.6 3.6 0 0 0 3.6 3.6h179.1a3.6 3.6 0 0 0 3.6-3.6v-.9a3.6 3.6 0 0 0-3.6-3.6m-220.501 28.799h-94.5a3.6 3.6 0 0 0-3.6 3.6v.9a3.6 3.6 0 0 0 3.6 3.6h94.5a3.6 3.6 0 0 0 3.6-3.6v-.9a3.6 3.6 0 0 0-3.6-3.6"/><path fill="#99f6e4" d="M47.3 127.638h-1.8a3.6 3.6 0 0 0-3.6 3.6v.9a3.6 3.6 0 0 0 3.6 3.6h1.8a3.6 3.6 0 0 0 3.6-3.6v-.9a3.6 3.6 0 0 0-3.6-3.6"/><path fill="#f9fafb" d="M397.882 127.285h-179.1a3.6 3.6 0 0 0-3.6 3.6v.9a3.6 3.6 0 0 0 3.6 3.6h179.1a3.6 3.6 0 0 0 3.6-3.6v-.9a3.6 3.6 0 0 0-3.6-3.6m-220.501 27.001h-94.5a3.6 3.6 0 0 0-3.6 3.6v.9a3.6 3.6 0 0 0 3.6 3.6h94.5a3.6 3.6 0 0 0 3.6-3.6v-.9a3.6 3.6 0 0 0-3.6-3.6m0 28.8h-94.5a3.6 3.6 0 0 0-3.6 3.6v.9a3.6 3.6 0 0 0 3.6 3.6h94.5a3.6 3.6 0 0 0 3.6-3.6v-.9a3.6 3.6 0 0 0-3.6-3.6"/><path fill="#99f6e4" d="M47.3 154.638h-1.8a3.6 3.6 0 0 0-3.6 3.6v.9a3.6 3.6 0 0 0 3.6 3.6h1.8a3.6 3.6 0 0 0 3.6-3.6v-.9a3.6 3.6 0 0 0-3.6-3.6m0 28.8h-1.8a3.6 3.6 0 0 0-3.6 3.6v.9a3.6 3.6 0 0 0 3.6 3.6h1.8a3.6 3.6 0 0 0 3.6-3.6v-.9a3.6 3.6 0 0 0-3.6-3.6"/><path fill="#f9fafb" d="M397.882 154.286h-179.1a3.6 3.6 0 0 0-3.6 3.6v.9a3.6 3.6 0 0 0 3.6 3.6h179.1a3.6 3.6 0 0 0 3.6-3.6v-.9a3.6 3.6 0 0 0-3.6-3.6m0 28.8h-179.1a3.6 3.6 0 0 0-3.6 3.6v.9a3.6 3.6 0 0 0 3.6 3.6h179.1a3.6 3.6 0 0 0 3.6-3.6v-.9a3.6 3.6 0 0 0-3.6-3.6m-334.8-126h-14.4a3.6 3.6 0 0 0-3.6 3.6v14.4a3.6 3.6 0 0 0 3.6 3.6h14.4a3.6 3.6 0 0 0 3.6-3.6v-14.4a3.6 3.6 0 0 0-3.6-3.6m84.599 0h-64.8a3.6 3.6 0 0 0-3.6 3.6v14.4a3.6 3.6 0 0 0 3.6 3.6h64.8a3.6 3.6 0 0 0 3.6-3.6v-14.4a3.6 3.6 0 0 0-3.6-3.6m116.101 0h-98.1a3.6 3.6 0 0 0-3.6 3.6v14.4a3.6 3.6 0 0 0 3.6 3.6h98.1a3.6 3.6 0 0 0 3.6-3.6v-14.4a3.6 3.6 0 0 0-3.6-3.6m134.1 0h-116.1a3.6 3.6 0 0 0-3.6 3.6v14.4a3.6 3.6 0 0 0 3.6 3.6h116.1a3.6 3.6 0 0 0 3.6-3.6v-14.4a3.6 3.6 0 0 0-3.6-3.6"/><path stroke="#f9fafb" stroke-width=".9" d="M31.582 87.236h453.6m-68.85.45v122.4m-384.75-94.051h453.6m-453.6 28.801h453.6m-453.6 28.8h453.6"/></g></g><path fill="url(#d)" d="M267.646 243.846a.5.5 0 0 1 .708 0l3.181 3.182a.5.5 0 0 1-.707.707l-2.387-2.387c-.333 3.337-2.107 6.481-5.002 9.329-3.223 3.17-7.862 6.002-13.553 8.37-11.385 4.736-27.078 7.653-44.386 7.653s-33.001-2.917-44.386-7.653c-5.691-2.368-10.33-5.2-13.553-8.37-3.225-3.172-5.061-6.713-5.061-10.477a.5.5 0 0 1 1 0c0 3.415 1.662 6.714 4.762 9.764 3.102 3.051 7.617 5.821 13.236 8.159 11.236 4.674 26.793 7.577 44.002 7.577s32.766-2.903 44.002-7.577c5.619-2.338 10.134-5.108 13.236-8.159 2.71-2.665 4.32-5.521 4.683-8.479l-2.249 2.25a.5.5 0 0 1-.707-.707z"/><path fill="url(#e)" d="M412.646 243.846a.5.5 0 0 1 .708 0l3.181 3.182a.5.5 0 0 1-.707.707l-2.387-2.387c-.333 3.337-2.107 6.481-5.002 9.329-3.223 3.17-7.862 6.002-13.553 8.37-11.385 4.736-27.078 7.653-44.386 7.653s-33.001-2.917-44.386-7.653c-5.691-2.368-10.33-5.2-13.553-8.37-3.225-3.172-5.061-6.713-5.061-10.477a.5.5 0 0 1 1 0c0 3.415 1.662 6.714 4.762 9.764 3.102 3.051 7.617 5.821 13.236 8.159 11.236 4.674 26.793 7.577 44.002 7.577s32.766-2.903 44.002-7.577c5.619-2.338 10.134-5.108 13.236-8.159 2.71-2.665 4.32-5.521 4.683-8.479l-2.249 2.25a.5.5 0 0 1-.707-.707z"/><path fill="url(#f)" fill-opacity=".5" d="M452.865 218.736h-.367c.242.737.367 1.487.367 2.249 0 9.854-20.85 17.842-46.569 17.842s-46.568-7.988-46.568-17.842c0-.762.125-1.512.367-2.249h-.367V89.2h93.137z"/><path fill="#0d9488" stroke="#f0fdfa" stroke-width=".535" d="M406.296 203.411c12.835 0 24.444 1.994 32.834 5.208 4.195 1.608 7.572 3.515 9.895 5.619 2.324 2.105 3.573 4.386 3.573 6.747 0 2.362-1.249 4.642-3.573 6.746s-5.7 4.013-9.895 5.621c-8.39 3.214-19.999 5.208-32.834 5.208s-24.444-1.994-32.833-5.208c-4.196-1.608-7.573-3.516-9.897-5.621-2.323-2.104-3.571-4.384-3.571-6.746s1.248-4.642 3.571-6.747 5.701-4.011 9.897-5.619c8.389-3.214 19.998-5.208 32.833-5.208Z"/><path fill="#f0fdfa" stroke="#0d9488" stroke-width=".535" d="M440.541 208.939v11.804c0 1.652-.91 3.261-2.631 4.757s-4.224 2.854-7.343 4c-6.234 2.292-14.865 3.715-24.411 3.715s-18.176-1.423-24.411-3.715c-3.118-1.146-5.623-2.505-7.344-4-1.72-1.496-2.63-3.105-2.63-4.757v-11.804z"/><path fill="#f0fdfa" stroke="#0d9488" stroke-width=".535" d="M406.156 194.76c9.545.001 18.174 1.485 24.407 3.875 3.118 1.196 5.623 2.614 7.343 4.174 1.721 1.56 2.635 3.242 2.635 4.976s-.914 3.415-2.635 4.975c-1.72 1.561-4.225 2.978-7.343 4.173-6.233 2.391-14.862 3.875-24.407 3.875s-18.175-1.484-24.408-3.875c-3.117-1.195-5.621-2.612-7.342-4.173s-2.635-3.242-2.635-4.975c0-1.734.915-3.416 2.635-4.976 1.721-1.56 4.225-2.978 7.342-4.174 6.233-2.39 14.863-3.875 24.408-3.875Z"/><path fill="#ccfbf1" stroke="#f0fdfa" stroke-width=".535" d="M438.787 197.464v8.948c0 1.557-.861 3.075-2.493 4.488s-4.008 2.698-6.967 3.782c-5.917 2.167-14.109 3.513-23.171 3.513s-17.254-1.346-23.171-3.513c-2.959-1.084-5.335-2.369-6.966-3.782-1.633-1.413-2.494-2.931-2.494-4.488v-8.948z"/><path fill="#f0fdfa" stroke="#0d9488" stroke-width=".535" d="M440.541 189.475v11.804c0 1.653-.91 3.261-2.631 4.757s-4.224 2.855-7.343 4.001c-6.234 2.292-14.865 3.715-24.411 3.715s-18.176-1.423-24.411-3.715c-3.118-1.147-5.623-2.506-7.344-4.001-1.72-1.496-2.63-3.104-2.63-4.757v-11.804z"/><path fill="#f0fdfa" stroke="#0d9488" stroke-width=".535" d="M406.156 175.297c9.545 0 18.174 1.485 24.407 3.875 3.118 1.196 5.623 2.614 7.343 4.174 1.721 1.56 2.635 3.242 2.635 4.976s-.914 3.415-2.635 4.975c-1.72 1.561-4.225 2.977-7.343 4.173-6.233 2.391-14.862 3.875-24.407 3.875s-18.175-1.484-24.408-3.875c-3.117-1.195-5.621-2.613-7.342-4.173s-2.635-3.242-2.635-4.975c0-1.734.915-3.416 2.635-4.976 1.721-1.56 4.225-2.978 7.342-4.174 6.233-2.391 14.863-3.875 24.408-3.875Z"/><path fill="#0d9488" stroke="#f0fdfa" stroke-width=".535" d="M438.787 178v8.949c0 1.557-.861 3.075-2.493 4.488s-4.008 2.697-6.967 3.781c-5.917 2.168-14.109 3.514-23.171 3.514s-17.254-1.346-23.171-3.514c-2.959-1.084-5.335-2.368-6.966-3.781-1.633-1.413-2.494-2.931-2.494-4.488V178z"/><path fill="#f0fdfa" stroke="#0d9488" stroke-width=".535" d="M440.541 170.012v11.804c0 1.652-.91 3.261-2.631 4.757s-4.224 2.854-7.343 4c-6.234 2.292-14.865 3.715-24.411 3.715s-18.176-1.423-24.411-3.715c-3.118-1.146-5.623-2.505-7.344-4-1.72-1.496-2.63-3.105-2.63-4.757v-11.804z"/><path fill="#f0fdfa" stroke="#0d9488" stroke-width=".535" d="M406.156 155.833c9.545.001 18.174 1.485 24.407 3.875 3.118 1.196 5.623 2.614 7.343 4.174 1.721 1.56 2.635 3.242 2.635 4.976s-.914 3.415-2.635 4.975c-1.72 1.561-4.225 2.978-7.343 4.173-6.233 2.391-14.862 3.875-24.407 3.875s-18.175-1.484-24.408-3.875c-3.117-1.195-5.621-2.612-7.342-4.173s-2.635-3.242-2.635-4.975c0-1.734.915-3.416 2.635-4.976 1.721-1.56 4.225-2.978 7.342-4.174 6.233-2.39 14.863-3.875 24.408-3.875Z"/><path fill="#0d9488" stroke="#f0fdfa" stroke-width=".535" d="M438.787 158.537v8.948c0 1.557-.861 3.075-2.493 4.488s-4.008 2.698-6.967 3.782c-5.917 2.167-14.109 3.513-23.171 3.513s-17.254-1.346-23.171-3.513c-2.959-1.084-5.335-2.369-6.966-3.782-1.633-1.413-2.494-2.931-2.494-4.488v-8.948z"/><path fill="#f0fdfa" stroke="#0d9488" stroke-width=".535" d="M440.541 150.548v11.804c0 1.653-.91 3.261-2.631 4.757s-4.224 2.855-7.343 4.001c-6.234 2.292-14.865 3.715-24.411 3.715s-18.176-1.423-24.411-3.715c-3.118-1.147-5.623-2.506-7.344-4.001-1.72-1.496-2.63-3.104-2.63-4.757v-11.804z"/><path fill="#f0fdfa" stroke="#0d9488" stroke-width=".535" d="M406.156 136.37c9.545 0 18.174 1.484 24.407 3.875 3.118 1.196 5.623 2.614 7.343 4.174 1.721 1.56 2.635 3.242 2.635 4.976s-.914 3.415-2.635 4.975-4.225 2.977-7.343 4.173c-6.233 2.391-14.862 3.875-24.407 3.875s-18.175-1.484-24.408-3.875c-3.117-1.196-5.621-2.613-7.342-4.173s-2.635-3.242-2.635-4.975c0-1.734.915-3.416 2.635-4.976 1.721-1.56 4.225-2.978 7.342-4.174 6.233-2.391 14.863-3.875 24.408-3.875Z"/><path fill="url(#g)" fill-opacity=".5" d="M290.432 203.144c25.719 0 46.569 7.988 46.569 17.842s-20.85 17.842-46.569 17.842-46.569-7.989-46.569-17.842c0-9.854 20.85-17.842 46.569-17.842"/><path fill="#ccfbf1" stroke="#f0fdfa" stroke-width=".535" d="M290.432 203.412c12.835 0 24.444 1.993 32.834 5.208 4.195 1.607 7.572 3.514 9.895 5.619 2.324 2.104 3.572 4.385 3.572 6.747s-1.249 4.641-3.572 6.746c-2.323 2.104-5.7 4.013-9.895 5.62-8.39 3.214-19.999 5.208-32.834 5.208s-24.444-1.994-32.833-5.208c-4.196-1.607-7.573-3.516-9.897-5.62s-3.571-4.385-3.571-6.746 1.248-4.643 3.571-6.747 5.701-4.012 9.897-5.619c8.389-3.215 19.997-5.208 32.833-5.208Z"/><path fill="#f0fdfa" stroke="#0d9488" stroke-width=".535" d="M324.678 208.939v11.804c0 1.653-.91 3.261-2.631 4.757s-4.225 2.854-7.343 4.001c-6.234 2.292-14.865 3.715-24.411 3.715s-18.177-1.423-24.411-3.715c-3.118-1.147-5.624-2.506-7.344-4.001s-2.631-3.104-2.631-4.757v-11.804z"/><path fill="#f0fdfa" stroke="#0d9488" stroke-width=".535" d="M290.293 194.761c9.545 0 18.174 1.484 24.407 3.875 3.118 1.196 5.623 2.614 7.343 4.174s2.635 3.242 2.635 4.976-.915 3.415-2.635 4.975-4.225 2.977-7.343 4.173c-6.233 2.391-14.862 3.875-24.407 3.875s-18.175-1.484-24.408-3.875c-3.117-1.196-5.622-2.613-7.342-4.173s-2.636-3.242-2.636-4.975c0-1.734.916-3.416 2.636-4.976s4.224-2.978 7.342-4.174c6.233-2.391 14.863-3.875 24.408-3.875Z"/><path fill="#0d9488" stroke="#f0fdfa" stroke-width=".535" d="M322.924 197.464v8.949c0 1.557-.861 3.074-2.493 4.488-1.632 1.413-4.008 2.697-6.967 3.781-5.917 2.168-14.109 3.514-23.171 3.514s-17.254-1.346-23.171-3.514c-2.959-1.084-5.335-2.368-6.967-3.781s-2.493-2.931-2.493-4.488v-8.949z"/><path fill="#f0fdfa" stroke="#0d9488" stroke-width=".535" d="M324.678 189.476v11.804c0 1.652-.91 3.261-2.631 4.756s-4.225 2.855-7.343 4.001c-6.234 2.292-14.865 3.715-24.411 3.715s-18.177-1.423-24.411-3.715c-3.118-1.146-5.624-2.505-7.344-4.001-1.721-1.495-2.631-3.104-2.631-4.756v-11.804z"/><path fill="#f0fdfa" stroke="#0d9488" stroke-width=".535" d="M290.293 175.298c9.545 0 18.174 1.484 24.407 3.875 3.118 1.195 5.623 2.613 7.343 4.173s2.635 3.243 2.635 4.976-.915 3.416-2.635 4.976-4.225 2.977-7.343 4.172c-6.233 2.391-14.862 3.875-24.407 3.875s-18.175-1.484-24.408-3.875c-3.117-1.195-5.622-2.612-7.342-4.172s-2.636-3.243-2.636-4.976.916-3.415 2.636-4.976 4.224-2.978 7.342-4.173c6.233-2.391 14.863-3.875 24.408-3.875Z"/><path fill="#0d9488" stroke="#f0fdfa" stroke-width=".535" d="M322.924 178.001v8.948c0 1.557-.861 3.075-2.493 4.488s-4.008 2.697-6.967 3.782c-5.917 2.167-14.109 3.513-23.171 3.513s-17.254-1.346-23.171-3.513c-2.959-1.085-5.335-2.369-6.967-3.782s-2.493-2.931-2.493-4.488v-8.948z"/><path fill="#f0fdfa" stroke="#0d9488" stroke-width=".535" d="M324.678 170.012v11.804c0 1.653-.91 3.261-2.631 4.757s-4.225 2.854-7.343 4.001c-6.234 2.292-14.865 3.715-24.411 3.715s-18.177-1.423-24.411-3.715c-3.118-1.147-5.624-2.506-7.344-4.001s-2.631-3.104-2.631-4.757v-11.804z"/><path fill="#f0fdfa" stroke="#0d9488" stroke-width=".535" d="M290.293 155.834c9.545 0 18.174 1.484 24.407 3.875 3.118 1.196 5.623 2.614 7.343 4.174s2.635 3.242 2.635 4.976-.915 3.415-2.635 4.975-4.225 2.977-7.343 4.173c-6.233 2.391-14.862 3.875-24.407 3.875s-18.175-1.484-24.408-3.875c-3.117-1.196-5.622-2.613-7.342-4.173s-2.636-3.242-2.636-4.975c0-1.734.916-3.416 2.636-4.976s4.224-2.978 7.342-4.174c6.233-2.391 14.863-3.875 24.408-3.875Z"/><path fill="url(#h)" d="M174.568 203.144c25.719 0 46.569 7.988 46.57 17.841s-20.85 17.842-46.57 17.842S128 230.839 128 220.985s20.85-17.841 46.568-17.841"/><path fill="#99f6e4" stroke="#f0fdfa" stroke-width=".535" d="M174.568 203.411c12.836 0 24.445 1.994 32.834 5.208 4.196 1.608 7.573 3.515 9.896 5.62s3.572 4.385 3.572 6.747-1.249 4.641-3.572 6.746c-2.324 2.104-5.7 4.012-9.896 5.62-8.389 3.214-19.998 5.208-32.834 5.208-12.835 0-24.443-1.994-32.833-5.208-4.195-1.608-7.573-3.516-9.896-5.62s-3.571-4.385-3.571-6.746 1.247-4.643 3.571-6.747 5.701-4.012 9.896-5.62c8.39-3.214 19.998-5.208 32.833-5.208Z"/><path fill="#f0fdfa" stroke="#0d9488" stroke-width=".535" d="M208.814 208.939v11.804c0 1.652-.91 3.261-2.63 4.757-1.721 1.495-4.225 2.854-7.343 4-6.235 2.292-14.865 3.715-24.411 3.715s-18.177-1.423-24.411-3.715c-3.119-1.146-5.624-2.505-7.344-4s-2.631-3.105-2.631-4.757v-11.804z"/><path fill="#f0fdfa" stroke="#0d9488" stroke-width=".535" d="M174.43 194.761c9.544 0 18.174 1.484 24.407 3.875 3.117 1.196 5.622 2.614 7.343 4.174 1.72 1.56 2.634 3.242 2.634 4.975 0 1.734-.914 3.416-2.634 4.976-1.721 1.56-4.226 2.977-7.343 4.173-6.233 2.391-14.862 3.875-24.407 3.875s-18.175-1.484-24.409-3.875c-3.117-1.196-5.621-2.613-7.341-4.173-1.721-1.56-2.636-3.242-2.636-4.976s.915-3.415 2.636-4.975c1.72-1.56 4.224-2.978 7.341-4.174 6.234-2.391 14.864-3.875 24.409-3.875Z"/><path fill="#0d9488" stroke="#f0fdfa" stroke-width=".535" d="M207.06 197.464v8.948c-.001 1.558-.862 3.075-2.494 4.489-1.631 1.412-4.007 2.697-6.966 3.781-5.917 2.167-14.11 3.514-23.171 3.514s-17.254-1.347-23.171-3.514c-2.96-1.084-5.336-2.369-6.967-3.781-1.632-1.414-2.493-2.931-2.493-4.489v-8.948z"/><path fill="#f0fdfa" stroke="#0d9488" stroke-width=".535" d="M208.814 189.476v11.803c0 1.653-.91 3.261-2.63 4.757-1.721 1.495-4.225 2.855-7.343 4.001-6.235 2.292-14.865 3.715-24.411 3.715s-18.177-1.423-24.411-3.715c-3.119-1.146-5.624-2.506-7.344-4.001s-2.631-3.104-2.631-4.757v-11.803z"/><path fill="#f0fdfa" stroke="#0d9488" stroke-width=".535" d="M174.43 175.298c9.544 0 18.174 1.484 24.407 3.875 3.117 1.195 5.622 2.613 7.343 4.173 1.72 1.561 2.634 3.243 2.634 4.976s-.914 3.416-2.634 4.976c-1.721 1.56-4.226 2.977-7.343 4.172-6.233 2.391-14.862 3.875-24.407 3.875s-18.175-1.484-24.409-3.875c-3.117-1.195-5.621-2.612-7.341-4.172-1.721-1.56-2.636-3.243-2.636-4.976s.915-3.415 2.636-4.976c1.72-1.56 4.224-2.978 7.341-4.173 6.234-2.391 14.864-3.875 24.409-3.875Z"/><g filter="url(#i)"><rect width="386" height="40.402" x="70" y="32.069" fill="#f9fafb" rx="8"/><rect width="385" height="39.402" x="70.5" y="32.569" stroke="#e5e7eb" rx="7.5"/><g filter="url(#j)"><circle cx="86" cy="51.069" r="3" fill="#0d9488"/><circle cx="86" cy="51.069" r="2.689" stroke="#f3f4f6" stroke-width=".621"/></g><path fill="#6b7280" d="M101.92 56.869v-7.3h.9v1.05h.18l-.18.21q0-.63.41-.99.42-.37 1.1-.37.83 0 1.32.55.5.54.5 1.49v1.61q0 .63-.23 1.09a1.64 1.64 0 0 1-.63.71q-.4.25-.96.25-.67 0-1.09-.37t-.42-.99l.18.21h-.2l.02 1.25v1.6zm2.11-2.48q.57 0 .89-.34.33-.34.33-.98v-1.5q0-.64-.33-.98-.32-.34-.89-.34-.55 0-.88.35t-.33.97v1.5q0 .62.33.97t.88.35m5.966.76q-.66 0-1.14-.25a1.8 1.8 0 0 1-.75-.72q-.26-.48-.26-1.13v-1.46q0-.66.26-1.13.27-.471.75-.72.48-.25 1.14-.25t1.14.25.74.72q.27.47.27 1.12v1.47q0 .65-.27 1.13a1.75 1.75 0 0 1-.74.72q-.48.25-1.14.25m0-.8q.59 0 .92-.33t.33-.97v-1.46q0-.64-.33-.97t-.92-.33q-.58 0-.92.33-.33.33-.33.97v1.46q0 .64.33.97.34.33.92.33m5.826.8q-.56 0-.98-.17a1.7 1.7 0 0 1-.66-.5 1.54 1.54 0 0 1-.29-.76h.9q.06.29.32.46.27.17.71.17h.42q.53 0 .79-.21a.72.72 0 0 0 .26-.58.68.68 0 0 0-.24-.55q-.23-.21-.69-.28l-.74-.12q-.81-.14-1.21-.5-.39-.37-.39-1.07 0-.741.47-1.14.471-.41 1.41-.41h.38q.79 0 1.27.37t.58 1h-.9a.64.64 0 0 0-.3-.41q-.24-.16-.65-.16h-.38q-.51 0-.75.19-.23.189-.23.57 0 .34.2.5.201.16.63.23l.74.12q.891.14 1.29.52.41.38.41 1.1 0 .759-.49 1.2-.48.43-1.46.43zm6.766-.08q-.71 0-1.11-.38-.39-.38-.39-1.07v-3.23h-1.55v-.82h1.55v-1.55h.9v1.55h2.2v.82h-2.2v3.23q0 .63.6.63h1.5v.82zm4.006 1.8v-.82h1.75q.42 0 .61-.19.2-.19.2-.59v-.7l.02-1h-.18l.17-.15q0 .6-.4.95t-1.07.35q-.85 0-1.34-.55-.49-.561-.49-1.5v-1.16q0-.94.49-1.49t1.34-.55q.67 0 1.07.35t.4.95l-.17-.15h.17v-1.05h.89v5.7q0 .74-.46 1.17-.45.43-1.26.43zm1.37-2.93q.56 0 .88-.35t.32-.97v-1.05q0-.62-.32-.97t-.88-.35q-.57 0-.89.34-.31.34-.31.98v1.05q0 .64.31.98.32.34.89.34m4.126 1.13v-5.5h.88v1.05h.21l-.29.65q0-.89.38-1.34.39-.46 1.15-.46.87 0 1.38.55.52.54.52 1.47v.33h-.9v-.25q0-.651-.32-.99-.31-.35-.89-.35-.57 0-.9.35-.32.35-.32.99v3.5zm7.887.1q-.651 0-1.14-.26a1.9 1.9 0 0 1-.75-.73q-.26-.48-.26-1.11v-1.5q0-.64.26-1.11.27-.47.75-.73.489-.26 1.14-.26t1.13.26q.489.26.75.73.27.47.27 1.11v.97h-3.42v.53q0 .65.33 1 .33.34.94.34.519 0 .84-.18a.8.8 0 0 0 .39-.56h.9q-.09.69-.68 1.1-.58.4-1.45.4m1.27-3.23v-.37q0-.65-.33-1-.32-.35-.94-.35-.61 0-.94.35t-.33 1v.29h2.61zm4.556 3.21q-.56 0-.98-.17a1.66 1.66 0 0 1-.66-.5 1.5 1.5 0 0 1-.29-.76h.9q.06.29.32.46.27.17.71.17h.42q.53 0 .79-.21a.72.72 0 0 0 .26-.58.68.68 0 0 0-.24-.55q-.231-.21-.69-.28l-.74-.12q-.81-.14-1.21-.5-.39-.37-.39-1.07 0-.741.47-1.14.47-.41 1.41-.41h.38q.79 0 1.27.37t.58 1h-.9a.64.64 0 0 0-.3-.41q-.24-.16-.65-.16h-.38q-.51 0-.75.19-.23.189-.23.57 0 .34.2.5t.63.23l.74.12q.89.14 1.29.52.41.38.41 1.1 0 .759-.49 1.2-.48.43-1.46.43zm6.166-4.18q-.37 0-.6-.2a.7.7 0 0 1-.23-.55q0-.34.23-.54.23-.21.6-.21.38 0 .6.21a.68.68 0 0 1 .23.54.71.71 0 0 1-.23.55q-.22.2-.6.2m0 4.2q-.37 0-.6-.2a.7.7 0 0 1-.23-.55q0-.34.23-.54.23-.21.6-.21.38 0 .6.21a.68.68 0 0 1 .23.54.71.71 0 0 1-.23.55q-.22.2-.6.2m8.992 1 3.55-9.4h.95l-3.55 9.4zm-4.5 0 3.55-9.4h.95l-3.55 9.4zm11.396-1.1v-.82h1.98v-5.73l-1.98 1.48v-1l1.65-1.23h1.23v6.48h1.62v.82zm6.016 0v-.92l2.23-2.37q.57-.61.83-1.08.26-.48.26-.92 0-.61-.34-.96-.33-.35-.91-.35-.64 0-1.01.36-.36.36-.36.99h-.9q.02-.66.3-1.14.29-.49.79-.75.51-.26 1.18-.26.66 0 1.14.26.49.249.75.72.26.47.26 1.12 0 .62-.33 1.23t-1.08 1.39l-1.8 1.86h3.33v.82zm8.076.1a2.4 2.4 0 0 1-1.14-.26 1.9 1.9 0 0 1-.75-.73q-.26-.48-.26-1.11v-1.5q0-.64.26-1.11.27-.47.75-.73a2.4 2.4 0 0 1 1.14-.26q.65 0 1.13.26.49.26.75.73.27.47.27 1.11v.97h-3.42v.53q0 .65.33 1 .33.34.94.34.52 0 .84-.18a.79.79 0 0 0 .39-.56h.9a1.53 1.53 0 0 1-.68 1.1q-.58.4-1.45.4m1.27-3.23v-.37q0-.65-.33-1-.32-.35-.94-.35-.61 0-.94.35t-.33 1v.29h2.61zm4.706 3.23q-.89 0-1.46-.46t-.67-1.24h.9q.05.43.37.67.321.23.87.23.63 0 .94-.34.32-.34.32-.96v-.71q0-.621-.32-.96-.309-.34-.93-.34-.39 0-.68.21a1.13 1.13 0 0 0-.42.54h-.9l.05-4.04h3.84v.82h-2.97l-.03 2.43h.28l-.28.26q0-.47.37-.74.38-.27 1.01-.27.891-.01 1.38.55.5.55.5 1.54v.71q0 .97-.57 1.54-.57.56-1.6.56m5.696 0q-.82 0-1.33-.55-.5-.55-.5-1.49v-1.61q0-.951.5-1.5.5-.55 1.33-.55.68 0 1.09.37.41.369.41.99l-.18-.21h.2l-.02-1.25v-1.6h.9v7.3h-.9v-1.05h-.18l.18-.21q0 .63-.41 1-.41.36-1.09.36m.3-.78q.56 0 .88-.35t.32-.97v-1.5q0-.62-.32-.97t-.88-.35q-.57 0-.9.34t-.33.98v1.5q0 .64.33.98t.9.34m5.537.78q-.87 0-1.37-.44-.5-.45-.5-1.21 0-.77.5-1.21t1.35-.44h1.7v-.55q0-.51-.31-.78-.3-.28-.86-.28-.49 0-.82.21a.75.75 0 0 0-.38.55h-.9q.09-.71.67-1.13t1.45-.42q.95 0 1.5.49t.55 1.33v3.78h-.88v-1.05h-.15l.15-.15q0 .6-.47.95-.46.35-1.23.35m.22-.71q.639 0 1.05-.32a1 1 0 0 0 .41-.82v-.78h-1.68q-.45 0-.71.25t-.26.68q0 .46.31.73.32.26.88.26m5.776.71q-.87 0-1.37-.44-.5-.45-.5-1.21 0-.77.5-1.21t1.35-.44h1.7v-.55q0-.51-.31-.78-.3-.28-.86-.28-.49 0-.82.21a.75.75 0 0 0-.38.55h-.9q.09-.71.67-1.13t1.45-.42q.95 0 1.5.49t.55 1.33v3.78h-.88v-1.05h-.15l.15-.15q0 .6-.47.95-.46.35-1.23.35m.22-.71q.639 0 1.05-.32a1 1 0 0 0 .41-.82v-.78h-1.68q-.45 0-.71.25t-.26.68q0 .46.31.73.32.26.88.26m6.236.71q-.89 0-1.46-.46t-.67-1.24h.9a.93.93 0 0 0 .37.67q.32.23.87.23.63 0 .94-.34.32-.34.32-.96v-.71q0-.621-.32-.96-.31-.34-.93-.34-.39 0-.68.21a1.12 1.12 0 0 0-.42.54h-.9l.05-4.04h3.84v.82h-2.97l-.03 2.43h.28l-.28.26q0-.47.37-.74.38-.27 1.01-.27.89-.01 1.38.55.5.55.5 1.54v.71q0 .97-.57 1.54-.57.56-1.6.56m6.016-4.2q-.37 0-.6-.2a.7.7 0 0 1-.23-.55q0-.34.23-.54.23-.21.6-.21.38 0 .6.21a.68.68 0 0 1 .23.54.71.71 0 0 1-.23.55q-.22.2-.6.2m0 4.2q-.37 0-.6-.2a.7.7 0 0 1-.23-.55q0-.34.23-.54.23-.21.6-.21.38 0 .6.21a.68.68 0 0 1 .23.54.71.71 0 0 1-.23.55q-.22.2-.6.2m5.826-.02q-.56 0-.98-.17a1.7 1.7 0 0 1-.66-.5 1.5 1.5 0 0 1-.29-.76h.9q.06.29.32.46.27.17.71.17h.42q.53 0 .79-.21a.72.72 0 0 0 .26-.58.68.68 0 0 0-.24-.55q-.23-.21-.69-.28l-.74-.12q-.81-.14-1.21-.5-.39-.37-.39-1.07 0-.741.47-1.14.47-.41 1.41-.41h.38q.79 0 1.27.37t.58 1h-.9a.64.64 0 0 0-.3-.41q-.24-.16-.65-.16h-.38q-.51 0-.75.19-.23.189-.23.57 0 .34.2.5t.63.23l.74.12q.89.14 1.29.52.41.38.41 1.1 0 .759-.49 1.2-.48.43-1.46.43zm4.116-.08v-7.3h.9v4.07h1.06l1.6-2.27h1.03l-1.85 2.62 1.88 2.88h-1.05l-1.6-2.45h-1.07v2.45zm5.646 1v-.75h4.8v.75zm6.326-1v-7.3h.9v3.12h2.34v-3.12h.9v7.3h-.9v-3.36h-2.34v3.36zm7.896.08q-.56 0-.98-.17a1.7 1.7 0 0 1-.66-.5 1.54 1.54 0 0 1-.29-.76h.9q.06.29.32.46.27.17.71.17h.42q.53 0 .79-.21a.72.72 0 0 0 .26-.58.68.68 0 0 0-.24-.55q-.23-.21-.69-.28l-.74-.12q-.81-.14-1.21-.5-.39-.37-.39-1.07 0-.741.47-1.14.471-.41 1.41-.41h.38q.79 0 1.27.37t.58 1h-.9a.64.64 0 0 0-.3-.41q-.24-.16-.65-.16h-.38q-.51 0-.75.19-.23.189-.23.57 0 .34.2.5.201.16.63.23l.74.12q.891.14 1.29.52.41.38.41 1.1 0 .759-.49 1.2-.48.43-1.46.43zm4.166-.08v-7.3h4.2v.82h-3.31v2.26h2.96v.81h-2.96v2.59h3.31v.82zm8.036.1q-.66 0-1.16-.25a1.8 1.8 0 0 1-.76-.72q-.27-.48-.27-1.13v-1.5q0-.66.27-1.13.27-.471.76-.72.5-.25 1.16-.25.951 0 1.53.51t.61 1.39h-.9q-.03-.531-.36-.81-.32-.29-.88-.29-.59 0-.94.34-.35.33-.35.95v1.51q0 .62.35.96t.94.34q.56 0 .88-.29.33-.291.36-.81h.9q-.03.88-.61 1.39-.579.51-1.53.51m4.827-.1 2.07-3.32-.04-.03q-.19.28-.52.43t-.74.15q-.59 0-1.04-.28a1.83 1.83 0 0 1-.68-.79q-.24-.52-.24-1.21 0-.711.29-1.23.29-.53.81-.82.52-.3 1.21-.3.7 0 1.22.3.53.29.82.82.29.519.29 1.23 0 .549-.16 1.08a3.9 3.9 0 0 1-.46 1.02l-1.83 2.95zm1.13-3.5q.64 0 1.03-.42.39-.43.39-1.13t-.39-1.12q-.39-.43-1.03-.43t-1.03.43q-.39.42-.39 1.12t.39 1.13q.39.42 1.03.42m6.746 3.5q-.48 0-.84-.19a1.36 1.36 0 0 1-.56-.54 1.6 1.6 0 0 1-.2-.82v-4.93h-1.85v-.82h2.75v5.75q0 .339.19.54.189.19.51.19h1.75v.82zm3.176 0v-7.3h.9v3.12h2.34v-3.12h.9v7.3h-.9v-3.36h-2.34v3.36zm8.316 1.8q-.85 0-1.48-.36a2.4 2.4 0 0 1-.98-1.01q-.34-.651-.34-1.53v-3.4q0-.9.32-1.55.33-.65.93-1 .61-.35 1.45-.35.76 0 1.31.3.549.29.84.84.3.55.3 1.31v4.3h-.71v-.55h-.28l.19-.2q0 .38-.29.62-.29.23-.77.23-.65 0-1-.39-.34-.4-.34-1.16v-1.2q0-.76.34-1.15.35-.4 1-.4.48 0 .77.24a.75.75 0 0 1 .29.62l-.14-.21h.24l-.1-.7v-.05q0-.57-.19-.96a1.3 1.3 0 0 0-.56-.59q-.36-.2-.9-.2-.9 0-1.4.58-.5.579-.5 1.62v3.4q0 1 .53 1.57.54.58 1.47.58h.7v.75zm.75-2.98q.41 0 .6-.25.2-.25.2-.77v-1.11q0-.471-.2-.69-.19-.22-.6-.22-.4 0-.6.23-.2.219-.2.69v1.2q0 .47.2.7.2.22.6.22m4.676 1.28q-.82 0-1.33-.55-.5-.55-.5-1.49v-1.61q0-.951.5-1.5.5-.55 1.33-.55.68 0 1.09.37.41.369.41.99l-.18-.21h.2l-.02-1.25v-1.6h.9v7.3h-.9v-1.05h-.18l.18-.21q0 .63-.41 1-.41.36-1.09.36m.3-.78q.56 0 .88-.35t.32-.97v-1.5q0-.62-.32-.97t-.88-.35q-.57 0-.9.34t-.33.98v1.5q0 .64.33.98t.9.34m6.336.78q-.68 0-1.09-.36-.41-.37-.41-1l.18.21h-.18v1.05h-.9v-7.3h.9v1.6l-.02 1.25h.2l-.18.21q0-.621.41-.99.42-.37 1.09-.37.83 0 1.33.55.5.549.5 1.5v1.61q0 .94-.5 1.49t-1.33.55m-.3-.78q.57 0 .9-.34t.33-.98v-1.5q0-.64-.33-.98t-.9-.34q-.55 0-.88.35-.32.35-.32.97v1.5q0 .62.32.97.33.35.88.35m5.976.78q-.38 0-.61-.22-.22-.22-.22-.59 0-.39.22-.62.23-.23.61-.23t.6.23q.23.23.23.62 0 .37-.23.59-.22.22-.6.22m3.916 1.7v-7.3h.9v1.05h.18l-.18.21q0-.63.41-.99.42-.37 1.1-.37.831 0 1.32.55.5.54.5 1.49v1.61q0 .63-.23 1.09a1.63 1.63 0 0 1-.63.71q-.399.25-.96.25-.67 0-1.09-.37t-.42-.99l.18.21h-.2l.02 1.25v1.6zm2.11-2.48q.57 0 .89-.34.33-.34.33-.98v-1.5q0-.64-.33-.98-.32-.34-.89-.34-.55 0-.88.35t-.33.97v1.5q0 .62.33.97t.88.35m4.076.68v-5.5h.88v1.05h.21l-.29.65q0-.89.38-1.34.39-.46 1.15-.46.87 0 1.38.55.52.54.52 1.47v.33h-.9v-.25q0-.651-.32-.99-.31-.35-.89-.35-.57 0-.9.35-.32.35-.32.99v3.5zm5.736 0v-.82h1.95v-3.86h-1.7v-.82h2.6v4.68h1.85v.82zm2.3-6.49q-.33 0-.52-.17a.59.59 0 0 1-.19-.46.6.6 0 0 1 .19-.47q.19-.18.52-.18t.52.18q.19.17.19.47a.59.59 0 0 1-.19.46q-.19.17-.52.17m5.676 6.57q-.56 0-.98-.17a1.7 1.7 0 0 1-.66-.5 1.54 1.54 0 0 1-.29-.76h.9q.06.29.32.46.27.17.71.17h.42q.53 0 .79-.21a.72.72 0 0 0 .26-.58.68.68 0 0 0-.24-.55q-.23-.21-.69-.28l-.74-.12q-.81-.14-1.21-.5-.39-.37-.39-1.07 0-.741.47-1.14.471-.41 1.41-.41h.38q.79 0 1.27.37t.58 1h-.9a.64.64 0 0 0-.3-.41q-.24-.16-.65-.16h-.38q-.51 0-.75.19-.23.189-.23.57 0 .34.2.5.201.16.63.23l.74.12q.891.14 1.29.52.41.38.41 1.1 0 .759-.49 1.2-.48.43-1.46.43zm3.827-.08v-5.5h.79v.66h.18l-.14.24q0-.46.24-.73.25-.27.67-.27.46 0 .71.34.25.339.25.96l-.27-.54h.42l-.19.24q0-.46.25-.73.26-.27.68-.27.52 0 .8.39.29.39.29 1.03v4.18h-.83v-4.19q0-.34-.15-.53-.141-.19-.42-.19a.53.53 0 0 0-.43.19q-.15.18-.15.52v4.2h-.72v-4.19q0-.35-.16-.53a.52.52 0 0 0-.43-.19q-.28 0-.42.19-.14.18-.14.52v4.2zm7.856.1q-.87 0-1.37-.44-.5-.45-.5-1.21 0-.77.5-1.21t1.35-.44h1.7v-.55q0-.51-.31-.78-.3-.28-.86-.28-.49 0-.82.21a.75.75 0 0 0-.38.55h-.9q.09-.71.67-1.13t1.45-.42q.95 0 1.5.49t.55 1.33v3.78h-.88v-1.05h-.15l.15-.15q0 .6-.47.95-.46.35-1.23.35m.22-.71q.639 0 1.05-.32a1 1 0 0 0 .41-.82v-.78h-1.68q-.45 0-.71.25t-.26.68q0 .46.31.73.32.26.88.26m6.256.71q-.38 0-.61-.22-.22-.22-.22-.59 0-.39.22-.62.23-.23.61-.23t.6.23q.23.23.23.62 0 .37-.23.59-.22.22-.6.22m3.846-.1v-.82h1.95v-3.86h-1.7v-.82h2.6v4.68h1.85v.82zm2.3-6.49q-.33 0-.52-.17a.59.59 0 0 1-.19-.46q0-.3.19-.47.19-.18.52-.18t.52.18q.19.17.19.47a.59.59 0 0 1-.19.46q-.19.17-.52.17m5.846 6.57q-.66 0-1.14-.25a1.8 1.8 0 0 1-.75-.72q-.26-.48-.26-1.13v-1.46q0-.66.26-1.13.27-.471.75-.72.48-.25 1.14-.25t1.14.25.74.72q.27.47.27 1.12v1.47q0 .65-.27 1.13a1.75 1.75 0 0 1-.74.72q-.48.25-1.14.25m0-.8q.59 0 .92-.33t.33-.97v-1.46q0-.64-.33-.97t-.92-.33q-.58 0-.92.33-.33.33-.33.97v1.46q0 .64.33.97.34.33.92.33m5.996-3.38q-.37 0-.6-.2a.71.71 0 0 1-.23-.55.68.68 0 0 1 .23-.54q.23-.21.6-.21.38 0 .6.21a.68.68 0 0 1 .23.54.71.71 0 0 1-.23.55q-.22.2-.6.2m0 4.2q-.37 0-.6-.2a.71.71 0 0 1-.23-.55.68.68 0 0 1 .23-.54q.23-.21.6-.21.38 0 .6.21a.68.68 0 0 1 .23.54.71.71 0 0 1-.23.55q-.22.2-.6.2m5.976 0q-.89 0-1.46-.46t-.67-1.24h.9q.05.43.37.67.32.23.87.23.63 0 .94-.34.32-.34.32-.96v-.71q0-.621-.32-.96-.31-.34-.93-.34-.39 0-.68.21a1.13 1.13 0 0 0-.42.54h-.9l.05-4.04h3.84v.82h-2.97l-.03 2.43h.28l-.28.26q0-.47.37-.74.38-.27 1.01-.27.89-.01 1.38.55.5.55.5 1.54v.71q0 .97-.57 1.54-.57.56-1.6.56m7.116-.1v-1.6h-3.3v-1.41l2.89-4.29h.98l-2.97 4.48v.4h2.4v-1.78h.9v4.2zm4.786.1q-.66 0-1.16-.26a1.94 1.94 0 0 1-.76-.74 2.17 2.17 0 0 1-.27-1.1h.9q0 .609.34.96.351.34.96.34.621 0 .96-.36.34-.36.34-.94v-.52q0-.621-.34-.96-.339-.34-.96-.34h-.75v-.9l1.81-1.76h-2.96v-.82h3.87v.9l-1.95 1.89v-.11q1 0 1.59.57t.59 1.53v.52q0 .63-.28 1.1-.27.47-.77.74-.5.26-1.16.26m4.026-.1v-.92l2.23-2.37q.57-.61.83-1.08.26-.48.26-.92 0-.61-.34-.96-.33-.35-.91-.35-.64 0-1.01.36-.36.36-.36.99h-.9q.021-.66.3-1.14a1.95 1.95 0 0 1 .79-.75q.51-.26 1.18-.26.66 0 1.14.26.49.249.75.72.26.47.26 1.12 0 .62-.33 1.23t-1.08 1.39l-1.8 1.86h3.33v.82zm5.827 1.1 3.55-9.4h.95l-3.55 9.4zm6.166.7v-7.3h.9v1.05h.18l-.18.21q0-.63.41-.99.42-.37 1.1-.37.83 0 1.32.55.5.54.5 1.49v1.61q0 .63-.23 1.09a1.64 1.64 0 0 1-.63.71q-.4.25-.96.25-.67 0-1.09-.37t-.42-.99l.18.21h-.2l.02 1.25v1.6zm2.11-2.48q.57 0 .89-.34.33-.34.33-.98v-1.5q0-.64-.33-.98-.32-.34-.89-.34-.55 0-.88.35t-.33.97v1.5q0 .62.33.97t.88.35m5.966.76q-.66 0-1.14-.25a1.8 1.8 0 0 1-.75-.72q-.26-.48-.26-1.13v-1.46q0-.66.26-1.13.27-.471.75-.72.48-.25 1.14-.25t1.14.25.74.72q.27.47.27 1.12v1.47q0 .65-.27 1.13-.26.47-.74.72t-1.14.25m0-.8q.59 0 .92-.33t.33-.97v-1.46q0-.64-.33-.97t-.92-.33q-.58 0-.92.33-.33.33-.33.97v1.46q0 .64.33.97.34.33.92.33m5.826.8q-.56 0-.98-.17a1.66 1.66 0 0 1-.66-.5 1.5 1.5 0 0 1-.29-.76h.9q.06.29.32.46.27.17.71.17h.42q.53 0 .79-.21a.72.72 0 0 0 .26-.58.68.68 0 0 0-.24-.55q-.231-.21-.69-.28l-.74-.12q-.81-.14-1.21-.5-.39-.37-.39-1.07 0-.741.47-1.14.47-.41 1.41-.41h.38q.79 0 1.27.37t.58 1h-.9a.64.64 0 0 0-.3-.41q-.24-.16-.65-.16h-.38q-.51 0-.75.19-.23.189-.23.57 0 .34.2.5t.63.23l.74.12q.89.14 1.29.52.41.38.41 1.1 0 .759-.49 1.2-.48.43-1.46.43zm6.766-.08q-.71 0-1.11-.38-.39-.38-.39-1.07v-3.23h-1.55v-.82h1.55v-1.55h.9v1.55h2.2v.82h-2.2v3.23q0 .63.6.63h1.5v.82zm4.006 1.8v-.82h1.75q.42 0 .61-.19.2-.19.2-.59v-.7l.02-1h-.18l.17-.15q0 .6-.4.95t-1.07.35q-.85 0-1.34-.55-.49-.561-.49-1.5v-1.16q0-.94.49-1.49t1.34-.55q.67 0 1.07.35t.4.95l-.17-.15h.17v-1.05h.89v5.7q0 .74-.46 1.17-.45.43-1.26.43zm1.37-2.93q.56 0 .88-.35t.32-.97v-1.05q0-.62-.32-.97t-.88-.35q-.57 0-.89.34-.31.34-.31.98v1.05q0 .64.31.98.32.34.89.34m4.126 1.13v-5.5h.88v1.05h.21l-.29.65q0-.89.38-1.34.39-.46 1.15-.46.87 0 1.38.55.52.54.52 1.47v.33h-.9v-.25q0-.651-.32-.99-.31-.35-.89-.35-.57 0-.9.35-.32.35-.32.99v3.5zm7.886.1a2.4 2.4 0 0 1-1.14-.26 1.9 1.9 0 0 1-.75-.73q-.26-.48-.26-1.11v-1.5q0-.64.26-1.11.27-.47.75-.73a2.4 2.4 0 0 1 1.14-.26q.65 0 1.13.26.49.26.75.73.27.47.27 1.11v.97h-3.42v.53q0 .65.33 1 .33.34.94.34.52 0 .84-.18a.8.8 0 0 0 .39-.56h.9q-.09.69-.68 1.1-.58.4-1.45.4m1.27-3.23v-.37q0-.65-.33-1-.32-.35-.94-.35-.61 0-.94.35t-.33 1v.29h2.61zm4.556 3.21q-.56 0-.98-.17a1.7 1.7 0 0 1-.66-.5 1.54 1.54 0 0 1-.29-.76h.9q.06.29.32.46.27.17.71.17h.42q.53 0 .79-.21a.72.72 0 0 0 .26-.58.68.68 0 0 0-.24-.55q-.23-.21-.69-.28l-.74-.12q-.81-.14-1.21-.5-.39-.37-.39-1.07 0-.741.47-1.14.471-.41 1.41-.41h.38q.79 0 1.27.37t.58 1h-.9a.64.64 0 0 0-.3-.41q-.24-.16-.65-.16h-.38q-.51 0-.75.19-.23.189-.23.57 0 .34.2.5.201.16.63.23l.74.12q.891.14 1.29.52.41.38.41 1.1 0 .759-.49 1.2-.48.43-1.46.43z"/></g><defs><linearGradient id="c" x1="281.5" x2="184" y1="457.2" y2="-16.3" gradientUnits="userSpaceOnUse"><stop stop-color="#f0fdfa"/><stop offset="1" stop-color="#fff" stop-opacity="0"/></linearGradient><linearGradient id="d" x1="143" x2="268" y1="257.2" y2="257.2" gradientUnits="userSpaceOnUse"><stop stop-color="#fff"/><stop offset="1" stop-color="#71e8df"/></linearGradient><linearGradient id="e" x1="288" x2="413" y1="257.2" y2="257.2" gradientUnits="userSpaceOnUse"><stop stop-color="#fff"/><stop offset="1" stop-color="#71e8df"/></linearGradient><linearGradient id="f" x1="406.296" x2="406.296" y1="123.8" y2="213.584" gradientUnits="userSpaceOnUse"><stop stop-color="#3f827d" stop-opacity="0"/><stop offset="1" stop-color="#71e8df"/></linearGradient><linearGradient id="g" x1="290.432" x2="290.432" y1="205.973" y2="271.916" gradientUnits="userSpaceOnUse"><stop stop-color="#3f827d" stop-opacity="0"/><stop offset="1" stop-color="#71e8df"/></linearGradient><linearGradient id="h" x1="174.569" x2="174.569" y1="209.992" y2="297.914" gradientUnits="userSpaceOnUse"><stop stop-color="#3f827d" stop-opacity="0"/><stop offset="1" stop-color="#71e8df"/></linearGradient><filter id="a" width="432.6" height="242.6" x="7.7" y="0" color-interpolation-filters="sRGB" filterUnits="userSpaceOnUse"><feFlood flood-opacity="0" result="BackgroundImageFix"/><feColorMatrix in="SourceAlpha" result="hardAlpha" values="0 0 0 0 0 0 0 0 0 0 0 0 0 0 0 0 0 0 127 0"/><feOffset dy=".224"/><feGaussianBlur stdDeviation=".336"/><feColorMatrix values="0 0 0 0 0 0 0 0 0 0.0745098 0 0 0 0 0.207843 0 0 0 0.0168687 0"/><feBlend in2="BackgroundImageFix" result="effect1_dropShadow_2168_13501"/><feColorMatrix in="SourceAlpha" result="hardAlpha" values="0 0 0 0 0 0 0 0 0 0 0 0 0 0 0 0 0 0 127 0"/><feOffset dy=".539"/><feGaussianBlur stdDeviation=".808"/><feColorMatrix values="0 0 0 0 0 0 0 0 0 0.0745098 0 0 0 0 0.207843 0 0 0 0.0242336 0"/><feBlend in2="effect1_dropShadow_2168_13501" result="effect2_dropShadow_2168_13501"/><feColorMatrix in="SourceAlpha" result="hardAlpha" values="0 0 0 0 0 0 0 0 0 0 0 0 0 0 0 0 0 0 127 0"/><feOffset dy="1.014"/><feGaussianBlur stdDeviation="1.521"/><feColorMatrix values="0 0 0 0 0 0 0 0 0 0.0745098 0 0 0 0 0.207843 0 0 0 0.03 0"/><feBlend in2="effect2_dropShadow_2168_13501" result="effect3_dropShadow_2168_13501"/><feColorMatrix in="SourceAlpha" result="hardAlpha" values="0 0 0 0 0 0 0 0 0 0 0 0 0 0 0 0 0 0 127 0"/><feOffset dy="1.809"/><feGaussianBlur stdDeviation="2.714"/><feColorMatrix values="0 0 0 0 0 0 0 0 0 0.0745098 0 0 0 0 0.207843 0 0 0 0.0357664 0"/><feBlend in2="effect3_dropShadow_2168_13501" result="effect4_dropShadow_2168_13501"/><feColorMatrix in="SourceAlpha" result="hardAlpha" values="0 0 0 0 0 0 0 0 0 0 0 0 0 0 0 0 0 0 127 0"/><feOffset dy="3.384"/><feGaussianBlur stdDeviation="5.076"/><feColorMatrix values="0 0 0 0 0 0 0 0 0 0.0745098 0 0 0 0 0.207843 0 0 0 0.0431313 0"/><feBlend in2="effect4_dropShadow_2168_13501" result="effect5_dropShadow_2168_13501"/><feColorMatrix in="SourceAlpha" result="hardAlpha" values="0 0 0 0 0 0 0 0 0 0 0 0 0 0 0 0 0 0 127 0"/><feOffset dy="8.1"/><feGaussianBlur stdDeviation="12.15"/><feColorMatrix values="0 0 0 0 0 0 0 0 0 0.0745098 0 0 0 0 0.207843 0 0 0 0.06 0"/><feBlend in2="effect5_dropShadow_2168_13501" result="effect6_dropShadow_2168_13501"/><feBlend in="SourceGraphic" in2="effect6_dropShadow_2168_13501" result="shape"/></filter><filter id="i" width="396.518" height="50.92" x="64.741" y="30.19" color-interpolation-filters="sRGB" filterUnits="userSpaceOnUse"><feFlood flood-opacity="0" result="BackgroundImageFix"/><feColorMatrix in="SourceAlpha" result="hardAlpha" values="0 0 0 0 0 0 0 0 0 0 0 0 0 0 0 0 0 0 127 0"/><feOffset dy="1.223"/><feGaussianBlur stdDeviation=".951"/><feColorMatrix values="0 0 0 0 0 0 0 0 0 0 0 0 0 0 0 0 0 0 0.142849 0"/><feBlend in2="BackgroundImageFix" result="effect1_dropShadow_2168_13501"/><feColorMatrix in="SourceAlpha" result="hardAlpha" values="0 0 0 0 0 0 0 0 0 0 0 0 0 0 0 0 0 0 127 0"/><feOffset dy="3.381"/><feGaussianBlur stdDeviation="2.63"/><feColorMatrix values="0 0 0 0 0 0 0 0 0 0 0 0 0 0 0 0 0 0 0.205 0"/><feBlend in2="effect1_dropShadow_2168_13501" result="effect2_dropShadow_2168_13501"/><feBlend in="SourceGraphic" in2="effect2_dropShadow_2168_13501" result="shape"/></filter><filter id="j" width="38" height="38" x="67" y="32.069" color-interpolation-filters="sRGB" filterUnits="userSpaceOnUse"><feFlood flood-opacity="0" result="BackgroundImageFix"/><feColorMatrix in="SourceAlpha" result="hardAlpha" values="0 0 0 0 0 0 0 0 0 0 0 0 0 0 0 0 0 0 127 0"/><feOffset/><feGaussianBlur stdDeviation=".221"/><feColorMatrix values="0 0 0 0 0.254902 0 0 0 0 0.764706 0 0 0 0 0.694118 0 0 0 0.106835 0"/><feBlend in2="BackgroundImageFix" result="effect1_dropShadow_2168_13501"/><feColorMatrix in="SourceAlpha" result="hardAlpha" values="0 0 0 0 0 0 0 0 0 0 0 0 0 0 0 0 0 0 127 0"/><feOffset/><feGaussianBlur stdDeviation=".532"/><feColorMatrix values="0 0 0 0 0.254902 0 0 0 0 0.764706 0 0 0 0 0.694118 0 0 0 0.153479 0"/><feBlend in2="effect1_dropShadow_2168_13501" result="effect2_dropShadow_2168_13501"/><feColorMatrix in="SourceAlpha" result="hardAlpha" values="0 0 0 0 0 0 0 0 0 0 0 0 0 0 0 0 0 0 127 0"/><feOffset/><feGaussianBlur stdDeviation="1.002"/><feColorMatrix values="0 0 0 0 0.254902 0 0 0 0 0.764706 0 0 0 0 0.694118 0 0 0 0.19 0"/><feBlend in2="effect2_dropShadow_2168_13501" result="effect3_dropShadow_2168_13501"/><feColorMatrix in="SourceAlpha" result="hardAlpha" values="0 0 0 0 0 0 0 0 0 0 0 0 0 0 0 0 0 0 127 0"/><feOffset/><feGaussianBlur stdDeviation="1.787"/><feColorMatrix values="0 0 0 0 0.254902 0 0 0 0 0.764706 0 0 0 0 0.694118 0 0 0 0.226521 0"/><feBlend in2="effect3_dropShadow_2168_13501" result="effect4_dropShadow_2168_13501"/><feColorMatrix in="SourceAlpha" result="hardAlpha" values="0 0 0 0 0 0 0 0 0 0 0 0 0 0 0 0 0 0 127 0"/><feOffset/><feGaussianBlur stdDeviation="3.342"/><feColorMatrix values="0 0 0 0 0.254902 0 0 0 0 0.764706 0 0 0 0 0.694118 0 0 0 0.273165 0"/><feBlend in2="effect4_dropShadow_2168_13501" result="effect5_dropShadow_2168_13501"/><feColorMatrix in="SourceAlpha" result="hardAlpha" values="0 0 0 0 0 0 0 0 0 0 0 0 0 0 0 0 0 0 127 0"/><feOffset/><feGaussianBlur stdDeviation="8"/><feColorMatrix values="0 0 0 0 0.254902 0 0 0 0 0.764706 0 0 0 0 0.694118 0 0 0 0.38 0"/><feBlend in2="effect5_dropShadow_2168_13501" result="effect6_dropShadow_2168_13501"/><feBlend in="SourceGraphic" in2="effect6_dropShadow_2168_13501" result="shape"/></filter><clipPath id="b"><rect width="384" height="194" x="32" y="16.2" fill="#fff" rx="9"/></clipPath></defs></svg>