<svg xmlns="http://www.w3.org/2000/svg" fill="none" viewBox="42.52 171.9 481.92 249.93"><g stroke="#2dd4bf" stroke-width=".642" opacity=".42"><path d="M283.482 331.743c21.6 0 41.14 3.301 55.269 8.629 7.065 2.664 12.761 5.828 16.684 9.326s6.048 7.301 6.048 11.255c0 3.953-2.124 7.757-6.048 11.255-3.923 3.497-9.619 6.662-16.684 9.326-14.129 5.327-33.669 8.629-55.269 8.629-21.599 0-41.14-3.302-55.268-8.629-7.066-2.664-12.762-5.829-16.686-9.326s-6.047-7.302-6.047-11.255 2.124-7.758 6.047-11.255c3.924-3.498 9.62-6.662 16.686-9.326 14.128-5.328 33.669-8.629 55.268-8.629Z" opacity=".8"/><path d="M283.481 315.243c29.164 0 55.552 4.451 74.638 11.637 9.544 3.594 17.245 7.865 22.555 12.592s8.2 9.882 8.2 15.253-2.891 10.527-8.2 15.254c-5.31 4.726-13.011 8.997-22.555 12.591-19.086 7.186-45.474 11.637-74.638 11.637-29.163 0-55.551-4.451-74.637-11.637-9.544-3.594-17.246-7.865-22.555-12.591-5.31-4.727-8.199-9.883-8.199-15.254s2.889-10.526 8.199-15.253c5.309-4.727 13.011-8.998 22.555-12.592 19.086-7.186 45.474-11.637 74.637-11.637Z" opacity=".6"/><path d="M283.482 297.032c37.673 0 71.765 5.792 96.427 15.147 12.332 4.678 22.289 10.24 29.158 16.4s10.623 12.892 10.623 19.919-3.754 13.758-10.623 19.918-16.826 11.723-29.158 16.401c-24.662 9.354-58.754 15.146-96.427 15.146-37.672 0-71.764-5.792-96.426-15.146-12.332-4.678-22.29-10.241-29.159-16.401s-10.622-12.891-10.622-19.918 3.753-13.759 10.622-19.919 16.827-11.722 29.159-16.4c24.662-9.354 58.754-15.147 96.426-15.147Z" opacity=".45"/><path d="M283.482 278.821c46.418 0 88.428 7.134 118.821 18.657 15.198 5.762 27.474 12.616 35.946 20.209 8.472 7.594 13.111 15.902 13.111 24.583 0 8.682-4.64 16.989-13.111 24.583s-20.748 14.447-35.946 20.209c-30.393 11.523-72.403 18.657-118.821 18.657s-88.429-7.134-118.822-18.657c-15.198-5.762-27.474-12.615-35.945-20.209s-13.112-15.901-13.112-24.583 4.64-16.989 13.112-24.583c8.471-7.593 20.747-14.447 35.945-20.209 30.393-11.523 72.404-18.657 118.822-18.657Z" opacity=".3"/><path d="M283.481 258.042c56.819 0 108.244 8.763 145.453 22.919 18.606 7.079 33.64 15.499 44.018 24.834s16.071 19.557 16.071 30.248-5.694 20.913-16.071 30.247c-10.378 9.335-25.412 17.756-44.018 24.835-37.209 14.156-88.634 22.919-145.453 22.919-56.818 0-108.243-8.763-145.452-22.919-18.606-7.079-33.64-15.5-44.017-24.835S77.94 346.734 77.94 336.043s5.694-20.913 16.072-30.248 25.412-17.755 44.017-24.834c37.209-14.156 88.634-22.919 145.452-22.919Z" opacity=".2"/><path d="M283.482 238.119c66.51 0 126.709 10.295 170.269 26.93 21.781 8.317 39.384 18.214 51.538 29.187s18.83 22.997 18.83 35.579-6.677 24.606-18.83 35.579c-12.154 10.973-29.757 20.87-51.538 29.188-43.56 16.634-103.759 26.929-170.269 26.929s-126.709-10.295-170.268-26.929c-21.781-8.318-39.386-18.215-51.54-29.188s-18.828-22.996-18.828-35.579c0-12.582 6.675-24.606 18.829-35.579s29.758-20.87 51.539-29.187c43.559-16.635 103.758-26.93 170.268-26.93Z" opacity=".1"/></g><path fill="#0a101d" stroke="#2dd4bf" stroke-linejoin="round" stroke-width=".535" d="M287.29 186.429c4.97-2.629 11.607-2.196 18.881 1.782l.706.396.481.283c10.036 5.992 18.727 17.22 23.529 29.286 2.538-.09 5.376.664 8.326 2.433h-.001c4.895 2.818 9.306 7.652 12.493 13.183 3.187 5.532 5.164 11.786 5.164 17.453 0 1.77-.006 3.051-.013 3.956 3.853 2.263 7.339 6.101 9.869 10.475 2.557 4.419 4.153 9.411 4.153 13.918 0 4.504-1.582 7.751-4.225 9.285s-6.252 1.299-10.184-.953l-.001-.001-71.634-41.361c-4.897-2.817-9.31-7.653-12.497-13.185-3.188-5.532-5.164-11.786-5.164-17.453 0-5.633 1.18-9.051 3.275-10.929 2.037-1.827 4.868-2.134 8.089-1.723.415-8.304 3.667-14.155 8.753-16.845Z"/><path fill="#0a101d" stroke="#2dd4bf" stroke-linejoin="round" stroke-width=".535" d="M310.328 173.801c4.935-2.659 11.668-2.162 19.119 2.125 10.161 5.872 19.022 17.237 23.852 29.476a.27.27 0 0 0 .263.169c2.46-.129 5.263.582 8.213 2.353l.004.002c4.796 2.759 9.147 7.517 12.3 12.989s5.094 11.633 5.094 17.185c0 2.063.036 2.801.048 3.17.005.182.005.259-.007.361-.013.106-.038.235-.083.506a.4.4 0 0 0-.013.092l.002.03.002.009v.006h.001v.001a.27.27 0 0 0 .264.226l.007-.001c3.766 2.202 7.204 5.972 9.707 10.299 2.522 4.36 4.08 9.26 4.08 13.65 0 2.22-.079 3.745-.226 4.811-.147 1.069-.36 1.647-.605 1.998-.239.339-.526.491-.916.668-.392.176-.88.373-1.411.815l-.002.002c-.433.371-.934.625-1.528.889l-.025.012-19.639 11.325c1.357-1.754 2.115-4.276 2.115-7.375 0-4.506-1.578-9.499-4.127-13.918-2.548-4.42-6.081-8.293-10.015-10.546l-.014-.008-.155-.08c.24-1.177.303-2.464.303-3.796 0-5.635-1.977-11.872-5.165-17.403-3.187-5.532-7.598-10.385-12.495-13.236l-.003-.001-.576-.316c-2.791-1.484-5.425-2.195-7.745-2.114-4.944-12.192-13.835-23.651-24.008-29.569h-.001c-6.103-3.511-11.765-4.553-16.434-3.389l19.82-11.416z"/><g filter="url(#a)"><path fill="#f9fafb" d="M272.603 256.611c-.121.49-.545.595-.97.35-.606-.35-1.091-1.19-.97-1.82 1.395-6.124 6.79-8.259 13.276-4.515 4.91 2.835 9.214 8.4 11.638 14.349v-4.269c0-.56.425-.875.97-.56.485.28.97 1.12.97 1.68v6.719c0 .63-.485.84-.97.56l-.97-.56-4.849-2.8c-.546-.315-.97-1.05-.97-1.68 0-.56.424-.875.97-.56l3.273 1.89c-2-5.144-5.758-10.044-10.062-12.529-5.516-3.185-10.123-1.435-11.336 3.745m22.611 19.424c.121-.49.545-.665 1.03-.385.546.315 1.031 1.224.909 1.854-1.394 6.125-6.789 8.19-13.214 4.48-4.971-2.87-9.275-8.364-11.639-14.279v4.2c0 .63-.424.875-.97.56-.545-.315-.97-1.05-.97-1.68v-6.72c0-.56.425-.875.97-.56l.91.525 4.91 2.835c.545.315.969 1.12.969 1.68 0 .63-.424.875-.969.56l-3.334-1.925c2 5.215 5.758 10.044 10.123 12.564 5.455 3.15 10.062 1.47 11.275-3.709"/></g><path fill="#0a101d" stroke="#2dd4bf" stroke-linejoin="round" stroke-width=".535" d="m230.151 243.097 10.896-6.279c-12.188-7.295-23.177-15.513-31.025-22.992l-10.896 6.279c7.849 7.479 18.837 15.79 31.025 22.992Z"/><path fill="#0a101d" stroke="#2dd4bf" stroke-linejoin="round" stroke-width=".535" d="M230.151 243.097c-12.281-7.203-23.177-15.513-31.025-22.992-5.725-1.108-13.205-3.786-21.607-7.941a158 158 0 0 1-9.419-4.987c-10.342 48.755 31.026 92.893 31.026 92.893s7.941.738 15.974-3.601l1.939-1.201q1.94-1.247 3.879-3.047c7.941-7.387 13.943-21.7 9.233-49.216z"/><path fill="#0a101d" stroke="#2dd4bf" stroke-linejoin="round" stroke-width=".535" d="m199.126 220.012 10.896-6.279c-7.849-1.57-18.837-6.002-31.026-12.835l-10.896 6.279a157 157 0 0 0 9.419 4.986c8.403 4.063 15.882 6.741 21.607 7.942zm31.025 23.085c4.709 27.609-1.293 41.922-9.234 49.216-1.293 1.201-2.585 2.124-3.878 3.047l8.31-4.801.647-.37 1.939-1.108.277-.184c9.511-6.279 18.19-20.407 12.835-52.079z"/><g filter="url(#b)"><path fill="#14b8a6" d="M209.888 257.223c.295.512.295 1.136 0 1.307l-13.379 7.724c-.295.17-.836-.142-1.131-.653l-7.083-12.268c-.295-.511-.295-1.136 0-1.306s.836.142 1.131.653l6.542 11.33 12.788-7.44c.295-.17.836.142 1.132.653"/></g><g clip-path="url(#c)"><path fill="#5eead4" d="M289.888 215.275c2.216.77 4.528 2.06 6.467 3.471 3.593 2.615 6.095 7.307 7.723 11.194.078.373-.13.676-.338 1.031l-2.459 4.173c-.112.199.07.493.191.545.511.242 2.969-2.286 3.662-2.606 1.16 3.229 1.697 6.71 1.982 10.242l.191 2.372v4.346c0 .961-.355 1.914-.035 2.944 7.853 2.511 14.666 6.207 20.259 12.346.796.874 1.385 1.714 2.034 2.666 3.784 5.532 5.334 12.328 1.377 18.276-1.002 1.507-3.48 3.801-5.861 5.091.58.684 1.342.744 1.982 1.143 9.809 6.216 11.775 19.592 10.407 30.24-.866 6.719-2.649 12.147-5.437 18.268-.225.502-.433.909-.701 1.428-3.039 5.758-6.857 10.995-11.662 15.428-5.273 4.866-12.64 9.117-19.99 8.71l-.174 1.497c-.112.979-.45 1.974-.069 2.953s-.008 1.073.026 1.619l.139 2.233c.112 1.792.554 4.26-.849 5.74-2.684 2.831-5.878 4.944-9.566 6.19-4.217 1.42-7.965 1.862-12.32.892-1.983-.441-3.974-1.108-5.515-2.381-1.35-1.108-1.766-2.571-1.749-4.199.018-1.627.13-3.16.693-4.744.234-.658.19-1.61.788-2.069.415-.321.658-.606.952-1.048l1.411-2.164c.277.06.373.606.624.701.995.303 2.025-.173 3.056.268-.165.641-.468 1.602-.97 1.931-.874.277-4.952-.104-4.649 1.671 2.9-.545 5.749-.329 8.554.554s7.514 3.151 8.536 7.368a7 7 0 0 0 1.775-.658c-.312-3.602-4.147-6.294-7.454-7.333.242-.944.744-1.662 1.411-2.32 4.112 1.177 6.692 2.017 9.878 4.856.017.979-.268 1.706-.095 2.658.277-.251 1.272-.554 1.281-1.082.035-2.64.658-5.203 2.641-7.056.433-.398.77-.9.398-1.498-1.671 1.057-2.84 2.537-3.576 4.39-.554-.061-1.065-.398-1.22-.935 2.017-.485.753-1.853 3.956-3.939.312-.199.727-.329.693-.806-.624.278-3.23 1.983-2.952.615.277-1.368 2.164-.675 3.03-1.948.381-.554.251-1.411.043-2.017-1.126.615-1.983 1.325-3.186 1.454-.216.026-.26-.458-.182-.588.286-.468 1.212-.398 1.732-1.039-7.472-1.922-12.588-4.987-15.93-12.268-.528.199-.979.355-1.455.121-1.047-.51-2.034-1.039-3.004-1.671-.415-.268-.77-.614-.77-1.177l.026-6.943c0-.26.727-.329.848-.148l.035 7.229c.684.407 3.168 2.251 3.627 1.836.364-.32-.234-1.385-.424-1.957a1.67 1.67 0 0 1-1.238-.865c-.381-.684.225-1.221.415-1.68l-.926-5.705c-10.458 1.428-23.064-.511-31.453-6.978-2.294-1.766-4.406-3.827-5.359-6.45l-.831-2.286c-.45-1.238-.338-4.891-.078-6.285s.147-.71-.13-.927c.373-.329.329-.839.416-1.376.485-3.229.926-6.407 2.216-9.437s.658.286.684.572c.121 1.307.978 2.588 2.26 2.891s.441-.666.199-.779c-.831-.39-1.584-1.048-1.532-1.957.926.338 1.471.84 2.354.944.468-.9 1.429-1.48 1.94-2.216.207-1.031-.39-2.26-.295-3.359 1.126.268 2.069 1.48 3.238 1.593 1.039.103 2.173-.39 3.255-.373 2.303.026 4.762-2.406 4.684-4.909l-.242-7.757c-.009-.311.13-.545.372-.588a.44.44 0 0 1 .52.432c.077 2.797.32 5.455.225 8.303-.104 2.952-2.563 5.333-5.533 5.463-2.796.121-5.255 1.125-6.874 3.238-1.697 2.208-2.294 5.004-1.402 7.653 1.307 3.879 4.978 5.983 8.934 5.783 11.792-.58 22.138-9.973 21.852-21.843l-.216-8.761c-.009-.372.129-.545.476-.545.346 0 .363.199.381.51l.242 5.55c.165 3.757-.156 7.281-1.532 10.926 2.112-.39 3.757-1.117 5.766-1.749-.096 1.29-.347 2.545-.658 3.826-1.36-.519-2.546.096-2.823 1.316-.259 1.169.546 2.329 1.766 2.433 1.221.104 2.104-.926 2.139-2.242.32.112.493.329.788.519.684-.839.952-1.818 1.125-2.952l2.727-17.531c3.576-1.749 6.251-4.537 8.268-7.939.381-.641.572-1.204.312-1.992-2.519-8.7-12.579-12.363-20.475-8.666-5.195 2.433-6.614 7.48-5.125 12.779l-4.944 2.779c-1.723-1.204-3.472-2.346-5.134-3.775 1.68-5.385.251-10.467-4.536-13.41-5.359-3.299-12.459-3.143-17.281 1.151-1.463 1.593-3.073 3.55-3.151 5.835 1.454 4.164 4.562 7.42 8.216 9.671l2.294 19.67a32.5 32.5 0 0 1-12.744-9.818c-1.004-1.532-2.078-2.857-2.788-4.528-.528-1.255 1.983-2.476-.562-11.246-1.637-5.645-2.424-11.402-2.165-17.281.035-.779.728-1.125 1.394-1.16 10.874-.614 21.947-5.212 31.098-10.943.615-.381 1.074-.415 1.688.052 9.541 7.169 20.285 12.502 32.172 14.545 4.701.814 9.333.935 14.12.554.753-.061 1.108 1.047 1.082 1.636-.268 6.199-1.731 12.917-2.969 19.125.182.034.779-.07.935-.303l1.645-8.58c.641-3.35 1.03-6.649 1.255-10.034.182-2.693-1.575-.649-1.082-5.948 5.844 2.952 11.584 7.498 13.185 13.8 1.55 6.095-2.787 9.195-2.805 9.68-.017.484.269.19.399.233l3.774 1.403c5.662-2.468 9.532-7.809 8.615-14.19-.399-2.805-1.472-5.324-3.013-7.697-5.134-7.895-14.476-13.194-23.471-15.644-.796-1.913-2.026-3.385-3.065-5.134-.58-.978-.355-2.415-.865-3.497 1.091-.338 1.74-.624 2.32-1.351-.892-.017-1.645.277-2.623.528-1.022-3.437-2.459-6.709-5.048-9.159l-2.173-2.061c1.325-1.671 2.398-3.428 2.901-5.757-1.247 1.601-2.347 3.428-3.559 5.419-5.826-3.826-12.276-3.48-18.354-.554-.199-1.238-.398-2.233-.805-3.246-.312 1.29-.156 2.407.139 3.619-1.005.528-1.879 1.013-2.823 1.662-.441-2.745-.909-5.264-1.792-7.853-.043 2.693.346 5.403 1.23 8.225-3.273 2.494-5.957 5.411-8.424 8.891l-5.195-15.739c1.004-1.281 2-2.381 3.212-3.368l3.506 7.558c.113.234.425.243.555.165.129-.078.181-.312.129-.537l-1.852-9.255c4.761-3.879 10.242-6.467 16.241-7.584 2.459-.459 4.788-.364 7.299.043l-.286 9.325c-.009.285.182.476.372.484.191.009.372-.147.45-.415l2.58-8.684zm-6.623 138.442c-4.796-12.345-1.645-27.479 4.034-38.933 4.528-9.125 11.627-17.661 20.908-22.172 3.004-1.463 6-2.112 9.454-2.476-9.185-1.463-18.414 4.831-24.267 11.368-8.822 9.852-13.982 22.942-14.57 36.128-.321 7.09 1.186 15.202 5.731 20.769 1.004 1.238 2.095 2.442 3.515 3.108-2.13-2.484-3.671-4.831-4.805-7.8zm38.292 1.048c5.074-5.402 8.952-11.74 11.61-18.674 3.567-9.299 5.125-19.774 2.545-29.497-.917-3.454-2.32-6.579-4.562-9.341-3.169-3.913-7.792-6.138-12.891-6.104-9.368.078-17.965 6.701-23.601 13.731-6.528 8.138-10.709 17.913-12.268 28.241-.874 5.827-.848 11.541.693 17.177.9 3.307 2.242 6.363 4.32 9.021 3.905 5.004 9.974 7.281 16.207 6.138 6.987-1.281 13.134-5.567 17.947-10.692m-39.824-36.734c.606-.112.96-.623.796-1.073-1.281.545-2.623.406-3.61-.416s-1.316-1.965-1.1-3.238c.217-1.273.606-1.628.598-2.511-.866.044-1.412.277-2.139.477l-1.627 3.385 2.19-.676c.139 2.624 2.312 4.528 4.9 4.061zm-4.364 23.583c.364-.043.58-.173.572-.433-.009-.259.017-.51-.373-.459-7.532.953-15.15.217-22.284-2.398-6.589-2.415-12.528-6.796-14.709-13.705-.451 0 .103 2.554.034 2.399 2.857 6.268 8.788 10.19 15.16 12.389 6.96 2.406 14.302 3.073 21.6 2.216zm11.229 20.449c-.061-.311-.216-.433-.442-.493.104.26.286.355.442.493m-13.021 11.082c.277-.026.32-.39.234-.398-.399-.052-3.065-.251-2.58.606l2.355-.208zm22.891.312c-1.472 1.567-2.234 3.549-2.07 5.567 2.052-1.793 2.857-2.883 2.07-5.567m-5.394 7.973c-.035-.857.389-2.052.026-2.831-.364-.779-1.29-1.264-1.939-1.679-1.983-1.273-4.113-2.035-6.355-2.675-.286-.078-.667.831-.424.926 3.229 1.342 6.173 3.714 6.865 7.298.623-.329 1.299-.554 1.836-1.047zm-12.129.044c.459-.849.926-1.593 1.532-1.844s1.758-.416 2.39.095c1.333 1.065 1.774 2.848 1.454 4.467.476.043.952-.112 1.411-.338-.303-1.792-1.35-3.168-2.727-4.268-.71-.563-1.411-.857-2.216-1.29-3.299-1.775-7.16-2.415-10.857-1.87-.563.087-1.004.433-.84.987.806-.796 2.217-.77 2.883.191.667.961.71 1.636.762 2.467.485-1.073 1.247-1.931 2.355-2.208 2.156-.536 3.576 1.801 3.853 3.593zm-7.229-.087c.216-1.264.052-3.506-1.109-3.662-1.16-.156-1.61 1.688-1.506 2.138.26 1.1 1.515 1.792 2.615 1.524m-3.178.571c.078 4.234 7.489 5.342 10.71 5.351 6.173.026 12.112-2.502 16.466-6.796.745-.736 1.152-1.671 1.109-2.589-.511.303-.745.822-1.204 1.255a24.55 24.55 0 0 1-16.181 6.632c-3.558.009-8.718-.883-10.882-3.853zm9.394 1.282c.337-1.697-.39-4.424-2.104-4.545-1.688-.122-2.615 2.06-2.641 3.566 1.195 1.247 3.091 1.654 4.745.979m5.506.519c.173-1.117-.035-1.991-.597-2.779-.563-.788-1.342-1.013-2.147-.381-.806.632-1.568 2.009-.944 2.779.805.979 2.58.563 3.679.39zm-4.753-.104c-1.584 1.541-5.991.606-6.424-1.541-.909.398-1.645.165-2.58-.147 1.108 1.195 2.545 1.654 4.043 2.216 2.113.554 4.26.806 6.519.624-.562-.347-1.056-.615-1.558-1.16z"/><path fill="#042f2e" d="m285.049 213.5 2.563.736-.113 6.069 1.697-5.394c.164.13.554.19.692.372l-2.579 8.684c-.078.268-.226.424-.451.415-.225-.008-.381-.199-.372-.484l.286-9.325c-2.502-.407-4.84-.502-7.299-.043-5.999 1.117-11.479 3.705-16.241 7.584l1.853 9.255c.043.216 0 .45-.13.537-.13.086-.442.069-.554-.165l-3.507-7.558c-1.212.987-2.216 2.087-3.212 3.368l5.195 15.739c2.459-3.48 5.151-6.397 8.424-8.891-.892-2.822-1.273-5.532-1.23-8.225.883 2.589 1.351 5.108 1.792 7.853.944-.649 1.819-1.134 2.823-1.662-.286-1.212-.45-2.329-.139-3.619.407 1.013.598 2 .805 3.246 6.078-2.935 12.528-3.272 18.354.554 1.213-1.991 2.312-3.818 3.559-5.419-.502 2.337-1.576 4.086-2.901 5.757l2.173 2.061c2.589 2.441 4.018 5.722 5.048 9.159.978-.251 1.723-.554 2.623-.528-.58.719-1.229 1.013-2.32 1.351.511 1.082.286 2.519.866 3.497 1.038 1.749 2.268 3.221 3.064 5.134 8.996 2.45 18.346 7.749 23.471 15.645 1.152 1.695 2.615 4.891 3.013 7.696.909 6.381-2.961 11.722-8.614 14.19l-3.775-1.403c-.13-.052-.398-.095-.398-.233.008-.494 4.346-3.585 2.805-9.68-1.602-6.302-7.342-10.856-13.186-13.8-.493 5.299 1.264 3.255 1.082 5.948-.225 3.385-.614 6.684-1.255 10.034l-1.645 8.58c-.156.233-.753.337-.935.303 1.238-6.216 2.701-12.926 2.97-19.125.026-.589-.329-1.697-1.083-1.636-4.787.39-9.41.26-14.12-.554-11.887-2.043-22.631-7.376-32.171-14.545-9.541-7.168-1.083-.433-1.689-.052-9.151 5.732-20.224 10.329-31.098 10.943-.666.035-1.359.381-1.394 1.16-.259 5.879.52 11.636 2.165 17.281 2.545 8.77.026 9.991.563 11.246.71 1.68 1.783 3.004 2.787 4.528a32.5 32.5 0 0 0 12.744 9.818l-2.294-19.67c-3.653-2.251-6.77-5.506-8.216-9.671.078-2.285 1.688-4.242 3.151-5.835 4.823-4.285 11.922-4.45 17.281-1.151 4.796 2.952 6.225 8.025 4.536 13.41 1.671 1.429 3.42 2.571 5.134 3.775l4.944-2.779c-1.489-5.299-.078-10.337 5.125-12.779 7.887-3.697 17.956-.034 20.475 8.666.251.797.061 1.351-.312 1.992-2.025 3.402-4.701 6.19-8.267 7.939l-2.728 17.531c-.173 1.134-.441 2.104-1.125 2.952-.294-.19-.459-.407-.788-.519-.026 1.325-.926 2.346-2.138 2.242s-2.026-1.264-1.766-2.433c.277-1.22 1.463-1.835 2.822-1.315.312-1.282.563-2.537.658-3.827-2 .632-3.654 1.359-5.766 1.749 1.376-3.636 1.697-7.169 1.532-10.926l-.242-5.55c-.017-.311-.139-.51-.381-.51-.346 0-.485.173-.476.545l.216 8.761c.286 11.87-10.06 21.263-21.851 21.843-3.957.191-7.628-1.904-8.935-5.783-.892-2.658-.294-5.454 1.403-7.653 1.627-2.113 4.077-3.117 6.874-3.238 2.969-.13 5.437-2.511 5.532-5.463.095-2.848-.147-5.506-.225-8.302-.009-.312-.338-.459-.52-.433s-.381.277-.372.588l.242 7.758c.078 2.502-2.372 4.934-4.683 4.908s-2.217.477-3.256.373c-1.168-.113-2.112-1.334-3.238-1.593-.095 1.099.503 2.329.295 3.359-.502.736-1.472 1.316-1.939 2.216-.884-.104-1.429-.606-2.355-.944-.052.909.692 1.567 1.532 1.957s.026.831-.199.779c-1.281-.303-2.138-1.584-2.26-2.891-.121-1.308-.562-.849-.684-.572-1.29 3.039-1.731 6.216-2.216 9.437s-.043 1.039-.416 1.376a2.3 2.3 0 0 0-.476.148c0-.217-.078-.459-.112-.684-.624.346-.927.796-1.446 1.212.649-2.589.407-5.074-.338-7.602-1.757-5.982-6.372-10.579-12.51-12.207 1.03-.736 2-1.775 3.212-1.93l2.822-.355c.018-.122-.216-.745-.502-.728-4.614.312-9.376.174-13.722-1.567l-1.541-7.099c.485.286.416.849.649 1.299 2.667 5.255 8.719 7.056 14.363 7.038-.095-.597-.407-.926-.64-1.376-1.412-2.762 1.982-2.208-.719-11.593-1.428-4.969-2.251-9.886-2.32-15.254-5.931 3.861-11.904 10.121-11.671 17.661-.51-.848-.554-1.679-.761-2.606l-2.667-12.155c3.887-5.783 10.277-9.973 16.449-12.96.58-.277.953-.606.892-1.23.615-.155.97-.51 1.204-1.082-.693 2.537-1.42 5.074-1.472 7.879 11.48-.693 21.981-5.282 31.531-11.169.597-.372 1.48-.026 2.008.373 5.61 4.147 11.515 7.713 17.99 10.371 8.9 3.654 18.199 5.507 27.886 4.554.295-8.493-2.216-15.531-7.627-21.869-2.251-2.666-4.857-4.77-7.731-6.692-10.277-6.865-20.432 3.273-25.843 11.428l-10.095-1.013-1.315-3.229c-.234-.58-.546-.935-1.204-.987-1.368-.104-2.112-1.282-1.905-2.615s.78-1.619 1.412-2.415l-3.186-4.857c.285-.104.363-.598.389-.849 1.455 2.199 3.039 4.338 4.381 6.736.225.407 1.151.225 1.428.199-.51-1.299-1.393-2.303-1.567-3.783 1.23 1.056 1.732 2.502 2.606 3.774.286.416 1.083.329 1.628.303l-1.714-6.597c1.22 2.199 1.844 4.45 2.762 6.693.233.277.917.285 1.393.199l-5.168-15.835c-1.091-.303-2.113-.467-3.273-.658l.026 2.883c0 .277-.043.554-.268.606s-.468 0-.606-.234l-1.818-3.03c-.364.476-.303 1.247-.684 1.446s-.355.017-.433-.156l-1.082-2.285c-1.334-.243-2.623-.433-3.905-.528-.173-.399-.511-.555-.173-.996 1.29.286 2.632.493 4.026.597.173.018.311-.441.58-.337.199.614.216 1.368.77 1.948.407-.572.234-1.576.849-1.827s.433.675.485.952c.199.996.822 1.732 1.324 2.511.26-.736-.216-1.844.173-2.312.39-.467.494-.173.754-.121l3.411.667c1.021-1.221 2.034-2.269 3.212-3.403-.477-.692-2.935-1.74-2.745-2.406.191-.667 4.173.406 5.091.432a41 41 0 0 1 5.584-3.809c4.13-2.346 12.926-5.307 16.822-4.182zm-21.713 13.861c-.078-1.879-.624-3.386-.944-5.039l-2.632-.45c.546.614 1.299.883 1.671 1.523.771 1.299 1.108 2.762 1.905 3.966m.32 19.661c.779.086 1.203-.623 1.532-1.082 4.199-5.844 10.597-12.268 18.077-13.22 4.693-.598 9.221 1.359 12.286 4.908s2.891 4.554 3.965 7.126c.329.735 1.203 1.298 1.861 1.922-.571-3.109-1.723-5.836-3.298-8.398-3.836-6.242-11.048-9.039-18.129-7.134-7.299 1.965-12.814 7.272-17.004 13.488l-7.731-.891c-.312-.433-.45-.788-.831-1.186-.476.571-.892 1.116-1.004 1.809-.113.693.406 1.558 1.246 1.645zm28.942-7.645c1.914 1.169 3.524 2.424 5.359 3.922-1.004-2.441-2.372-4.753-4.476-6.545-2.718-2.312-6.172-3.645-9.757-3.255-7.385.814-13.886 7.237-17.99 13.09l1.281 3.974c5.506-8.026 15.627-17.263 25.583-11.186m-27.461 8.034c-.71.442-1.264.459-1.922.39l-6.952-.745 1.272 3.126 8.718.874-1.116-3.653zm9.428 29.453c-3.515 2.407-4.511 6.762-3.178 10.537.373-.234.632-.347.762-.52.346-.467-1.887-5.809 2.416-10.017m-30.501 12.467c.346.191.935-.207 1.048-.51-3.914-2.338-6.719-5.671-8.182-9.974-.779.848-.666 1.792-.19 2.658 1.74 3.203 4.043 6.008 7.324 7.826m48.5-.398c1.065-1.255 2.095-2.502 2.796-4.008.242-.511-.121-1.221-.424-1.654-1.732 3.922-4.788 7.03-8.511 9.09.581 2.061 5.446-2.631 6.13-3.428zm-39.384 2.944c.676-1.325.277-2.892-.805-3.792-.623-.52-1.428-.65-2.225-.303-.796.346-.995.761-1.168 1.506-.252 1.074.06 2.26.865 3.039.502.485 1.134.744 1.836.632.51-.078 1.168-.407 1.515-1.082zm30.943.926c1.722-.866 2.086-3.099.926-4.493-.719-.866-1.896-.979-2.796-.321-1.282.935-1.576 2.788-.624 4.087s1.584 1.195 2.502.727zm-36.224 16.025-2.363-18.917c-.286-.181-.563.018-.727.156-.165.139-.191.39-.156.701l2.268 19.012c.329-.069 1.039-.458.978-.952m35.834 4.216 2.969-19.046c.061-.398-.58-.762-.891-.563l-2.935 17.982c-.061.363-.217.848-.026 1.073.19.225.415.502.883.554m-3.177-.086c-.728.303-.883 1.039-.589 1.601.26.485.805.762 1.428.503.477-.2.84-.866.58-1.455-.19-.441-.796-.909-1.428-.649z"/><path fill="#042f2e" stroke="#5eead4" d="M253.357 241.726c-.539.659-1.135 1.379-1.286 2.372-.094.618.076 1.365.454 1.972.385.617 1.025 1.15 1.907 1.217.331.025.514.06.615.093l.024.009.014.077c.016.11.042.291.125.496l.001.002 1.315 3.229.114.278.299.031 10.095 1.012.301.031.166-.251c2.682-4.049 6.524-8.554 10.933-11.195 4.385-2.626 9.281-3.391 14.215-.094 2.85 1.906 5.416 3.98 7.627 6.599l.002.002c5.236 6.124 7.708 12.916 7.519 21.086-9.433.853-18.502-.975-27.207-4.557-6.036-2.483-11.571-5.746-16.834-9.545l-1.049-.767a3.4 3.4 0 0 0-1.162-.559c-.377-.093-.827-.116-1.238.072l-.169.091c-9.351 5.771-19.598 10.268-30.751 11.056.12-2.517.779-4.837 1.436-7.207.118-.425.303-.853.519-1.311.21-.447.46-.94.672-1.441l-.001-.001c3.524-8.277 10.367-13.829 18.59-16.996z"/><path fill="#5eead4" d="M229.112 258.216c.069.623-.312.944-.892 1.229-6.173 2.996-12.553 7.186-16.449 12.961l2.666 12.155c.208.926.251 1.766.762 2.606-.234-7.541 5.74-13.8 11.67-17.662.07 5.368.892 10.286 2.321 15.255 2.701 9.376-.693 8.831.718 11.593 1.411 2.761.546.779.641 1.376-5.636.017-11.688-1.783-14.363-7.038s-.164-1.013-.649-1.299l1.541 7.099c4.346 1.74 9.116 1.879 13.722 1.567.277-.017.511.597.502.727l-2.822.355c-1.221.156-2.191 1.195-3.212 1.931 6.138 1.628 10.761 6.225 12.51 12.207.745 2.528.987 5.013.338 7.601.519-.415.822-.857 1.445-1.212.044.225.113.468.113.684.026.797-1.16 1.195-2.251 2.286-1.87 1.861-4.389 2.84-6.398 4.502s-3.402 3.281-6.043 3.904l1.307 5.974 7.905 35.28c.19.865.407 1.368-.07 2.19-.476.822-.917.918-1.731 1.151-.684.191-2.242-.103-2.467-1.108l-9.628-42.768c-3.515-.026-6.614-1.299-9.073-3.645-.831-.796-1.359-1.766-2.121-2.658-2.71-4.45-2.64-9.757-.017-14.267 1.247-2.139 3.099-3.645 5.316-4.892l-2.58-11.61-2.07-2.138c-1.099-1.134-1.861-2.606-2.389-4.164-1.255-3.689-.805-7.593.606-11.195l-2.424-11.428c.234-.043.485-.069.727.044.243.112.208.381.277.71l3.974 18.163 5.852 26.553c1.264.234 2.191.796 3.36 1.628l-10.441-47.539c.008-.294.753-.364.848-.398l1.394 6.207c4.502-5.679 9.489-9.056 15.679-12.19.64-.329 1.246-.588 1.87-.744zm-17.688 34.899-3.03-14.129c-.433.519-.398 1.099-.545 1.731-1.03 4.459.251 9.246 3.575 12.398m11.792 7.921c1.203-.528 2.182-1.151 3.29-1.939-3.134-.069-6.095-.485-9.186-1.524l1.359 6.061c1.533-.961 2.84-1.974 4.546-2.598zm7.904 24.267c3.515-7.445-3.177-19.003-11.973-19.592l1.931 8.9c2.354 3.299 2.986 7.143 2.831 11.117-.156 3.973.727 2.935.909 4.432 2.164-.441 5.575-3.298 6.311-4.857zm-12.484-6.233c.788-.883 1.758-1.351 2.978-1.403.026-.268-.017-.597-.355-.779-1.411 1.377-4.043 1.663-5.463.165s-.64-3.489.684-4.736c-.831-.693-2.597.294-2.632-.554-.034-.848.087-.442.416-.493l1.169-.174-.831-3.93c-3.723 2.06-6.026 5.593-6.537 9.852-.45 3.801 1.005 7.515 3.723 10.233 1.723 1.723 3.905 3.108 6.346 3.256.554.034 1.186-.624 1.931-.65-.961-.779-1.593-1.29-1.723-2.207-.13-.918.216-1.974 1.117-2.589 1.593-1.1 3.22-.338 3.489-.563s.077-.303 0-.372c-.191-.182-1.316.346-2.797-.043-1.082-.286-1.896-1.074-2.164-1.896-.39-1.212-.121-2.277.64-3.126zm2.242-3.091c-.675-1.272-1.463-2.164-2.424-2.969-.355-.165-.614-.416-.987-.286-.865.303-2.32 2.597-.857 3.853 1.463 1.255 3.247.675 4.277-.598zm2.165 7.065a20 20 0 0 0-.944-4.545c-1.125-.026-2.199.415-2.866 1.281-.666.866-.64 1.29-.398 2.06.485 1.524 2.788 1.879 4.208 1.195zm-1.775 6.043c.996-.996 1.463-2.234 1.645-3.576-1.29-.389-3.567-.086-3.671 1.498-.095 1.446 1.671 2.433 2.035 2.078zm9.497 45.184c.364.623 1.377.58 1.766.38.39-.199 1.169-.51 1.013-1.186l-10.233-45.841c-.554 1.298-1.29 2.164-2.355 2.917z"/><path fill="#042f2e" d="M273.448 371.093c.155-.242.008-.684.32-.866.364.615.961.91 1.74.918 4.918.026 8.034.961 12.64 2.39 4.606 1.428 6.216 1.229 6.32-1.065.087-1.775 0-3.507-.337-5.229-.139-.719-.745-1.1-1.49-1.013-2.337.277-4.761-.165-6.51-1.766-2.502-2.277-2.649-6.381-6.943-7.602-2.173-.614-4.165.295-4.961 2.407-.303.797-.831 2.286-1.732 2.338-.017-.269 0-.667-.078-.918.503-.147.693-.606.615-1.16l-.641-4.649c.797-.65 1.957-1.109 2.425-1.974.242-2.667.043-5.29.129-7.957.018-.432-.19-.64-.554-.571-.363.069-.346.208-.346.563l-.043 7.662c-1.152.909-2.217 1.731-3.463 2.493l-3.42-2.684-.052-7.999c0-.269-.866-.329-.874-.122l.017 11.03c-1.16 1.178-3.697.831-2.77 2.078 1.186-.121 2.32-.788 3.393-1.325.113.65.251 1.585-.233 2.095-1.325 1.412-3.792.858-2.97 2.295.909-.208 1.844-.58 2.667-.979.822.771-1.819 1.178-2.806 2.987-.986 1.81-.683 1.524-1.541 1.818.035.425.537.572.814.554s.286-.406.459-.701c.753-1.272 1.896-2.433 3.342-3.056.242-.061.26.71.026.892-2.19 1.645-3.186 4.138-3.333 6.865s-.953.866-1.334.987l.165-2.259c-1.273-1.143-2.675-2.329-4.355-2.883l-5.939-1.957c-.615.199-1.273.952-1.437 1.576 3.134 1.532 6.528 4.173 6.779 7.766-.84.346-1.662.545-2.52.701-.51-5.177-8.467-9.013-12.484-9.151l-2.026-.07c.832-1.904 3.039-.813 4.009-1.177.649-.242 1.091-.987 1.524-1.48-.503-.658-1.282-.416-1.862-.788s-.277-.745-.632-.779c.061-.338.199-.676.511-.84.095.666 1.013 1.151 1.645 1.324 3.731 1.022 7.238 2.208 10.857 3.498 1.532.546 6.164 1.394 6.423-1.229s.217-5.264-.554-5.801c-1.004-.71-3.281.563-6.467-.718-2.156-.866-2.865-2.381-3.87-4.398l3.221-1.334c.718-.294 1.056-.969 1.065-1.74l.043-5.549c0-.286-.121-.511-.26-.598-.138-.086-.64-.208-.64-.052l-.104 6.926-3.533 1.429-2.597-3.576-.06-7.731c0-.286-.589-.537-.823-.528l-.026 7.939c0 .58.459.97.563 1.576-1.576-.788-3.55-1.316-4.493.562s-.736 1.671-1.212 2.373l.095-2.303c1.125-1.169.519-1.853.511-3.515l2.995-.797c.615-.164 1.074-.675 1.074-1.359l-.018-4.814c0-.363-.554-.562-.848-.666l-.043 5.818c-.961.329-1.879.597-3.005.805-.753-1.325-1.359-2.667-1.965-4.104l-.06-7.904-.529-.935c.052-.442-.138-1.005.191-1.351.952 2.623 3.065 4.684 5.359 6.45 8.389 6.476 20.994 8.406 31.453 6.978l.926 5.705c-.199.459-.796.987-.415 1.68.381.692.588.77 1.238.866.19.571.787 1.636.424 1.956-.468.416-2.944-1.428-3.628-1.835l-.034-7.229c-.121-.191-.849-.113-.849.147l-.026 6.943c0 .554.355.901.771 1.178.969.632 1.956 1.16 3.004 1.671.476.233.935.078 1.454-.122 3.351 7.281 8.468 10.346 15.93 12.268-.519.641-1.445.572-1.731 1.039-.286.468-.035.606.182.589 1.194-.13 2.06-.84 3.186-1.455.207.606.329 1.463-.044 2.018-.865 1.272-2.926 1.445-3.03 1.947-.277 1.36 2.329-.346 2.952-.614.035.476-.38.606-.692.805-3.212 2.086-1.948 3.454-3.957 3.939.156.537.658.875 1.221.935.727-1.853 1.896-3.324 3.576-4.389.372.597.026 1.091-.399 1.498-1.982 1.852-2.606 4.415-2.64 7.055-.035 2.641-1.013.832-1.282 1.083-.173-.953.113-1.68.096-2.658-3.186-2.84-5.766-3.68-9.879-4.857-.666.649-1.16 1.376-1.411 2.32 3.299 1.03 7.134 3.731 7.454 7.333a7 7 0 0 1-1.774.658c-1.022-4.216-4.649-6.138-8.537-7.368-3.887-1.229-5.662-1.099-8.553-.554-.303-1.774 3.783-1.394 4.649-1.671.502-.329.796-1.29.969-1.93-1.03-.433-2.06.034-3.056-.269-.251-.086-.346-.64-.623-.701zm-28.994-31.626c-.312-.424-1.057-.649-1.394-.173-.546.762-.251 1.775.337 2.415.243.269.528.373.84.312.987-.19.797-1.775.217-2.554m20.908 4.684c-.096-.199-.762-.243-.814-.043l-.087 8.042c-1.247.866-2.441 1.559-3.757 2.104l-3.117-3.082-.078-8.692c-.277-.139-.623-.242-.857-.087v8.597c0 .598.485 1.022.866 1.386l2.285 2.207c.477.459 1.022.606 1.637.321a29.5 29.5 0 0 0 3.359-1.836c1.091-.684.588-.727.588-1.229zm-12.32 2.225c-.286-.875-1.013-1.532-1.888-1.195-.519.199-.718.779-.744 1.221-.026.441.286.926.693 1.299s1.134.571 1.618.173c.485-.399.511-.918.321-1.498m8.986 5.238c.563-.624.321-1.507-.121-1.983-.441-.476-1.307-.762-1.913-.268-.606.493-.58 1.558 0 2.155.58.598 1.402.797 2.034.104zm8.822 1.342c.745-.156 1.169-.762 1.186-1.368.018-.606-.337-1.264-1.038-1.429-.702-.164-1.334.052-1.706.563s-.32 1.091.052 1.636c.372.546.796.736 1.506.589z"/><path fill="#5eead4" d="M200.213 221.993c.398.58 1.801 3.904 2.225 4.857l6.329 14.25 3.446 8.129c.303.71-2.052 1.922-3.446 4.736-.468.935-.606 1.818-.26 2.822l1.991 5.766c.225.658-.043 1.074-.467 1.498-1.515.814-3.074.97-4.658.857l-.944-.58-.432-7.575c-.104-1.844-4.286-3.68-5.775-4.286s-.199-.926-.191-1.246l.156-7.117.494-11.566.156-5.186c.026-.857.233-1.706.147-2.597-.087-.892.043-1.888.147-2.771l6.666 34.397c.07.372.269.415.537.398s.303-.234.242-.554l-6.294-33.297c-.077-.407-.095-.65-.077-.935zm73.554 148.234c-.458-2.874-1.064-5.731-1.281-8.631.909-.052 1.437-1.541 1.732-2.338.796-2.104 2.787-3.021 4.96-2.407 4.295 1.221 4.442 5.325 6.944 7.602 1.757 1.601 4.173 2.043 6.51 1.766.753-.087 1.351.294 1.489 1.013.338 1.723.425 3.454.338 5.229-.113 2.303-4.788 1.541-6.32 1.065-4.606-1.429-7.723-2.355-12.64-2.39-4.918-.034-1.377-.303-1.74-.917zM285.048 213.5c-3.896-1.126-12.692 1.835-16.821 4.181s-3.784 2.355-5.585 3.81c-.917-.026-4.865-1.212-5.09-.433s2.268 1.714 2.744 2.407a46 46 0 0 0-3.212 3.402l-3.411-.667c-.26-.052-.589-.069-.753.122-.39.467.087 1.567-.173 2.311-.502-.788-1.126-1.515-1.325-2.511-.199-.995.07-1.186-.485-.952s-.45 1.264-.848 1.827c-.554-.58-.571-1.333-.771-1.948-.259-.104-.398.355-.58.338a28.5 28.5 0 0 1-4.025-.598c.588-.788 2.458-3.255 3.428-3.177 1.532.13 3.073.182 4.692.199a.33.33 0 0 0 .321-.268c.008-.096 0-.364-.147-.433-.996-.511-1.948-1.022-2.961-1.377 5.895-6.112 19.289-9.714 28.171-7.887l6.597 1.351c.148.034.251.242.234.303M272.4 360.678c-.39-1.29-.563-4.502-.874-4.727-.632-.459-.641.546-1.94-.45-.77-.589-1.437-1.281-2.346-1.593-.286.667.208 1.022.338 1.515.64 2.381-.65 3.541-.035 4.926s.043 1.264.035 1.922l-.07 5.87c-.026 2.017-3.774 4.286-5.359 5.169-3.307 1.861-6.917 2.935-10.709 3.359-3.082.346-7.558-.347-10.285-1.749-1.264-.649-2.675-1.55-3.221-2.944-.995-2.51-.545-5.471.805-7.722.399-1.316 1.204-2.19 2.347-2.848 1.142-.658 1.463-1.845 2.034-2.104.355.043.364.606.632.779.58.372 1.359.13 1.861.788-.424.493-.874 1.238-1.523 1.48-.97.364-3.178-.727-4.009 1.178l2.026.069c4.017.138 11.974 3.965 12.484 9.151.857-.156 1.68-.355 2.52-.701-.243-3.593-3.636-6.225-6.779-7.766.164-.624.822-1.377 1.437-1.576l5.939 1.957c1.68.554 3.082 1.74 4.355 2.883l-.165 2.259c.381-.121 1.299-.398 1.334-.987.147-2.727 1.142-5.22 3.333-6.865.242-.182.216-.952-.026-.892-1.446.624-2.589 1.784-3.342 3.056-.173.295-.104.676-.459.702s-.77-.13-.814-.554c.857-.295 1.152-1.091 1.541-1.819.979-1.809 3.619-2.216 2.805-2.986-.831.398-1.757.77-2.666.978-.814-1.437 1.645-.883 2.969-2.294 1.325-1.412.347-1.446.234-2.095-1.073.528-2.207 1.203-3.394 1.324-.926-1.247 1.611-.9 2.771-2.078l-.017-11.029c0-.208.865-.148.874.121l.052 7.999 3.42 2.684c1.238-.762 2.311-1.584 3.463-2.493l.043-7.662c0-.364.095-.52.346-.563.355-.069.572.139.554.572-.095 2.675.113 5.289-.13 7.956-.467.866-1.627 1.324-2.424 1.974l.641 4.649c.078.554-.113 1.013-.615 1.16zm-28.388.589c-.58-.338-1.178-.398-1.593.121.571.121 1.16.286 1.593-.121m22.484 1.965c-1.481 1.325-2.208 3.195-2.217 5.056 2.234-1.619 2.701-2.337 2.217-5.056m-5.533 7.125.122-2.493c-1.455-1.342-3.091-2.286-4.918-2.918l-3.723-1.281c-.294-.104-.614-.069-.736.364 3.117 1.766 5.576 3.87 6.303 7.618 1.082-.311 1.974-.753 2.944-1.298zM250.73 368.6c1.342 1.177 1.55 3.065 1.1 4.588.736-.008 1.246-.043 1.904-.259-.597-5.316-9.35-9.177-14.103-8.363 1.714.484 1.489 1.229 1.983 2.718.562-.641 1.16-1.299 2.043-1.394 1.238-.13 2.216.727 2.718 1.792.295.606.26 1.264.641 1.818.693-1.359 2.493-1.956 3.705-.9zm-10.294.294c.295-.909.147-3.238-.675-3.342-.822-.103-.935 1.775-.9 2.07.078.718.77 1.333 1.575 1.281zm5.368 2.485c.208-1.255.199-2.156-.156-3.151-.346-.883-1.186-1.74-2.242-1.316-1.039.415-2 2.052-1.489 3.177s2.58 1.636 3.878 1.29zm-.251 4.026c6.606 1.359 14.415-.996 19.549-5.177.865-.702 1.671-1.559 1.558-2.805-1.706 1.688-3.532 2.891-5.645 3.921-5.792 2.823-12.328 4-18.51 1.732-1.593-.589-2.883-1.455-4.034-2.649 0 3.194 4.762 4.51 7.082 4.986zm5.575-2.849c.251-1.428-.415-3.463-1.688-3.566-1.264-.104-2.121 1.419-2.121 2.597s2.874 1.203 3.809.978zm-4.761-.415c-1.948.84-5.048-.165-5.498-2.312-.77.148-1.359.018-1.87-.476 1.178 2.615 6.216 3.896 8.805 3.896-.589-.095-.952-.77-1.437-1.108"/><path fill="#5eead4" d="m243.631 358.453-.814-5.757-.017-1.879c.476-.701.796-1.541 1.212-2.372.952-1.879 2.917-1.359 4.493-.563-.104-.606-.563-.995-.563-1.575l.026-7.939c.234-.009.823.233.823.528l.06 7.731 2.598 3.576 3.532-1.429.104-6.926c0-.156.511-.035.641.052.129.087.259.312.259.597l-.043 5.55c0 .77-.346 1.446-1.065 1.74l-3.221 1.333c.996 2.017 1.715 3.533 3.87 4.398 3.186 1.282 5.455.009 6.468.719.77.537.666 4.692.554 5.8-.26 2.615-4.892 1.767-6.424 1.23-3.619-1.282-7.125-2.476-10.857-3.498-.632-.173-1.558-.658-1.645-1.324z"/><path fill="#042f2e" d="M210.039 264.051c.07.286.061.598.13.883-.095.035-.839.104-.848.399l10.441 47.538c-1.169-.84-2.095-1.394-3.359-1.627l-5.853-26.553-3.974-18.164c-.069-.329-.034-.597-.277-.71-.242-.112-.502-.086-.727-.043-.06-.286-.147-.571-.182-.857 1.585.104 3.134-.043 4.658-.857z"/><path fill="#5eead4" d="M251.181 236.053c-1.195-1.81-2.251-3.741-3.472-5.637l-1.922-2.952a10.7 10.7 0 0 1-.901-1.679c1.282.095 2.58.285 3.905.528l1.082 2.285c.078.165.312.217.433.156.39-.199.329-.969.684-1.446l1.818 3.031c.139.233.398.285.606.233s.269-.329.269-.606l-.026-2.883c1.16.191 2.173.355 3.272.658l5.169 15.835c-.476.087-1.169.078-1.394-.199-.918-2.251-1.541-4.493-2.762-6.692l1.714 6.597c-.545.034-1.342.112-1.627-.303-.875-1.273-1.377-2.719-2.606-3.775.173 1.48 1.065 2.485 1.567 3.783-.269.026-1.195.208-1.429-.199-1.342-2.398-2.917-4.536-4.38-6.735m4.242 2.995c0-.052-.035-.087-.087-.087s-.086.035-.086.087.034.087.086.087.087-.035.087-.087"/><path fill="#042f2e" d="M200.213 221.993c-.017.286 0 .528.078.935l6.303 33.306c.06.32-.078.545-.243.554-.268.017-.467-.026-.536-.399l-6.667-34.396c.052-.442.13-.511.606-.563.52-.06.295.329.459.563"/><path fill="#5eead4" d="m241.007 331.043.528.935.061 7.905c.606 1.437 1.221 2.779 1.965 4.103a20 20 0 0 0 3.005-.805l.043-5.818c.286.104.848.303.848.667l.018 4.814c0 .683-.451 1.194-1.074 1.359l-2.995.796c0 1.663.614 2.346-.511 3.515.06-1.567-.182-3.246-.589-4.848s-1.515-2.372-1.524-3.775l-.06-8.657c0-.156.069-.26.156-.251.086.008.086.026.138.052z"/><path fill="#042f2e" d="M305.135 233.092c-.693.311-3.152 2.848-3.662 2.606-.511-.243-.312-.355-.191-.546l2.459-4.173c.208-.355.415-.658.338-1.03.432 1.03.683 2.112 1.056 3.151zm-.58-.771c-.217-.208-.373-.208-.58-.208-.199.381-.416.667-.528 1.1.467-.199.753-.52 1.108-.892m-54.5-12.588c1.013.355 1.956.866 2.961 1.377s.156.337.147.433a.32.32 0 0 1-.32.268 63 63 0 0 1-4.693-.199c.225-.528.745-.944 1.255-1.169.113.615.84.606 1.351.416-.459-.13-.762-.295-1.351-.416-.008-.398.451-.493.658-.71z"/><path fill="#5eead4" d="m289.195 214.902-1.696 5.394.112-6.069c.546.156 1.152.338 1.584.667z"/><path fill="#042f2e" d="M321.557 354.765c-4.805 5.126-10.961 9.411-17.947 10.692-6.234 1.143-12.303-1.134-16.207-6.138-2.078-2.658-3.42-5.723-4.32-9.021-1.541-5.645-1.567-11.35-.693-17.177 1.558-10.319 5.74-20.102 12.268-28.241 5.636-7.03 14.224-13.653 23.6-13.73 5.1-.044 9.714 2.19 12.891 6.103 2.243 2.762 3.654 5.887 4.563 9.342 2.58 9.713 1.022 20.189-2.545 29.496-2.658 6.935-6.537 13.272-11.61 18.674m-8.701 2.433c3.307-1.939 6.156-4.363 8.701-7.272 6.839-7.835 10.969-17.618 11.991-27.982.303-3.073.129-5.861-.364-8.856-.615-3.732-1.87-7.238-4.121-10.259s-7.298-6.061-12.181-5.853c-7.402.312-13.688 4.952-18.449 10.294-9.212 10.346-15.021 28.05-10.355 41.547 1.16 3.36 3.091 6.312 5.861 8.502 5.706 4.519 13.021 3.342 18.917-.112z"/><path fill="#042f2e" d="M283.265 353.718c1.134 2.969 2.675 5.315 4.805 7.8-1.42-.666-2.511-1.879-3.515-3.108-4.545-5.567-6.043-13.687-5.731-20.769.588-13.186 5.748-26.276 14.57-36.128 5.853-6.537 15.09-12.839 24.267-11.368-3.454.364-6.441 1.013-9.454 2.476-9.28 4.52-16.38 13.047-20.908 22.172-5.679 11.454-8.839 26.588-4.034 38.933zm-12.726 28.24c2.164 2.97 7.324 3.862 10.882 3.853a24.52 24.52 0 0 0 16.181-6.632c4.389-4.121.701-.943 1.203-1.255.044.926-.363 1.853-1.108 2.589-4.346 4.302-10.285 6.83-16.466 6.796-3.221-.018-10.632-1.117-10.71-5.351z"/><path fill="#042f2e" d="M277.37 341.614c-7.29.857-14.64.19-21.601-2.216-6.372-2.199-12.302-6.121-15.159-12.389.069.156-.485-2.398-.035-2.398 2.182 6.908 8.121 11.289 14.709 13.705 7.126 2.614 14.753 3.35 22.285 2.398 7.532-.953.372.259.372.458 0 .2-.208.39-.571.433zm15.704 39.816c-.537.494-1.212.719-1.836 1.048-.692-3.584-3.627-5.957-6.865-7.299-.242-.103.139-1.012.424-.926 2.243.641 4.372 1.403 6.355 2.675.649.416 1.61.97 1.939 1.68s-.06 1.965-.026 2.831zm-12.129.044c-.277-1.801-1.697-4.139-3.853-3.593-2.156.545-1.87 1.134-2.355 2.207-.043-.831-.233-1.714-.762-2.467-.528-.753-2.077-.987-2.883-.19-.164-.563.277-.909.84-.987 3.697-.546 7.558.095 10.857 1.87.796.433 1.506.727 2.216 1.29 1.385 1.099 2.433 2.476 2.727 4.268-.459.225-.935.381-1.411.337.32-1.619-.121-3.402-1.454-4.467-.641-.511-1.602-.433-2.39-.095s-1.073.996-1.532 1.844z"/><path fill="#042f2e" d="M279.932 383.24c-1.654.675-3.559.268-4.745-.979.026-1.506.953-3.688 2.641-3.566 1.714.129 2.441 2.848 2.104 4.545m1.801-65.209c-2.589.467-4.762-1.437-4.9-4.061l-2.191.676 1.628-3.385c.727-.2 1.273-.425 2.138-.477 0 .883-.45 1.628-.597 2.511-.216 1.273.19 2.476 1.1 3.238.909.762 2.328.961 3.61.416.164.45-.191.969-.797 1.073zm3.705 65.728c-1.108.173-2.874.597-3.679-.39-.624-.77.32-2.294.944-2.779s1.636-.329 2.147.381.77 1.663.597 2.779zm-11.722-2.372c-1.1.269-2.355-.433-2.615-1.524-.259-1.09.416-2.285 1.507-2.138s1.316 2.398 1.108 3.662m24.752-7.93c.779 2.684-.026 3.774-2.069 5.567-.156-2.018.597-4 2.069-5.567"/><path fill="#042f2e" d="M280.685 383.655c.502.546.996.806 1.559 1.161-2.269.181-4.407-.07-6.52-.624-1.497-.571-2.934-1.03-4.043-2.216.935.303 1.671.545 2.58.147.433 2.147 4.84 3.091 6.424 1.541zm-5.108-10.51-2.355.208c-.484-.866 2.191-.658 2.58-.606s.044.372-.233.398zm13.022-11.082c-.156-.138-.338-.233-.442-.493.225.06.381.182.442.493"/><path fill="#5eead4" d="m263.656 247.022-9.03-1.013c-.84-.095-1.376-.805-1.247-1.645.13-.84.529-1.229 1.005-1.809.381.398.519.753.831 1.186l7.731.891c4.182-6.216 9.696-11.523 17.003-13.488 7.082-1.905 14.294.892 18.129 7.134 1.576 2.562 2.728 5.289 3.299 8.397-.658-.623-1.532-1.177-1.861-1.921-1.074-2.572-2.13-4.996-3.966-7.126-3.064-3.549-7.592-5.497-12.285-4.908-7.48.943-13.878 7.376-18.077 13.22-.329.458-.753 1.177-1.532 1.082m1.48.389 1.117 3.654-8.718-.875-1.273-3.125 6.952.744c.658.07 1.212.044 1.922-.389zm18.597 65.633c-.468-.06-.719-.355-.884-.554-.164-.199-.034-.71.026-1.073l2.935-17.982c.312-.199.953.164.892.563zm-35.834-4.216c.06.485-.649.883-.978.952l-2.269-19.012c-.034-.311-.026-.545.156-.701s.433-.329.727-.156zm5.281-16.951c-.347.684-1.005 1.004-1.515 1.082-.702.112-1.325-.147-1.836-.632-.805-.771-1.117-1.965-.866-3.039.252-1.073.676-1.29 1.169-1.506.805-.347 1.602-.217 2.225.303 1.082.9 1.481 2.467.805 3.792zm30.942.926c-.926.467-1.957.017-2.502-.727-.944-1.29-.649-3.143.623-4.087s2.078-.545 2.797.32c1.16 1.386.796 3.628-.927 4.494zm-40.059-3.472c-3.29-1.818-5.584-4.623-7.324-7.826-.476-.875-.58-1.81.19-2.658 1.463 4.302 4.277 7.636 8.182 9.973-.113.303-.702.701-1.048.511m48.5-.398c-.684.805-5.558 5.489-6.13 3.429 3.723-2.052 6.779-5.169 8.511-9.091.303.433.666 1.134.424 1.654-.71 1.498-1.732 2.753-2.796 4.008zm-17.999-12.068c-4.302 4.216-2.069 9.549-2.415 10.016s-.39.286-.762.52c-1.333-3.775-.337-8.13 3.177-10.536m-11.228-49.505c-.796-1.194-1.134-2.657-1.905-3.965-.77-1.307-1.125-.9-1.671-1.523l2.632.45c.321 1.653.866 3.16.944 5.038m17.219 85.598c.632-.26 1.23.199 1.429.649.251.589-.113 1.255-.58 1.455-.624.268-1.169-.009-1.429-.503-.303-.562-.147-1.307.589-1.601z"/><path fill="#5eead4" d="M292.598 239.377c-9.948-6.086-20.077 3.16-25.583 11.186l-1.282-3.974c4.104-5.853 10.606-12.277 17.991-13.09 3.584-.399 7.038.943 9.757 3.255 2.104 1.792 3.48 4.103 4.476 6.545-1.836-1.507-3.446-2.753-5.359-3.922"/><path fill="#042f2e" d="M231.12 325.303c-.735 1.559-4.146 4.416-6.311 4.857-.182-1.489-.961-2.935-.909-4.433.156-3.965-.476-7.817-2.831-11.116l-1.931-8.9c8.797.589 15.489 12.147 11.974 19.592zm-12.484-6.233c-.753.848-1.021 1.913-.64 3.125.268.831 1.073 1.61 2.164 1.896 1.48.39 2.606-.138 2.796.043.191.182.078.303 0 .373-.268.233-1.896-.528-3.489.562-.891.615-1.272 1.507-1.116 2.589s.761 1.437 1.722 2.208c-.744.017-1.376.675-1.93.649-2.442-.147-4.623-1.532-6.346-3.255-2.719-2.71-4.173-6.433-3.723-10.233.502-4.26 2.814-7.792 6.537-9.853l.831 3.931-1.169.173c-.329.052-.424.225-.416.493.035.849 1.801-.138 2.632.555-1.324 1.238-2 3.35-.684 4.735s4.052 1.212 5.463-.164c.329.182.381.511.355.779-1.221.052-2.19.519-2.978 1.402zm12.13 55.2-9.809-43.729c1.065-.753 1.801-1.627 2.355-2.917l10.233 45.841c.147.676-.667 1.013-1.013 1.186s-1.403.243-1.766-.381m-7.55-73.234c-1.697.624-3.004 1.645-4.545 2.598l-1.36-6.061c3.1 1.039 6.052 1.455 9.186 1.524-1.108.796-2.087 1.411-3.29 1.939zm-11.791-7.921c-3.325-3.152-4.606-7.939-3.576-12.398s.113-1.212.546-1.731z"/><path fill="#042f2e" d="M223.043 323.044c-1.42.684-3.723.329-4.207-1.195-.485-1.523-.07-1.463.398-2.06.675-.866 1.749-1.308 2.865-1.282.494 1.49.797 2.883.944 4.546zm-2.164-7.065c-1.031 1.273-3.048 1.654-4.277.598s0-3.55.857-3.853c.372-.13.641.121.987.286.961.805 1.749 1.697 2.424 2.969zm.389 13.108c-.355.355-2.129-.632-2.034-2.078.104-1.593 2.389-1.887 3.671-1.498-.182 1.333-.65 2.58-1.645 3.576z"/><path fill="#5eead4" d="m265.361 344.151.026 7.688c0 .511-.182.978-.589 1.229a31 31 0 0 1-3.359 1.836c-1.169.545-1.16.129-1.636-.321l-2.286-2.207c-.372-.364-.857-.788-.857-1.386v-8.597c.225-.155.572-.043.849.087l.078 8.692 3.116 3.082c1.316-.545 2.511-1.238 3.758-2.104l.086-8.042c.052-.2.719-.148.814.043m5.489 8.804a1.45 1.45 0 0 1-1.507-.588c-.372-.546-.372-1.186-.052-1.637.321-.45 1.031-.727 1.706-.562s1.065.779 1.039 1.428c-.026.65-.442 1.212-1.186 1.368z"/><path fill="#5eead4" d="M262.028 351.614c-.632.692-1.55.389-2.035-.104-.484-.494-.709-1.585 0-2.156.71-.571 1.446-.234 1.914.268.467.503.692 1.368.121 1.983zm-8.986-5.238c.19.58.043 1.203-.321 1.498-.363.294-1.177.225-1.619-.173-.441-.399-.71-.78-.692-1.299.017-.52.225-1.022.744-1.221.875-.337 1.602.321 1.888 1.195m-8.589-6.909c.58.779.77 2.364-.217 2.554-.987.191-.597-.043-.839-.311-.581-.65-.884-1.663-.338-2.416.545-.753 1.082-.251 1.394.173"/><path fill="#042f2e" d="M245.552 375.404c-2.32-.476-7.082-1.792-7.082-4.986 1.161 1.194 2.442 2.06 4.035 2.649 6.181 2.277 12.718 1.099 18.51-1.732 2.112-1.03 3.93-2.233 5.644-3.921.122 1.246-.692 2.095-1.558 2.805-5.142 4.181-12.943 6.536-19.549 5.177z"/><path fill="#042f2e" d="M260.963 370.357c-.97.546-1.87.996-2.944 1.299-.736-3.749-3.194-5.853-6.302-7.619.121-.433.441-.467.735-.363l3.723 1.281c1.827.632 3.463 1.567 4.918 2.918l-.122 2.493zM250.73 368.6c-1.203-1.056-3.004-.459-3.705.9-.381-.554-.355-1.212-.641-1.818-.511-1.065-1.481-1.922-2.719-1.792-.891.087-1.489.745-2.043 1.394-.493-1.48-.268-2.234-1.982-2.718 4.753-.814 13.505 3.047 14.103 8.363-.658.207-1.16.242-1.905.259.45-1.515.243-3.411-1.099-4.588z"/><path fill="#042f2e" d="M245.804 371.379c-1.298.346-3.246.095-3.878-1.29s.441-2.753 1.489-3.178c1.056-.424 1.896.433 2.242 1.316.346.996.364 1.888.156 3.152zm5.324 1.177c-.944.225-3.809.295-3.809-.978s.866-2.701 2.121-2.597c1.273.104 1.939 2.147 1.688 3.567zm15.367-9.324c.485 2.71.018 3.429-2.216 5.056 0-1.861.736-3.723 2.216-5.056"/><path fill="#042f2e" d="M246.366 372.141c.485.337.849 1.013 1.438 1.108-2.598 0-7.628-1.281-8.805-3.896.511.485 1.099.615 1.87.476.459 2.147 3.558 3.152 5.497 2.312m-5.929-3.247c-.814.061-1.498-.562-1.576-1.281s.173-2.156.9-2.069c.728.086.97 2.433.676 3.342zm3.575-7.627c-.433.416-1.031.251-1.593.121.415-.528 1.013-.459 1.593-.121m11.323-122.132a.087.087 0 0 0 .087-.087.086.086 0 0 0-.087-.086.086.086 0 0 0-.086.086c0 .048.039.087.086.087"/><path fill="#5eead4" d="M304.554 232.321c-.355.381-.641.693-1.108.892.112-.433.329-.719.528-1.099.208 0 .364 0 .58.207m-55.158-11.878c.589.121.892.286 1.351.416-.52.19-1.238.19-1.351-.416"/><path fill="#042f2e" d="M312.857 357.198c-5.896 3.454-13.212 4.632-18.917.112s-4.701-5.142-5.861-8.501c-4.675-13.497 1.142-31.193 10.354-41.548 4.762-5.342 11.039-9.982 18.449-10.294 4.892-.207 9.29 1.957 12.182 5.853 2.891 3.896 3.506 6.528 4.121 10.259.493 2.987.666 5.783.363 8.857-1.021 10.363-5.151 20.154-11.991 27.981-2.545 2.909-5.393 5.342-8.7 7.272z"/><path fill="#030712" d="M273.161 211.37c1.783 0 3.489.156 5.056.476l6.597 1.351c.147.034.251.242.234.303l2.562.736c.546.156 1.152.337 1.585.666.164.13.554.191.692.373 2.217.77 4.528 2.06 6.467 3.471 3.593 2.615 6.095 7.307 7.723 11.194.433 1.031.684 2.113 1.056 3.152 1.16 3.229 1.697 6.709 1.983 10.242l.19 2.372v4.346c0 .961-.355 1.913-.034 2.944 7.852 2.51 14.665 6.207 20.258 12.345.797.875 1.385 1.714 2.035 2.667 3.783 5.532 5.333 12.328 1.376 18.276-1.463 2.199-3.48 3.801-5.861 5.09.58.684 1.342.745 1.983 1.143 9.809 6.216 11.774 19.592 10.406 30.241-.866 6.718-2.649 12.147-5.437 18.268-.225.502-.433.909-.701 1.428-3.039 5.757-6.857 10.995-11.662 15.428-5.039 4.649-11.991 8.735-19.003 8.735s-.658-.008-.978-.026l-.174 1.498c-.112.978-.45 1.974-.069 2.952.234.589-.009 1.074.026 1.619l.139 2.234c.112 1.792.554 4.259-.849 5.74-2.684 2.831-5.878 4.943-9.566 6.19-2.676.9-5.169 1.411-7.749 1.411s-2.987-.164-4.58-.519c-1.982-.442-3.974-1.108-5.515-2.381-1.35-1.108-1.766-2.571-1.748-4.199.017-1.671.129-3.16.692-4.744.234-.658.191-1.611.788-2.07.416-.32.658-.606.952-1.047l1.411-2.164c.156-.243.009-.684.321-.866-.459-2.875-1.065-5.732-1.281-8.632-.018-.268 0-.666-.078-.917-.39-1.29-.563-4.502-.875-4.728-.13-.095-.234-.129-.329-.129-.199 0-.346.138-.614.138-.269 0-.529-.095-.996-.459-.771-.588-1.437-1.281-2.346-1.593-.286.667.207 1.022.337 1.515.641 2.381-.649 3.541-.034 4.927.294.675.043 1.264.034 1.921l-.069 5.87c-.026 2.018-3.775 4.286-5.359 5.169-3.307 1.861-6.917 2.935-10.709 3.359-.528.061-1.1.087-1.689.087-2.874 0-6.337-.676-8.597-1.836-1.264-.649-2.675-1.55-3.22-2.943-.996-2.511-.546-5.472.805-7.723.398-1.316 1.203-2.19 2.346-2.848.944-.546 1.463-1.844 2.035-2.104.06-.338.199-.675.511-.84l-.814-5.757-.018-1.879.096-2.303c.06-1.567-.182-3.246-.589-4.848-.329-1.29-1.515-2.372-1.524-3.775l-.06-8.657c0-.147.069-.251.147-.251h.008c.044 0 .087.026.139.052.052-.442-.139-1.005.19-1.351l-.831-2.285c-.45-1.238-.337-4.892-.078-6.286.07-.363.148-.71-.129-.926a2.3 2.3 0 0 0-.477.147c.026.796-1.16 1.195-2.251 2.286-1.87 1.861-4.389 2.839-6.398 4.501-1.87 1.542-3.402 3.282-6.043 3.905l1.308 5.974 7.904 35.279c.191.866.407 1.368-.069 2.191-.294.502-.918.917-1.732 1.151-.13.035-.294.052-.467.052-.762 0-1.818-.346-2-1.16l-9.627-42.768c-3.515-.026-6.615-1.299-9.073-3.645-.831-.797-1.36-1.766-2.121-2.658-2.71-4.45-2.641-9.757-.018-14.268 1.247-2.138 3.1-3.645 5.316-4.891l-2.58-11.61-2.069-2.138c-1.1-1.135-1.862-2.606-2.39-4.165-1.255-3.688-.805-7.592.606-11.194l-2.424-11.428c-.06-.286-.147-.571-.182-.857l-.943-.58-.433-7.575c-.104-1.844-4.286-3.68-5.775-4.286-.407-.164-.199-.926-.19-1.247l.156-7.116.493-11.567.156-5.185c.026-.858.234-1.706.147-2.598-.095-.978.043-1.887.147-2.77.052-.442.13-.511.606-.563h.096c.398 0 .216.346.363.572.399.58 1.801 3.904 2.225 4.856l6.329 14.251 3.446 8.129c.303.71-2.052 1.922-3.446 4.736-.468.935-.606 1.818-.26 2.822l1.991 5.766c.226.658-.043 1.074-.467 1.498.069.286.061.597.13.883l1.394 6.207c4.502-5.679 9.488-9.055 15.678-12.189.641-.329 1.247-.589 1.871-.745.614-.156.969-.511 1.203-1.082.26-.935.796-1.836 1.212-2.814 3.645-8.562 10.77-14.242 19.263-17.419.286-.104.364-.597.39-.848-1.195-1.81-2.251-3.74-3.472-5.636l-1.922-2.953a10.6 10.6 0 0 1-.9-1.679c-.174-.398-.511-.554-.174-.996.58-.779 2.39-3.177 3.386-3.177h.051c.226-.528.745-.944 1.256-1.169-.009-.398.45-.493.658-.71 4.857-5.03 14.796-8.363 23.115-8.363m-.008-1.472c-4.268 0-9.013.849-13.35 2.381-4.545 1.61-8.268 3.809-10.761 6.372-.009 0-.018.017-.026.017-.165.104-.529.329-.797.736a4 4 0 0 0-1.013.909c-.996.399-2.112 1.507-3.679 3.593-.442.58-.468 1.126-.425 1.481.061.441.26.744.381.926.018.026.035.061.052.078.312.701.624 1.29 1.013 1.879l1.922 2.952a80 80 0 0 1 1.654 2.692c.389.65.788 1.316 1.195 1.974-9.108 3.645-15.723 9.801-19.151 17.852-.13.312-.277.615-.441.944-.303.623-.615 1.264-.814 1.965-.052.113-.078.121-.165.139-.666.164-1.342.432-2.181.857-3.515 1.783-6.277 3.454-8.693 5.281a41 41 0 0 0-5.532 5.021l-.744-3.333c0-.026-.009-.069-.018-.121a2.8 2.8 0 0 0 .303-.58q.338-.884 0-1.844l-1.991-5.766c-.19-.563-.138-1.031.182-1.688.649-1.308 1.541-2.217 2.251-2.953.355-.363.658-.666.883-.987.623-.857.528-1.575.338-2.026l-3.446-8.129v-.026l-6.329-14.25a76 76 0 0 1-.363-.823c-.918-2.112-1.49-3.394-1.845-4.017-.19-1.073-1.038-1.454-1.731-1.454-.078 0-.165 0-.251.017-.294.035-.84.087-1.299.519-.511.468-.58 1.083-.606 1.342-.008.113-.026.225-.043.338-.095.805-.208 1.723-.113 2.736.035.407-.008.848-.06 1.324-.035.347-.078.71-.087 1.1l-.156 5.177-.493 11.549v.035l-.156 7.099a1 1 0 0 1-.017.13c-.026.234-.069.563-.026.909.078.762.502 1.351 1.151 1.61.805.329 1.991.849 3.03 1.472 1.559.926 1.801 1.489 1.827 1.55l.433 7.558.043.77.658.407.399.243v.017c.017.078.034.156.051.225l2.338 11.004c-1.532 4.13-1.697 8.199-.467 11.791.666 1.94 1.584 3.524 2.727 4.71l1.783 1.836 2.26 10.155c-2.225 1.394-3.801 2.961-4.918 4.874-2.935 5.039-2.917 10.935.026 15.774l.061.104.078.095c.268.312.519.658.779 1.013.424.58.857 1.178 1.446 1.74 2.467 2.355 5.523 3.723 8.9 4l9.384 41.669c.355 1.584 2.035 2.312 3.438 2.312 1.402 0 .606-.035.874-.113 1.186-.338 2.112-.987 2.597-1.827.71-1.229.485-2.19.295-2.969q-.029-.13-.07-.286l-7.895-35.28-1.022-4.675c1.74-.71 3.013-1.818 4.251-2.909.329-.285.666-.58.995-.857.797-.658 1.697-1.212 2.658-1.792 1.308-.796 2.667-1.627 3.836-2.796.043-.043.086-.087.138-.13-.052 1.576.017 3.368.381 4.363l.623 1.715c-.06.225-.077.432-.077.623a1.8 1.8 0 0 0-.286 1.004l.06 8.658c0 1.194.563 2.164 1.005 2.943.242.433.476.84.562 1.178.416 1.636.598 3.125.546 4.432l-.095 2.303v.07l.017 1.878v.096l.017.095.71 5.056c-.086.13-.164.285-.225.459-.26.251-.485.545-.701.831-.26.346-.546.736-.797.874-1.489.866-2.458 2.017-2.961 3.524-1.584 2.744-1.904 6.121-.813 8.865.753 1.905 2.597 3.03 3.913 3.706 2.363 1.212 6 1.999 9.272 1.999s1.281-.034 1.853-.095c4.129-.459 7.921-1.653 11.272-3.541 4.086-2.303 6.086-4.406 6.104-6.432l.069-5.87c0-.121.017-.26.043-.433.069-.537.165-1.273-.208-2.112-.086-.191-.043-.442.096-1.048.103-.459.225-1.013.251-1.671.398.234.779.355 1.151.39.043.294.087.614.121.874.13 1.013.269 2.052.476 2.77 0 .061.009.208.018.295 0 .112 0 .225.017.346.165 2.165.537 4.312.9 6.389l.312 1.81a2.4 2.4 0 0 0-.138.58l-1.282 1.974c-.216.337-.355.485-.614.684-.849.658-1.039 1.627-1.169 2.277-.035.182-.069.363-.113.467-.623 1.74-.762 3.351-.779 5.229-.026 2.321.727 4.069 2.286 5.351 1.497 1.229 3.445 2.078 6.129 2.675 1.68.372 3.281.554 4.9.554 2.598 0 5.212-.476 8.216-1.489 3.827-1.29 7.247-3.506 10.164-6.571 1.671-1.758 1.464-4.277 1.308-6.121-.018-.26-.044-.502-.052-.727l-.139-2.234c0-.061.009-.19.026-.312.052-.407.13-1.03-.147-1.757-.139-.364-.052-.874.043-1.472.044-.251.087-.502.113-.779l.017-.165c3.403-.06 6.952-.987 10.571-2.77 3.134-1.55 6.285-3.749 9.108-6.346 4.666-4.303 8.692-9.627 11.965-15.826.294-.563.51-.996.744-1.506 1.524-3.342 2.632-6.234 3.506-9.082a58 58 0 0 0 2.052-9.601c.372-2.883.485-5.775.338-8.606-.156-3.108-.632-6.06-1.394-8.761-.857-3.013-2.078-5.714-3.628-8.026-1.705-2.537-3.818-4.623-6.294-6.207 1.758-1.23 3.152-2.632 4.225-4.243a15.3 15.3 0 0 0 2.199-5.082c.381-1.671.468-3.419.26-5.203-.372-3.186-1.697-6.519-3.844-9.644-.684-.996-1.316-1.896-2.156-2.823-2.805-3.082-5.956-5.644-9.618-7.809-3.074-1.818-6.476-3.35-10.381-4.649.009-.199.044-.407.07-.649.043-.355.095-.762.095-1.195v-4.467l-.199-2.372c-.347-4.277-1.004-7.654-2.069-10.623-.139-.39-.26-.788-.39-1.221-.199-.658-.407-1.333-.693-2.009-2.328-5.575-5.099-9.549-8.216-11.817-2.112-1.541-4.45-2.805-6.597-3.584a2.6 2.6 0 0 0-.614-.303s-.018 0-.026-.009c-.641-.45-1.377-.667-1.974-.84l-2.035-.588a1.7 1.7 0 0 0-.874-.477l-6.597-1.35c-1.628-.338-3.429-.502-5.351-.502z"/><path fill="#5eead4" d="M308.086 344.631c-.338.04-.607-.348-.512-.833 1.647-8.791 3.398-17.637 5.094-26.464.072-.392.324-.628.574-.663s.405.101.495.393c2.037 6.966 4.128 13.922 6.09 20.729.113.383-.078.872-.409 1.044-3.748 1.973-7.474 3.915-11.167 5.739a.6.6 0 0 1-.155.048m4.897-35.323c-.48.055-.969.423-1.291 1.095-4.058 8.53-8.318 17.19-12.355 25.444-.319.654-.343 1.446-.061 2.046 1.716 3.589 3.44 7.25 5.125 10.932.261.57.743.874 1.241.813s.261-.051.383-.113c5.271-2.546 10.643-5.427 16.067-8.38.891-.487 1.409-1.813 1.096-2.819-2.826-9.061-5.978-18.544-8.932-28-.229-.731-.75-1.067-1.284-1.002"/></g><path fill="#0a101d" stroke="#2dd4bf" stroke-linejoin="round" stroke-width=".535" d="M384.802 335.201v34.812c0 5.633-3.971 12.466-8.865 15.328l-39.705 22.9-.37.185c-2.216 1.293-4.247 1.477-5.817.831l-.923-.462c-1.293-1.108-2.124-2.955-2.124-5.448v-34.811c0-5.633 3.97-12.466 8.864-15.329l36.289-20.96 3.786-2.124c1.385-.831 2.77-1.201 3.971-1.201 1.2 0 1.2.093 1.662.277 1.939.739 3.232 2.863 3.232 6.002Z"/><g filter="url(#d)"><path fill="#14b8a6" d="M362.548 363.549c0-4.155-2.955-5.817-6.556-3.786-3.601 2.124-6.556 7.11-6.556 11.266s1.385 4.524 3.509 4.616v5.079c0 1.939 1.385 2.678 3.047 1.754s3.047-3.324 3.047-5.263v-5.078c2.032-2.494 3.509-5.725 3.509-8.68z"/></g><path fill="#0a101d" stroke="#2dd4bf" stroke-linejoin="round" stroke-width=".535" d="M381.57 329.199c-.461-.184-1.108-.277-1.662-.277-1.2 0-2.493.37-3.97 1.201l-3.786 2.123-36.289 20.961c-4.894 2.863-8.865 9.696-8.865 15.328v34.812c0 2.493.831 4.34 2.124 5.356l-11.727-6.741-.369-.185c-1.57-.923-2.586-2.862-2.586-5.725v-34.811c0-5.633 3.971-12.466 8.865-15.329l5.817-3.324 34.258-19.76c1.385-.831 2.77-1.201 3.97-1.201s1.293.093 1.847.37l.923.461z"/><path fill="#0a101d" stroke="#2dd4bf" stroke-linejoin="round" stroke-width=".535" d="M329.03 351.915c-1.477 0-2.678-1.201-2.678-2.586v-9.418c0-14.775 8.772-31.488 19.945-37.859l2.771-1.57c5.355-3.047 10.618-3.416 14.866-1.016 4.894 2.863 7.756 9.142 7.756 17.36v9.418a2.58 2.58 0 0 1-2.585 2.586c-1.385 0-2.585-1.2-2.585-2.586v-9.418c0-6.279-1.847-10.896-5.171-12.743-3.232-1.847-7.018-.461-9.604 1.016l-2.77 1.57c-9.511 5.54-17.359 20.499-17.359 33.334v9.418a2.58 2.58 0 0 1-2.586 2.586z"/><defs><filter id="a" width="490.547" height="510.427" x="38.665" y="0" color-interpolation-filters="sRGB" filterUnits="userSpaceOnUse"><feFlood flood-opacity="0" result="BackgroundImageFix"/><feColorMatrix in="SourceAlpha" result="hardAlpha" values="0 0 0 0 0 0 0 0 0 0 0 0 0 0 0 0 0 0 127 0"/><feOffset dy="-.307"/><feGaussianBlur stdDeviation="3.206"/><feColorMatrix values="0 0 0 0 0.262745 0 0 0 0 0.941176 0 0 0 0 0.764706 0 0 0 0.230539 0"/><feBlend in2="BackgroundImageFix" result="effect1_dropShadow_2014_3022"/><feColorMatrix in="SourceAlpha" result="hardAlpha" values="0 0 0 0 0 0 0 0 0 0 0 0 0 0 0 0 0 0 127 0"/><feOffset dy="-.738"/><feGaussianBlur stdDeviation="7.704"/><feColorMatrix values="0 0 0 0 0.262745 0 0 0 0 0.941176 0 0 0 0 0.764706 0 0 0 0.331192 0"/><feBlend in2="effect1_dropShadow_2014_3022" result="effect2_dropShadow_2014_3022"/><feColorMatrix in="SourceAlpha" result="hardAlpha" values="0 0 0 0 0 0 0 0 0 0 0 0 0 0 0 0 0 0 127 0"/><feOffset dy="-1.389"/><feGaussianBlur stdDeviation="14.506"/><feColorMatrix values="0 0 0 0 0.262745 0 0 0 0 0.941176 0 0 0 0 0.764706 0 0 0 0.41 0"/><feBlend in2="effect2_dropShadow_2014_3022" result="effect3_dropShadow_2014_3022"/><feColorMatrix in="SourceAlpha" result="hardAlpha" values="0 0 0 0 0 0 0 0 0 0 0 0 0 0 0 0 0 0 127 0"/><feOffset dy="-2.478"/><feGaussianBlur stdDeviation="25.876"/><feColorMatrix values="0 0 0 0 0.262745 0 0 0 0 0.941176 0 0 0 0 0.764706 0 0 0 0.488808 0"/><feBlend in2="effect3_dropShadow_2014_3022" result="effect4_dropShadow_2014_3022"/><feColorMatrix in="SourceAlpha" result="hardAlpha" values="0 0 0 0 0 0 0 0 0 0 0 0 0 0 0 0 0 0 127 0"/><feOffset dy="-4.634"/><feGaussianBlur stdDeviation="48.398"/><feColorMatrix values="0 0 0 0 0.262745 0 0 0 0 0.941176 0 0 0 0 0.764706 0 0 0 0.589461 0"/><feBlend in2="effect4_dropShadow_2014_3022" result="effect5_dropShadow_2014_3022"/><feColorMatrix in="SourceAlpha" result="hardAlpha" values="0 0 0 0 0 0 0 0 0 0 0 0 0 0 0 0 0 0 127 0"/><feOffset dy="-11.092"/><feGaussianBlur stdDeviation="115.848"/><feColorMatrix values="0 0 0 0 0.262745 0 0 0 0 0.941176 0 0 0 0 0.764706 0 0 0 0.82 0"/><feBlend in2="effect5_dropShadow_2014_3022" result="effect6_dropShadow_2014_3022"/><feBlend in="SourceGraphic" in2="effect6_dropShadow_2014_3022" result="shape"/></filter><filter id="b" width="398.183" height="406.243" x="0" y="47.246" color-interpolation-filters="sRGB" filterUnits="userSpaceOnUse"><feFlood flood-opacity="0" result="BackgroundImageFix"/><feColorMatrix in="SourceAlpha" result="hardAlpha" values="0 0 0 0 0 0 0 0 0 0 0 0 0 0 0 0 0 0 127 0"/><feOffset dy="-.249"/><feGaussianBlur stdDeviation="2.601"/><feColorMatrix values="0 0 0 0 0.262745 0 0 0 0 0.941176 0 0 0 0 0.764706 0 0 0 0.230539 0"/><feBlend in2="BackgroundImageFix" result="effect1_dropShadow_2014_3022"/><feColorMatrix in="SourceAlpha" result="hardAlpha" values="0 0 0 0 0 0 0 0 0 0 0 0 0 0 0 0 0 0 127 0"/><feOffset dy="-.599"/><feGaussianBlur stdDeviation="6.251"/><feColorMatrix values="0 0 0 0 0.262745 0 0 0 0 0.941176 0 0 0 0 0.764706 0 0 0 0.331192 0"/><feBlend in2="effect1_dropShadow_2014_3022" result="effect2_dropShadow_2014_3022"/><feColorMatrix in="SourceAlpha" result="hardAlpha" values="0 0 0 0 0 0 0 0 0 0 0 0 0 0 0 0 0 0 127 0"/><feOffset dy="-1.127"/><feGaussianBlur stdDeviation="11.77"/><feColorMatrix values="0 0 0 0 0.262745 0 0 0 0 0.941176 0 0 0 0 0.764706 0 0 0 0.41 0"/><feBlend in2="effect2_dropShadow_2014_3022" result="effect3_dropShadow_2014_3022"/><feColorMatrix in="SourceAlpha" result="hardAlpha" values="0 0 0 0 0 0 0 0 0 0 0 0 0 0 0 0 0 0 127 0"/><feOffset dy="-2.01"/><feGaussianBlur stdDeviation="20.996"/><feColorMatrix values="0 0 0 0 0.262745 0 0 0 0 0.941176 0 0 0 0 0.764706 0 0 0 0.488808 0"/><feBlend in2="effect3_dropShadow_2014_3022" result="effect4_dropShadow_2014_3022"/><feColorMatrix in="SourceAlpha" result="hardAlpha" values="0 0 0 0 0 0 0 0 0 0 0 0 0 0 0 0 0 0 127 0"/><feOffset dy="-3.76"/><feGaussianBlur stdDeviation="39.271"/><feColorMatrix values="0 0 0 0 0.262745 0 0 0 0 0.941176 0 0 0 0 0.764706 0 0 0 0.589461 0"/><feBlend in2="effect4_dropShadow_2014_3022" result="effect5_dropShadow_2014_3022"/><feColorMatrix in="SourceAlpha" result="hardAlpha" values="0 0 0 0 0 0 0 0 0 0 0 0 0 0 0 0 0 0 127 0"/><feOffset dy="-9"/><feGaussianBlur stdDeviation="94"/><feColorMatrix values="0 0 0 0 0.262745 0 0 0 0 0.941176 0 0 0 0 0.764706 0 0 0 0.82 0"/><feBlend in2="effect5_dropShadow_2014_3022" result="effect6_dropShadow_2014_3022"/><feBlend in="SourceGraphic" in2="effect6_dropShadow_2014_3022" result="shape"/></filter><filter id="d" width="389.112" height="399.975" x="161.436" y="161.898" color-interpolation-filters="sRGB" filterUnits="userSpaceOnUse"><feFlood flood-opacity="0" result="BackgroundImageFix"/><feColorMatrix in="SourceAlpha" result="hardAlpha" values="0 0 0 0 0 0 0 0 0 0 0 0 0 0 0 0 0 0 127 0"/><feOffset dy="-.249"/><feGaussianBlur stdDeviation="2.601"/><feColorMatrix values="0 0 0 0 0.262745 0 0 0 0 0.941176 0 0 0 0 0.764706 0 0 0 0.230539 0"/><feBlend in2="BackgroundImageFix" result="effect1_dropShadow_2014_3022"/><feColorMatrix in="SourceAlpha" result="hardAlpha" values="0 0 0 0 0 0 0 0 0 0 0 0 0 0 0 0 0 0 127 0"/><feOffset dy="-.599"/><feGaussianBlur stdDeviation="6.251"/><feColorMatrix values="0 0 0 0 0.262745 0 0 0 0 0.941176 0 0 0 0 0.764706 0 0 0 0.331192 0"/><feBlend in2="effect1_dropShadow_2014_3022" result="effect2_dropShadow_2014_3022"/><feColorMatrix in="SourceAlpha" result="hardAlpha" values="0 0 0 0 0 0 0 0 0 0 0 0 0 0 0 0 0 0 127 0"/><feOffset dy="-1.127"/><feGaussianBlur stdDeviation="11.77"/><feColorMatrix values="0 0 0 0 0.262745 0 0 0 0 0.941176 0 0 0 0 0.764706 0 0 0 0.41 0"/><feBlend in2="effect2_dropShadow_2014_3022" result="effect3_dropShadow_2014_3022"/><feColorMatrix in="SourceAlpha" result="hardAlpha" values="0 0 0 0 0 0 0 0 0 0 0 0 0 0 0 0 0 0 127 0"/><feOffset dy="-2.01"/><feGaussianBlur stdDeviation="20.996"/><feColorMatrix values="0 0 0 0 0.262745 0 0 0 0 0.941176 0 0 0 0 0.764706 0 0 0 0.488808 0"/><feBlend in2="effect3_dropShadow_2014_3022" result="effect4_dropShadow_2014_3022"/><feColorMatrix in="SourceAlpha" result="hardAlpha" values="0 0 0 0 0 0 0 0 0 0 0 0 0 0 0 0 0 0 127 0"/><feOffset dy="-3.76"/><feGaussianBlur stdDeviation="39.271"/><feColorMatrix values="0 0 0 0 0.262745 0 0 0 0 0.941176 0 0 0 0 0.764706 0 0 0 0.589461 0"/><feBlend in2="effect4_dropShadow_2014_3022" result="effect5_dropShadow_2014_3022"/><feColorMatrix in="SourceAlpha" result="hardAlpha" values="0 0 0 0 0 0 0 0 0 0 0 0 0 0 0 0 0 0 127 0"/><feOffset dy="-9"/><feGaussianBlur stdDeviation="94"/><feColorMatrix values="0 0 0 0 0.262745 0 0 0 0 0.941176 0 0 0 0 0.764706 0 0 0 0.82 0"/><feBlend in2="effect5_dropShadow_2014_3022" result="effect6_dropShadow_2014_3022"/><feBlend in="SourceGraphic" in2="effect6_dropShadow_2014_3022" result="shape"/></filter><clipPath id="c"><path fill="#fff" d="M196.44 209.898h142.966v179.8H196.44z"/></clipPath></defs></svg>