<svg xmlns="http://www.w3.org/2000/svg" width="458" height="215" fill="none" viewBox="0 0 458 215"><mask id="c" width="458" height="215" x="0" y="0" maskUnits="userSpaceOnUse" style="mask-type:luminance"><path fill="url(#a)" d="M0 0h458v215H0z"/></mask><g filter="url(#b)" mask="url(#c)"><path fill="#030712" d="M0 8a8 8 0 0 1 8-8h442a8 8 0 0 1 8 8v207H0z"/><path stroke="#111827" d="M8 .5h442a7.5 7.5 0 0 1 7.5 7.5v206.5H.5V8l.01-.386A7.5 7.5 0 0 1 8 .5Z"/><path fill="#6b7280" d="M21.652 21.556q-.06-.534-.276-.864-.21-.33-.582-.48-.366-.15-.912-.15-.852 0-1.284.312t-.432.918q0 .402.192.666t.588.486q.396.216 1.17.522.966.384 1.518.708.558.318.876.78.318.456.318 1.146 0 .744-.354 1.32-.348.57-1.05.9-.702.324-1.716.324-.996 0-1.668-.312a2.3 2.3 0 0 1-1.026-.894q-.354-.582-.402-1.392l1.152-.138q.102.906.582 1.332.486.42 1.41.42.912 0 1.38-.372.474-.372.474-1.062 0-.426-.234-.702a1.75 1.75 0 0 0-.6-.456 22 22 0 0 0-1.308-.57 9 9 0 0 1-1.338-.654 2.6 2.6 0 0 1-.828-.81q-.306-.48-.306-1.152 0-.744.348-1.254.354-.51 1.014-.768.666-.264 1.608-.264 1.254 0 2.01.564t.81 1.794zm8.45 4.566a2.6 2.6 0 0 1-.577 1.122q-.402.45-.99.678a3.7 3.7 0 0 1-1.302.222q-.924 0-1.62-.366a2.6 2.6 0 0 1-1.074-1.098q-.384-.732-.384-1.776 0-1.05.39-1.77.396-.72 1.098-1.08.708-.36 1.65-.36.768 0 1.374.24t.978.732q.378.492.456 1.212l-1.122.096q-.102-.684-.558-1.014-.45-.336-1.158-.336-.954 0-1.446.588-.492.582-.492 1.692 0 .768.228 1.284.234.516.66.774.432.252 1.026.252.678 0 1.122-.318.45-.324.642-.948zM32.016 28v-9.18h1.134V28zm4.038 0v-4.11q0-.474-.15-.756a.85.85 0 0 0-.408-.396 1.4 1.4 0 0 0-.588-.114q-.588 0-1.074.306-.48.3-.864.84v-1.05h.324q.276-.3.57-.522a2.62 2.62 0 0 1 1.566-.504q.552 0 .942.204.396.198.606.618t.21 1.074V28zm2.983-3.09q0-1.026.384-1.746.39-.726 1.098-1.098t1.656-.372q.876 0 1.494.306.618.3.942.912.33.612.33 1.506v.54h-5.034v-.756h4.224l-.3.258v-.246q0-.798-.462-1.194t-1.23-.396q-.924 0-1.434.588-.504.582-.504 1.698 0 1.134.504 1.722.504.582 1.434.582.6 0 1.026-.252t.648-.768l1.104.186a2.6 2.6 0 0 1-.606.966q-.39.396-.942.6-.552.198-1.236.198-.93 0-1.626-.372a2.6 2.6 0 0 1-1.086-1.098q-.384-.726-.384-1.764M47.704 28h-1.032v-6.162h.864l.114 1.038h.054zm1.266 0v-4.776q0-.306-.138-.432a.5.5 0 0 0-.354-.132.76.76 0 0 0-.498.186q-.222.186-.426.504l-.162-.738h.318q.126-.27.312-.474.192-.204.438-.318.252-.12.552-.12.468 0 .726.282.264.276.264.834V28zm2.298 0v-4.776q0-.306-.138-.432a.5.5 0 0 0-.354-.132.76.76 0 0 0-.498.186 2.4 2.4 0 0 0-.426.504l-.126-.738h.33q.12-.276.3-.48.186-.204.426-.318.246-.114.546-.114.456 0 .714.282.264.276.264.834V28zm5.515-6.306q.78 0 1.308.192.528.186.804.618.276.426.276 1.14v3.054q0 .228.066.342a.3.3 0 0 0 .222.144q.156.03.444-.012V28q-.408.12-.768.12-.396 0-.624-.138a.8.8 0 0 1-.324-.372 1.5 1.5 0 0 1-.09-.546l-.06-.102V23.71q0-.48-.168-.744a.84.84 0 0 0-.462-.36 2.3 2.3 0 0 0-.744-.102 2.5 2.5 0 0 0-.726.102q-.3.09-.48.324-.174.228-.18.624v.264h-1.062v-.324q0-.834.624-1.314.624-.486 1.944-.486m1.698 3.57a8 8 0 0 0-.522-.054 5 5 0 0 0-.492-.024q-.732 0-1.236.12-.504.114-.774.372-.264.252-.264.666a.9.9 0 0 0 .138.516q.144.21.408.318.27.108.642.108a2.2 2.2 0 0 0 .912-.186q.42-.186.894-.546l.03.678h-.222a8 8 0 0 1-.636.492q-.252.168-.636.294t-.852.126q-.57 0-.99-.198a1.5 1.5 0 0 1-.648-.57q-.228-.372-.228-.894 0-.828.564-1.254t1.452-.558 2.154-.12zm14.78-6.444h1.135V28h-.96l-.126-1.11h-.048zm-4.457 6.114q0-1.002.288-1.728.294-.732.846-1.122.558-.39 1.332-.39.642 0 1.116.258t.798.702h.27v.918q-.408-.492-.846-.702a2 2 0 0 0-.906-.216q-.558 0-.942.252t-.588.762q-.198.504-.198 1.266 0 .744.192 1.242.198.498.576.756.384.252.942.252.48 0 .912-.21t.858-.702v.918h-.264q-.366.444-.852.702-.48.258-1.116.258-.774 0-1.314-.39-.54-.396-.822-1.116-.282-.726-.282-1.71m7.441-.024q0-1.026.384-1.746.39-.726 1.098-1.098t1.656-.372q.876 0 1.494.306.618.3.942.912.33.612.33 1.506v.54h-5.034v-.756h4.224l-.3.258v-.246q0-.798-.462-1.194t-1.23-.396q-.924 0-1.434.588-.504.582-.504 1.698 0 1.134.504 1.722.504.582 1.434.582.6 0 1.026-.252t.648-.768l1.104.186a2.6 2.6 0 0 1-.606.966q-.39.396-.942.6-.552.198-1.236.198-.93 0-1.626-.372a2.6 2.6 0 0 1-1.086-1.098q-.384-.726-.384-1.764M89.7 19.546a7 7 0 0 0-.696-.132 5 5 0 0 0-.678-.042q-.564 0-.918.144a1.02 1.02 0 0 0-.546.522q-.186.384-.186 1.104V28H85.54v-6.756q0-1.044.324-1.68t.93-.918 1.5-.282a5.2 5.2 0 0 1 1.404.192zm-5.79 7.536h4.95V28h-4.95zm5.568-4.326H83.56v-.918h5.916zM93.564 28v-5.622l.27.36H91.38v-.9l3.174-.138.15.144V28zm-2.184-.918h5.508V28H91.38zm2.532-6.798q-.246 0-.438-.09a.74.74 0 0 1-.294-.27.8.8 0 0 1-.108-.414q0-.354.228-.558.234-.21.612-.21.372 0 .6.21.234.204.234.558 0 .36-.234.57-.228.204-.6.204M100.123 28H98.99v-6.162h.96l.119 1.038h.054zm2.904 0v-4.11q0-.474-.15-.756a.85.85 0 0 0-.408-.396 1.4 1.4 0 0 0-.588-.114q-.594 0-1.08.306-.486.3-.882.84v-1.05h.282q.438-.468.948-.744.51-.282 1.224-.282.558 0 .954.204.402.198.618.618t.216 1.074V28zm5.42 0v-5.622l.27.36h-2.454v-.9l3.174-.138.15.144V28zm-2.184-.918h5.508V28h-5.508zm2.532-6.798q-.246 0-.438-.09a.74.74 0 0 1-.294-.27.8.8 0 0 1-.108-.414q0-.354.228-.558.234-.21.612-.21.372 0 .6.21.234.204.234.558 0 .36-.234.57-.228.204-.6.204m10.291 1.554v.918h-5.76v-.918zm-1.434 6.282q-.93.006-1.476-.222a1.52 1.52 0 0 1-.804-.798q-.258-.57-.258-1.596v-5.598h1.14v5.544q0 .666.144 1.026t.462.504q.318.138.888.138.684 0 1.482-.204v.99a5 5 0 0 1-.756.156q-.408.06-.822.06m5.678-.12v-5.622l.27.36h-2.454v-.9l3.174-.138.15.144V28zm-2.184-.918h5.508V28h-5.508zm2.532-6.798q-.246 0-.438-.09a.74.74 0 0 1-.294-.27.8.8 0 0 1-.108-.414q0-.354.228-.558.234-.21.612-.21.372 0 .6.21.234.204.234.558 0 .36-.234.57-.228.204-.6.204m10.669 4.644q0 1.044-.396 1.77a2.64 2.64 0 0 1-1.08 1.086q-.684.36-1.53.36t-1.53-.36a2.7 2.7 0 0 1-1.08-1.086q-.396-.726-.396-1.77 0-1.038.396-1.77a2.67 2.67 0 0 1 1.08-1.098 3.2 3.2 0 0 1 1.53-.366q.846 0 1.53.366t1.08 1.098q.396.726.396 1.77m-1.17 0q0-.768-.234-1.284-.228-.516-.642-.768a1.8 1.8 0 0 0-.96-.252q-.552 0-.966.252t-.648.768q-.228.516-.228 1.284 0 .762.228 1.278.234.51.642.762.414.246.972.246t.966-.246q.408-.252.636-.762.234-.516.234-1.278M137.331 28h-1.134v-6.162h.96l.12 1.038h.054zm2.904 0v-4.11q0-.474-.15-.756a.85.85 0 0 0-.408-.396 1.4 1.4 0 0 0-.588-.114q-.594 0-1.08.306-.486.3-.882.84v-1.05h.282q.438-.468.948-.744.51-.282 1.224-.282.558 0 .954.204.402.198.618.618t.215 1.074V28zm6.013-6.306q.822 0 1.392.204.576.198.882.606.312.408.336 1.026l-1.032.072q-.06-.528-.474-.792-.408-.27-1.182-.27-.726 0-1.128.216-.396.216-.396.642a.6.6 0 0 0 .138.396q.144.162.444.288.3.12.858.252.222.042.432.09.894.186 1.398.39t.756.54q.258.33.258.858 0 .588-.312 1.02-.306.432-.918.672-.606.234-1.5.234-.876 0-1.482-.18a2.05 2.05 0 0 1-.966-.606q-.366-.426-.504-1.14l1.044-.132q.138.51.42.768t.636.336q.36.078.906.078.528 0 .876-.126t.504-.33a.75.75 0 0 0 .162-.468.56.56 0 0 0-.186-.438q-.186-.174-.588-.3a13 13 0 0 0-1.206-.294q-.78-.162-1.272-.384-.486-.222-.738-.564-.246-.342-.246-.858 0-.852.666-1.326.672-.48 2.022-.48m16.395 1.278h2.07v.966h-1.482l.366-.528q-.024 1.368-.396 2.43-.372 1.056-1.176 1.68t-2.076.624q-.882 0-1.506-.3a2.16 2.16 0 0 1-.936-.852q-.312-.552-.312-1.29 0-1.086.654-1.794.654-.714 1.782-1.11l.348.636q-.762.282-1.182.792-.414.51-.414 1.248 0 .51.204.888t.6.588.966.21q.84 0 1.398-.462t.822-1.266q.27-.804.27-1.848zm-.504-1.902a1.8 1.8 0 0 0-.612-.774q-.384-.276-.99-.276-.444 0-.762.144-.312.144-.48.402a1.05 1.05 0 0 0-.168.588q0 .3.132.594.132.288.342.558.216.27.57.648.054.072.414.438L164.887 28h-1.5l-3.894-4.164a5 5 0 0 0-.234-.252q-.45-.474-.714-.804a3 3 0 0 1-.432-.732 2.3 2.3 0 0 1-.168-.888q0-.624.3-1.086.3-.468.888-.72t1.428-.252q1.044 0 1.674.414.636.408.936 1.236zM173.332 28h-1.08v-6.162h.912l.114 1.236h.054zm2.112 0v-4.398q0-.522-.234-.738a.84.84 0 0 0-.606-.222q-.45 0-.804.288-.348.288-.564.792l-.096-.894h.21q.276-.522.72-.822.45-.306 1.032-.306.666 0 1.038.39.378.39.384 1.176l.012 4.734zm3.186 0v-4.398q0-.522-.234-.738a.84.84 0 0 0-.6-.222q-.306 0-.57.138a1.6 1.6 0 0 0-.474.372q-.204.24-.348.57l-.084-.894h.222q.27-.522.714-.822.45-.306 1.038-.306.666 0 1.038.39t.378 1.176l.018 4.734zm4.765 0v-5.622l.27.36h-1.92v-.9l2.64-.138.15.144V28zm-1.65-.912h4.44V28h-4.44zm2.004-6.78q-.246 0-.438-.09a.74.74 0 0 1-.294-.27.8.8 0 0 1-.108-.414q0-.354.228-.558.234-.21.612-.21.372 0 .6.21.234.204.234.558 0 .36-.234.57-.228.204-.6.204m4.117 4.326q0-.888.3-1.548a2.37 2.37 0 0 1 .858-1.026 2.3 2.3 0 0 1 1.296-.366q.438 0 .798.126.36.12.636.336.282.21.492.498h.27v.918q-.408-.492-.846-.702a2 2 0 0 0-.906-.216q-.54 0-.93.234a1.54 1.54 0 0 0-.594.678q-.204.444-.204 1.068 0 .6.198 1.038t.582.678q.384.234.93.234.48 0 .912-.21t.858-.702v.918h-.264q-.366.444-.858.702a2.36 2.36 0 0 1-1.122.258q-.738 0-1.284-.366a2.3 2.3 0 0 1-.834-1.02q-.288-.66-.288-1.53m5.592 3.018q0 .996-.318 1.614-.312.624-.93.912-.612.288-1.53.288-.816 0-1.374-.21-.552-.204-.858-.57a2.1 2.1 0 0 1-.426-.858l1.032-.234q.168.528.576.78t1.05.252q.78 0 1.212-.42t.432-1.434v-4.848h.054l.12-1.086h.96zm4.718-4.698h.054v5.04h-1.134v-5.508l.27.27h-1.908v-.918h2.598zm3.054-.144q-.81 0-1.326.066-.51.06-.966.252-.45.186-.966.582v-.996h.336q.51-.522 1.032-.768.522-.252 1.296-.252.324 0 .594.054zm-5.772 4.272h4.956V28h-4.956zm10.153-5.388q.78 0 1.308.192.528.186.804.618.276.426.276 1.14v3.054q0 .228.066.342a.3.3 0 0 0 .222.144q.156.03.444-.012V28q-.408.12-.768.12-.396 0-.624-.138a.8.8 0 0 1-.324-.372 1.5 1.5 0 0 1-.09-.546l-.06-.102V23.71q0-.48-.168-.744a.84.84 0 0 0-.462-.36 2.3 2.3 0 0 0-.744-.102 2.5 2.5 0 0 0-.726.102q-.3.09-.48.324-.174.228-.18.624v.264h-1.062v-.324q0-.834.624-1.314.624-.486 1.944-.486m1.698 3.57a8 8 0 0 0-.522-.054 5 5 0 0 0-.492-.024q-.732 0-1.236.12-.504.114-.774.372-.264.252-.264.666a.9.9 0 0 0 .138.516q.144.21.408.318.27.108.642.108a2.2 2.2 0 0 0 .912-.186q.42-.186.894-.546l.03.678h-.222a8 8 0 0 1-.636.492q-.252.168-.636.294t-.852.126q-.57 0-.99-.198a1.5 1.5 0 0 1-.648-.57q-.228-.372-.228-.894 0-.828.564-1.254t1.452-.558 2.154-.12zm8.516-3.426v.918h-5.76v-.918zm-1.434 6.282q-.93.006-1.476-.222a1.52 1.52 0 0 1-.804-.798q-.258-.57-.258-1.596v-5.598h1.14v5.544q0 .666.144 1.026t.462.504q.318.138.888.138.684 0 1.482-.204v.99a5 5 0 0 1-.756.156q-.408.06-.822.06m5.677-.12v-5.622l.27.36h-2.454v-.9l3.174-.138.15.144V28zm-2.184-.918h5.508V28h-5.508zm2.532-6.798q-.246 0-.438-.09a.74.74 0 0 1-.294-.27.8.8 0 0 1-.108-.414q0-.354.228-.558.234-.21.612-.21.372 0 .6.21.234.204.234.558 0 .36-.234.57-.228.204-.6.204m10.669 4.644q0 1.044-.396 1.77a2.64 2.64 0 0 1-1.08 1.086q-.684.36-1.53.36t-1.53-.36a2.7 2.7 0 0 1-1.08-1.086q-.396-.726-.396-1.77 0-1.038.396-1.77a2.67 2.67 0 0 1 1.08-1.098 3.2 3.2 0 0 1 1.53-.366q.846 0 1.53.366t1.08 1.098q.396.726.396 1.77m-1.17 0q0-.768-.234-1.284-.228-.516-.642-.768a1.8 1.8 0 0 0-.96-.252q-.552 0-.966.252t-.648.768q-.228.516-.228 1.284 0 .762.228 1.278.234.51.642.762.414.246.972.246t.966-.246q.408-.252.636-.762.234-.516.234-1.278M234.069 28h-1.134v-6.162h.96l.12 1.038h.054zm2.904 0v-4.11q0-.474-.15-.756a.85.85 0 0 0-.408-.396 1.4 1.4 0 0 0-.588-.114q-.594 0-1.08.306-.486.3-.882.84v-1.05h.282q.438-.468.948-.744.51-.282 1.224-.282.558 0 .954.204.402.198.618.618t.216 1.074V28zm6.013-6.306q.822 0 1.392.204.576.198.882.606.312.408.336 1.026l-1.032.072q-.06-.528-.474-.792-.408-.27-1.182-.27-.726 0-1.128.216-.396.216-.396.642a.6.6 0 0 0 .138.396q.144.162.444.288.3.12.858.252.222.042.432.09.894.186 1.398.39t.756.54q.258.33.258.858 0 .588-.312 1.02-.306.432-.918.672-.606.234-1.5.234-.876 0-1.482-.18a2.05 2.05 0 0 1-.966-.606q-.366-.426-.504-1.14l1.044-.132q.138.51.42.768t.636.336q.36.078.906.078.528 0 .876-.126t.504-.33a.75.75 0 0 0 .162-.468.56.56 0 0 0-.186-.438q-.186-.174-.588-.3a13 13 0 0 0-1.206-.294q-.78-.162-1.272-.384-.486-.222-.738-.564-.246-.342-.246-.858 0-.852.666-1.326.672-.48 2.022-.48"/><path fill="#818cf8" d="M30.802 66.2h-1.24v-7.189H30.6l.133 1.337h.07zm2.009 0v-5.334q0-.497-.224-.7a.8.8 0 0 0-.567-.203q-.435 0-.784.287a2.25 2.25 0 0 0-.581.763l-.147-.966h.308q.273-.546.735-.868.469-.33 1.07-.329.673 0 1.044.399.378.392.385 1.19l.007 5.761zm3.255 0v-5.334q0-.49-.224-.693a.8.8 0 0 0-.574-.21q-.294 0-.553.133a1.5 1.5 0 0 0-.462.371 2.5 2.5 0 0 0-.357.546l-.12-.966h.316q.273-.553.72-.875a1.8 1.8 0 0 1 1.065-.322q.664 0 1.043.399.378.4.378 1.19l.014 5.761zm10.144-3.584q0 1.218-.462 2.065a3.1 3.1 0 0 1-1.26 1.267q-.798.42-1.785.42t-1.785-.42a3.14 3.14 0 0 1-1.26-1.267q-.462-.847-.462-2.065 0-1.211.462-2.065.47-.854 1.26-1.281a3.7 3.7 0 0 1 1.785-.427q.987 0 1.785.427a3.06 3.06 0 0 1 1.26 1.281q.462.847.462 2.065m-1.365 0q0-.896-.273-1.498-.266-.602-.749-.896-.475-.294-1.12-.294t-1.127.294-.756.896q-.266.601-.266 1.498 0 .89.266 1.491.273.595.75.889.483.287 1.133.287.651 0 1.127-.287.477-.294.742-.889.273-.602.273-1.491m8.234-7.126h1.323V66.2h-1.12l-.147-1.295h-.056zm-5.201 7.133q0-1.17.336-2.016.343-.855.987-1.309.651-.455 1.554-.455.75 0 1.302.301.553.3.93.819h.316v1.071q-.476-.575-.987-.819a2.3 2.3 0 0 0-1.057-.252q-.65 0-1.1.294-.447.294-.685.889-.231.588-.231 1.477 0 .868.224 1.449.231.58.672.882.448.294 1.099.294.56 0 1.064-.245.505-.245 1-.819v1.071h-.307a3.3 3.3 0 0 1-.994.819q-.56.3-1.302.301-.903 0-1.533-.455-.63-.462-.96-1.302-.328-.847-.328-1.995m8.682-.028q0-1.197.448-2.037.455-.847 1.28-1.281.826-.434 1.933-.434 1.02 0 1.743.357.72.35 1.099 1.064.385.714.385 1.757v.63h-5.873v-.882h4.928l-.35.301v-.287q0-.93-.54-1.393-.538-.462-1.434-.462-1.08 0-1.673.686-.588.68-.588 1.981 0 1.323.588 2.009.588.68 1.673.679.699 0 1.197-.294.496-.294.756-.896l1.288.217a3.1 3.1 0 0 1-.707 1.127 3 3 0 0 1-1.1.7 4.3 4.3 0 0 1-1.441.231q-1.086 0-1.897-.434a3.05 3.05 0 0 1-1.267-1.281q-.449-.847-.448-2.058m8.975 2.534h6.426V66.2h-6.426zm2.548 1.071.007-10.073.315.413h-2.87v-1.05l3.703-.154.175.161V66.2zm58.98-4.284q1.218 0 2.016.371.798.364 1.092 1.092.3.728.049 1.785l-.126.539q-.21.861-.098 1.358.118.497.49.7.378.21 1.022.21h1.428V69h-1.89q-1.002 0-1.61-.364a1.66 1.66 0 0 1-.784-1.071q-.168-.707.105-1.722l.14-.497q.237-.896.035-1.484-.204-.595-.903-.903-.693-.308-1.925-.322v-1.288q1.232-.015 1.925-.322.699-.308.903-.896.202-.596-.035-1.491l-.14-.504q-.273-1.008-.098-1.715.174-.706.777-1.071.608-.364 1.61-.364h1.89v1.022h-1.428q-.645 0-1.022.21-.372.21-.49.707-.112.497.098 1.358l.126.532q.258 1.057-.042 1.785-.301.728-1.099 1.099-.798.37-2.016.371zM50.72 91.2v-6.559l.315.42h-2.863v-1.05l3.703-.161.175.168V91.2zm-2.548-1.071h6.426V91.2h-6.426zm2.954-7.931a1.2 1.2 0 0 1-.511-.105.86.86 0 0 1-.343-.315.9.9 0 0 1-.126-.483q0-.413.266-.651.273-.245.714-.245.435 0 .7.245.273.239.273.651 0 .42-.273.665-.265.238-.7.238M61.76 80.49h1.323V91.2h-1.12l-.147-1.295h-.056zm-5.201 7.133q0-1.17.336-2.016.342-.855.987-1.309.651-.455 1.554-.455.749 0 1.302.301.553.3.93.819h.316v1.071q-.477-.574-.987-.819a2.3 2.3 0 0 0-1.057-.252q-.65 0-1.1.294-.447.294-.685.889-.231.588-.231 1.477 0 .868.224 1.449.231.58.672.882.447.294 1.099.294.56 0 1.064-.245.505-.245 1-.819v1.071h-.307a3.3 3.3 0 0 1-.994.819q-.561.3-1.302.301-.903 0-1.533-.455-.63-.462-.96-1.302-.328-.847-.328-1.995m37.764 24.37q0 1.659.448 2.926t1.176 2.198q.736.931 1.813 1.883h-1.253a11.6 11.6 0 0 1-1.764-1.701q-.756-.917-1.253-2.24-.497-1.33-.497-3.066 0-1.73.497-3.052.498-1.33 1.26-2.254a11.3 11.3 0 0 1 1.757-1.701h1.253a14.7 14.7 0 0 0-1.813 1.883q-.728.931-1.176 2.198t-.448 2.926m121.543 0q0 1.659.448 2.926.449 1.267 1.176 2.198.735.931 1.813 1.883h-1.253a11.6 11.6 0 0 1-1.764-1.701q-.756-.917-1.253-2.24-.497-1.33-.497-3.066 0-1.73.497-3.052.496-1.33 1.26-2.254a11.3 11.3 0 0 1 1.757-1.701h1.253a14.7 14.7 0 0 0-1.813 1.883q-.728.931-1.176 2.198t-.448 2.926m9.62 0q0-1.659-.448-2.926t-1.183-2.198a14.4 14.4 0 0 0-1.806-1.883h1.253q1 .784 1.757 1.701.762.916 1.26 2.247.497 1.323.497 3.059 0 1.729-.497 3.059-.498 1.323-1.26 2.247a11.3 11.3 0 0 1-1.757 1.701h-1.253a14.4 14.4 0 0 0 1.806-1.883q.735-.931 1.183-2.198t.448-2.926m8.681 0q0-1.659-.448-2.926a7.6 7.6 0 0 0-1.183-2.198 14.3 14.3 0 0 0-1.806-1.883h1.253q1.001.784 1.757 1.701.763.916 1.26 2.247.498 1.323.497 3.059 0 1.729-.497 3.059-.496 1.323-1.26 2.247a11.2 11.2 0 0 1-1.757 1.701h-1.253a14.3 14.3 0 0 0 1.806-1.883 7.6 7.6 0 0 0 1.183-2.198q.448-1.267.448-2.926m-186.29 25.602q0-1.197.448-2.037.455-.847 1.28-1.281.828-.434 1.933-.434 1.021 0 1.743.357a2.4 2.4 0 0 1 1.099 1.064q.385.714.385 1.757v.63h-5.873v-.882h4.928l-.35.301v-.287q0-.931-.54-1.393-.538-.462-1.434-.462-1.078 0-1.673.686-.588.68-.588 1.981 0 1.323.588 2.009.588.68 1.673.679.7 0 1.197-.294.496-.294.756-.896l1.288.217a3.1 3.1 0 0 1-.707 1.127q-.455.462-1.1.7-.643.231-1.441.231-1.085 0-1.897-.434a3.05 3.05 0 0 1-1.267-1.281q-.448-.847-.448-2.058m10.11 3.605h-1.204v-7.189h1.008l.133 1.211h.063zm1.477 0v-5.572q0-.357-.161-.504a.57.57 0 0 0-.413-.154.88.88 0 0 0-.581.217 2.6 2.6 0 0 0-.497.588l-.19-.861h.372q.147-.315.364-.553.224-.238.51-.371.295-.14.645-.14.546 0 .847.329.308.322.308.973v6.048zm2.68 0v-5.572q0-.357-.16-.504a.57.57 0 0 0-.413-.154.88.88 0 0 0-.581.217 2.8 2.8 0 0 0-.497.588l-.147-.861h.385a2.1 2.1 0 0 1 .35-.56q.216-.238.497-.371.285-.133.637-.133.531 0 .833.329.308.322.308.973v6.048zm6.435-7.357q.91 0 1.526.224.616.217.938.721.322.497.322 1.33v3.563q0 .266.077.399a.36.36 0 0 0 .26.168q.18.035.517-.014v.966q-.476.14-.896.14-.462 0-.728-.161a.94.94 0 0 1-.378-.434 1.8 1.8 0 0 1-.105-.637l-.07-.119v-3.794q0-.56-.196-.868a1 1 0 0 0-.539-.42q-.343-.119-.868-.119a3 3 0 0 0-.847.119q-.35.105-.56.378-.202.266-.21.728v.308h-1.239v-.378q0-.973.728-1.533.729-.567 2.268-.567m1.981 4.165a9 9 0 0 0-.609-.063 6 6 0 0 0-.574-.028q-.854 0-1.442.14-.588.133-.903.434-.308.294-.308.777 0 .357.161.602.167.245.476.371.315.126.75.126.58 0 1.063-.217a5.3 5.3 0 0 0 1.043-.637l.035.791h-.259a9 9 0 0 1-.742.574 3 3 0 0 1-.742.343q-.448.147-.994.147-.665 0-1.155-.231a1.73 1.73 0 0 1-.756-.665q-.266-.434-.266-1.043 0-.966.658-1.463.659-.496 1.694-.651 1.035-.154 2.513-.14zm6.204 3.192v-6.559l.315.42h-2.863v-1.05l3.703-.161.175.168v7.182zm-2.548-1.071h6.426v1.071h-6.426zm2.954-7.931a1.2 1.2 0 0 1-.511-.105.87.87 0 0 1-.343-.315.9.9 0 0 1-.126-.483q0-.412.266-.651.273-.245.714-.245.434 0 .7.245.273.238.273.651 0 .42-.273.665-.265.238-.7.238m5.727 7.931h6.427v1.071h-6.427zm2.549 1.071.007-10.073.315.413h-2.87v-1.05l3.703-.154.174.161V141.2zm-35.756 25h-1.323v-7.189h1.12l.14 1.211h.063zm3.388 0v-4.795q0-.554-.175-.882a1 1 0 0 0-.476-.462 1.65 1.65 0 0 0-.686-.133q-.693 0-1.26.357-.567.35-1.03.98v-1.225h.33q.511-.546 1.106-.868.596-.329 1.428-.329.651 0 1.113.238.47.23.72.721.253.49.253 1.253v5.145zm6.82-7.357q.91 0 1.526.224.615.217.938.721.322.497.322 1.33v3.563q0 .266.077.399a.36.36 0 0 0 .259.168q.181.035.518-.014v.966q-.476.14-.896.14-.462 0-.728-.161a.94.94 0 0 1-.378-.434 1.8 1.8 0 0 1-.105-.637l-.07-.119v-3.794q0-.56-.196-.868a1 1 0 0 0-.54-.42q-.342-.119-.867-.119a3 3 0 0 0-.847.119q-.35.105-.56.378-.204.266-.21.728v.308h-1.24v-.378q0-.973.729-1.533.727-.567 2.268-.567m1.98 4.165a9 9 0 0 0-.608-.063 6 6 0 0 0-.574-.028q-.854 0-1.442.14-.588.133-.903.434-.309.294-.308.777 0 .357.16.602.169.245.477.371.315.126.749.126.58 0 1.064-.217a5.3 5.3 0 0 0 1.043-.637l.035.791h-.26a9 9 0 0 1-.741.574 3 3 0 0 1-.742.343q-.449.147-.994.147-.666 0-1.155-.231a1.73 1.73 0 0 1-.756-.665q-.266-.434-.266-1.043 0-.966.658-1.463.657-.496 1.694-.651 1.035-.154 2.513-.14zm4.79 3.192h-1.204v-7.189h1.008l.133 1.211h.063zm1.477 0v-5.572q0-.357-.16-.504a.57.57 0 0 0-.414-.154.88.88 0 0 0-.58.217 2.6 2.6 0 0 0-.498.588l-.189-.861h.371q.147-.315.364-.553.225-.238.511-.371.293-.14.644-.14.547 0 .847.329.309.322.308.973v6.048zm2.681 0v-5.572q0-.357-.16-.504a.57.57 0 0 0-.414-.154.88.88 0 0 0-.58.217 2.8 2.8 0 0 0-.498.588l-.147-.861h.385a2.1 2.1 0 0 1 .35-.56q.217-.238.497-.371.287-.133.637-.133.532 0 .833.329.309.322.308.973v6.048zm3.096-3.605q0-1.197.448-2.037.455-.847 1.28-1.281.828-.434 1.933-.434 1.022 0 1.743.357a2.4 2.4 0 0 1 1.099 1.064q.385.714.385 1.757v.63h-5.873v-.882h4.928l-.35.301v-.287q0-.931-.54-1.393-.538-.462-1.434-.462-1.078 0-1.673.686-.588.68-.588 1.981 0 1.323.588 2.009.588.68 1.673.679.699 0 1.197-.294.496-.294.756-.896l1.288.217a3.1 3.1 0 0 1-.707 1.127q-.455.462-1.1.7-.643.231-1.441.231-1.086 0-1.897-.434a3.05 3.05 0 0 1-1.267-1.281q-.448-.847-.448-2.058m99.579-.301h-1.134l-.035-1.645q.7-.168 1.176-.413t.749-.658q.273-.42.273-1.05 0-.819-.462-1.204t-1.33-.385q-.889 0-1.379.427-.483.42-.567 1.344l-1.302-.119q.035-1.414.917-2.093.889-.686 2.345-.686.952 0 1.659.301.706.294 1.092.896.392.595.392 1.463 0 1.323-.812 1.932t-2.065.805l.504-.385zm-.56 4.081q-.301 0-.553-.126a1 1 0 0 1-.392-.364 1.1 1.1 0 0 1-.14-.553q0-.322.14-.56a1 1 0 0 1 .392-.364q.252-.126.553-.126.308 0 .553.126a.9.9 0 0 1 .392.364q.147.238.147.56 0 .315-.147.553a.9.9 0 0 1-.392.364 1.2 1.2 0 0 1-.553.126M51.224 185.313h.063v5.88h-1.323v-6.426l.315.315h-2.226v-1.071h3.03zm3.563-.168q-.945 0-1.547.077a4.2 4.2 0 0 0-1.127.294q-.525.217-1.127.679v-1.162h.392q.595-.61 1.204-.896.609-.294 1.512-.294.378 0 .693.063zm-6.734 4.984h5.782v1.071h-5.782zm15.52-2.513q0 1.218-.461 2.065-.462.84-1.26 1.267-.798.42-1.785.42t-1.785-.42a3.14 3.14 0 0 1-1.26-1.267q-.462-.847-.462-2.065 0-1.211.462-2.065.468-.853 1.26-1.281a3.7 3.7 0 0 1 1.785-.427 3.7 3.7 0 0 1 1.785.427q.798.427 1.26 1.281.462.847.462 2.065m-1.364 0q0-.896-.273-1.498-.266-.602-.75-.896-.475-.294-1.12-.294-.643 0-1.126.294t-.756.896q-.266.602-.266 1.498 0 .89.266 1.491.272.595.749.889.483.287 1.134.287t1.127-.287q.475-.294.742-.889.273-.602.273-1.491m3.326 2.513h6.426v1.071h-6.426zm2.548 1.071.007-10.073.315.413h-2.87v-1.05l3.703-.154.175.161V191.2zm5.84-3.605q0-1.197.448-2.037.455-.847 1.28-1.281.828-.434 1.933-.434 1.022 0 1.743.357a2.4 2.4 0 0 1 1.099 1.064q.385.714.385 1.757v.63h-5.873v-.882h4.928l-.35.301v-.287q0-.931-.54-1.393-.538-.462-1.434-.462-1.078 0-1.673.686-.588.68-.588 1.981 0 1.323.588 2.009.588.68 1.673.679.699 0 1.197-.294.496-.294.756-.896l1.288.217a3.1 3.1 0 0 1-.707 1.127q-.455.462-1.1.7-.643.231-1.441.231-1.086 0-1.897-.434a3.05 3.05 0 0 1-1.267-1.281q-.448-.848-.448-2.058m194.034-.602q0 1.659.448 2.926t1.176 2.198q.735.931 1.813 1.883h-1.253a11.6 11.6 0 0 1-1.764-1.701q-.756-.917-1.253-2.24-.497-1.33-.497-3.066 0-1.73.497-3.052.496-1.33 1.26-2.254a11.3 11.3 0 0 1 1.757-1.701h1.253a14.7 14.7 0 0 0-1.813 1.883q-.727.931-1.176 2.198t-.448 2.926m44.346 0q0-1.659-.448-2.926t-1.183-2.198a14.3 14.3 0 0 0-1.806-1.883h1.253q1 .784 1.757 1.701.764.916 1.26 2.247.497 1.323.497 3.059 0 1.729-.497 3.059-.496 1.323-1.26 2.247A11.3 11.3 0 0 1 310.12 194h-1.253a14.3 14.3 0 0 0 1.806-1.883q.735-.931 1.183-2.198t.448-2.926M49.691 218.909h-1.323v-9.898h1.12l.14 1.267h.063zm5.2-6.314q0 1.168-.342 2.016-.336.847-.987 1.302-.645.455-1.547.455-.75 0-1.302-.301a2.8 2.8 0 0 1-.931-.819h-.315v-1.071q.476.574.98.826.51.245 1.064.245.65 0 1.099-.294t.679-.882q.238-.595.238-1.477 0-.875-.231-1.456-.224-.58-.672-.875-.441-.294-1.092-.294-.56 0-1.064.245t-1.001.812v-1.064h.308q.427-.525.987-.819.567-.301 1.309-.301.903 0 1.533.462.63.455.959 1.295.33.84.329 1.995m8.683.021q0 1.218-.462 2.065-.462.84-1.26 1.267-.798.42-1.785.42t-1.785-.42a3.14 3.14 0 0 1-1.26-1.267q-.462-.847-.462-2.065 0-1.211.462-2.065.468-.853 1.26-1.281a3.7 3.7 0 0 1 1.785-.427 3.7 3.7 0 0 1 1.785.427q.798.427 1.26 1.281.462.847.462 2.065m-1.365 0q0-.896-.273-1.498-.266-.602-.75-.896-.475-.294-1.12-.294-.643 0-1.126.294t-.756.896q-.266.602-.266 1.498 0 .89.266 1.491.272.595.749.889.483.287 1.134.287t1.127-.287q.475-.294.742-.889.273-.602.273-1.491m6.567-3.773q.959 0 1.624.238.672.231 1.03.707.363.476.391 1.197l-1.204.084q-.07-.617-.553-.924-.476-.315-1.379-.315-.846 0-1.316.252-.462.252-.462.749 0 .273.161.462.168.189.518.336.35.14 1.001.294.259.05.504.105 1.044.217 1.631.455.588.238.882.63.3.385.301 1.001 0 .686-.364 1.19-.357.504-1.07.784-.708.273-1.75.273-1.023 0-1.73-.21-.7-.217-1.127-.707-.427-.497-.588-1.33l1.218-.154q.161.595.49.896.33.301.742.392.42.091 1.057.091.615 0 1.022-.147.406-.147.588-.385a.87.87 0 0 0 .19-.546q0-.315-.218-.511-.216-.203-.686-.35a15 15 0 0 0-1.407-.343q-.91-.189-1.484-.448-.567-.26-.86-.658-.288-.4-.288-1.001 0-.994.777-1.547.785-.56 2.36-.56m11.72.168v1.071h-6.72v-1.071zm-1.673 7.329q-1.084.007-1.722-.259-.63-.266-.938-.931-.3-.665-.301-1.862v-6.531h1.33v6.468q0 .777.168 1.197.167.42.539.588.371.16 1.036.161.798 0 1.729-.238v1.155q-.399.119-.882.182-.476.07-.96.07m7.317-7.497q.959 0 1.623.238.672.231 1.03.707.364.476.391 1.197l-1.203.084q-.07-.617-.553-.924-.477-.315-1.38-.315-.846 0-1.315.252-.463.252-.463.749 0 .273.162.462.167.189.517.336.35.14 1.002.294.258.05.504.105 1.043.217 1.63.455.59.238.883.63.3.385.3 1.001.001.686-.364 1.19-.356.504-1.07.784-.708.273-1.75.273-1.022 0-1.73-.21-.7-.217-1.126-.707-.427-.497-.588-1.33l1.218-.154q.16.595.49.896.328.301.742.392.42.091 1.056.091.617 0 1.022-.147.406-.147.588-.385a.87.87 0 0 0 .19-.546q0-.315-.218-.511-.217-.203-.685-.35a15 15 0 0 0-1.408-.343q-.908-.189-1.484-.448-.566-.26-.86-.658-.287-.4-.287-1.001 0-.994.776-1.547.785-.56 2.36-.56m67.535-3.857h4.592v1.029h-3.598l.315-.266v12.488l-.315-.266h3.598V219h-4.592zM161.544 219v-1.029h3.598l-.315.266v-12.488l.315.266h-3.598v-1.029h4.592V219zM49.691 243.909h-1.323v-9.898h1.12l.14 1.267h.063zm5.2-6.314q0 1.168-.342 2.016-.336.847-.987 1.302-.645.455-1.547.455-.75 0-1.302-.301a2.8 2.8 0 0 1-.931-.819h-.315v-1.071q.476.574.98.826.51.245 1.064.245.65 0 1.099-.294t.679-.882q.238-.595.238-1.477 0-.875-.231-1.456-.224-.58-.672-.875-.441-.294-1.092-.294-.56 0-1.064.245t-1.001.812v-1.064h.308q.427-.525.987-.819.567-.301 1.309-.301.903 0 1.533.462.63.455.959 1.295.33.84.329 1.995m5.015-2.282h.063v5.88h-1.323v-6.426l.315.315h-2.226v-1.071h3.03zm3.563-.168q-.945 0-1.547.077a4.2 4.2 0 0 0-1.127.294q-.525.217-1.127.679v-1.162h.392q.595-.61 1.204-.896.609-.294 1.512-.294.378 0 .693.063zm-6.734 4.984h5.782v1.071h-5.782zm15.52-2.513q0 1.218-.462 2.065-.462.84-1.26 1.267-.798.42-1.785.42t-1.785-.42a3.14 3.14 0 0 1-1.26-1.267q-.462-.847-.462-2.065 0-1.211.462-2.065.47-.853 1.26-1.281a3.7 3.7 0 0 1 1.785-.427 3.7 3.7 0 0 1 1.785.427q.798.427 1.26 1.281.462.847.462 2.065m-1.365 0q0-.896-.273-1.498-.266-.602-.749-.896-.475-.294-1.12-.294t-1.127.294q-.483.294-.756.896-.266.602-.266 1.498 0 .89.266 1.491.273.595.75.889.483.287 1.133.287.651 0 1.127-.287.476-.294.742-.889.273-.602.273-1.491m10.047-6.279q-.434-.105-.812-.154a6 6 0 0 0-.791-.049q-.659 0-1.071.168-.414.16-.637.609-.217.448-.217 1.288v8.001h-1.323v-7.882q0-1.218.378-1.96a2.28 2.28 0 0 1 1.085-1.071q.706-.329 1.75-.329.426 0 .833.056.412.055.805.168zm-6.755 8.792h5.775v1.071h-5.775zm6.496-5.047h-6.902v-1.071h6.902zm4.769 6.118v-6.559l.314.42H82.9v-1.05l3.703-.161.174.168v7.182zm-2.549-1.071h6.427v1.071h-6.427zm2.955-7.931a1.2 1.2 0 0 1-.511-.105.86.86 0 0 1-.343-.315.9.9 0 0 1-.126-.483q0-.412.265-.651.273-.245.715-.245.433 0 .7.245.272.238.273.651 0 .42-.273.665-.267.238-.7.238m5.727 7.931h6.426v1.071H91.58zm2.548 1.071.007-10.073.315.413h-2.87v-1.05l3.703-.154.175.161V241.2zm5.84-3.605q0-1.197.448-2.037.454-.847 1.281-1.281.825-.434 1.932-.434 1.021 0 1.743.357.72.35 1.099 1.064.385.714.385 1.757v.63h-5.873v-.882h4.928l-.35.301v-.287q0-.931-.539-1.393-.54-.462-1.435-.462-1.079 0-1.673.686-.588.68-.588 1.981 0 1.323.588 2.009.588.68 1.673.679.699 0 1.197-.294.496-.294.756-.896l1.288.217a3.1 3.1 0 0 1-.707 1.127 3 3 0 0 1-1.099.7q-.645.231-1.442.231-1.086 0-1.897-.434a3.04 3.04 0 0 1-1.267-1.281q-.448-.848-.448-2.058m82.216-.301h-1.134l-.035-1.645a5.3 5.3 0 0 0 1.176-.413q.476-.245.749-.658.273-.42.273-1.05 0-.819-.462-1.204-.463-.385-1.33-.385-.89 0-1.379.427-.483.42-.567 1.344l-1.302-.119q.035-1.414.917-2.093.888-.686 2.345-.686.951 0 1.659.301.707.294 1.092.896.392.595.392 1.463 0 1.323-.812 1.932t-2.065.805l.504-.385zm-.56 4.081q-.301 0-.553-.126a.97.97 0 0 1-.392-.364 1.07 1.07 0 0 1-.14-.553q0-.322.14-.56a.97.97 0 0 1 .392-.364q.252-.126.553-.126.307 0 .553.126a.93.93 0 0 1 .392.364q.147.238.147.56 0 .315-.147.553a.93.93 0 0 1-.392.364 1.2 1.2 0 0 1-.553.126M36.479 262.07q-1.218 0-2.016-.371t-1.1-1.099q-.3-.727-.041-1.785l.126-.532q.21-.861.09-1.358-.11-.497-.49-.707-.37-.21-1.014-.21h-1.428v-1.022h1.89q1 0 1.603.364.609.364.784 1.071t-.098 1.715l-.14.504q-.238.895-.035 1.491.203.588.896.896.699.308 1.932.322v1.288q-1.233.014-1.932.322-.693.307-.896.903-.204.588.035 1.484l.14.497q.273 1.015.098 1.722a1.64 1.64 0 0 1-.777 1.071q-.61.364-1.61.364h-1.89v-1.029h1.428q.643 0 1.015-.21.378-.203.49-.7.119-.497-.091-1.358l-.126-.539q-.252-1.058.042-1.785.3-.727 1.099-1.092.798-.37 2.016-.371z"/><path fill="#6b7280" d="M86.112 65.192q.798 0 1.21-.301.414-.3.553-.812.14-.51.14-1.351V55.98h1.352v7.126q0 1.512-.778 2.387-.776.868-2.477.868t-2.478-.868q-.778-.875-.778-2.387V55.98h1.352v6.748q0 .84.14 1.351.14.51.552.812.414.3 1.212.301m8.71-6.349q.958 0 1.623.238.672.231 1.03.707.364.476.391 1.197l-1.204.084q-.07-.616-.553-.924-.476-.315-1.379-.315-.847 0-1.316.252-.462.252-.462.749 0 .273.161.462.168.189.518.336.35.14 1.001.294.259.05.504.105 1.044.217 1.631.455.588.238.882.63.3.385.301 1.001 0 .686-.364 1.19-.357.504-1.07.784-.709.273-1.75.273-1.023 0-1.73-.21-.7-.217-1.127-.707-.427-.497-.588-1.33l1.218-.154q.161.595.49.896.33.3.742.392.42.09 1.057.091.615 0 1.022-.147.406-.147.588-.385a.87.87 0 0 0 .19-.546q0-.315-.218-.511-.216-.203-.686-.35a15 15 0 0 0-1.407-.343q-.91-.189-1.484-.448-.567-.26-.86-.658-.288-.4-.288-1.001 0-.994.777-1.547.785-.56 2.36-.56m5.146 3.752q0-1.197.448-2.037.454-.847 1.281-1.281.825-.434 1.932-.434 1.021 0 1.743.357.72.35 1.099 1.064.385.714.385 1.757v.63h-5.873v-.882h4.928l-.35.301v-.287q0-.93-.539-1.393-.54-.462-1.435-.462-1.079 0-1.673.686-.588.68-.588 1.981 0 1.323.588 2.009.588.68 1.673.679.699 0 1.197-.294.496-.294.756-.896l1.288.217a3.1 3.1 0 0 1-.707 1.127q-.456.462-1.099.7-.645.231-1.442.231-1.086 0-1.897-.434a3.05 3.05 0 0 1-1.267-1.281q-.448-.847-.448-2.058m12.027-2.282h.063v5.88h-1.323v-6.426l.315.315h-2.226v-1.071h3.031zm3.563-.168q-.944 0-1.547.077a4.1 4.1 0 0 0-1.127.294q-.524.217-1.127.679v-1.162h.392q.595-.61 1.204-.896.609-.294 1.512-.294.378 0 .693.063zm-6.734 4.984h5.782V66.2h-5.782zM120.159 91.2V80.98h1.358V91.2zm3.864-10.22v1.148h-6.37V80.98zm-6.37 9.072h6.37V91.2h-6.37zm10.173 1.148h-1.323v-7.189h1.12l.14 1.211h.063zm3.388 0v-4.795q0-.553-.175-.882a1 1 0 0 0-.476-.462 1.65 1.65 0 0 0-.686-.133q-.693 0-1.26.357-.567.35-1.029.98V85.04h.329a4.3 4.3 0 0 1 1.106-.868q.594-.33 1.428-.329.651 0 1.113.238.469.23.721.721.252.49.252 1.253V91.2zm10.053-7.189v1.071h-6.72v-1.071zm-1.673 7.329q-1.084.007-1.722-.259-.63-.266-.938-.931-.3-.665-.301-1.862v-6.531h1.33v6.468q0 .777.168 1.197t.539.588q.372.16 1.036.161.799 0 1.729-.238v1.155q-.399.12-.882.182-.476.07-.959.07m-36.287 17.503q.91 0 1.526.224.615.217.938.721.321.497.322 1.33v3.563q0 .266.077.399.076.133.259.168.182.035.518-.014v.966q-.477.14-.896.14-.462 0-.728-.161a.93.93 0 0 1-.378-.434 1.8 1.8 0 0 1-.105-.637l-.07-.119v-3.794q0-.56-.196-.868a1 1 0 0 0-.539-.42q-.343-.119-.868-.119a3 3 0 0 0-.847.119q-.35.105-.56.378-.204.266-.21.728v.308h-1.239v-.378q0-.973.728-1.533.728-.567 2.268-.567m1.981 4.165a9 9 0 0 0-.609-.063 6 6 0 0 0-.574-.028q-.855 0-1.442.14-.588.133-.903.434-.308.294-.308.777 0 .357.161.602.167.245.476.371.315.126.749.126.58 0 1.064-.217a5.4 5.4 0 0 0 1.043-.637l.035.791h-.259a9 9 0 0 1-.742.574 3 3 0 0 1-.742.343q-.448.147-.994.147-.666 0-1.155-.231a1.7 1.7 0 0 1-.756-.665q-.266-.434-.266-1.043 0-.966.658-1.463.657-.497 1.694-.651 1.035-.154 2.513-.14zm8.562-3.997h1.323v7.189h-1.12l-.14-1.211h-.063zm-3.388 0v4.788q0 .56.175.889.175.322.469.455.301.133.693.133.693 0 1.26-.35t1.029-.98v1.225h-.329a4.4 4.4 0 0 1-1.106.868q-.594.322-1.428.322-.65 0-1.12-.231a1.6 1.6 0 0 1-.714-.721q-.252-.49-.252-1.253v-5.145zm13.442 0v1.071h-6.72v-1.071zm-1.673 7.329q-1.084.007-1.722-.259-.63-.266-.938-.931-.301-.665-.301-1.862v-6.531h1.33v6.468q0 .777.168 1.197t.539.588q.371.16 1.036.161.798 0 1.729-.238v1.155q-.399.119-.882.182-.476.07-.959.07m10.796-3.724q0 1.218-.462 2.065-.462.84-1.26 1.267-.798.42-1.785.42t-1.785-.42a3.13 3.13 0 0 1-1.26-1.267q-.462-.847-.462-2.065 0-1.211.462-2.065.468-.853 1.26-1.281a3.7 3.7 0 0 1 1.785-.427 3.7 3.7 0 0 1 1.785.427q.798.428 1.26 1.281.462.847.462 2.065m-1.365 0q0-.896-.273-1.498-.266-.602-.749-.896-.477-.294-1.12-.294-.645 0-1.127.294-.483.294-.756.896-.266.602-.266 1.498 0 .89.266 1.491.273.595.749.889.483.287 1.134.287t1.127-.287q.475-.294.742-.889.273-.601.273-1.491m5.874 3.584v-6.559l.315.42h-2.863v-1.05l3.703-.161.175.168v7.182zm-2.548-1.071h6.426v1.071h-6.426zm2.954-7.931q-.286 0-.511-.105a.87.87 0 0 1-.343-.315.9.9 0 0 1-.126-.483q0-.413.266-.651.273-.245.714-.245.435 0 .7.245.273.239.273.651 0 .42-.273.665-.265.238-.7.238m7.247 9.002h-1.323v-7.189h1.12l.14 1.211h.063zm3.388 0v-4.795q0-.553-.175-.882a1 1 0 0 0-.476-.462 1.65 1.65 0 0 0-.686-.133q-.693 0-1.26.357-.567.35-1.029.98v-1.225h.329a4.4 4.4 0 0 1 1.106-.868q.595-.329 1.428-.329.651 0 1.113.238.47.23.721.721.252.49.252 1.253v5.145zm10.418-2.191a3.05 3.05 0 0 1-.672 1.309q-.47.525-1.155.791a4.3 4.3 0 0 1-1.519.259q-1.078 0-1.89-.427a3 3 0 0 1-1.253-1.281q-.448-.854-.448-2.072 0-1.225.455-2.065.462-.84 1.281-1.26.825-.42 1.925-.42.895 0 1.603.28a2.6 2.6 0 0 1 1.141.854q.44.574.532 1.414l-1.309.112q-.12-.798-.651-1.183-.525-.392-1.351-.392-1.113 0-1.687.686-.574.68-.574 1.974 0 .896.266 1.498.273.602.77.903.504.294 1.197.294.79 0 1.309-.371.525-.378.749-1.106zm5.09-3.696h.063v5.88h-1.323v-6.426l.315.315h-2.226v-1.071h3.031zm3.563-.168q-.945 0-1.547.077a4.2 4.2 0 0 0-1.127.294 5 5 0 0 0-1.127.679v-1.162h.392q.595-.61 1.204-.896.609-.294 1.512-.294.378 0 .693.063zm-6.734 4.984h5.782v1.071h-5.782zm8.507-2.534q0-1.197.448-2.037.454-.847 1.281-1.281.826-.434 1.932-.434 1.022 0 1.743.357.721.35 1.099 1.064.385.714.385 1.757v.63h-5.873v-.882h4.928l-.35.301v-.287q0-.931-.539-1.393t-1.435-.462q-1.078 0-1.673.686-.588.68-.588 1.981 0 1.323.588 2.009.588.68 1.673.679.7 0 1.197-.294.496-.294.756-.896l1.288.217a3.1 3.1 0 0 1-.707 1.127q-.455.462-1.099.7-.644.231-1.442.231-1.085 0-1.897-.434a3.05 3.05 0 0 1-1.267-1.281q-.448-.848-.448-2.058m10.11 3.605h-1.204v-7.189h1.008l.133 1.211h.063zm1.477 0v-5.572q0-.357-.161-.504a.57.57 0 0 0-.413-.154.88.88 0 0 0-.581.217 2.6 2.6 0 0 0-.497.588l-.189-.861h.371q.147-.315.364-.553.223-.238.511-.371.293-.14.644-.14.546 0 .847.329.308.322.308.973v6.048zm2.681 0v-5.572q0-.357-.161-.504a.57.57 0 0 0-.413-.154.88.88 0 0 0-.581.217 2.8 2.8 0 0 0-.497.588l-.147-.861h.385q.14-.322.35-.56.216-.238.497-.371.286-.133.637-.133.531 0 .833.329.308.322.308.973v6.048zm3.095-3.605q0-1.197.448-2.037a3.03 3.03 0 0 1 1.281-1.281q.826-.434 1.932-.434 1.023 0 1.743.357.721.35 1.099 1.064.385.714.385 1.757v.63h-5.873v-.882h4.928l-.35.301v-.287q0-.931-.539-1.393-.538-.462-1.435-.462-1.077 0-1.673.686-.588.68-.588 1.981 0 1.323.588 2.009.588.68 1.673.679.7 0 1.197-.294t.756-.896l1.288.217a3.1 3.1 0 0 1-.707 1.127 2.95 2.95 0 0 1-1.099.7q-.644.231-1.442.231-1.084 0-1.897-.434a3.05 3.05 0 0 1-1.267-1.281q-.447-.848-.448-2.058m10.495 3.605h-1.323v-7.189h1.12l.14 1.211h.063zm3.388 0v-4.795q0-.553-.175-.882a1 1 0 0 0-.476-.462 1.65 1.65 0 0 0-.686-.133q-.693 0-1.26.357-.567.35-1.029.98v-1.225h.329a4.4 4.4 0 0 1 1.106-.868q.594-.329 1.428-.329.651 0 1.113.238.469.23.721.721.252.49.252 1.253v5.145zm10.053-7.189v1.071H204v-1.071zm-1.673 7.329q-1.085.007-1.722-.259-.63-.266-.938-.931-.3-.665-.301-1.862v-6.531h1.33v6.468q0 .777.168 1.197t.539.588q.372.16 1.036.161a7 7 0 0 0 1.729-.238v1.155q-.399.119-.882.182-.476.07-.959.07M22.029 136.041h6.622v1.148h-6.622zm3.934-2.786v6.72h-1.239v-6.72zm97.129.427q-.07-.622-.322-1.008a1.4 1.4 0 0 0-.679-.56q-.427-.175-1.064-.175-.994 0-1.498.364t-.504 1.071q0 .47.224.777t.686.567q.462.252 1.365.609 1.127.448 1.771.826.651.371 1.022.91.37.532.371 1.337 0 .868-.413 1.54-.406.665-1.225 1.05-.819.378-2.002.378-1.162 0-1.946-.364t-1.197-1.043q-.413-.68-.469-1.624l1.344-.161q.119 1.058.679 1.554.567.49 1.645.49 1.064 0 1.61-.434.553-.433.553-1.239 0-.496-.273-.819a2 2 0 0 0-.7-.532 26 26 0 0 0-1.526-.665q-.945-.385-1.561-.763a3.1 3.1 0 0 1-.966-.945q-.357-.56-.357-1.344 0-.868.406-1.463.413-.595 1.183-.896.777-.308 1.876-.308 1.463 0 2.345.658t.945 2.093zm9.494.329v1.071h-6.72v-1.071zm-1.673 7.329q-1.086.007-1.722-.259-.63-.266-.938-.931-.301-.665-.301-1.862v-6.531h1.33v6.468q0 .777.168 1.197.167.42.539.588.37.16 1.036.161.798 0 1.729-.238v1.155q-.399.119-.882.182-.476.07-.959.07m7.127-6.027h.063v5.88h-1.323v-6.426l.315.315h-2.226v-1.071h3.031zm3.563-.168q-.945 0-1.547.077a4.2 4.2 0 0 0-1.127.294 5 5 0 0 0-1.127.679v-1.162h.392q.595-.61 1.204-.896.609-.294 1.512-.294.378 0 .693.063zm-6.734 4.984h5.782v1.071h-5.782zm11.349 1.071v-6.559l.315.42h-2.863v-1.05l3.703-.161.175.168v7.182zm-2.548-1.071h6.426v1.071h-6.426zm2.954-7.931a1.2 1.2 0 0 1-.511-.105.86.86 0 0 1-.343-.315.9.9 0 0 1-.126-.483q0-.412.266-.651.273-.245.714-.245.434 0 .7.245.273.238.273.651 0 .42-.273.665-.266.238-.7.238m7.247 9.002h-1.323v-7.189h1.12l.14 1.211h.063zm3.388 0v-4.795q0-.554-.175-.882a1 1 0 0 0-.476-.462 1.65 1.65 0 0 0-.686-.133q-.693 0-1.26.357-.567.35-1.029.98v-1.225h.329a4.4 4.4 0 0 1 1.106-.868q.594-.329 1.428-.329.651 0 1.113.238.468.23.721.721.252.49.252 1.253v5.145zm3.48-3.927q0-1.037.35-1.806.357-.777 1.001-1.197.651-.427 1.512-.427.511 0 .931.147.42.14.742.392.33.245.574.581h.315v1.071q-.476-.575-.987-.819a2.3 2.3 0 0 0-1.057-.252q-.63 0-1.085.273a1.8 1.8 0 0 0-.693.791q-.238.518-.238 1.246 0 .7.231 1.211t.679.791q.449.273 1.085.273.56 0 1.064-.245t1.001-.819v1.071h-.308a3.2 3.2 0 0 1-1.001.819q-.567.301-1.309.301-.86 0-1.498-.427a2.7 2.7 0 0 1-.973-1.19q-.336-.77-.336-1.785m6.524 3.521q0 1.162-.371 1.883-.363.728-1.085 1.064-.714.336-1.785.336-.952 0-1.603-.245-.644-.238-1.001-.665a2.44 2.44 0 0 1-.497-1.001l1.204-.273q.196.616.672.91t1.225.294q.91 0 1.414-.49t.504-1.673v-5.656h.063l.14-1.267h1.12zm-44.171 17.888q-.07-.622-.322-1.008a1.4 1.4 0 0 0-.679-.56q-.427-.175-1.064-.175-.994 0-1.498.364t-.504 1.071q0 .47.224.777t.686.567q.462.252 1.365.609 1.127.448 1.771.826.651.371 1.022.91.37.532.371 1.337 0 .868-.413 1.54-.406.665-1.225 1.05-.819.378-2.002.378-1.162 0-1.946-.364t-1.197-1.043q-.413-.68-.469-1.624l1.344-.161q.119 1.058.679 1.554.567.49 1.645.49 1.064 0 1.61-.434.553-.433.553-1.239 0-.496-.273-.819a2 2 0 0 0-.7-.532 26 26 0 0 0-1.526-.665q-.945-.385-1.561-.763a3.1 3.1 0 0 1-.966-.945q-.357-.56-.357-1.344 0-.868.406-1.463.413-.595 1.183-.896.777-.308 1.876-.308 1.463 0 2.345.658t.945 2.093zm9.494.329v1.071h-6.72v-1.071zm-1.673 7.329q-1.086.007-1.722-.259-.63-.266-.938-.931-.301-.665-.301-1.862v-6.531h1.33v6.468q0 .777.168 1.197.167.42.539.588.37.16 1.036.161.798 0 1.729-.238v1.155q-.399.119-.882.182-.476.07-.959.07m7.127-6.027h.063v5.88h-1.323v-6.426l.315.315h-2.226v-1.071h3.031zm3.563-.168q-.945 0-1.547.077a4.2 4.2 0 0 0-1.127.294 5 5 0 0 0-1.127.679v-1.162h.392q.595-.61 1.204-.896.609-.294 1.512-.294.378 0 .693.063zm-6.734 4.984h5.782v1.071h-5.782zm11.349 1.071v-6.559l.315.42h-2.863v-1.05l3.703-.161.175.168v7.182zm-2.548-1.071h6.426v1.071h-6.426zm2.954-7.931a1.2 1.2 0 0 1-.511-.105.86.86 0 0 1-.343-.315.9.9 0 0 1-.126-.483q0-.412.266-.651.273-.245.714-.245.434 0 .7.245.273.238.273.651 0 .42-.273.665-.266.238-.7.238m7.247 9.002h-1.323v-7.189h1.12l.14 1.211h.063zm3.388 0v-4.795q0-.554-.175-.882a1 1 0 0 0-.476-.462 1.65 1.65 0 0 0-.686-.133q-.693 0-1.26.357-.567.35-1.029.98v-1.225h.329a4.4 4.4 0 0 1 1.106-.868q.594-.329 1.428-.329.651 0 1.113.238.468.23.721.721.252.49.252 1.253v5.145zm3.48-3.927q0-1.037.35-1.806.357-.777 1.001-1.197.651-.427 1.512-.427.511 0 .931.147.42.14.742.392.33.245.574.581h.315v1.071q-.476-.575-.987-.819a2.3 2.3 0 0 0-1.057-.252q-.63 0-1.085.273a1.8 1.8 0 0 0-.693.791q-.238.518-.238 1.246 0 .7.231 1.211t.679.791q.449.273 1.085.273.56 0 1.064-.245t1.001-.819v1.071h-.308a3.2 3.2 0 0 1-1.001.819q-.567.301-1.309.301-.86 0-1.498-.427a2.7 2.7 0 0 1-.973-1.19q-.336-.77-.336-1.785m6.524 3.521q0 1.162-.371 1.883-.363.728-1.085 1.064-.714.336-1.785.336-.952 0-1.603-.245-.644-.238-1.001-.665a2.44 2.44 0 0 1-.497-1.001l1.204-.273q.196.616.672.91t1.225.294q.91 0 1.414-.49t.504-1.673v-5.656h.063l.14-1.267h1.12z"/><path fill="#a5b4fc" d="M201.591 85.054q0-1.092-.315-1.757t-.903-.952q-.582-.294-1.428-.294-1.002 0-1.722.413-.715.406-1.12 1.344-.399.93-.399 2.471v2.443q0 1.68.462 2.639.469.966 1.267 1.337.804.378 1.946.378.867 0 1.715-.161a8.3 8.3 0 0 0 1.491-.399l.007 1.015a7.4 7.4 0 0 1-1.512.406q-.84.14-1.743.14-1.477 0-2.506-.49-1.023-.483-1.596-1.666t-.574-3.199v-2.373q0-1.869.518-3.045t1.463-1.715q.951-.546 2.303-.546 1.218 0 2.037.448.825.44 1.26 1.435.434.987.434 2.618v4.032q0 .35.049.511.055.154.189.189.132.029.399-.028v.966a1.46 1.46 0 0 1-.672.154q-.385 0-.616-.175a.9.9 0 0 1-.308-.483 2.7 2.7 0 0 1-.07-.77h-.056zm-4.046 1.911q0-1.127.294-1.82.293-.693.77-.994a1.96 1.96 0 0 1 1.078-.308q.56 0 1.001.245.44.238.805.693h.245v1.043q-.309-.525-.763-.756a2 2 0 0 0-.924-.231q-.659 0-1.022.525-.364.525-.364 1.848v.665q0 1.365.35 1.932.357.567 1.036.567.286 0 .588-.091.3-.098.588-.322.286-.231.511-.609v1.057h-.245a2.8 2.8 0 0 1-.805.714 2 2 0 0 1-1.001.252q-.616 0-1.099-.329-.483-.33-.763-1.05t-.28-1.862zm10.067 4.235v-6.559l.315.42h-2.24v-1.05l3.08-.161.175.168V91.2zm-1.925-1.064h5.18V91.2h-5.18zm2.338-7.91q-.286 0-.511-.105a.86.86 0 0 1-.343-.315.9.9 0 0 1-.126-.483q0-.413.266-.651.273-.245.714-.245.435 0 .7.245.273.239.273.651 0 .42-.273.665-.265.238-.7.238m10.005-1.736h1.323V91.2h-1.12l-.147-1.295h-.056zm-5.201 7.133q0-1.17.336-2.016.344-.855.987-1.309.651-.455 1.554-.455.749 0 1.302.301.553.3.931.819h.315v1.071q-.475-.574-.987-.819a2.3 2.3 0 0 0-1.057-.252q-.65 0-1.099.294t-.686.889q-.231.588-.231 1.477 0 .868.224 1.449.231.58.672.882.448.294 1.099.294.56 0 1.064-.245t1.001-.819v1.071h-.308a3.3 3.3 0 0 1-.994.819q-.56.3-1.302.301-.903 0-1.533-.455-.63-.462-.959-1.302-.329-.847-.329-1.995m-185.2 22.431q0-1.092-.322-1.757-.315-.665-.903-.952-.58-.294-1.428-.294-1 0-1.722.413-.714.406-1.113 1.344-.399.931-.399 2.471v2.443q0 1.68.462 2.639.462.966 1.26 1.337.805.378 1.953.378.868 0 1.715-.161a8.5 8.5 0 0 0 1.491-.399v1.015a7.3 7.3 0 0 1-1.512.406q-.84.14-1.743.14-1.47 0-2.499-.49-1.022-.483-1.603-1.666-.574-1.183-.574-3.199v-2.373q0-1.869.518-3.045t1.463-1.715q.952-.546 2.303-.546 1.218 0 2.037.448.825.44 1.26 1.435.435.987.434 2.618v4.032q0 .35.056.511.056.154.182.189.133.028.406-.028v.966a1.5 1.5 0 0 1-.679.154q-.386 0-.609-.175a.93.93 0 0 1-.315-.483 2.7 2.7 0 0 1-.07-.77h-.049zm-4.053 1.911q0-1.127.294-1.82t.77-.994a2 2 0 0 1 1.085-.308q.553 0 .994.245.448.238.805.693h.245v1.043q-.308-.525-.763-.756a2 2 0 0 0-.924-.231q-.659 0-1.022.525-.364.525-.364 1.848v.665q0 1.365.35 1.932.357.567 1.036.567.294 0 .588-.091.3-.098.588-.322.287-.231.511-.609v1.057h-.245a2.7 2.7 0 0 1-.798.714 2 2 0 0 1-1.001.252 1.9 1.9 0 0 1-1.106-.329q-.476-.328-.763-1.05-.28-.721-.28-1.862zm12.14-6.475h1.323v10.71h-1.12l-.147-1.295h-.056zm-5.201 7.133q0-1.168.336-2.016.342-.854.987-1.309.651-.455 1.554-.455.748 0 1.302.301.553.301.93.819h.316v1.071q-.477-.574-.987-.819a2.3 2.3 0 0 0-1.057-.252q-.65 0-1.1.294-.448.294-.685.889-.231.588-.231 1.477 0 .868.224 1.449.231.58.672.882.448.294 1.099.294.56 0 1.064-.245.505-.245 1-.819v1.071h-.307a3.3 3.3 0 0 1-.994.819q-.561.301-1.302.301-.903 0-1.533-.455-.63-.462-.96-1.302-.328-.847-.328-1.995m8.681-.028q0-1.197.448-2.037.455-.847 1.281-1.281t1.932-.434q1.023 0 1.743.357a2.4 2.4 0 0 1 1.1 1.064q.384.714.384 1.757v.63h-5.873v-.882h4.928l-.35.301v-.287q0-.931-.539-1.393t-1.435-.462q-1.077 0-1.673.686-.588.68-.588 1.981 0 1.323.588 2.009.588.68 1.673.679.7 0 1.197-.294t.756-.896l1.288.217a3.1 3.1 0 0 1-.707 1.127q-.455.462-1.099.7a4.3 4.3 0 0 1-1.442.231q-1.084 0-1.897-.434a3.05 3.05 0 0 1-1.267-1.281q-.448-.848-.448-2.058m15.696-6.258q-.434-.105-.812-.154a6 6 0 0 0-.791-.049q-.658 0-1.071.168-.413.16-.637.609-.217.448-.217 1.288v8.001H50.04v-7.882q0-1.218.378-1.96a2.28 2.28 0 0 1 1.085-1.071q.707-.329 1.75-.329.427 0 .833.056.413.056.805.168zm-6.755 8.792h5.775v1.071h-5.775zm6.496-5.047H47.73v-1.071h6.902zm5.266-1.239q.91 0 1.526.224.615.217.938.721.322.497.322 1.33v3.563q0 .266.077.399a.36.36 0 0 0 .259.168q.181.035.518-.014v.966q-.476.14-.896.14-.462 0-.728-.161a.94.94 0 0 1-.378-.434 1.8 1.8 0 0 1-.105-.637l-.07-.119v-3.794q0-.56-.196-.868a1 1 0 0 0-.54-.42q-.342-.119-.867-.119a3 3 0 0 0-.847.119q-.35.105-.56.378-.204.266-.21.728v.308h-1.24v-.378q0-.973.729-1.533.727-.567 2.268-.567m1.98 4.165a9 9 0 0 0-.608-.063 6 6 0 0 0-.574-.028q-.854 0-1.442.14-.588.133-.903.434-.309.294-.308.777 0 .357.16.602.169.245.477.371.315.126.749.126.58 0 1.064-.217a5.3 5.3 0 0 0 1.043-.637l.035.791h-.26a9 9 0 0 1-.741.574 3 3 0 0 1-.742.343q-.449.147-.994.147-.666 0-1.155-.231a1.73 1.73 0 0 1-.756-.665q-.266-.434-.266-1.043 0-.966.658-1.463.657-.497 1.694-.651 1.035-.154 2.513-.14zm8.563-3.997h1.323v7.189h-1.12l-.14-1.211h-.063zm-3.388 0v4.788q0 .56.175.889.175.322.47.455.3.133.692.133.693 0 1.26-.35t1.03-.98v1.225h-.33q-.511.546-1.106.868t-1.428.322q-.65 0-1.12-.231a1.6 1.6 0 0 1-.714-.721q-.252-.49-.252-1.253v-5.145zm7.163 6.118h6.426v1.071h-6.426zm2.548 1.071.007-10.073.315.413h-2.87v-1.05l3.703-.154.175.161V116.2zm12.412-7.189v1.071h-6.72v-1.071zm-1.673 7.329q-1.085.007-1.722-.259-.63-.266-.937-.931-.302-.665-.302-1.862v-6.531h1.33v6.468q0 .777.168 1.197t.54.588q.37.16 1.035.161.798 0 1.73-.238v1.155q-.4.119-.883.182-.475.07-.959.07m113.758 18.714q0-1.092-.322-1.757-.315-.665-.903-.952-.582-.294-1.428-.294-1.002 0-1.722.413-.714.406-1.113 1.344-.399.931-.399 2.471v2.443q0 1.68.462 2.639.462.966 1.26 1.337.804.378 1.953.378a9 9 0 0 0 1.715-.161 8.6 8.6 0 0 0 1.491-.399v1.015a7.3 7.3 0 0 1-1.512.406q-.84.14-1.743.14-1.47 0-2.499-.49-1.023-.483-1.603-1.666-.574-1.183-.574-3.199v-2.373q0-1.869.518-3.045t1.463-1.715q.951-.546 2.303-.546 1.218 0 2.037.448.825.44 1.26 1.435.434.987.434 2.618v4.032q0 .35.056.511.056.154.182.189.132.028.406-.028v.966a1.5 1.5 0 0 1-.679.154q-.386 0-.609-.175a.92.92 0 0 1-.315-.483 2.7 2.7 0 0 1-.07-.77h-.049zm-4.053 1.911q0-1.127.294-1.82.293-.693.77-.994a2 2 0 0 1 1.085-.308q.553 0 .994.245.448.239.805.693h.245v1.043q-.309-.525-.763-.756a2 2 0 0 0-.924-.231q-.659 0-1.022.525-.364.525-.364 1.848v.665q0 1.365.35 1.932.357.567 1.036.567.294 0 .588-.091.3-.098.588-.322.286-.231.511-.609v1.057h-.245a2.7 2.7 0 0 1-.798.714 2 2 0 0 1-1.001.252q-.624 0-1.106-.329-.477-.328-.763-1.05-.28-.721-.28-1.862zm12.139-2.954h1.323v7.189h-1.12l-.14-1.211h-.063zm-3.388 0v4.788q0 .56.175.889.175.322.469.455.301.133.693.133.693 0 1.26-.35t1.029-.98v1.225h-.329a4.4 4.4 0 0 1-1.106.868q-.594.322-1.428.322-.65 0-1.12-.231a1.6 1.6 0 0 1-.714-.721q-.252-.49-.252-1.253v-5.145zm8.682 7.189h-1.323v-7.189h1.12l.14 1.211h.063zm3.388 0v-4.795q0-.554-.175-.882a1 1 0 0 0-.476-.462 1.65 1.65 0 0 0-.686-.133q-.693 0-1.26.357-.567.35-1.029.98v-1.225h.329a4.4 4.4 0 0 1 1.106-.868q.595-.329 1.428-.329.651 0 1.113.238.47.23.721.721.252.49.252 1.253v5.145zm6.323 0v-6.559l.315.42h-2.863v-1.05l3.703-.161.175.168v7.182zm-2.548-1.071h6.426v1.071h-6.426zm2.954-7.931q-.288 0-.511-.105a.86.86 0 0 1-.343-.315.9.9 0 0 1-.126-.483q0-.412.266-.651.273-.245.714-.245.433 0 .7.245.273.238.273.651 0 .42-.273.665-.267.238-.7.238m10.697 3.08.14-1.267h1.12v9.898h-1.323v-8.631zm-5.264 2.338q0-1.168.336-2.016.343-.847.987-1.302.651-.455 1.554-.455.75 0 1.302.301.553.294.931.812h.315v1.071q-.475-.567-.987-.812a2.3 2.3 0 0 0-1.057-.252q-.65 0-1.099.294-.447.294-.686.889-.231.588-.231 1.47 0 .868.224 1.456.231.58.672.875.448.294 1.099.294.56 0 1.064-.245.504-.244 1.001-.819v1.071h-.308a3.3 3.3 0 0 1-.994.819q-.56.301-1.302.301-.903 0-1.533-.455-.63-.462-.959-1.302-.329-.847-.329-1.995m13.883-3.605h1.323v7.189h-1.12l-.14-1.211h-.063zm-3.388 0v4.788q0 .56.175.889.175.322.469.455.302.133.693.133.693 0 1.26-.35t1.029-.98v1.225h-.329a4.4 4.4 0 0 1-1.106.868q-.595.322-1.428.322-.65 0-1.12-.231a1.6 1.6 0 0 1-.714-.721q-.252-.49-.252-1.253v-5.145zm6.869 3.584q0-1.197.448-2.037.454-.847 1.281-1.281.825-.434 1.932-.434 1.022 0 1.743.357.72.35 1.099 1.064.385.714.385 1.757v.63h-5.873v-.882h4.928l-.35.301v-.287q0-.931-.539-1.393-.54-.462-1.435-.462-1.079 0-1.673.686-.588.68-.588 1.981 0 1.323.588 2.009.588.68 1.673.679.699 0 1.197-.294.496-.294.756-.896l1.288.217a3.1 3.1 0 0 1-.707 1.127 3 3 0 0 1-1.099.7q-.645.231-1.442.231-1.086 0-1.897-.434a3.04 3.04 0 0 1-1.267-1.281q-.448-.847-.448-2.058M123.932 191.2h-1.568l-1.722-4.459 1.225-.301zm-6.888 0 1.988-10.22h1.351l-1.988 10.22zm3.563-5.166q.924 0 1.547-.259.63-.266.98-.742t.483-1.141-.063-1.071-.693-.588-1.316-.182h-1.862l.21-1.071h2.219q1.036 0 1.757.329.721.322 1.022.98.308.658.119 1.61a3.8 3.8 0 0 1-.791 1.722q-.596.714-1.554 1.092-.952.378-2.219.378h-1.764l.203-1.057zm12.399 1.68q-.238 1.204-.847 2.023a3.9 3.9 0 0 1-1.442 1.225 4.1 4.1 0 0 1-1.813.406q-1.015 0-1.75-.441-.729-.44-1.043-1.309-.315-.868-.077-2.093.23-1.204.833-2.03.609-.833 1.456-1.239a4.1 4.1 0 0 1 1.813-.413q1.008 0 1.743.448.741.449 1.05 1.323.315.869.077 2.1m-1.351-.098q.174-.896.021-1.498-.147-.602-.567-.896t-1.071-.294q-.645 0-1.183.294-.54.294-.924.903-.378.601-.553 1.491t-.028 1.491q.154.595.574.889.427.287 1.078.287.65 0 1.183-.287.531-.294.91-.889.384-.595.56-1.491m2.843 2.513h6.426l-.21 1.071h-6.426zm2.345 1.071 1.96-10.073.231.413h-2.863l.203-1.05 3.731-.154.147.161-2.086 10.703zm6.554-3.696q.231-1.197.812-2.016a3.76 3.76 0 0 1 1.456-1.232q.868-.413 1.96-.413 1.043 0 1.722.378.685.378.945 1.113.266.735.063 1.778l-.105.539h-5.873l.175-.882h4.928l-.406.301.049-.287q.182-.931-.266-1.393-.449-.462-1.344-.462-1.078 0-1.799.686-.721.68-.973 1.981-.259 1.323.196 2.009.454.68 1.533.679.714 0 1.267-.294a2.4 2.4 0 0 0 .931-.896l1.232.217a4.3 4.3 0 0 1-.903 1.134q-.525.455-1.19.693a4.4 4.4 0 0 1-1.456.231q-1.078 0-1.834-.455a2.46 2.46 0 0 1-1.05-1.33q-.301-.875-.07-2.079m57.865-2.45q0-1.092-.322-1.757-.315-.665-.903-.952-.582-.294-1.428-.294-1.002 0-1.722.413-.714.406-1.113 1.344-.399.931-.399 2.471v2.443q0 1.68.462 2.639.462.966 1.26 1.337.804.378 1.953.378a9 9 0 0 0 1.715-.161 8.6 8.6 0 0 0 1.491-.399v1.015a7.3 7.3 0 0 1-1.512.406q-.84.14-1.743.14-1.47 0-2.499-.49-1.023-.483-1.603-1.666-.574-1.183-.574-3.199v-2.373q0-1.869.518-3.045t1.463-1.715q.951-.546 2.303-.546 1.218 0 2.037.448.825.44 1.26 1.435.434.987.434 2.618v4.032q0 .35.056.511.056.155.182.189.132.028.406-.028v.966a1.5 1.5 0 0 1-.679.154q-.386 0-.609-.175a.92.92 0 0 1-.315-.483 2.7 2.7 0 0 1-.07-.77h-.049zm-4.053 1.911q0-1.127.294-1.82.293-.693.77-.994a2 2 0 0 1 1.085-.308q.553 0 .994.245.448.239.805.693h.245v1.043q-.309-.525-.763-.756a2 2 0 0 0-.924-.231q-.659 0-1.022.525-.364.525-.364 1.848v.665q0 1.365.35 1.932.357.567 1.036.567.294 0 .588-.091.3-.098.588-.322.286-.231.511-.609v1.057h-.245a2.7 2.7 0 0 1-.798.714 2 2 0 0 1-1.001.252q-.624 0-1.106-.329-.477-.328-.763-1.05-.28-.721-.28-1.862zm12.139-6.475h1.323v10.71h-1.12l-.147-1.295h-.056zm-5.201 7.133q0-1.168.336-2.016.344-.854.987-1.309.651-.455 1.554-.455.75 0 1.302.301a2.8 2.8 0 0 1 .931.819h.315v1.071q-.476-.575-.987-.819a2.3 2.3 0 0 0-1.057-.252q-.65 0-1.099.294-.447.294-.686.889-.231.588-.231 1.477 0 .869.224 1.449.231.58.672.882.448.294 1.099.294.56 0 1.064-.245t1.001-.819v1.071h-.308a3.3 3.3 0 0 1-.994.819q-.56.301-1.302.301-.903 0-1.533-.455-.63-.462-.959-1.302-.329-.847-.329-1.995m8.682-.028q0-1.197.448-2.037.454-.847 1.281-1.281t1.932-.434q1.022 0 1.743.357.721.35 1.099 1.064.385.714.385 1.757v.63h-5.873v-.882h4.928l-.35.301v-.287q0-.931-.539-1.393t-1.435-.462q-1.078 0-1.673.686-.588.68-.588 1.981 0 1.323.588 2.009.588.68 1.673.679.7 0 1.197-.294.496-.294.756-.896l1.288.217a3.1 3.1 0 0 1-.707 1.127q-.455.462-1.099.7-.644.231-1.442.231-1.085 0-1.897-.434a3.05 3.05 0 0 1-1.267-1.281q-.448-.848-.448-2.058m15.696-6.258q-.434-.105-.812-.154a6 6 0 0 0-.791-.049q-.658 0-1.071.168-.414.16-.637.609-.217.448-.217 1.288v8.001h-1.323v-7.882q0-1.218.378-1.96.378-.743 1.085-1.071.706-.329 1.75-.329.426 0 .833.056.412.055.805.168zm-6.755 8.792h5.775v1.071h-5.775zm6.496-5.047h-6.902v-1.071h6.902zm5.265-1.239q.91 0 1.526.224.617.217.938.721.322.497.322 1.33v3.563q0 .266.077.399a.36.36 0 0 0 .259.168q.183.035.518-.014v.966q-.476.14-.896.14-.462 0-.728-.161a.95.95 0 0 1-.378-.434 1.8 1.8 0 0 1-.105-.637l-.07-.119v-3.794q0-.56-.196-.868a.98.98 0 0 0-.539-.42q-.343-.119-.868-.119a3 3 0 0 0-.847.119q-.35.105-.56.378-.203.266-.21.728v.308h-1.239v-.378q0-.973.728-1.533.729-.567 2.268-.567m1.981 4.165a9 9 0 0 0-.609-.063 6 6 0 0 0-.574-.028q-.854 0-1.442.14-.588.133-.903.434-.308.294-.308.777 0 .357.161.602.168.245.476.371.315.126.749.126a2.6 2.6 0 0 0 1.064-.217 5.3 5.3 0 0 0 1.043-.637l.035.791h-.259a9 9 0 0 1-.742.574 3 3 0 0 1-.742.343q-.447.147-.994.147-.665 0-1.155-.231a1.73 1.73 0 0 1-.756-.665q-.266-.434-.266-1.043 0-.966.658-1.463.659-.496 1.694-.651 1.037-.154 2.513-.14zm8.563-3.997h1.323v7.189h-1.12l-.14-1.211h-.063zm-3.388 0v4.788q0 .56.175.889.175.322.469.455.302.133.693.133.693 0 1.26-.35t1.029-.98v1.225h-.329a4.4 4.4 0 0 1-1.106.868q-.595.322-1.428.322-.65 0-1.12-.231a1.6 1.6 0 0 1-.714-.721q-.252-.49-.252-1.253v-5.145zm7.163 6.118h6.426v1.071h-6.426zm2.548 1.071.007-10.073.315.413h-2.87v-1.05l3.703-.154.175.161V191.2zm12.412-7.189v1.071h-6.72v-1.071zm-1.673 7.329q-1.084.007-1.722-.259-.63-.266-.938-.931-.3-.665-.301-1.862v-6.531h1.33v6.468q0 .777.168 1.197t.539.588q.372.16 1.036.161a7 7 0 0 0 1.729-.238v1.155q-.399.119-.882.182-.476.07-.959.07m15.971-1.148q.797 0 1.211-.301.412-.301.553-.812.14-.511.14-1.351v-6.748h1.351v7.126q0 1.512-.777 2.387-.777.868-2.478.868t-2.478-.868q-.777-.875-.777-2.387v-7.126h1.351v6.748q0 .84.14 1.351t.553.812 1.211.301m10.935-6.51q-.07-.623-.322-1.008a1.4 1.4 0 0 0-.679-.56q-.426-.175-1.064-.175-.993 0-1.498.364-.504.364-.504 1.071 0 .47.224.777t.686.567q.462.252 1.365.609 1.128.448 1.771.826.651.371 1.022.91.371.532.371 1.337 0 .868-.413 1.54-.405.665-1.225 1.05-.819.378-2.002.378-1.161 0-1.946-.364-.783-.364-1.197-1.043-.412-.68-.469-1.624l1.344-.161q.12 1.058.679 1.554.567.49 1.645.49 1.064 0 1.61-.434.553-.434.553-1.239 0-.496-.273-.819a2 2 0 0 0-.7-.532 26 26 0 0 0-1.526-.665q-.945-.385-1.561-.763a3.1 3.1 0 0 1-.966-.945q-.357-.56-.357-1.344 0-.868.406-1.463.414-.595 1.183-.896.777-.308 1.876-.308 1.463 0 2.345.658t.945 2.093zm3.285 7.518v-10.22h1.351v10.22zm6.328 0h-5.558v-1.148h5.558zm-.861-4.634h-4.627v-1.092h4.627zm-4.697-4.438v-1.148h5.558v1.148zm14.842 9.072h-1.631l-2.59-4.459 1.232-.301zm-6.888 0v-10.22h1.358v10.22zm2.562-5.166q.924 0 1.498-.259.58-.266.84-.742.259-.476.259-1.141t-.273-1.071q-.274-.407-.805-.588-.532-.182-1.351-.182h-1.862v-1.071h2.212q1.056 0 1.834.294.777.294 1.203.917.435.616.435 1.568 0 1.008-.462 1.764-.456.749-1.344 1.162-.882.406-2.142.406h-1.764v-1.057zM117.044 216.2l1.988-10.22h1.351l-1.988 10.22zm3.514-4.83q1.4 0 2.149-.609.749-.61.973-1.757.133-.714-.056-1.141-.19-.434-.686-.623t-1.323-.189h-2.03l.217-1.071h2.296q1.631 0 2.443.721.819.714.532 2.226-.217 1.105-.791 1.89t-1.561 1.211q-.98.427-2.38.427h-1.827l.21-1.085zm12.448 1.344q-.238 1.204-.847 2.023a3.9 3.9 0 0 1-1.442 1.225 4.1 4.1 0 0 1-1.813.406q-1.015 0-1.75-.441-.729-.44-1.043-1.309-.315-.868-.077-2.093.23-1.204.833-2.03.609-.833 1.456-1.239a4.1 4.1 0 0 1 1.813-.413q1.008 0 1.743.448.741.449 1.05 1.323.315.869.077 2.1m-1.351-.098q.174-.896.021-1.498-.147-.602-.567-.896t-1.071-.294q-.645 0-1.183.294-.54.294-.924.903-.378.601-.553 1.491t-.028 1.491q.154.595.574.889.427.287 1.078.287.65 0 1.183-.287.531-.294.91-.889.384-.595.56-1.491m7.239-3.773q.96 0 1.596.238.645.231.924.707.288.476.175 1.197l-1.162.084q.057-.617-.392-.924-.447-.315-1.365-.315-.84 0-1.351.252-.51.252-.616.749a.7.7 0 0 0 .077.49q.126.196.448.35.323.147.938.301.19.056.476.112.966.21 1.519.483.554.273.77.686.225.412.105 1.008a2.3 2.3 0 0 1-.567 1.141q-.426.47-1.169.714-.735.245-1.785.245-1.029 0-1.708-.217-.672-.217-1.022-.707-.35-.496-.35-1.323l1.197-.154q.036.588.315.896.288.301.7.392.42.091 1.057.091.624 0 1.05-.14.434-.147.665-.392.239-.245.294-.546.063-.322-.112-.532-.174-.218-.623-.378-.44-.16-1.33-.35-.833-.182-1.365-.476-.525-.301-.742-.728-.21-.427-.098-.994a2.1 2.1 0 0 1 1.022-1.463q.84-.497 2.429-.497m11.755.168-.21 1.071h-6.72l.21-1.071zm-3.101 7.329q-1.085.007-1.666-.259-.58-.266-.756-.931-.175-.665.056-1.862l1.274-6.531h1.323l-1.26 6.468q-.154.777-.07 1.197.091.42.434.588.344.16 1.008.161.798 0 1.778-.238l-.224 1.155q-.427.126-.917.189a8 8 0 0 1-.98.063m-30.504 24.86 1.988-10.22h1.351l-1.988 10.22zm3.514-4.83q1.4 0 2.149-.609.749-.61.973-1.757.133-.714-.056-1.141-.19-.434-.686-.623t-1.323-.189h-2.03l.217-1.071h2.296q1.631 0 2.443.721.819.714.532 2.226-.217 1.105-.791 1.89t-1.561 1.211q-.98.427-2.38.427h-1.827l.21-1.085zm9.242-1.057h.063l-1.141 5.88h-1.323l1.253-6.426.252.315h-2.219l.203-1.071h3.031zm3.598-.168q-.945 0-1.554.077a4.8 4.8 0 0 0-1.183.294 6.5 6.5 0 0 0-1.267.679l.224-1.162h.392q.72-.61 1.386-.896.664-.294 1.561-.294.377 0 .686.063zm-7.7 4.984h5.782l-.21 1.071h-5.775zm15.989-2.415q-.237 1.204-.847 2.023a3.9 3.9 0 0 1-1.442 1.225 4.1 4.1 0 0 1-1.813.406q-1.014 0-1.75-.441-.728-.44-1.043-1.309-.315-.868-.077-2.093.231-1.204.833-2.03a3.9 3.9 0 0 1 1.456-1.239 4.1 4.1 0 0 1 1.813-.413q1.008 0 1.743.448.743.449 1.05 1.323.315.869.077 2.1m-1.351-.098q.175-.896.021-1.498-.147-.602-.567-.896t-1.071-.294q-.643 0-1.183.294-.538.294-.924.903-.378.601-.553 1.491-.174.89-.028 1.491.154.595.574.889.427.287 1.078.287t1.183-.287q.532-.294.91-.889.386-.595.56-1.491m11.272-6.279a7 7 0 0 0-.784-.154 6 6 0 0 0-.777-.049q-.658 0-1.106.168-.441.16-.749.609t-.469 1.288l-1.554 8.001h-1.33l1.54-7.924q.238-1.226.749-1.953.512-.728 1.26-1.043.756-.322 1.799-.322a6 6 0 0 1 1.645.224zm-8.463 8.792h5.775l-.21 1.071h-5.775zm7.483-5.047h-6.909l.21-1.071h6.902zm3.579 6.118 1.274-6.559.231.42h-2.863l.203-1.05 3.731-.161.147.168-1.4 7.182zm-2.345-1.071h6.426l-.21 1.071h-6.426zm4.494-7.931q-.288 0-.49-.105a.63.63 0 0 1-.287-.315.9.9 0 0 1-.028-.483q.084-.412.399-.651.315-.245.756-.245.433 0 .658.245.224.238.14.651-.078.42-.399.665-.315.238-.749.238m4.187 7.931h6.426l-.21 1.071h-6.426zm2.345 1.071 1.96-10.073.231.413h-2.863l.203-1.05 3.731-.154.147.161-2.086 10.703zm6.554-3.696q.231-1.197.812-2.016a3.76 3.76 0 0 1 1.456-1.232q.868-.413 1.96-.413 1.042 0 1.722.378.685.378.945 1.113.266.735.063 1.778l-.105.539h-5.873l.175-.882h4.928l-.406.301.049-.287q.182-.931-.266-1.393-.449-.462-1.344-.462-1.078 0-1.799.686-.721.68-.973 1.981-.259 1.323.196 2.009.454.68 1.533.679.714 0 1.267-.294a2.4 2.4 0 0 0 .931-.896l1.232.217a4.3 4.3 0 0 1-.903 1.134q-.525.455-1.19.693a4.4 4.4 0 0 1-1.456.231q-1.078 0-1.834-.455a2.46 2.46 0 0 1-1.05-1.33q-.301-.875-.07-2.079"/><path fill="url(#e)" fill-opacity=".4" d="M16 99h437v25H16z"/></g><defs><linearGradient id="a" x1="229" x2="229" y1="123.531" y2="202.741" gradientUnits="userSpaceOnUse"><stop stop-color="#fff"/><stop offset="1"/></linearGradient><linearGradient id="e" x1="16" x2="453" y1="111.5" y2="111.5" gradientUnits="userSpaceOnUse"><stop stop-color="#312e81"/><stop offset="1" stop-color="#1e1b4b"/></linearGradient><filter id="b" width="846.131" height="682.131" x="-194.065" y="-184.362" color-interpolation-filters="sRGB" filterUnits="userSpaceOnUse"><feFlood flood-opacity="0" result="BackgroundImageFix"/><feColorMatrix in="SourceAlpha" result="hardAlpha" values="0 0 0 0 0 0 0 0 0 0 0 0 0 0 0 0 0 0 127 0"/><feOffset dy=".269"/><feGaussianBlur stdDeviation="2.685"/><feColorMatrix values="0 0 0 0 0.0470588 0 0 0 0 0.4 0 0 0 0 0.705882 0 0 0 0.0196802 0"/><feBlend in2="BackgroundImageFix" result="effect1_dropShadow_6005_9290"/><feColorMatrix in="SourceAlpha" result="hardAlpha" values="0 0 0 0 0 0 0 0 0 0 0 0 0 0 0 0 0 0 127 0"/><feOffset dy=".645"/><feGaussianBlur stdDeviation="6.453"/><feColorMatrix values="0 0 0 0 0.0470588 0 0 0 0 0.4 0 0 0 0 0.705882 0 0 0 0.0282725 0"/><feBlend in2="effect1_dropShadow_6005_9290" result="effect2_dropShadow_6005_9290"/><feColorMatrix in="SourceAlpha" result="hardAlpha" values="0 0 0 0 0 0 0 0 0 0 0 0 0 0 0 0 0 0 127 0"/><feOffset dy="1.215"/><feGaussianBlur stdDeviation="12.15"/><feColorMatrix values="0 0 0 0 0.0470588 0 0 0 0 0.4 0 0 0 0 0.705882 0 0 0 0.035 0"/><feBlend in2="effect2_dropShadow_6005_9290" result="effect3_dropShadow_6005_9290"/><feColorMatrix in="SourceAlpha" result="hardAlpha" values="0 0 0 0 0 0 0 0 0 0 0 0 0 0 0 0 0 0 127 0"/><feOffset dy="2.167"/><feGaussianBlur stdDeviation="21.674"/><feColorMatrix values="0 0 0 0 0.0470588 0 0 0 0 0.4 0 0 0 0 0.705882 0 0 0 0.0417275 0"/><feBlend in2="effect3_dropShadow_6005_9290" result="effect4_dropShadow_6005_9290"/><feColorMatrix in="SourceAlpha" result="hardAlpha" values="0 0 0 0 0 0 0 0 0 0 0 0 0 0 0 0 0 0 127 0"/><feOffset dy="4.054"/><feGaussianBlur stdDeviation="40.538"/><feColorMatrix values="0 0 0 0 0.0470588 0 0 0 0 0.4 0 0 0 0 0.705882 0 0 0 0.0503198 0"/><feBlend in2="effect4_dropShadow_6005_9290" result="effect5_dropShadow_6005_9290"/><feColorMatrix in="SourceAlpha" result="hardAlpha" values="0 0 0 0 0 0 0 0 0 0 0 0 0 0 0 0 0 0 127 0"/><feOffset dy="9.703"/><feGaussianBlur stdDeviation="97.033"/><feColorMatrix values="0 0 0 0 0.0470588 0 0 0 0 0.4 0 0 0 0 0.705882 0 0 0 0.07 0"/><feBlend in2="effect5_dropShadow_6005_9290" result="effect6_dropShadow_6005_9290"/><feBlend in="SourceGraphic" in2="effect6_dropShadow_6005_9290" result="shape"/></filter></defs></svg>