<svg xmlns="http://www.w3.org/2000/svg" width="462" height="194" fill="none" viewBox="0 0 462 194"><g filter="url(#a)"><g clip-path="url(#b)"><mask id="d" width="454" height="186" x="4" y="8" maskUnits="userSpaceOnUse" style="mask-type:luminance"><path fill="url(#c)" d="M4 8h454v186H4z"/></mask><g mask="url(#d)"><path fill="#030712" d="M40 8h414.003v200.075H40z"/><path fill="#9ca3af" d="m60.573 30.368-5.302-5.302a.85.85 0 0 1 0-1.243.85.85 0 0 1 1.242 0l4.695 4.667 4.667-4.667a.85.85 0 0 1 1.243 0 .85.85 0 0 1 0 1.243l-5.302 5.302a.85.85 0 0 1-1.243 0M74.448 31V20.818h3.629q1.183 0 1.964.408.785.408 1.173 1.128.388.717.388 1.656 0 .935-.393 1.645-.388.706-1.173 1.1-.78.392-1.964.392h-2.75v-1.322h2.61q.746 0 1.214-.214.473-.214.69-.622.22-.407.22-.98 0-.576-.224-.998a1.44 1.44 0 0 0-.691-.647q-.468-.228-1.228-.228h-1.93V31zm5.026-4.594L81.99 31h-1.75l-2.466-4.594zm7.073 4.748q-1.128 0-1.944-.482a3.27 3.27 0 0 1-1.252-1.367q-.438-.885-.438-2.073 0-1.174.438-2.069a3.4 3.4 0 0 1 1.233-1.397q.795-.502 1.859-.502.645 0 1.253.214.606.213 1.088.671.483.457.761 1.188.279.726.279 1.765v.527h-6.07v-1.113h4.613q0-.587-.239-1.04a1.8 1.8 0 0 0-.67-.72 1.9 1.9 0 0 0-1.005-.264 1.94 1.94 0 0 0-1.094.308 2.07 2.07 0 0 0-.716.796 2.3 2.3 0 0 0-.248 1.059v.87q0 .766.268 1.302.273.538.76.82.488.28 1.14.28.422 0 .77-.12.348-.125.601-.368.255-.244.388-.602l1.407.254a2.55 2.55 0 0 1-.606 1.089 2.94 2.94 0 0 1-1.09.72q-.65.255-1.486.254M91.473 31v-7.636H92.9v1.242h.094q.24-.63.78-.984.543-.358 1.298-.358.765 0 1.283.358.522.358.77.985h.08a2.15 2.15 0 0 1 .87-.975q.597-.368 1.422-.368 1.04 0 1.695.652.662.65.662 1.963V31h-1.487v-4.982q0-.775-.422-1.123a1.54 1.54 0 0 0-1.01-.348q-.726 0-1.128.447-.403.443-.403 1.139V31h-1.481v-5.076q0-.62-.388-1-.388-.377-1.01-.377-.422 0-.78.224-.353.219-.572.611a1.9 1.9 0 0 0-.214.91V31zm15.59.154q-1.074 0-1.875-.492a3.3 3.3 0 0 1-1.243-1.377q-.442-.886-.442-2.068 0-1.189.442-2.078a3.3 3.3 0 0 1 1.243-1.383q.801-.492 1.875-.492t1.874.492 1.243 1.383q.442.889.442 2.078 0 1.183-.442 2.068a3.3 3.3 0 0 1-1.243 1.377q-.801.492-1.874.492m.005-1.248q.696 0 1.153-.368.457-.367.676-.98.224-.61.224-1.346 0-.732-.224-1.343a2.2 2.2 0 0 0-.676-.989q-.457-.373-1.153-.373-.702 0-1.164.373a2.2 2.2 0 0 0-.681.99 4 4 0 0 0-.219 1.342q0 .736.219 1.347.224.611.681.98.462.367 1.164.367m8.778-6.542v1.193h-4.171v-1.193zm-3.052-1.83h1.486v7.224q0 .432.129.651.13.214.333.293.21.075.453.075.179 0 .313-.025.135-.024.209-.04l.268 1.228a2.5 2.5 0 0 1-.368.1 3 3 0 0 1-.596.06 2.6 2.6 0 0 1-1.094-.21 1.9 1.9 0 0 1-.82-.675q-.313-.457-.313-1.149zm7.906 9.62q-1.13 0-1.944-.482a3.27 3.27 0 0 1-1.253-1.367q-.438-.885-.438-2.073 0-1.174.438-2.069a3.4 3.4 0 0 1 1.233-1.397q.795-.502 1.859-.502.647 0 1.253.214.606.213 1.089.671.482.457.761 1.188.278.726.278 1.765v.527h-6.07v-1.113h4.613q0-.587-.238-1.04a1.8 1.8 0 0 0-.672-.72 1.87 1.87 0 0 0-1.004-.264q-.626 0-1.094.308a2.07 2.07 0 0 0-.715.796 2.3 2.3 0 0 0-.249 1.059v.87q0 .766.268 1.302.274.538.761.82.487.28 1.139.28.422 0 .77-.12.348-.125.602-.368.253-.244.388-.602l1.406.254a2.54 2.54 0 0 1-.606 1.089 2.9 2.9 0 0 1-1.089.72q-.651.255-1.486.254"/><rect width="261" height="27" x="64.139" y="40.713" fill="url(#e)" rx="4.713"/><path fill="#9ca3af" d="M84.185 49.716h-.028c-.138-.138-.442-.303-.911-.469-.94-.331-2.348-.58-3.922-.58-1.601 0-3.01.249-3.949.58-.469.166-.773.331-.91.47v2.457c.358.193.855.387 1.49.552.94.221 2.1.36 3.37.36 1.242 0 2.402-.139 3.34-.36a7.8 7.8 0 0 0 1.52-.552zm0 3.922c-.387.138-.774.276-1.216.386-1.049.249-2.32.387-3.645.387-1.353 0-2.623-.138-3.672-.387a10 10 0 0 1-1.188-.386v2.07c.36.194.856.387 1.491.553.94.221 2.1.36 3.37.36 1.242 0 2.402-.139 3.34-.36a7.8 7.8 0 0 0 1.52-.552zm-9.72 5.467v.028c.165.11.441.304.91.47.94.33 2.348.552 3.95.552 1.573 0 2.982-.221 3.92-.553.47-.165.774-.359.912-.469l.028-.028v-1.933c-.387.138-.774.277-1.216.387-1.049.248-2.32.387-3.645.387-1.353 0-2.623-.139-3.672-.387a10 10 0 0 1-1.188-.387zm9.775-.055-.028.028zm-9.831 0c-.028 0 0 0 0 0v.028zm0-9.25c-.028-.028 0-.028 0-.028zh-.028zm9.83-.028v.027h-.027c0-.027 0-.027.028-.027m1.271 9.5c0 1.242-2.79 2.208-6.186 2.208-3.424 0-6.185-.966-6.185-2.209v-9.72c0-1.215 2.761-2.21 6.185-2.21 3.397 0 6.186.995 6.186 2.21z"/><path fill="#6366f1" d="M96.564 62.077v-10.5h1.451v1.238h.125q.129-.24.373-.552a2.1 2.1 0 0 1 .676-.547q.433-.24 1.143-.239.925 0 1.651.467.726.468 1.138 1.348.418.879.418 2.118t-.413 2.123q-.413.88-1.133 1.357a2.94 2.94 0 0 1-1.646.472q-.696 0-1.138-.234a2.2 2.2 0 0 1-.687-.547 4 4 0 0 1-.382-.556h-.09v4.052zm1.456-6.682q0 .805.234 1.412t.676.95q.442.337 1.084.337.666 0 1.114-.353.447-.357.676-.97a3.8 3.8 0 0 0 .233-1.376q0-.756-.228-1.358a2.1 2.1 0 0 0-.676-.95q-.449-.347-1.119-.347-.645 0-1.094.333-.442.333-.67.93-.23.595-.23 1.392m7.184 3.818v-7.636h1.437v1.213h.08q.208-.616.735-.97a2.1 2.1 0 0 1 1.204-.358q.313 0 .561.075.249.074.438.204l-.477 1.242a1.5 1.5 0 0 0-.304-.104 1.5 1.5 0 0 0-.387-.045 1.9 1.9 0 0 0-.925.224 1.7 1.7 0 0 0-.641.607 1.7 1.7 0 0 0-.234.885v4.663zm8.494.154q-1.073 0-1.874-.492a3.3 3.3 0 0 1-1.243-1.377q-.442-.886-.442-2.068 0-1.189.442-2.079a3.3 3.3 0 0 1 1.243-1.382q.8-.492 1.874-.492t1.875.492q.8.493 1.243 1.382.441.89.442 2.078 0 1.185-.442 2.069a3.3 3.3 0 0 1-1.243 1.377q-.801.492-1.875.492m.005-1.248q.696 0 1.154-.368t.676-.98q.224-.61.224-1.346 0-.731-.224-1.343a2.2 2.2 0 0 0-.676-.99q-.458-.372-1.154-.372-.7 0-1.163.373a2.2 2.2 0 0 0-.681.99 4 4 0 0 0-.219 1.342q0 .736.219 1.347.224.61.681.98.462.366 1.163.367m5.214-6.542h1.487v8.133q0 .765-.279 1.293a1.8 1.8 0 0 1-.815.8q-.537.274-1.327.274h-.15q-.074 0-.154-.005v-1.278h.239q.527 0 .761-.283.238-.279.238-.81zm.736-1.179a.94.94 0 0 1-.666-.258.84.84 0 0 1-.274-.627q0-.368.274-.626a.94.94 0 0 1 .666-.264q.388 0 .661.264a.82.82 0 0 1 .279.626q0 .363-.279.627a.93.93 0 0 1-.661.258m6.042 8.969q-1.13 0-1.944-.482a3.27 3.27 0 0 1-1.253-1.367q-.438-.885-.437-2.074 0-1.173.437-2.068a3.4 3.4 0 0 1 1.233-1.397q.795-.502 1.859-.502.647 0 1.253.214.607.213 1.089.671t.761 1.188q.278.727.278 1.765v.527h-6.07v-1.114h4.613q0-.586-.238-1.038a1.8 1.8 0 0 0-.671-.721 1.9 1.9 0 0 0-1.005-.264q-.626 0-1.093.308a2.06 2.06 0 0 0-.716.796 2.3 2.3 0 0 0-.249 1.059v.87q0 .765.269 1.302.273.537.76.82.488.279 1.139.279.422 0 .77-.12.348-.124.602-.367.253-.244.388-.602l1.407.254a2.55 2.55 0 0 1-.607 1.089 2.9 2.9 0 0 1-1.089.72q-.65.254-1.486.254m8.142 0q-1.108 0-1.909-.502a3.33 3.33 0 0 1-1.223-1.397q-.428-.89-.428-2.039 0-1.163.438-2.053a3.35 3.35 0 0 1 1.233-1.397q.795-.502 1.874-.502.87 0 1.551.323.682.318 1.099.895a2.7 2.7 0 0 1 .502 1.347h-1.447a1.72 1.72 0 0 0-.547-.924q-.422-.388-1.133-.388-.621 0-1.089.328-.462.323-.721.925-.258.597-.258 1.412 0 .834.253 1.441.254.607.716.94.468.333 1.099.333.423 0 .766-.154.348-.16.581-.452.239-.294.333-.706h1.447a2.8 2.8 0 0 1-.482 1.322 2.8 2.8 0 0 1-1.079.915q-.671.333-1.576.333m8.291-7.79v1.193h-4.171v-1.194zm-3.052-1.83h1.486v7.224q0 .432.13.651.129.213.333.293.209.075.452.075.179 0 .313-.025l.209-.04.269 1.228a2.9 2.9 0 0 1-.965.16 2.6 2.6 0 0 1-1.094-.21 1.9 1.9 0 0 1-.82-.676q-.313-.456-.313-1.148zm8.936 4.52v1.287h-4.514v-1.288zm2.84-2.69 1.686 2.973 1.7-2.973h1.626l-2.382 3.818 2.402 3.818h-1.626l-1.72-2.854-1.716 2.854h-1.63l2.376-3.818-2.346-3.818z"/><g opacity=".7"><path fill="#1f2937" d="M84.185 75.573h-.028c-.138-.138-.442-.304-.911-.47-.94-.33-2.348-.58-3.922-.58-1.601 0-3.01.25-3.949.58-.469.166-.773.332-.91.47v2.458c.358.193.855.386 1.49.552.94.22 2.1.359 3.37.359 1.242 0 2.402-.138 3.34-.36a7.8 7.8 0 0 0 1.52-.551zm0 3.921c-.387.138-.774.276-1.216.387-1.049.248-2.32.386-3.645.386-1.353 0-2.623-.138-3.672-.386a10 10 0 0 1-1.188-.387v2.071c.36.194.856.387 1.491.553.94.22 2.1.359 3.37.359 1.242 0 2.402-.139 3.34-.36a7.8 7.8 0 0 0 1.52-.552zm-9.72 5.468v.027c.165.11.441.304.91.47.94.331 2.348.552 3.95.552 1.573 0 2.982-.22 3.92-.552.47-.166.774-.36.912-.47l.028-.027v-1.933c-.387.138-.774.276-1.216.386-1.049.249-2.32.387-3.645.387-1.353 0-2.623-.138-3.672-.387a10 10 0 0 1-1.188-.386zm9.775-.055-.028.027zm-9.831 0c-.028 0 0 0 0 0v.027zm0-9.251c-.028-.028 0-.028 0-.028zh-.028zm9.83-.028v.028h-.027c0-.028 0-.028.028-.028m1.271 9.5c0 1.242-2.79 2.209-6.186 2.209-3.424 0-6.185-.967-6.185-2.21v-9.72c0-1.215 2.761-2.209 6.185-2.209 3.397 0 6.186.994 6.186 2.21z"/><path fill="#9ca3af" d="m102.286 79.297-1.347.239a1.6 1.6 0 0 0-.269-.492 1.3 1.3 0 0 0-.487-.383q-.308-.15-.77-.15-.632 0-1.054.284-.423.279-.423.721 0 .382.283.616.284.234.915.383l1.213.279q1.054.243 1.571.75t.517 1.318q0 .686-.398 1.223-.392.532-1.098.835-.702.303-1.626.303-1.283 0-2.093-.546-.81-.552-.994-1.567l1.436-.218q.135.561.552.85.418.283 1.09.283.73 0 1.167-.303.438-.309.438-.75a.78.78 0 0 0-.269-.602q-.262-.244-.81-.368l-1.293-.283q-1.069-.244-1.58-.776-.508-.533-.508-1.347 0-.677.378-1.184t1.044-.79q.666-.288 1.526-.288 1.238 0 1.949.537.712.531.94 1.426m5.348-1.864v1.193h-4.171v-1.193zm-3.052-1.83h1.486v7.224q0 .433.129.651a.68.68 0 0 0 .334.294q.209.075.452.074.179 0 .313-.025l.209-.04.268 1.229a2.9 2.9 0 0 1-.964.16 2.6 2.6 0 0 1-1.094-.21 1.9 1.9 0 0 1-.82-.676q-.313-.457-.313-1.149zm6.919 9.635a3.1 3.1 0 0 1-1.313-.268 2.2 2.2 0 0 1-.929-.79q-.338-.518-.338-1.268 0-.647.248-1.064.25-.419.671-.662.423-.244.945-.367a9 9 0 0 1 1.064-.19l1.114-.129q.428-.054.621-.174.194-.12.194-.387v-.035q0-.65-.368-1.01-.363-.357-1.084-.357-.75 0-1.183.333-.427.328-.592.73l-1.397-.318q.249-.696.726-1.123a2.95 2.95 0 0 1 1.109-.627 4.3 4.3 0 0 1 1.317-.198q.457 0 .97.109.516.105.964.388.453.284.741.81.288.522.288 1.357v5.071h-1.451v-1.044h-.06a2.1 2.1 0 0 1-.433.567q-.288.279-.74.462-.453.184-1.084.184m.323-1.193q.616 0 1.054-.243.443-.244.671-.637.234-.397.234-.85v-.984q-.08.079-.308.149-.224.064-.512.114l-.562.085-.458.06a3.7 3.7 0 0 0-.79.183q-.353.13-.567.373-.209.239-.209.637 0 .551.408.835.408.278 1.039.278m8.627 4.047q-.91 0-1.566-.239-.651-.239-1.064-.631a2.6 2.6 0 0 1-.616-.86l1.277-.527q.135.219.358.462.229.249.617.423.393.174 1.009.174.845 0 1.397-.413.552-.407.552-1.302v-1.502h-.095a3.4 3.4 0 0 1-.387.542 2.1 2.1 0 0 1-.687.517q-.437.219-1.138.219-.905 0-1.631-.423-.72-.427-1.143-1.257-.418-.836-.418-2.054t.413-2.088q.417-.87 1.143-1.332a3 3 0 0 1 1.646-.468q.711 0 1.148.24.438.233.681.546.25.314.383.552h.11v-1.238h1.456v7.805q0 .985-.457 1.616a2.7 2.7 0 0 1-1.238.935q-.775.303-1.75.303m-.015-4.37q.642 0 1.084-.298.448-.303.676-.865.234-.566.234-1.358 0-.77-.229-1.357a2 2 0 0 0-.671-.915q-.443-.333-1.094-.333-.67 0-1.119.348-.447.343-.676.935a3.7 3.7 0 0 0-.223 1.322q0 .75.228 1.318.23.567.676.885.453.318 1.114.318m5.454 1.347v-7.636h1.486v7.636zm.751-8.814a.95.95 0 0 1-.667-.259.84.84 0 0 1-.273-.626q0-.368.273-.627a.94.94 0 0 1 .667-.263q.387 0 .661.263a.83.83 0 0 1 .278.627q0 .363-.278.626a.93.93 0 0 1-.661.259m4.222 4.28v4.534h-1.487v-7.636h1.427v1.243h.095q.263-.607.825-.975.567-.367 1.427-.367.78 0 1.367.328.586.323.91.964.323.642.323 1.586v4.857h-1.487v-4.678q0-.83-.432-1.297-.434-.473-1.188-.473-.518 0-.92.224-.398.225-.632.656-.228.428-.228 1.034m10.082 7.557q-.909 0-1.566-.239-.651-.239-1.064-.631a2.7 2.7 0 0 1-.616-.86l1.277-.527q.135.219.358.462.229.249.617.423.393.174 1.009.174.845 0 1.397-.413.552-.407.552-1.302v-1.502h-.095a3.4 3.4 0 0 1-.387.542 2.1 2.1 0 0 1-.686.517q-.438.219-1.139.219-.905 0-1.631-.423-.72-.427-1.143-1.257-.417-.836-.418-2.054 0-1.218.413-2.088.418-.87 1.143-1.332a3 3 0 0 1 1.646-.468q.711 0 1.148.24.438.233.682.546.248.314.382.552h.11v-1.238h1.456v7.805q0 .985-.457 1.616a2.7 2.7 0 0 1-1.238.935q-.775.303-1.75.303m-.015-4.37q.642 0 1.084-.298.447-.303.676-.865.234-.566.234-1.358 0-.77-.229-1.357a2 2 0 0 0-.671-.915q-.443-.333-1.094-.333-.67 0-1.118.348a2.1 2.1 0 0 0-.677.935 3.7 3.7 0 0 0-.223 1.322q0 .75.228 1.318.229.567.677.885.451.318 1.113.318"/></g><g opacity=".5"><path fill="#1f2937" d="M84.185 97.93h-.028c-.138-.139-.442-.304-.911-.47-.94-.331-2.348-.58-3.922-.58-1.601 0-3.01.249-3.949.58-.469.166-.773.331-.91.47v2.457c.358.193.855.387 1.49.552.94.221 2.1.359 3.37.359 1.242 0 2.402-.138 3.34-.359a7.8 7.8 0 0 0 1.52-.552zm0 3.921c-.387.138-.774.276-1.216.386-1.049.249-2.32.387-3.645.387-1.353 0-2.623-.138-3.672-.387a10 10 0 0 1-1.188-.386v2.071c.36.193.856.386 1.491.552.94.221 2.1.359 3.37.359 1.242 0 2.402-.138 3.34-.359a8 8 0 0 0 1.52-.552zm-9.72 5.467v.028c.165.11.441.304.91.469.94.332 2.348.553 3.95.553 1.573 0 2.982-.221 3.92-.553.47-.165.774-.359.912-.469l.028-.028v-1.933c-.387.138-.774.276-1.216.387-1.049.248-2.32.386-3.645.386-1.353 0-2.623-.138-3.672-.386a10 10 0 0 1-1.188-.387zm9.775-.055-.028.028zm-9.831 0c-.028 0 0 0 0 0v.028zm0-9.25c-.028-.029 0-.029 0-.029zh-.028zm9.83-.029v.028h-.027c0-.028 0-.028.028-.028m1.271 9.5c0 1.243-2.79 2.209-6.186 2.209-3.424 0-6.185-.966-6.185-2.209v-9.72c0-1.215 2.761-2.21 6.185-2.21 3.397 0 6.186.995 6.186 2.21z"/><path fill="#9ca3af" d="M99.422 107.575a2.97 2.97 0 0 1-1.65-.472q-.72-.478-1.134-1.358-.408-.885-.407-2.122 0-1.239.412-2.118.418-.88 1.144-1.348a3 3 0 0 1 1.645-.467q.71 0 1.144.239.437.233.676.546.243.314.378.552h.089v-3.783h1.487v10.182h-1.452v-1.188h-.124q-.135.244-.388.556a2.2 2.2 0 0 1-.686.547q-.438.234-1.134.234m.329-1.268q.64 0 1.083-.338.448-.343.676-.949.234-.607.234-1.412 0-.797-.229-1.392-.228-.597-.671-.93-.442-.333-1.093-.333-.671 0-1.12.348a2.13 2.13 0 0 0-.675.949q-.225.602-.224 1.358 0 .765.229 1.377.229.611.676.969.453.353 1.114.353m8.868 1.273q-1.13 0-1.944-.482a3.27 3.27 0 0 1-1.253-1.368q-.438-.884-.438-2.073 0-1.173.438-2.068a3.4 3.4 0 0 1 1.233-1.397q.795-.502 1.859-.502.647 0 1.253.214.606.213 1.089.671.482.457.76 1.188.279.726.279 1.765v.527h-6.07v-1.114h4.613q0-.586-.238-1.039a1.8 1.8 0 0 0-.672-.721 1.9 1.9 0 0 0-1.004-.263q-.626 0-1.094.308a2.1 2.1 0 0 0-.716.796 2.3 2.3 0 0 0-.248 1.059v.87q0 .765.268 1.302.274.537.761.821.487.278 1.139.278.422 0 .77-.119.348-.125.602-.368.254-.244.387-.602l1.407.254a2.5 2.5 0 0 1-.606 1.088 2.9 2.9 0 0 1-1.089.721q-.652.254-1.486.254m11.239-7.79-2.769 7.636h-1.591l-2.774-7.637h1.596l1.934 5.877h.079l1.929-5.877z"/></g><g opacity=".2"><path fill="#1f2937" d="M84.61 120.286h-.027c-.138-.138-.442-.304-.912-.47-.939-.331-2.347-.58-3.92-.58-1.603 0-3.01.249-3.95.58-.47.166-.773.332-.911.47v2.457c.359.194.856.387 1.491.553.939.221 2.099.359 3.37.359 1.242 0 2.402-.138 3.34-.359a7.8 7.8 0 0 0 1.52-.553zm0 3.921c-.386.138-.773.276-1.215.387-1.05.248-2.32.386-3.645.386-1.353 0-2.623-.138-3.673-.386a10 10 0 0 1-1.187-.387v2.071c.359.193.856.387 1.491.552.939.221 2.099.359 3.37.359 1.242 0 2.402-.138 3.34-.359a7.8 7.8 0 0 0 1.52-.552zm-9.72 5.468v.027c.166.111.442.304.911.47.94.331 2.347.552 3.95.552 1.573 0 2.981-.221 3.92-.552.47-.166.774-.359.912-.47l.027-.027v-1.933c-.386.138-.773.276-1.215.386-1.05.249-2.32.387-3.645.387-1.353 0-2.623-.138-3.673-.387a10 10 0 0 1-1.187-.386zm9.775-.056-.027.028zm-9.83 0c-.028 0 0 0 0 0v.028zm0-9.25c-.028-.028 0-.028 0-.028zh-.028zm9.83-.028v.028h-.027c0-.028 0-.028.027-.028m1.27 9.499c0 1.243-2.788 2.21-6.185 2.21-3.424 0-6.186-.967-6.186-2.21v-9.72c0-1.215 2.762-2.209 6.186-2.209 3.397 0 6.186.994 6.186 2.209z"/><path fill="#9ca3af" d="M99.848 129.931a2.96 2.96 0 0 1-1.65-.472q-.721-.477-1.134-1.357-.408-.885-.408-2.123 0-1.237.413-2.118.418-.88 1.144-1.347a2.97 2.97 0 0 1 1.645-.468q.71 0 1.144.239.437.234.676.547.243.313.378.552h.089V119.6h1.487v10.182h-1.452v-1.188h-.124a4 4 0 0 1-.388.557 2.2 2.2 0 0 1-.686.547q-.438.233-1.134.233m.328-1.267q.642 0 1.084-.338.448-.344.676-.95.234-.606.234-1.412 0-.795-.229-1.392-.228-.597-.671-.93t-1.094-.333q-.67 0-1.118.348a2.13 2.13 0 0 0-.676.95 3.9 3.9 0 0 0-.224 1.357q0 .766.228 1.377.229.612.677.97.452.353 1.113.353m8.868 1.272q-1.128 0-1.944-.482a3.27 3.27 0 0 1-1.252-1.367q-.438-.885-.438-2.073 0-1.174.438-2.068a3.4 3.4 0 0 1 1.233-1.397q.795-.503 1.859-.503.646 0 1.253.214t1.089.671.76 1.189q.279.725.279 1.764v.527h-6.071v-1.113h4.614q0-.587-.239-1.039a1.8 1.8 0 0 0-.671-.721 1.87 1.87 0 0 0-1.004-.264q-.626 0-1.094.309a2.07 2.07 0 0 0-.716.795 2.3 2.3 0 0 0-.248 1.059v.87q0 .766.268 1.303.273.537.761.82.487.279 1.138.278.423 0 .771-.119.348-.124.601-.368.254-.243.388-.601l1.407.253a2.55 2.55 0 0 1-.606 1.089 3 3 0 0 1-1.089.721q-.651.253-1.487.253m4.926 2.71v-10.5h1.452v1.238h.124q.129-.239.373-.552.243-.313.676-.547.433-.239 1.143-.239a3 3 0 0 1 1.651.468q.725.467 1.139 1.347.417.88.417 2.118t-.413 2.123q-.412.88-1.133 1.357a2.94 2.94 0 0 1-1.646.472q-.696 0-1.138-.233a2.2 2.2 0 0 1-.686-.547 4 4 0 0 1-.383-.557h-.09v4.052zm1.457-6.682q0 .806.233 1.412.234.606.676.95.443.338 1.084.338.666 0 1.114-.353.448-.358.676-.97.234-.611.234-1.377 0-.756-.229-1.357a2.1 2.1 0 0 0-.676-.95q-.447-.348-1.119-.348-.646 0-1.093.333-.442.333-.672.93-.228.597-.228 1.392m8.67-6.364v10.182h-1.486V119.6zm5.217 10.336q-1.074 0-1.875-.492a3.3 3.3 0 0 1-1.243-1.377q-.442-.885-.442-2.068 0-1.188.442-2.078a3.3 3.3 0 0 1 1.243-1.382q.801-.493 1.875-.493t1.874.493 1.243 1.382q.442.89.442 2.078 0 1.183-.442 2.068a3.3 3.3 0 0 1-1.243 1.377q-.801.492-1.874.492m.005-1.248q.696 0 1.153-.367a2.16 2.16 0 0 0 .676-.98q.224-.611.224-1.347a3.9 3.9 0 0 0-.224-1.342 2.2 2.2 0 0 0-.676-.99q-.457-.373-1.153-.373-.702 0-1.164.373a2.2 2.2 0 0 0-.681.99 4 4 0 0 0-.219 1.342q0 .736.219 1.347.224.611.681.98.462.367 1.164.367m5.893 3.958q-.333 0-.606-.055a2 2 0 0 1-.408-.109l.358-1.218q.408.11.726.094a.87.87 0 0 0 .562-.238q.248-.225.437-.731l.184-.507-2.794-7.736h1.591l1.934 5.926h.08l1.934-5.926h1.595l-3.147 8.655a3.4 3.4 0 0 1-.556 1.01 2.2 2.2 0 0 1-.806.626 2.6 2.6 0 0 1-1.084.209"/></g><g opacity=".47"><path fill="#9ca3af" d="m60.573 151.506-5.302-5.302a.85.85 0 0 1 0-1.242.85.85 0 0 1 1.242 0l4.695 4.667 4.667-4.667a.85.85 0 0 1 1.243 0 .85.85 0 0 1 0 1.242l-5.302 5.302a.85.85 0 0 1-1.243 0m13.875.633v-10.182h1.536v8.859h4.614v1.323zm11 .154q-1.075 0-1.875-.492a3.33 3.33 0 0 1-1.243-1.378q-.442-.884-.442-2.068 0-1.188.442-2.078a3.3 3.3 0 0 1 1.243-1.382q.8-.492 1.874-.492t1.875.492 1.242 1.382q.444.89.443 2.078 0 1.184-.443 2.068a3.33 3.33 0 0 1-1.242 1.378q-.801.492-1.875.492m.004-1.248q.696 0 1.154-.368t.676-.979a3.9 3.9 0 0 0 .224-1.348q0-.73-.224-1.342a2.2 2.2 0 0 0-.676-.989q-.458-.373-1.154-.373-.7 0-1.163.373a2.2 2.2 0 0 0-.681.989 4 4 0 0 0-.219 1.342q0 .736.219 1.348.224.611.681.979.462.368 1.163.368m8.43 1.248q-1.108 0-1.908-.502a3.33 3.33 0 0 1-1.223-1.397q-.428-.89-.428-2.039 0-1.163.438-2.053a3.35 3.35 0 0 1 1.233-1.397q.795-.502 1.874-.502.87 0 1.551.323.68.318 1.099.895a2.7 2.7 0 0 1 .502 1.347h-1.447a1.73 1.73 0 0 0-.547-.924q-.423-.388-1.133-.388-.622 0-1.089.328-.463.323-.72.925-.26.596-.26 1.411 0 .836.254 1.442.255.607.716.94.468.333 1.099.333.423 0 .766-.154.347-.159.581-.453.24-.292.333-.706h1.447a2.8 2.8 0 0 1-.482 1.323 2.8 2.8 0 0 1-1.08.915q-.67.333-1.575.333m6.95.015q-.726 0-1.313-.269a2.2 2.2 0 0 1-.93-.79q-.337-.518-.337-1.268 0-.647.248-1.064.25-.417.671-.661.423-.244.945-.368a9 9 0 0 1 1.064-.189l1.114-.129q.427-.055.621-.174.194-.12.194-.388v-.035q0-.65-.368-1.009-.363-.358-1.084-.358-.75 0-1.183.333-.427.328-.592.731l-1.397-.318q.249-.696.726-1.124a2.9 2.9 0 0 1 1.109-.626 4.3 4.3 0 0 1 1.317-.199q.457 0 .97.109.516.105.964.388.453.283.741.81.288.522.288 1.358v5.071h-1.451v-1.044h-.06q-.144.288-.432.566-.29.279-.741.463-.453.184-1.084.184m.323-1.193q.616 0 1.054-.244.443-.244.671-.636.234-.399.234-.851v-.984q-.08.08-.308.149a5 5 0 0 1-.512.115l-.562.084-.458.06a3.6 3.6 0 0 0-.79.184q-.353.129-.567.373-.209.239-.209.636 0 .552.408.835.408.279 1.039.279m6.912-9.158v10.182h-1.487v-10.182z"/><path fill="#1f2937" d="M84.036 167.355h-.028c-.138-.138-.441-.304-.91-.469-.94-.332-2.348-.58-3.922-.58-1.602 0-3.01.248-3.949.58-.47.165-.773.331-.911.469v2.458c.359.193.856.386 1.49.552.94.221 2.1.359 3.37.359 1.242 0 2.402-.138 3.341-.359a8 8 0 0 0 1.519-.552zm0 3.921c-.387.138-.773.277-1.215.387-1.05.248-2.32.387-3.645.387-1.353 0-2.624-.139-3.673-.387a10 10 0 0 1-1.187-.387v2.071c.359.194.856.387 1.49.553.94.221 2.1.359 3.37.359 1.242 0 2.402-.138 3.341-.359a7.8 7.8 0 0 0 1.519-.553zm-9.72 5.468v.028c.165.11.442.303.911.469.939.331 2.347.552 3.949.552 1.574 0 2.982-.221 3.921-.552.47-.166.773-.359.911-.469l.028-.028v-1.933c-.387.138-.773.276-1.215.387-1.05.248-2.32.386-3.645.386-1.353 0-2.624-.138-3.673-.386a10 10 0 0 1-1.187-.387zm9.775-.055-.027.027zm-9.83 0c-.028 0 0 0 0 0v.027zm0-9.251c-.028-.028 0-.028 0-.028zh-.028zm9.83-.028v.028h-.027c0-.028 0-.028.027-.028m1.27 9.5c0 1.242-2.788 2.209-6.185 2.209-3.424 0-6.186-.967-6.186-2.209v-9.721c0-1.215 2.762-2.209 6.186-2.209 3.397 0 6.186.994 6.186 2.209z"/><path fill="#9ca3af" d="M99.632 177.006q-1.11 0-1.91-.502a3.33 3.33 0 0 1-1.222-1.397q-.428-.89-.428-2.039 0-1.163.438-2.053a3.35 3.35 0 0 1 1.233-1.397q.795-.502 1.874-.502.87 0 1.551.323.68.318 1.099.895.423.576.502 1.347h-1.447a1.73 1.73 0 0 0-.547-.925q-.422-.387-1.133-.387-.621 0-1.089.328-.462.322-.72.924-.26.597-.26 1.412 0 .836.254 1.442t.716.94q.468.333 1.099.333.423 0 .765-.154.349-.159.582-.453a1.7 1.7 0 0 0 .333-.706h1.447a2.8 2.8 0 0 1-.482 1.323 2.8 2.8 0 0 1-1.079.915q-.672.333-1.576.333m6.213-4.689v4.535h-1.486V166.67h1.466v3.788h.095q.268-.616.82-.979t1.442-.363q.785 0 1.372.323.591.323.915.964.328.637.328 1.591v4.858h-1.487v-4.679q0-.84-.432-1.302-.433-.468-1.203-.468-.527 0-.945.224a1.6 1.6 0 0 0-.651.656q-.234.428-.234 1.034m10.227 4.689q-1.13 0-1.944-.483a3.27 3.27 0 0 1-1.253-1.367q-.437-.885-.437-2.073 0-1.173.437-2.068a3.4 3.4 0 0 1 1.233-1.397q.795-.502 1.859-.502.647 0 1.253.214.607.213 1.089.671t.761 1.188q.278.726.278 1.765v.527h-6.07v-1.114h4.613q0-.586-.238-1.039a1.8 1.8 0 0 0-.671-.721 1.9 1.9 0 0 0-1.005-.263q-.626 0-1.093.308a2.06 2.06 0 0 0-.716.795 2.3 2.3 0 0 0-.249 1.059v.87q0 .766.269 1.303.273.537.76.82.487.279 1.139.279.422 0 .77-.12.348-.123.602-.368.253-.243.388-.601l1.407.253a2.54 2.54 0 0 1-.607 1.089 2.9 2.9 0 0 1-1.089.721q-.65.254-1.486.254m8.142 0q-1.109 0-1.909-.502a3.33 3.33 0 0 1-1.223-1.397q-.428-.89-.428-2.039 0-1.163.438-2.053a3.34 3.34 0 0 1 1.233-1.397q.795-.502 1.874-.502.87 0 1.551.323.68.318 1.099.895.423.576.502 1.347h-1.447a1.73 1.73 0 0 0-.547-.925q-.422-.387-1.133-.387-.621 0-1.089.328-.462.322-.721.924-.258.597-.258 1.412 0 .836.253 1.442.254.606.716.94.468.333 1.099.333.423 0 .766-.154a1.56 1.56 0 0 0 .581-.453 1.7 1.7 0 0 0 .333-.706h1.447a2.8 2.8 0 0 1-.482 1.323 2.8 2.8 0 0 1-1.079.915q-.671.333-1.576.333m6.094-2.745-.01-1.814h.258l3.043-3.232h1.78l-3.47 3.679h-.234zm-1.367 2.591V166.67h1.486v10.182zm4.822 0-2.734-3.63 1.024-1.039 3.535 4.669zm6.95-4.947v1.287h-4.514v-1.287zm1.982 4.947v-7.637h1.426v1.243h.095a1.97 1.97 0 0 1 .78-.984q.542-.358 1.298-.358.765 0 1.283.358.522.357.77.984h.08q.273-.612.87-.974.597-.368 1.422-.368 1.039 0 1.695.651.661.651.661 1.964v5.121h-1.486v-4.982q0-.776-.423-1.124a1.54 1.54 0 0 0-1.009-.348q-.726 0-1.129.448-.402.442-.402 1.138v4.868h-1.482v-5.076q0-.622-.388-1t-1.009-.378q-.423 0-.78.224a1.64 1.64 0 0 0-.572.612 1.9 1.9 0 0 0-.214.909v4.709zm12.373 0v-7.637h1.486v7.637zm.75-8.815a.94.94 0 0 1-.666-.259.84.84 0 0 1-.273-.626.83.83 0 0 1 .273-.626.94.94 0 0 1 .666-.264.92.92 0 0 1 .662.264.82.82 0 0 1 .278.626.83.83 0 0 1-.278.626.93.93 0 0 1-.662.259m5.938 11.837q-.91 0-1.566-.238-.652-.239-1.064-.632a2.7 2.7 0 0 1-.617-.86l1.278-.527q.134.219.358.463.228.248.616.422.393.174 1.01.174.845 0 1.397-.413.551-.406.551-1.302v-1.501h-.094a3.3 3.3 0 0 1-.388.541 2.1 2.1 0 0 1-.686.517q-.438.219-1.138.219a3.2 3.2 0 0 1-1.631-.422q-.721-.428-1.144-1.258-.417-.835-.417-2.053t.413-2.089q.417-.87 1.143-1.332a3 3 0 0 1 1.646-.467q.71 0 1.148.238.438.234.681.547a4.4 4.4 0 0 1 .383.552h.109v-1.238h1.457v7.806q0 .984-.457 1.615a2.7 2.7 0 0 1-1.238.935q-.776.303-1.75.303m-.015-4.37q.641 0 1.084-.298.447-.304.676-.865.233-.567.233-1.357 0-.77-.228-1.358-.23-.587-.671-.914-.443-.333-1.094-.333-.672 0-1.119.348-.447.343-.676.934a3.7 3.7 0 0 0-.224 1.323q0 .75.229 1.317.228.567.676.885.453.318 1.114.318m5.454 1.348v-7.637h1.436v1.213h.08a1.84 1.84 0 0 1 .736-.969 2.1 2.1 0 0 1 1.203-.358q.313 0 .562.074.248.075.437.204l-.477 1.243a1.5 1.5 0 0 0-.303-.104 1.5 1.5 0 0 0-.388-.045q-.517 0-.925.224a1.7 1.7 0 0 0-.641.606 1.7 1.7 0 0 0-.234.885v4.664zm7.704.169q-.726 0-1.312-.269a2.2 2.2 0 0 1-.93-.79q-.338-.518-.338-1.268 0-.647.249-1.064.248-.417.671-.661a3.5 3.5 0 0 1 .944-.368 9 9 0 0 1 1.064-.189l1.114-.129q.428-.056.621-.174.195-.12.194-.388v-.035q0-.651-.368-1.009-.363-.358-1.083-.358-.751 0-1.184.333-.427.328-.591.731l-1.397-.318q.248-.696.726-1.124a2.9 2.9 0 0 1 1.108-.626 4.3 4.3 0 0 1 1.318-.199q.458 0 .969.109.517.105.965.388.452.284.74.81.29.522.289 1.358v5.071h-1.452v-1.044h-.06q-.144.288-.432.566-.288.279-.741.463-.452.184-1.084.184m.323-1.194q.617 0 1.054-.243.442-.244.672-.637.233-.397.233-.85v-.984q-.079.08-.308.149-.224.065-.512.114l-.562.085-.457.06a3.6 3.6 0 0 0-.791.184q-.353.129-.566.372-.21.24-.209.637 0 .552.407.835.409.279 1.039.278m8.99-6.612v1.193h-4.171v-1.193zm-3.052-1.829h1.486v7.223q0 .433.13.652.129.213.333.293.209.075.452.075.179 0 .313-.025l.209-.04.269 1.228a2.5 2.5 0 0 1-.368.099 3 3 0 0 1-.597.06 2.6 2.6 0 0 1-1.094-.209 1.9 1.9 0 0 1-.82-.676q-.313-.458-.313-1.148zm4.697 9.466v-7.637h1.486v7.637zm.75-8.815a.94.94 0 0 1-.666-.259.84.84 0 0 1-.273-.626.83.83 0 0 1 .273-.626.94.94 0 0 1 .666-.264.92.92 0 0 1 .662.264.82.82 0 0 1 .278.626.83.83 0 0 1-.278.626.93.93 0 0 1-.662.259m5.953 8.969q-1.074 0-1.875-.493a3.3 3.3 0 0 1-1.243-1.377q-.442-.885-.442-2.068 0-1.188.442-2.078a3.3 3.3 0 0 1 1.243-1.382q.801-.492 1.875-.492t1.874.492a3.3 3.3 0 0 1 1.243 1.382q.442.89.442 2.078 0 1.183-.442 2.068a3.3 3.3 0 0 1-1.243 1.377q-.8.493-1.874.493m.005-1.248q.696 0 1.153-.368t.676-.979q.224-.612.224-1.348 0-.73-.224-1.342a2.2 2.2 0 0 0-.676-.989q-.457-.373-1.153-.373-.701 0-1.164.373a2.2 2.2 0 0 0-.681.989 4 4 0 0 0-.219 1.342q0 .736.219 1.348.223.611.681.979.463.368 1.164.368m6.7-3.441v4.535h-1.486v-7.637h1.426v1.243h.095q.264-.606.825-.974.567-.368 1.427-.368.78 0 1.367.328.587.323.91.964.323.642.323 1.586v4.858h-1.486v-4.679q0-.83-.433-1.297-.432-.473-1.188-.473-.517 0-.92.224a1.6 1.6 0 0 0-.631.656q-.23.428-.229 1.034m12.603-1.237-1.347.238a1.6 1.6 0 0 0-.269-.492 1.3 1.3 0 0 0-.487-.383q-.308-.149-.771-.149-.63 0-1.053.283-.423.279-.423.721a.76.76 0 0 0 .283.617q.284.233.915.383l1.213.278q1.054.243 1.571.751.517.507.517 1.317 0 .687-.398 1.223-.392.532-1.098.835-.701.304-1.626.304-1.283 0-2.093-.547-.81-.552-.994-1.566l1.436-.219q.135.562.552.85.418.284 1.089.284.731 0 1.168-.304.438-.308.438-.75a.78.78 0 0 0-.269-.602q-.263-.243-.81-.368l-1.293-.283q-1.068-.244-1.58-.776-.508-.532-.508-1.347 0-.676.378-1.183t1.044-.791q.666-.288 1.527-.288 1.237 0 1.948.537.712.531.94 1.427"/><path fill="#1f2937" d="M84.036 193.579h-.028c-.138-.138-.441-.304-.91-.469-.94-.332-2.348-.58-3.922-.58-1.602 0-3.01.248-3.949.58-.47.165-.773.331-.911.469v2.458c.359.193.856.386 1.49.552.94.221 2.1.359 3.37.359 1.242 0 2.402-.138 3.341-.359a8 8 0 0 0 1.519-.552zm0 3.921c-.387.138-.773.276-1.215.387-1.05.248-2.32.386-3.645.386-1.353 0-2.624-.138-3.673-.386a10 10 0 0 1-1.187-.387v2.071c.359.194.856.387 1.49.553.94.221 2.1.359 3.37.359 1.242 0 2.402-.138 3.341-.359a7.8 7.8 0 0 0 1.519-.553zm-9.72 5.468v.028c.165.11.442.303.911.469.939.331 2.347.552 3.949.552 1.574 0 2.982-.221 3.921-.552.47-.166.773-.359.911-.469l.028-.028v-1.933c-.387.138-.773.276-1.215.387-1.05.248-2.32.386-3.645.386-1.353 0-2.624-.138-3.673-.386a10 10 0 0 1-1.187-.387zm9.775-.055-.027.027zm-9.83 0c-.028 0 0 0 0 0v.027zm0-9.251c-.028-.028 0-.028 0-.028zh-.028zm9.83-.028v.028h-.027c0-.028 0-.028.027-.028m1.27 9.5c0 1.242-2.788 2.209-6.185 2.209-3.424 0-6.186-.967-6.186-2.209v-9.721c0-1.215 2.762-2.209 6.186-2.209 3.397 0 6.186.994 6.186 2.209z"/><path fill="#9ca3af" d="M97.902 192.894v10.181h-1.487v-10.181zm5.216 10.336q-1.073 0-1.874-.493a3.3 3.3 0 0 1-1.243-1.377q-.442-.885-.442-2.068 0-1.188.442-2.078a3.3 3.3 0 0 1 1.243-1.382q.8-.492 1.874-.492t1.875.492q.8.492 1.242 1.382.443.89.443 2.078 0 1.183-.443 2.068a3.3 3.3 0 0 1-1.242 1.377q-.801.492-1.875.493m.005-1.248q.696 0 1.154-.368t.676-.98q.223-.61.223-1.347a3.9 3.9 0 0 0-.223-1.342 2.2 2.2 0 0 0-.676-.99q-.458-.372-1.154-.372-.7 0-1.163.372a2.2 2.2 0 0 0-.681.99 4 4 0 0 0-.219 1.342q0 .737.219 1.347.224.612.681.98.462.368 1.163.368m8.431 1.248q-1.109 0-1.909-.503a3.3 3.3 0 0 1-1.223-1.397q-.428-.89-.428-2.038 0-1.164.438-2.053a3.34 3.34 0 0 1 1.233-1.397q.795-.502 1.874-.502.87 0 1.551.323.68.318 1.099.895.422.576.502 1.347h-1.447a1.73 1.73 0 0 0-.547-.925q-.422-.388-1.133-.388-.622 0-1.089.329-.463.322-.721.924-.258.597-.258 1.412 0 .836.253 1.442.254.606.716.94.468.333 1.099.333.422 0 .765-.154.348-.159.582-.453a1.7 1.7 0 0 0 .333-.706h1.447a2.8 2.8 0 0 1-.482 1.323 2.8 2.8 0 0 1-1.079.914q-.672.334-1.576.334m6.949.014a3.1 3.1 0 0 1-1.313-.268 2.2 2.2 0 0 1-.929-.79q-.338-.518-.338-1.268 0-.647.248-1.064.25-.418.671-.661.423-.244.945-.368a9 9 0 0 1 1.064-.189l1.113-.129q.429-.055.622-.174.194-.12.194-.388v-.035q0-.651-.368-1.009-.363-.358-1.084-.358-.75 0-1.183.333-.427.328-.592.731l-1.397-.318q.249-.697.726-1.124a2.95 2.95 0 0 1 1.109-.626 4.3 4.3 0 0 1 1.317-.199q.457 0 .97.109.516.105.964.388.453.284.741.81.288.522.288 1.357v5.071h-1.451v-1.044h-.06a2.1 2.1 0 0 1-.433.567q-.288.279-.74.463-.453.183-1.084.183m.323-1.193q.616 0 1.054-.243.443-.244.671-.637.234-.397.234-.85v-.984q-.08.08-.308.149a5 5 0 0 1-.513.114l-.561.085-.458.059a3.7 3.7 0 0 0-.79.184 1.4 1.4 0 0 0-.567.373q-.209.239-.209.637 0 .552.408.835.408.278 1.039.278m6.912-9.157v10.181h-1.487v-10.181zm6.499 5.235v1.287h-4.514v-1.287zm4.84 5.096a2.96 2.96 0 0 1-1.651-.473q-.72-.477-1.133-1.357-.408-.885-.408-2.123t.413-2.118q.417-.879 1.143-1.347a2.97 2.97 0 0 1 1.646-.467q.711 0 1.143.238.438.234.676.547.245.313.378.552h.09v-3.783h1.486v10.181h-1.452v-1.188h-.124a4 4 0 0 1-.388.557 2.1 2.1 0 0 1-.686.547q-.437.234-1.133.234m.328-1.268q.641 0 1.084-.338.447-.343.676-.95.233-.606.233-1.412 0-.795-.228-1.392-.229-.596-.671-.929t-1.094-.334q-.671 0-1.119.348a2.13 2.13 0 0 0-.676.95 3.9 3.9 0 0 0-.224 1.357q0 .767.229 1.377a2.2 2.2 0 0 0 .676.97q.453.353 1.114.353m8.868 1.273q-1.128 0-1.944-.483a3.27 3.27 0 0 1-1.253-1.367q-.437-.885-.437-2.073 0-1.174.437-2.068a3.4 3.4 0 0 1 1.233-1.397q.795-.502 1.86-.502.645 0 1.252.213.608.214 1.089.672.482.458.761 1.188.278.726.278 1.765v.527h-6.07v-1.114h4.614q0-.586-.239-1.039a1.8 1.8 0 0 0-.671-.721 1.87 1.87 0 0 0-1.005-.263q-.626 0-1.093.308a2.06 2.06 0 0 0-.716.795 2.3 2.3 0 0 0-.249 1.059v.87q0 .766.269 1.303.273.537.76.82.488.279 1.139.279.423 0 .77-.12a1.7 1.7 0 0 0 .602-.368q.253-.244.388-.601l1.407.253a2.54 2.54 0 0 1-.607 1.089 2.9 2.9 0 0 1-1.089.721q-.65.254-1.486.254m11.239-7.791-2.769 7.636h-1.591l-2.774-7.636h1.596l1.934 5.876h.08l1.929-5.876z"/></g><foreignObject width="81" height="325.25" x="-18.5" y="-14.5"><div xmlns="http://www.w3.org/1999/xhtml" style="backdrop-filter:blur(11.25px);clip-path:url(#f);height:100%;width:100%"/></foreignObject><g data-figma-bg-blur-radius="22.5"><path fill="#0a101d" d="M4 12a4 4 0 0 1 4-4h32v276a4 4 0 0 1-4 4H8a4 4 0 0 1-4-4z"/><path fill="#4b5563" d="M4 8.5h1.5v36H4z"/><g clip-path="url(#g)"><path fill="#f9fafb" fill-rule="evenodd" d="M15.74 28.787a.79.79 0 0 0 .006.9l3.45 4.969c.224.322.656.469 1.056.36l9.955-2.727c.543-.149.816-.702.579-1.172l-6.4-12.673c-.312-.618-1.252-.67-1.642-.089zm8.476-7.446c-.136-.288-.596-.243-.664.064L21.09 32.604c-.052.236.19.438.443.369l6.878-1.875c.2-.054.304-.257.22-.432z" clip-rule="evenodd"/></g><path fill="#4b5563" d="M24.28 65.56q-.84.72-1.86 1.08t-2.1.36q-1.68 0-3.12-.84t-2.28-2.22q-.78-1.44-.78-3.12t.78-3.12q.84-1.44 2.28-2.22 1.44-.84 3.12-.84t3.06.84q1.44.78 2.28 2.22t.84 3.12q0 1.08-.36 2.1t-1.08 1.86l3.54 3.48q.12.18.12.42t-.18.42q-.12.12-.36.12a.74.74 0 0 1-.42-.12zm1.08-4.74q0-1.38-.66-2.52-.66-1.2-1.86-1.86-1.14-.66-2.52-.66-1.38-.06-2.58.66-1.14.66-1.86 1.86-.66 1.14-.66 2.52.06 1.38.72 2.58.66 1.14 1.8 1.8 1.2.66 2.58.66t2.52-.66a4.74 4.74 0 0 0 1.86-1.8q.66-1.2.66-2.58m3.42 34.86h-.06q0 1.02-.66 1.8-.6.78-1.62.96-.18 1.02-.96 1.68-.78.6-1.8.6h-3.36q-.6 0-1.02.36t-.6.9q.96.18 1.56.96t.6 1.74q0 1.14-.84 1.98-.78.84-1.98.84-1.14 0-1.98-.84-.78-.84-.78-1.98 0-1.02.6-1.8.66-.78 1.62-.96v-6.84q-.96-.18-1.62-.96t-.6-1.8q0-1.2.78-1.98.84-.84 1.98-.84 1.2 0 1.98.84.84.78.84 1.98 0 1.02-.66 1.8-.6.78-1.56.96v5.1q.72-.54 1.68-.54h3.36q.6 0 1.02-.36t.6-.84q-.96-.24-1.56-.96-.6-.78-.6-1.8 0-1.14.78-1.98.84-.84 1.98-.84 1.2 0 2.04.84t.84 1.98m-12.42-3.36q0 .72.48 1.2.54.48 1.2.48.72 0 1.2-.48.54-.48.54-1.2t-.54-1.2q-.48-.48-1.2-.48-.66 0-1.2.48-.48.48-.48 1.2m3.42 12.36q0-.72-.54-1.2-.48-.48-1.2-.48-.66 0-1.2.48-.48.48-.48 1.2t.48 1.2q.54.48 1.2.48.72 0 1.2-.48.54-.48.54-1.2m6.18-7.32q.66 0 1.14-.48.54-.48.54-1.2t-.54-1.2q-.48-.48-1.2-.48-.66 0-1.14.48t-.54 1.2q0 .72.48 1.2.54.48 1.26.48"/></g></g></g></g><defs><clipPath id="f" transform="translate(18.5 14.5)"><path d="M4 12a4 4 0 0 1 4-4h32v276a4 4 0 0 1-4 4H8a4 4 0 0 1-4-4z"/></clipPath><clipPath id="b"><rect width="454" height="186" x="4" y="8" fill="#fff" rx="4"/></clipPath><clipPath id="g"><path fill="#fff" d="M13.998 17.499h18.003v18.003H13.998z"/></clipPath><linearGradient id="c" x1="231" x2="231" y1="114.868" y2="183.395" gradientUnits="userSpaceOnUse"><stop stop-color="#fff"/><stop offset="1"/></linearGradient><linearGradient id="e" x1="64.139" x2="521.5" y1="54.213" y2="54.213" gradientUnits="userSpaceOnUse"><stop stop-color="#111827"/><stop offset="1" stop-color="#030712" stop-opacity="0"/></linearGradient><filter id="a" width="462" height="194" x="0" y="0" color-interpolation-filters="sRGB" filterUnits="userSpaceOnUse"><feFlood flood-opacity="0" result="BackgroundImageFix"/><feColorMatrix in="SourceAlpha" result="hardAlpha" values="0 0 0 0 0 0 0 0 0 0 0 0 0 0 0 0 0 0 127 0"/><feOffset dy="-4"/><feGaussianBlur stdDeviation="2"/><feComposite in2="hardAlpha" operator="out"/><feColorMatrix values="0 0 0 0 0.0890738 0 0 0 0 0.0890738 0 0 0 0 0.0890738 0 0 0 1 0"/><feBlend in2="BackgroundImageFix" result="effect1_dropShadow_6004_10573"/><feBlend in="SourceGraphic" in2="effect1_dropShadow_6004_10573" result="shape"/></filter></defs></svg>