<svg xmlns="http://www.w3.org/2000/svg" width="480" height="203" fill="none" viewBox="0 0 480 203"><rect width="479.304" height="173.304" x=".348" y="29.348" fill="#030712" stroke="#111827" stroke-width=".696" rx="6.634"/><path fill="#4b5563" d="M42.799 180.063q0 .657-.165 1.1-.162.442-.469.659t-.736.218q-.429 0-.735-.218-.306-.217-.472-.659-.162-.443-.162-1.1 0-.667.162-1.108.165-.44.47-.652.306-.214.737-.214.432 0 .736.214.306.213.469.652.165.44.165 1.108m-.537 0q0-.555-.094-.89t-.278-.482a.7.7 0 0 0-.46-.149.7.7 0 0 0-.459.149q-.183.147-.28.482-.094.335-.094.89t.094.89q.097.336.28.484a.7.7 0 0 0 .459.15q.277 0 .46-.15.184-.148.278-.484t.094-.89m-.833.414a.25.25 0 0 0 .218-.105.5.5 0 0 0 .076-.301.6.6 0 0 0-.034-.22.3.3 0 0 0-.1-.139.27.27 0 0 0-.16-.047.25.25 0 0 0-.214.107.5.5 0 0 0-.076.299q0 .128.034.22a.3.3 0 0 0 .097.138.26.26 0 0 0 .16.048m2.161-1.587a.7.7 0 0 0 .327-.102q.19-.102.34-.272a.85.85 0 0 0 .2-.362h.382a1.3 1.3 0 0 1-.23.597q-.196.285-.477.464a1 1 0 0 1-.542.175zm.867 3.087v-3.823h.508v3.823zm-.961-.43h2.456v.43h-2.456zm52.136-1.484q0 .657-.165 1.1-.162.442-.469.659t-.736.218q-.429 0-.735-.218-.306-.217-.472-.659-.162-.443-.162-1.1 0-.667.162-1.108.165-.44.47-.652.306-.214.737-.214.433 0 .736.214.306.213.469.652.165.44.165 1.108m-.537 0q0-.555-.094-.89t-.278-.482a.7.7 0 0 0-.46-.149.7.7 0 0 0-.459.149q-.183.147-.28.482-.094.335-.094.89t.094.89q.097.336.28.484a.7.7 0 0 0 .458.15q.279 0 .461-.15.184-.148.278-.484t.094-.89m-.833.414a.25.25 0 0 0 .218-.105.5.5 0 0 0 .076-.301.6.6 0 0 0-.034-.22.3.3 0 0 0-.1-.139.27.27 0 0 0-.16-.047.25.25 0 0 0-.214.107.5.5 0 0 0-.076.299q0 .128.034.22a.3.3 0 0 0 .097.138.26.26 0 0 0 .16.048m3.148-2.386q.372 0 .642.113a.86.86 0 0 1 .419.343q.149.23.149.581 0 .354-.131.602a1.25 1.25 0 0 1-.32.401 4 4 0 0 1-.479.319l-.13.076-.176.102q-.267.165-.414.309a.85.85 0 0 0-.207.312q-.06.17-.052.408l-.11-.11h2.152v.43h-2.529v-.43q0-.3.12-.544.12-.246.349-.45.23-.205.618-.425.278-.16.434-.275a.9.9 0 0 0 .26-.29.8.8 0 0 0 .104-.43q0-.317-.173-.468-.172-.152-.505-.152a.9.9 0 0 0-.366.068.52.52 0 0 0-.239.212.9.9 0 0 0-.115.382l-.487-.044q.01-.361.165-.592a.9.9 0 0 1 .416-.34q.263-.108.605-.108m52.655 1.972q0 .657-.165 1.1-.162.442-.469.659a1.24 1.24 0 0 1-.735.218q-.43 0-.736-.218-.306-.217-.471-.659-.162-.443-.163-1.1 0-.667.163-1.108.165-.44.468-.652.307-.214.739-.214t.735.214q.307.213.469.652.165.44.165 1.108m-.537 0q0-.555-.094-.89t-.277-.482a.7.7 0 0 0-.461-.149.7.7 0 0 0-.458.149q-.184.147-.281.482-.094.335-.094.89t.094.89q.097.336.281.484.183.15.458.15.277 0 .461-.15.183-.148.277-.484t.094-.89m-.832.414a.25.25 0 0 0 .217-.105.5.5 0 0 0 .076-.301.6.6 0 0 0-.034-.22.3.3 0 0 0-.1-.139.27.27 0 0 0-.159-.047.25.25 0 0 0-.215.107.5.5 0 0 0-.076.299q0 .128.034.22a.3.3 0 0 0 .097.138.26.26 0 0 0 .16.048m3.189-2.383a1.7 1.7 0 0 1 .655.113q.27.112.408.33a.95.95 0 0 1 .142.534.9.9 0 0 1-.144.526.9.9 0 0 1-.377.314 1.7 1.7 0 0 1-.513.141l-.003-.081q.322.029.571.121a.9.9 0 0 1 .413.303q.163.21.163.569 0 .322-.144.565a.97.97 0 0 1-.432.377 1.7 1.7 0 0 1-.707.134q-.417 0-.699-.131a.95.95 0 0 1-.427-.38 1.25 1.25 0 0 1-.155-.61l.49-.044q.029.246.126.411.096.162.262.246.165.081.398.081.377 0 .57-.173a.61.61 0 0 0 .194-.476.62.62 0 0 0-.141-.422.8.8 0 0 0-.375-.238 1.8 1.8 0 0 0-.534-.074h-.068v-.403h.066q.293 0 .51-.086a.75.75 0 0 0 .338-.246.64.64 0 0 0 .118-.385.6.6 0 0 0-.082-.317.5.5 0 0 0-.235-.207.9.9 0 0 0-.369-.07.84.84 0 0 0-.356.068.55.55 0 0 0-.241.214.9.9 0 0 0-.115.375l-.48-.045q.014-.364.171-.594a.9.9 0 0 1 .416-.335 1.6 1.6 0 0 1 .586-.105m46.035 1.969q0 .657-.165 1.1-.162.443-.469.659a1.24 1.24 0 0 1-.735.218q-.43 0-.736-.218-.306-.216-.471-.659-.163-.443-.163-1.1 0-.667.163-1.107.165-.44.468-.652a1.25 1.25 0 0 1 .739-.215q.432 0 .735.215.307.211.469.652.165.44.165 1.107m-.537 0q0-.555-.094-.89t-.278-.482a.7.7 0 0 0-.46-.149.7.7 0 0 0-.459.149q-.183.147-.28.482-.094.335-.094.89t.094.89q.097.335.28.485a.7.7 0 0 0 .459.149q.277 0 .46-.149.184-.15.278-.485t.094-.89m-.832.414a.25.25 0 0 0 .217-.105.5.5 0 0 0 .076-.301.7.7 0 0 0-.034-.22.3.3 0 0 0-.1-.139.27.27 0 0 0-.159-.047.25.25 0 0 0-.215.107.5.5 0 0 0-.076.299q0 .128.034.22a.3.3 0 0 0 .097.139.27.27 0 0 0 .16.047m3.65 1.5v-3.404l.167.019-1.505 2.047-.134-.113h1.642l.094-.018h.665v.43h-2.694v-.43l1.739-2.354h.523v3.823zm42.894-1.914q0 .657-.165 1.1-.162.442-.468.659t-.736.218q-.43 0-.736-.218-.306-.217-.471-.659-.162-.443-.163-1.1 0-.667.163-1.108.165-.44.468-.652.307-.214.739-.214t.736.214q.306.213.468.652.165.44.165 1.108m-.537 0q0-.555-.094-.89t-.277-.482a.7.7 0 0 0-.461-.149.7.7 0 0 0-.458.149q-.184.147-.281.482-.094.335-.094.89t.094.89q.097.336.281.484a.7.7 0 0 0 .458.15q.277 0 .461-.15.183-.148.277-.484t.094-.89m-.832.414a.25.25 0 0 0 .217-.105.5.5 0 0 0 .076-.301.6.6 0 0 0-.034-.22.3.3 0 0 0-.099-.139.27.27 0 0 0-.16-.047.25.25 0 0 0-.215.107.5.5 0 0 0-.076.299q0 .128.034.22a.3.3 0 0 0 .097.138.26.26 0 0 0 .16.048m4.297-2.323v.43h-1.749l.128-.147-.178 1.479-.052-.057q.186-.147.406-.228.222-.084.497-.084.358 0 .618.142a.95.95 0 0 1 .398.413q.139.273.139.657 0 .406-.15.692a1 1 0 0 1-.442.437 1.6 1.6 0 0 1-.725.149q-.403 0-.681-.136a.95.95 0 0 1-.416-.385 1.26 1.26 0 0 1-.15-.6l.498-.044q.024.25.118.416a.6.6 0 0 0 .256.244.9.9 0 0 0 .388.078.9.9 0 0 0 .424-.089.6.6 0 0 0 .27-.277q.094-.19.094-.482a1.1 1.1 0 0 0-.094-.471.64.64 0 0 0-.26-.291.76.76 0 0 0-.392-.097.95.95 0 0 0-.44.1 1.2 1.2 0 0 0-.343.254l-.44-.079.236-2.024zm43.235 1.909q0 .657-.165 1.1-.162.442-.468.659t-.736.218q-.429 0-.736-.218-.306-.217-.471-.659-.162-.443-.162-1.1 0-.667.162-1.108.165-.44.469-.652.306-.214.738-.214t.736.214q.306.213.468.652.165.44.165 1.108m-.536 0q0-.555-.095-.89-.093-.335-.277-.482a.7.7 0 0 0-.461-.149.7.7 0 0 0-.458.149q-.183.147-.28.482-.094.335-.094.89t.094.89q.096.336.28.484a.7.7 0 0 0 .458.15q.278 0 .461-.15.183-.148.277-.484t.095-.89m-.833.414a.25.25 0 0 0 .217-.105.5.5 0 0 0 .076-.301.6.6 0 0 0-.034-.22.3.3 0 0 0-.099-.139.27.27 0 0 0-.16-.047.25.25 0 0 0-.215.107.5.5 0 0 0-.076.299q0 .128.035.22a.3.3 0 0 0 .096.138.26.26 0 0 0 .16.048m3.318-2.383q.317 0 .568.102a.9.9 0 0 1 .411.327q.157.227.178.576l-.484.045a.9.9 0 0 0-.115-.354.5.5 0 0 0-.228-.206.8.8 0 0 0-.346-.068.77.77 0 0 0-.445.13q-.189.129-.301.464-.113.335-.113.921 0 .582.092.93.091.345.27.497t.458.152a.8.8 0 0 0 .401-.097.67.67 0 0 0 .267-.288q.094-.188.094-.45 0-.385-.186-.579-.186-.196-.516-.196a1.05 1.05 0 0 0-.442.094q-.207.094-.367.244a1.8 1.8 0 0 0-.275.324l-.031-.361a2 2 0 0 1 .497-.471q.294-.196.739-.196.33 0 .576.123a.86.86 0 0 1 .382.377q.139.254.139.633 0 .388-.142.673a1 1 0 0 1-.427.44q-.285.157-.709.157-.435 0-.733-.202-.296-.204-.456-.644-.156-.442-.157-1.152 0-.725.181-1.157.183-.432.492-.61.311-.178.728-.178m46.284 1.969q0 .657-.165 1.1-.163.442-.469.659a1.24 1.24 0 0 1-.735.218q-.43 0-.736-.218-.307-.217-.471-.659t-.163-1.1q0-.667.163-1.108.164-.44.468-.652.307-.214.739-.214t.735.214q.306.213.469.652.165.44.165 1.108m-.537 0q0-.555-.094-.89-.095-.335-.278-.482a.7.7 0 0 0-.46-.149.7.7 0 0 0-.459.149q-.183.147-.28.482-.094.335-.094.89t.094.89q.097.336.28.484.184.15.459.15.277 0 .46-.15.183-.148.278-.484.094-.335.094-.89m-.832.414a.25.25 0 0 0 .217-.105.5.5 0 0 0 .076-.301.7.7 0 0 0-.034-.22.3.3 0 0 0-.1-.139.27.27 0 0 0-.159-.047.25.25 0 0 0-.215.107.5.5 0 0 0-.076.299q0 .128.034.22a.3.3 0 0 0 .097.138.26.26 0 0 0 .16.048m4.477-2.323v.354l-1.293 3.469h-.532l1.333-3.54.175.147h-2.133v-.43zm45.124 1.909q0 .657-.165 1.1-.162.442-.468.659t-.736.218q-.43 0-.736-.218-.306-.217-.471-.659-.162-.443-.162-1.1 0-.667.162-1.108.165-.44.469-.652.306-.214.738-.214t.736.214q.306.213.468.652.165.44.165 1.108m-.536 0q0-.555-.095-.89-.094-.335-.277-.482a.7.7 0 0 0-.461-.149.7.7 0 0 0-.458.149q-.184.147-.28.482-.095.335-.095.89t.095.89q.097.336.28.484a.7.7 0 0 0 .458.15q.278 0 .461-.15.183-.148.277-.484t.095-.89m-.833.414a.25.25 0 0 0 .217-.105.5.5 0 0 0 .076-.301.6.6 0 0 0-.034-.22.3.3 0 0 0-.099-.139.27.27 0 0 0-.16-.047.25.25 0 0 0-.215.107.5.5 0 0 0-.076.299q0 .128.034.22a.3.3 0 0 0 .097.138.26.26 0 0 0 .16.048m3.247-2.386q.343 0 .613.105a.9.9 0 0 1 .429.32q.16.214.16.539a.87.87 0 0 1-.134.495 1 1 0 0 1-.343.322q-.209.12-.513.23l-.296-.17q.074-.026.152-.06.079-.037.152-.076.16-.081.267-.176a.8.8 0 0 0 .173-.219.6.6 0 0 0 .065-.291.55.55 0 0 0-.353-.532 1 1 0 0 0-.388-.068q-.316 0-.502.142a.47.47 0 0 0-.184.4.55.55 0 0 0 .068.273q.072.12.197.212.128.091.335.175a2 2 0 0 0 .28.1q.102.033.168.06.293.11.502.246.213.134.346.348a.97.97 0 0 1 .134.521q0 .316-.152.555-.152.235-.456.369a1.9 1.9 0 0 1-.746.131q-.429 0-.723-.128a.95.95 0 0 1-.434-.356.96.96 0 0 1-.144-.526q0-.341.167-.571.168-.233.411-.361a2.8 2.8 0 0 1 .55-.218l.241.165a3 3 0 0 0-.165.06 1.8 1.8 0 0 0-.348.189.9.9 0 0 0-.252.277.75.75 0 0 0-.099.393q0 .328.225.487.225.16.6.16.249 0 .426-.071a.6.6 0 0 0 .273-.209.6.6 0 0 0 .097-.348.54.54 0 0 0-.226-.453 1.5 1.5 0 0 0-.298-.171 3 3 0 0 0-.22-.091l-.257-.1a2.5 2.5 0 0 1-.523-.259 1.14 1.14 0 0 1-.346-.361.96.96 0 0 1-.128-.5.88.88 0 0 1 .154-.529.93.93 0 0 1 .427-.322q.273-.108.618-.108m46.356 1.972q0 .657-.165 1.1-.163.442-.469.659a1.24 1.24 0 0 1-.736.218q-.429 0-.735-.218-.307-.217-.472-.659-.162-.443-.162-1.1 0-.667.162-1.108.166-.44.469-.652.306-.214.738-.214.433 0 .736.214.306.213.469.652.165.44.165 1.108m-.537 0q0-.555-.094-.89-.095-.335-.278-.482a.7.7 0 0 0-.461-.149.7.7 0 0 0-.458.149q-.183.147-.28.482-.094.335-.094.89t.094.89q.097.336.28.484a.7.7 0 0 0 .458.15q.278 0 .461-.15.183-.148.278-.484.094-.335.094-.89m-.833.414a.25.25 0 0 0 .218-.105.5.5 0 0 0 .076-.301.7.7 0 0 0-.034-.22.3.3 0 0 0-.1-.139.27.27 0 0 0-.16-.047.25.25 0 0 0-.214.107.5.5 0 0 0-.076.299q0 .128.034.22a.3.3 0 0 0 .097.138.26.26 0 0 0 .159.048m3.177 1.557a1.5 1.5 0 0 1-.571-.102.9.9 0 0 1-.408-.327 1.1 1.1 0 0 1-.178-.576l.484-.044q.029.214.113.353a.55.55 0 0 0 .227.207.8.8 0 0 0 .349.068.77.77 0 0 0 .442-.128q.191-.132.304-.466.112-.336.112-.922 0-.581-.091-.927-.091-.348-.273-.5a.68.68 0 0 0-.455-.152.8.8 0 0 0-.401.1.65.65 0 0 0-.267.285 1 1 0 0 0-.094.45q0 .386.186.582.186.193.516.193.235 0 .442-.094t.367-.243q.16-.15.274-.325l.032.361a2 2 0 0 1-.498.474q-.292.194-.738.194-.33 0-.576-.123a.9.9 0 0 1-.385-.377 1.3 1.3 0 0 1-.136-.634q0-.388.141-.67.142-.286.427-.442.286-.158.71-.158.435 0 .73.205.298.201.456.644.16.44.16 1.149 0 .726-.184 1.157-.18.433-.492.61a1.4 1.4 0 0 1-.725.178M14.18 85.087v.429h-1.75l.129-.147-.178 1.48-.053-.058q.186-.147.406-.228.222-.084.497-.084.36 0 .618.142a.95.95 0 0 1 .398.414q.14.272.14.657 0 .405-.15.69a1 1 0 0 1-.443.438q-.293.15-.725.15-.404 0-.68-.137a.95.95 0 0 1-.417-.385 1.26 1.26 0 0 1-.15-.6l.498-.044q.024.252.118.417t.257.243a.9.9 0 0 0 .387.079q.249 0 .424-.09a.6.6 0 0 0 .27-.277q.094-.189.094-.482 0-.278-.094-.47a.64.64 0 0 0-.26-.291.77.77 0 0 0-.392-.097.96.96 0 0 0-.44.1q-.195.096-.343.253l-.44-.078.236-2.024zm3.566 1.908q0 .657-.165 1.1-.163.442-.469.66-.307.217-.735.217-.43 0-.736-.217t-.472-.66q-.162-.443-.162-1.1 0-.667.162-1.107.165-.44.47-.652.305-.215.738-.215.432 0 .735.215.306.212.469.652.165.44.165 1.107m-.537 0q0-.554-.094-.89t-.278-.482a.7.7 0 0 0-.46-.149.7.7 0 0 0-.459.15q-.183.146-.28.481-.094.336-.094.89 0 .555.094.89.097.336.28.485.184.15.459.15.276 0 .46-.15.183-.15.278-.485.094-.335.094-.89m-.832.414a.25.25 0 0 0 .217-.105.5.5 0 0 0 .076-.3.6.6 0 0 0-.034-.22.3.3 0 0 0-.1-.14.27.27 0 0 0-.16-.047.25.25 0 0 0-.214.108.5.5 0 0 0-.076.298q0 .129.034.22.034.09.097.139a.27.27 0 0 0 .16.047m4.616-.414q0 .657-.165 1.1-.162.442-.469.66-.307.217-.735.217-.43 0-.736-.217t-.471-.66q-.163-.443-.163-1.1 0-.667.163-1.107.165-.44.468-.652.306-.215.739-.215.432 0 .735.215.306.212.469.652.165.44.165 1.107m-.537 0q0-.554-.094-.89t-.277-.482a.7.7 0 0 0-.461-.149.7.7 0 0 0-.458.15q-.184.146-.28.481-.095.336-.095.89 0 .555.094.89.097.336.28.485.184.15.459.15.277 0 .46-.15.184-.15.278-.485t.094-.89m-.832.414a.25.25 0 0 0 .217-.105.5.5 0 0 0 .076-.3.6.6 0 0 0-.034-.22.3.3 0 0 0-.1-.14.27.27 0 0 0-.16-.047.25.25 0 0 0-.214.108.5.5 0 0 0-.076.298q0 .129.034.22.034.09.097.139a.27.27 0 0 0 .16.047m4.616-.414q0 .657-.165 1.1-.162.442-.468.66-.307.217-.736.217-.43 0-.736-.217t-.471-.66q-.163-.443-.163-1.1 0-.667.163-1.107.165-.44.468-.652.306-.215.739-.215.432 0 .736.215.306.212.468.652.165.44.165 1.107m-.537 0q0-.554-.094-.89t-.277-.482a.7.7 0 0 0-.461-.149.7.7 0 0 0-.458.15q-.184.146-.28.481-.095.336-.095.89 0 .555.095.89.096.336.28.485.183.15.458.15.277 0 .46-.15.184-.15.278-.485t.094-.89m-.832.414a.25.25 0 0 0 .217-.105.5.5 0 0 0 .076-.3.6.6 0 0 0-.034-.22.3.3 0 0 0-.1-.14.27.27 0 0 0-.16-.047.25.25 0 0 0-.214.108.5.5 0 0 0-.076.298q0 .129.034.22.034.09.097.139a.27.27 0 0 0 .16.047m-9.338 18.3v-3.404l.167.019-1.505 2.047-.134-.112h1.642l.094-.019h.665v.43h-2.694v-.43l1.738-2.353h.524v3.822zm4.213-1.914q0 .657-.165 1.1-.163.443-.469.66-.307.217-.735.217-.43 0-.736-.217-.306-.218-.472-.66-.162-.443-.162-1.1 0-.667.162-1.107.165-.44.47-.652.305-.215.738-.215.432 0 .735.215.306.211.469.652.165.44.165 1.107m-.537 0q0-.555-.094-.89t-.278-.482a.7.7 0 0 0-.46-.149.7.7 0 0 0-.459.149q-.183.147-.28.482-.094.335-.094.89t.094.89q.097.336.28.485a.7.7 0 0 0 .459.149q.276 0 .46-.149.183-.15.278-.485.094-.335.094-.89m-.832.414a.25.25 0 0 0 .217-.105.5.5 0 0 0 .076-.301.6.6 0 0 0-.034-.22.3.3 0 0 0-.1-.139.27.27 0 0 0-.16-.047.25.25 0 0 0-.214.108.5.5 0 0 0-.076.298q0 .129.034.22a.3.3 0 0 0 .097.139.27.27 0 0 0 .16.047m4.616-.414q0 .657-.165 1.1-.162.443-.469.66t-.735.217-.736-.217q-.306-.218-.471-.66-.163-.443-.163-1.1 0-.667.163-1.107.165-.44.468-.652.306-.215.739-.215.432 0 .735.215.306.211.469.652.165.44.165 1.107m-.537 0q0-.555-.094-.89t-.277-.482a.7.7 0 0 0-.461-.149.7.7 0 0 0-.458.149q-.184.147-.28.482-.095.335-.095.89t.094.89q.097.336.28.485a.7.7 0 0 0 .459.149q.277 0 .46-.149.184-.15.278-.485t.094-.89m-.832.414a.25.25 0 0 0 .217-.105.5.5 0 0 0 .076-.301.6.6 0 0 0-.034-.22.3.3 0 0 0-.1-.139.27.27 0 0 0-.16-.047.25.25 0 0 0-.214.108.5.5 0 0 0-.076.298.6.6 0 0 0 .034.22.3.3 0 0 0 .097.139.27.27 0 0 0 .16.047m4.616-.414q0 .657-.165 1.1-.162.443-.468.66t-.736.217-.736-.217q-.306-.218-.471-.66-.163-.443-.163-1.1 0-.667.163-1.107.165-.44.468-.652.306-.215.739-.215.432 0 .736.215.306.211.468.652.165.44.165 1.107m-.537 0q0-.555-.094-.89t-.277-.482a.7.7 0 0 0-.461-.149.7.7 0 0 0-.458.149q-.184.147-.28.482-.095.335-.095.89t.095.89q.096.336.28.485a.7.7 0 0 0 .458.149q.277 0 .46-.149.184-.15.278-.485t.094-.89m-.832.414a.25.25 0 0 0 .217-.105.5.5 0 0 0 .076-.301.6.6 0 0 0-.034-.22.3.3 0 0 0-.1-.139.27.27 0 0 0-.16-.047.25.25 0 0 0-.214.108.5.5 0 0 0-.076.298q0 .129.034.22a.3.3 0 0 0 .097.139.27.27 0 0 0 .16.047m-9.799 14.417a1.7 1.7 0 0 1 .654.113.86.86 0 0 1 .409.33.96.96 0 0 1 .141.534.9.9 0 0 1-.144.526.9.9 0 0 1-.377.314 1.7 1.7 0 0 1-.513.142l-.003-.081q.322.028.571.12a.9.9 0 0 1 .414.304q.162.209.162.568 0 .322-.144.565a.96.96 0 0 1-.432.377 1.7 1.7 0 0 1-.707.134q-.415 0-.699-.131a.94.94 0 0 1-.427-.38 1.24 1.24 0 0 1-.154-.61l.49-.044q.028.246.125.411.097.162.262.246.165.081.398.081.377 0 .57-.173a.61.61 0 0 0 .194-.476.62.62 0 0 0-.141-.422.8.8 0 0 0-.374-.238 1.8 1.8 0 0 0-.534-.073h-.069v-.403h.066q.293 0 .51-.087a.74.74 0 0 0 .338-.246.64.64 0 0 0 .118-.385.6.6 0 0 0-.081-.317.5.5 0 0 0-.236-.206.9.9 0 0 0-.369-.071.9.9 0 0 0-.356.068.55.55 0 0 0-.24.215.9.9 0 0 0-.116.374l-.48-.044q.014-.364.171-.595a.9.9 0 0 1 .416-.335 1.6 1.6 0 0 1 .587-.105m4.674 1.969q0 .657-.165 1.1-.163.442-.469.66-.307.217-.735.217-.43 0-.736-.217-.306-.218-.472-.66-.162-.443-.162-1.1 0-.667.162-1.107.165-.44.47-.652.305-.215.738-.215.432 0 .735.215.306.212.469.652.165.44.165 1.107m-.537 0q0-.554-.094-.89t-.278-.482a.7.7 0 0 0-.46-.149.7.7 0 0 0-.459.149q-.183.147-.28.482-.094.336-.094.89 0 .555.094.89.097.336.28.485a.7.7 0 0 0 .459.149q.276 0 .46-.149.183-.15.278-.485.094-.335.094-.89m-.832.414a.25.25 0 0 0 .217-.105.5.5 0 0 0 .076-.301.6.6 0 0 0-.034-.22.3.3 0 0 0-.1-.139.27.27 0 0 0-.16-.047.25.25 0 0 0-.214.108.5.5 0 0 0-.076.298q0 .129.034.22a.3.3 0 0 0 .097.139.27.27 0 0 0 .16.047m4.616-.414q0 .657-.165 1.1-.162.442-.469.66-.307.217-.735.217-.43 0-.736-.217-.306-.218-.471-.66-.163-.443-.163-1.1 0-.667.163-1.107.165-.44.468-.652.306-.215.739-.215.432 0 .735.215.306.212.469.652.165.44.165 1.107m-.537 0q0-.554-.094-.89t-.277-.482a.7.7 0 0 0-.461-.149.7.7 0 0 0-.458.149q-.184.147-.28.482-.095.336-.095.89 0 .555.094.89.097.336.28.485a.7.7 0 0 0 .459.149q.277 0 .46-.149.184-.15.278-.485t.094-.89m-.832.414a.25.25 0 0 0 .217-.105.5.5 0 0 0 .076-.301.6.6 0 0 0-.034-.22.3.3 0 0 0-.1-.139.27.27 0 0 0-.16-.047.25.25 0 0 0-.214.108.5.5 0 0 0-.076.298.6.6 0 0 0 .034.22.3.3 0 0 0 .097.139.27.27 0 0 0 .16.047m4.616-.414q0 .657-.165 1.1-.162.442-.468.66-.307.217-.736.217-.43 0-.736-.217-.306-.218-.471-.66-.163-.443-.163-1.1 0-.667.163-1.107.165-.44.468-.652.306-.215.739-.215.432 0 .736.215.306.212.468.652.165.44.165 1.107m-.537 0q0-.554-.094-.89t-.277-.482a.7.7 0 0 0-.461-.149.7.7 0 0 0-.458.149q-.184.147-.28.482-.095.336-.095.89 0 .555.095.89.096.336.28.485a.7.7 0 0 0 .458.149q.277 0 .46-.149.184-.15.278-.485t.094-.89m-.832.414a.25.25 0 0 0 .217-.105.5.5 0 0 0 .076-.301.6.6 0 0 0-.034-.22.3.3 0 0 0-.1-.139.27.27 0 0 0-.16-.047.25.25 0 0 0-.214.108.5.5 0 0 0-.076.298q0 .129.034.22a.3.3 0 0 0 .097.139.27.27 0 0 0 .16.047m-9.841 14.415q.372 0 .641.112a.87.87 0 0 1 .42.343q.148.231.148.582 0 .353-.13.602a1.25 1.25 0 0 1-.32.4q-.19.155-.479.32l-.13.076-.176.102q-.267.165-.414.309a.85.85 0 0 0-.207.311 1.1 1.1 0 0 0-.052.409l-.11-.11h2.152v.429h-2.53v-.429q0-.301.121-.545.12-.246.348-.45.231-.204.618-.424.277-.16.435-.275a.95.95 0 0 0 .26-.291.8.8 0 0 0 .104-.429q0-.317-.173-.469-.172-.152-.505-.152a.9.9 0 0 0-.367.068.52.52 0 0 0-.238.212.9.9 0 0 0-.115.383l-.487-.045q.01-.361.165-.591a.9.9 0 0 1 .416-.341q.262-.107.605-.107m4.716 1.971q0 .657-.165 1.1-.163.442-.469.66-.307.217-.735.217-.43 0-.736-.217-.306-.218-.472-.66-.162-.443-.162-1.1 0-.667.162-1.107.165-.44.47-.652.305-.215.738-.215.432 0 .735.215.306.212.469.652.165.44.165 1.107m-.537 0q0-.554-.094-.89t-.278-.482a.7.7 0 0 0-.46-.149.7.7 0 0 0-.459.149q-.183.147-.28.482-.094.336-.094.89 0 .555.094.89.097.335.28.485a.7.7 0 0 0 .459.149q.276 0 .46-.149.183-.15.278-.485.094-.335.094-.89m-.832.414a.25.25 0 0 0 .217-.105.5.5 0 0 0 .076-.301.6.6 0 0 0-.034-.22.3.3 0 0 0-.1-.139.27.27 0 0 0-.16-.047.25.25 0 0 0-.214.108.5.5 0 0 0-.076.298q0 .129.034.22a.3.3 0 0 0 .097.139.27.27 0 0 0 .16.047m4.616-.414q0 .657-.165 1.1-.162.442-.469.66-.307.217-.735.217-.43 0-.736-.217-.306-.218-.471-.66-.163-.443-.163-1.1 0-.667.163-1.107.165-.44.468-.652.306-.215.739-.215.432 0 .735.215.306.212.469.652.165.44.165 1.107m-.537 0q0-.554-.094-.89t-.277-.482a.7.7 0 0 0-.461-.149.7.7 0 0 0-.458.149q-.184.147-.28.482-.095.336-.095.89 0 .555.094.89.097.335.28.485a.7.7 0 0 0 .459.149q.277 0 .46-.149.184-.15.278-.485t.094-.89m-.832.414a.25.25 0 0 0 .217-.105.5.5 0 0 0 .076-.301.6.6 0 0 0-.034-.22.3.3 0 0 0-.1-.139.27.27 0 0 0-.16-.047.25.25 0 0 0-.214.108.5.5 0 0 0-.076.298.6.6 0 0 0 .034.22.3.3 0 0 0 .097.139.27.27 0 0 0 .16.047m4.616-.414q0 .657-.165 1.1-.162.442-.468.66-.307.217-.736.217-.43 0-.736-.217-.306-.218-.471-.66-.163-.443-.163-1.1 0-.667.163-1.107.165-.44.468-.652.306-.215.739-.215.432 0 .736.215.306.212.468.652.165.44.165 1.107m-.537 0q0-.554-.094-.89t-.277-.482a.7.7 0 0 0-.461-.149.7.7 0 0 0-.458.149q-.184.147-.28.482-.095.336-.095.89 0 .555.095.89.096.335.28.485a.7.7 0 0 0 .458.149q.277 0 .46-.149.184-.15.278-.485t.094-.89m-.832.414a.25.25 0 0 0 .217-.105.5.5 0 0 0 .076-.301.6.6 0 0 0-.034-.22.3.3 0 0 0-.1-.139.27.27 0 0 0-.16-.047.25.25 0 0 0-.214.108.5.5 0 0 0-.076.298q0 .129.034.22a.3.3 0 0 0 .097.139.27.27 0 0 0 .16.047m-10.828 15.213a.7.7 0 0 0 .327-.102q.19-.102.34-.272a.85.85 0 0 0 .2-.361h.382a1.3 1.3 0 0 1-.23.597q-.197.285-.477.463a1 1 0 0 1-.542.175zm.866 3.087v-3.822h.508v3.822zm-.96-.429h2.455v.429h-2.456zm5.797-1.485q0 .657-.165 1.1-.163.442-.469.66-.307.217-.735.217-.43 0-.736-.217-.306-.218-.472-.66-.162-.443-.162-1.1 0-.667.162-1.107.165-.44.47-.652.305-.215.738-.215.432 0 .735.215.306.212.469.652.165.44.165 1.107m-.537 0q0-.555-.094-.89t-.278-.482a.7.7 0 0 0-.46-.149.7.7 0 0 0-.459.149q-.183.147-.28.482-.094.335-.094.89t.094.89q.097.335.28.485a.7.7 0 0 0 .459.149q.276 0 .46-.149.183-.15.278-.485.094-.335.094-.89m-.832.414a.25.25 0 0 0 .217-.105.5.5 0 0 0 .076-.301.6.6 0 0 0-.034-.22.3.3 0 0 0-.1-.139.27.27 0 0 0-.16-.047.25.25 0 0 0-.214.108.5.5 0 0 0-.076.298q0 .129.034.22a.3.3 0 0 0 .097.139.27.27 0 0 0 .16.047m4.616-.414q0 .657-.165 1.1-.162.442-.469.66-.307.217-.735.217-.43 0-.736-.217-.306-.218-.471-.66-.163-.443-.163-1.1 0-.667.163-1.107.165-.44.468-.652.306-.215.739-.215.432 0 .735.215.306.212.469.652.165.44.165 1.107m-.537 0q0-.555-.094-.89t-.277-.482a.7.7 0 0 0-.461-.149.7.7 0 0 0-.458.149q-.184.147-.28.482-.095.335-.095.89t.094.89q.097.335.28.485a.7.7 0 0 0 .459.149q.277 0 .46-.149.184-.15.278-.485t.094-.89m-.832.414a.25.25 0 0 0 .217-.105.5.5 0 0 0 .076-.301.6.6 0 0 0-.034-.22.3.3 0 0 0-.1-.139.27.27 0 0 0-.16-.047.25.25 0 0 0-.214.108.5.5 0 0 0-.076.298.6.6 0 0 0 .034.22.3.3 0 0 0 .097.139.27.27 0 0 0 .16.047m4.616-.414q0 .657-.165 1.1-.162.442-.468.66-.307.217-.736.217-.43 0-.736-.217-.306-.218-.471-.66-.163-.443-.163-1.1 0-.667.163-1.107.165-.44.468-.652.306-.215.739-.215.432 0 .736.215.306.212.468.652.165.44.165 1.107m-.537 0q0-.555-.094-.89t-.277-.482a.7.7 0 0 0-.461-.149.7.7 0 0 0-.458.149q-.184.147-.28.482-.095.335-.095.89t.095.89q.096.335.28.485a.7.7 0 0 0 .458.149q.277 0 .46-.149.184-.15.278-.485t.094-.89m-.832.414a.25.25 0 0 0 .217-.105.5.5 0 0 0 .076-.301.6.6 0 0 0-.034-.22.3.3 0 0 0-.1-.139.27.27 0 0 0-.16-.047.25.25 0 0 0-.214.108.5.5 0 0 0-.076.298q0 .129.034.22a.3.3 0 0 0 .097.139.27.27 0 0 0 .16.047m1.369 16.386q0 .657-.165 1.1-.162.442-.468.66-.307.217-.736.217-.43 0-.736-.217-.306-.218-.471-.66-.163-.443-.163-1.1 0-.668.163-1.107.165-.44.468-.652.306-.215.739-.215.432 0 .736.215.306.212.468.652.165.44.165 1.107m-.537 0q0-.555-.094-.89t-.277-.482a.7.7 0 0 0-.461-.149.7.7 0 0 0-.458.149q-.184.147-.28.482-.095.335-.095.89t.095.89q.096.335.28.485a.7.7 0 0 0 .458.149q.277 0 .46-.149.184-.15.278-.485t.094-.89m-.832.414a.25.25 0 0 0 .217-.105.5.5 0 0 0 .076-.301.6.6 0 0 0-.034-.22.3.3 0 0 0-.1-.139.27.27 0 0 0-.16-.047.25.25 0 0 0-.214.108.5.5 0 0 0-.076.298q0 .129.034.22a.3.3 0 0 0 .097.139.27.27 0 0 0 .16.047"/><g clip-path="url(#a)"><rect width="10.473" height="87.273" x="31.418" y="85.59" fill="#0a101d" rx="5.236"/><rect width="10.473" height="52.364" x="31.418" y="120.499" fill="url(#b)" fill-opacity=".5" rx="5.236"/><rect width="10.473" height="87.273" x="43.636" y="85.59" fill="#0a101d" rx="5.236"/><rect width="10.473" height="26.182" x="43.636" y="146.681" fill="url(#c)" fill-opacity=".5" rx="5.236"/><rect width="10.473" height="87.273" x="55.855" y="85.59" fill="#0a101d" rx="5.236"/><rect width="10.473" height="78.546" x="55.855" y="94.317" fill="url(#d)" fill-opacity=".5" rx="5.236"/><g clip-path="url(#e)"><rect width="10.473" height="87.273" x="79.527" y="85.59" fill="#0a101d" rx="5.236"/><rect width="10.473" height="52.364" x="79.527" y="120.499" fill="url(#f)" fill-opacity=".5" rx="5.236"/></g><g clip-path="url(#g)"><path fill="#0a101d" d="M91.745 85.59h10.473v87.273H91.745z"/><rect width="10.473" height="87.273" x="91.745" y="85.59" fill="url(#h)" fill-opacity=".5" rx="5.236"/></g><g clip-path="url(#i)"><rect width="10.473" height="87.273" x="103.964" y="85.59" fill="#0a101d" rx="5.236"/><rect width="10.473" height="43.636" x="103.964" y="129.226" fill="url(#j)" fill-opacity=".5" rx="5.236"/></g><g clip-path="url(#k)"><rect width="10.473" height="87.273" x="127.636" y="85.59" fill="#0a101d" rx="5.236"/><rect width="10.473" height="26.182" x="127.636" y="146.681" fill="url(#l)" fill-opacity=".5" rx="5.236"/></g><g clip-path="url(#m)"><rect width="10.473" height="87.273" x="139.854" y="85.59" fill="#0a101d" rx="5.236"/><rect width="10.473" height="17.454" x="139.854" y="155.408" fill="url(#n)" fill-opacity=".5" rx="5.236"/></g><g clip-path="url(#o)"><rect width="10.473" height="87.273" x="152.072" y="85.59" fill="#0a101d" rx="5.236"/><rect width="10.473" height="8.727" x="152.072" y="164.135" fill="url(#p)" fill-opacity=".5" rx="4.364"/></g><g clip-path="url(#q)"><rect width="10.473" height="87.273" x="175.745" y="85.59" fill="#0a101d" rx="5.236"/><rect width="10.473" height="34.909" x="175.745" y="137.954" fill="url(#r)" fill-opacity=".5" rx="5.236"/></g><g clip-path="url(#s)"><rect width="10.473" height="87.273" x="187.963" y="85.59" fill="#0a101d" rx="5.236"/><rect width="10.473" height="43.636" x="187.963" y="129.226" fill="url(#t)" fill-opacity=".5" rx="5.236"/></g><g clip-path="url(#u)"><rect width="10.473" height="87.273" x="200.182" y="85.59" fill="#0a101d" rx="5.236"/><rect width="10.473" height="69.818" x="200.182" y="103.045" fill="url(#v)" fill-opacity=".5" rx="5.236"/></g><g clip-path="url(#w)"><rect width="10.473" height="87.273" x="223.854" y="85.59" fill="#0a101d" rx="5.236"/><rect width="10.473" height="52.364" x="223.854" y="120.499" fill="url(#x)" fill-opacity=".5" rx="5.236"/></g><g clip-path="url(#y)"><rect width="10.473" height="87.273" x="236.072" y="85.59" fill="#0a101d" rx="5.236"/><rect width="10.473" height="34.909" x="236.072" y="137.954" fill="url(#z)" fill-opacity=".5" rx="5.236"/></g><g clip-path="url(#A)"><rect width="10.473" height="87.273" x="248.291" y="85.59" fill="#0a101d" rx="5.236"/><rect width="10.473" height="34.909" x="248.291" y="137.954" fill="url(#B)" fill-opacity=".5" rx="5.236"/></g><g clip-path="url(#C)"><rect width="10.473" height="87.273" x="271.964" y="85.59" fill="#0a101d" rx="5.236"/><rect width="10.473" height="17.454" x="271.964" y="155.408" fill="url(#D)" fill-opacity=".5" rx="5.236"/></g><g clip-path="url(#E)"><rect width="10.473" height="87.273" x="284.182" y="85.59" fill="#0a101d" rx="5.236"/><rect width="10.473" height="43.636" x="284.182" y="129.226" fill="url(#F)" fill-opacity=".5" rx="5.236"/></g><g clip-path="url(#G)"><rect width="10.473" height="87.273" x="296.4" y="85.59" fill="#0a101d" rx="5.236"/><rect width="10.473" height="52.364" x="296.4" y="120.499" fill="url(#H)" fill-opacity=".5" rx="5.236"/></g><g clip-path="url(#I)"><rect width="10.473" height="87.273" x="320.072" y="85.59" fill="#0a101d" rx="5.236"/><rect width="10.473" height="69.818" x="320.072" y="103.045" fill="url(#J)" fill-opacity=".5" rx="5.236"/></g><g clip-path="url(#K)"><rect width="10.473" height="87.273" x="332.29" y="85.59" fill="#0a101d" rx="5.236"/><rect width="10.473" height="26.182" x="332.29" y="146.681" fill="url(#L)" fill-opacity=".5" rx="5.236"/></g><g clip-path="url(#M)"><rect width="10.473" height="87.273" x="344.509" y="85.59" fill="#0a101d" rx="5.236"/><rect width="10.473" height="78.546" x="344.509" y="94.317" fill="url(#N)" fill-opacity=".5" rx="5.236"/></g><g clip-path="url(#O)"><path fill="#0a101d" d="M368.182 85.59h10.473v87.273h-10.473z"/><rect width="10.473" height="87.273" x="368.182" y="85.59" fill="url(#P)" fill-opacity=".5" rx="5.236"/></g><g clip-path="url(#Q)"><rect width="10.473" height="87.273" x="380.399" y="85.59" fill="#0a101d" rx="5.236"/><rect width="10.473" height="34.909" x="380.399" y="137.954" fill="url(#R)" fill-opacity=".5" rx="5.236"/></g><g clip-path="url(#S)"><rect width="10.473" height="87.273" x="392.618" y="85.59" fill="#0a101d" rx="5.236"/><rect width="10.473" height="69.818" x="392.618" y="103.045" fill="url(#T)" fill-opacity=".5" rx="5.236"/></g><g clip-path="url(#U)"><rect width="10.473" height="87.273" x="416.291" y="85.59" fill="#0a101d" rx="5.236"/><rect width="10.473" height="52.364" x="416.291" y="120.499" fill="url(#V)" fill-opacity=".5" rx="5.236"/></g><g clip-path="url(#W)"><rect width="10.473" height="87.273" x="428.509" y="85.59" fill="#0a101d" rx="5.236"/><rect width="10.473" height="69.818" x="428.509" y="103.045" fill="url(#X)" fill-opacity=".5" rx="5.236"/></g><g clip-path="url(#Y)"><rect width="10.473" height="87.273" x="440.728" y="85.59" fill="#0a101d" rx="5.236"/><rect width="10.473" height="69.818" x="440.728" y="103.045" fill="url(#Z)" fill-opacity=".5" rx="5.236"/></g></g><rect width="144.891" height="68.945" x="8.291" y="2.48" fill="#0a101d" rx="6.545"/><rect width="144.891" height="68.945" x="8.291" y="2.48" stroke="#3730a3" stroke-width=".873" rx="6.545"/><path fill="#1e1b4b" d="M21.818 21.244a5.236 5.236 0 0 1 5.237-5.237h31.418a5.236 5.236 0 0 1 5.236 5.237v31.418a5.236 5.236 0 0 1-5.236 5.236H27.055a5.236 5.236 0 0 1-5.237-5.236z"/><path fill="#818cf8" d="M45.564 30.235c0-.328.286-.655.654-.655h7.2c.328 0 .655.327.655.655v7.2a.673.673 0 0 1-.655.654.646.646 0 0 1-.654-.654V31.83l-8.714 8.714a.693.693 0 0 1-.94 0l-4.746-4.787-6.75 6.75a.693.693 0 0 1-.941 0 .693.693 0 0 1 0-.94l7.2-7.2a.693.693 0 0 1 .94 0l4.787 4.786 8.223-8.264h-5.605a.646.646 0 0 1-.654-.654m33.847-2.782v-4.217h1.215v4.217zm-1.69-4.113v-.977h4.616v.977zm8.22 4.176q-.676 0-1.214-.182a2.7 2.7 0 0 1-.908-.53 2.35 2.35 0 0 1-.565-.824 2.9 2.9 0 0 1-.189-1.076q0-.586.195-1.068.196-.482.566-.824t.9-.523a3.7 3.7 0 0 1 1.216-.189q.676 0 1.2.189.53.18.901.523.377.342.566.824.195.482.195 1.068 0 .594-.195 1.076-.196.48-.566.823a2.6 2.6 0 0 1-.9.53 3.7 3.7 0 0 1-1.201.183m0-.964q.503 0 .866-.189.37-.189.566-.551.202-.37.202-.908 0-.405-.118-.705a1.35 1.35 0 0 0-.845-.83q-.3-.105-.67-.105a1.9 1.9 0 0 0-.873.188 1.3 1.3 0 0 0-.573.552q-.202.363-.202.9 0 .405.118.712.12.307.336.517.216.203.516.314.3.105.678.105m5.278.9v-4.216h1.215v4.217zm-1.69-4.112v-.977h4.615v.977zm4.638 4.113 2.179-5.09h1.578l2.185 5.09h-1.32L97.4 23.906l-.244-.656h-.042l-.252.663-1.382 3.54zm1.627-1.02.335-.907h2.011l.328.907zm5.394 1.02v-5.09h1.222v4.343l-.265-.252h2.806v.999zm-20.283 6.239 2.626-.147h.377v.908h-3.233zm-.223.824q-.676 0-1.215-.182a2.7 2.7 0 0 1-.907-.53 2.35 2.35 0 0 1-.566-.825 2.9 2.9 0 0 1-.189-1.075q0-.586.196-1.068.195-.482.566-.824.369-.342.9-.523a3.7 3.7 0 0 1 1.215-.189q.677 0 1.2.189.532.18.901.523.377.342.566.824.195.482.196 1.068 0 .593-.196 1.076-.195.48-.566.823a2.6 2.6 0 0 1-.9.53 3.7 3.7 0 0 1-1.201.183m0-.964q.503 0 .866-.188.37-.189.565-.552.203-.37.203-.908 0-.405-.119-.705a1.35 1.35 0 0 0-.845-.83q-.3-.105-.67-.105a1.9 1.9 0 0 0-.873.188 1.3 1.3 0 0 0-.572.552q-.203.363-.203.9 0 .406.119.712.119.307.335.517.216.203.517.314.3.105.677.105m6.699.964q-.747 0-1.306-.224a1.8 1.8 0 0 1-.858-.726q-.3-.495-.3-1.292v-2.911h1.193v2.911q0 .384.119.664a.92.92 0 0 0 .398.432q.28.147.754.147.412 0 .691-.119a.88.88 0 0 0 .433-.398q.147-.279.147-.726v-2.911h1.2v2.911q0 .705-.265 1.215-.265.503-.817.768-.544.258-1.389.259m3.874-.063v-5.09h4.315v.963H92.2l.28-.272v3.707l-.28-.272h3.386v.964zm.964-2.123v-.9h3.002v.9zm4.596 2.123v-5.09h3.156q.363 0 .649.063t.496.188.349.3q.14.168.202.391.07.217.07.475 0 .495-.251.824-.252.32-.678.44v.049q.266.042.44.16.181.12.273.315.09.195.09.481v.88q0 .14.007.265.015.119.049.259h-1.236a1.3 1.3 0 0 1-.034-.238 5 5 0 0 1-.007-.279v-.698a.9.9 0 0 0-.07-.384.44.44 0 0 0-.238-.217 1.3 1.3 0 0 0-.467-.07h-1.676v-.872h1.634q.523 0 .726-.203a.72.72 0 0 0 .202-.53.66.66 0 0 0-.07-.314.5.5 0 0 0-.188-.21.8.8 0 0 0-.293-.112 1.6 1.6 0 0 0-.377-.041h-1.536v4.168zm7.253-.88v-3.337h1.215v3.337zm-1.215-3.233v-.977h3.68v.977zm0 4.113v-.978h3.68v.978zm4.911 0v-5.09h4.314v.963h-3.372l.279-.272v3.707l-.279-.272h3.386v.964zm.963-2.123v-.9h3.002v.9zm6.816 2.186q-.845 0-1.39-.21-.545-.216-.809-.6a1.54 1.54 0 0 1-.273-.873h1.271q.013.265.154.454.14.188.411.293.28.098.678.098.363 0 .6-.07a.73.73 0 0 0 .363-.224.5.5 0 0 0 .126-.342.5.5 0 0 0-.077-.3.44.44 0 0 0-.223-.181 1.7 1.7 0 0 0-.398-.112 11 11 0 0 0-.58-.084 7 7 0 0 1-.949-.168 2.6 2.6 0 0 1-.692-.272 1.13 1.13 0 0 1-.411-.426 1.3 1.3 0 0 1-.14-.635q0-.503.279-.845.279-.349.789-.53.517-.189 1.229-.189.663 0 1.152.182.495.18.775.523.28.342.314.831h-1.229a.72.72 0 0 0-.16-.405.76.76 0 0 0-.363-.223 1.7 1.7 0 0 0-.538-.077q-.314 0-.538.077a.74.74 0 0 0-.342.202.47.47 0 0 0-.118.321q0 .217.118.335.119.112.398.175.28.056.754.112.552.07.964.167t.684.273q.28.167.419.446.14.28.14.706 0 .488-.28.844-.272.35-.803.538-.53.189-1.305.189"/><path fill="#f9fafb" d="M84.096 50.61a8.2 8.2 0 0 1-2.217-.297 5.1 5.1 0 0 1-1.902-.995q-.838-.697-1.327-1.92-.471-1.222-.471-3.072 0-1.815.471-3.072.489-1.274 1.327-2.042a5.15 5.15 0 0 1 1.972-1.135 7.6 7.6 0 0 1 2.392-.366q1.117 0 2.024.262a5.1 5.1 0 0 1 1.589.75q.68.489 1.1 1.17.418.68.558 1.518h-3.736a1 1 0 0 0-.279-.366 1.1 1.1 0 0 0-.384-.245 2 2 0 0 0-.454-.122 4 4 0 0 0-.54-.035q-.525 0-.943.175-.402.174-.681.523-.28.35-.436.89-.157.541-.175 1.257l.157.035q.28-.42.75-.733.473-.314 1.083-.489a5 5 0 0 1 1.344-.174q1.344 0 2.339.471.994.454 1.553 1.344.56.872.559 2.147 0 1.449-.716 2.461-.715 1.012-1.99 1.536-1.274.525-2.967.524m.052-2.915q.612 0 1.013-.175.42-.192.61-.523.21-.331.21-.768 0-.49-.21-.82a1.23 1.23 0 0 0-.61-.49q-.402-.174-.995-.174-.611 0-1.012.192a1.3 1.3 0 0 0-.594.524 1.54 1.54 0 0 0-.192.785q0 .49.227.82.226.315.628.472t.925.157m12.51 2.915a8.2 8.2 0 0 1-2.216-.297 5.1 5.1 0 0 1-1.903-.995q-.837-.697-1.326-1.92-.471-1.222-.471-3.072 0-1.815.47-3.072.49-1.274 1.327-2.042a5.15 5.15 0 0 1 1.973-1.135 7.6 7.6 0 0 1 2.391-.366q1.118 0 2.025.262a5.1 5.1 0 0 1 1.588.75q.68.489 1.1 1.17.419.68.558 1.518h-3.735a1 1 0 0 0-.28-.366 1.1 1.1 0 0 0-.383-.245 2 2 0 0 0-.454-.122 4 4 0 0 0-.541-.035q-.524 0-.943.175-.4.174-.68.523t-.437.89-.174 1.257l.157.035q.279-.42.75-.733.471-.314 1.082-.489a5 5 0 0 1 1.344-.174q1.344 0 2.339.471.995.454 1.554 1.344.558.872.558 2.147 0 1.449-.715 2.461-.716 1.012-1.99 1.536-1.275.525-2.967.524m.053-2.915q.611 0 1.012-.175.42-.192.611-.523.21-.331.21-.768 0-.49-.21-.82a1.23 1.23 0 0 0-.61-.49q-.402-.174-.996-.174-.61 0-1.012.192a1.3 1.3 0 0 0-.593.524 1.54 1.54 0 0 0-.192.785q0 .49.227.82.226.315.628.472.401.157.925.157m12.37 2.915q-1.484 0-2.6-.454a4.9 4.9 0 0 1-1.833-1.327q-.716-.854-1.082-2.042t-.367-2.636q0-2.163.733-3.578.734-1.431 2.06-2.13 1.344-.715 3.107-.715 1.483 0 2.583.471a4.8 4.8 0 0 1 1.833 1.31q.733.837 1.082 2.024.367 1.188.367 2.636 0 2.165-.733 3.596-.734 1.431-2.06 2.146-1.326.699-3.09.699m0-3.107q.524 0 .891-.21a1.8 1.8 0 0 0 .611-.645q.244-.436.349-1.048.122-.628.122-1.431 0-.925-.14-1.553-.14-.646-.401-1.03a1.55 1.55 0 0 0-.629-.576 1.84 1.84 0 0 0-.803-.175q-.523 0-.89.227-.366.21-.611.629t-.366 1.047q-.105.61-.105 1.431 0 .925.14 1.57.14.63.401 1.03.262.385.629.56.366.174.802.174m-2.338-.437v-2.443l4.712-3.351v2.443zm12.913 3.387V37.728h3.858v6.441l1.134-1.1 2.322-2.112h4.8l-4.416 3.806 4.486 5.69h-4.783l-1.955-2.619-.541-.803-1.047.943v2.479z"/><rect width="146.891" height="68.945" x="161.036" y="2.48" fill="#0a101d" rx="6.545"/><rect width="146.891" height="68.945" x="161.036" y="2.48" stroke="#3730a3" stroke-width=".873" rx="6.545"/><path fill="#1e1b4b" d="M174.563 21.244a5.237 5.237 0 0 1 5.237-5.237h31.418a5.236 5.236 0 0 1 5.236 5.237v31.418a5.236 5.236 0 0 1-5.236 5.236H179.8a5.237 5.237 0 0 1-5.237-5.236z"/><path fill="#818cf8" d="M195.036 26.962a9.14 9.14 0 0 0-7.936 4.582c-1.677 2.863-1.677 6.34 0 9.163 1.636 2.864 4.623 4.582 7.936 4.582a9.04 9.04 0 0 0 7.896-4.582c1.677-2.822 1.677-6.3 0-9.163-1.637-2.823-4.623-4.582-7.896-4.582m0 19.636c-3.763 0-7.2-1.963-9.082-5.236-1.881-3.232-1.881-7.2 0-10.473a10.5 10.5 0 0 1 9.082-5.236c3.723 0 7.159 2.004 9.041 5.236 1.882 3.273 1.882 7.241 0 10.473a10.4 10.4 0 0 1-9.041 5.236m-1.963-6.545h1.309v-3.928h-.982a.647.647 0 0 1-.655-.654c0-.327.287-.655.655-.655h1.636c.327 0 .655.328.655.655v4.582H197c.327 0 .654.327.654.654a.673.673 0 0 1-.654.655h-3.927a.646.646 0 0 1-.655-.655c0-.327.286-.654.655-.654m1.963-6.873c-.573 0-.982-.41-.982-.982a.97.97 0 0 1 .982-.982c.532 0 .982.45.982.982a.97.97 0 0 1-.982.982m38.391-5.664a3.8 3.8 0 0 1-1.215-.182 2.7 2.7 0 0 1-.907-.53 2.3 2.3 0 0 1-.566-.824 2.9 2.9 0 0 1-.188-1.076q0-.586.188-1.068a2.3 2.3 0 0 1 .566-.824q.377-.342.907-.523a3.7 3.7 0 0 1 1.215-.189q.768 0 1.334.23a2.2 2.2 0 0 1 .914.636q.35.404.426.95h-1.229a.87.87 0 0 0-.272-.447 1.35 1.35 0 0 0-.503-.3q-.3-.105-.67-.105-.495 0-.873.188a1.3 1.3 0 0 0-.572.552q-.203.363-.203.9 0 .405.119.712t.328.517q.217.203.517.314.308.105.684.105.37 0 .677-.105.308-.111.51-.307.21-.195.272-.454h1.215a1.76 1.76 0 0 1-.433.964 2.4 2.4 0 0 1-.942.642 3.6 3.6 0 0 1-1.299.223m3.321-.063 2.178-5.09h1.578l2.185 5.09h-1.319l-1.389-3.547-.245-.656h-.042l-.251.663-1.382 3.54zm1.627-1.02.335-.907h2.011l.328.907zm7.794 1.082q-.677 0-1.215-.181a2.7 2.7 0 0 1-.908-.53 2.35 2.35 0 0 1-.565-.824 2.9 2.9 0 0 1-.189-1.076q0-.586.189-1.068a2.3 2.3 0 0 1 .565-.824q.377-.342.908-.523a3.7 3.7 0 0 1 1.215-.189q.768 0 1.333.23.573.224.915.636.35.404.426.95h-1.229a.87.87 0 0 0-.272-.447 1.4 1.4 0 0 0-.503-.3q-.3-.105-.67-.105-.496 0-.873.188a1.3 1.3 0 0 0-.572.552q-.203.363-.203.9 0 .405.119.712.118.307.328.517.217.203.517.314.308.105.684.105.37 0 .677-.105.308-.111.51-.307a.9.9 0 0 0 .272-.454h1.215a1.76 1.76 0 0 1-.433.964 2.4 2.4 0 0 1-.942.642q-.58.223-1.299.223m3.834-.062v-5.09h1.222v5.09zm3.973 0v-5.09h1.222v5.09zm-2.94-2.116v-.963h3.121v.963zm5.611 2.116v-5.09h4.315v.963h-3.373l.28-.272v3.707l-.28-.272h3.387v.964zm.963-2.123v-.9h3.002v.9zm4.363 2.123 2.178-5.09h1.578l2.185 5.09h-1.32l-1.389-3.547-.244-.656h-.042l-.252.663-1.382 3.54zm1.626-1.02.335-.907h2.011l.328.907zm5.394 1.02v-5.09h2.919q.872 0 1.284.342.419.335.419.95 0 .286-.105.516a1 1 0 0 1-.293.384q-.189.155-.454.23v.043q.315.062.538.223.224.16.342.405.126.245.126.572 0 .468-.231.79-.223.314-.656.474-.426.16-1.033.16zm1.215-.845h1.431q.49 0 .698-.189.21-.195.21-.502 0-.336-.224-.496-.216-.168-.649-.168h-1.564v-.81h1.515q.286 0 .454-.076a.5.5 0 0 0 .251-.217.6.6 0 0 0 .084-.328q0-.321-.23-.468-.224-.146-.594-.146h-1.382zm4.761.845v-5.09h1.221v4.343l-.265-.252h2.807v.999zm4.891 0v-5.09h4.315v.963h-3.372l.279-.272v3.707l-.279-.272h3.386v.964zm.963-2.123v-.9h3.003v.9zm-47.172 8.362 2.625-.147h.377v.908h-3.233zm-.224.824a3.8 3.8 0 0 1-1.215-.182 2.7 2.7 0 0 1-.907-.53 2.3 2.3 0 0 1-.566-.825 2.9 2.9 0 0 1-.188-1.075q0-.586.195-1.068a2.3 2.3 0 0 1 .566-.824q.37-.342.9-.523a3.7 3.7 0 0 1 1.215-.189q.678 0 1.201.189.53.18.901.523.377.342.565.824.196.482.196 1.068 0 .593-.196 1.076a2.3 2.3 0 0 1-.565.823 2.6 2.6 0 0 1-.901.53 3.7 3.7 0 0 1-1.201.183m0-.964q.503 0 .866-.188a1.3 1.3 0 0 0 .565-.552q.203-.37.203-.908 0-.405-.119-.705a1.34 1.34 0 0 0-.845-.83q-.3-.105-.67-.105-.502 0-.873.188a1.3 1.3 0 0 0-.572.552q-.203.363-.203.9 0 .406.119.712.119.307.335.517.217.203.517.314.3.105.677.105m6.699.964q-.747 0-1.306-.224a1.8 1.8 0 0 1-.858-.726q-.3-.495-.301-1.292v-2.911h1.194v2.911q0 .384.119.664.126.279.398.432.28.147.754.147.412 0 .691-.119a.88.88 0 0 0 .433-.398q.147-.279.147-.726v-2.911h1.201v2.911q0 .705-.266 1.215a1.75 1.75 0 0 1-.817.768q-.544.258-1.389.259m3.874-.063v-5.09h4.315v.963h-3.372l.279-.272v3.707l-.279-.272h3.386v.964zm.964-2.123v-.9h3.002v.9zm4.596 2.123v-5.09h3.156q.363 0 .649.063t.496.188.349.3q.14.168.202.391.07.217.07.475 0 .495-.251.824-.251.32-.677.44v.049q.265.042.439.16.182.12.273.315.09.195.09.481v.88q0 .14.007.265.015.119.049.259h-1.235a1.2 1.2 0 0 1-.035-.238 5 5 0 0 1-.007-.279v-.698a.9.9 0 0 0-.07-.384.44.44 0 0 0-.238-.217 1.3 1.3 0 0 0-.467-.07h-1.676v-.872h1.634q.524 0 .726-.203a.72.72 0 0 0 .202-.53.7.7 0 0 0-.069-.314.5.5 0 0 0-.189-.21.8.8 0 0 0-.293-.112 1.6 1.6 0 0 0-.377-.041h-1.536v4.168zm7.253-.88v-3.337h1.215v3.337zm-1.215-3.233v-.977h3.68v.977zm0 4.113v-.978h3.68v.978zm4.911 0v-5.09h4.314v.963h-3.372l.279-.272v3.707l-.279-.272h3.386v.964zm.963-2.123v-.9h3.002v.9zm6.816 2.186q-.844 0-1.389-.21-.546-.216-.81-.6a1.54 1.54 0 0 1-.273-.873h1.271a.8.8 0 0 0 .154.454q.14.188.412.293.279.098.677.098.363 0 .6-.07a.73.73 0 0 0 .363-.224.5.5 0 0 0 .126-.342.5.5 0 0 0-.077-.3.44.44 0 0 0-.223-.181 1.7 1.7 0 0 0-.398-.112 11 11 0 0 0-.58-.084 7 7 0 0 1-.949-.168 2.6 2.6 0 0 1-.691-.272 1.1 1.1 0 0 1-.412-.426 1.3 1.3 0 0 1-.14-.635q0-.503.279-.845.279-.349.789-.53.517-.189 1.229-.189.663 0 1.152.182.495.18.775.523.28.342.314.831h-1.229a.72.72 0 0 0-.16-.405.76.76 0 0 0-.363-.223 1.7 1.7 0 0 0-.538-.077q-.314 0-.537.077a.75.75 0 0 0-.343.202.47.47 0 0 0-.118.321q0 .217.118.335.12.112.398.175.28.056.754.112.552.07.964.167.413.097.684.273.28.167.419.446.14.28.14.706 0 .488-.28.844-.272.35-.803.538-.53.189-1.305.189"/><path fill="#f9fafb" d="M231.134 50.453v-.576q0-1.048.366-1.85a4.9 4.9 0 0 1 1.013-1.414 9 9 0 0 1 1.361-1.117q.75-.507 1.484-.925.75-.436 1.379-.838.628-.402.994-.838.384-.437.384-.96 0-.454-.226-.716a1.3 1.3 0 0 0-.542-.401 1.6 1.6 0 0 0-.593-.122q-.593 0-.977.209a1.4 1.4 0 0 0-.576.559 2.4 2.4 0 0 0-.262.82h-3.753q.174-1.571.873-2.566a4.25 4.25 0 0 1 1.92-1.501q1.221-.489 2.897-.489 1.641 0 2.793.524 1.152.506 1.763 1.431.61.925.611 2.164 0 .768-.262 1.397a4.5 4.5 0 0 1-.663 1.135q-.42.506-.96.907-.524.402-1.1.733-.558.332-1.1.611a69 69 0 0 0-.96.489q-.419.21-.663.419h5.76v2.915zm18.13.157q-1.483 0-2.601-.454a4.9 4.9 0 0 1-1.832-1.327q-.715-.854-1.083-2.042-.366-1.187-.366-2.636 0-2.163.733-3.578.733-1.431 2.06-2.13 1.344-.715 3.107-.715 1.483 0 2.583.471a4.8 4.8 0 0 1 1.833 1.31q.732.837 1.082 2.024.366 1.188.366 2.636 0 2.165-.733 3.596t-2.059 2.146q-1.328.699-3.09.699m0-3.107q.524 0 .89-.21.367-.226.611-.645.244-.436.349-1.048.123-.628.122-1.431 0-.925-.139-1.553-.14-.646-.402-1.03a1.55 1.55 0 0 0-.628-.576 1.84 1.84 0 0 0-.803-.175q-.524 0-.89.227-.366.21-.611.629-.244.419-.367 1.047a9 9 0 0 0-.104 1.431q0 .925.139 1.57.14.63.402 1.03.261.385.628.56.367.174.803.174m-2.339-.437v-2.443l4.713-3.351v2.443zm14.902 3.544q-1.483 0-2.601-.454a4.9 4.9 0 0 1-1.833-1.327q-.716-.854-1.082-2.042t-.367-2.636q0-2.163.734-3.578.732-1.431 2.059-2.13 1.344-.715 3.107-.715 1.483 0 2.583.471a4.8 4.8 0 0 1 1.833 1.31q.734.837 1.082 2.024.367 1.188.367 2.636 0 2.165-.733 3.596-.734 1.431-2.06 2.146-1.326.699-3.089.699m0-3.107q.523 0 .89-.21a1.8 1.8 0 0 0 .611-.645q.244-.436.349-1.048.122-.628.122-1.431 0-.925-.14-1.553-.14-.646-.401-1.03a1.56 1.56 0 0 0-.628-.576 1.85 1.85 0 0 0-.803-.175q-.524 0-.891.227-.367.21-.61.629-.245.419-.367 1.047-.105.61-.105 1.431 0 .925.14 1.57.14.63.401 1.03.262.385.629.56.366.174.803.174m-2.339-.437v-2.443l4.712-3.351v2.443z"/><rect width="149.891" height="68.945" x="315.782" y="2.48" fill="#0a101d" rx="6.545"/><rect width="149.891" height="68.945" x="315.782" y="2.48" stroke="#3730a3" stroke-width=".873" rx="6.545"/><path fill="#1e1b4b" d="M329.31 21.244a5.236 5.236 0 0 1 5.236-5.237h31.418a5.236 5.236 0 0 1 5.236 5.237v31.418a5.236 5.236 0 0 1-5.236 5.236h-31.418a5.236 5.236 0 0 1-5.236-5.236z"/><path fill="#818cf8" d="m352.646 26.062-1.064.94-.122.123c-.532-.081-1.105-.163-1.678-.163-5.072 0-9.163 4.132-9.163 9.163 0 5.073 4.091 9.164 9.122 9.164a9.15 9.15 0 0 0 9.164-9.164c0-.572-.041-1.145-.123-1.677l.123-.123.941-1.063c.245.9.409 1.882.409 2.863 0 5.81-4.705 10.473-10.473 10.473a10.44 10.44 0 0 1-10.472-10.473c0-5.768 4.663-10.472 10.472-10.472.982 0 1.964.163 2.864.409m-2.127 3.6c0 .082.041.204.041.327l.163 1.023a3.5 3.5 0 0 0-.941-.123c-2.904 0-5.236 2.373-5.236 5.236a5.22 5.22 0 0 0 5.236 5.237c2.864 0 5.237-2.332 5.237-5.237a3.5 3.5 0 0 0-.123-.94l1.023.163c.122 0 .245.041.327.041.041.245.082.491.082.736a6.54 6.54 0 0 1-6.546 6.546 6.51 6.51 0 0 1-6.545-6.546c0-3.6 2.904-6.545 6.545-6.545.246 0 .491.04.737.082m2.741 3.927-3.028 3.027a.693.693 0 0 1-.941 0 .694.694 0 0 1 0-.94l3.028-3.028-.45-2.864a1.95 1.95 0 0 1 .613-1.8l2.046-1.8c.532-.49 1.35-.245 1.554.45l.737 2.455 2.454.736c.696.205.941 1.023.45 1.555l-1.8 2.045a1.95 1.95 0 0 1-1.8.614zm1.145-1.145 1.964.327a.6.6 0 0 0 .572-.205l1.473-1.636-1.923-.573zm1.145-3.028-.572-1.922-1.637 1.472a.6.6 0 0 0-.204.573l.327 1.964zm32.623-1.9a3.8 3.8 0 0 1-1.215-.182 2.7 2.7 0 0 1-.907-.53 2.35 2.35 0 0 1-.566-.824 3 3 0 0 1-.188-1.076q0-.586.188-1.068.196-.482.566-.824.377-.342.907-.523a3.7 3.7 0 0 1 1.215-.189q.768 0 1.334.23a2.2 2.2 0 0 1 .914.636q.35.404.426.95h-1.229a.86.86 0 0 0-.272-.447 1.35 1.35 0 0 0-.503-.3q-.3-.105-.67-.105-.495 0-.873.188a1.3 1.3 0 0 0-.572.552q-.202.363-.202.9 0 .405.118.712.119.307.328.517.217.203.517.314.307.105.684.105.37 0 .677-.105.308-.111.51-.307a.9.9 0 0 0 .272-.454h1.215a1.76 1.76 0 0 1-.433.964 2.4 2.4 0 0 1-.942.642 3.6 3.6 0 0 1-1.299.223m3.321-.063 2.178-5.09h1.578l2.186 5.09h-1.32l-1.389-3.547-.245-.656h-.042l-.251.663-1.382 3.54zm1.627-1.02.335-.907h2.011l.328.907zm7.794 1.082a3.8 3.8 0 0 1-1.215-.181 2.7 2.7 0 0 1-.907-.53 2.3 2.3 0 0 1-.566-.824 2.9 2.9 0 0 1-.188-1.076q0-.586.188-1.068a2.3 2.3 0 0 1 .566-.824 2.6 2.6 0 0 1 .907-.523 3.7 3.7 0 0 1 1.215-.189q.768 0 1.334.23a2.2 2.2 0 0 1 .914.636q.35.404.426.95h-1.229a.87.87 0 0 0-.272-.447 1.4 1.4 0 0 0-.503-.3q-.3-.105-.67-.105-.495 0-.873.188a1.3 1.3 0 0 0-.572.552q-.203.363-.203.9 0 .405.119.712t.328.517q.217.203.517.314.308.105.684.105.37 0 .677-.105.307-.111.51-.307.21-.195.272-.454h1.215a1.76 1.76 0 0 1-.433.964 2.4 2.4 0 0 1-.942.642q-.58.223-1.299.223m3.834-.062v-5.09h1.222v5.09zm3.973 0v-5.09h1.222v5.09zm-2.939-2.116v-.963h3.12v.963zm5.61 2.116v-5.09h4.315v.963h-3.373l.28-.272v3.707l-.28-.272h3.387v.964zm.963-2.123v-.9h3.003v.9zm-26.815 9.123v-5.09h1.222v5.09zm3.973 0v-5.09h1.222v5.09zm-2.94-2.116v-.963h3.121v.963zm6.602 1.236v-3.337h1.215v3.337zm-1.215-3.233v-.977h3.68v.977zm0 4.113v-.978h3.68v.978zm6.374 0v-4.217h1.215v4.217zm-1.689-4.113v-.977h4.615v.977zm7.929 4.113v-5.09h3.155q.364 0 .65.063t.496.188.349.3q.14.168.202.391.07.217.07.475 0 .495-.251.824-.252.32-.678.44v.049q.266.042.44.16.182.12.272.315t.091.481v.88q0 .14.007.265.015.119.049.259h-1.236a1.4 1.4 0 0 1-.035-.238 6 6 0 0 1-.007-.279v-.698a.9.9 0 0 0-.069-.384.44.44 0 0 0-.238-.217 1.3 1.3 0 0 0-.468-.07h-1.675v-.872h1.634q.524 0 .726-.203a.72.72 0 0 0 .202-.53.66.66 0 0 0-.07-.314.5.5 0 0 0-.188-.21.8.8 0 0 0-.293-.112 1.6 1.6 0 0 0-.377-.041h-1.536v4.168zm5.898 0 2.178-5.09h1.578l2.186 5.09h-1.32l-1.389-3.547-.245-.656h-.042l-.251.663-1.382 3.54zm1.627-1.02.335-.907h2.011l.328.907zm6.026 1.02v-4.217h1.215v4.217zm-1.69-4.113v-.977h4.615v.977zm5.745 4.113v-5.09h4.314v.963h-3.372l.279-.272v3.707l-.279-.272h3.386v.964zm.963-2.123v-.9h3.002v.9z"/><path fill="#f9fafb" d="M391.43 50.627q-1.85 0-3.072-.506-1.204-.507-1.815-1.414a4.2 4.2 0 0 1-.698-2.077h3.857q.07.402.314.646.245.245.611.349.384.105.856.105.61 0 1.012-.192a1.4 1.4 0 0 0 .628-.524q.21-.349.21-.803 0-.488-.227-.803a1.33 1.33 0 0 0-.628-.489 2.3 2.3 0 0 0-.926-.174q-.68 0-1.221.262-.542.261-.768.698h-3.509l.419-7.837h10.141v3.037h-6.632l-.158 1.938.158.052q.279-.349 1.012-.594a4.8 4.8 0 0 1 1.606-.262q.976 0 1.815.262a4.2 4.2 0 0 1 1.466.786q.629.523.978 1.309.349.768.349 1.798 0 1.483-.768 2.478-.751.977-2.06 1.467-1.31.488-2.95.488m12.563 0q-1.851 0-3.072-.506-1.204-.507-1.816-1.414a4.2 4.2 0 0 1-.698-2.077h3.858q.07.402.314.646.244.245.611.349.384.105.855.105.611 0 1.012-.192.42-.192.629-.524.209-.349.209-.803 0-.488-.227-.803a1.3 1.3 0 0 0-.628-.489 2.3 2.3 0 0 0-.925-.174q-.68 0-1.222.262-.541.261-.768.698h-3.508l.419-7.837h10.141v3.037h-6.633l-.157 1.938.157.052q.28-.349 1.012-.594a4.8 4.8 0 0 1 1.606-.262 6 6 0 0 1 1.815.262 4.2 4.2 0 0 1 1.467.786q.628.523.977 1.309.35.768.349 1.798 0 1.483-.768 2.478-.75.977-2.059 1.467-1.31.488-2.95.488m8.583 0q-1.1 0-1.589-.454a1.6 1.6 0 0 1-.471-1.17q0-.698.471-1.151.49-.454 1.589-.454t1.571.454q.488.454.488 1.152 0 .697-.488 1.17-.472.453-1.571.453m5.72-.174q.157-1.292.558-2.566.402-1.292.995-2.514.611-1.221 1.362-2.338a20 20 0 0 1 1.658-2.13h-4.294v1.938h-2.932v-4.975h11.188v2.496a19 19 0 0 0-1.292 1.693 22 22 0 0 0-1.186 1.972q-.559 1.03-1.013 2.112a20 20 0 0 0-.768 2.182 14.4 14.4 0 0 0-.419 2.13zm11.637 0 9.251-12.725h2.793l-9.251 12.725zm1.431-6.127q-1.081 0-1.885-.401a2.93 2.93 0 0 1-1.239-1.135q-.436-.75-.436-1.763 0-1.047.436-1.78a2.9 2.9 0 0 1 1.257-1.135q.82-.384 1.902-.384 1.083 0 1.885.402.804.4 1.24 1.134t.436 1.763q0 1.03-.454 1.78a2.93 2.93 0 0 1-1.239 1.135q-.802.384-1.903.384m.018-2.095q.262 0 .471-.087a.64.64 0 0 0 .349-.349q.122-.261.122-.768 0-.523-.139-.785-.123-.262-.332-.35a1.2 1.2 0 0 0-.454-.087q-.261 0-.471.088-.21.087-.349.349-.122.261-.122.785 0 .384.07.629.069.226.192.366a.9.9 0 0 0 .296.175q.175.034.367.034m9.146 8.309q-1.082 0-1.885-.401a2.93 2.93 0 0 1-1.239-1.135q-.437-.75-.437-1.763 0-1.065.454-1.798a2.94 2.94 0 0 1 1.257-1.117q.82-.384 1.885-.384 1.082 0 1.868.401.803.384 1.239 1.135.436.733.436 1.763t-.454 1.78q-.436.734-1.239 1.135-.802.384-1.885.384m0-2.112q.262 0 .471-.087a.64.64 0 0 0 .349-.332q.14-.262.14-.768 0-.524-.14-.785-.122-.262-.331-.35a1.2 1.2 0 0 0-.454-.087q-.262 0-.489.087-.209.088-.349.35-.122.261-.122.785 0 .506.122.768.14.244.349.332.21.087.454.087"/><defs><linearGradient id="b" x1="36.654" x2="36.654" y1="120.499" y2="172.863" gradientUnits="userSpaceOnUse"><stop stop-color="#818cf8"/><stop offset="1" stop-color="#7f9cf5" stop-opacity="0"/></linearGradient><linearGradient id="c" x1="48.872" x2="48.872" y1="146.681" y2="172.863" gradientUnits="userSpaceOnUse"><stop stop-color="#2dd4bf"/><stop offset="1" stop-color="#71e8df" stop-opacity="0"/></linearGradient><linearGradient id="d" x1="61.091" x2="61.091" y1="94.317" y2="172.863" gradientUnits="userSpaceOnUse"><stop stop-color="#9ca3af"/><stop offset="1" stop-color="#a0aec0" stop-opacity="0"/></linearGradient><linearGradient id="f" x1="84.764" x2="84.764" y1="120.499" y2="172.863" gradientUnits="userSpaceOnUse"><stop stop-color="#818cf8"/><stop offset="1" stop-color="#7f9cf5" stop-opacity="0"/></linearGradient><linearGradient id="h" x1="96.981" x2="96.981" y1="85.59" y2="172.863" gradientUnits="userSpaceOnUse"><stop stop-color="#2dd4bf"/><stop offset="1" stop-color="#71e8df" stop-opacity="0"/></linearGradient><linearGradient id="j" x1="109.2" x2="109.2" y1="129.226" y2="172.863" gradientUnits="userSpaceOnUse"><stop stop-color="#9ca3af"/><stop offset="1" stop-color="#a0aec0" stop-opacity="0"/></linearGradient><linearGradient id="l" x1="132.872" x2="132.872" y1="146.681" y2="172.863" gradientUnits="userSpaceOnUse"><stop stop-color="#818cf8"/><stop offset="1" stop-color="#7f9cf5" stop-opacity="0"/></linearGradient><linearGradient id="n" x1="145.09" x2="145.09" y1="155.408" y2="172.863" gradientUnits="userSpaceOnUse"><stop stop-color="#2dd4bf"/><stop offset="1" stop-color="#71e8df" stop-opacity="0"/></linearGradient><linearGradient id="p" x1="157.309" x2="157.309" y1="164.135" y2="172.863" gradientUnits="userSpaceOnUse"><stop stop-color="#9ca3af"/><stop offset="1" stop-color="#a0aec0" stop-opacity="0"/></linearGradient><linearGradient id="r" x1="180.981" x2="180.981" y1="137.954" y2="172.863" gradientUnits="userSpaceOnUse"><stop stop-color="#818cf8"/><stop offset="1" stop-color="#7f9cf5" stop-opacity="0"/></linearGradient><linearGradient id="t" x1="193.199" x2="193.199" y1="129.226" y2="172.863" gradientUnits="userSpaceOnUse"><stop stop-color="#2dd4bf"/><stop offset="1" stop-color="#71e8df" stop-opacity="0"/></linearGradient><linearGradient id="v" x1="205.418" x2="205.418" y1="103.045" y2="172.863" gradientUnits="userSpaceOnUse"><stop stop-color="#9ca3af"/><stop offset="1" stop-color="#a0aec0" stop-opacity="0"/></linearGradient><linearGradient id="x" x1="229.091" x2="229.091" y1="120.499" y2="172.863" gradientUnits="userSpaceOnUse"><stop stop-color="#818cf8"/><stop offset="1" stop-color="#7f9cf5" stop-opacity="0"/></linearGradient><linearGradient id="z" x1="241.309" x2="241.309" y1="137.954" y2="172.863" gradientUnits="userSpaceOnUse"><stop stop-color="#2dd4bf"/><stop offset="1" stop-color="#71e8df" stop-opacity="0"/></linearGradient><linearGradient id="B" x1="253.527" x2="253.527" y1="137.954" y2="172.863" gradientUnits="userSpaceOnUse"><stop stop-color="#9ca3af"/><stop offset="1" stop-color="#a0aec0" stop-opacity="0"/></linearGradient><linearGradient id="D" x1="277.2" x2="277.2" y1="155.408" y2="172.863" gradientUnits="userSpaceOnUse"><stop stop-color="#818cf8"/><stop offset="1" stop-color="#7f9cf5" stop-opacity="0"/></linearGradient><linearGradient id="F" x1="289.418" x2="289.418" y1="129.226" y2="172.863" gradientUnits="userSpaceOnUse"><stop stop-color="#2dd4bf"/><stop offset="1" stop-color="#71e8df" stop-opacity="0"/></linearGradient><linearGradient id="H" x1="301.637" x2="301.637" y1="120.499" y2="172.863" gradientUnits="userSpaceOnUse"><stop stop-color="#9ca3af"/><stop offset="1" stop-color="#a0aec0" stop-opacity="0"/></linearGradient><linearGradient id="J" x1="325.309" x2="325.309" y1="103.045" y2="172.863" gradientUnits="userSpaceOnUse"><stop stop-color="#818cf8"/><stop offset="1" stop-color="#7f9cf5" stop-opacity="0"/></linearGradient><linearGradient id="L" x1="337.526" x2="337.526" y1="146.681" y2="172.863" gradientUnits="userSpaceOnUse"><stop stop-color="#2dd4bf"/><stop offset="1" stop-color="#71e8df" stop-opacity="0"/></linearGradient><linearGradient id="N" x1="349.745" x2="349.745" y1="94.317" y2="172.863" gradientUnits="userSpaceOnUse"><stop stop-color="#9ca3af"/><stop offset="1" stop-color="#a0aec0" stop-opacity="0"/></linearGradient><linearGradient id="P" x1="373.418" x2="373.418" y1="85.59" y2="172.863" gradientUnits="userSpaceOnUse"><stop stop-color="#818cf8"/><stop offset="1" stop-color="#7f9cf5" stop-opacity="0"/></linearGradient><linearGradient id="R" x1="385.636" x2="385.636" y1="137.954" y2="172.863" gradientUnits="userSpaceOnUse"><stop stop-color="#2dd4bf"/><stop offset="1" stop-color="#71e8df" stop-opacity="0"/></linearGradient><linearGradient id="T" x1="397.855" x2="397.855" y1="103.045" y2="172.863" gradientUnits="userSpaceOnUse"><stop stop-color="#9ca3af"/><stop offset="1" stop-color="#a0aec0" stop-opacity="0"/></linearGradient><linearGradient id="V" x1="421.527" x2="421.527" y1="120.499" y2="172.863" gradientUnits="userSpaceOnUse"><stop stop-color="#818cf8"/><stop offset="1" stop-color="#7f9cf5" stop-opacity="0"/></linearGradient><linearGradient id="X" x1="433.745" x2="433.745" y1="103.045" y2="172.863" gradientUnits="userSpaceOnUse"><stop stop-color="#2dd4bf"/><stop offset="1" stop-color="#71e8df" stop-opacity="0"/></linearGradient><linearGradient id="Z" x1="445.964" x2="445.964" y1="103.045" y2="172.863" gradientUnits="userSpaceOnUse"><stop stop-color="#9ca3af"/><stop offset="1" stop-color="#a0aec0" stop-opacity="0"/></linearGradient><clipPath id="a"><path fill="#fff" d="M452.072 83.286H31.417v91.635h420.655z"/></clipPath><clipPath id="e"><rect width="10.473" height="87.273" x="79.527" y="85.59" fill="#fff" rx="5.236"/></clipPath><clipPath id="g"><path fill="#fff" d="M91.745 85.59h10.473v87.273H91.745z"/></clipPath><clipPath id="i"><rect width="10.473" height="87.273" x="103.964" y="85.59" fill="#fff" rx="5.236"/></clipPath><clipPath id="k"><rect width="10.473" height="87.273" x="127.636" y="85.59" fill="#fff" rx="5.236"/></clipPath><clipPath id="m"><rect width="10.473" height="87.273" x="139.854" y="85.59" fill="#fff" rx="5.236"/></clipPath><clipPath id="o"><rect width="10.473" height="87.273" x="152.072" y="85.59" fill="#fff" rx="5.236"/></clipPath><clipPath id="q"><rect width="10.473" height="87.273" x="175.745" y="85.59" fill="#fff" rx="5.236"/></clipPath><clipPath id="s"><rect width="10.473" height="87.273" x="187.963" y="85.59" fill="#fff" rx="5.236"/></clipPath><clipPath id="u"><rect width="10.473" height="87.273" x="200.182" y="85.59" fill="#fff" rx="5.236"/></clipPath><clipPath id="w"><rect width="10.473" height="87.273" x="223.854" y="85.59" fill="#fff" rx="5.236"/></clipPath><clipPath id="y"><rect width="10.473" height="87.273" x="236.072" y="85.59" fill="#fff" rx="5.236"/></clipPath><clipPath id="A"><rect width="10.473" height="87.273" x="248.291" y="85.59" fill="#fff" rx="5.236"/></clipPath><clipPath id="C"><rect width="10.473" height="87.273" x="271.964" y="85.59" fill="#fff" rx="5.236"/></clipPath><clipPath id="E"><rect width="10.473" height="87.273" x="284.182" y="85.59" fill="#fff" rx="5.236"/></clipPath><clipPath id="G"><rect width="10.473" height="87.273" x="296.4" y="85.59" fill="#fff" rx="5.236"/></clipPath><clipPath id="I"><rect width="10.473" height="87.273" x="320.072" y="85.59" fill="#fff" rx="5.236"/></clipPath><clipPath id="K"><rect width="10.473" height="87.273" x="332.29" y="85.59" fill="#fff" rx="5.236"/></clipPath><clipPath id="M"><rect width="10.473" height="87.273" x="344.509" y="85.59" fill="#fff" rx="5.236"/></clipPath><clipPath id="O"><path fill="#fff" d="M368.182 85.59h10.473v87.273h-10.473z"/></clipPath><clipPath id="Q"><rect width="10.473" height="87.273" x="380.399" y="85.59" fill="#fff" rx="5.236"/></clipPath><clipPath id="S"><rect width="10.473" height="87.273" x="392.618" y="85.59" fill="#fff" rx="5.236"/></clipPath><clipPath id="U"><rect width="10.473" height="87.273" x="416.291" y="85.59" fill="#fff" rx="5.236"/></clipPath><clipPath id="W"><rect width="10.473" height="87.273" x="428.509" y="85.59" fill="#fff" rx="5.236"/></clipPath><clipPath id="Y"><rect width="10.473" height="87.273" x="440.728" y="85.59" fill="#fff" rx="5.236"/></clipPath></defs></svg>