<svg xmlns="http://www.w3.org/2000/svg" width="468" height="287" fill="none" viewBox="0 0 468 287"><rect width="467.338" height="239.338" x=".331" y="8.331" fill="#0a101d" rx="8.238"/><rect width="467.338" height="239.338" x=".331" y="8.331" stroke="#111827" stroke-width=".662" rx="8.238"/><circle cx="19.871" cy="33.397" r="3.974" fill="#1f2937"/><circle cx="35.767" cy="33.397" r="3.974" fill="#1f2937"/><circle cx="51.664" cy="33.397" r="3.974" fill="#1f2937"/><path fill="#4b5563" d="M211.425 37.397v-5.55l.27.371h-2.406V31.15l3.306-.143.162.162v6.228zm-2.136-1.08h5.604v1.08h-5.604zm2.562-6.552a1.1 1.1 0 0 1-.486-.102.8.8 0 0 1-.33-.306.9.9 0 0 1-.12-.462q0-.396.258-.625.258-.233.678-.233t.678.233q.258.228.258.625 0 .402-.258.636t-.678.234m6.332 7.632h-1.332V31.15h1.146l.114 1.08h.072zm2.7 0v-4.164q0-.432-.132-.684a.74.74 0 0 0-.366-.36 1.3 1.3 0 0 0-.54-.102 1.94 1.94 0 0 0-1.02.281q-.462.282-.864.786v-1.098h.306a3.9 3.9 0 0 1 .972-.767q.516-.283 1.224-.283.558 0 .948.198.39.2.594.613.21.414.21 1.068v4.512zm7.441-9.18h1.332v9.18h-1.146l-.126-1.128h-.06zm-4.416 6.072q0-.996.282-1.735.282-.738.828-1.14.552-.402 1.338-.402.648 0 1.116.258.474.253.774.684h.294v.937a2.5 2.5 0 0 0-.792-.588 2.1 2.1 0 0 0-.846-.18q-.534 0-.9.24-.36.233-.546.72-.186.48-.186 1.206 0 .72.18 1.194.186.474.546.708t.894.233q.444 0 .852-.173.408-.18.798-.588v.936h-.288a2.7 2.7 0 0 1-.828.69q-.48.258-1.116.258-.78 0-1.32-.402-.534-.408-.81-1.135-.27-.73-.27-1.721m7.441-.025q0-1.05.396-1.782a2.6 2.6 0 0 1 1.116-1.104q.72-.371 1.686-.372.894 0 1.524.313.63.31.96.942.33.623.33 1.547v.57h-4.98v-.84h3.966l-.288.247v-.24q0-.738-.42-1.105-.42-.37-1.134-.371-.852 0-1.326.551-.474.546-.474 1.645 0 1.085.462 1.65.468.557 1.332.557.552 0 .942-.227.396-.234.606-.709l1.29.198q-.216.606-.63 1.008a2.6 2.6 0 0 1-.978.6 3.7 3.7 0 0 1-1.236.199q-.942 0-1.65-.372a2.66 2.66 0 0 1-1.104-1.11q-.39-.738-.39-1.794m8.87-3.114 4.944 6.247h-1.59l-4.926-6.246zm3.354 0h1.494l-2.724 3.474-.732-.834zm-3.474 6.247h-1.542l2.844-3.606.696.888zm9.205.215q-.336 0-.606-.144a1.1 1.1 0 0 1-.432-.396 1.2 1.2 0 0 1-.156-.611q0-.36.156-.618a1.07 1.07 0 0 1 .432-.403q.27-.137.606-.137.33 0 .6.138.27.137.426.401.156.258.156.619 0 .342-.156.605-.156.264-.426.402-.27.144-.6.144m10.064-6.462v1.08h-5.76v-1.08zm-1.44 6.385q-.966.006-1.524-.222a1.54 1.54 0 0 1-.816-.81q-.264-.583-.264-1.645v-5.58h1.332v5.544q0 .624.138.96a.83.83 0 0 0 .438.463q.3.132.84.132.648 0 1.44-.199v1.147q-.342.101-.75.155a6 6 0 0 1-.834.055m6.289-6.528q.84 0 1.428.21.588.204.894.624.306.414.312 1.032l-1.206.09q-.054-.498-.426-.745-.372-.246-1.092-.246-.666 0-1.032.198-.366.199-.366.582 0 .223.138.372.144.15.432.264t.846.247l.414.096q.87.184 1.362.39.492.203.762.545.27.343.27.895 0 .606-.324 1.05t-.96.684-1.554.24q-.888 0-1.488-.186-.6-.192-.96-.618-.36-.427-.492-1.135l1.224-.15q.12.463.366.703.252.24.582.318t.834.078q.492 0 .816-.108.324-.114.468-.3.15-.193.15-.426a.52.52 0 0 0-.186-.414q-.186-.162-.564-.276a14 14 0 0 0-1.17-.294q-.75-.156-1.236-.384-.486-.23-.744-.589-.258-.36-.258-.893 0-.876.69-1.362.69-.492 2.07-.492m5.767.143 4.944 6.247h-1.59l-4.926-6.246zm3.354 0h1.494l-2.724 3.474-.732-.834zm-3.474 6.247h-1.542l2.844-3.606.696.888zM20.906 63.719q.324 0 .75-.234.432-.234.78-.624a1.94 1.94 0 0 0 .456-.828h.876q-.072.708-.528 1.368-.45.654-1.092 1.062-.636.402-1.242.402zm1.986 7.074v-8.76h1.164v8.76zm-2.202-.984h5.628v.984H20.69zm2.478 8.08q.852 0 1.47.258.624.252.96.786.342.528.342 1.332 0 .81-.3 1.38-.294.564-.732.918t-1.098.732q-.15.09-.3.174l-.402.234q-.612.378-.948.708a1.94 1.94 0 0 0-.474.714 2.6 2.6 0 0 0-.12.936l-.252-.252h4.932v.984H20.45v-.984q0-.69.276-1.248.276-.564.798-1.032.528-.468 1.416-.972.636-.366.996-.63t.594-.666q.24-.402.24-.984 0-.726-.396-1.074t-1.158-.348q-.492 0-.84.156-.342.15-.546.486-.204.33-.264.876l-1.116-.102q.024-.828.378-1.356.36-.534.954-.78.6-.246 1.386-.246m.096 16.006q.882 0 1.5.258t.936.756q.324.498.324 1.224t-.33 1.206q-.33.474-.864.72a3.9 3.9 0 0 1-1.176.324l-.006-.186q.738.066 1.308.276.576.21.948.696.372.48.372 1.302 0 .738-.33 1.296-.33.552-.99.864-.66.306-1.62.306-.954 0-1.602-.3-.642-.3-.978-.87-.336-.576-.354-1.398l1.122-.102q.066.564.288.942.222.372.6.564.378.186.912.186.864 0 1.308-.396.444-.402.444-1.092 0-.594-.324-.966a1.8 1.8 0 0 0-.858-.546 4.1 4.1 0 0 0-1.224-.168h-.156v-.924h.15q.672 0 1.17-.198.504-.198.774-.564.27-.372.27-.882 0-.42-.186-.726a1.2 1.2 0 0 0-.54-.474 2 2 0 0 0-.846-.162q-.474 0-.816.156a1.26 1.26 0 0 0-.552.492q-.204.336-.264.858l-1.098-.102q.03-.834.39-1.362.366-.528.954-.768.594-.24 1.344-.24m1.056 24.898v-7.8l.384.042-3.45 4.692-.306-.258h3.762l.216-.042h1.524v.984h-6.174v-.984l3.984-5.394h1.2v8.76zm1.482 7.24v.984h-4.008l.294-.336-.408 3.39-.12-.132q.426-.336.93-.522.51-.192 1.14-.192.822 0 1.416.324t.912.948.318 1.506q0 .93-.342 1.584-.336.654-1.014 1.002-.672.342-1.662.342-.924 0-1.56-.312a2.17 2.17 0 0 1-.954-.882q-.324-.576-.342-1.374l1.14-.102q.054.576.27.954t.588.558.888.18q.57 0 .972-.204t.618-.636.216-1.104q0-.636-.216-1.08a1.47 1.47 0 0 0-.594-.666 1.77 1.77 0 0 0-.9-.222q-.558 0-1.008.228-.45.222-.786.582l-1.008-.18.54-4.638zm-2.244 15.862q.726 0 1.302.234.582.234.942.75t.408 1.32l-1.11.102q-.066-.492-.264-.81a1.2 1.2 0 0 0-.522-.474 1.8 1.8 0 0 0-.792-.156q-.582 0-1.02.3-.432.294-.69 1.062t-.258 2.112q0 1.332.21 2.13.21.792.618 1.14.414.348 1.05.348.522 0 .918-.222a1.53 1.53 0 0 0 .612-.66q.216-.432.216-1.032 0-.882-.426-1.326-.426-.45-1.182-.45-.54 0-1.014.216t-.84.558a4 4 0 0 0-.63.744l-.072-.828a4.4 4.4 0 0 1 1.14-1.08q.672-.45 1.692-.45.756 0 1.32.282t.876.864q.318.582.318 1.452 0 .888-.324 1.542a2.3 2.3 0 0 1-.978 1.008q-.654.36-1.626.36-.996 0-1.68-.462-.678-.468-1.044-1.476-.36-1.014-.36-2.64 0-1.662.414-2.652.42-.99 1.128-1.398.714-.408 1.668-.408m2.658 16.138v.81l-2.964 7.95h-1.218l3.054-8.112.402.336H20.6v-.984zm-2.82 15.856q.786 0 1.404.24.624.234.984.732.366.492.366 1.236 0 .678-.306 1.134-.3.456-.786.738-.48.276-1.176.528l-.678-.39q.168-.06.348-.138.18-.084.348-.174a3 3 0 0 0 .612-.402q.246-.216.396-.504.15-.294.15-.666 0-.444-.216-.75a1.27 1.27 0 0 0-.594-.468 2.4 2.4 0 0 0-.888-.156q-.726 0-1.152.324-.42.318-.42.918 0 .348.156.624.162.276.45.486.294.21.768.402.144.06.306.12.162.054.336.108.234.078.384.138.672.252 1.152.564.486.306.792.798t.306 1.194q0 .726-.348 1.272-.348.54-1.044.846-.69.3-1.71.3-.984 0-1.656-.294-.666-.294-.996-.816t-.33-1.206q0-.78.384-1.308.384-.534.942-.828.564-.3 1.26-.498l.552.378q-.198.066-.378.138-.444.18-.798.432-.348.252-.576.636a1.7 1.7 0 0 0-.228.9q0 .75.516 1.116t1.374.366q.57 0 .978-.162t.624-.48q.222-.324.222-.798 0-.342-.132-.594a1.25 1.25 0 0 0-.384-.444 3.5 3.5 0 0 0-.684-.39 7 7 0 0 0-.504-.21l-.588-.228a5.8 5.8 0 0 1-1.2-.594 2.6 2.6 0 0 1-.792-.828 2.2 2.2 0 0 1-.294-1.146q0-.72.354-1.212.36-.498.978-.738a3.8 3.8 0 0 1 1.416-.246m-.162 25.036a3.5 3.5 0 0 1-1.308-.234 2.07 2.07 0 0 1-.936-.75q-.36-.516-.408-1.32l1.11-.102q.066.492.258.81.198.318.522.474.33.156.798.156.582 0 1.014-.294.438-.3.696-1.068t.258-2.112q0-1.332-.21-2.124-.21-.798-.624-1.146-.408-.348-1.044-.348-.522 0-.918.228a1.5 1.5 0 0 0-.612.654q-.216.432-.216 1.032 0 .882.426 1.332.426.444 1.182.444.54 0 1.014-.216t.84-.558a4 4 0 0 0 .63-.744l.072.828a4.5 4.5 0 0 1-1.14 1.086q-.672.444-1.692.444-.756 0-1.32-.282a2.02 2.02 0 0 1-.882-.864q-.312-.582-.312-1.452 0-.888.324-1.536.324-.654.978-1.014t1.626-.36q.996 0 1.674.468.684.462 1.044 1.476.366 1.008.366 2.634 0 1.662-.42 2.652-.414.99-1.128 1.398-.708.408-1.662.408m-6.049 8.794q.324 0 .75-.234.432-.234.78-.624a1.94 1.94 0 0 0 .456-.828h.876q-.072.708-.528 1.368-.45.654-1.092 1.062-.636.402-1.242.402zm1.986 7.074v-8.76h1.164v8.76zm-2.202-.984h5.628v.984H16.97zm13.285-3.402q0 1.506-.378 2.52-.372 1.014-1.074 1.512t-1.686.498-1.686-.498-1.08-1.512q-.372-1.014-.372-2.52 0-1.53.372-2.538.378-1.008 1.074-1.494.702-.492 1.692-.492t1.686.492q.702.486 1.075 1.494.378 1.008.378 2.538m-1.23 0q0-1.272-.216-2.04-.214-.768-.636-1.104-.42-.342-1.056-.342-.63 0-1.05.342-.42.336-.642 1.104-.215.768-.215 2.04t.215 2.04q.223.768.643 1.11t1.05.342q.636 0 1.055-.342.42-.342.636-1.11t.216-2.04m-1.908.948q.325 0 .498-.24.174-.246.174-.69a1.5 1.5 0 0 0-.078-.504.66.66 0 0 0-.227-.318.6.6 0 0 0-.367-.108.57.57 0 0 0-.491.246q-.174.24-.174.684 0 .294.078.504a.7.7 0 0 0 .221.318.6.6 0 0 0 .366.108m-9.93 12.364q.323 0 .75-.234.43-.234.78-.624a1.94 1.94 0 0 0 .455-.828h.876q-.072.708-.528 1.368-.45.654-1.092 1.062-.636.402-1.242.402zm1.985 7.074v-8.76h1.164v8.76zm-2.202-.984h5.628v.984H16.97zm7.657-6.09q.324 0 .75-.234.432-.234.78-.624a1.94 1.94 0 0 0 .457-.828h.875q-.07.708-.527 1.368-.45.654-1.092 1.062-.636.402-1.242.402zm1.986 7.074v-8.76h1.165v8.76zm-2.201-.984h5.627v.984H24.41z"/><path fill="#818cf8" d="M47.72 64.487q.78 0 1.308.192.528.186.804.618.276.426.276 1.14v3.054q0 .228.066.342a.3.3 0 0 0 .222.144q.156.03.444-.012v.828q-.408.12-.768.12-.396 0-.624-.138a.8.8 0 0 1-.324-.372 1.5 1.5 0 0 1-.09-.546l-.06-.102v-3.252q0-.48-.168-.744a.84.84 0 0 0-.462-.36 2.3 2.3 0 0 0-.744-.102 2.5 2.5 0 0 0-.726.102q-.3.09-.48.324-.174.228-.18.624v.264h-1.062v-.324q0-.834.624-1.314.624-.486 1.944-.486m1.698 3.57a8 8 0 0 0-.522-.054 5 5 0 0 0-.492-.024q-.732 0-1.236.12-.504.114-.774.372-.264.252-.264.666a.9.9 0 0 0 .138.516q.144.21.408.318.27.108.642.108a2.2 2.2 0 0 0 .912-.186q.42-.186.894-.546l.03.678h-.222a8 8 0 0 1-.636.492q-.252.168-.636.294t-.852.126q-.57 0-.99-.198a1.5 1.5 0 0 1-.648-.57q-.228-.372-.228-.894 0-.828.564-1.254t1.452-.558 2.154-.12zm3.409-3.426.99 4.422h.102l1.062-3.474h.768l.99 3.474h.102l.984-4.422h1.044l-1.464 6.162h-1.008l-1.05-3.708h-.084l-1.122 3.708h-.936l-1.464-6.162zm9.775-.144q.78 0 1.308.192.528.186.804.618.276.426.276 1.14v3.054q0 .228.066.342a.3.3 0 0 0 .222.144q.156.03.444-.012v.828q-.408.12-.768.12-.396 0-.624-.138a.8.8 0 0 1-.324-.372 1.5 1.5 0 0 1-.09-.546l-.06-.102v-3.252q0-.48-.168-.744a.84.84 0 0 0-.462-.36 2.3 2.3 0 0 0-.744-.102 2.5 2.5 0 0 0-.726.102q-.3.09-.48.324-.174.228-.18.624v.264h-1.062v-.324q0-.834.624-1.314.624-.486 1.944-.486m1.698 3.57a8 8 0 0 0-.522-.054 5 5 0 0 0-.492-.024q-.732 0-1.236.12-.504.114-.774.372-.264.252-.264.666a.9.9 0 0 0 .138.516q.144.21.408.318.27.108.642.108a2.2 2.2 0 0 0 .912-.186q.42-.186.894-.546l.03.678h-.222a8 8 0 0 1-.636.492q-.252.168-.636.294t-.852.126q-.57 0-.99-.198a1.5 1.5 0 0 1-.648-.57q-.228-.372-.228-.894 0-.828.564-1.254t1.452-.558 2.154-.12zm5.318 2.736v-5.622l.27.36h-2.454v-.9l3.174-.138.15.144v6.156zm-2.184-.918h5.508v.918h-5.508zm2.532-6.798q-.246 0-.438-.09a.74.74 0 0 1-.294-.27.8.8 0 0 1-.108-.414q0-.354.228-.558.234-.21.612-.21.372 0 .6.21.234.204.234.558 0 .36-.234.57-.228.204-.6.204m10.291 1.554v.918h-5.76v-.918zm-1.434 6.282q-.93.006-1.476-.222a1.52 1.52 0 0 1-.804-.798q-.258-.57-.258-1.596v-5.598h1.14v5.544q0 .666.144 1.026t.462.504q.318.138.888.138.684 0 1.482-.204v.99a5 5 0 0 1-.756.156q-.408.06-.822.06m12.237 2.202h-1.134v-8.484h.96l.12 1.086h.054zm4.458-5.412q0 1.002-.294 1.728-.288.726-.846 1.116-.552.39-1.326.39-.642 0-1.116-.258a2.4 2.4 0 0 1-.798-.702h-.27v-.918q.408.492.84.708.438.21.912.21.558 0 .942-.252t.582-.756q.204-.51.204-1.266 0-.75-.198-1.248-.192-.498-.576-.75-.378-.252-.936-.252-.48 0-.912.21t-.858.696v-.912h.264q.366-.45.846-.702a2.36 2.36 0 0 1 1.122-.258q.774 0 1.314.396.54.39.822 1.11t.282 1.71m4.297-1.956h.054v5.04h-1.134v-5.508l.27.27h-1.908v-.918h2.598zm3.054-.144q-.81 0-1.326.066-.51.06-.966.252-.45.186-.966.582v-.996h.336q.51-.522 1.032-.768.522-.252 1.296-.252.324 0 .594.054zm-5.772 4.272h4.956v.918h-4.956zm9.728.918v-5.622l.27.36h-2.454v-.9l3.174-.138.15.144v6.156zm-2.184-.918h5.508v.918h-5.508zm2.532-6.798q-.246 0-.438-.09a.74.74 0 0 1-.294-.27.8.8 0 0 1-.108-.414q0-.354.228-.558.234-.21.612-.21.372 0 .6.21.234.204.234.558 0 .36-.234.57-.228.204-.6.204m7.687 1.41q.822 0 1.392.204.576.198.882.606.312.408.336 1.026l-1.032.072q-.06-.528-.474-.792-.408-.27-1.182-.27-.726 0-1.128.216-.396.216-.396.642a.6.6 0 0 0 .138.396q.144.162.444.288.3.12.858.252.222.042.432.09.894.186 1.398.39t.756.54q.258.33.258.858 0 .588-.312 1.02-.306.432-.918.672-.606.234-1.5.234-.876 0-1.482-.18a2.05 2.05 0 0 1-.966-.606q-.366-.426-.504-1.14l1.044-.132q.138.51.42.768t.636.336q.36.078.906.078.528 0 .876-.126t.504-.33a.75.75 0 0 0 .162-.468.56.56 0 0 0-.186-.438q-.186-.174-.588-.3a13 13 0 0 0-1.206-.294q-.78-.162-1.272-.384-.486-.222-.738-.564-.246-.342-.246-.858 0-.852.666-1.326.672-.48 2.022-.48m5.636 6.306h-1.032v-6.162h.864l.114 1.038h.054zm1.266 0v-4.776q0-.306-.138-.432a.5.5 0 0 0-.354-.132.76.76 0 0 0-.498.186q-.222.186-.426.504l-.162-.738h.318q.126-.27.312-.474.192-.204.438-.318.252-.12.552-.12.468 0 .726.282.264.276.264.834v5.184zm2.298 0v-4.776q0-.306-.138-.432a.5.5 0 0 0-.354-.132.76.76 0 0 0-.498.186 2.4 2.4 0 0 0-.426.504l-.126-.738h.33q.12-.276.3-.48.186-.204.426-.318.246-.114.546-.114.456 0 .714.282.264.276.264.834v5.184zm5.515-6.306q.78 0 1.308.192.528.186.804.618.276.426.276 1.14v3.054q0 .228.066.342a.3.3 0 0 0 .222.144q.156.03.444-.012v.828q-.408.12-.768.12-.396 0-.624-.138a.8.8 0 0 1-.324-.372 1.5 1.5 0 0 1-.09-.546l-.06-.102v-3.252q0-.48-.168-.744a.84.84 0 0 0-.462-.36 2.3 2.3 0 0 0-.744-.102 2.5 2.5 0 0 0-.726.102q-.3.09-.48.324-.174.228-.18.624v.264h-1.062v-.324q0-.834.624-1.314.624-.486 1.944-.486m1.698 3.57a8 8 0 0 0-.522-.054 5 5 0 0 0-.492-.024q-.732 0-1.236.12-.504.114-.774.372-.264.252-.264.666a.9.9 0 0 0 .138.516q.144.21.408.318.27.108.642.108a2.2 2.2 0 0 0 .912-.186q.42-.186.894-.546l.03.678h-.222a8 8 0 0 1-.636.492q-.252.168-.636.294t-.852.126q-.57 0-.99-.198a1.5 1.5 0 0 1-.648-.57q-.228-.372-.228-.894 0-.828.564-1.254t1.452-.558 2.154-.12zM74.491 96.631l1.14 4.458h.102l1.248-3.546h.738l1.182 3.546h.108l1.122-4.458h1.062l-1.626 6.162h-.99l-1.248-3.756h-.078l-1.302 3.756h-.936l-1.626-6.162zm7.994 6.162v-9.18h1.134v9.18zm4.038 0v-4.11q0-.474-.15-.756a.85.85 0 0 0-.408-.396 1.4 1.4 0 0 0-.588-.114q-.588 0-1.074.306-.48.3-.864.84v-1.05h.324q.276-.3.57-.522a2.62 2.62 0 0 1 1.566-.504q.552 0 .942.204.396.198.606.618t.21 1.074v4.41zm2.983-3.09q0-1.026.384-1.746.39-.726 1.098-1.098t1.656-.372q.876 0 1.494.306.618.3.942.912.33.612.33 1.506v.54h-5.034v-.756H94.6l-.3.258v-.246q0-.798-.462-1.194t-1.23-.396q-.924 0-1.434.588-.504.582-.504 1.698 0 1.134.504 1.722.504.582 1.434.582.6 0 1.026-.252t.648-.768l1.104.186a2.6 2.6 0 0 1-.606.966q-.39.396-.942.6-.552.198-1.236.198-.93 0-1.626-.372a2.6 2.6 0 0 1-1.086-1.098q-.384-.726-.384-1.764m10.31-1.956h.053v5.04h-1.134v-5.508l.27.27h-1.908v-.918h2.598zm3.053-.144q-.81 0-1.326.066-.51.06-.966.252-.45.186-.966.582v-.996h.336q.51-.522 1.032-.768.522-.252 1.296-.252.324 0 .594.054zm-5.772 4.272h4.956v.918h-4.956zm7.292-2.172q0-1.026.384-1.746.39-.726 1.098-1.098t1.656-.372q.876 0 1.494.306.618.3.942.912.33.612.33 1.506v.54h-5.034v-.756h4.224l-.3.258v-.246q0-.798-.462-1.194t-1.23-.396q-.924 0-1.434.588-.504.582-.504 1.698 0 1.134.504 1.722.504.582 1.434.582.6 0 1.026-.252t.648-.768l1.104.186a2.6 2.6 0 0 1-.606.966q-.39.396-.942.6-.552.198-1.236.198-.93 0-1.626-.372a2.6 2.6 0 0 1-1.086-1.098q-.384-.726-.384-1.764m29.765 0q0-1.026.384-1.746.39-.726 1.098-1.098t1.656-.372q.876 0 1.494.306.618.3.942.912.33.612.33 1.506v.54h-5.034v-.756h4.224l-.3.258v-.246q0-.798-.462-1.194t-1.23-.396q-.924 0-1.434.588-.504.582-.504 1.698 0 1.134.504 1.722.504.582 1.434.582.6 0 1.026-.252t.648-.768l1.104.186a2.6 2.6 0 0 1-.606.966q-.39.396-.942.6-.552.198-1.236.198-.93 0-1.626-.372a2.6 2.6 0 0 1-1.086-1.098q-.384-.726-.384-1.764m8.666 3.09h-1.032v-6.162h.864l.114 1.038h.054zm1.266 0v-4.776q0-.306-.138-.432a.5.5 0 0 0-.354-.132.76.76 0 0 0-.498.186q-.222.186-.426.504l-.162-.738h.318q.126-.27.312-.474.192-.204.438-.318.252-.12.552-.12.468 0 .726.282.264.276.264.834v5.184zm2.298 0v-4.776q0-.306-.138-.432a.5.5 0 0 0-.354-.132.76.76 0 0 0-.498.186 2.4 2.4 0 0 0-.426.504l-.126-.738h.33q.12-.276.3-.48.186-.204.426-.318.246-.114.546-.114.456 0 .714.282.264.276.264.834v5.184zm5.515-6.306q.78 0 1.308.192.528.186.804.618.276.426.276 1.14v3.054q0 .228.066.342a.3.3 0 0 0 .222.144q.156.03.444-.012v.828q-.408.12-.768.12-.396 0-.624-.138a.8.8 0 0 1-.324-.372 1.5 1.5 0 0 1-.09-.546l-.06-.102v-3.252q0-.48-.168-.744a.84.84 0 0 0-.462-.36 2.3 2.3 0 0 0-.744-.102 2.5 2.5 0 0 0-.726.102q-.3.09-.48.324-.174.228-.18.624v.264h-1.062v-.324q0-.834.624-1.314.624-.486 1.944-.486m1.698 3.57a8 8 0 0 0-.522-.054 5 5 0 0 0-.492-.024q-.732 0-1.236.12-.504.114-.774.372-.264.252-.264.666a.9.9 0 0 0 .138.516q.144.21.408.318.27.108.642.108a2.2 2.2 0 0 0 .912-.186q.42-.186.894-.546l.03.678h-.222a8 8 0 0 1-.636.492q-.252.168-.636.294t-.852.126q-.57 0-.99-.198a1.5 1.5 0 0 1-.648-.57q-.228-.372-.228-.894 0-.828.564-1.254t1.452-.558 2.154-.12zm5.318 2.736v-5.622l.27.36h-2.454v-.9l3.174-.138.15.144v6.156zm-2.184-.918h5.508v.918h-5.508zm2.532-6.798q-.246 0-.438-.09a.74.74 0 0 1-.294-.27.8.8 0 0 1-.108-.414q0-.354.228-.558.234-.21.612-.21.372 0 .6.21.234.204.234.558 0 .36-.234.57-.228.204-.6.204m4.909 6.798h5.508v.918h-5.508zm2.184.918.006-8.634.27.354h-2.46v-.9l3.174-.132.15.138v9.174zm-76.982 41.838 1.14 4.458h.102l1.248-3.546h.738l1.182 3.546h.108l1.122-4.458h1.062l-1.626 6.162h-.99l-1.248-3.756h-.078l-1.302 3.756h-.936l-1.626-6.162zm7.993 6.162v-9.18h1.134v9.18zm4.038 0v-4.11q0-.474-.15-.756a.85.85 0 0 0-.408-.396 1.4 1.4 0 0 0-.588-.114q-.588 0-1.074.306-.48.3-.864.84v-1.05h.324q.276-.3.57-.522a2.62 2.62 0 0 1 1.566-.504q.552 0 .942.204.396.198.606.618t.21 1.074v4.41zm2.984-3.09q0-1.026.384-1.746.39-.726 1.098-1.098t1.656-.372q.876 0 1.494.306.618.3.942.912.33.612.33 1.506v.54h-5.034v-.756h4.224l-.3.258v-.246q0-.798-.462-1.194t-1.23-.396q-.924 0-1.434.588-.504.582-.504 1.698 0 1.134.504 1.722.504.582 1.434.582.6 0 1.026-.252t.648-.768l1.104.186a2.6 2.6 0 0 1-.606.966q-.39.396-.942.6-.552.198-1.236.198-.93 0-1.626-.372a2.6 2.6 0 0 1-1.086-1.098q-.384-.726-.384-1.764m10.309-1.956h.054v5.04h-1.134v-5.508l.27.27h-1.908v-.918h2.598zm3.054-.144q-.81 0-1.326.066-.51.06-.966.252-.45.186-.966.582v-.996h.336q.51-.522 1.032-.768.522-.252 1.296-.252.324 0 .594.054zm-5.772 4.272h4.956v.918h-4.956zm7.292-2.172q0-1.026.384-1.746.39-.726 1.098-1.098t1.656-.372q.876 0 1.494.306.618.3.942.912.33.612.33 1.506v.54h-5.034v-.756h4.224l-.3.258v-.246q0-.798-.462-1.194t-1.23-.396q-.924 0-1.434.588-.504.582-.504 1.698 0 1.134.504 1.722.504.582 1.434.582.6 0 1.026-.252t.648-.768l1.104.186a2.6 2.6 0 0 1-.606.966q-.39.396-.942.6-.552.198-1.236.198-.93 0-1.626-.372a2.6 2.6 0 0 1-1.086-1.098q-.384-.726-.384-1.764m5.634 12.928v.918h-5.76v-.918zm-1.434 6.282q-.93.006-1.476-.222a1.52 1.52 0 0 1-.804-.798q-.258-.57-.258-1.596v-5.598h1.14v5.544q0 .666.144 1.026t.462.504q.318.138.888.138.684 0 1.482-.204v.99a5 5 0 0 1-.756.156q-.408.06-.822.06m5.677-.12v-5.622l.27.36h-2.454v-.9l3.174-.138.15.144v6.156zm-2.184-.918h5.508v.918h-5.508zm2.532-6.798q-.246 0-.438-.09a.74.74 0 0 1-.294-.27.8.8 0 0 1-.108-.414q0-.354.228-.558.234-.21.612-.21.372 0 .6.21.234.204.234.558 0 .36-.234.57-.228.204-.6.204m10.291 1.554v.918h-5.76v-.918zm-1.434 6.282q-.93.006-1.476-.222a1.52 1.52 0 0 1-.804-.798q-.258-.57-.258-1.596v-5.598h1.14v5.544q0 .666.144 1.026t.462.504q.318.138.888.138.684 0 1.482-.204v.99a5 5 0 0 1-.756.156q-.408.06-.822.06m3.494-1.038h5.508v.918h-5.508zm2.184.918.006-8.634.27.354h-2.46v-.9l3.174-.132.15.138v9.174zm5.005-3.09q0-1.026.384-1.746.39-.726 1.098-1.098t1.656-.372q.876 0 1.494.306.618.3.942.912.33.612.33 1.506v.54h-5.034v-.756h4.224l-.3.258v-.246q0-.798-.462-1.194t-1.23-.396q-.924 0-1.434.588-.504.582-.504 1.698 0 1.134.504 1.722.504.582 1.434.582.6 0 1.026-.252t.648-.768l1.104.186a2.6 2.6 0 0 1-.606.966q-.39.396-.942.6-.552.198-1.236.198-.93 0-1.626-.372a2.6 2.6 0 0 1-1.086-1.098q-.384-.726-.384-1.764"/><path fill="#9ca3af" d="M137.16 71.003q-.306 0-.558-.132a1 1 0 0 1-.402-.378q-.15-.246-.15-.576t.15-.57a.97.97 0 0 1 .402-.372q.252-.132.558-.132.312 0 .564.132.252.126.396.372.15.24.15.57t-.15.576a.97.97 0 0 1-.396.378 1.2 1.2 0 0 1-.564.132m8.894-6.372h1.134v6.162h-.96l-.12-1.038h-.054zm-2.904 0v4.104q0 .48.15.762a.86.86 0 0 0 .402.39q.258.114.594.114.594 0 1.08-.3t.882-.84v1.05h-.282q-.438.468-.948.744t-1.224.276q-.558 0-.96-.198a1.37 1.37 0 0 1-.612-.618q-.216-.42-.216-1.074v-4.41zm8.917-.144q.822 0 1.392.204.576.198.882.606.312.408.336 1.026l-1.032.072q-.06-.528-.474-.792-.408-.27-1.182-.27-.726 0-1.128.216-.396.216-.396.642a.6.6 0 0 0 .138.396q.144.162.444.288.3.12.858.252.222.042.432.09.894.186 1.398.39t.756.54q.258.33.258.858 0 .588-.312 1.02-.306.432-.918.672-.606.234-1.5.234-.876 0-1.482-.18a2.05 2.05 0 0 1-.966-.606q-.366-.426-.504-1.14l1.044-.132q.138.51.42.768t.636.336q.36.078.906.078.528 0 .876-.126t.504-.33a.75.75 0 0 0 .162-.468.56.56 0 0 0-.186-.438q-.186-.174-.588-.3a13 13 0 0 0-1.206-.294q-.78-.162-1.272-.384-.486-.222-.738-.564-.246-.342-.246-.858 0-.852.666-1.326.672-.48 2.022-.48m4.412 3.216q0-1.026.384-1.746.39-.726 1.098-1.098t1.656-.372q.876 0 1.494.306.618.3.942.912.33.612.33 1.506v.54h-5.034v-.756h4.224l-.3.258v-.246q0-.798-.462-1.194t-1.23-.396q-.924 0-1.434.588-.504.582-.504 1.698 0 1.134.504 1.722.504.582 1.434.582.6 0 1.026-.252t.648-.768l1.104.186a2.6 2.6 0 0 1-.606.966q-.39.396-.942.6-.552.198-1.236.198-.93 0-1.626-.372a2.6 2.6 0 0 1-1.086-1.098q-.384-.726-.384-1.764m10.309-1.956h.054v5.04h-1.134v-5.508l.27.27h-1.908v-.918h2.598zm3.054-.144q-.81 0-1.326.066-.51.06-.966.252-.45.186-.966.582v-.996h.336q.51-.522 1.032-.768.522-.252 1.296-.252.324 0 .594.054zm-5.772 4.272h4.956v.918h-4.956zM62.746 87.003q-.306 0-.558-.132a1 1 0 0 1-.402-.378q-.15-.246-.15-.576t.15-.57a.97.97 0 0 1 .402-.372q.252-.132.558-.132.312 0 .564.132.252.126.396.372.15.24.15.57t-.15.576a.97.97 0 0 1-.396.378 1.2 1.2 0 0 1-.564.132m10.448-8.664a7 7 0 0 0-.696-.132 5 5 0 0 0-.678-.042q-.564 0-.918.144a1.02 1.02 0 0 0-.546.522q-.186.384-.186 1.104v6.858h-1.134v-6.756q0-1.044.324-1.68t.93-.918 1.5-.282a5.2 5.2 0 0 1 1.404.192zm-5.79 7.536h4.95v.918h-4.95zm5.568-4.326h-5.916v-.918h5.916zm4.087 5.244v-5.622l.27.36h-2.454v-.9l3.174-.138.15.144v6.156zm-2.184-.918h5.508v.918h-5.508zm2.532-6.798q-.246 0-.438-.09a.74.74 0 0 1-.294-.27.8.8 0 0 1-.108-.414q0-.354.228-.558.234-.21.612-.21.372 0 .6.21.234.204.234.558 0 .36-.234.57-.228.204-.6.204m6.212 7.716h-1.134v-6.162h.96l.12 1.038h.054zm2.904 0v-4.11q0-.474-.15-.756a.85.85 0 0 0-.408-.396 1.4 1.4 0 0 0-.588-.114q-.594 0-1.08.306-.486.3-.882.84v-1.05h.282q.438-.468.948-.744.51-.282 1.224-.282.558 0 .954.204.402.198.618.618t.216 1.074v4.41zm7.441-9.18h1.134v9.18h-.96l-.126-1.11h-.048zm-4.458 6.114q0-1.002.288-1.728.294-.732.846-1.122.558-.39 1.332-.39.642 0 1.116.258t.798.702h.27v.918q-.408-.492-.846-.702a2 2 0 0 0-.906-.216q-.558 0-.942.252t-.588.762q-.198.504-.198 1.266 0 .744.192 1.242.198.498.576.756.384.252.942.252.48 0 .912-.21t.858-.702v.918h-.264q-.366.444-.852.702-.48.258-1.116.258-.774 0-1.314-.39-.54-.396-.822-1.116-.282-.726-.282-1.71m10.447 2.202q.684 0 1.038-.258a1.24 1.24 0 0 0 .474-.696q.12-.438.12-1.158v-5.784h1.158v6.108q0 1.296-.666 2.046-.666.744-2.124.744t-2.124-.744q-.666-.75-.666-2.046v-6.108h1.158v5.784q0 .72.12 1.158t.474.696 1.038.258m5.99.864h-1.134v-6.162h.96l.12 1.038h.054zm2.904 0v-4.11q0-.474-.15-.756a.85.85 0 0 0-.408-.396 1.4 1.4 0 0 0-.588-.114q-.594 0-1.08.306-.486.3-.882.84v-1.05h.282q.438-.468.948-.744.51-.282 1.224-.282.558 0 .954.204.402.198.618.618t.216 1.074v4.41zm5.419 0v-5.622l.27.36h-2.454v-.9l3.174-.138.15.144v6.156zm-2.184-.918h5.508v.918h-5.508zm2.532-6.798q-.246 0-.438-.09a.74.74 0 0 1-.294-.27.8.8 0 0 1-.108-.414q0-.354.228-.558.234-.21.612-.21.372 0 .6.21.234.204.234.558 0 .36-.234.57-.228.204-.6.204m9.17 2.64.12-1.086h.96v8.484h-1.134v-7.398zm-4.512 2.004q0-1.002.288-1.728.294-.726.846-1.116.558-.39 1.332-.39.642 0 1.116.258.474.252.798.696h.27v.918q-.408-.486-.846-.696a2 2 0 0 0-.906-.216q-.558 0-.942.252t-.588.762q-.198.504-.198 1.26 0 .744.192 1.248.198.498.576.75.384.252.942.252.48 0 .912-.21t.858-.702v.918h-.264q-.366.444-.852.702-.48.258-1.116.258-.774 0-1.314-.39-.54-.396-.822-1.116-.282-.726-.282-1.71m11.899-3.09h1.134v6.162h-.96l-.12-1.038h-.054zm-2.904 0v4.104q0 .48.15.762a.86.86 0 0 0 .402.39q.258.114.594.114.594 0 1.08-.3t.882-.84v1.05h-.282q-.438.468-.948.744t-1.224.276q-.558 0-.96-.198a1.37 1.37 0 0 1-.612-.618q-.216-.42-.216-1.074v-4.41zm5.887 3.072q0-1.026.384-1.746.39-.726 1.098-1.098t1.656-.372q.876 0 1.494.306.618.3.942.912.33.612.33 1.506v.54h-5.034v-.756h4.224l-.3.258v-.246q0-.798-.462-1.194t-1.23-.396q-.924 0-1.434.588-.504.582-.504 1.698 0 1.134.504 1.722.504.582 1.434.582.6 0 1.026-.252t.648-.768l1.104.186a2.6 2.6 0 0 1-.606.966q-.39.396-.942.6-.552.198-1.236.198-.93 0-1.626-.372a2.6 2.6 0 0 1-1.086-1.098q-.384-.726-.384-1.764m-19.3 19.27q-.312 0-.564-.132a.97.97 0 0 1-.402-.372 1.1 1.1 0 0 1-.144-.576q0-.33.144-.576a.97.97 0 0 1 .402-.372q.252-.132.564-.132.306 0 .558.132.252.126.396.372.15.246.15.576 0 .324-.15.576a.94.94 0 0 1-.396.372 1.2 1.2 0 0 1-.558.132m0-4.668q-.312 0-.564-.132a1 1 0 0 1-.402-.378 1.1 1.1 0 0 1-.144-.57 1.1 1.1 0 0 1 .144-.576.97.97 0 0 1 .402-.372q.252-.132.564-.132.306 0 .558.132.252.126.396.372.15.24.15.576 0 .324-.15.57a.97.97 0 0 1-.396.378 1.2 1.2 0 0 1-.558.132m59.531 4.668q-.312 0-.564-.132a.97.97 0 0 1-.402-.372 1.1 1.1 0 0 1-.144-.576q0-.33.144-.576a.97.97 0 0 1 .402-.372q.252-.132.564-.132.306 0 .558.132.252.126.396.372.15.246.15.576 0 .324-.15.576a.94.94 0 0 1-.396.372 1.2 1.2 0 0 1-.558.132m0-4.668q-.312 0-.564-.132a1 1 0 0 1-.402-.378 1.1 1.1 0 0 1-.144-.57 1.1 1.1 0 0 1 .144-.576.97.97 0 0 1 .402-.372q.252-.132.564-.132.306 0 .558.132.252.126.396.372.15.24.15.576 0 .324-.15.57a.97.97 0 0 1-.396.378 1.2 1.2 0 0 1-.558.132m143.475.948q-1.044 0-1.728-.318t-.942-.942-.036-1.53l.108-.456q.18-.738.078-1.164-.096-.426-.42-.606-.318-.18-.87-.18h-1.224v-.876h1.62q.858 0 1.374.312.522.312.672.918t-.084 1.47l-.12.432q-.204.768-.03 1.278.174.504.768.768.6.264 1.656.276v1.104q-1.056.012-1.656.276-.594.264-.768.774-.174.504.03 1.272l.12.426q.234.87.084 1.476-.144.606-.666.918t-1.38.312h-1.62v-.882h1.224q.552 0 .87-.18.324-.174.42-.6.102-.426-.078-1.164l-.108-.462q-.216-.906.036-1.53.258-.624.942-.936.684-.318 1.728-.318zm-255.114 35.75q-.306 0-.558-.132a1 1 0 0 1-.402-.378q-.15-.246-.15-.576t.15-.57a.97.97 0 0 1 .402-.372q.252-.132.558-.132.312 0 .564.132.252.126.396.372.15.24.15.57t-.15.576a.97.97 0 0 1-.396.378 1.2 1.2 0 0 1-.564.132m5.99 2.112h-1.134v-8.484h.96l.12 1.086h.054zm4.458-5.412q0 1.002-.294 1.728-.288.726-.846 1.116-.552.39-1.326.39-.642 0-1.116-.258a2.4 2.4 0 0 1-.798-.702h-.27v-.918q.408.492.84.708.438.21.912.21.558 0 .942-.252t.582-.756q.204-.51.204-1.266 0-.75-.198-1.248-.192-.498-.576-.75-.378-.252-.936-.252-.48 0-.912.21t-.858.696v-.912h.264q.366-.45.846-.702a2.36 2.36 0 0 1 1.122-.258q.774 0 1.314.396.54.39.822 1.11t.282 1.71m7.441.018q0 1.044-.396 1.77a2.64 2.64 0 0 1-1.08 1.086q-.684.36-1.53.36t-1.53-.36a2.7 2.7 0 0 1-1.08-1.086q-.396-.726-.396-1.77 0-1.038.396-1.77a2.67 2.67 0 0 1 1.08-1.098 3.2 3.2 0 0 1 1.53-.366q.846 0 1.53.366t1.08 1.098q.396.726.396 1.77m-1.17 0q0-.768-.234-1.284-.228-.516-.642-.768a1.8 1.8 0 0 0-.96-.252q-.552 0-.966.252t-.648.768q-.228.516-.228 1.284 0 .762.228 1.278.234.51.642.762.414.246.972.246t.966-.246q.408-.252.636-.762.234-.516.234-1.278m5.63-3.234q.822 0 1.392.204.576.198.882.606.312.408.336 1.026l-1.032.072q-.06-.528-.474-.792-.408-.27-1.182-.27-.726 0-1.128.216-.396.216-.396.642a.6.6 0 0 0 .138.396q.144.162.444.288.3.12.858.252.222.042.432.09.894.186 1.398.39t.756.54q.258.33.258.858 0 .588-.312 1.02-.306.432-.918.672-.606.234-1.5.234-.876 0-1.482-.18a2.05 2.05 0 0 1-.966-.606q-.366-.426-.504-1.14l1.044-.132q.138.51.42.768t.636.336q.36.078.906.078.528 0 .876-.126t.504-.33a.75.75 0 0 0 .162-.468.56.56 0 0 0-.186-.438q-.186-.174-.588-.3a13 13 0 0 0-1.206-.294q-.78-.162-1.272-.384-.486-.222-.738-.564-.246-.342-.246-.858 0-.852.666-1.326.672-.48 2.022-.48m10.045.144v.918h-5.76v-.918zm-1.434 6.282q-.93.006-1.476-.222a1.52 1.52 0 0 1-.804-.798q-.258-.57-.258-1.596v-5.598h1.14v5.544q0 .666.144 1.026t.462.504q.318.138.888.138.684 0 1.482-.204v.99a5 5 0 0 1-.756.156q-.408.06-.822.06m6.271-6.426q.822 0 1.392.204.576.198.882.606.312.408.336 1.026l-1.032.072q-.06-.528-.474-.792-.408-.27-1.182-.27-.726 0-1.128.216-.396.216-.396.642a.6.6 0 0 0 .138.396q.144.162.444.288.3.12.858.252.222.042.432.09.894.186 1.398.39t.756.54q.258.33.258.858 0 .588-.312 1.02-.306.432-.918.672-.606.234-1.5.234-.876 0-1.482-.18a2.05 2.05 0 0 1-.966-.606q-.366-.426-.504-1.14l1.044-.132q.138.51.42.768t.636.336q.36.078.906.078.528 0 .876-.126t.504-.33a.75.75 0 0 0 .162-.468.56.56 0 0 0-.186-.438q-.186-.174-.588-.3a13 13 0 0 0-1.206-.294q-.78-.162-1.272-.384-.486-.222-.738-.564-.246-.342-.246-.858 0-.852.666-1.326.672-.48 2.022-.48m29.76 22.486q-.312 0-.564-.132a.97.97 0 0 1-.402-.372 1.1 1.1 0 0 1-.144-.576q0-.33.144-.576a.97.97 0 0 1 .402-.372q.252-.132.564-.132.306 0 .558.132.252.126.396.372.15.246.15.576 0 .324-.15.576a.94.94 0 0 1-.396.372 1.2 1.2 0 0 1-.558.132m0-4.668q-.312 0-.564-.132a1 1 0 0 1-.402-.378 1.1 1.1 0 0 1-.144-.57 1.1 1.1 0 0 1 .144-.576.97.97 0 0 1 .402-.372q.252-.132.564-.132.306 0 .558.132.252.126.396.372.15.24.15.576 0 .324-.15.57a.97.97 0 0 1-.396.378 1.2 1.2 0 0 1-.558.132m29.766 20.668q-.312 0-.564-.132a.97.97 0 0 1-.402-.372 1.1 1.1 0 0 1-.144-.576q0-.33.144-.576a.97.97 0 0 1 .402-.372q.252-.132.564-.132.306 0 .558.132.252.126.396.372.15.246.15.576 0 .324-.15.576a.94.94 0 0 1-.396.372 1.2 1.2 0 0 1-.558.132m0-4.668q-.312 0-.564-.132a1 1 0 0 1-.402-.378 1.1 1.1 0 0 1-.144-.57 1.1 1.1 0 0 1 .144-.576.97.97 0 0 1 .402-.372q.252-.132.564-.132.306 0 .558.132.252.126.396.372.15.24.15.576 0 .324-.15.57a.97.97 0 0 1-.396.378 1.2 1.2 0 0 1-.558.132"/><path fill="#6b7280" d="M144.2 83.187q0 1.422.384 2.508a6.6 6.6 0 0 0 1.008 1.884q.63.798 1.554 1.614h-1.074a10 10 0 0 1-1.512-1.458q-.648-.786-1.074-1.92-.426-1.14-.426-2.628 0-1.482.426-2.616.426-1.14 1.08-1.932a9.7 9.7 0 0 1 1.506-1.458h1.074a12.6 12.6 0 0 0-1.554 1.614 6.6 6.6 0 0 0-1.008 1.884q-.384 1.086-.384 2.508m5.737-.066q1.044 0 1.728.318.684.312.936.936.258.624.042 1.53l-.108.462q-.18.738-.084 1.164.102.426.42.6.324.18.876.18h1.224v.882h-1.62q-.858 0-1.38-.312a1.43 1.43 0 0 1-.672-.918q-.144-.606.09-1.476l.12-.426q.204-.768.03-1.272-.174-.51-.774-.774-.594-.264-1.65-.276v-1.104q1.056-.012 1.65-.276.6-.264.774-.768.174-.51-.03-1.278l-.12-.432q-.234-.864-.084-1.47t.666-.918q.522-.312 1.38-.312h1.62v.876h-1.224q-.552 0-.876.18-.318.18-.42.606-.096.426.084 1.164l.108.456q.222.906-.036 1.53t-.942.942-1.728.318zm-22.324 16q1.044 0 1.728.318.684.312.936.936.258.624.042 1.53l-.108.462q-.18.738-.084 1.164.102.426.42.6.324.18.876.18h1.224v.882h-1.62q-.858 0-1.38-.312a1.43 1.43 0 0 1-.672-.918q-.144-.606.09-1.476l.12-.426q.204-.768.03-1.272-.174-.51-.774-.774-.594-.264-1.65-.276v-1.104q1.056-.012 1.65-.276.6-.264.774-.768.174-.51-.03-1.278l-.12-.432q-.234-.864-.084-1.47t.666-.918q.522-.312 1.38-.312h1.62v.876h-1.224q-.552 0-.876.18-.318.18-.42.606-.096.426.084 1.164l.108.456q.222.906-.036 1.53t-.942.942-1.728.318zm-62.76 16.132q-1.045 0-1.729-.318t-.942-.942-.036-1.53l.108-.456q.18-.738.078-1.164-.096-.426-.42-.606-.318-.18-.87-.18h-1.224v-.876h1.62q.858 0 1.374.312.522.312.672.918t-.084 1.47l-.12.432q-.204.768-.03 1.278.174.504.768.768.6.264 1.656.276v1.104q-1.056.012-1.656.276-.594.264-.768.774-.174.504.03 1.272l.12.426q.234.87.084 1.476-.144.606-.666.918t-1.38.312h-1.62v-.882h1.224q.552 0 .87-.18.324-.174.42-.6.102-.426-.078-1.164l-.108-.462q-.216-.906.036-1.53.258-.624.942-.936.684-.318 1.728-.318zm5.737-.066q0-1.422-.384-2.508a6.5 6.5 0 0 0-1.014-1.884 12.3 12.3 0 0 0-1.548-1.614h1.074a9.7 9.7 0 0 1 1.506 1.458q.654.786 1.08 1.926.426 1.134.426 2.622 0 1.482-.426 2.622-.426 1.134-1.08 1.926a9.7 9.7 0 0 1-1.506 1.458h-1.074a12.3 12.3 0 0 0 1.548-1.614 6.5 6.5 0 0 0 1.014-1.884q.384-1.086.384-2.508m36.403 16q0 1.422.384 2.508a6.6 6.6 0 0 0 1.008 1.884q.63.798 1.554 1.614h-1.074a10 10 0 0 1-1.512-1.458q-.648-.786-1.074-1.92-.426-1.14-.426-2.628 0-1.482.426-2.616.426-1.14 1.08-1.932a9.7 9.7 0 0 1 1.506-1.458h1.074a12.6 12.6 0 0 0-1.554 1.614 6.6 6.6 0 0 0-1.008 1.884q-.384 1.086-.384 2.508m5.737-.066q1.044 0 1.728.318.684.312.936.936.258.624.042 1.53l-.108.462q-.18.738-.084 1.164.102.426.42.6.324.18.876.18h1.224v.882h-1.62q-.858 0-1.38-.312a1.43 1.43 0 0 1-.672-.918q-.144-.606.09-1.476l.12-.426q.204-.768.03-1.272-.174-.51-.774-.774-.594-.264-1.65-.276v-1.104q1.056-.012 1.65-.276.6-.264.774-.768.174-.51-.03-1.278l-.12-.432q-.234-.864-.084-1.47t.666-.918q.522-.312 1.38-.312h1.62v.876h-1.224q-.552 0-.876.18-.318.18-.42.606-.096.426.084 1.164l.108.456q.222.906-.036 1.53t-.942.942-1.728.318zm29.766 16q1.044 0 1.728.318.684.312.936.936.258.624.042 1.53l-.108.462q-.18.738-.084 1.164.102.426.42.6.324.18.876.18h1.224v.882h-1.62q-.858 0-1.38-.312a1.43 1.43 0 0 1-.672-.918q-.144-.606.09-1.476l.12-.426q.204-.768.03-1.272-.174-.51-.774-.774-.594-.264-1.65-.276v-1.104q1.056-.012 1.65-.276.6-.264.774-.768.174-.51-.03-1.278l-.12-.432q-.234-.864-.084-1.47t.666-.918q.522-.312 1.38-.312h1.62v.876h-1.224q-.552 0-.876.18-.318.18-.42.606-.096.426.084 1.164l.108.456q.222.906-.036 1.53t-.942.942-1.728.318zm29.765 16q1.044 0 1.728.318.684.312.936.936.258.624.042 1.53l-.108.462q-.18.738-.084 1.164.102.426.42.6.324.18.876.18h1.224v.882h-1.62q-.858 0-1.38-.312a1.43 1.43 0 0 1-.672-.918q-.144-.606.09-1.476l.12-.426q.204-.768.03-1.272-.174-.51-.774-.774-.594-.264-1.65-.276v-1.104q1.056-.012 1.65-.276.6-.264.774-.768.174-.51-.03-1.278l-.12-.432q-.234-.864-.084-1.47t.666-.918q.522-.312 1.38-.312h1.62v.876h-1.224q-.552 0-.876.18-.318.18-.42.606-.096.426.084 1.164l.108.456q.222.906-.036 1.53t-.942.942-1.728.318zm-20.8 22.072v-12.012h1.164v12.012zm-27.077 10.06q-1.044 0-1.728-.318t-.942-.942-.036-1.53l.108-.456q.18-.738.078-1.164-.096-.426-.42-.606-.318-.18-.87-.18h-1.224v-.876h1.62q.858 0 1.374.312.522.312.672.918t-.084 1.47l-.12.432q-.204.768-.03 1.278.174.504.768.768.6.264 1.656.276v1.104q-1.056.012-1.656.276-.594.264-.768.774-.174.504.03 1.272l.12.426q.234.87.084 1.476-.144.606-.666.918t-1.38.312h-1.62v-.882h1.224q.552 0 .87-.18.324-.174.42-.6.102-.426-.078-1.164l-.108-.462q-.216-.906.036-1.53.258-.624.942-.936.684-.318 1.728-.318zm-29.766 16q-1.044 0-1.728-.318t-.942-.942-.036-1.53l.108-.456q.18-.738.078-1.164-.096-.426-.42-.606-.318-.18-.87-.18h-1.224v-.876h1.62q.858 0 1.374.312.522.312.672.918t-.084 1.47l-.12.432q-.204.768-.03 1.278.174.504.768.768.6.264 1.656.276v1.104q-1.056.012-1.656.276-.594.264-.768.774-.174.504.03 1.272l.12.426q.234.87.084 1.476-.144.606-.666.918t-1.38.312h-1.62v-.882h1.224q.552 0 .87-.18.324-.174.42-.6.102-.426-.078-1.164l-.108-.462q-.216-.906.036-1.53.258-.624.942-.936.684-.318 1.728-.318zm-29.766 16q-1.044 0-1.728-.318t-.942-.942-.036-1.53l.108-.456q.18-.738.078-1.164-.096-.426-.42-.606-.318-.18-.87-.18h-1.224v-.876h1.62q.858 0 1.374.312.522.312.672.918t-.084 1.47l-.12.432q-.204.768-.03 1.278.174.504.768.768.6.264 1.656.276v1.104q-1.056.012-1.656.276-.594.264-.768.774-.174.504.03 1.272l.12.426q.234.87.084 1.476-.144.606-.666.918t-1.38.312h-1.62v-.882h1.224q.552 0 .87-.18.324-.174.42-.6.102-.426-.078-1.164l-.108-.462q-.216-.906.036-1.53.258-.624.942-.936.684-.318 1.728-.318zm5.738-.066q0-1.422-.384-2.508a6.5 6.5 0 0 0-1.014-1.884 12.3 12.3 0 0 0-1.548-1.614h1.074a9.7 9.7 0 0 1 1.506 1.458q.654.786 1.08 1.926.426 1.134.426 2.622 0 1.482-.426 2.622-.426 1.134-1.08 1.926a9.7 9.7 0 0 1-1.506 1.458h-1.074a12.3 12.3 0 0 0 1.548-1.614 6.5 6.5 0 0 0 1.014-1.884q.384-1.086.384-2.508"/><path fill="#fb923c" d="m188.788 98.023-.114-3.99h1.152l-.102 3.99zm7.76-1.536q.78 0 1.308.192.528.186.804.618.276.426.276 1.14v3.054q0 .228.066.342a.3.3 0 0 0 .222.144q.156.03.444-.012v.828q-.408.12-.768.12-.396 0-.624-.138a.8.8 0 0 1-.324-.372 1.5 1.5 0 0 1-.09-.546l-.06-.102v-3.252q0-.48-.168-.744a.84.84 0 0 0-.462-.36 2.3 2.3 0 0 0-.744-.102 2.5 2.5 0 0 0-.726.102q-.3.09-.48.324-.174.228-.18.624v.264h-1.062v-.324q0-.834.624-1.314.624-.486 1.944-.486m1.698 3.57a8 8 0 0 0-.522-.054 5 5 0 0 0-.492-.024q-.732 0-1.236.12-.504.114-.774.372-.264.252-.264.666a.9.9 0 0 0 .138.516q.144.21.408.318.27.108.642.108a2.2 2.2 0 0 0 .912-.186q.42-.186.894-.546l.03.678h-.222a8 8 0 0 1-.636.492q-.252.168-.636.294t-.852.126q-.57 0-.99-.198a1.5 1.5 0 0 1-.648-.57q-.228-.372-.228-.894 0-.828.564-1.254t1.452-.558 2.154-.12zm3.133 1.818h5.508v.918h-5.508zm2.184.918.006-8.634.27.354h-2.46v-.9l3.174-.132.15.138v9.174zm7.441 0v-5.622l.27.36h-2.454v-.9l3.174-.138.15.144v6.156zm-2.184-.918h5.508v.918h-5.508zm2.532-6.798q-.246 0-.438-.09a.74.74 0 0 1-.294-.27.8.8 0 0 1-.108-.414q0-.354.228-.558.234-.21.612-.21.372 0 .6.21.234.204.234.558 0 .36-.234.57-.228.204-.6.204m10.604 5.838a2.6 2.6 0 0 1-.576 1.122q-.402.45-.99.678a3.7 3.7 0 0 1-1.302.222q-.924 0-1.62-.366a2.6 2.6 0 0 1-1.074-1.098q-.384-.732-.384-1.776 0-1.05.39-1.77.396-.72 1.098-1.08.708-.36 1.65-.36.768 0 1.374.24t.978.732q.378.492.456 1.212l-1.122.096q-.102-.684-.558-1.014-.45-.336-1.158-.336-.954 0-1.446.588-.492.582-.492 1.692 0 .768.228 1.284.234.516.66.774.432.252 1.026.252.678 0 1.122-.318.45-.324.642-.948zm1.495-1.212q0-1.026.384-1.746.39-.726 1.098-1.098t1.656-.372q.876 0 1.494.306.618.3.942.912.33.612.33 1.506v.54h-5.034v-.756h4.224l-.3.258v-.246q0-.798-.462-1.194t-1.23-.396q-.924 0-1.434.588-.504.582-.504 1.698 0 1.134.504 1.722.504.582 1.434.582.6 0 1.026-.252t.648-.768l1.104.186a2.6 2.6 0 0 1-.606.966q-.39.396-.942.6-.552.198-1.236.198-.93 0-1.626-.372a2.6 2.6 0 0 1-1.086-1.098q-.384-.726-.384-1.764m12.512-2.376q0-.84-.204-1.362-.204-.528-.618-.768-.414-.246-1.068-.246-.792 0-1.338.36-.546.354-.834 1.104-.282.744-.282 1.896v2.838q0 1.248.348 1.962.354.72.96 1.002.612.288 1.488.288.648 0 1.23-.126a7.5 7.5 0 0 0 1.17-.354l.006.87a6.2 6.2 0 0 1-2.448.468q-1.152 0-1.956-.378-.804-.372-1.248-1.278t-.444-2.448v-2.778q0-1.446.372-2.4.378-.954 1.122-1.422t1.854-.468q.966 0 1.584.372.624.366.93 1.146t.306 2.028v3.768q0 .3.036.438.036.132.132.162a.6.6 0 0 0 .276-.024v.828a1.07 1.07 0 0 1-.534.132q-.306 0-.486-.15a.8.8 0 0 1-.252-.414 2.5 2.5 0 0 1-.054-.66h-.048zm-3.048 1.776q0-.948.198-1.53.204-.582.564-.834.366-.252.87-.252.312 0 .546.09.234.084.414.234t.372.384h.21v.99q-.246-.468-.528-.654a1.1 1.1 0 0 0-.648-.192q-.36 0-.588.174-.222.174-.336.606t-.114 1.194v.69q0 .792.108 1.248.108.45.33.642.228.192.6.192.354 0 .63-.192.282-.192.546-.684v1.002h-.21a3 3 0 0 1-.366.396q-.174.15-.414.24-.234.096-.552.096-.528 0-.888-.27-.36-.276-.552-.876t-.192-1.572zm6.973 6.012h-1.134v-8.484h.96l.12 1.086h.054zm4.458-5.412q0 1.002-.294 1.728-.288.726-.846 1.116-.552.39-1.326.39-.642 0-1.116-.258a2.4 2.4 0 0 1-.798-.702h-.27v-.918q.408.492.84.708.438.21.912.21.558 0 .942-.252t.582-.756q.204-.51.204-1.266 0-.75-.198-1.248-.192-.498-.576-.75-.378-.252-.936-.252-.48 0-.912.21t-.858.696v-.912h.264q.366-.45.846-.702a2.36 2.36 0 0 1 1.122-.258q.774 0 1.314.396.54.39.822 1.11t.282 1.71m4.298-1.956h.054v5.04h-1.134v-5.508l.27.27h-1.908v-.918h2.598zm3.054-.144q-.81 0-1.326.066-.51.06-.966.252-.45.186-.966.582v-.996h.336q.51-.522 1.032-.768.522-.252 1.296-.252.324 0 .594.054zm-5.772 4.272h4.956v.918h-4.956zm9.727.918v-5.622l.27.36h-2.454v-.9l3.174-.138.15.144v6.156zm-2.184-.918h5.508v.918h-5.508zm2.532-6.798q-.246 0-.438-.09a.74.74 0 0 1-.294-.27.8.8 0 0 1-.108-.414q0-.354.228-.558.234-.21.612-.21.372 0 .6.21.234.204.234.558 0 .36-.234.57-.228.204-.6.204m7.687 1.41q.822 0 1.392.204.576.198.882.606.312.408.336 1.026l-1.032.072q-.06-.528-.474-.792-.408-.27-1.182-.27-.726 0-1.128.216-.396.216-.396.642a.6.6 0 0 0 .138.396q.144.162.444.288.3.12.858.252.222.042.432.09.894.186 1.398.39t.756.54q.258.33.258.858 0 .588-.312 1.02-.306.432-.918.672-.606.234-1.5.234-.876 0-1.482-.18a2.05 2.05 0 0 1-.966-.606q-.366-.426-.504-1.14l1.044-.132q.138.51.42.768t.636.336q.36.078.906.078.528 0 .876-.126t.504-.33a.75.75 0 0 0 .162-.468.56.56 0 0 0-.186-.438q-.186-.174-.588-.3a13 13 0 0 0-1.206-.294q-.78-.162-1.272-.384-.486-.222-.738-.564-.246-.342-.246-.858 0-.852.666-1.326.672-.48 2.022-.48m5.636 6.306h-1.032v-6.162h.864l.114 1.038h.054zm1.266 0v-4.776q0-.306-.138-.432a.5.5 0 0 0-.354-.132.76.76 0 0 0-.498.186q-.222.186-.426.504l-.162-.738h.318q.126-.27.312-.474.192-.204.438-.318.252-.12.552-.12.468 0 .726.282.264.276.264.834v5.184zm2.298 0v-4.776q0-.306-.138-.432a.5.5 0 0 0-.354-.132.76.76 0 0 0-.498.186 2.4 2.4 0 0 0-.426.504l-.126-.738h.33q.12-.276.3-.48.186-.204.426-.318.246-.114.546-.114.456 0 .714.282.264.276.264.834v5.184zm5.515-6.306q.78 0 1.308.192.528.186.804.618.276.426.276 1.14v3.054q0 .228.066.342a.3.3 0 0 0 .222.144q.156.03.444-.012v.828q-.408.12-.768.12-.396 0-.624-.138a.8.8 0 0 1-.324-.372 1.5 1.5 0 0 1-.09-.546l-.06-.102v-3.252q0-.48-.168-.744a.84.84 0 0 0-.462-.36 2.3 2.3 0 0 0-.744-.102 2.5 2.5 0 0 0-.726.102q-.3.09-.48.324-.174.228-.18.624v.264h-1.062v-.324q0-.834.624-1.314.624-.486 1.944-.486m1.698 3.57a8 8 0 0 0-.522-.054 5 5 0 0 0-.492-.024q-.732 0-1.236.12-.504.114-.774.372-.264.252-.264.666a.9.9 0 0 0 .138.516q.144.21.408.318.27.108.642.108a2.2 2.2 0 0 0 .912-.186q.42-.186.894-.546l.03.678h-.222a8 8 0 0 1-.636.492q-.252.168-.636.294t-.852.126q-.57 0-.99-.198a1.5 1.5 0 0 1-.648-.57q-.228-.372-.228-.894 0-.828.564-1.254t1.452-.558 2.154-.12zm5.888 2.946q-.306 0-.558-.132a1 1 0 0 1-.402-.378q-.15-.246-.15-.576t.15-.57a.97.97 0 0 1 .402-.372q.252-.132.558-.132.312 0 .564.132.252.126.396.372.15.24.15.57t-.15.576a.97.97 0 0 1-.396.378 1.2 1.2 0 0 1-.564.132m6.871-.21v-5.622l.27.36h-2.454v-.9l3.174-.138.15.144v6.156zm-2.184-.918h5.508v.918h-5.508zm2.532-6.798q-.246 0-.438-.09a.74.74 0 0 1-.294-.27.8.8 0 0 1-.108-.414q0-.354.228-.558.234-.21.612-.21.372 0 .6.21.234.204.234.558 0 .36-.234.57-.228.204-.6.204m10.669 4.644q0 1.044-.396 1.77a2.64 2.64 0 0 1-1.08 1.086q-.684.36-1.53.36t-1.53-.36a2.7 2.7 0 0 1-1.08-1.086q-.396-.726-.396-1.77 0-1.038.396-1.77a2.67 2.67 0 0 1 1.08-1.098 3.2 3.2 0 0 1 1.53-.366q.846 0 1.53.366t1.08 1.098q.396.726.396 1.77m-1.17 0q0-.768-.234-1.284-.228-.516-.642-.768a1.8 1.8 0 0 0-.96-.252q-.552 0-.966.252t-.648.768q-.228.516-.228 1.284 0 .762.228 1.278.234.51.642.762.414.246.972.246t.966-.246q.408-.252.636-.762.234-.516.234-1.278m5.144-1.698-.114-3.99h1.152l-.102 3.99z"/><g filter="url(#a)"><path fill="#111827" stroke="#1f2937" stroke-width=".882" d="M166.301 173.442h184.398c2.681 0 4.86 2.189 4.86 4.897v97.322c0 2.708-2.179 4.898-4.86 4.898H166.301c-2.681 0-4.86-2.19-4.86-4.898v-97.322c0-2.708 2.179-4.897 4.86-4.897Z"/><path fill="#1f2937" d="M161 178.339c0-2.949 2.373-5.339 5.301-5.339h184.398c2.928 0 5.301 2.39 5.301 5.339v16.627H161z" opacity=".82"/><path fill="#f9fafb" d="M193.274 185.382a2.6 2.6 0 0 1-.576 1.122q-.402.45-.99.678a3.7 3.7 0 0 1-1.302.222q-.924 0-1.62-.366a2.6 2.6 0 0 1-1.074-1.098q-.384-.732-.384-1.776 0-1.05.39-1.77.396-.72 1.098-1.08.708-.36 1.65-.36.768 0 1.374.24t.978.732q.378.492.456 1.212l-1.122.096q-.102-.684-.558-1.014-.45-.336-1.158-.336-.954 0-1.446.588-.492.582-.492 1.692 0 .768.228 1.284.234.516.66.774.432.252 1.026.252.678 0 1.122-.318.45-.324.642-.948zm7.508-1.194q0 1.044-.396 1.77a2.64 2.64 0 0 1-1.08 1.086q-.684.36-1.53.36t-1.53-.36a2.7 2.7 0 0 1-1.08-1.086q-.396-.726-.396-1.77 0-1.038.396-1.77a2.67 2.67 0 0 1 1.08-1.098 3.2 3.2 0 0 1 1.53-.366q.846 0 1.53.366t1.08 1.098q.396.726.396 1.77m-1.17 0q0-.768-.234-1.284-.228-.516-.642-.768a1.8 1.8 0 0 0-.96-.252q-.552 0-.966.252t-.648.768q-.228.516-.228 1.284 0 .762.228 1.278.234.51.642.762.414.246.972.246t.966-.246q.408-.252.636-.762.234-.516.234-1.278m4.153 3.072h-1.134v-6.162h.96l.12 1.038h.054zm2.904 0v-4.11q0-.474-.15-.756a.85.85 0 0 0-.408-.396 1.4 1.4 0 0 0-.588-.114q-.594 0-1.08.306-.486.3-.882.84v-1.05h.282q.438-.468.948-.744.51-.282 1.224-.282.558 0 .954.204.402.198.618.618t.216 1.074v4.41zm8.617-6.162v.918h-5.76v-.918zm-1.434 6.282q-.93.006-1.476-.222a1.52 1.52 0 0 1-.804-.798q-.258-.57-.258-1.596v-5.598h1.14v5.544q0 .666.144 1.026t.462.504q.318.138.888.138.684 0 1.482-.204v.99a5 5 0 0 1-.756.156q-.408.06-.822.06m6.104-6.426q.78 0 1.308.192.528.186.804.618.276.426.276 1.14v3.054q0 .228.066.342a.3.3 0 0 0 .222.144q.156.03.444-.012v.828q-.408.12-.768.12-.396 0-.624-.138a.8.8 0 0 1-.324-.372 1.5 1.5 0 0 1-.09-.546l-.06-.102v-3.252q0-.48-.168-.744a.84.84 0 0 0-.462-.36 2.3 2.3 0 0 0-.744-.102 2.5 2.5 0 0 0-.726.102q-.3.09-.48.324-.174.228-.18.624v.264h-1.062v-.324q0-.834.624-1.314.624-.486 1.944-.486m1.698 3.57a8 8 0 0 0-.522-.054 5 5 0 0 0-.492-.024q-.732 0-1.236.12-.504.114-.774.372-.264.252-.264.666a.9.9 0 0 0 .138.516q.144.21.408.318.27.108.642.108a2.2 2.2 0 0 0 .912-.186q.42-.186.894-.546l.03.678h-.222a8 8 0 0 1-.636.492q-.252.168-.636.294t-.852.126q-.57 0-.99-.198a1.5 1.5 0 0 1-.648-.57q-.228-.372-.228-.894 0-.828.564-1.254t1.452-.558 2.154-.12zm5.317 2.736v-5.622l.27.36h-2.454v-.9l3.174-.138.15.144v6.156zm-2.184-.918h5.508v.918h-5.508zm2.532-6.798q-.246 0-.438-.09a.74.74 0 0 1-.294-.27.8.8 0 0 1-.108-.414q0-.354.228-.558.234-.21.612-.21.372 0 .6.21.234.204.234.558 0 .36-.234.57-.228.204-.6.204m6.212 7.716h-1.134v-6.162h.96l.12 1.038h.054zm2.904 0v-4.11q0-.474-.15-.756a.85.85 0 0 0-.408-.396 1.4 1.4 0 0 0-.588-.114q-.594 0-1.08.306-.486.3-.882.84v-1.05h.282q.438-.468.948-.744.51-.282 1.224-.282.558 0 .954.204.402.198.618.618t.216 1.074v4.41zm6.013-6.306q.822 0 1.392.204.576.198.882.606.312.408.336 1.026l-1.032.072q-.06-.528-.474-.792-.408-.27-1.182-.27-.726 0-1.128.216-.396.216-.396.642a.6.6 0 0 0 .138.396q.144.162.444.288.3.12.858.252.222.042.432.09.894.186 1.398.39t.756.54q.258.33.258.858 0 .588-.312 1.02-.306.432-.918.672-.606.234-1.5.234-.876 0-1.482-.18a2.05 2.05 0 0 1-.966-.606q-.366-.426-.504-1.14l1.044-.132q.138.51.42.768t.636.336q.36.078.906.078.528 0 .876-.126t.504-.33a.75.75 0 0 0 .162-.468.56.56 0 0 0-.186-.438q-.186-.174-.588-.3a13 13 0 0 0-1.206-.294q-.78-.162-1.272-.384-.486-.222-.738-.564-.246-.342-.246-.858 0-.852.666-1.326.672-.48 2.022-.48"/><path fill="#9ca3af" d="M187.328 204.17q0-1.026.384-1.746.39-.726 1.098-1.098t1.656-.372q.876 0 1.494.306.618.3.942.912.33.612.33 1.506v.54h-5.034v-.756h4.224l-.3.258v-.246q0-.798-.462-1.194t-1.23-.396q-.924 0-1.434.588-.504.582-.504 1.698 0 1.134.504 1.722.504.582 1.434.582.6 0 1.026-.252t.648-.768l1.104.186a2.6 2.6 0 0 1-.606.966q-.39.396-.942.6-.552.198-1.236.198-.93 0-1.626-.372a2.6 2.6 0 0 1-1.086-1.098q-.384-.726-.384-1.764m8.996 3.09h-1.134v-6.162h.96l.12 1.038h.054zm2.904 0v-4.11q0-.474-.15-.756a.85.85 0 0 0-.408-.396 1.4 1.4 0 0 0-.588-.114q-.594 0-1.08.306-.486.3-.882.84v-1.05h.282q.438-.468.948-.744.51-.282 1.224-.282.558 0 .954.204.402.198.618.618t.216 1.074v4.41zm7.441-9.18h1.134v9.18h-.96l-.126-1.11h-.048zm-4.458 6.114q0-1.002.288-1.728.294-.732.846-1.122.558-.39 1.332-.39.642 0 1.116.258t.798.702h.27v.918q-.408-.492-.846-.702a2 2 0 0 0-.906-.216q-.558 0-.942.252t-.588.762q-.198.504-.198 1.266 0 .744.192 1.242.198.498.576.756.384.252.942.252.48 0 .912-.21t.858-.702v.918h-.264q-.366.444-.852.702-.48.258-1.116.258-.774 0-1.314-.39-.54-.396-.822-1.116-.282-.726-.282-1.71m10.471-3.24q.822 0 1.392.204.576.198.882.606.312.408.336 1.026l-1.032.072q-.06-.528-.474-.792-.408-.27-1.182-.27-.726 0-1.128.216-.396.216-.396.642a.6.6 0 0 0 .138.396q.144.162.444.288.3.12.858.252.222.042.432.09.894.186 1.398.39t.756.54q.258.33.258.858 0 .588-.312 1.02-.306.432-.918.672-.606.234-1.5.234-.876 0-1.482-.18a2.05 2.05 0 0 1-.966-.606q-.366-.426-.504-1.14l1.044-.132q.138.51.42.768t.636.336q.36.078.906.078.528 0 .876-.126t.504-.33a.75.75 0 0 0 .162-.468.56.56 0 0 0-.186-.438q-.186-.174-.588-.3a13 13 0 0 0-1.206-.294q-.78-.162-1.272-.384-.486-.222-.738-.564-.246-.342-.246-.858 0-.852.666-1.326.672-.48 2.022-.48m4.994-2.454 1.092 6.432h.096l1.164-4.968h.864l1.116 4.968h.084l1.086-6.432h1.062l-1.53 8.76h-1.032l-1.242-5.538h-.078l-1.296 5.538h-.96l-1.536-8.76zm9.829 8.76v-5.622l.27.36h-1.92v-.9l2.64-.138.15.144v6.156zm-1.65-.912h4.44v.912h-4.44zm2.004-6.78q-.246 0-.438-.09a.74.74 0 0 1-.294-.27.8.8 0 0 1-.108-.414q0-.354.228-.558.234-.21.612-.21.372 0 .6.21.234.204.234.558 0 .36-.234.57-.228.204-.6.204m9.752 1.53v.918h-5.76v-.918zm-1.434 6.282q-.93.006-1.476-.222a1.52 1.52 0 0 1-.804-.798q-.258-.57-.258-1.596v-5.598h1.14v5.544q0 .666.144 1.026t.462.504q.318.138.888.138.684 0 1.482-.204v.99a5 5 0 0 1-.756.156q-.408.06-.822.06m3.661-.12v-9.18h1.134v9.18zm4.038 0v-4.11q0-.474-.15-.756a.85.85 0 0 0-.408-.396 1.4 1.4 0 0 0-.588-.114q-.588 0-1.074.306-.48.3-.864.84v-1.05h.324q.276-.3.57-.522a2.62 2.62 0 0 1 1.566-.504q.552 0 .942.204.396.198.606.618t.21 1.074v4.41zm-56.548 16.91q0-1.026.384-1.746.39-.726 1.098-1.098t1.656-.372q.876 0 1.494.306.618.3.942.912.33.612.33 1.506v.54h-5.034v-.756h4.224l-.3.258v-.246q0-.798-.462-1.194t-1.23-.396q-.924 0-1.434.588-.504.582-.504 1.698 0 1.134.504 1.722.504.582 1.434.582.6 0 1.026-.252t.648-.768l1.104.186a2.6 2.6 0 0 1-.606.966q-.39.396-.942.6-.552.198-1.236.198-.93 0-1.626-.372a2.6 2.6 0 0 1-1.086-1.098q-.384-.726-.384-1.764m11.954-1.986.12-1.086h.96v8.484h-1.134v-7.398zm-4.512 2.004q0-1.002.288-1.728.294-.726.846-1.116.558-.39 1.332-.39.642 0 1.116.258.474.252.798.696h.27v.918q-.408-.486-.846-.696a2 2 0 0 0-.906-.216q-.558 0-.942.252t-.588.762q-.198.504-.198 1.26 0 .744.192 1.248.198.498.576.75.384.252.942.252.48 0 .912-.21t.858-.702v.918h-.264q-.366.444-.852.702-.48.258-1.116.258-.774 0-1.314-.39-.54-.396-.822-1.116-.282-.726-.282-1.71m11.899-3.09h1.134v6.162h-.96l-.12-1.038h-.054zm-2.904 0v4.104q0 .48.15.762a.86.86 0 0 0 .402.39q.258.114.594.114.594 0 1.08-.3t.882-.84v1.05h-.282q-.438.468-.948.744t-1.224.276q-.558 0-.96-.198a1.37 1.37 0 0 1-.612-.618q-.216-.42-.216-1.074v-4.41zm8.749-.144q.78 0 1.308.192.528.186.804.618.276.426.276 1.14v3.054q0 .228.066.342a.3.3 0 0 0 .222.144q.156.03.444-.012v.828q-.408.12-.768.12-.396 0-.624-.138a.8.8 0 0 1-.324-.372 1.5 1.5 0 0 1-.09-.546l-.06-.102v-3.252q0-.48-.168-.744a.84.84 0 0 0-.462-.36 2.3 2.3 0 0 0-.744-.102 2.5 2.5 0 0 0-.726.102q-.3.09-.48.324-.174.228-.18.624v.264h-1.062v-.324q0-.834.624-1.314.624-.486 1.944-.486m1.698 3.57a8 8 0 0 0-.522-.054 5 5 0 0 0-.492-.024q-.732 0-1.236.12-.504.114-.774.372-.264.252-.264.666a.9.9 0 0 0 .138.516q.144.21.408.318.27.108.642.108a2.2 2.2 0 0 0 .912-.186q.42-.186.894-.546l.03.678h-.222a8 8 0 0 1-.636.492q-.252.168-.636.294t-.852.126q-.57 0-.99-.198a1.5 1.5 0 0 1-.648-.57q-.228-.372-.228-.894 0-.828.564-1.254t1.452-.558 2.154-.12zm3.134 1.818h5.508v.918h-5.508zm2.184.918.006-8.634.27.354h-2.46v-.9l3.174-.132.15.138v9.174zm8.035-6.306q.822 0 1.392.204.576.198.882.606.312.408.336 1.026l-1.032.072q-.06-.528-.474-.792-.408-.27-1.182-.27-.726 0-1.128.216-.396.216-.396.642a.6.6 0 0 0 .138.396q.144.162.444.288.3.12.858.252.222.042.432.09.894.186 1.398.39t.756.54q.258.33.258.858 0 .588-.312 1.02-.306.432-.918.672-.606.234-1.5.234-.876 0-1.482-.18a2.05 2.05 0 0 1-.966-.606q-.366-.426-.504-1.14l1.044-.132q.138.51.42.768t.636.336q.36.078.906.078.528 0 .876-.126t.504-.33a.75.75 0 0 0 .162-.468.56.56 0 0 0-.186-.438q-.186-.174-.588-.3a13 13 0 0 0-1.206-.294q-.78-.162-1.272-.384-.486-.222-.738-.564-.246-.342-.246-.858 0-.852.666-1.326.672-.48 2.022-.48m-40.237 22.94q0-.888.3-1.548a2.37 2.37 0 0 1 .858-1.026 2.3 2.3 0 0 1 1.296-.366q.438 0 .798.126.36.12.636.336.282.21.492.498h.27v.918q-.408-.492-.846-.702a2 2 0 0 0-.906-.216q-.54 0-.93.234a1.54 1.54 0 0 0-.594.678q-.204.444-.204 1.068 0 .6.198 1.038t.582.678q.384.234.93.234.48 0 .912-.21t.858-.702v.918h-.264q-.366.444-.858.702a2.36 2.36 0 0 1-1.122.258q-.738 0-1.284-.366a2.3 2.3 0 0 1-.834-1.02q-.288-.66-.288-1.53m5.592 3.018q0 .996-.318 1.614-.312.624-.93.912-.612.288-1.53.288-.816 0-1.374-.21-.552-.204-.858-.57a2.1 2.1 0 0 1-.426-.858l1.032-.234q.168.528.576.78t1.05.252q.78 0 1.212-.42t.432-1.434v-4.848h.054l.12-1.086h.96zm7.484-5.814v.918h-5.76v-.918zm-1.434 6.282q-.93.006-1.476-.222a1.52 1.52 0 0 1-.804-.798q-.258-.57-.258-1.596v-5.598h1.14v5.544q0 .666.144 1.026t.462.504q.318.138.888.138.684 0 1.482-.204v.99a5 5 0 0 1-.756.156q-.408.06-.822.06m-11.642 16.514q0-.888.3-1.548a2.37 2.37 0 0 1 .858-1.026 2.3 2.3 0 0 1 1.296-.366q.438 0 .798.126.36.12.636.336.282.21.492.498h.27v.918q-.408-.492-.846-.702a2 2 0 0 0-.906-.216q-.54 0-.93.234a1.54 1.54 0 0 0-.594.678q-.204.444-.204 1.068 0 .6.198 1.038t.582.678q.384.234.93.234.48 0 .912-.21t.858-.702v.918h-.264q-.366.444-.858.702a2.36 2.36 0 0 1-1.122.258q-.738 0-1.284-.366a2.3 2.3 0 0 1-.834-1.02q-.288-.66-.288-1.53m5.592 3.018q0 .996-.318 1.614-.312.624-.93.912-.612.288-1.53.288-.816 0-1.374-.21-.552-.204-.858-.57a2.1 2.1 0 0 1-.426-.858l1.032-.234q.168.528.576.78t1.05.252q.78 0 1.212-.42t.432-1.434v-4.848h.054l.12-1.086h.96zm7.484-5.814v.918h-5.76v-.918zm-1.434 6.282q-.93.006-1.476-.222a1.52 1.52 0 0 1-.804-.798q-.258-.57-.258-1.596v-5.598h1.14v5.544q0 .666.144 1.026t.462.504q.318.138.888.138.684 0 1.482-.204v.99a5 5 0 0 1-.756.156q-.408.06-.822.06m3.241-3.21q0-1.026.384-1.746.39-.726 1.098-1.098t1.656-.372q.876 0 1.494.306.618.3.942.912.33.612.33 1.506v.54h-5.034v-.756h4.224l-.3.258v-.246q0-.798-.462-1.194t-1.23-.396q-.924 0-1.434.588-.504.582-.504 1.698 0 1.134.504 1.722.504.582 1.434.582.6 0 1.026-.252t.648-.768l1.104.186a2.6 2.6 0 0 1-.606.966q-.39.396-.942.6-.552.198-1.236.198-.93 0-1.626-.372a2.6 2.6 0 0 1-1.086-1.098q-.384-.726-.384-1.764"/><path stroke="#c7d2fe" stroke-linecap="round" stroke-linejoin="round" stroke-width="1.323" d="M179.79 187.066v-4.705a1.18 1.18 0 0 0-.587-1.017l-4.117-2.353a1.18 1.18 0 0 0-1.176 0l-4.117 2.353a1.17 1.17 0 0 0-.588 1.017v4.705a1.18 1.18 0 0 0 .588 1.017l4.117 2.353a1.17 1.17 0 0 0 1.176 0l4.117-2.353a1.18 1.18 0 0 0 .587-1.017"/><path stroke="#c7d2fe" stroke-linecap="round" stroke-linejoin="round" stroke-width="1.323" d="m169.364 181.748 5.134 2.97 5.134-2.97m-5.138 8.893v-5.928"/><path stroke="#818cf8" stroke-linecap="round" stroke-linejoin="round" stroke-width="1.323" d="M179.79 206.872v-4.705a1.17 1.17 0 0 0-.587-1.017l-4.117-2.352a1.17 1.17 0 0 0-.588-.157c-.207 0-.41.053-.588.157l-4.117 2.352a1.18 1.18 0 0 0-.588 1.017v4.705a1.18 1.18 0 0 0 .588 1.017l4.117 2.353a1.17 1.17 0 0 0 1.176 0l4.117-2.353a1.18 1.18 0 0 0 .587-1.017"/><path stroke="#818cf8" stroke-linecap="round" stroke-linejoin="round" stroke-width="1.323" d="m169.364 201.555 5.134 2.97 5.134-2.97m-5.138 8.893v-5.928m5.296 22.159v-4.705a1.17 1.17 0 0 0-.587-1.017l-4.117-2.352a1.18 1.18 0 0 0-1.176 0l-4.117 2.352a1.19 1.19 0 0 0-.588 1.017v4.705a1.18 1.18 0 0 0 .588 1.017l4.117 2.353a1.17 1.17 0 0 0 1.176 0l4.117-2.353a1.18 1.18 0 0 0 .587-1.017"/><path stroke="#818cf8" stroke-linecap="round" stroke-linejoin="round" stroke-width="1.323" d="m169.364 221.362 5.134 2.97 5.134-2.97m-5.138 8.892v-5.927m5.296 22.159v-4.705a1.18 1.18 0 0 0-.587-1.017l-4.117-2.353a1.18 1.18 0 0 0-1.176 0l-4.117 2.353a1.17 1.17 0 0 0-.588 1.017v4.705a1.18 1.18 0 0 0 .588 1.017l4.117 2.353a1.17 1.17 0 0 0 1.176 0l4.117-2.353a1.18 1.18 0 0 0 .587-1.017"/><path stroke="#818cf8" stroke-linecap="round" stroke-linejoin="round" stroke-width="1.323" d="m169.364 241.169 5.134 2.97 5.134-2.97m-5.138 8.893v-5.928m5.296 22.159v-4.705a1.17 1.17 0 0 0-.587-1.017l-4.117-2.352a1.18 1.18 0 0 0-1.176 0l-4.117 2.352a1.19 1.19 0 0 0-.588 1.017v4.705a1.18 1.18 0 0 0 .588 1.017l4.117 2.353a1.17 1.17 0 0 0 1.176 0l4.117-2.353a1.18 1.18 0 0 0 .587-1.017"/><path stroke="#818cf8" stroke-linecap="round" stroke-linejoin="round" stroke-width="1.323" d="m169.364 260.976 5.134 2.97 5.134-2.97m-5.138 8.892v-5.928"/></g><defs><filter id="a" width="231" height="144" x="143" y="155" color-interpolation-filters="sRGB" filterUnits="userSpaceOnUse"><feFlood flood-opacity="0" result="BackgroundImageFix"/><feColorMatrix in="SourceAlpha" result="hardAlpha" values="0 0 0 0 0 0 0 0 0 0 0 0 0 0 0 0 0 0 127 0"/><feOffset/><feGaussianBlur stdDeviation=".249"/><feColorMatrix values="0 0 0 0 0.227451 0 0 0 0 0.270588 0 0 0 0 0.780392 0 0 0 0.35 0"/><feBlend in2="BackgroundImageFix" result="effect1_dropShadow_6003_8948"/><feColorMatrix in="SourceAlpha" result="hardAlpha" values="0 0 0 0 0 0 0 0 0 0 0 0 0 0 0 0 0 0 127 0"/><feOffset/><feGaussianBlur stdDeviation=".599"/><feColorMatrix values="0 0 0 0 0.227451 0 0 0 0 0.270588 0 0 0 0 0.780392 0 0 0 0.251599 0"/><feBlend in2="effect1_dropShadow_6003_8948" result="effect2_dropShadow_6003_8948"/><feColorMatrix in="SourceAlpha" result="hardAlpha" values="0 0 0 0 0 0 0 0 0 0 0 0 0 0 0 0 0 0 127 0"/><feOffset/><feGaussianBlur stdDeviation="1.127"/><feColorMatrix values="0 0 0 0 0.227451 0 0 0 0 0.270588 0 0 0 0 0.780392 0 0 0 0.208638 0"/><feBlend in2="effect2_dropShadow_6003_8948" result="effect3_dropShadow_6003_8948"/><feColorMatrix in="SourceAlpha" result="hardAlpha" values="0 0 0 0 0 0 0 0 0 0 0 0 0 0 0 0 0 0 127 0"/><feOffset/><feGaussianBlur stdDeviation="2.01"/><feColorMatrix values="0 0 0 0 0.227451 0 0 0 0 0.270588 0 0 0 0 0.780392 0 0 0 0.175 0"/><feBlend in2="effect3_dropShadow_6003_8948" result="effect4_dropShadow_6003_8948"/><feColorMatrix in="SourceAlpha" result="hardAlpha" values="0 0 0 0 0 0 0 0 0 0 0 0 0 0 0 0 0 0 127 0"/><feOffset/><feGaussianBlur stdDeviation="3.76"/><feColorMatrix values="0 0 0 0 0.227451 0 0 0 0 0.270588 0 0 0 0 0.780392 0 0 0 0.141362 0"/><feBlend in2="effect4_dropShadow_6003_8948" result="effect5_dropShadow_6003_8948"/><feColorMatrix in="SourceAlpha" result="hardAlpha" values="0 0 0 0 0 0 0 0 0 0 0 0 0 0 0 0 0 0 127 0"/><feOffset/><feGaussianBlur stdDeviation="9"/><feColorMatrix values="0 0 0 0 0.227451 0 0 0 0 0.270588 0 0 0 0 0.780392 0 0 0 0.098401 0"/><feBlend in2="effect5_dropShadow_6003_8948" result="effect6_dropShadow_6003_8948"/><feBlend in="SourceGraphic" in2="effect6_dropShadow_6003_8948" result="shape"/></filter></defs></svg>