<svg xmlns="http://www.w3.org/2000/svg" width="1440" height="600" fill="none" viewBox="0 0 1440 600"><path stroke="#2dd4bf" stroke-width=".5" d="M-29.75.25h49.5v49.5h-49.5zm50 0h49.5v49.5h-49.5zm50 0h49.5v49.5h-49.5zm50 0h49.5v49.5h-49.5zm50 0h49.5v49.5h-49.5zm50 0h49.5v49.5h-49.5zm50 0h49.5v49.5h-49.5zm50 0h49.5v49.5h-49.5zm50 0h49.5v49.5h-49.5zm50 0h49.5v49.5h-49.5zm50 0h49.5v49.5h-49.5zm50 0h49.5v49.5h-49.5zm50 0h49.5v49.5h-49.5zm50 0h49.5v49.5h-49.5zm50 0h49.5v49.5h-49.5zm50 0h49.5v49.5h-49.5zm50 0h49.5v49.5h-49.5zm50 0h49.5v49.5h-49.5zm50 0h49.5v49.5h-49.5zm50 0h49.5v49.5h-49.5zm50 0h49.5v49.5h-49.5zm50 0h49.5v49.5h-49.5zm50 0h49.5v49.5h-49.5zm50 0h49.5v49.5h-49.5zm50 0h49.5v49.5h-49.5zm50 0h49.5v49.5h-49.5zm50 0h49.5v49.5h-49.5zm50 0h49.5v49.5h-49.5zm50 0h49.5v49.5h-49.5zm50 0h49.5v49.5h-49.5zm-1450 50h49.5v49.5h-49.5zm50 0h49.5v49.5h-49.5zm50 0h49.5v49.5h-49.5zm50 0h49.5v49.5h-49.5zm50 0h49.5v49.5h-49.5zm50 0h49.5v49.5h-49.5zm50 0h49.5v49.5h-49.5zm50 0h49.5v49.5h-49.5zm50 0h49.5v49.5h-49.5zm50 0h49.5v49.5h-49.5zm50 0h49.5v49.5h-49.5zm50 0h49.5v49.5h-49.5zm50 0h49.5v49.5h-49.5zm50 0h49.5v49.5h-49.5zm50 0h49.5v49.5h-49.5zm50 0h49.5v49.5h-49.5zm50 0h49.5v49.5h-49.5zm50 0h49.5v49.5h-49.5zm50 0h49.5v49.5h-49.5zm50 0h49.5v49.5h-49.5zm50 0h49.5v49.5h-49.5zm50 0h49.5v49.5h-49.5zm50 0h49.5v49.5h-49.5zm50 0h49.5v49.5h-49.5zm50 0h49.5v49.5h-49.5zm50 0h49.5v49.5h-49.5zm50 0h49.5v49.5h-49.5zm50 0h49.5v49.5h-49.5zm50 0h49.5v49.5h-49.5zm50 0h49.5v49.5h-49.5zm-1450 50h49.5v49.5h-49.5zm50 0h49.5v49.5h-49.5zm50 0h49.5v49.5h-49.5zm50 0h49.5v49.5h-49.5zm50 0h49.5v49.5h-49.5zm50 0h49.5v49.5h-49.5zm50 0h49.5v49.5h-49.5zm50 0h49.5v49.5h-49.5zm50 0h49.5v49.5h-49.5zm50 0h49.5v49.5h-49.5zm50 0h49.5v49.5h-49.5zm50 0h49.5v49.5h-49.5zm50 0h49.5v49.5h-49.5zm50 0h49.5v49.5h-49.5zm50 0h49.5v49.5h-49.5zm50 0h49.5v49.5h-49.5zm50 0h49.5v49.5h-49.5zm50 0h49.5v49.5h-49.5zm50 0h49.5v49.5h-49.5zm50 0h49.5v49.5h-49.5zm50 0h49.5v49.5h-49.5zm50 0h49.5v49.5h-49.5zm50 0h49.5v49.5h-49.5zm50 0h49.5v49.5h-49.5zm50 0h49.5v49.5h-49.5zm50 0h49.5v49.5h-49.5zm50 0h49.5v49.5h-49.5zm50 0h49.5v49.5h-49.5zm50 0h49.5v49.5h-49.5zm50 0h49.5v49.5h-49.5zm-1450 50h49.5v49.5h-49.5zm50 0h49.5v49.5h-49.5zm50 0h49.5v49.5h-49.5zm50 0h49.5v49.5h-49.5zm50 0h49.5v49.5h-49.5zm50 0h49.5v49.5h-49.5zm50 0h49.5v49.5h-49.5zm50 0h49.5v49.5h-49.5zm50 0h49.5v49.5h-49.5zm50 0h49.5v49.5h-49.5zm50 0h49.5v49.5h-49.5zm50 0h49.5v49.5h-49.5zm50 0h49.5v49.5h-49.5zm50 0h49.5v49.5h-49.5zm50 0h49.5v49.5h-49.5zm50 0h49.5v49.5h-49.5zm50 0h49.5v49.5h-49.5zm50 0h49.5v49.5h-49.5zm50 0h49.5v49.5h-49.5zm50 0h49.5v49.5h-49.5zm50 0h49.5v49.5h-49.5zm50 0h49.5v49.5h-49.5zm50 0h49.5v49.5h-49.5zm50 0h49.5v49.5h-49.5zm50 0h49.5v49.5h-49.5zm50 0h49.5v49.5h-49.5zm50 0h49.5v49.5h-49.5zm50 0h49.5v49.5h-49.5zm50 0h49.5v49.5h-49.5zm50 0h49.5v49.5h-49.5zm-1450 50h49.5v49.5h-49.5zm50 0h49.5v49.5h-49.5zm50 0h49.5v49.5h-49.5zm50 0h49.5v49.5h-49.5zm50 0h49.5v49.5h-49.5zm50 0h49.5v49.5h-49.5zm50 0h49.5v49.5h-49.5zm50 0h49.5v49.5h-49.5zm50 0h49.5v49.5h-49.5zm50 0h49.5v49.5h-49.5zm50 0h49.5v49.5h-49.5zm50 0h49.5v49.5h-49.5zm50 0h49.5v49.5h-49.5zm50 0h49.5v49.5h-49.5zm50 0h49.5v49.5h-49.5zm50 0h49.5v49.5h-49.5zm50 0h49.5v49.5h-49.5zm50 0h49.5v49.5h-49.5zm50 0h49.5v49.5h-49.5zm50 0h49.5v49.5h-49.5zm50 0h49.5v49.5h-49.5zm50 0h49.5v49.5h-49.5zm50 0h49.5v49.5h-49.5zm50 0h49.5v49.5h-49.5zm50 0h49.5v49.5h-49.5zm50 0h49.5v49.5h-49.5zm50 0h49.5v49.5h-49.5zm50 0h49.5v49.5h-49.5zm50 0h49.5v49.5h-49.5zm50 0h49.5v49.5h-49.5zm-1450 50h49.5v49.5h-49.5zm50 0h49.5v49.5h-49.5zm50 0h49.5v49.5h-49.5zm50 0h49.5v49.5h-49.5zm50 0h49.5v49.5h-49.5zm50 0h49.5v49.5h-49.5zm50 0h49.5v49.5h-49.5zm50 0h49.5v49.5h-49.5zm50 0h49.5v49.5h-49.5zm50 0h49.5v49.5h-49.5zm50 0h49.5v49.5h-49.5zm50 0h49.5v49.5h-49.5zm50 0h49.5v49.5h-49.5zm50 0h49.5v49.5h-49.5zm50 0h49.5v49.5h-49.5zm50 0h49.5v49.5h-49.5zm50 0h49.5v49.5h-49.5zm50 0h49.5v49.5h-49.5zm50 0h49.5v49.5h-49.5zm50 0h49.5v49.5h-49.5zm50 0h49.5v49.5h-49.5zm50 0h49.5v49.5h-49.5zm50 0h49.5v49.5h-49.5zm50 0h49.5v49.5h-49.5zm50 0h49.5v49.5h-49.5zm50 0h49.5v49.5h-49.5zm50 0h49.5v49.5h-49.5zm50 0h49.5v49.5h-49.5zm50 0h49.5v49.5h-49.5zm50 0h49.5v49.5h-49.5zm-1450 50h49.5v49.5h-49.5zm50 0h49.5v49.5h-49.5zm50 0h49.5v49.5h-49.5zm50 0h49.5v49.5h-49.5zm50 0h49.5v49.5h-49.5zm50 0h49.5v49.5h-49.5zm50 0h49.5v49.5h-49.5zm50 0h49.5v49.5h-49.5zm50 0h49.5v49.5h-49.5zm50 0h49.5v49.5h-49.5zm50 0h49.5v49.5h-49.5zm50 0h49.5v49.5h-49.5zm50 0h49.5v49.5h-49.5zm50 0h49.5v49.5h-49.5zm50 0h49.5v49.5h-49.5zm50 0h49.5v49.5h-49.5zm50 0h49.5v49.5h-49.5zm50 0h49.5v49.5h-49.5zm50 0h49.5v49.5h-49.5zm50 0h49.5v49.5h-49.5zm50 0h49.5v49.5h-49.5zm50 0h49.5v49.5h-49.5zm50 0h49.5v49.5h-49.5zm50 0h49.5v49.5h-49.5zm50 0h49.5v49.5h-49.5zm50 0h49.5v49.5h-49.5zm50 0h49.5v49.5h-49.5zm50 0h49.5v49.5h-49.5zm50 0h49.5v49.5h-49.5zm50 0h49.5v49.5h-49.5zm-1450 50h49.5v49.5h-49.5zm50 0h49.5v49.5h-49.5zm50 0h49.5v49.5h-49.5zm50 0h49.5v49.5h-49.5zm50 0h49.5v49.5h-49.5zm50 0h49.5v49.5h-49.5zm50 0h49.5v49.5h-49.5zm50 0h49.5v49.5h-49.5zm50 0h49.5v49.5h-49.5zm50 0h49.5v49.5h-49.5zm50 0h49.5v49.5h-49.5zm50 0h49.5v49.5h-49.5zm50 0h49.5v49.5h-49.5zm50 0h49.5v49.5h-49.5zm50 0h49.5v49.5h-49.5zm50 0h49.5v49.5h-49.5zm50 0h49.5v49.5h-49.5zm50 0h49.5v49.5h-49.5zm50 0h49.5v49.5h-49.5zm50 0h49.5v49.5h-49.5zm50 0h49.5v49.5h-49.5zm50 0h49.5v49.5h-49.5zm50 0h49.5v49.5h-49.5zm50 0h49.5v49.5h-49.5zm50 0h49.5v49.5h-49.5zm50 0h49.5v49.5h-49.5zm50 0h49.5v49.5h-49.5zm50 0h49.5v49.5h-49.5zm50 0h49.5v49.5h-49.5zm50 0h49.5v49.5h-49.5zm-1450 50h49.5v49.5h-49.5zm50 0h49.5v49.5h-49.5zm50 0h49.5v49.5h-49.5zm50 0h49.5v49.5h-49.5zm50 0h49.5v49.5h-49.5zm50 0h49.5v49.5h-49.5zm50 0h49.5v49.5h-49.5zm50 0h49.5v49.5h-49.5zm50 0h49.5v49.5h-49.5zm50 0h49.5v49.5h-49.5zm50 0h49.5v49.5h-49.5zm50 0h49.5v49.5h-49.5zm50 0h49.5v49.5h-49.5zm50 0h49.5v49.5h-49.5zm50 0h49.5v49.5h-49.5zm50 0h49.5v49.5h-49.5zm50 0h49.5v49.5h-49.5zm50 0h49.5v49.5h-49.5zm50 0h49.5v49.5h-49.5zm50 0h49.5v49.5h-49.5zm50 0h49.5v49.5h-49.5zm50 0h49.5v49.5h-49.5zm50 0h49.5v49.5h-49.5zm50 0h49.5v49.5h-49.5zm50 0h49.5v49.5h-49.5zm50 0h49.5v49.5h-49.5zm50 0h49.5v49.5h-49.5zm50 0h49.5v49.5h-49.5zm50 0h49.5v49.5h-49.5zm50 0h49.5v49.5h-49.5zm-1450 50h49.5v49.5h-49.5zm50 0h49.5v49.5h-49.5zm50 0h49.5v49.5h-49.5zm50 0h49.5v49.5h-49.5zm50 0h49.5v49.5h-49.5zm50 0h49.5v49.5h-49.5zm50 0h49.5v49.5h-49.5zm50 0h49.5v49.5h-49.5zm50 0h49.5v49.5h-49.5zm50 0h49.5v49.5h-49.5zm50 0h49.5v49.5h-49.5zm50 0h49.5v49.5h-49.5zm50 0h49.5v49.5h-49.5zm50 0h49.5v49.5h-49.5zm50 0h49.5v49.5h-49.5zm50 0h49.5v49.5h-49.5zm50 0h49.5v49.5h-49.5zm50 0h49.5v49.5h-49.5zm50 0h49.5v49.5h-49.5zm50 0h49.5v49.5h-49.5zm50 0h49.5v49.5h-49.5zm50 0h49.5v49.5h-49.5zm50 0h49.5v49.5h-49.5zm50 0h49.5v49.5h-49.5zm50 0h49.5v49.5h-49.5zm50 0h49.5v49.5h-49.5zm50 0h49.5v49.5h-49.5zm50 0h49.5v49.5h-49.5zm50 0h49.5v49.5h-49.5zm50 0h49.5v49.5h-49.5zm-1450 50h49.5v49.5h-49.5zm50 0h49.5v49.5h-49.5zm50 0h49.5v49.5h-49.5zm50 0h49.5v49.5h-49.5zm50 0h49.5v49.5h-49.5zm50 0h49.5v49.5h-49.5zm50 0h49.5v49.5h-49.5zm50 0h49.5v49.5h-49.5zm50 0h49.5v49.5h-49.5zm50 0h49.5v49.5h-49.5zm50 0h49.5v49.5h-49.5zm50 0h49.5v49.5h-49.5zm50 0h49.5v49.5h-49.5zm50 0h49.5v49.5h-49.5zm50 0h49.5v49.5h-49.5zm50 0h49.5v49.5h-49.5zm50 0h49.5v49.5h-49.5zm50 0h49.5v49.5h-49.5zm50 0h49.5v49.5h-49.5zm50 0h49.5v49.5h-49.5zm50 0h49.5v49.5h-49.5zm50 0h49.5v49.5h-49.5zm50 0h49.5v49.5h-49.5zm50 0h49.5v49.5h-49.5zm50 0h49.5v49.5h-49.5zm50 0h49.5v49.5h-49.5zm50 0h49.5v49.5h-49.5zm50 0h49.5v49.5h-49.5zm50 0h49.5v49.5h-49.5zm50 0h49.5v49.5h-49.5zm-1450 50h49.5v49.5h-49.5zm50 0h49.5v49.5h-49.5zm50 0h49.5v49.5h-49.5zm50 0h49.5v49.5h-49.5zm50 0h49.5v49.5h-49.5zm50 0h49.5v49.5h-49.5zm50 0h49.5v49.5h-49.5zm50 0h49.5v49.5h-49.5zm50 0h49.5v49.5h-49.5zm50 0h49.5v49.5h-49.5zm50 0h49.5v49.5h-49.5zm50 0h49.5v49.5h-49.5zm50 0h49.5v49.5h-49.5zm50 0h49.5v49.5h-49.5zm50 0h49.5v49.5h-49.5zm50 0h49.5v49.5h-49.5zm50 0h49.5v49.5h-49.5zm50 0h49.5v49.5h-49.5zm50 0h49.5v49.5h-49.5zm50 0h49.5v49.5h-49.5zm50 0h49.5v49.5h-49.5zm50 0h49.5v49.5h-49.5zm50 0h49.5v49.5h-49.5zm50 0h49.5v49.5h-49.5zm50 0h49.5v49.5h-49.5zm50 0h49.5v49.5h-49.5zm50 0h49.5v49.5h-49.5zm50 0h49.5v49.5h-49.5zm50 0h49.5v49.5h-49.5zm50 0h49.5v49.5h-49.5z" opacity=".1"/></svg>