<svg xmlns="http://www.w3.org/2000/svg" width="844" height="474" fill="none" viewBox="0 0 844 474"><g clip-path="url(#a)"><path fill="url(#b)" d="M0 0h844v474H0z"/><g fill="#c3dafe" clip-path="url(#c)" opacity=".55"><path d="m555.034 123.406-3.887 6.648c.028-.05.069-.114.096-.164a555 555 0 0 0 3.787-6.484zm5.037-7.961c.022-.037.054-.083.082-.119.675-1.005 1.345-2.009 2.021-3.014l-2.099 3.133zm-2.979 5.767a.4.4 0 0 1-.078-.009c-.648.553-2.349 3.269-3.353 5.018-.369.648-1.583 2.803-1.565 3.269.735.073 5-7.643 4.996-8.278m8.184-12.564h-.073c-.721.599-2.747 3.516-3.613 4.831-.288.438-1.729 2.653-1.77 3.105.675.046 5.428-7.388 5.456-7.936m28.913-34.245c-.515.37-2.637 2.438-4.224 4.068-.37.38-2.226 2.292-2.514 2.758.78-.274 6.752-6.776 6.779-6.83-.009 0-.027 0-.036.004zm-50.427 69.826.027-.046c.894-1.643 3.513-6.839 4.183-8.3zm25.327-26.475c-.082-.037-.205-.028-.296-.023-1.46.438-3.449 3.164-4.334 4.867-1.159 2.228-1.182 3.708-.059 3.297 2.39-.872 6.199-7.497 4.685-8.146zm157.477-71.52c-1.733-.15-5.488 2.032-5.063 4.26.47 2.452 4.493 1 5.98-1.142.776-1.118.808-2.844-.912-3.118zm108.77 115.613c.018-2.214-2.181-4.762-5.474-5.027-4.293.082-6.246 4.256-3.372 7.205 3.194 3.278 8.814 1.895 8.846-2.178M732.392 38.28c-1.569-.14-5.173 1.84-4.968 3.872.205 2.041 3.873 1.06 5.497-1.022.798-1.028.985-2.607-.529-2.854zm-10.684 287.456c.461-2.63-2.295-5.447-5.556-5.694-4.425-.119-7.103 3.392-5.023 6.588 2.974 4.575 9.849 3.297 10.579-.899zm90.572 80.352c-3.257-.087-6.692 2.676-5.456 5.273 1.656 3.484 7.874 2.087 9.128-1.209.675-1.777-.638-3.831-3.668-4.064zM679.588 71.256c-2.733-.156-6.359 2.872-6.154 5.14.214 2.435 4.457 1.704 6.674-1.14 1.432-1.84 1.181-3.786-.516-4zm-50.97-8.368c-1.483-.347-6.935 3.653-7.199 5.703-.183 1.397 2.705.1 4.991-1.89 1.542-1.342 3.17-3.415 2.208-3.813m157.728 304.078c-3.837 0-7.359 3.013-5.57 5.972 2.527 4.182 9.552 2.785 10.583-1.064.534-1.991-1.537-4.571-5.013-4.913zm-161.045-35.732c-.15-2.562-2.541-5.187-5.013-5.502a6 6 0 0 0-.835-.009c-3.399.361-4.343 4.986-.684 8.031 3.257 2.712 6.724.786 6.532-2.52M672.95 49.241c-2.153-.169-6.783 2.785-6.907 4.831-.109 1.808 3.609.183 5.552-1.415 1.852-1.516 2.518-3.21 1.351-3.416zm-33.11 4.399c-1.693-.366-7.422 3.817-7.473 5.456-.031 1.055 2.788-.224 5.037-1.968 1.523-1.183 3.348-3.11 2.44-3.488zm4.808 1.135c-1.984-.22-7.039 3.438-7.313 5.287-.2 1.38 2.769.188 5.132-1.703 2.099-1.675 3.116-3.351 2.177-3.584zm206.28 107.439c-.091-2.187-2.299-4.684-5.442-4.917h-.087c-3.809.064-6.044 4.132-2.892 7.255 3.239 3.219 8.595 1.735 8.426-2.333zm-99.777-4.328c.474-2.507-1.784-4.99-4.745-5.205-4.092-.078-7.5 3.461-5.132 6.739 2.746 3.808 9.165 2.201 9.877-1.539zm-195.492 53.789c.744-2.803-.023-5.698-1.606-6.077-2.892-.324-4.99 5.867-3.033 8.954 1.382 2.182 3.827.201 4.639-2.877m282.414 25.416c.219-2.055-1.396-5.251-5.565-5.58-4.357-.141-7.623 4.347-4.494 7.945 3.426 3.935 9.617 1.799 10.059-2.361zM593.231 354.659c-.433-2.314-2.91-5.1-4.817-5.415-.183-.013-.429-.032-.612 0-2.801.43-2.157 5.785 1.748 8.274 2.641 1.684 4.114-.525 3.677-2.859zm43.484 31.059c-.338-1.648-2.254-4.338-5.296-4.872-.301-.018-.675-.045-1.077.05-2.769.649-2.363 4.772 1.524 7.196 3.029 1.886 5.374.21 4.849-2.369z"/><path d="M555.317 124.023s-.018-.018-.027-.023c-.74.306-5.133 7.99-4.8 8.392.434-.123 2.163-3.036 2.359-3.37 1.2-2.036 2.477-4.529 2.468-4.999m131.762-62.618c-2.646-.16-6.319 2.794-6.136 4.945.201 2.333 4.288 1.182 6.368-1.265 1.072-1.26 1.738-3.301-.232-3.68M820.514 74.41c-.251-1.416-1.943-3.489-4.48-3.7-.196 0-.456.015-.647.047-2.564.465-3.093 3.68-.133 5.739 2.829 1.968 5.698.402 5.265-2.082zM623.773 316.653c.046-2.643-2.34-5.447-4.909-5.766-.127-.009-.301-.028-.428-.028-3.436-.013-5.128 4.279-2.035 7.685 3.111 3.424 7.313 1.758 7.377-1.891zM633.8 64.1c-1.743-.356-7.094 3.612-7.076 5.744.014 1.439 2.957.151 5.228-1.894 1.51-1.356 2.988-3.448 1.848-3.85m190.952 276.389c-4.151.064-7.212 3.511-5.748 6.474 2.167 4.388 9.37 2.799 10.497-1.283.694-2.506-1.66-5.081-4.749-5.196zm-197.339 86.848c-1.026-1.552-3.467-3.57-5.205-3.949q-.536-.083-.826.169c-1.414 1.223 2.82 6.04 5.739 6.524 1.214.201 1.351-1.132.288-2.739zm221.641-278.791c.018-1.959-1.848-4.812-5.406-5.077h-.009c-3.645.004-5.776 3.876-2.756 6.931 3.326 3.365 8.134 1.68 8.171-1.854M582.616 352.864c-.516-2.101-2.605-4.826-4.631-5.333a1.5 1.5 0 0 0-.565.009c-2.537.543-1.415 6.305 2.363 8.497 2.043 1.182 3.499-.448 2.828-3.173zm161.185-104.309c.447-2.502-1.537-5.498-5.524-5.968-4.945-.082-7.975 4.201-5.397 7.634 3.047 4.059 10.091 2.986 10.921-1.666m111.279 5.134c.392-2.269-1.232-5.584-5.297-5.899-3.608-.069-7.472 3.858-4.781 7.693 2.788 3.973 9.284 2.817 10.073-1.794zm-52.293-63.877c.383-2.52-2.491-5.36-5.593-5.515-4.047.009-7.386 3.429-5.132 6.78 3.042 4.52 10.086 2.927 10.725-1.265m-221.933-70.776c-2.221-.306-6.185 5.013-5.583 7.483.433 1.767 3.065.169 4.794-2.355 1.57-2.297 1.953-4.79.789-5.128m140.065-64.049c-2.135-.192-5.758 2.237-5.192 4.548.611 2.479 4.776 1.36 6.405-1.142.798-1.228.821-3.09-1.213-3.401zm89.326 255.177c-4.936.023-7.413 4.004-5.661 6.958 2.655 4.479 9.927 2.813 10.962-1.379.657-2.671-1.966-5.433-5.301-5.579m-7.449-135.151c.296-2.429-2.564-5.155-5.57-5.31-4.133.018-7.313 3.803-4.585 7.054 3.316 3.945 9.671 2.201 10.155-1.744m-5.529 139.93c.588-2.598-2.208-5.415-5.548-5.584-4.598-.009-7.673 3.48-5.88 6.667 2.737 4.871 10.424 3.346 11.428-1.087zm-93.182-5.51c.502-2.708-2.23-5.639-5.52-5.913-4.475-.151-7.07 3.643-4.79 6.999 3.034 4.466 9.535 3.091 10.31-1.086m115.786-133.715c.146-1.923-1.752-4.904-5.566-5.265-4.447.037-6.801 4.274-4.064 7.315 3.248 3.602 9.342 1.684 9.63-2.05M700.335 96.636c-3.006-.118-6.514 2.744-5.679 5.47 1.063 3.47 6.478 2.288 8.065-.991.872-1.798.037-4.1-2.386-4.479M595.457 298.084c.105-2.671-2.057-5.635-4.366-5.982-.114-.009-.269-.027-.383-.031-3.175-.037-4.635 4.816-1.578 8.273 2.965 3.347 6.199.968 6.327-2.26M725.795 29.845c-1.532-.169-5.693 2.046-5.693 3.685 0 1.32 2.897.648 5.004-1.16 1.063-.913 1.898-2.301.689-2.525M561.211 292.542c-.055-2.005-1.2-5.269-3.49-5.908-.087-.009-.205-.028-.292-.032-2.851-.041-3.417 6.273-.014 9.227 2.108 1.831 3.878-.315 3.796-3.287m218.602 123.731c-3.454-.013-6.104 2.329-5.155 4.557 1.469 3.447 8.056 3.096 9.279-.497.638-1.877-1.442-3.927-4.124-4.06m37.12-115.903c.616-2.675-2.171-5.661-5.419-5.808-4.498.051-7.564 3.959-5.653 7.219 2.738 4.662 10.073 2.945 11.072-1.411m-269.43-90.723c.501-2.073.337-5.269-1.278-5.885-2.509-.324-4.539 5.986-2.892 9.004 1.172 2.146 3.412 0 4.17-3.119m81.548 186.809c-.525-1.612-2.646-4.105-5.269-4.589a2.6 2.6 0 0 0-.999.059c-2.623.763-.876 5.383 2.714 7.164 2.778 1.379 4.302-.324 3.554-2.634m50.706-346.223c-2.368-.168-6.542 2.813-6.665 4.763-.123 1.926 3.709.502 5.825-1.411 1.273-1.15 2.304-3.01.84-3.352m24.698 243.705c.465-2.716-2.322-5.766-5.525-6.045-4.566-.123-7.253 4.068-4.785 7.479 3.111 4.301 9.598 2.712 10.31-1.434M601.36 152.174c-2.919-.233-6.437 3.78-5.355 7.127 1.081 3.342 5.373 1.753 6.97-1.744.967-2.123.484-4.876-1.615-5.383m-18.024-63.135s-.046-.019-.064-.023c-.689-.041-6.783 6.333-6.231 7.401.47.123 2.294-1.703 3.334-2.886 1.369-1.552 3.157-3.981 2.961-4.492m2.131 1.376c-1.228-.265-6.323 5.516-6.341 7.191-.01.886 2.107-.748 3.786-2.662 1.359-1.547 2.988-4.022 2.555-4.534zm3.198 1.415c-1.228-.434-6.533 4.99-6.319 7.15.114 1.145 2.683-.836 4.302-2.74 1.31-1.539 2.71-3.959 2.021-4.41zm191.768 191.117c.571-2.771-2.376-5.807-5.834-6.017-4.106-.014-8.403 3.575-5.726 7.41 3.239 4.644 10.652 3.018 11.56-1.397zm-25.181-7.111c-3.759-.201-8.148 3.461-5.689 7.283 2.796 4.342 10.228 3.666 11.359-1.037.703-2.931-1.943-5.849-5.67-6.246m47.393-71.037c.342-2.274-2.076-5.196-5.702-5.557-4.357.009-7.696 3.749-5.037 7.228 3.581 4.684 10.155 2.242 10.739-1.671m-97.588 73.264c.47-2.748-2.276-5.83-5.442-6.1-4.188-.114-7.509 3.763-5.055 7.529 3.025 4.639 9.744 2.996 10.497-1.429m96.292-157.837c.137-1.681-1.729-4.333-4.967-4.671-3.705.013-6.282 3.419-3.609 6.337 3.244 3.543 8.321 1.425 8.572-1.671zm-17.088 83.639c.296-2.05-1.538-5.114-5.744-5.529-4.014-.009-8.12 3.543-5.251 7.196 3.472 4.415 10.37 2.657 10.99-1.667zm-105.7-143.529c-2.545-.174-6.345 2.77-6.354 4.921-.01 2.292 3.941 1.165 6.195-1.255 1.163-1.251 2.021-3.278.164-3.671zm-87.096 120.496c-2.659-.411-6.4 3.895-4.739 7.671 1.633 3.707 5.807 1.388 6.966-2.037.757-2.228-.037-5.109-2.231-5.634zm-29.223-5.314c-2.806-.292-5.552 5.548-4.028 8.557 1.191 2.351 4.01-.087 5.036-2.89.826-2.251.612-5.132-1.013-5.671zm46.335 194.335c-.46-2.292-3.042-4.94-5.118-5.255a4 4 0 0 0-.648-.009c-2.774.347-2.317 5.082 1.519 7.698 2.975 2.027 4.726-.05 4.247-2.434m191.888-102.115c.547-2.781-2.35-5.794-5.739-5.972-4.494.013-8.12 3.958-5.543 7.629 3.184 4.539 10.415 2.749 11.282-1.662zM571.53 246.813c.333-2.452-.821-5.589-3.011-6.164-3.116-.256-5.296 5.438-2.591 8.995 2.135 2.803 5.114.739 5.602-2.831m230.828-26.721c.273-2.018-1.638-5.155-5.803-5.538-4.252-.196-7.801 3.762-5.128 7.314 3.504 4.648 10.406 2.123 10.931-1.776M670.396 70.109c-2.769-.178-6.611 3.063-6.323 5.337.296 2.324 4.306 1.146 6.446-1.351 1.523-1.781 1.464-3.758-.123-3.986M543.474 186.79c-2.025-.561-4.457 6.347-3.166 9.018.812 1.689 2.751-.315 3.654-3.096.662-2.023.867-5.296-.488-5.922m-13.238 50.606c.241-2.397-.187-5.483-1.127-6.031-.009 0-.023-.009-.032-.009-1.839-.375-2.742 8.077-1.072 10.049.807.954 1.934-1.068 2.231-4.009m254.951-63.013c.497-2.556-2.231-5.355-5.415-5.547-3.964-.014-7.409 3.223-5.365 6.433 2.879 4.52 9.986 3.192 10.78-.886m56.577 166.61c-3.285-.068-7.436 3.205-5.735 6.557 1.998 3.936 8.695 3.077 10.091-1.292.648-2.023-.511-4.977-4.361-5.26zM606.561 69.002c-1.237-.27-7.099 5.027-7.048 6.365.022.63 1.925-.502 3.991-2.379 1.515-1.374 3.408-3.557 3.057-3.99zm-30.711 33.117c-1.14-.475-6.158 6.017-5.839 7.551.15.722 1.948-.689 3.627-2.853 1.25-1.607 2.755-4.21 2.217-4.698zm3.367 1.473c-1.788-.347-6.136 5.694-5.89 7.429.16 1.123 2.386-.53 4.024-2.621 1.474-1.881 2.637-4.442 1.866-4.808m30.213-33.341c-1.551-.247-7.062 4.717-7.021 6.324.023.936 2.414-.507 4.375-2.324 1.46-1.352 3.244-3.553 2.646-3.995zm2.044 40.915c-2.568-.224-6.519 3.62-5.994 6.602.506 2.881 4.429.899 6.245-1.804 1.131-1.685 1.674-4.287-.251-4.798m9.224 1.515c-2.751-.219-6.624 3.397-6.026 6.429.62 3.132 4.758 1.265 6.633-1.52 1.441-2.142 1.136-4.616-.607-4.909m98.911 10.935c-3.426-.264-6.925 3.05-5.301 6.151 1.903 3.629 7.765 2.292 9.006-1.197.638-1.794-.297-4.515-3.705-4.954M611.643 329.805c-.046-2.525-2.514-5.433-4.886-5.762-.114-.009-.269-.027-.388-.027-3.284-.028-4.484 4.57-1.113 7.821 3.034 2.927 6.451 1.265 6.387-2.036zM801.92 133.261c.232-2.237-2.368-4.666-5.155-4.808-3.659 0-6.41 3.192-4.12 6.169 2.998 3.894 8.882 2.401 9.275-1.361m15.424.756c.164-2.315-2.464-4.803-5.21-4.931-3.955.032-5.931 3.557-3.581 6.392 3.056 3.694 8.535 2.173 8.791-1.461m26.559 192.378c-4.037.092-7.555 3.753-5.488 7.05 2.555 4.077 9.06 2.251 10.082-1.817.584-2.315-1.008-4.973-4.594-5.237zM531.978 221.609c.42-2.374.174-5.456-.78-6.027-.045-.009-.1-.027-.146-.027-1.797 0-3.07 7.994-1.564 9.834.843 1.032 2.03-1.187 2.49-3.78M826.623 325.87c-3.746-.11-7.436 3.502-5.666 6.766 2.354 4.347 9.383 2.744 10.547-1.315.67-2.337-1.168-5.155-4.881-5.451m-86.75.978c.434-2.625-2.29-5.328-5.602-5.565-4.561-.083-7.381 3.538-5.205 6.679 3.107 4.484 10.119 3.069 10.807-1.114m-143.75-160.582c-2.992-.219-6.423 4.059-5.082 7.465 1.373 3.484 5.516 1.457 6.898-1.712 1.031-2.365.064-5.433-1.82-5.753zm-32.549-54.899s-.027-.019-.036-.023c-.525.237-5.516 7.264-5.288 8.058.397-.127 1.907-2.237 2.646-3.337 1.296-1.913 2.678-4.26 2.673-4.703zm12.468 51.448c-2.783-.265-6.168 4.766-4.649 8.095 1.127 2.461 4.329.676 5.648-2.393 1.104-2.57.62-5.342-.999-5.698zm17.65-84.747s-.018-.014-.028-.014c-.944-.251-7.121 6.219-6.678 6.99.529.1 2.536-1.771 3.526-2.776 1.647-1.67 3.358-3.808 3.18-4.2m5.068 2.636c-1.414-.434-6.82 5.018-6.724 6.785.054 1.06 2.595-.726 4.279-2.447 1.592-1.626 3.033-3.922 2.445-4.333zm187.047 65.395c.338-1.908-1.268-4.753-5.164-5.132-3.28-.16-7.007 2.845-4.899 6.082 2.755 4.228 9.379 2.899 10.068-.95zm-204.004 2.7c-2.81-.26-6.044 4.52-5.091 7.529.876 2.767 4.27 1.11 5.817-2.054 1.209-2.475.857-5.132-.726-5.47zm53.411 288.775c-.94-1.315-3.38-3.447-5.333-3.867-.419-.064-.643.041-.752.137-1.346 1.178 3.54 5.698 5.912 6.063 1.122.174 1.204-.899.178-2.333zm60.719-394.716c-1.943-.238-6.478 2.62-6.464 4.497.013 1.74 3.704.333 5.684-1.415 1.213-1.069 2.185-2.781.78-3.082m14.562 1.755c-2.222-.105-5.885 2.328-5.812 4.314.073 2 3.722.996 5.734-1.127 1.081-1.142 1.706-2.881.078-3.183zm-49.465 2.559c-2.085-.196-7.112 3.169-7.367 4.931-.188 1.302 2.851.178 5.255-1.611 2.089-1.553 3.075-3.105 2.112-3.32m42.138 5.996c-2.285-.114-5.885 2.301-5.853 4.46.032 2.393 3.937 1.453 6.045-.926 1.469-1.662 1.378-3.347-.192-3.534m27.212 2.686c-2.637-.087-5.383 2.388-4.899 4.41.629 2.64 4.936 1.644 6.455-.904.958-1.607.187-3.346-1.556-3.506m-97.894-4.436c-1.514-.273-7.363 4.155-7.682 5.443-.21.85 2.245-.37 4.421-1.94 1.386-1.005 3.772-3.06 3.261-3.503m38.088 7.824c-2.523-.187-6.652 3.014-6.592 5.114.054 1.94 3.786.78 6.026-1.438 1.66-1.644 1.939-3.461.566-3.676m25.514 3.195c-2.158-.238-6.24 2.401-5.88 4.867.36 2.48 4.58 1.347 6.51-1.187 1.003-1.315 1.469-3.324-.63-3.685zm-78.086-3.129c-1.282-.283-7.199 4.744-7.418 5.909-.127.675 1.866-.388 4.102-2.187 1.56-1.256 3.64-3.306 3.316-3.722m21.738 6.018c-1.647-.32-6.77 3.118-6.943 5.542-.124 1.69 2.988.722 5.547-1.73 1.615-1.548 2.609-3.447 1.396-3.812m49.546 7.056c-2.299-.238-6.373 2.502-5.898 5.136.483 2.667 4.863 1.59 6.793-1.064 1.021-1.406 1.441-3.67-.895-4.072m20.917 2.128c-2.774-.1-6.232 2.68-5.433 5.132.944 2.904 5.611 1.745 7.226-1.109.917-1.62.406-3.671-1.793-4.023m-37.786 7.275c-2.459-.296-6.487 2.827-6.154 5.397.346 2.68 4.881 1.904 7.029-1.205 1.187-1.722 1.123-3.813-.875-4.192m10.396 1.188c-2.805-.137-6.551 2.808-5.958 5.434.607 2.67 5.055 2.009 7.103-1.055 1.346-2.018.789-4.146-1.145-4.379m-90.089-6.215c-.894.246-6.528 6.054-6.696 6.908l.032.027c.501-.096 2.709-2.31 3.147-2.753 1.446-1.461 3.486-3.726 3.549-4.164-.009-.004-.022-.014-.032-.018m27.673 9.438c-2.285-.21-6.774 3.698-6.537 6.278.187 2.031 3.471.662 5.638-1.831 1.716-1.968 2.158-4.173.899-4.452zm67.804 9.229c-2.733-.114-6.697 2.694-5.789 5.653.999 3.26 5.98 2.068 7.709-1.087 1.136-2.068.183-4.333-1.925-4.566zm126.474 12.808c-.032-1.868-2.076-4.132-4.95-4.397-3.654.041-5.26 3.625-2.773 6.182 3.02 3.109 7.782 1.457 7.723-1.785m13.622.409c-.183-1.863-2.363-4.114-5.014-4.337-.132 0-.315 0-.447.013-2.906.261-4.758 3.909-1.501 6.58 3.294 2.703 7.267.881 6.962-2.256M582.319 87.664c-.561.16-6.483 6.611-6.264 7.365.424-.114 2.09-1.913 2.915-2.85 1.132-1.282 3.28-3.921 3.376-4.492-.009-.005-.018-.014-.027-.018zm22.043 8.513c-1.998-.438-6.747 4.228-6.277 6.826.328 1.817 3.421.192 5.41-2.306 1.455-1.83 2.153-4.081.871-4.52zm7.121 1.433c-2.304-.214-6.455 3.594-6.295 6.424.141 2.53 3.768.713 5.711-1.739 1.647-2.073 1.934-4.397.584-4.69zm7.97 1.474c-2.199-.338-6.702 3.356-6.236 6.456.396 2.621 4.37.635 6.249-1.995 1.264-1.772 1.57-4.036-.013-4.46m196.659 21.783c.064-1.949-2.149-4.424-5.091-4.693-3.098-.11-5.917 3.155-3.257 6.236 2.974 3.452 8.238 1.9 8.348-1.538zm14.338.497c-.041-2.21-2.646-4.561-5.16-4.662-3.489.064-5.497 3.543-2.609 6.474 3.202 3.251 7.837 1.594 7.773-1.812zm13.877.417c-.159-2.279-2.746-4.598-5.223-4.68-.119 0-.274 0-.392.009-2.993.246-4.9 3.844-1.446 6.803 3.526 3.022 7.267.817 7.061-2.137zm-270.699-21.11c-1.113-.397-6.008 6.931-5.843 7.634.118.511 1.76-1.128 3.156-2.918 1.228-1.57 2.929-4.155 2.687-4.721zm10.027 4.427c-1.747-.475-6.263 5.127-5.894 7.305.251 1.498 2.879-.434 4.462-2.488 1.264-1.644 2.5-4.301 1.437-4.817zm19.462 4.561c-2.591-.256-6.355 3.935-6.008 6.689.337 2.666 3.946.748 5.771-1.836 1.573-2.233 1.687-4.547.237-4.853m182.905 23.015c.356-1.813-1.223-4.634-5.005-5.004-3.12-.165-6.706 2.703-4.74 5.812 2.592 4.105 9.019 2.895 9.745-.808M566.973 114.35c-1.538-.37-5.739 6.539-5.397 7.899.214.845 2.089-.968 3.499-3.036 1.154-1.694 2.459-4.329 1.898-4.863m46.7 11.019c-2.774-.228-6.528 3.507-5.807 6.635.761 3.291 5.045 1.369 6.788-1.599 1.313-2.237.825-4.734-.986-5.036zm188.657 21.523c.343-2.384-2.294-4.963-5.228-5.119-4.192-.009-6.592 3.434-4.429 6.361 2.951 3.99 9.105 2.57 9.657-1.242M558.843 127.12c-1.286-.315-5.273 6.224-4.958 8.132.164 1 1.852-.539 3.343-3.05.767-1.292 2.24-4.369 1.611-5.082zm3.622 1.598c-1.583-.53-5.647 6.054-4.995 8.095.392 1.224 2.505-.712 3.891-3.105 1.15-1.977 1.885-4.511 1.104-4.995zm205.729 30.189c.374-2.196-1.437-4.799-5.019-5.173-3.585-.183-7.6 3.141-5.095 6.602 2.691 3.717 9.402 2.767 10.114-1.429m34.442 1.848c.251-1.904-1.551-4.858-5.456-5.219-3.617-.155-7.23 3.388-4.416 6.799 3.189 3.867 9.37 2.242 9.872-1.58m-251.169-20.351c-1.31-.465-5.078 6.803-4.43 8.547.31.836 1.839-.767 3.143-3.301 1.045-2.022 1.834-4.757 1.291-5.246zm3.736 1.653c-1.747-.31-5.306 6.288-4.535 8.402.461 1.26 2.4-.649 3.668-3.091.949-1.831 1.738-4.735.867-5.311m4.963 1.675c-1.92-.511-5.538 5.885-4.662 8.246.579 1.575 2.806-.242 4.147-2.776 1.008-1.904 1.692-4.904.515-5.47m6.118 1.686c-2.35-.297-5.721 5.328-4.813 8.026.68 2.028 3.353.156 4.776-2.666 1.059-2.105 1.337-4.822.037-5.356zm24.808 5.092c-2.792-.247-6.351 4.155-5.169 7.433 1.022 2.835 4.644 1.32 6.236-1.813 1.131-2.232.972-5.086-1.067-5.62m153.736 16.26c-4.061-.073-7.523 3.406-5.365 6.748 2.449 3.799 9.155 3.078 10.25-1.104.612-2.334-1.245-5.224-4.885-5.648zm22.467 6.578c.525-2.616-1.984-5.283-5.159-5.488-3.951-.041-7.423 3.214-5.438 6.474 2.486 4.082 9.717 3.411 10.597-.986m85.207 3.432c.032-2.612-2.618-5.168-5.456-5.264-4.046.105-6.528 4.223-3.234 7.51 3.439 3.438 8.645 1.471 8.69-2.246m-311.354-25.859s-.019-.013-.028-.023c-.616.407-3.868 8.118-3.823 9.068a.4.4 0 0 1 .069.009c.479-.475 1.647-3.127 1.779-3.429.953-2.178 2.035-5.109 2.003-5.625m102.123 295.846c-1.05-1.215-3.445-3.091-5.215-3.466q-.452-.069-.666.101c-1.236 1.027 4.197 5.46 6.173 5.629 1.126.096.734-1.077-.297-2.269zm-98.387-292.561c-1.41-.338-4.767 7.255-3.951 8.926.411.836 1.894-1.127 2.897-3.369.972-2.178 1.661-5.141 1.054-5.557m22.622 6.891c-2.582-.283-5.57 4.94-4.571 7.981.826 2.516 3.728.868 5.142-2.187.917-1.977 1.241-5.178-.571-5.794m18.061 3.467c-2.929-.242-6.264 4.26-4.845 7.735 1.296 3.168 5.032.899 6.305-2.124.816-1.945.657-5.017-1.455-5.606zm180.861 23.299c.388-2.324-1.656-5.078-5.314-5.47-3.796-.224-7.943 3.406-5.306 7.004 3.143 4.282 9.922 2.62 10.616-1.53zm18.33.911c.274-2.297-1.925-5.004-5.634-5.369-3.403-.174-8.02 3.342-5.073 7.058 3.403 4.292 10.21 2.521 10.707-1.689m35.556 1.62c.159-2.009-1.912-5.018-5.644-5.351-3.79-.151-7.472 3.95-4.197 7.552 3.404 3.739 9.535 1.721 9.845-2.196zm33.402 1.236c.182-2.675-2.532-5.397-5.479-5.497-3.836.109-6.523 3.958-3.846 7.273 3.248 4.023 9.056 2.247 9.329-1.771zm-317.217-24.82s-.009-.009-.014-.009c-.825-.37-3.832 8.059-3.316 9.3.242.585 1.323-1.392 2.13-3.547.753-2.014 1.57-5.173 1.2-5.744m2.591 1.692-.027-.013c-1.369-.357-4.17 7.296-3.371 9.2.406.968 1.897-1.283 2.787-3.735.785-2.164 1.232-4.936.616-5.452zm9.142 3.503c-2.13-.338-4.84 6.041-3.718 8.753.762 1.84 2.884-.484 3.864-2.973.986-2.497.913-5.415-.146-5.78m22.71 5.286c-2.824-.265-5.922 4.817-4.234 8.296 1.346 2.781 4.535.393 5.62-2.57.717-1.95.63-5.109-1.386-5.726m158.321 23.227c.474-2.292-1.474-5.146-5.037-5.584-3.681-.247-7.919 3.31-5.447 7.109 2.87 4.411 9.599 2.73 10.484-1.53zm17.932 1.25c.393-1.972-1.008-5.109-5.26-5.584-3.722-.246-7.965 3.283-5.437 7.054 2.988 4.457 9.849 2.808 10.697-1.47m107.424 4.911c.233-2.749-2.427-5.438-5.474-5.538-4.129.105-6.916 4.25-3.851 7.702 3.353 3.776 8.983 1.813 9.325-2.164M531.54 181.5c-.374-.141-1.186 1.616-1.925 4.182-.561 1.946-1.054 4.749-.821 5.311.269.643 1.2-1.343 1.866-3.525.625-2.046 1.295-5.347.88-5.963zm2.646 1.765c-1.628-.407-3.599 7.762-2.833 9.35.461.955 1.715-1.141 2.45-3.511.625-2.013 1.104-5.164.383-5.839m3.992 1.74c-1.934-.365-3.928 7.095-2.993 9.196.602 1.356 2.199-.667 3.034-3.215.684-2.086.999-5.369-.037-5.981zm28.393 7.226c-3.02-.306-5.483 5.096-3.818 8.374 1.487 2.931 4.589.484 5.547-2.598.625-2.014.502-5.137-1.729-5.776m179.424 24.906c.402-2.014-1.026-5.224-5.364-5.721-4.549-.087-7.605 3.689-5.634 6.967 2.86 4.753 10.127 3.137 10.998-1.246m92.11 4.25c.16-1.995-1.515-5.095-5.611-5.424-4.348-.118-7.45 4.356-4.215 7.904 3.476 3.812 9.502 1.611 9.821-2.484zM534.693 205.92c.538-2.306.479-5.251-.461-5.794 0 0-.009 0-.014-.004-1.779-.457-3.686 7.035-2.399 9.428.748 1.393 2.23-.868 2.874-3.63m-7.272 13.971c.36-2.064.456-5.429-.306-6.114-.032-.009-.073-.027-.105-.027-1.395-.009-2.659 8.648-1.455 9.958.598.653 1.465-1.493 1.866-3.822zm254.787 30.769c.374-2.489-1.884-5.415-5.835-5.808-4.023-.215-8.467 3.785-5.565 7.547 3.471 4.502 10.743 2.667 11.4-1.739m-246.147-11.077c.342-2.47-.242-5.798-1.501-6.383a.6.6 0 0 0-.21-.027c-1.879.059-3.184 7.406-1.172 9.871 1.14 1.397 2.509-.753 2.878-3.461zm206.773 24.862c.356-2.502-1.82-5.479-5.625-5.918-3.959-.255-8.225 3.712-5.415 7.662 3.029 4.255 10.356 3.1 11.04-1.744m76.188 4.079c.552-2.853-2.208-5.798-5.57-5.954-4.657.041-7.591 4.173-5.41 7.621 2.669 4.223 10.054 3.1 10.98-1.667m35.483 1.141c.461-2.57-1.56-5.634-5.187-5.922-4.014-.077-7.436 4.324-4.963 7.895 2.769 3.995 9.315 2.725 10.155-1.973zm-319.192-14.06c.182-2.73-.753-5.908-1.857-6.296-.054-.009-.123-.028-.178-.028-2.116.009-2.495 7.949-.479 9.999 1.177 1.197 2.336-1.036 2.514-3.68zm7.117 1.636c.127-2.42-.812-5.539-2.263-6.096a1 1 0 0 0-.26-.027c-2.204.105-3.152 7.388-.589 9.912 1.342 1.325 2.943-.625 3.112-3.794zm8.293 1.926c.164-2.443-.867-5.566-2.605-6.132a1.3 1.3 0 0 0-.269-.027c-2.523.023-3.668 6.734-.949 9.638 1.77 1.895 3.613-.37 3.823-3.479m172.563 20.079c.315-2.42-1.884-5.429-5.542-5.881-4.234-.283-7.815 3.931-5.187 7.625 3.216 4.52 10.159 2.666 10.734-1.744zm76.262 4.568c.556-2.657-2.432-5.762-5.707-5.931-4.434.018-8.134 4.018-5.579 7.588 3.234 4.525 10.364 2.753 11.286-1.657m36.586 1.184c.361-2.429-1.742-5.346-5.333-5.652-3.8-.11-7.91 3.995-5.223 7.821 3.056 4.361 9.899 2.233 10.556-2.169m17.399.686c.539-2.831-1.98-5.712-5.077-5.817-4.562.133-7.409 4.539-5.077 7.863 2.937 4.191 9.347 2.205 10.154-2.046M550.86 275.105c.05-2.415-1.131-5.52-2.906-6.109-.073-.009-.173-.027-.251-.027-2.509.009-3.271 6.529-.401 9.51 1.756 1.822 3.494-.356 3.553-3.374zm190.282 21.271c.378-2.401-1.848-5.383-5.648-5.817-3.946-.26-8.125 3.571-5.269 7.402 3.367 4.515 10.223 2.798 10.917-1.585m57.347 3.049c.37-2.091-1.605-5.25-5.67-5.639-3.563-.164-8.49 3.576-5.493 7.493 3.595 4.694 10.461 2.123 11.168-1.854zm31.176-4.191c-4.032.069-7.572 3.749-5.538 7.278 2.641 4.584 9.544 2.977 10.684-1.383.73-2.785-1.87-5.762-5.146-5.895m-50.203 3.358c.392-2.119-1.41-5.283-5.817-5.717-4.261-.023-8.015 3.443-5.88 6.885 3.129 5.041 10.843 3.434 11.697-1.168m-207.836-4.13c.004-2.708-1.839-5.616-3.796-5.977-.1-.009-.237-.027-.337-.032-2.906-.018-3.846 5.347-.721 8.689 2.577 2.758 4.849.278 4.854-2.685zm11.468 1.91c.096-2.648-1.97-5.707-4.096-6.063-.11-.009-.256-.028-.361-.028-2.928-.013-4.593 4.995-1.008 8.63 2.76 2.794 5.356.397 5.465-2.539m176.186 16.629c.388-2.055-1.122-5.164-5.698-5.648-4.913-.073-7.856 3.748-5.433 7.049 3.216 4.379 10.337 2.79 11.131-1.406zm19.137 1.121c.616-2.676-2.181-5.507-5.652-5.708-4.366-.032-8.134 3.402-5.867 6.826 3.025 4.561 10.538 3.137 11.519-1.114zm54.953 2.042c.506-2.635-1.957-5.237-5.069-5.352-4.735.055-7.691 4.146-5.369 7.425 2.942 4.145 9.63 2.132 10.433-2.069zm-248.788-4.883c-.128-1.941-1.748-5.073-4.352-5.658-.402-.059-.667-.013-.762 0-2.902.484-3.258 5.863.219 8.717 2.773 2.273 5.077-.247 4.895-3.055zm-19.037 11.377c-.342-2.301-2.017-5.128-3.969-5.662a1.4 1.4 0 0 0-.538 0c-2.464.484-2.067 6.159 1.272 8.771 2.03 1.589 3.696-.009 3.235-3.105zm74.199 10.396c.014-2.557-2.541-5.369-5.164-5.68-.137-.009-.319-.022-.456-.022-3.28.022-5.465 4.118-1.875 7.574 3.376 3.251 7.472 1.612 7.495-1.872m15.159 1.529c.078-2.571-2.49-5.297-5.282-5.607-.137-.005-.32-.023-.457-.023-3.353.028-5.875 3.826-2.363 7.369 3.372 3.406 7.993 1.831 8.098-1.744zm121.379 8.791c.401-2.169-1.793-4.84-5.579-5.21-3.618-.191-7.933 3.046-5.652 6.438 2.965 4.415 10.474 2.858 11.231-1.228m12.956-4.288c-3.997 0-7.569 2.995-5.89 6.182 2.395 4.552 9.922 3.31 11.136-.753.734-2.47-1.962-5.26-5.246-5.429m23.028 6.006c.57-2.205-1.337-4.899-4.986-5.233-4.302.019-7.395 3.457-5.807 6.456 2.344 4.425 9.73 2.872 10.793-1.223m-222.607-4.523c-.329-2.109-2.445-4.958-4.685-5.474-.347-.051-.561-.01-.652.004-2.774.498-2.628 5.516 1.021 8.26 2.915 2.187 4.722-.16 4.316-2.79m185.473 16.891c.429-2.105-1.797-4.725-5.428-5.086-3.609-.169-7.81 2.881-5.584 6.182 2.933 4.356 10.196 2.904 11.012-1.096m-170.446-1.134c-.356-2.314-2.92-5.095-4.986-5.401-.201-.014-.47-.032-.671-.005-2.91.393-2.719 5.324 1.122 8.004 2.998 2.092 4.918-.105 4.535-2.593zm-7.254 11.741c-.529-2.009-2.76-4.62-4.945-5.113a2 2 0 0 0-.607 0c-2.7.438-1.756 5.52 2.24 7.976 2.683 1.653 3.924-.552 3.312-2.863m204.127 12.819c-3.321-.114-6.797 2.598-5.67 5.424 1.674 4.192 8.658 3.124 10.091-.598.766-1.986-.999-4.529-4.421-4.826m-199.282.191c-.566-1.699-2.632-4.333-5.032-4.859a1.9 1.9 0 0 0-.853.06c-2.5.849-.451 5.812 3.175 7.698 2.35 1.219 3.476-.603 2.71-2.899m180.944 11.779c-3.974-.027-6.793 2.744-5.393 5.287 2.154 3.913 8.8 2.758 9.959-.776.684-2.086-1.619-4.365-4.566-4.515zm31.91 1.256c-3.348-.109-6.838 2.781-5.533 5.525 1.792 3.762 8.225 2.301 9.456-1.233.653-1.872-.661-4.045-3.927-4.287zm30.017.772c-2.837-.051-6.801 2.634-5.848 5.469 1.259 3.753 7.336 2.311 8.946-1.219.748-1.639.283-4.04-3.102-4.25zm-240.403 9.311c-.985-2.046-3.581-4.429-5.15-4.717-.192-.018-.425-.041-.644.041-2.02.772 1.287 6.091 4.535 7.292 1.629.603 2.217-.621 1.255-2.616zm9.069 1.373c-.798-1.808-3.207-4.164-5.246-4.616-.397-.059-.666.009-.817.078-2.125.94.867 5.904 4.325 7.177 1.98.731 2.55-.794 1.734-2.639zm6.583 11.269c-.994-1.863-3.713-4.109-5.287-4.369-.301-.023-.584-.046-.872.155-1.824 1.301 2.176 6.063 5.078 6.83 1.706.452 1.939-1.018 1.081-2.616m51.956-377.675c-1.98-.169-7.445 3.174-7.591 4.648-.096.982 2.714-.018 4.995-1.488 1.67-1.078 3.554-2.822 2.596-3.16m93.208 163.759c.429-2.333-1.71-5.214-5.465-5.616-4.174-.041-7.76 3.52-5.57 6.899 3.047 4.698 10.223 3.137 11.035-1.283m60.382-106.176c-.205-2.05-2.623-4.146-4.877-4.237-.114 0-.269 0-.383.009-2.769.215-4.457 3.749-1.25 6.278 2.86 2.255 6.816 1.009 6.51-2.046zm-222.16-30.209c-.671-.046-7.026 5.744-7.08 6.451.305.156 2.979-2.232 3.28-2.506 1.519-1.36 3.745-3.548 3.809-3.936 0 0-.005-.01-.009-.014zm-61.445 86.021c-.798-.452-4.324 7.671-3.886 8.958.196.58 1.254-.917 2.308-3.264.99-2.21 1.898-5.173 1.583-5.694zm-4.557 71.04c.534-2.735-.041-5.808-1.163-6.201-2.427-.374-3.586 7.232-2.039 9.534.98 1.456 2.595-.229 3.202-3.333m220.632 104.49c.584-2.717-2.071-5.401-5.57-5.625-4.599-.064-7.605 3.502-5.547 6.584 2.988 4.47 10.227 3.164 11.112-.959zm4.407-78.397c.442-2.872-2.254-5.689-5.657-5.908-4.653-.064-8.307 3.959-5.429 7.652 3.363 4.315 10.433 2.502 11.086-1.744m-154.101 50.104c.127-2.639-2.14-5.566-4.58-5.909-3.874-.264-5.352 4.58-2.432 7.977 3.075 3.58 6.847 1.297 7.012-2.068m211.047-47.385c.456-2.78-2.349-5.661-5.666-5.807-4.794.045-7.65 4.419-5.091 7.803 3.189 4.214 10.059 2.246 10.757-1.996M676.613 94.214c-2.568-.284-6.769 2.767-5.948 5.734.784 2.84 5.556 2.028 7.509-1.278 1.058-1.794.675-4.064-1.561-4.456m143.878 111.435c.379-2.69-2.427-5.475-5.666-5.626-4.548.042-7.148 4.169-4.639 7.365 3.257 4.146 9.721 2.374 10.305-1.739m-231.329-99.033c-2.35-.32-6.259 4.826-5.949 7.1.246 1.821 3.097.178 4.963-2.333 1.182-1.594 2.313-4.21.986-4.767m248.669 99.568c.292-2.671-2.468-5.406-5.57-5.52-4.626.073-6.98 4.328-4.192 7.588 3.316 3.886 9.324 1.95 9.762-2.068m-97.378 105.768c.524-2.74-2.204-5.552-5.616-5.794-4.662-.091-7.545 3.538-5.41 6.817 3.033 4.648 10.205 3.273 11.026-1.023M572.579 99.257l-.036-.023c-.557.206-5.981 6.899-5.762 7.698.42-.127 2.053-2.132 2.856-3.177 1.181-1.535 2.933-4.027 2.942-4.498m-23.845 56.613c-1.405-.498-5.063 6.269-4.073 8.775.506 1.288 2.417-.776 3.526-3.319.899-2.064 1.346-4.959.547-5.456m44.178-62.601c-1.889-.274-6.437 4.743-6.319 6.976.082 1.557 2.925-.424 4.667-2.497 1.309-1.562 2.573-4.018 1.652-4.475zm131.223 170.14c.552-2.853-2.14-5.912-5.429-6.173-4.822-.109-7.773 4.37-5.177 7.849 3.124 4.191 9.812 2.456 10.611-1.676zm57.183 3.403c.502-2.822-2.372-5.794-5.798-5.999-4.566-.014-8.293 3.858-5.716 7.497 3.348 4.725 10.711 3.022 11.514-1.498m-3.964 62.15c.406-2.009-1.323-5.018-5.62-5.438-4.293-.037-7.961 3.182-5.831 6.524 2.934 4.603 10.602 3.123 11.451-1.082zm59.711-59.784c.47-2.548-1.738-5.634-5.401-5.949-4.129-.11-7.646 4.269-5.101 7.871 2.997 4.242 9.722 2.32 10.502-1.922m-41.103 60.635c.484-2.246-1.633-4.999-5.451-5.36-4.571-.018-7.66 3.502-5.794 6.607 2.778 4.621 10.324 3.027 11.245-1.242zM607.774 83.424c-2.025-.247-6.628 4.219-6.656 6.46-.018 1.662 2.829.229 4.968-2.054 1.784-1.904 2.637-4.128 1.688-4.406m-4.986-1.36c-1.752-.247-6.624 4.52-6.679 6.543-.041 1.42 2.582-.041 4.644-2.21 1.383-1.457 2.906-3.84 2.035-4.333m-53.803 56.741s-.046-.023-.064-.023c-.967-.069-4.826 7.725-4.306 8.684.237.438 1.427-1.114 2.591-3.393.853-1.666 2.094-4.574 1.779-5.268m46.728-59.441c-1.041-.484-6.825 5.406-6.725 6.849.046.69 2.049-.653 4.042-2.717 1.396-1.447 3.093-3.716 2.687-4.136zm-47.882 57.862s-.023-.018-.032-.023c-.698.406-4.375 7.817-4.32 8.716q.02.015.041.023c.383-.233 1.533-2.36 2.153-3.579 1.036-2.037 2.176-4.667 2.158-5.137m122.888-31.174c-3.024-.151-6.724 2.986-5.921 5.899.926 3.347 5.953 2.087 7.769-1.164 1.191-2.137.278-4.479-1.848-4.735m-82.447 29.2c-2.491-.246-6.163 4-5.442 7.169.625 2.767 4.119 1.191 5.839-1.89 1.355-2.425 1.168-4.945-.392-5.279zm-33.621 38.517c-2.413-.31-5.146 5.703-3.901 8.58.89 2.059 3.358.095 4.48-2.818.981-2.547.694-5.401-.579-5.762m68.812-99.635c-2.126-.22-6.734 3.757-6.852 5.912-.091 1.662 2.805.699 5.255-1.753 1.875-1.876 2.651-3.899 1.597-4.164zm118.463 206.513c.361-2.196-1.405-5.511-5.647-6.013-4.366-.064-7.934 3.908-5.356 7.561 3.248 4.602 10.278 2.881 11.003-1.548M613.235 71.534c-1.519-.429-7.012 4.448-6.998 6.21.009 1.233 2.691-.233 4.799-2.256 1.633-1.566 2.938-3.575 2.199-3.954m-70.208 98.694c-1.77-.305-4.516 6.694-3.54 9.023.589 1.41 2.436-1.051 3.326-3.402.716-1.895 1.159-5.027.214-5.625zm30.268 139.634c-.05-2.064-1.533-5.406-4.083-6.045-.095-.01-.219-.028-.314-.028-2.852-.018-3.417 5.584-.055 8.68 2.336 2.15 4.521.324 4.448-2.607zm244.779-25.176c.625-2.763-2.19-5.845-5.479-5.991-4.617.041-7.632 4.228-5.47 7.589 2.838 4.41 9.982 2.671 10.944-1.598zM582.51 86.387c-.059.05-6.181 6.89-6.272 7.278.492-.484 2.513-2.803 2.6-2.904 1.277-1.465 3.39-3.954 3.677-4.36v-.018zm35.41-13.553c-1.528-.36-6.797 3.89-6.93 6.054-.086 1.397 2.523.402 4.895-1.863 1.533-1.46 3.048-3.766 2.035-4.19m142.194 224.722c.356-2.146-1.441-5.365-5.748-5.83-4.078-.032-8.293 3.616-5.41 7.406 3.417 4.492 10.429 2.78 11.154-1.58zM705.148 85.245c-2.226-.2-6.405 2.375-5.579 5.251.862 3 6.054 2.297 7.719-1.045.844-1.699.109-3.854-2.14-4.206M557.739 190.404c-2.824-.329-5.232 5.506-3.572 8.67 1.282 2.448 3.983.014 4.886-2.839.621-1.964.634-5.174-1.314-5.831m-3.927-32.775c-2.04-.315-5.101 5.735-4.252 8.401.593 1.863 2.787.009 4.06-2.79 1.122-2.47 1.218-5.25.192-5.611m139.909-73.485c-2.915-.123-6.547 2.827-5.707 5.443.871 2.726 5.556 1.968 7.372-1.192 1.008-1.753.579-3.876-1.665-4.25M575.636 324.466c-.324-2.63-2.331-5.342-4.206-5.689-.174-.014-.411-.032-.58-.005-2.714.42-2.673 5.707.821 8.584 2.25 1.849 4.362.31 3.965-2.89M838.433 97.147c-.31-2.092-2.778-4.215-4.99-4.288-.11 0-.256 0-.365.014-2.701.242-4.106 3.717-.812 6.273 2.933 2.279 6.623 1.087 6.167-1.995zm-1.979 79.326c.205-2.329-2.026-5.127-5.552-5.424-3.704-.101-6.51 3.817-3.946 7.04 2.915 3.662 9.128 2.607 9.498-1.616M614.01 344.108c-.187-2.407-2.76-5.283-5.004-5.598-.224-.014-.525-.032-.744 0-3.093.388-3.658 4.899-.109 7.83 3.052 2.516 6.095.822 5.857-2.228zm27.495 3.135c-.1-2.219-2.235-4.935-5.255-5.447-.128-.004-.297-.023-.425-.023-3.188.023-5.173 3.881-1.624 7.269 3.408 3.256 7.459 1.685 7.299-1.803zm21.081-266.699c-2.468-.316-6.761 3.14-6.273 5.684.452 2.351 4.667 1.383 6.834-1.57 1.204-1.644 1.268-3.736-.561-4.115m176.751 274.574c-3.695.101-7.281 3.466-5.726 6.47 1.907 3.689 8.572 2.703 9.904-1.466.853-2.666-1.592-4.917-4.178-5.004m-222.398 2.718c-.314-2.082-2.563-4.771-5.109-5.264a3 3 0 0 0-.762 0c-2.979.415-3.148 4.949.552 7.73 3.308 2.484 5.735.274 5.319-2.466m26.824 3.27c-.164-2.352-2.842-5.041-5.31-5.333a6 6 0 0 0-.798 0c-2.961.365-4.38 4.205-.552 7.337 3.576 2.931 6.861.826 6.66-2.014zm159.854 6.611c-3.052-.119-6.998 2.566-5.803 5.638 1.729 4.452 8.923 3.37 10.397-.566.78-2.091-1.054-4.762-4.594-5.077zm16.779.607c-3.176-.101-7.281 2.922-5.721 6.068 2.062 4.159 8.868 2.589 10.041-1.311.616-2.036-1.009-4.492-4.325-4.757zm16.231.471c-3.07-.078-7.172 2.94-5.798 6.045 1.738 3.936 8.17 2.639 9.68-1.059.88-2.156-.497-4.735-3.882-4.991zM620.68 60.479c-1.241-.416-7.231 4.387-7.368 5.903-.077.886 2.5-.534 4.585-2.274 1.487-1.242 3.335-3.246 2.783-3.63m-80.244 147.488c.68-2.662.269-5.643-.83-6.022-2.304-.374-3.942 6.689-2.664 9.168.926 1.804 2.755-.246 3.499-3.146zM715.472 64.417c-2.646-.11-6.017 2.534-5.324 4.877.78 2.634 5.192 1.488 6.806-1.15.817-1.339.758-3.375-1.482-3.727m-9.904-.967c-2.537-.115-5.999 2.405-5.63 4.738.42 2.64 4.736 1.64 6.583-.927 1.291-1.794.84-3.611-.958-3.812zm-55.427-7.551c-1.816-.352-7.135 3.3-7.149 5.342-.009 1.388 2.97.237 5.287-1.667 1.52-1.25 3.162-3.283 1.862-3.675m-14.375-3.369c-1.419-.379-7.586 4.096-7.582 5.502 0 .859 2.692-.452 4.891-2.127 1.564-1.192 3.371-3.028 2.691-3.374m-5.775-2.209c-1.182-.251-7.769 4.502-7.746 5.593.401.36 3.065-1.347 4.292-2.228 1.588-1.137 3.778-2.995 3.454-3.365M620.47 371.39c-.388-2.296-2.961-4.853-5.187-5.163-.214-.014-.502-.037-.716-.014-2.888.31-2.883 4.63.835 7.378 3.316 2.457 5.501.365 5.068-2.201m164.356 8.813c-3.795-.009-7.198 2.776-5.479 5.639 2.405 4 9.243 2.698 10.287-.959.557-1.954-1.277-4.356-4.808-4.675zm33.029 1.309c-3.267-.095-6.779 2.644-5.758 5.466 1.501 4.15 8.321 2.972 9.827-.758.812-2.014-.657-4.443-4.065-4.712zM563.031 207.434c-3.148-.306-5.333 5.36-3.344 8.666 1.56 2.589 4.462.685 5.324-2.612.748-2.844-.178-5.675-1.985-6.059zm50.017 175.363c-.579-2.223-3.148-4.707-5.187-5.008-.264-.023-.588-.051-.921.036-2.687.694-1.059 5.474 2.559 7.525 2.618 1.483 4.165-.192 3.549-2.553m11.432 1.324c-.452-1.685-2.514-4.283-5.223-4.785a3 3 0 0 0-1.081.059c-2.66.735-1.437 5.146 2.011 7.264 2.947 1.808 4.982.046 4.293-2.543zm3.868-334.877c-.857-.265-8.051 4.904-7.778 5.589.452.114 2.66-1.329 3.896-2.2 1.556-1.101 3.987-2.992 3.882-3.389m171.104 344.295c-4.033 0-6.902 2.982-5.388 5.607 2.122 3.675 8.632 2.164 9.635-1.324.538-1.863-1.2-4.141-4.247-4.283m-228.971-277.65c-1.853-.351-5.831 5.84-5.466 7.744.233 1.219 2.455-.58 4.006-2.863 1.127-1.662 2.294-4.356 1.464-4.876zM711.859 54.08c-2.345-.095-5.794 2.334-5.557 4.485.274 2.447 4.371 1.429 6.232-1 .958-1.251 1.254-3.16-.675-3.484m-147.204 58.763c-1.154-.415-5.579 7.233-5.365 7.968.142.484 1.497-.9 2.952-3.018.917-1.333 2.71-4.292 2.408-4.95zm221.239 296.347c.698-2-1.492-4.182-4.343-4.324-3.599-.018-6.368 2.425-5.388 4.753 1.647 3.918 8.545 2.964 9.726-.429zm11.213-3.655c-3.293-.133-6.642 2.612-5.282 5.251 1.788 3.479 8.211 2.159 9.333-1.096.607-1.758-.908-3.899-4.046-4.155zM718.378 45.431c-1.643-.169-5.557 1.955-5.47 4.169.091 2.31 3.896 1.329 5.825-.986.949-1.137 1.273-2.9-.355-3.183m-29.073-3.481c-2.099-.141-6.638 2.63-6.77 4.525-.11 1.553 3.366.283 5.442-1.337 1.797-1.402 2.468-3.01 1.328-3.187m35.76-4.403c-1.888-.064-5.519 2.114-5.355 4 .155 1.826 3.563.867 5.374-1.096 1.09-1.182 1.35-2.662-.019-2.9zm-7.016-.733c-2.012-.087-5.666 2.173-5.748 3.931-.077 1.64 3.061 1.064 5.246-.959 1.46-1.351 1.707-2.826.502-2.972m76.677 380.094c-2.988-.1-6.204 2.251-5.278 4.703 1.323 3.507 7.659 2.479 9-.612.744-1.716-.689-3.83-3.718-4.091zM705.075 35.254c-1.783-.21-6.318 2.379-6.51 4.068-.155 1.356 2.947.63 5.352-1.26 1.245-.977 2.376-2.543 1.158-2.812zm26.847-4.749c-1.852-.069-5.192 1.977-5.242 3.552-.05 1.525 2.943.936 4.927-.973.976-.936 1.629-2.356.315-2.584zM611.743 415.476c-1.118-1.913-3.736-4.137-5.187-4.406-.178-.018-.397-.037-.588.05-1.907.881 2.121 6.264 5.255 7.022 1.314.315 1.551-.904.516-2.666zm150.151-149.712c.515-2.881-2.254-5.821-5.698-6.045-4.316-.032-8.025 3.739-5.757 7.31 2.869 4.515 10.579 3.666 11.459-1.265zm-234.897-63.223c.46-1.995.939-5.264.502-5.935-.019-.01-.046-.028-.064-.028-.849-.032-2.669 8.525-2.076 9.735.278.566 1.04-1.201 1.638-3.772m91.06-62.405c-3.234-.247-6.615 3.885-5.657 6.903 1.017 3.201 5.502 1.79 7.254-1.498 1.259-2.36.451-5.086-1.602-5.405zm-87.922 64.235c.584-2.387.744-5.451.041-6.026-.004 0-.013-.01-.018-.01-1.337-.41-3.202 7.662-2.222 9.598.498.981 1.611-1.146 2.204-3.562zm99.837 155.039c-.278-2.077-2.49-4.735-5.223-5.214a3 3 0 0 0-.826.009c-3.216.461-3.572 4.922.306 7.716 3.248 2.343 6.149.535 5.743-2.506zm-22.764-220.885c-2.404-.375-6.591 3.611-5.57 6.972.963 3.164 5.251 1.547 6.939-1.827.88-1.762.903-4.611-1.369-5.145m-9.921-1.632c-2.774-.242-6.506 4.027-5.466 7.214.908 2.789 4.658 1.137 6.323-2.009.972-1.831 1.209-4.657-.857-5.205m-40.843-11.331c-1.104-.402-5.091 7.456-4.9 8.25.146.607 1.396-.79 2.783-3.109 1.072-1.79 2.404-4.575 2.112-5.141zm143.079-52.097c-2.714-.12-6.295 2.652-5.679 5.123.702 2.794 5.251 1.652 7.002-1.105.876-1.384 1.063-3.617-1.323-4.018M624.234 61.68c-1.392-.392-7.048 4.092-7.29 5.776-.169 1.16 2.386-.077 4.594-1.904 1.633-1.351 3.448-3.479 2.696-3.872m34.848 43.034c-2.591-.296-6.811 2.941-5.976 6.073.844 3.155 5.547 1.826 7.459-1.352.981-1.634 1.017-4.255-1.487-4.721zm-42.85-46.57s-.046-.019-.068-.019c-.694-.036-7.842 5.27-7.345 6.077.534.064 2.664-1.515 3.841-2.456 1.578-1.27 3.732-3.224 3.572-3.598zm109.536 7.21c-2.797-.1-5.643 2.543-5.073 4.712.735 2.804 5.411 1.79 6.925-.886.995-1.753.078-3.648-1.852-3.826m-79.309 308.988c-.242-2.009-2.481-4.575-5.319-5.045a5 5 0 0 0-.803 0c-2.878.338-4.06 4.036-.16 7.077 3.641 2.84 6.615.772 6.278-2.036zm-96.457-185.741c-2.755-.379-4.781 6.319-3.312 8.917 1.063 1.882 3.335-.182 4.252-3.1.639-2.032.671-5.182-.935-5.817zm172.545 106.706c.552-2.799-2.144-5.698-5.547-5.968-4.69-.132-7.477 3.776-5.141 7.21 3.093 4.552 9.84 3.054 10.688-1.242m124.732.513c-4.475.101-7.372 4.11-5.342 7.402 2.682 4.351 9.183 2.575 10.232-1.708.703-2.872-1.628-5.589-4.89-5.694m-5.785-186.849c-.314-1.858-2.49-4.077-5.1-4.283-.433-.009-.73.06-.83.083-2.692.616-3.869 4.351-.256 6.798 3.308 2.237 6.684.315 6.186-2.598M633.12 373.018c-.278-2.37-2.837-4.904-5.26-5.219-.232-.014-.547-.032-.78 0-2.979.347-3.398 4.21.187 7.091 3.394 2.73 6.168.799 5.853-1.868zM613.641 84.821c-2.194-.228-6.638 4.005-6.601 6.292.027 1.909 3.143.534 5.31-1.867 1.797-1.996 2.427-4.141 1.291-4.425m-53.548 74.518c-2.367-.296-5.374 5.338-4.407 8.265.776 2.337 3.477.032 4.672-2.685.848-1.936 1.158-4.995-.265-5.575zm273.55 222.631c-3.056-.077-7.052 2.74-5.752 5.758 1.711 3.972 8.111 2.465 9.507-1.26.743-1.986-.479-4.269-3.755-4.498M595.375 122.2c-2.801-.283-6.455 4.337-5.666 7.168.653 2.333 3.924.772 5.739-2.086 1.483-2.338 1.451-4.762-.073-5.087zm1.419 190.858c-.082-1.945-1.766-5.082-4.589-5.671a9 9 0 0 0-.438-.028c-3.271.037-4.257 5.269-.698 8.456 3.074 2.754 5.853.256 5.725-2.753zm13.074 1.954c.032-2.616-2.312-5.511-4.735-5.844-.118-.009-.283-.027-.401-.027-3.358-.028-4.772 4.698-1.451 8.049 3.002 3.027 6.542 1.26 6.587-2.173zm198.949 10.234c-4.005-.137-7.664 3.42-5.647 6.803 2.632 4.411 9.822 2.712 10.839-1.438.497-2.023-1.031-5.009-5.196-5.365zm-152.463 23.463c-.068-2.146-2.281-4.868-5.342-5.347a9 9 0 0 0-.511-.018c-3.33.091-5.488 3.986-1.852 7.296 3.531 3.214 7.815 1.571 7.701-1.931zm-69.569-22.397c-.196-2.516-2.473-5.42-4.512-5.753a3 3 0 0 0-.652-.004c-2.61.374-3.358 5.186.36 8.346 2.66 2.26 5.037.397 4.804-2.589m11.989 1.547c-.196-2.201-2.267-5.045-4.749-5.566a2.5 2.5 0 0 0-.744 0c-2.915.438-3.376 5.342.037 8.214 2.91 2.447 5.739.511 5.456-2.648M687.06 51.243c-2.03-.252-6.25 2.524-6.377 4.634-.124 2.045 3.599.986 5.885-1.224 1.259-1.214 2.13-3.077.488-3.415zm-79.336 342.314c-.826-2.082-3.344-4.41-5.082-4.707-.315-.027-.616-.059-.967.11-2.313 1.091.853 6.237 3.96 7.488 1.948.785 2.983-.644 2.089-2.891m-45.186-164.283c.552-2.515-.246-5.725-2.267-6.31-2.742-.529-5.173 5.123-2.942 8.762 1.66 2.708 4.48.881 5.209-2.452m18.139-50.185c-3.002-.261-6.113 4.374-4.444 7.958 1.533 3.296 5.128.904 6.264-2.301.702-1.986.461-5.055-1.82-5.657m266.155-44.399c-.155-1.767-1.903-4.37-5.301-4.612-.146 0-.342 0-.488.014-3.472.283-4.909 4.283-1.565 7.068 3.677 3.068 7.623.598 7.354-2.475zm-5.684 272.123c-2.705-.05-6.67 2.584-5.808 5.265 1.036 3.209 6.825 2.41 8.609-1.188.898-1.817.082-3.89-2.801-4.072zm-272.255-69.642c-.547-2.575-2.536-5.233-4.174-5.575-.146-.014-.351-.032-.497 0-2.756.525-1.232 6.885 2.112 8.835 1.679.977 3.189-.26 2.555-3.256zM703.004 43.737c-1.775-.192-5.999 2.247-6.14 4.32-.137 1.976 3.549.922 5.743-1.215 1.113-1.082 1.893-2.808.397-3.1zM601.401 342.211c-.301-2.128-2.445-4.89-4.863-5.397-.415-.055-.693-.004-.784.009-2.993.539-2.988 5.571.853 8.269 2.869 2.013 5.205.023 4.794-2.886zm66.39-303.997c-1.437-.297-7.596 3.095-7.842 4.657-.146.913 2.71-.156 5.059-1.64 1.647-1.04 3.586-2.712 2.783-3.017m70.65 91.54c.766-2.383-1.127-4.762-3.974-4.985-3.873-.115-6.719 3.118-5.246 5.967 1.985 3.84 8.061 2.612 9.22-.982m-111.05 216.065c-.101-2.525-2.646-5.324-5.142-5.648-.118-.009-.273-.023-.392-.023-3.07-.004-4.808 4.014-1.181 7.452 3.202 3.036 6.847 1.488 6.715-1.776zm-3.714 61.25c-.661-1.789-3.148-4.214-5.356-4.666-.447-.059-.748.028-.83.05-2.322.758.096 5.475 3.595 7.004 2.336 1.023 3.312-.442 2.591-2.388M711.38 36.042c-1.962-.1-6.031 2.338-6.145 4.04-.101 1.49 3.047.795 5.346-1.182 1.346-1.155 2.003-2.611.799-2.858m94.144 317.978c-3.741-.141-7.395 3.151-5.721 6.296 2.24 4.201 9.571 2.557 10.57-1.301.534-2.064-1.469-4.698-4.854-4.999zm17.148.616c-3.481-.115-7.632 3.387-5.52 6.688 2.427 3.795 9.037 2.06 10.086-1.721.589-2.128-1.14-4.689-4.566-4.967M619.284 426.11c-1.131-1.603-3.531-3.657-5.173-4.045-.324-.055-.511.032-.561.059-1.574.877 2.919 6.1 5.73 6.648 1.186.233 1.19-.986.009-2.667zM719.965 29.167c-1.806-.091-5.816 2.091-6.099 3.616-.233 1.27 2.536.703 4.858-.995 1.624-1.187 2.236-2.484 1.237-2.621zm-92.524 407.008c-1.059-1.301-3.435-3.314-5.146-3.712-.228-.036-.424-.018-.547.06-1.301.808 3.549 5.789 6.035 6.196 1.081.178.926-.987-.342-2.544m160.374-82.902c-3.901 0-7.445 3.009-5.721 6.087 2.445 4.374 9.79 3.036 10.885-.932.647-2.347-2.008-4.995-5.164-5.155M598.172 94.7c-1.748-.374-6.565 4.38-6.314 6.872.178 1.776 3.252-.196 5.018-2.328 1.309-1.585 2.436-4.078 1.296-4.548zm-30.898 35.634c-2.158-.334-5.689 5.739-5.114 7.88.438 1.635 2.869-.187 4.361-2.739 1.022-1.745 1.875-4.58.753-5.141m5.488-32.436c-.301.343-5.52 7.105-5.808 7.63.342-.393 1.752-2.214 2.382-3.036 1.177-1.534 3.102-4.087 3.435-4.589h-.009zm245.622 49.604c.196-2.411-2.445-4.909-5.333-5.041-4.078.018-6.209 3.534-3.932 6.479 2.992 3.872 8.955 2.324 9.265-1.438M604.07 123.8c-2.673-.247-6.496 3.762-5.743 6.89.693 2.881 4.552.913 6.231-1.785 1.464-2.347 1.232-4.781-.488-5.105m61.513-30.865c-2.838-.155-6.688 3.055-6.081 5.785.657 2.931 5.301 1.667 7.235-1.287 1.296-1.987.716-4.256-1.154-4.498m-9.621-46.803c-1.752-.347-7.486 3.483-7.573 5.058-.055.968 2.705-.018 5.278-1.885 1.533-1.114 3.257-2.836 2.299-3.173zm-4.394-1.033c-1.291-.329-7.335 3.306-7.737 4.99-.246 1.041 2.633-.136 5.046-1.808 1.619-1.123 3.458-2.853 2.691-3.182m70.496 265.473c.315-2.054-1.455-5.168-5.593-5.67-4.776-.133-7.473 3.944-4.813 7.268 3.348 4.183 9.776 2.516 10.406-1.598m-104.021 84.523c-.648-1.872-2.965-4.283-5.255-4.744-.374-.05-.707-.018-.985.092-2.263.895-.306 5.406 3.129 7.2 2.582 1.351 3.891-.301 3.111-2.548M586.247 82.394c.479-.388 2.605-2.543 2.846-2.79 1.346-1.37 3.563-3.684 3.832-4.05-.045.005-6.487 6.279-6.678 6.84m264.298 234.234c.548-2.712-1.674-5.182-4.758-5.292-4.425.096-7.417 3.968-5.52 7.141 2.623 4.392 9.421 2.411 10.278-1.849m-271.789 22.193c-.42-2.168-2.331-4.94-4.398-5.451a1.6 1.6 0 0 0-.634.009c-2.582.543-1.998 6.063 1.597 8.506 2.258 1.534 4.024-.036 3.44-3.059zm258.528-147.66c.246-2.612-2.573-5.397-5.584-5.52-4.046.082-6.911 4.214-3.932 7.542 3.307 3.699 9.151 1.822 9.511-2.022zm-262.177-73.7c-1.834-.507-6.045 5.342-5.498 7.629.361 1.511 2.906-.351 4.54-2.844 1.099-1.681 2.043-4.274.962-4.785zm77.885-.382c-2.92-.352-6.82 3.2-5.908 6.246 1.009 3.369 6.027 1.918 7.774-1.452.853-1.644.848-4.301-1.866-4.794m41.901-64.863c-2.327-.133-6.191 2.488-6.131 4.643.064 2.21 3.969.881 5.93-1.128 1.579-1.616 1.674-3.324.196-3.515zm160.228 169.916c.315-2.502-1.67-5.379-5.424-5.662-3.928-.082-6.985 4.004-4.325 7.506 3.207 4.224 9.22 2.384 9.749-1.844m-127.391-6.156c.638-2.735-1.857-5.566-5.128-5.817-4.553-.119-7.596 3.821-5.524 7.141 2.805 4.493 9.657 2.94 10.647-1.324z"/></g><g style="mix-blend-mode:soft-light"><path stroke="#c3dafe" stroke-width="2.545" d="M635.13 331.984c15.48 33.718 65.525 98.48 141.866 87.792m30.575-116.45c-.712-13.888-4.462-27.669-11.547-40.442-15.375-27.717-43.086-44.625-73.739-48.42m-83.62 117.395c-10.816-5.042-21.435-12.135-31.142-21.185-21.066-19.64-33.234-44.202-35.056-66.484m145.365-31.161c11.451-5.938 40.079-16.032 62.981-8.906"/><path stroke="#c3dafe" stroke-width="2.545" d="M780.177 205.387c14.42-32.869 54.202-95.553 97.97-83.339"/><path stroke="#c3dafe" stroke-width="2.545" d="M964.031 285.545c-18.237-33.293-79.395-96.062-188.307-80.794m3.18-1.907c-6.361-57.468-30.409-160.443-75.704-112.603m-70.615 244.29c-35.202 15.056-82.067 56.747 6.998 110.694"/><path stroke="#c3dafe" stroke-width="2.545" d="M633.857 334.532c-26.719-13.36-77.995-32.063-69.343 0m69.979-.631c21.842-34.142 87.665-88.428 176.22-32.445m-33.081 117.048c32.021-19.085 83.593-69.342 33.717-117.692m-.636-.001c31.173-39.23 104.969-97.461 150.773-16.54M568.331 246.11c18.661-40.927 75.578-104.46 153.954-31.173"/><path stroke="#c3dafe" stroke-width="2.545" d="M569.604 248.007C570.24 184.39 597.977 63.644 703.836 89.6"/><path stroke="#c3dafe" stroke-width="2.545" d="M704.472 89.606c-27.355-19.51-92.245-43.133-132.96 18.449m-1.272-.641c-21.842 29.9-52.421 99.37 0 138.05"/><path fill="#ebf4ff" d="M731.035 216.315c.997-4.238-2.897-8.625-8.001-9.014-7.105-.184-11.853 5.922-8.621 11.066 4.378 6.963 15.07 4.557 16.615-2.052zM644.36 446.808c-1.708-1.88-5.606-4.784-8.488-5.363-.49-.071-.854-.021-1.084.155-2.013 1.59 6.832 8.451 10.048 8.712 1.834.148 1.195-1.667-.483-3.511zm-73.718-109.336c-.892-4.282-4.136-8.701-6.807-9.271-.238-.022-.573-.053-.811 0-4.493.874-2.009 11.451 3.445 14.693 2.738 1.625 5.2-.433 4.166-5.414zm6.422-237.014c-1.702-.7-9.187 8.873-8.711 11.134.225 1.064 2.906-1.016 5.41-4.207 1.865-2.369 4.11-6.206 3.307-6.927zM818.863 300.68c.867-3.747-3.061-7.929-7.638-8.133-6.34.07-10.66 5.543-7.966 10.109 3.857 6.528 14.196 4.124 15.604-1.976m-38.439 112.734c-5.499-.022-9.718 3.833-8.208 7.5 2.339 5.673 12.827 5.094 14.774-.819 1.016-3.089-2.296-6.463-6.566-6.681m-73.84-330.785c-3.816-.357-10.979 4.218-9.563 9.328 1.478 5.329 10.377 4.08 13.231-1.858 1.447-3.017.188-6.846-3.668-7.47m80.545 121.702c.441-2.671-2.285-6.664-8.537-7.206-5.967-.012-12.069 4.618-7.804 9.378 5.16 5.755 15.412 3.464 16.334-2.172zM643.4 333.974c.024-4.882-4.497-10.252-9.14-10.844-.242-.018-.565-.044-.807-.044-5.805.044-9.672 7.863-3.318 14.462 5.974 6.207 13.224 3.077 13.265-3.574m-66.309-85.235c.862-6.355-2.124-14.484-7.79-15.975-8.062-.663-13.704 14.093-6.705 23.312 5.525 7.265 13.232 1.917 14.495-7.337"/></g><g filter="url(#d)"><path fill="#1a202c" fill-rule="evenodd" d="M682.388 34.25a6.736 6.736 0 0 0-6.736 6.736v40.418a6.736 6.736 0 0 0 6.736 6.736h8.038c3.422 5.048 6.883 9.56 9.217 12.535 1.471 1.839 4.292 1.839 5.763 0 2.38-2.975 5.87-7.487 9.31-12.535h8.09a6.736 6.736 0 0 0 6.736-6.736V40.986a6.736 6.736 0 0 0-6.736-6.736z" clip-rule="evenodd"/><path fill="#71e8df" d="M692.952 49.357h5.683c1.263 0 2.421.737 3 1.895l9.157 18.314h2.368c.895 0 1.684.79 1.684 1.684 0 .947-.789 1.684-1.684 1.684h-2.368a3.32 3.32 0 0 1-3-1.842l-6.367-12.736-6.105 13.63c-.421.843-1.421 1.211-2.263.843-.842-.421-1.211-1.421-.842-2.263l7.262-16.104-.842-1.737h-5.683a1.663 1.663 0 0 1-1.685-1.684c0-.894.737-1.684 1.685-1.684"/></g><circle cx="728.647" cy="34.251" r="15.268" fill="#2d3748" stroke="#1a202c" stroke-width="2.545"/><g filter="url(#e)"><path fill="#fff" fill-rule="evenodd" d="M721.144 35.358a.89.89 0 0 0 .007.939l3.28 5.174a.89.89 0 0 0 1.004.375l9.465-2.84a.887.887 0 0 0 .551-1.22l-6.085-13.2a.887.887 0 0 0-1.562-.092zm8.06-7.754a.332.332 0 0 0-.631.066l-2.343 11.664a.333.333 0 0 0 .422.384l6.539-1.952a.332.332 0 0 0 .21-.45z" clip-rule="evenodd"/></g><g filter="url(#f)"/><g filter="url(#g)"><path fill="#1a202c" fill-rule="evenodd" d="M758.729 365.062a6.736 6.736 0 0 0-6.736 6.737v40.417a6.736 6.736 0 0 0 6.736 6.737h8.037c3.422 5.048 6.883 9.56 9.217 12.534 1.472 1.84 4.292 1.84 5.764 0 2.38-2.974 5.87-7.486 9.31-12.534h8.09a6.736 6.736 0 0 0 6.736-6.737v-40.417a6.736 6.736 0 0 0-6.736-6.737z" clip-rule="evenodd"/><path fill="#71e8df" d="M769.292 380.17h5.684c1.263 0 2.421.736 3 1.894l9.157 18.314h2.368c.895 0 1.684.79 1.684 1.684 0 .948-.789 1.685-1.684 1.685h-2.368a3.33 3.33 0 0 1-3-1.842l-6.368-12.736-6.105 13.63c-.421.842-1.421 1.211-2.263.842-.842-.421-1.21-1.421-.842-2.263l7.263-16.104-.842-1.736h-5.684a1.663 1.663 0 0 1-1.684-1.684c0-.895.737-1.684 1.684-1.684"/></g><circle cx="804.987" cy="365.064" r="15.268" fill="#2d3748" stroke="#1a202c" stroke-width="2.545"/><g filter="url(#h)"><path fill="#fff" fill-rule="evenodd" d="M797.484 366.171a.89.89 0 0 0 .007.938l3.28 5.174a.89.89 0 0 0 1.004.375l9.466-2.839a.887.887 0 0 0 .55-1.221l-6.084-13.199a.887.887 0 0 0-1.562-.093zm8.061-7.755c-.129-.299-.567-.253-.632.066l-2.342 11.665a.332.332 0 0 0 .421.384l6.54-1.952a.333.333 0 0 0 .21-.451z" clip-rule="evenodd"/></g><g filter="url(#i)"><path fill="#1a202c" fill-rule="evenodd" d="M547.52 188.211a6.736 6.736 0 0 0-6.737 6.736v40.418a6.736 6.736 0 0 0 6.737 6.736h8.037c3.422 5.048 6.883 9.56 9.217 12.535 1.472 1.839 4.292 1.839 5.764 0 2.38-2.975 5.869-7.487 9.309-12.535h8.09a6.736 6.736 0 0 0 6.737-6.736v-40.418a6.736 6.736 0 0 0-6.737-6.736z" clip-rule="evenodd"/><path fill="#71e8df" d="M558.083 203.318h5.684c1.263 0 2.42.737 2.999 1.895l9.158 18.314h2.368c.894 0 1.684.789 1.684 1.684 0 .947-.79 1.684-1.684 1.684h-2.368a3.32 3.32 0 0 1-3-1.842l-6.368-12.736-6.105 13.631c-.421.842-1.421 1.21-2.263.842-.842-.421-1.21-1.421-.842-2.263l7.263-16.104-.842-1.737h-5.684a1.663 1.663 0 0 1-1.684-1.684c0-.895.737-1.684 1.684-1.684"/></g><circle cx="593.778" cy="188.212" r="15.268" fill="#2d3748" stroke="#1a202c" stroke-width="2.545"/><g filter="url(#j)"><path fill="#fff" fill-rule="evenodd" d="M586.275 189.319a.89.89 0 0 0 .007.939l3.28 5.174a.89.89 0 0 0 1.004.375l9.465-2.84a.887.887 0 0 0 .551-1.221l-6.085-13.199a.886.886 0 0 0-1.561-.092zm8.061-7.755a.333.333 0 0 0-.632.067l-2.342 11.664a.332.332 0 0 0 .421.384l6.54-1.952a.333.333 0 0 0 .21-.451z" clip-rule="evenodd"/></g><g filter="url(#k)"><path fill="#1a202c" fill-rule="evenodd" d="M616.227 277.273a6.737 6.737 0 0 0-6.737 6.737v40.417a6.737 6.737 0 0 0 6.737 6.737h8.037c3.422 5.048 6.883 9.56 9.217 12.534 1.472 1.84 4.292 1.84 5.764 0 2.379-2.974 5.869-7.486 9.309-12.534h8.09a6.736 6.736 0 0 0 6.736-6.737V284.01a6.736 6.736 0 0 0-6.736-6.737z" clip-rule="evenodd"/><path fill="#71e8df" d="M626.79 292.381h5.683c1.263 0 2.421.736 3 1.894l9.157 18.314h2.369c.894 0 1.684.79 1.684 1.684 0 .948-.79 1.685-1.684 1.685h-2.369a3.32 3.32 0 0 1-2.999-1.842l-6.368-12.736-6.105 13.63c-.421.842-1.421 1.211-2.263.842-.842-.421-1.21-1.421-.842-2.263l7.262-16.104-.842-1.736h-5.683a1.66 1.66 0 0 1-1.684-1.684c0-.895.736-1.684 1.684-1.684"/></g><circle cx="662.485" cy="277.275" r="15.268" fill="#2d3748" stroke="#1a202c" stroke-width="2.545"/><g filter="url(#l)"><path fill="#fff" fill-rule="evenodd" d="M654.982 278.382a.89.89 0 0 0 .007.938l3.28 5.174a.89.89 0 0 0 1.004.375l9.465-2.839a.887.887 0 0 0 .551-1.221l-6.085-13.2a.888.888 0 0 0-1.562-.092zm8.06-7.755a.332.332 0 0 0-.631.066l-2.343 11.664a.334.334 0 0 0 .422.385l6.539-1.952a.333.333 0 0 0 .211-.451z" clip-rule="evenodd"/></g><g filter="url(#m)"><path fill="#1a202c" fill-rule="evenodd" d="M760.004 150.039a6.736 6.736 0 0 0-6.736 6.736v40.418a6.736 6.736 0 0 0 6.736 6.736h8.037c3.422 5.049 6.883 9.56 9.217 12.535 1.472 1.839 4.292 1.839 5.764 0 2.38-2.975 5.87-7.486 9.31-12.535h8.09a6.736 6.736 0 0 0 6.736-6.736v-40.418a6.736 6.736 0 0 0-6.736-6.736z" clip-rule="evenodd"/><path fill="#71e8df" d="M770.567 165.146h5.684c1.263 0 2.421.737 3 1.895l9.157 18.314h2.368c.895 0 1.684.789 1.684 1.684 0 .947-.789 1.684-1.684 1.684h-2.368a3.32 3.32 0 0 1-3-1.842l-6.368-12.736-6.105 13.631c-.421.842-1.421 1.21-2.263.842-.842-.421-1.21-1.421-.842-2.263l7.263-16.104-.842-1.737h-5.684a1.66 1.66 0 0 1-1.684-1.684c0-.894.737-1.684 1.684-1.684"/></g><circle cx="806.262" cy="150.04" r="15.268" fill="#2d3748" stroke="#1a202c" stroke-width="2.545"/><g filter="url(#n)"><path fill="#fff" fill-rule="evenodd" d="M798.759 151.147a.89.89 0 0 0 .007.939l3.28 5.174a.89.89 0 0 0 1.004.375l9.466-2.84a.887.887 0 0 0 .55-1.221l-6.085-13.199a.886.886 0 0 0-1.561-.092zm8.061-7.754a.333.333 0 0 0-.632.066l-2.342 11.664a.332.332 0 0 0 .421.384l6.54-1.952a.332.332 0 0 0 .21-.45z" clip-rule="evenodd"/></g><circle cx="763" cy="248.001" r="265.024" stroke="#667eea" stroke-width="17.813"/><circle cx="763" cy="247.998" r="310.671" stroke="#667eea" stroke-width="58.528" opacity=".52"/><circle cx="763" cy="248" r="378.838" stroke="#667eea" stroke-width="132.324" opacity=".26"/><path fill="#fff" d="M68.9 170.126q4.884 0 8.584 1.998a13.8 13.8 0 0 1 5.698 5.698q2.072 3.626 2.072 8.362 0 4.662-2.146 8.214-2.072 3.552-5.92 5.55-3.774 1.924-8.732 1.924H57.948q-.37 0-.37.37v18.87q0 .37-.296.666-.222.222-.592.222h-8.658q-.37 0-.666-.222a1.08 1.08 0 0 1-.222-.666v-50.098q0-.37.222-.592.296-.296.666-.296zm-1.554 23.384q3.405 0 5.476-1.924 2.072-1.998 2.072-5.18 0-3.256-2.072-5.254t-5.476-1.998h-9.398q-.37 0-.37.37v13.616q0 .37.37.37zm41.12-10.064q2.664 0 4.218 1.036.593.296.444 1.11l-1.554 8.436q-.073.888-1.036.518-1.11-.37-2.59-.37-.591 0-1.628.148-2.663.222-4.514 1.998-1.85 1.702-1.85 4.588v20.202q0 .37-.296.666-.222.222-.592.222H90.41q-.369 0-.666-.222a1.08 1.08 0 0 1-.222-.666v-36.26q0-.37.222-.592.297-.296.666-.296h8.658q.37 0 .592.296a.7.7 0 0 1 .296.592v2.812q0 .222.148.296.149.074.222-.074 3.034-4.44 8.14-4.44m13.528-3.774q-2.516 0-4.218-1.628-1.628-1.702-1.628-4.218 0-2.59 1.628-4.218 1.629-1.628 4.218-1.628t4.218 1.628q1.628 1.627 1.628 4.218 0 2.516-1.702 4.218-1.627 1.628-4.144 1.628M117.554 222q-.369 0-.666-.222a1.08 1.08 0 0 1-.222-.666v-36.334q0-.37.222-.592.297-.296.666-.296h8.658q.37 0 .592.296a.7.7 0 0 1 .296.592v36.334a.92.92 0 0 1-.296.666q-.222.222-.592.222zm31.368.518q-4.959 0-8.658-1.406-3.7-1.406-5.772-3.922-1.998-2.516-1.998-5.698v-.74q0-.37.222-.592.296-.296.666-.296h8.214q.37 0 .592.296a.7.7 0 0 1 .296.592v.074q0 1.628 1.776 2.812 1.85 1.11 4.588 1.11 2.516 0 4.07-.962 1.554-1.036 1.554-2.516 0-1.332-1.332-1.998t-4.366-1.406q-3.478-.888-5.476-1.702-4.737-1.627-7.548-3.996t-2.812-6.808q0-5.477 4.218-8.658 4.291-3.256 11.322-3.256 4.736 0 8.288 1.554 3.552 1.48 5.476 4.218 1.998 2.737 1.998 6.216 0 .37-.296.666-.222.222-.592.222h-7.918a1.08 1.08 0 0 1-.666-.222 1.08 1.08 0 0 1-.222-.666q0-1.628-1.702-2.738-1.629-1.11-4.366-1.11-2.442 0-3.996.888t-1.554 2.442q0 1.48 1.48 2.22 1.554.74 5.106 1.554.813.222 1.85.518 1.035.222 2.22.592 5.253 1.554 8.288 3.996 3.034 2.442 3.034 7.104 0 5.476-4.366 8.584-4.292 3.034-11.618 3.034m62.674-39.146q5.773 0 9.028 3.478t3.256 9.768v24.494a.92.92 0 0 1-.296.666q-.222.222-.592.222h-8.658q-.369 0-.666-.222a1.08 1.08 0 0 1-.222-.666v-22.2q0-3.034-1.554-4.81t-4.144-1.776q-2.589 0-4.218 1.776-1.628 1.776-1.628 4.736v22.274a.92.92 0 0 1-.296.666q-.222.222-.592.222h-8.584q-.369 0-.666-.222a1.08 1.08 0 0 1-.222-.666v-22.2q0-2.96-1.628-4.736-1.628-1.85-4.218-1.85-2.367 0-3.996 1.406-1.553 1.406-1.85 3.922v23.458a.92.92 0 0 1-.296.666q-.222.222-.592.222h-8.658q-.369 0-.666-.222a1.08 1.08 0 0 1-.222-.666v-36.26q0-.37.222-.592.297-.296.666-.296h8.658q.37 0 .592.296a.7.7 0 0 1 .296.592v2.886q0 .222.148.296.149.074.296-.148 3.035-4.514 9.398-4.514 3.7 0 6.438 1.554 2.813 1.554 4.292 4.44.222.444.518 0 1.629-3.034 4.366-4.514 2.813-1.48 6.29-1.48m33.297 0q4.81 0 8.584 1.702 3.774 1.628 5.846 4.514 2.146 2.886 2.146 6.438v25.086a.92.92 0 0 1-.296.666q-.222.222-.592.222h-8.658q-.369 0-.666-.222a1.08 1.08 0 0 1-.222-.666v-2.442q0-.222-.148-.296-.147-.074-.296.148-3.108 4.07-9.99 4.07-5.772 0-9.324-2.812t-3.552-8.288q0-5.698 3.996-8.806 3.996-3.182 11.396-3.182h7.548q.37 0 .37-.37v-1.628q0-2.442-1.48-3.774-1.479-1.406-4.44-1.406-2.294 0-3.848.814-1.48.814-1.924 2.294-.221.814-.962.74l-8.954-1.184q-.888-.149-.814-.666.297-3.108 2.442-5.624 2.22-2.516 5.772-3.922 3.626-1.406 8.066-1.406m-1.48 31.45q3.183 0 5.402-1.702t2.22-4.366v-2.664q0-.37-.37-.37h-5.328q-3.33 0-5.254 1.258-1.85 1.259-1.85 3.552 0 1.998 1.406 3.182 1.407 1.11 3.774 1.11m56.353 7.992q-5.772 0-10.212-2.368-4.366-2.368-6.808-6.586-2.442-4.292-2.442-9.842v-15.836q0-5.476 2.442-9.694t6.808-6.512q4.44-2.368 10.212-2.368 5.845 0 10.212 2.368 4.44 2.294 6.882 6.512t2.442 9.694v15.836q0 5.55-2.442 9.842-2.442 4.291-6.882 6.66-4.367 2.294-10.212 2.294m0-8.954q4.07 0 6.586-2.59t2.516-6.882v-16.28q0-4.291-2.516-6.882-2.442-2.664-6.586-2.664-4.07 0-6.586 2.664-2.442 2.59-2.442 6.882v16.28q0 4.291 2.442 6.882 2.515 2.59 6.586 2.59m54.47 8.14q-.74 0-1.036-.666l-9.25-20.498q-.147-.296-.444-.296h-6.882q-.37 0-.37.37v20.202a.92.92 0 0 1-.296.666q-.222.222-.592.222h-8.658q-.369 0-.666-.222a1.08 1.08 0 0 1-.222-.666v-50.024q0-.37.222-.592.297-.296.666-.296h21.164q4.737 0 8.288 1.924 3.627 1.924 5.55 5.476 1.998 3.552 1.998 8.214 0 5.032-2.516 8.658-2.515 3.552-7.03 5.032-.369.148-.222.518l10.064 20.942q.148.296.148.444 0 .592-.814.592zm-17.612-42.846q-.37 0-.37.37v12.654q0 .37.37.37h9.694q3.109 0 5.032-1.85 1.998-1.85 1.998-4.81t-1.998-4.81q-1.923-1.924-5.032-1.924zm66.472-8.362q.37-.592 1.036-.592h8.658q.37 0 .592.296a.7.7 0 0 1 .296.592v50.024q0 .37-.296.666-.223.222-.592.222h-8.658a1.08 1.08 0 0 1-.666-.222 1.08 1.08 0 0 1-.222-.666v-32.634q0-.296-.148-.296-.149 0-.296.222l-7.844 12.284q-.37.592-1.036.592h-4.366q-.667 0-1.036-.592l-7.844-12.284q-.149-.222-.296-.148-.148 0-.148.296v32.56q0 .37-.296.666-.223.222-.592.222h-8.658a1.08 1.08 0 0 1-.666-.222 1.08 1.08 0 0 1-.222-.666v-50.024q0-.37.222-.592.296-.296.666-.296h8.658q.666 0 1.036.592l11.1 17.242q.222.444.444 0zm-337.822 118.8q-5.92 0-10.36-1.85-4.44-1.924-6.882-5.402-2.368-3.552-2.368-8.214v-1.628q0-.37.222-.592.296-.296.666-.296h8.436q.37 0 .592.296a.7.7 0 0 1 .296.592v1.11q0 2.96 2.738 5.032 2.738 1.998 7.4 1.998 3.922 0 5.846-1.628 1.924-1.702 1.924-4.144 0-1.776-1.184-2.96-1.185-1.258-3.256-2.146-1.998-.962-6.438-2.59-4.957-1.702-8.436-3.478a17.5 17.5 0 0 1-5.772-4.81q-2.294-3.108-2.294-7.622 0-4.44 2.294-7.77t6.364-5.106 9.398-1.776q5.625 0 9.99 1.998 4.44 1.998 6.882 5.624 2.516 3.552 2.516 8.288v1.11q0 .37-.296.666-.222.222-.592.222h-8.51q-.37 0-.666-.222a1.08 1.08 0 0 1-.222-.666v-.592q0-3.108-2.59-5.254-2.516-2.22-6.956-2.22-3.478 0-5.476 1.48-1.924 1.48-1.924 4.07 0 1.85 1.11 3.108 1.185 1.258 3.404 2.294 2.295.962 7.03 2.664 5.254 1.924 8.214 3.404 3.034 1.48 5.402 4.44 2.442 2.886 2.442 7.548 0 6.956-5.106 11.026-5.106 3.996-13.838 3.996m46.304-37.74q0-.37.222-.592.295-.296.666-.296h8.658q.37 0 .592.296a.7.7 0 0 1 .296.592v36.26q0 .37-.296.666-.223.222-.592.222h-8.658a1.08 1.08 0 0 1-.666-.222 1.08 1.08 0 0 1-.222-.666v-2.516q0-.222-.148-.222-.149-.074-.296.148-2.96 3.996-9.176 3.996-5.625 0-9.25-3.404-3.627-3.404-3.626-9.546v-24.716q0-.37.222-.592.296-.296.666-.296h8.584q.37 0 .592.296a.7.7 0 0 1 .296.592v22.126q0 2.96 1.554 4.81 1.627 1.85 4.44 1.85 2.515 0 4.144-1.48 1.628-1.554 1.998-3.996zm50.61 9.324q1.332 3.774 1.332 8.88t-1.406 9.25q-1.702 4.735-5.402 7.548-3.626 2.738-9.028 2.738-5.328 0-8.288-3.7-.148-.222-.296-.148t-.148.296v15.836a.7.7 0 0 1-.296.592.7.7 0 0 1-.592.296h-8.658q-.37 0-.666-.296-.222-.222-.222-.592v-50.024q0-.37.222-.592.296-.296.666-.296h8.658q.37 0 .592.296a.7.7 0 0 1 .296.592v2.442q0 .222.148.296.148 0 .296-.148 3.108-4.07 8.584-4.07 5.106 0 8.806 2.886 3.774 2.812 5.402 7.918m-11.322 16.576q1.85-2.886 1.85-7.844 0-4.662-1.554-7.4-1.702-3.182-5.476-3.182-3.404 0-5.106 3.182-1.554 2.664-1.554 7.474 0 4.958 1.628 7.696 1.702 2.96 5.032 2.96t5.18-2.886m51.901-16.576q1.332 3.774 1.332 8.88t-1.406 9.25q-1.703 4.735-5.402 7.548-3.627 2.738-9.028 2.738-5.328 0-8.288-3.7-.149-.222-.296-.148-.148.074-.148.296v15.836a.7.7 0 0 1-.296.592.7.7 0 0 1-.592.296h-8.658q-.37 0-.666-.296-.222-.222-.222-.592v-50.024q0-.37.222-.592.296-.296.666-.296h8.658q.37 0 .592.296a.7.7 0 0 1 .296.592v2.442q0 .222.148.296.147 0 .296-.148 3.108-4.07 8.584-4.07 5.106 0 8.806 2.886 3.774 2.812 5.402 7.918m-11.322 16.576q1.85-2.886 1.85-7.844 0-4.662-1.554-7.4-1.702-3.182-5.476-3.182-3.405 0-5.106 3.182-1.554 2.664-1.554 7.474 0 4.958 1.628 7.696 1.702 2.96 5.032 2.96t5.18-2.886m34.515 11.84q-6.216 0-10.656-3.256t-6.068-8.88q-1.036-3.478-1.036-7.548 0-4.366 1.036-7.844 1.702-5.476 6.142-8.584t10.656-3.108q6.069 0 10.36 3.108 4.293 3.034 6.068 8.51 1.185 3.7 1.184 7.77 0 3.996-1.036 7.474-1.628 5.772-6.068 9.102-4.366 3.256-10.582 3.256m0-8.954q2.442 0 4.144-1.48t2.442-4.07q.592-2.368.592-5.18 0-3.108-.592-5.254-.813-2.516-2.516-3.922-1.701-1.406-4.144-1.406-2.516 0-4.218 1.406-1.627 1.406-2.368 3.922-.591 1.776-.592 5.254 0 3.33.518 5.18.741 2.59 2.442 4.07 1.776 1.48 4.292 1.48m41.858-30.192q2.664 0 4.218 1.036.591.296.444 1.11l-1.554 8.436q-.075.888-1.036.518-1.11-.37-2.59-.37-.593 0-1.628.148-2.664.222-4.514 1.998-1.85 1.702-1.85 4.588v20.202q0 .37-.296.666-.223.222-.592.222h-8.658a1.08 1.08 0 0 1-.666-.222 1.08 1.08 0 0 1-.222-.666v-36.26q0-.37.222-.592.296-.296.666-.296h8.658q.37 0 .592.296a.7.7 0 0 1 .296.592v2.812q0 .222.148.296.147.074.222-.074 3.034-4.44 8.14-4.44m30.167 7.992a.92.92 0 0 1-.296.666q-.222.222-.592.222h-7.104q-.37 0-.37.37v15.688q0 2.442.962 3.626 1.036 1.184 3.256 1.184h2.442q.37 0 .592.296a.7.7 0 0 1 .296.592v7.03q0 .814-.888.962-3.108.148-4.44.148-6.141 0-9.176-1.998-3.033-2.072-3.108-7.696v-19.832q0-.37-.37-.37h-4.218q-.369 0-.666-.222a1.08 1.08 0 0 1-.222-.666v-6.586q0-.37.222-.592.297-.296.666-.296h4.218q.37 0 .37-.37v-8.806q0-.37.222-.592.297-.296.666-.296h8.288q.37 0 .592.296a.7.7 0 0 1 .296.592v8.806q0 .37.37.37h7.104q.37 0 .592.296a.7.7 0 0 1 .296.592zm39.818-7.548q.37 0 .592.296a.7.7 0 0 1 .296.592v7.03a.92.92 0 0 1-.296.666q-.222.222-.592.222h-7.178q-.37 0-.37.37v28.046a.92.92 0 0 1-.296.666q-.222.222-.592.222h-8.658q-.369 0-.666-.222a1.08 1.08 0 0 1-.222-.666v-28.046q0-.37-.37-.37h-4.366q-.369 0-.666-.222a1.08 1.08 0 0 1-.222-.666v-7.03q0-.37.222-.592.297-.296.666-.296h4.366q.37 0 .37-.37v-1.628q0-4.589 1.406-7.104 1.406-2.59 4.514-3.626 3.183-1.11 8.732-.962h2.812q.37 0 .592.296a.7.7 0 0 1 .296.592v5.994a.92.92 0 0 1-.296.666q-.222.222-.592.222h-2.442q-2.59.073-3.626 1.11-.962.962-.962 3.626v.814q0 .37.37.37zm19.941 38.702q-6.216 0-10.656-3.256t-6.068-8.88q-1.036-3.478-1.036-7.548 0-4.366 1.036-7.844 1.702-5.476 6.142-8.584t10.656-3.108q6.068 0 10.36 3.108 4.292 3.034 6.068 8.51 1.184 3.7 1.184 7.77 0 3.996-1.036 7.474-1.628 5.772-6.068 9.102-4.366 3.256-10.582 3.256m0-8.954q2.442 0 4.144-1.48 1.703-1.48 2.442-4.07.592-2.368.592-5.18 0-3.108-.592-5.254-.814-2.516-2.516-3.922t-4.144-1.406q-2.516 0-4.218 1.406-1.628 1.406-2.368 3.922-.592 1.776-.592 5.254 0 3.33.518 5.18.74 2.59 2.442 4.07 1.776 1.48 4.292 1.48m41.857-30.192q2.664 0 4.218 1.036.593.296.444 1.11l-1.554 8.436q-.073.888-1.036.518-1.11-.37-2.59-.37-.591 0-1.628.148-2.663.222-4.514 1.998-1.85 1.702-1.85 4.588v20.202a.92.92 0 0 1-.296.666q-.222.222-.592.222h-8.658q-.369 0-.666-.222a1.08 1.08 0 0 1-.222-.666v-36.26q0-.37.222-.592.297-.296.666-.296h8.658q.37 0 .592.296a.7.7 0 0 1 .296.592v2.812q0 .222.148.296t.222-.074q3.034-4.44 8.14-4.44m-316.123 60.82q0 .37-.296.666-.222.222-.592.222H58.318q-.37 0-.37.37v11.47q0 .37.37.37h15.91q.37 0 .592.296a.7.7 0 0 1 .296.592v7.178q0 .37-.296.666-.222.222-.592.222h-15.91q-.37 0-.37.37v11.988q0 .37.37.37H82.59q.37 0 .592.296a.7.7 0 0 1 .296.592v7.178q0 .37-.296.666-.222.222-.592.222H48.402q-.37 0-.666-.222a1.08 1.08 0 0 1-.222-.666v-50.024q0-.37.222-.592.296-.296.666-.296H82.59q.37 0 .592.296a.7.7 0 0 1 .296.592zm28.711-7.178q0-.37.222-.592.296-.296.666-.296h8.658q.37 0 .592.296a.7.7 0 0 1 .296.592v50.024q0 .37-.296.666-.222.222-.592.222h-8.658a1.08 1.08 0 0 1-.666-.222 1.08 1.08 0 0 1-.222-.666v-2.442q0-.222-.148-.222-.148-.074-.296.074-3.108 4.07-8.51 4.07-5.18 0-8.954-2.886-3.7-2.886-5.328-7.918-1.258-3.848-1.258-8.954 0-5.254 1.332-9.176 1.702-4.736 5.328-7.474 3.699-2.812 9.102-2.812 5.328 0 8.288 3.7.148.222.296.148t.148-.296zm-1.554 39.368q1.48-2.738 1.48-7.474 0-4.957-1.628-7.77-1.702-2.886-4.958-2.886-3.478 0-5.254 2.886-1.85 2.886-1.85 7.844 0 4.44 1.554 7.4 1.85 3.182 5.476 3.182 3.33 0 5.18-3.182m41.618-25.604q0-.37.222-.592.296-.296.666-.296h8.658q.37 0 .592.296a.7.7 0 0 1 .296.592v33.744q0 9.694-5.624 13.838-5.55 4.144-14.356 4.144-2.59 0-5.772-.37-.74-.074-.74-.962l.296-7.622q0-.962 1.036-.814 2.664.444 4.884.444 4.736 0 7.252-2.072 2.59-2.071 2.59-6.66 0-.222-.148-.222-.148-.074-.296.074-2.812 3.034-8.214 3.034-4.81 0-8.88-2.294-3.996-2.369-5.698-7.548-1.11-3.404-1.11-8.806 0-5.772 1.332-9.398 1.554-4.514 5.254-7.252t8.584-2.738q5.698 0 8.732 3.404.148.148.296.148.148-.074.148-.296zm-.592 23.902q.592-2.22.592-6.068 0-2.293-.148-3.552a12 12 0 0 0-.518-2.368q-.666-1.998-2.22-3.182-1.554-1.258-3.848-1.258-2.22 0-3.774 1.258-1.554 1.184-2.294 3.182-1.036 2.22-1.036 5.994 0 4.144.888 5.92.666 1.998 2.294 3.256 1.703 1.184 3.996 1.184 2.368 0 3.922-1.184a6.44 6.44 0 0 0 2.146-3.182m50.665-9.694q.444 2.812.296 6.29-.074.888-.962.888h-22.866q-.444 0-.296.37.222 1.48.814 2.96 1.924 4.144 7.844 4.144 4.736-.074 7.474-3.848.296-.444.666-.444.222 0 .518.296l5.328 5.254q.37.37.37.666 0 .148-.296.592-2.442 3.034-6.29 4.736-3.848 1.628-8.436 1.628-6.364 0-10.804-2.886-4.366-2.886-6.29-8.066-1.554-3.7-1.554-9.694 0-4.07 1.11-7.178 1.702-5.254 5.92-8.362 4.292-3.108 10.138-3.108 7.4 0 11.84 4.292 4.514 4.292 5.476 11.47m-17.242-6.734q-4.662 0-6.142 4.366-.296.962-.518 2.368 0 .37.37.37h12.802q.444 0 .296-.37-.37-2.146-.37-2.072-.666-2.22-2.368-3.404-1.628-1.258-4.07-1.258m72.379-14.06q0 .37-.296.666-.222.222-.592.222h-24.198q-.37 0-.37.37v11.47q0 .37.37.37h15.91q.37 0 .592.296a.7.7 0 0 1 .296.592v7.178q0 .37-.296.666-.222.222-.592.222h-15.91q-.37 0-.37.37v20.424q0 .37-.296.666-.222.222-.592.222h-8.658a1.08 1.08 0 0 1-.666-.222 1.08 1.08 0 0 1-.222-.666v-50.024q0-.37.222-.592.296-.296.666-.296h34.114q.37 0 .592.296a.7.7 0 0 1 .296.592zm22.898 6.586q0-.37.222-.592.297-.296.666-.296h8.658q.37 0 .592.296a.7.7 0 0 1 .296.592v36.26a.92.92 0 0 1-.296.666q-.222.222-.592.222h-8.658q-.369 0-.666-.222a1.08 1.08 0 0 1-.222-.666v-2.516q0-.222-.148-.222-.147-.074-.296.148-2.96 3.996-9.176 3.996-5.623 0-9.25-3.404t-3.626-9.546v-24.716q0-.37.222-.592.297-.296.666-.296h8.584q.37 0 .592.296a.7.7 0 0 1 .296.592v22.126q0 2.96 1.554 4.81 1.629 1.85 4.44 1.85 2.517 0 4.144-1.48 1.629-1.554 1.998-3.996zm36.477-1.48q5.919 0 9.546 3.626t3.626 9.842v24.272q0 .37-.296.666-.223.222-.592.222h-8.658a1.08 1.08 0 0 1-.666-.222 1.08 1.08 0 0 1-.222-.666v-22.126q0-2.96-1.702-4.81-1.629-1.85-4.366-1.85-2.739 0-4.44 1.85-1.629 1.85-1.628 4.81v22.126q0 .37-.296.666-.223.222-.592.222h-8.658a1.08 1.08 0 0 1-.666-.222 1.08 1.08 0 0 1-.222-.666v-36.26q0-.37.222-.592.296-.296.666-.296h8.658q.37 0 .592.296a.7.7 0 0 1 .296.592v2.59q0 .222.148.296.147.074.222-.074 3.033-4.292 9.028-4.292m35.664 39.22q-5.92 0-10.286-2.96-4.293-2.96-6.142-8.14-1.258-3.7-1.258-8.732 0-4.958 1.258-8.584 1.776-5.032 6.142-7.918 4.365-2.886 10.286-2.886t10.36 2.96q4.513 2.96 5.994 7.474.591 1.776.592 2.664v.148q0 .666-.74.814l-8.51 1.258h-.148q-.666 0-.888-.74l-.222-1.184q-.519-1.924-2.294-3.182-1.776-1.258-4.218-1.258-2.369 0-3.996 1.184-1.629 1.184-2.294 3.256-.814 2.22-.814 6.068t.74 6.068q.666 2.22 2.294 3.478 1.701 1.258 4.07 1.258 2.293 0 3.996-1.184 1.776-1.258 2.442-3.404.074-.148.074-.444.074-.073.074-.222.073-.888 1.036-.74l8.51 1.332q.74.148.74.814 0 .593-.444 2.22-1.554 4.957-6.068 7.77-4.44 2.812-10.286 2.812m43.372-31.154q0 .37-.296.666-.222.222-.592.222h-7.104q-.37 0-.37.37v15.688q0 2.442.962 3.626 1.036 1.184 3.256 1.184h2.442q.37 0 .592.296a.7.7 0 0 1 .296.592v7.03q0 .814-.888.962-3.108.148-4.44.148-6.143 0-9.176-1.998-3.035-2.072-3.108-7.696v-19.832q0-.37-.37-.37h-4.218a1.08 1.08 0 0 1-.666-.222 1.08 1.08 0 0 1-.222-.666v-6.586q0-.37.222-.592.296-.296.666-.296h4.218q.37 0 .37-.37v-8.806q0-.37.222-.592.296-.296.666-.296h8.288q.37 0 .592.296a.7.7 0 0 1 .296.592v8.806q0 .37.37.37h7.104q.37 0 .592.296a.7.7 0 0 1 .296.592zm10.425-11.766q-2.515 0-4.218-1.628-1.628-1.702-1.628-4.218 0-2.59 1.628-4.218t4.218-1.628 4.218 1.628 1.628 4.218q0 2.515-1.702 4.218-1.628 1.628-4.144 1.628M401.859 355a1.08 1.08 0 0 1-.666-.222 1.08 1.08 0 0 1-.222-.666v-36.334q0-.37.222-.592.296-.296.666-.296h8.658q.37 0 .592.296a.7.7 0 0 1 .296.592v36.334q0 .37-.296.666-.222.222-.592.222zm32.995.592q-6.216 0-10.656-3.256t-6.068-8.88q-1.036-3.478-1.036-7.548 0-4.366 1.036-7.844 1.702-5.476 6.142-8.584t10.656-3.108q6.069 0 10.36 3.108 4.293 3.034 6.068 8.51 1.185 3.7 1.184 7.77 0 3.996-1.036 7.474-1.628 5.772-6.068 9.102-4.365 3.256-10.582 3.256m0-8.954q2.442 0 4.144-1.48t2.442-4.07q.592-2.368.592-5.18 0-3.108-.592-5.254-.813-2.516-2.516-3.922-1.702-1.406-4.144-1.406-2.516 0-4.218 1.406-1.627 1.406-2.368 3.922-.591 1.776-.592 5.254 0 3.33.518 5.18.741 2.59 2.442 4.07 1.776 1.48 4.292 1.48m42.746-30.266q5.919 0 9.546 3.626t3.626 9.842v24.272q0 .37-.296.666-.223.222-.592.222h-8.658a1.08 1.08 0 0 1-.666-.222 1.08 1.08 0 0 1-.222-.666v-22.126q0-2.96-1.702-4.81-1.629-1.85-4.366-1.85-2.739 0-4.44 1.85-1.628 1.85-1.628 4.81v22.126q0 .37-.296.666-.223.222-.592.222h-8.658a1.08 1.08 0 0 1-.666-.222 1.08 1.08 0 0 1-.222-.666v-36.26q0-.37.222-.592.296-.296.666-.296h8.658q.37 0 .592.296a.7.7 0 0 1 .296.592v2.59q0 .222.148.296.147.074.222-.074 3.033-4.292 9.028-4.292m34.326 39.146q-4.958 0-8.658-1.406t-5.772-3.922q-1.998-2.516-1.998-5.698v-.74q0-.37.222-.592.297-.296.666-.296h8.214q.37 0 .592.296a.7.7 0 0 1 .296.592v.074q0 1.628 1.776 2.812 1.85 1.11 4.588 1.11 2.516 0 4.07-.962 1.554-1.036 1.554-2.516 0-1.332-1.332-1.998t-4.366-1.406q-3.477-.888-5.476-1.702-4.735-1.627-7.548-3.996t-2.812-6.808q0-5.476 4.218-8.658 4.293-3.256 11.322-3.256 4.737 0 8.288 1.554 3.553 1.48 5.476 4.218 1.998 2.738 1.998 6.216a.92.92 0 0 1-.296.666q-.222.222-.592.222h-7.918q-.369 0-.666-.222a1.08 1.08 0 0 1-.222-.666q0-1.628-1.702-2.738-1.627-1.11-4.366-1.11-2.442 0-3.996.888t-1.554 2.442q0 1.48 1.48 2.22 1.554.74 5.106 1.554.815.222 1.85.518 1.037.222 2.22.592 5.255 1.554 8.288 3.996t3.034 7.104q0 5.476-4.366 8.584-4.292 3.034-11.618 3.034"/><path fill="#fff" fill-rule="evenodd" d="M45.363 68.768a2.46 2.46 0 0 0 .02 2.606l9.103 14.368a2.46 2.46 0 0 0 2.786 1.04l26.27-7.885a2.463 2.463 0 0 0 1.528-3.39L68.183 38.854c-.824-1.788-3.307-1.934-4.335-.256zm22.37-21.535c-.358-.83-1.574-.703-1.752.185l-6.501 32.39a.923.923 0 0 0 1.169 1.067l18.15-5.421a.924.924 0 0 0 .583-1.252z" clip-rule="evenodd"/><rect width="83" height="30" x="43" y="122" fill="#1a202c" rx="15"/><path fill="#fff" d="M59.9 133.186q.924 0 1.624.378t1.078 1.078q.392.686.392 1.582 0 .882-.406 1.554a2.7 2.7 0 0 1-1.12 1.05q-.714.364-1.652.364h-1.988q-.07 0-.07.07v3.57a.17.17 0 0 1-.056.126.15.15 0 0 1-.112.042h-1.638a.2.2 0 0 1-.126-.042.2.2 0 0 1-.042-.126v-9.478a.15.15 0 0 1 .042-.112.18.18 0 0 1 .126-.056zm-.294 4.424q.645 0 1.036-.364.392-.378.392-.98 0-.616-.392-.994t-1.036-.378h-1.778q-.07 0-.07.07v2.576q0 .07.07.07zm9.978 5.39a.2.2 0 0 1-.197-.126l-1.75-3.878q-.027-.056-.084-.056h-1.302q-.07 0-.07.07v3.822a.17.17 0 0 1-.055.126.15.15 0 0 1-.113.042h-1.638a.2.2 0 0 1-.126-.042.2.2 0 0 1-.041-.126v-9.464a.15.15 0 0 1 .041-.112.18.18 0 0 1 .127-.056h4.003q.896 0 1.569.364a2.5 2.5 0 0 1 1.05 1.036q.377.672.377 1.554 0 .952-.475 1.638-.477.672-1.33.952-.07.028-.042.098l1.903 3.962a.2.2 0 0 1 .029.084q0 .112-.154.112zm-3.333-8.106q-.07 0-.07.07v2.394q0 .07.07.07h1.834q.589 0 .953-.35.377-.35.377-.91t-.378-.91q-.364-.364-.952-.364zm13.36-.168a.17.17 0 0 1-.056.126.15.15 0 0 1-.112.042h-4.592q-.07 0-.07.07v2.17q0 .07.07.07h3.01q.07 0 .112.056a.13.13 0 0 1 .056.112v1.358a.17.17 0 0 1-.056.126.15.15 0 0 1-.112.042h-3.01q-.07 0-.07.07v2.268q0 .07.07.07h4.592q.07 0 .112.056a.13.13 0 0 1 .056.112v1.358a.17.17 0 0 1-.056.126.15.15 0 0 1-.112.042h-6.468a.2.2 0 0 1-.126-.042.2.2 0 0 1-.042-.126v-9.464a.15.15 0 0 1 .042-.112.18.18 0 0 1 .126-.056h6.468q.07 0 .112.056a.13.13 0 0 1 .056.112zM83.67 143q-.14 0-.182-.14l-2.884-9.464-.014-.056q0-.14.154-.14h1.764q.154 0 .196.14l1.862 6.832q.014.042.042.042t.042-.042l1.834-6.832q.042-.14.196-.14h1.72q.084 0 .126.056t.014.14l-2.926 9.464q-.042.14-.182.14zm6.273 0a.2.2 0 0 1-.126-.042.2.2 0 0 1-.042-.126v-9.464a.15.15 0 0 1 .042-.112.18.18 0 0 1 .126-.056h1.638q.07 0 .112.056a.13.13 0 0 1 .056.112v9.464a.17.17 0 0 1-.056.126.15.15 0 0 1-.112.042zm10.314-8.274a.17.17 0 0 1-.056.126.15.15 0 0 1-.112.042h-4.592q-.07 0-.07.07v2.17q0 .07.07.07h3.01q.07 0 .112.056a.13.13 0 0 1 .056.112v1.358a.17.17 0 0 1-.056.126.15.15 0 0 1-.112.042h-3.01q-.07 0-.07.07v2.268q0 .07.07.07h4.592q.07 0 .112.056a.13.13 0 0 1 .056.112v1.358a.17.17 0 0 1-.056.126.15.15 0 0 1-.112.042H93.62a.2.2 0 0 1-.126-.042.2.2 0 0 1-.042-.126v-9.464a.15.15 0 0 1 .042-.112.18.18 0 0 1 .126-.056h6.468q.07 0 .112.056a.13.13 0 0 1 .056.112zM103.88 143q-.154 0-.196-.14l-2.478-9.478-.014-.056q0-.126.154-.126h1.736q.14 0 .182.14l1.33 5.698q.015.056.042.056.029 0 .042-.056l1.288-5.684q.042-.154.182-.154h1.694q.154 0 .196.14l1.4 5.698q.015.042.042.056.029 0 .042-.056l1.288-5.684q.042-.154.182-.154h1.652q.196 0 .154.182l-2.296 9.478q-.042.14-.196.14h-1.666q-.14 0-.182-.14l-1.428-6.062q-.013-.056-.042-.056-.027 0-.042.056l-1.33 6.048q-.027.154-.182.154z"/></g><defs><filter id="d" width="60.755" height="80.898" x="672.208" y="34.25" color-interpolation-filters="sRGB" filterUnits="userSpaceOnUse"><feFlood flood-opacity="0" result="BackgroundImageFix"/><feColorMatrix in="SourceAlpha" result="hardAlpha" values="0 0 0 0 0 0 0 0 0 0 0 0 0 0 0 0 0 0 127 0"/><feOffset dy="5"/><feGaussianBlur stdDeviation="1.5"/><feColorMatrix values="0 0 0 0 0.0901961 0 0 0 0 0.168627 0 0 0 0 0.301961 0 0 0 0.08 0"/><feBlend in2="BackgroundImageFix" result="effect1_dropShadow_8709_9987"/><feColorMatrix in="SourceAlpha" result="hardAlpha" values="0 0 0 0 0 0 0 0 0 0 0 0 0 0 0 0 0 0 127 0"/><feOffset dy="3"/><feGaussianBlur stdDeviation="1"/><feColorMatrix values="0 0 0 0 0.0901961 0 0 0 0 0.168627 0 0 0 0 0.301961 0 0 0 0.04 0"/><feBlend in2="effect1_dropShadow_8709_9987" result="effect2_dropShadow_8709_9987"/><feBlend in="SourceGraphic" in2="effect2_dropShadow_8709_9987" result="shape"/></filter><filter id="e" width="192.648" height="218.207" x="631.949" y="24.07" color-interpolation-filters="sRGB" filterUnits="userSpaceOnUse"><feFlood flood-opacity="0" result="BackgroundImageFix"/><feColorMatrix in="SourceAlpha" result="hardAlpha" values="0 0 0 0 0 0 0 0 0 0 0 0 0 0 0 0 0 0 127 0"/><feOffset dy="3.081"/><feGaussianBlur stdDeviation="1.232"/><feColorMatrix values="0 0 0 0 0 0 0 0 0 0 0 0 0 0 0 0 0 0 0.0196802 0"/><feBlend in2="BackgroundImageFix" result="effect1_dropShadow_8709_9987"/><feColorMatrix in="SourceAlpha" result="hardAlpha" values="0 0 0 0 0 0 0 0 0 0 0 0 0 0 0 0 0 0 127 0"/><feOffset dy="7.404"/><feGaussianBlur stdDeviation="2.961"/><feColorMatrix values="0 0 0 0 0 0 0 0 0 0 0 0 0 0 0 0 0 0 0.0282725 0"/><feBlend in2="effect1_dropShadow_8709_9987" result="effect2_dropShadow_8709_9987"/><feColorMatrix in="SourceAlpha" result="hardAlpha" values="0 0 0 0 0 0 0 0 0 0 0 0 0 0 0 0 0 0 127 0"/><feOffset dy="13.94"/><feGaussianBlur stdDeviation="5.576"/><feColorMatrix values="0 0 0 0 0 0 0 0 0 0 0 0 0 0 0 0 0 0 0.035 0"/><feBlend in2="effect2_dropShadow_8709_9987" result="effect3_dropShadow_8709_9987"/><feColorMatrix in="SourceAlpha" result="hardAlpha" values="0 0 0 0 0 0 0 0 0 0 0 0 0 0 0 0 0 0 127 0"/><feOffset dy="24.867"/><feGaussianBlur stdDeviation="9.947"/><feColorMatrix values="0 0 0 0 0 0 0 0 0 0 0 0 0 0 0 0 0 0 0.0417275 0"/><feBlend in2="effect3_dropShadow_8709_9987" result="effect4_dropShadow_8709_9987"/><feColorMatrix in="SourceAlpha" result="hardAlpha" values="0 0 0 0 0 0 0 0 0 0 0 0 0 0 0 0 0 0 127 0"/><feOffset dy="46.511"/><feGaussianBlur stdDeviation="18.604"/><feColorMatrix values="0 0 0 0 0 0 0 0 0 0 0 0 0 0 0 0 0 0 0.0503198 0"/><feBlend in2="effect4_dropShadow_8709_9987" result="effect5_dropShadow_8709_9987"/><feColorMatrix in="SourceAlpha" result="hardAlpha" values="0 0 0 0 0 0 0 0 0 0 0 0 0 0 0 0 0 0 127 0"/><feOffset dy="111.33"/><feGaussianBlur stdDeviation="44.532"/><feColorMatrix values="0 0 0 0 0 0 0 0 0 0 0 0 0 0 0 0 0 0 0.07 0"/><feBlend in2="effect5_dropShadow_8709_9987" result="effect6_dropShadow_8709_9987"/><feBlend in="SourceGraphic" in2="effect6_dropShadow_8709_9987" result="shape"/></filter><filter id="f" width="192.648" height="218.207" x="815.166" y="54.617" color-interpolation-filters="sRGB" filterUnits="userSpaceOnUse"><feFlood flood-opacity="0" result="BackgroundImageFix"/><feColorMatrix in="SourceAlpha" result="hardAlpha" values="0 0 0 0 0 0 0 0 0 0 0 0 0 0 0 0 0 0 127 0"/><feOffset dy="111.33"/><feGaussianBlur stdDeviation="44.532"/><feColorMatrix values="0 0 0 0 0 0 0 0 0 0 0 0 0 0 0 0 0 0 0.07 0"/><feBlend in2="BackgroundImageFix" result="effect1_dropShadow_8709_9987"/><feBlend in="SourceGraphic" in2="effect1_dropShadow_8709_9987" result="shape"/></filter><filter id="g" width="60.755" height="80.898" x="748.549" y="365.062" color-interpolation-filters="sRGB" filterUnits="userSpaceOnUse"><feFlood flood-opacity="0" result="BackgroundImageFix"/><feColorMatrix in="SourceAlpha" result="hardAlpha" values="0 0 0 0 0 0 0 0 0 0 0 0 0 0 0 0 0 0 127 0"/><feOffset dy="5"/><feGaussianBlur stdDeviation="1.5"/><feColorMatrix values="0 0 0 0 0.0901961 0 0 0 0 0.168627 0 0 0 0 0.301961 0 0 0 0.08 0"/><feBlend in2="BackgroundImageFix" result="effect1_dropShadow_8709_9987"/><feColorMatrix in="SourceAlpha" result="hardAlpha" values="0 0 0 0 0 0 0 0 0 0 0 0 0 0 0 0 0 0 127 0"/><feOffset dy="3"/><feGaussianBlur stdDeviation="1"/><feColorMatrix values="0 0 0 0 0.0901961 0 0 0 0 0.168627 0 0 0 0 0.301961 0 0 0 0.04 0"/><feBlend in2="effect1_dropShadow_8709_9987" result="effect2_dropShadow_8709_9987"/><feBlend in="SourceGraphic" in2="effect2_dropShadow_8709_9987" result="shape"/></filter><filter id="h" width="192.648" height="218.207" x="708.289" y="354.883" color-interpolation-filters="sRGB" filterUnits="userSpaceOnUse"><feFlood flood-opacity="0" result="BackgroundImageFix"/><feColorMatrix in="SourceAlpha" result="hardAlpha" values="0 0 0 0 0 0 0 0 0 0 0 0 0 0 0 0 0 0 127 0"/><feOffset dy="3.081"/><feGaussianBlur stdDeviation="1.232"/><feColorMatrix values="0 0 0 0 0 0 0 0 0 0 0 0 0 0 0 0 0 0 0.0196802 0"/><feBlend in2="BackgroundImageFix" result="effect1_dropShadow_8709_9987"/><feColorMatrix in="SourceAlpha" result="hardAlpha" values="0 0 0 0 0 0 0 0 0 0 0 0 0 0 0 0 0 0 127 0"/><feOffset dy="7.404"/><feGaussianBlur stdDeviation="2.961"/><feColorMatrix values="0 0 0 0 0 0 0 0 0 0 0 0 0 0 0 0 0 0 0.0282725 0"/><feBlend in2="effect1_dropShadow_8709_9987" result="effect2_dropShadow_8709_9987"/><feColorMatrix in="SourceAlpha" result="hardAlpha" values="0 0 0 0 0 0 0 0 0 0 0 0 0 0 0 0 0 0 127 0"/><feOffset dy="13.94"/><feGaussianBlur stdDeviation="5.576"/><feColorMatrix values="0 0 0 0 0 0 0 0 0 0 0 0 0 0 0 0 0 0 0.035 0"/><feBlend in2="effect2_dropShadow_8709_9987" result="effect3_dropShadow_8709_9987"/><feColorMatrix in="SourceAlpha" result="hardAlpha" values="0 0 0 0 0 0 0 0 0 0 0 0 0 0 0 0 0 0 127 0"/><feOffset dy="24.867"/><feGaussianBlur stdDeviation="9.947"/><feColorMatrix values="0 0 0 0 0 0 0 0 0 0 0 0 0 0 0 0 0 0 0.0417275 0"/><feBlend in2="effect3_dropShadow_8709_9987" result="effect4_dropShadow_8709_9987"/><feColorMatrix in="SourceAlpha" result="hardAlpha" values="0 0 0 0 0 0 0 0 0 0 0 0 0 0 0 0 0 0 127 0"/><feOffset dy="46.511"/><feGaussianBlur stdDeviation="18.604"/><feColorMatrix values="0 0 0 0 0 0 0 0 0 0 0 0 0 0 0 0 0 0 0.0503198 0"/><feBlend in2="effect4_dropShadow_8709_9987" result="effect5_dropShadow_8709_9987"/><feColorMatrix in="SourceAlpha" result="hardAlpha" values="0 0 0 0 0 0 0 0 0 0 0 0 0 0 0 0 0 0 127 0"/><feOffset dy="111.33"/><feGaussianBlur stdDeviation="44.532"/><feColorMatrix values="0 0 0 0 0 0 0 0 0 0 0 0 0 0 0 0 0 0 0.07 0"/><feBlend in2="effect5_dropShadow_8709_9987" result="effect6_dropShadow_8709_9987"/><feBlend in="SourceGraphic" in2="effect6_dropShadow_8709_9987" result="shape"/></filter><filter id="i" width="60.755" height="80.898" x="537.34" y="188.211" color-interpolation-filters="sRGB" filterUnits="userSpaceOnUse"><feFlood flood-opacity="0" result="BackgroundImageFix"/><feColorMatrix in="SourceAlpha" result="hardAlpha" values="0 0 0 0 0 0 0 0 0 0 0 0 0 0 0 0 0 0 127 0"/><feOffset dy="5"/><feGaussianBlur stdDeviation="1.5"/><feColorMatrix values="0 0 0 0 0.0901961 0 0 0 0 0.168627 0 0 0 0 0.301961 0 0 0 0.08 0"/><feBlend in2="BackgroundImageFix" result="effect1_dropShadow_8709_9987"/><feColorMatrix in="SourceAlpha" result="hardAlpha" values="0 0 0 0 0 0 0 0 0 0 0 0 0 0 0 0 0 0 127 0"/><feOffset dy="3"/><feGaussianBlur stdDeviation="1"/><feColorMatrix values="0 0 0 0 0.0901961 0 0 0 0 0.168627 0 0 0 0 0.301961 0 0 0 0.04 0"/><feBlend in2="effect1_dropShadow_8709_9987" result="effect2_dropShadow_8709_9987"/><feBlend in="SourceGraphic" in2="effect2_dropShadow_8709_9987" result="shape"/></filter><filter id="j" width="192.648" height="218.207" x="497.08" y="178.031" color-interpolation-filters="sRGB" filterUnits="userSpaceOnUse"><feFlood flood-opacity="0" result="BackgroundImageFix"/><feColorMatrix in="SourceAlpha" result="hardAlpha" values="0 0 0 0 0 0 0 0 0 0 0 0 0 0 0 0 0 0 127 0"/><feOffset dy="3.081"/><feGaussianBlur stdDeviation="1.232"/><feColorMatrix values="0 0 0 0 0 0 0 0 0 0 0 0 0 0 0 0 0 0 0.0196802 0"/><feBlend in2="BackgroundImageFix" result="effect1_dropShadow_8709_9987"/><feColorMatrix in="SourceAlpha" result="hardAlpha" values="0 0 0 0 0 0 0 0 0 0 0 0 0 0 0 0 0 0 127 0"/><feOffset dy="7.404"/><feGaussianBlur stdDeviation="2.961"/><feColorMatrix values="0 0 0 0 0 0 0 0 0 0 0 0 0 0 0 0 0 0 0.0282725 0"/><feBlend in2="effect1_dropShadow_8709_9987" result="effect2_dropShadow_8709_9987"/><feColorMatrix in="SourceAlpha" result="hardAlpha" values="0 0 0 0 0 0 0 0 0 0 0 0 0 0 0 0 0 0 127 0"/><feOffset dy="13.94"/><feGaussianBlur stdDeviation="5.576"/><feColorMatrix values="0 0 0 0 0 0 0 0 0 0 0 0 0 0 0 0 0 0 0.035 0"/><feBlend in2="effect2_dropShadow_8709_9987" result="effect3_dropShadow_8709_9987"/><feColorMatrix in="SourceAlpha" result="hardAlpha" values="0 0 0 0 0 0 0 0 0 0 0 0 0 0 0 0 0 0 127 0"/><feOffset dy="24.867"/><feGaussianBlur stdDeviation="9.947"/><feColorMatrix values="0 0 0 0 0 0 0 0 0 0 0 0 0 0 0 0 0 0 0.0417275 0"/><feBlend in2="effect3_dropShadow_8709_9987" result="effect4_dropShadow_8709_9987"/><feColorMatrix in="SourceAlpha" result="hardAlpha" values="0 0 0 0 0 0 0 0 0 0 0 0 0 0 0 0 0 0 127 0"/><feOffset dy="46.511"/><feGaussianBlur stdDeviation="18.604"/><feColorMatrix values="0 0 0 0 0 0 0 0 0 0 0 0 0 0 0 0 0 0 0.0503198 0"/><feBlend in2="effect4_dropShadow_8709_9987" result="effect5_dropShadow_8709_9987"/><feColorMatrix in="SourceAlpha" result="hardAlpha" values="0 0 0 0 0 0 0 0 0 0 0 0 0 0 0 0 0 0 127 0"/><feOffset dy="111.33"/><feGaussianBlur stdDeviation="44.532"/><feColorMatrix values="0 0 0 0 0 0 0 0 0 0 0 0 0 0 0 0 0 0 0.07 0"/><feBlend in2="effect5_dropShadow_8709_9987" result="effect6_dropShadow_8709_9987"/><feBlend in="SourceGraphic" in2="effect6_dropShadow_8709_9987" result="shape"/></filter><filter id="k" width="60.755" height="80.898" x="606.047" y="277.273" color-interpolation-filters="sRGB" filterUnits="userSpaceOnUse"><feFlood flood-opacity="0" result="BackgroundImageFix"/><feColorMatrix in="SourceAlpha" result="hardAlpha" values="0 0 0 0 0 0 0 0 0 0 0 0 0 0 0 0 0 0 127 0"/><feOffset dy="5"/><feGaussianBlur stdDeviation="1.5"/><feColorMatrix values="0 0 0 0 0.0901961 0 0 0 0 0.168627 0 0 0 0 0.301961 0 0 0 0.08 0"/><feBlend in2="BackgroundImageFix" result="effect1_dropShadow_8709_9987"/><feColorMatrix in="SourceAlpha" result="hardAlpha" values="0 0 0 0 0 0 0 0 0 0 0 0 0 0 0 0 0 0 127 0"/><feOffset dy="3"/><feGaussianBlur stdDeviation="1"/><feColorMatrix values="0 0 0 0 0.0901961 0 0 0 0 0.168627 0 0 0 0 0.301961 0 0 0 0.04 0"/><feBlend in2="effect1_dropShadow_8709_9987" result="effect2_dropShadow_8709_9987"/><feBlend in="SourceGraphic" in2="effect2_dropShadow_8709_9987" result="shape"/></filter><filter id="l" width="192.648" height="218.207" x="565.787" y="267.094" color-interpolation-filters="sRGB" filterUnits="userSpaceOnUse"><feFlood flood-opacity="0" result="BackgroundImageFix"/><feColorMatrix in="SourceAlpha" result="hardAlpha" values="0 0 0 0 0 0 0 0 0 0 0 0 0 0 0 0 0 0 127 0"/><feOffset dy="3.081"/><feGaussianBlur stdDeviation="1.232"/><feColorMatrix values="0 0 0 0 0 0 0 0 0 0 0 0 0 0 0 0 0 0 0.0196802 0"/><feBlend in2="BackgroundImageFix" result="effect1_dropShadow_8709_9987"/><feColorMatrix in="SourceAlpha" result="hardAlpha" values="0 0 0 0 0 0 0 0 0 0 0 0 0 0 0 0 0 0 127 0"/><feOffset dy="7.404"/><feGaussianBlur stdDeviation="2.961"/><feColorMatrix values="0 0 0 0 0 0 0 0 0 0 0 0 0 0 0 0 0 0 0.0282725 0"/><feBlend in2="effect1_dropShadow_8709_9987" result="effect2_dropShadow_8709_9987"/><feColorMatrix in="SourceAlpha" result="hardAlpha" values="0 0 0 0 0 0 0 0 0 0 0 0 0 0 0 0 0 0 127 0"/><feOffset dy="13.94"/><feGaussianBlur stdDeviation="5.576"/><feColorMatrix values="0 0 0 0 0 0 0 0 0 0 0 0 0 0 0 0 0 0 0.035 0"/><feBlend in2="effect2_dropShadow_8709_9987" result="effect3_dropShadow_8709_9987"/><feColorMatrix in="SourceAlpha" result="hardAlpha" values="0 0 0 0 0 0 0 0 0 0 0 0 0 0 0 0 0 0 127 0"/><feOffset dy="24.867"/><feGaussianBlur stdDeviation="9.947"/><feColorMatrix values="0 0 0 0 0 0 0 0 0 0 0 0 0 0 0 0 0 0 0.0417275 0"/><feBlend in2="effect3_dropShadow_8709_9987" result="effect4_dropShadow_8709_9987"/><feColorMatrix in="SourceAlpha" result="hardAlpha" values="0 0 0 0 0 0 0 0 0 0 0 0 0 0 0 0 0 0 127 0"/><feOffset dy="46.511"/><feGaussianBlur stdDeviation="18.604"/><feColorMatrix values="0 0 0 0 0 0 0 0 0 0 0 0 0 0 0 0 0 0 0.0503198 0"/><feBlend in2="effect4_dropShadow_8709_9987" result="effect5_dropShadow_8709_9987"/><feColorMatrix in="SourceAlpha" result="hardAlpha" values="0 0 0 0 0 0 0 0 0 0 0 0 0 0 0 0 0 0 127 0"/><feOffset dy="111.33"/><feGaussianBlur stdDeviation="44.532"/><feColorMatrix values="0 0 0 0 0 0 0 0 0 0 0 0 0 0 0 0 0 0 0.07 0"/><feBlend in2="effect5_dropShadow_8709_9987" result="effect6_dropShadow_8709_9987"/><feBlend in="SourceGraphic" in2="effect6_dropShadow_8709_9987" result="shape"/></filter><filter id="m" width="60.755" height="80.898" x="749.824" y="150.039" color-interpolation-filters="sRGB" filterUnits="userSpaceOnUse"><feFlood flood-opacity="0" result="BackgroundImageFix"/><feColorMatrix in="SourceAlpha" result="hardAlpha" values="0 0 0 0 0 0 0 0 0 0 0 0 0 0 0 0 0 0 127 0"/><feOffset dy="5"/><feGaussianBlur stdDeviation="1.5"/><feColorMatrix values="0 0 0 0 0.0901961 0 0 0 0 0.168627 0 0 0 0 0.301961 0 0 0 0.08 0"/><feBlend in2="BackgroundImageFix" result="effect1_dropShadow_8709_9987"/><feColorMatrix in="SourceAlpha" result="hardAlpha" values="0 0 0 0 0 0 0 0 0 0 0 0 0 0 0 0 0 0 127 0"/><feOffset dy="3"/><feGaussianBlur stdDeviation="1"/><feColorMatrix values="0 0 0 0 0.0901961 0 0 0 0 0.168627 0 0 0 0 0.301961 0 0 0 0.04 0"/><feBlend in2="effect1_dropShadow_8709_9987" result="effect2_dropShadow_8709_9987"/><feBlend in="SourceGraphic" in2="effect2_dropShadow_8709_9987" result="shape"/></filter><filter id="n" width="192.648" height="218.207" x="709.564" y="139.859" color-interpolation-filters="sRGB" filterUnits="userSpaceOnUse"><feFlood flood-opacity="0" result="BackgroundImageFix"/><feColorMatrix in="SourceAlpha" result="hardAlpha" values="0 0 0 0 0 0 0 0 0 0 0 0 0 0 0 0 0 0 127 0"/><feOffset dy="3.081"/><feGaussianBlur stdDeviation="1.232"/><feColorMatrix values="0 0 0 0 0 0 0 0 0 0 0 0 0 0 0 0 0 0 0.0196802 0"/><feBlend in2="BackgroundImageFix" result="effect1_dropShadow_8709_9987"/><feColorMatrix in="SourceAlpha" result="hardAlpha" values="0 0 0 0 0 0 0 0 0 0 0 0 0 0 0 0 0 0 127 0"/><feOffset dy="7.404"/><feGaussianBlur stdDeviation="2.961"/><feColorMatrix values="0 0 0 0 0 0 0 0 0 0 0 0 0 0 0 0 0 0 0.0282725 0"/><feBlend in2="effect1_dropShadow_8709_9987" result="effect2_dropShadow_8709_9987"/><feColorMatrix in="SourceAlpha" result="hardAlpha" values="0 0 0 0 0 0 0 0 0 0 0 0 0 0 0 0 0 0 127 0"/><feOffset dy="13.94"/><feGaussianBlur stdDeviation="5.576"/><feColorMatrix values="0 0 0 0 0 0 0 0 0 0 0 0 0 0 0 0 0 0 0.035 0"/><feBlend in2="effect2_dropShadow_8709_9987" result="effect3_dropShadow_8709_9987"/><feColorMatrix in="SourceAlpha" result="hardAlpha" values="0 0 0 0 0 0 0 0 0 0 0 0 0 0 0 0 0 0 127 0"/><feOffset dy="24.867"/><feGaussianBlur stdDeviation="9.947"/><feColorMatrix values="0 0 0 0 0 0 0 0 0 0 0 0 0 0 0 0 0 0 0.0417275 0"/><feBlend in2="effect3_dropShadow_8709_9987" result="effect4_dropShadow_8709_9987"/><feColorMatrix in="SourceAlpha" result="hardAlpha" values="0 0 0 0 0 0 0 0 0 0 0 0 0 0 0 0 0 0 127 0"/><feOffset dy="46.511"/><feGaussianBlur stdDeviation="18.604"/><feColorMatrix values="0 0 0 0 0 0 0 0 0 0 0 0 0 0 0 0 0 0 0.0503198 0"/><feBlend in2="effect4_dropShadow_8709_9987" result="effect5_dropShadow_8709_9987"/><feColorMatrix in="SourceAlpha" result="hardAlpha" values="0 0 0 0 0 0 0 0 0 0 0 0 0 0 0 0 0 0 127 0"/><feOffset dy="111.33"/><feGaussianBlur stdDeviation="44.532"/><feColorMatrix values="0 0 0 0 0 0 0 0 0 0 0 0 0 0 0 0 0 0 0.07 0"/><feBlend in2="effect5_dropShadow_8709_9987" result="effect6_dropShadow_8709_9987"/><feBlend in="SourceGraphic" in2="effect6_dropShadow_8709_9987" result="shape"/></filter><clipPath id="a"><path fill="#fff" d="M0 0h844v474H0z"/></clipPath><clipPath id="c"><path fill="#fff" d="M525.072 29.164h484.588v419.874H525.072z"/></clipPath><linearGradient id="b" x1="422" x2="422" y1="0" y2="474" gradientUnits="userSpaceOnUse"><stop stop-color="#5a67d8"/><stop offset="1" stop-color="#667eea"/></linearGradient></defs></svg>