<svg xmlns="http://www.w3.org/2000/svg" width="844" height="474" fill="none" viewBox="0 0 844 474"><g clip-path="url(#a)"><path fill="url(#b)" d="M0 0h844v474H0z"/><g opacity=".5"><g filter="url(#c)"><ellipse cx="426.586" cy="295.168" fill="#5a67d8" rx="86.505" ry="81.84"/></g><g filter="url(#d)"><ellipse cx="426.586" cy="295.168" fill="#5a67d8" rx="29.683" ry="81.84"/></g></g><path fill="#fff" d="M165.529 123.827q4.159 0 7.31 1.701a11.75 11.75 0 0 1 4.852 4.852q1.764 3.088 1.764 7.121 0 3.97-1.827 6.995-1.764 3.024-5.041 4.726-3.214 1.638-7.436 1.638h-8.948q-.315 0-.315.315v16.069q0 .315-.252.567a.68.68 0 0 1-.504.189h-7.373a.92.92 0 0 1-.567-.189.92.92 0 0 1-.189-.567v-42.661q0-.315.189-.504a.78.78 0 0 1 .567-.252zm-1.323 19.913q2.898 0 4.663-1.639 1.764-1.7 1.764-4.411 0-2.773-1.764-4.474t-4.663-1.701h-8.003q-.315 0-.315.315v11.594q0 .316.315.316zm36.276-8.57q2.268 0 3.592.882.504.252.378.945l-1.324 7.184q-.063.756-.882.441-.945-.315-2.205-.315-.504 0-1.387.126-2.268.189-3.843 1.701-1.576 1.45-1.576 3.907v17.203q0 .315-.252.567a.68.68 0 0 1-.504.189h-7.373a.92.92 0 0 1-.567-.189.92.92 0 0 1-.189-.567v-30.877q0-.315.189-.504a.78.78 0 0 1 .567-.252h7.373q.315 0 .504.252a.6.6 0 0 1 .252.504v2.394q0 .189.126.252t.189-.063q2.584-3.78 6.932-3.78m12.78-3.214q-2.142 0-3.592-1.386-1.386-1.45-1.386-3.592 0-2.206 1.386-3.592t3.592-1.386q2.205 0 3.592 1.386 1.386 1.386 1.386 3.592 0 2.142-1.449 3.592-1.387 1.386-3.529 1.386M209.481 168a.92.92 0 0 1-.567-.189.92.92 0 0 1-.189-.567v-30.94q0-.315.189-.504a.78.78 0 0 1 .567-.252h7.373q.315 0 .504.252a.6.6 0 0 1 .252.504v30.94q0 .315-.252.567a.68.68 0 0 1-.504.189zm27.971.441q-4.222 0-7.373-1.197t-4.915-3.34q-1.701-2.142-1.701-4.852v-.63q0-.315.189-.504a.78.78 0 0 1 .567-.252h6.995q.315 0 .504.252a.6.6 0 0 1 .252.504v.063q0 1.386 1.512 2.394 1.576.946 3.907.946 2.143 0 3.466-.82 1.323-.882 1.323-2.142 0-1.134-1.134-1.701-1.135-.568-3.718-1.198-2.962-.756-4.663-1.449-4.033-1.387-6.428-3.403t-2.394-5.797q0-4.663 3.592-7.373 3.654-2.772 9.641-2.772 4.033 0 7.058 1.323 3.024 1.26 4.663 3.592 1.701 2.33 1.701 5.293 0 .315-.252.567a.68.68 0 0 1-.504.189h-6.743a.92.92 0 0 1-.567-.189.92.92 0 0 1-.189-.567q0-1.387-1.449-2.332-1.386-.945-3.718-.945-2.08 0-3.403.756t-1.323 2.08q0 1.26 1.26 1.89 1.323.63 4.348 1.324.693.189 1.576.441.882.189 1.89.504 4.474 1.323 7.058 3.402t2.583 6.05q0 4.663-3.718 7.31-3.654 2.583-9.893 2.583m54.63-33.334q4.916 0 7.688 2.961 2.773 2.962 2.773 8.318v20.858q0 .315-.252.567a.68.68 0 0 1-.504.189h-7.373a.92.92 0 0 1-.567-.189.92.92 0 0 1-.189-.567V148.34q0-2.584-1.323-4.096-1.324-1.513-3.529-1.513t-3.592 1.513q-1.386 1.512-1.386 4.033v18.967q0 .315-.252.567a.7.7 0 0 1-.505.189h-7.309a.92.92 0 0 1-.567-.189.92.92 0 0 1-.189-.567V148.34q0-2.521-1.387-4.033-1.386-1.576-3.592-1.576-2.016 0-3.402 1.198-1.324 1.197-1.576 3.339v19.976q0 .315-.252.567a.68.68 0 0 1-.504.189h-7.373a.92.92 0 0 1-.567-.189.92.92 0 0 1-.189-.567v-30.877q0-.315.189-.504a.78.78 0 0 1 .567-.252h7.373q.315 0 .504.252a.6.6 0 0 1 .252.504v2.457q0 .189.126.252t.252-.126q2.584-3.843 8.003-3.843 3.151 0 5.482 1.323a8.8 8.8 0 0 1 3.655 3.781q.189.378.441 0 1.387-2.584 3.718-3.844 2.395-1.26 5.356-1.26m29.615 0q4.095 0 7.309 1.449 3.214 1.386 4.978 3.844 1.828 2.458 1.828 5.482v21.362q0 .315-.252.567a.68.68 0 0 1-.504.189h-7.373a.92.92 0 0 1-.567-.189.92.92 0 0 1-.189-.567v-2.08q0-.189-.126-.252t-.252.126q-2.647 3.466-8.507 3.466-4.915 0-7.94-2.394-3.024-2.395-3.025-7.058 0-4.852 3.403-7.499 3.403-2.709 9.704-2.709h6.428q.315 0 .315-.315v-1.387q0-2.079-1.26-3.213-1.261-1.198-3.781-1.198-1.954 0-3.277.693-1.26.694-1.638 1.954-.189.693-.82.63L308.527 145q-.756-.126-.693-.567.252-2.647 2.079-4.789 1.89-2.143 4.915-3.34 3.088-1.197 6.869-1.197m-1.261 26.781q2.71 0 4.6-1.45 1.891-1.449 1.891-3.718v-2.268q0-.315-.315-.315h-4.537q-2.836 0-4.474 1.071-1.576 1.07-1.576 3.025 0 1.701 1.198 2.709 1.197.946 3.213.946m50.507 6.805q-4.914 0-8.696-2.016-3.718-2.017-5.797-5.609-2.079-3.655-2.079-8.38v-13.486q0-4.663 2.079-8.254 2.08-3.592 5.797-5.546 3.782-2.016 8.696-2.016 4.979 0 8.696 2.016 3.781 1.954 5.861 5.546t2.079 8.254v13.486q0 4.726-2.079 8.38t-5.861 5.672q-3.717 1.953-8.696 1.953m0-7.625q3.466 0 5.609-2.205t2.142-5.86v-13.864q0-3.654-2.142-5.86-2.08-2.268-5.609-2.268-3.466 0-5.608 2.268-2.079 2.206-2.079 5.86v13.864q0 3.654 2.079 5.86 2.142 2.205 5.608 2.205M418.588 168q-.63 0-.882-.567l-7.877-17.455q-.126-.252-.378-.252h-5.86q-.315 0-.315.315v17.203q0 .315-.252.567a.7.7 0 0 1-.505.189h-7.372a.92.92 0 0 1-.567-.189.92.92 0 0 1-.189-.567v-42.598q0-.315.189-.504a.78.78 0 0 1 .567-.252h18.022q4.032 0 7.057 1.638 3.088 1.64 4.726 4.663 1.702 3.025 1.702 6.995 0 4.285-2.143 7.373-2.142 3.024-5.986 4.285-.315.126-.189.441l8.57 17.833q.126.252.126.378 0 .504-.693.504zm-14.997-36.485q-.315 0-.315.315v10.775q0 .315.315.315h8.255q2.646 0 4.284-1.575 1.702-1.576 1.702-4.096t-1.702-4.096q-1.638-1.638-4.284-1.638zm57.863-7.121q.315-.504.882-.504h7.373q.315 0 .504.252a.6.6 0 0 1 .252.504v42.598q0 .315-.252.567a.68.68 0 0 1-.504.189h-7.373a.92.92 0 0 1-.567-.189.92.92 0 0 1-.189-.567v-27.789q0-.253-.126-.253t-.252.19l-6.68 10.46q-.315.504-.882.504h-3.718q-.567 0-.882-.504l-6.679-10.46q-.126-.19-.252-.127-.126 0-.126.253v27.726q0 .315-.252.567a.7.7 0 0 1-.505.189h-7.372a.92.92 0 0 1-.567-.189.92.92 0 0 1-.189-.567v-42.598q0-.315.189-.504a.78.78 0 0 1 .567-.252h7.372q.567 0 .883.504l9.452 14.682q.189.38.378 0zm47.326 17.581q0 .315-.252.567a.68.68 0 0 1-.504.189h-6.049q-.315 0-.315.315v13.359q0 2.08.819 3.088.882 1.008 2.772 1.008h2.08q.315 0 .504.252a.6.6 0 0 1 .252.504v5.987q0 .693-.756.819-2.647.126-3.781.126-5.23 0-7.814-1.701-2.583-1.765-2.646-6.554v-16.888q0-.315-.315-.315h-3.592a.92.92 0 0 1-.567-.189.92.92 0 0 1-.189-.567v-5.608q0-.315.189-.504a.78.78 0 0 1 .567-.252h3.592q.315 0 .315-.315v-7.499q0-.315.189-.504a.78.78 0 0 1 .567-.252h7.057q.315 0 .504.252a.6.6 0 0 1 .253.504v7.499q0 .315.315.315h6.049q.315 0 .504.252a.6.6 0 0 1 .252.504zm19.222 26.529q-5.292 0-9.074-2.773-3.78-2.772-5.167-7.561-.882-2.962-.882-6.428 0-3.718.882-6.679 1.45-4.663 5.23-7.31 3.782-2.646 9.075-2.646 5.166 0 8.822 2.646 3.654 2.584 5.167 7.247 1.008 3.15 1.008 6.616 0 3.403-.882 6.365-1.387 4.915-5.167 7.75-3.718 2.773-9.012 2.773m0-7.625q2.08 0 3.529-1.26 1.45-1.26 2.08-3.466.504-2.016.504-4.411 0-2.646-.504-4.474-.693-2.142-2.143-3.339t-3.529-1.198q-2.142 0-3.591 1.198-1.387 1.197-2.017 3.339-.504 1.513-.504 4.474 0 2.836.441 4.411.63 2.206 2.08 3.466 1.512 1.26 3.654 1.26m64.58-30.12q0 .315-.252.567a.68.68 0 0 1-.504.189h-20.669q-.315 0-.315.315v9.767q0 .315.315.315h13.548q.315 0 .504.252a.6.6 0 0 1 .252.504v6.113q0 .315-.252.567a.68.68 0 0 1-.504.189h-13.548q-.315 0-.315.315v10.208q0 .315.315.315h20.669q.315 0 .504.252a.6.6 0 0 1 .252.504v6.113q0 .315-.252.567a.68.68 0 0 1-.504.189h-29.113a.92.92 0 0 1-.567-.189.92.92 0 0 1-.189-.567v-42.598q0-.315.189-.504a.78.78 0 0 1 .567-.252h29.113q.315 0 .504.252a.6.6 0 0 1 .252.504zM596.929 168q-.441 0-.63-.252-.126-.315.126-.693l10.145-15.061a.315.315 0 0 0 0-.378l-10.145-15.06a1 1 0 0 1-.126-.441q0-.504.63-.504h7.877q.567 0 .882.504l5.671 8.633q.252.378.441 0l5.671-8.633q.315-.504.883-.504h8.444q.441 0 .567.315.126.252-.126.63l-10.083 15.06a.6.6 0 0 0 0 .378l10.083 15.061a.8.8 0 0 1 .126.441q0 .504-.567.504h-7.94q-.567 0-.882-.504l-5.672-8.633q-.189-.378-.378 0l-5.671 8.633q-.315.504-.882.504zm64.091-23.693q1.134 3.213 1.134 7.561 0 4.349-1.197 7.877-1.45 4.033-4.6 6.428-3.088 2.331-7.688 2.331-4.537 0-7.058-3.151-.126-.189-.252-.126t-.126.252v13.485a.6.6 0 0 1-.252.505.6.6 0 0 1-.504.252h-7.373a.78.78 0 0 1-.567-.252.68.68 0 0 1-.189-.505v-42.597q0-.315.189-.504a.78.78 0 0 1 .567-.252h7.373q.315 0 .504.252a.6.6 0 0 1 .252.504v2.079q0 .189.126.252.126 0 .252-.126 2.647-3.465 7.31-3.465 4.348 0 7.499 2.457 3.214 2.394 4.6 6.743m-9.641 14.115q1.575-2.458 1.575-6.68 0-3.97-1.323-6.301-1.45-2.71-4.663-2.71-2.9 0-4.348 2.71-1.324 2.268-1.324 6.364 0 4.222 1.387 6.554 1.449 2.52 4.285 2.52 2.835 0 4.411-2.457m30.652 10.082q-5.294 0-9.074-2.773-3.781-2.772-5.168-7.561-.882-2.962-.882-6.428 0-3.718.882-6.679 1.45-4.663 5.231-7.31t9.074-2.646q5.166 0 8.822 2.646 3.655 2.584 5.167 7.247 1.008 3.15 1.008 6.616 0 3.403-.882 6.365-1.386 4.915-5.167 7.75-3.719 2.773-9.011 2.773m0-7.625q2.079 0 3.528-1.26 1.45-1.26 2.08-3.466.504-2.016.504-4.411 0-2.646-.504-4.474-.693-2.142-2.143-3.339t-3.528-1.198q-2.143 0-3.592 1.198-1.386 1.197-2.017 3.339-.504 1.513-.504 4.474 0 2.836.441 4.411.63 2.206 2.08 3.466 1.512 1.26 3.655 1.26"/><path fill="#c3dafe" d="M363.62 93.822q-.17.085 0 .17 2.685 1.385 2.685 4.608 0 2.742-1.866 4.155-1.865 1.386-4.89 1.386h-7.322a.4.4 0 0 1-.254-.085.4.4 0 0 1-.085-.255v-19.11q0-.141.085-.226a.35.35 0 0 1 .254-.113h7.096q6.7 0 6.7 5.428 0 2.826-2.403 4.042m-7.605-6.05q-.141 0-.141.142v4.41q0 .141.141.141h3.308q1.328 0 2.063-.622.735-.621.735-1.696 0-1.103-.735-1.724-.735-.65-2.063-.65zm3.534 12.92q1.3 0 2.035-.65.735-.679.735-1.838t-.735-1.81q-.735-.678-2.063-.678h-3.506q-.141 0-.141.142v4.692q0 .142.141.142zm23.552 3.449a.4.4 0 0 1-.396-.255l-3.534-7.83q-.057-.114-.169-.114h-2.63q-.141 0-.141.142v7.717a.35.35 0 0 1-.113.255.3.3 0 0 1-.226.085h-3.308a.4.4 0 0 1-.254-.085.4.4 0 0 1-.085-.255v-19.11q0-.141.085-.226a.35.35 0 0 1 .254-.113h8.085q1.81 0 3.167.735a5.05 5.05 0 0 1 2.12 2.092q.763 1.357.763 3.138 0 1.922-.961 3.307-.961 1.358-2.686 1.923-.141.056-.084.198l3.844 8a.4.4 0 0 1 .057.169q0 .227-.311.227zm-6.729-16.368q-.141 0-.141.14v4.835q0 .141.141.141h3.704q1.187 0 1.922-.706.763-.707.763-1.838 0-1.13-.763-1.837-.735-.735-1.922-.735zm16.404 16.368a.4.4 0 0 1-.254-.085.4.4 0 0 1-.085-.255v-19.11q0-.141.085-.226a.35.35 0 0 1 .254-.113h3.308a.27.27 0 0 1 .226.113.27.27 0 0 1 .113.226v19.11a.35.35 0 0 1-.113.255.3.3 0 0 1-.226.085zm21.278-19.45q0-.141.085-.226a.35.35 0 0 1 .255-.113h3.307q.141 0 .226.113a.27.27 0 0 1 .113.226v19.11a.35.35 0 0 1-.113.255.3.3 0 0 1-.226.085h-3.194q-.284 0-.396-.227l-7.322-12.099q-.056-.084-.113-.056-.056 0-.056.113l.056 11.929a.35.35 0 0 1-.113.255.3.3 0 0 1-.226.085h-3.308a.4.4 0 0 1-.254-.085.4.4 0 0 1-.085-.255v-19.11q0-.141.085-.226a.35.35 0 0 1 .254-.113h3.195q.282 0 .396.226l7.293 12.043q.056.085.113.085.057-.029.057-.142zm17.218 19.676q-2.177 0-3.845-.877-1.668-.876-2.601-2.431-.904-1.582-.904-3.647V91.08q0-2.063.904-3.647a6.23 6.23 0 0 1 2.601-2.43q1.668-.877 3.845-.877 2.148 0 3.788.848 1.668.848 2.572 2.318.933 1.441.933 3.223v.198q0 .141-.113.254a.3.3 0 0 1-.226.085h-3.308a.4.4 0 0 1-.254-.085.4.4 0 0 1-.085-.254v-.085q0-1.3-.904-2.177-.906-.905-2.403-.905-1.527 0-2.46.962-.904.932-.904 2.459v6.559q0 1.526.989 2.487.99.933 2.516.933 1.47 0 2.346-.763.877-.791.877-2.177v-1.272q0-.141-.142-.141h-3.166a.4.4 0 0 1-.254-.085.4.4 0 0 1-.085-.255v-2.6q0-.142.085-.227a.35.35 0 0 1 .254-.113h6.898q.142 0 .226.114a.27.27 0 0 1 .113.226v3.731q0 2.149-.905 3.732a6.05 6.05 0 0 1-2.572 2.431q-1.64.82-3.816.82m13.521-.226a.4.4 0 0 1-.254-.085.4.4 0 0 1-.085-.255v-19.11q0-.141.085-.226a.35.35 0 0 1 .254-.113h3.308a.27.27 0 0 1 .226.113.27.27 0 0 1 .113.226v19.11a.35.35 0 0 1-.113.255.3.3 0 0 1-.226.085zm21.278-19.45q0-.141.085-.226a.35.35 0 0 1 .255-.113h3.307q.142 0 .226.113a.27.27 0 0 1 .113.226v19.11a.35.35 0 0 1-.113.255.3.3 0 0 1-.226.085h-3.194q-.284 0-.396-.227l-7.322-12.099q-.057-.084-.113-.056-.057 0-.057.113l.057 11.929a.35.35 0 0 1-.113.255.3.3 0 0 1-.226.085h-3.308a.4.4 0 0 1-.254-.085.4.4 0 0 1-.085-.255v-19.11q0-.141.085-.226a.35.35 0 0 1 .254-.113h3.195q.282 0 .395.226l7.294 12.043q.056.085.113.085.057-.029.057-.142zm17.218 19.676q-2.178 0-3.845-.877-1.668-.876-2.601-2.431-.905-1.582-.905-3.647V91.08q0-2.063.905-3.647a6.23 6.23 0 0 1 2.601-2.43q1.668-.877 3.845-.877 2.148 0 3.788.848 1.668.848 2.572 2.318.933 1.441.933 3.223v.198q0 .141-.113.254a.3.3 0 0 1-.226.085h-3.308a.4.4 0 0 1-.254-.085.4.4 0 0 1-.085-.254v-.085q0-1.3-.905-2.177-.905-.905-2.402-.905-1.527 0-2.46.962-.905.932-.905 2.459v6.559q0 1.526.99 2.487.99.933 2.516.933 1.47 0 2.346-.763.876-.791.877-2.177v-1.272q0-.141-.142-.141h-3.166a.4.4 0 0 1-.254-.085.4.4 0 0 1-.085-.255v-2.6q0-.142.085-.227a.35.35 0 0 1 .254-.113h6.898a.27.27 0 0 1 .226.114.27.27 0 0 1 .113.226v3.731q0 2.149-.905 3.732a6.05 6.05 0 0 1-2.572 2.431q-1.64.82-3.816.82"/><rect width="224.742" height="162.832" fill="#282b6b" fill-opacity=".2" rx="13.569" transform="matrix(-1 0 0 1 782.781 213.328)"/><rect width="224.742" height="162.832" fill="#282b6b" fill-opacity=".2" rx="13.569" transform="matrix(-1 0 0 1 757.339 213.328)"/><rect width="224.742" height="162.832" fill="#282b6b" fill-opacity=".2" rx="13.569" transform="matrix(-1 0 0 1 731.896 213.328)"/><rect width="224.742" height="162.832" fill="#282b6b" fill-opacity=".2" rx="13.569" transform="matrix(-1 0 0 1 706.454 213.328)"/><rect width="224.742" height="162.832" fill="#282b6b" fill-opacity=".2" rx="13.569" transform="matrix(-1 0 0 1 681.011 213.328)"/><rect width="223.894" height="161.984" x="-.424" y=".424" fill="#282b6b" stroke="#5a67d8" stroke-width=".848" rx="13.145" transform="matrix(-1 0 0 1 654.721 213.328)"/><g filter="url(#e)"><path fill="#fff" d="M538.223 290.446c.869-1.314 1.82-1.485 2.596-1.485.77 0 2.057.171 2.926 1.485 11.332 16.025 34.83 58.298 37.003 60.6 3.218 3.409 7.635 1.284 10.198-2.582 2.531-3.809 3.229-6.482 3.229-9.332 0-1.941-36.596-72.039-40.286-77.875-3.543-5.614-4.698-7.03-10.76-7.03h-4.538c-6.05 0-6.925 1.416-10.467 7.024-3.697 5.848-40.293 75.945-40.293 77.887 0 2.856.699 5.523 3.229 9.332 2.563 3.866 6.98 5.996 10.198 2.581 2.173-2.301 25.639-44.574 36.965-60.594z"/></g><rect width="224.742" height="162.832" fill="#282b6b" fill-opacity=".2" rx="13.569" transform="matrix(1 0 0 -1 167.073 376.164)"/><rect width="224.742" height="162.832" fill="#282b6b" fill-opacity=".2" rx="13.569" transform="matrix(1 0 0 -1 141.63 376.164)"/><rect width="224.742" height="162.832" fill="#282b6b" fill-opacity=".2" rx="13.569" transform="matrix(1 0 0 -1 116.188 376.164)"/><rect width="224.742" height="162.832" fill="#282b6b" fill-opacity=".2" rx="13.569" transform="matrix(1 0 0 -1 90.745 376.164)"/><rect width="224.742" height="162.832" fill="#282b6b" fill-opacity=".2" rx="13.569" transform="matrix(1 0 0 -1 65.302 376.164)"/><rect width="223.894" height="161.984" x=".424" y="-.424" fill="#282b6b" stroke="#5a67d8" stroke-width=".848" rx="13.145" transform="matrix(1 0 0 -1 192.515 375.316)"/><g filter="url(#f)"><path fill="#fff" fill-rule="evenodd" d="M265.814 318.425a5.75 5.75 0 0 0 .043 5.918l20.019 32.627c1.3 2.118 3.804 3.083 6.129 2.363l57.77-17.907c3.153-.977 4.739-4.61 3.361-7.699l-37.138-83.233c-1.811-4.059-7.271-4.392-9.532-.582zm49.198-48.903c-.79-1.887-3.463-1.596-3.854.419l-14.298 73.554c-.302 1.551 1.104 2.875 2.571 2.423l39.915-12.311c1.165-.359 1.765-1.689 1.283-2.842z" clip-rule="evenodd"/></g></g><defs><filter id="c" width="382.825" height="373.496" x="235.174" y="108.42" color-interpolation-filters="sRGB" filterUnits="userSpaceOnUse"><feFlood flood-opacity="0" result="BackgroundImageFix"/><feBlend in="SourceGraphic" in2="BackgroundImageFix" result="shape"/><feGaussianBlur result="effect1_foregroundBlur_9098_9262" stdDeviation="52.454"/></filter><filter id="d" width="269.182" height="373.496" x="291.995" y="108.42" color-interpolation-filters="sRGB" filterUnits="userSpaceOnUse"><feFlood flood-opacity="0" result="BackgroundImageFix"/><feBlend in="SourceGraphic" in2="BackgroundImageFix" result="shape"/><feGaussianBlur result="effect1_foregroundBlur_9098_9262" stdDeviation="52.454"/></filter><filter id="e" width="354.154" height="346.349" x="363.926" y="130.321" color-interpolation-filters="sRGB" filterUnits="userSpaceOnUse"><feFlood flood-opacity="0" result="BackgroundImageFix"/><feColorMatrix in="SourceAlpha" result="hardAlpha" values="0 0 0 0 0 0 0 0 0 0 0 0 0 0 0 0 0 0 127 0"/><feOffset/><feGaussianBlur stdDeviation="61.953"/><feColorMatrix values="0 0 0 0 1 0 0 0 0 1 0 0 0 0 1 0 0 0 0.63 0"/><feBlend in2="BackgroundImageFix" result="effect1_dropShadow_9098_9262"/><feColorMatrix in="SourceAlpha" result="hardAlpha" values="0 0 0 0 0 0 0 0 0 0 0 0 0 0 0 0 0 0 127 0"/><feOffset/><feGaussianBlur stdDeviation="11.025"/><feColorMatrix values="0 0 0 0 0.0352941 0 0 0 0 0.0392157 0 0 0 0 0.0823529 0 0 0 0.05 0"/><feBlend in2="effect1_dropShadow_9098_9262" result="effect2_dropShadow_9098_9262"/><feColorMatrix in="SourceAlpha" result="hardAlpha" values="0 0 0 0 0 0 0 0 0 0 0 0 0 0 0 0 0 0 127 0"/><feOffset/><feGaussianBlur stdDeviation="19.506"/><feComposite in2="hardAlpha" operator="out"/><feColorMatrix values="0 0 0 0 0.0352941 0 0 0 0 0.0392157 0 0 0 0 0.0823529 0 0 0 0.01 0"/><feBlend in2="effect2_dropShadow_9098_9262" result="effect3_dropShadow_9098_9262"/><feColorMatrix in="SourceAlpha" result="hardAlpha" values="0 0 0 0 0 0 0 0 0 0 0 0 0 0 0 0 0 0 127 0"/><feOffset dy="3.392"/><feGaussianBlur stdDeviation="1.696"/><feComposite in2="hardAlpha" operator="out"/><feColorMatrix values="0 0 0 0 0 0 0 0 0 0 0 0 0 0 0 0 0 0 0.25 0"/><feBlend in2="effect3_dropShadow_9098_9262" result="effect4_dropShadow_9098_9262"/><feBlend in="SourceGraphic" in2="effect4_dropShadow_9098_9262" result="shape"/></filter><filter id="f" width="336.43" height="360.138" x="141.111" y="123.337" color-interpolation-filters="sRGB" filterUnits="userSpaceOnUse"><feFlood flood-opacity="0" result="BackgroundImageFix"/><feColorMatrix in="SourceAlpha" result="hardAlpha" values="0 0 0 0 0 0 0 0 0 0 0 0 0 0 0 0 0 0 127 0"/><feOffset/><feGaussianBlur stdDeviation="61.953"/><feColorMatrix values="0 0 0 0 1 0 0 0 0 1 0 0 0 0 1 0 0 0 0.63 0"/><feBlend in2="BackgroundImageFix" result="effect1_dropShadow_9098_9262"/><feColorMatrix in="SourceAlpha" result="hardAlpha" values="0 0 0 0 0 0 0 0 0 0 0 0 0 0 0 0 0 0 127 0"/><feOffset/><feGaussianBlur stdDeviation="11.025"/><feColorMatrix values="0 0 0 0 0.0352941 0 0 0 0 0.0392157 0 0 0 0 0.0823529 0 0 0 0.05 0"/><feBlend in2="effect1_dropShadow_9098_9262" result="effect2_dropShadow_9098_9262"/><feColorMatrix in="SourceAlpha" result="hardAlpha" values="0 0 0 0 0 0 0 0 0 0 0 0 0 0 0 0 0 0 127 0"/><feOffset/><feGaussianBlur stdDeviation="19.506"/><feComposite in2="hardAlpha" operator="out"/><feColorMatrix values="0 0 0 0 0.0352941 0 0 0 0 0.0392157 0 0 0 0 0.0823529 0 0 0 0.01 0"/><feBlend in2="effect2_dropShadow_9098_9262" result="effect3_dropShadow_9098_9262"/><feColorMatrix in="SourceAlpha" result="hardAlpha" values="0 0 0 0 0 0 0 0 0 0 0 0 0 0 0 0 0 0 127 0"/><feOffset dy="3.392"/><feGaussianBlur stdDeviation="1.696"/><feComposite in2="hardAlpha" operator="out"/><feColorMatrix values="0 0 0 0 0 0 0 0 0 0 0 0 0 0 0 0 0 0 0.25 0"/><feBlend in2="effect3_dropShadow_9098_9262" result="effect4_dropShadow_9098_9262"/><feBlend in="SourceGraphic" in2="effect4_dropShadow_9098_9262" result="shape"/></filter><linearGradient id="b" x1="422" x2="422" y1="0" y2="474" gradientUnits="userSpaceOnUse"><stop stop-color="#282b6b"/><stop offset="1" stop-color="#090a15"/></linearGradient><clipPath id="a"><path fill="#fff" d="M0 0h844v474H0z"/></clipPath></defs></svg>