<svg xmlns="http://www.w3.org/2000/svg" width="407" height="372" fill="none" viewBox="-16 -16 407 372"><g opacity=".55"><path fill="url(#a)" d="M53.529 200.441 9.075 274.144c-11.255 18.662 2.183 42.461 23.976 42.461h108.78v5H33.051c-25.684 0-41.523-28.05-28.258-50.044l44.404-73.621zm316.116 71.12c13.162 21.823-2.328 49.607-27.658 50.04l-.6.004H238.831v-5h102.556c21.793 0 35.232-23.799 23.977-42.461l-35.635-59.08 4.331-2.501zM158.961 15.956c12.832-21.275 43.684-21.275 56.516 0l50.741 84.128-4.331 2.501-50.691-84.046c-10.888-18.051-37.066-18.052-47.954 0l-56.134 93.069-4.332-2.501z" filter="url(#b)"><animate attributeName="opacity" dur="4s" repeatCount="indefinite" values="0.25;0.85;0.25"/></path></g><path fill="url(#a)" d="M53.529 200.441 9.075 274.144c-11.255 18.662 2.183 42.461 23.976 42.461h108.78v5H33.051c-25.684 0-41.523-28.05-28.258-50.044l44.404-73.621zm316.116 71.12c13.162 21.823-2.328 49.607-27.658 50.04l-.6.004H238.831v-5h102.556c21.793 0 35.232-23.799 23.977-42.461l-35.635-59.08 4.331-2.501zM158.961 15.956c12.832-21.275 43.684-21.275 56.516 0l50.741 84.128-4.331 2.501-50.691-84.046c-10.888-18.051-37.066-18.052-47.954 0l-56.134 93.069-4.332-2.501z"/><path fill="#fff" d="M164.65 312.387a5.7 5.7 0 0 0-.754-1.649 4.7 4.7 0 0 0-1.189-1.228 5.1 5.1 0 0 0-1.585-.78 6.7 6.7 0 0 0-1.956-.268q-2.007 0-3.528.997-1.509.997-2.353 2.902-.843 1.892-.843 4.628t.831 4.653 2.352 2.928q1.52.997 3.592.997 1.88 0 3.209-.665 1.343-.677 2.045-1.905.716-1.227.716-2.902l1.125.167h-6.75v-4.168h10.956v3.298q0 3.453-1.457 5.932a9.94 9.94 0 0 1-4.014 3.81q-2.558 1.329-5.855 1.329-3.682 0-6.469-1.623-2.787-1.637-4.347-4.641-1.547-3.017-1.547-7.159 0-3.183.921-5.676.933-2.505 2.608-4.244a11.3 11.3 0 0 1 3.899-2.647q2.224-.907 4.82-.907 2.223 0 4.142.652a11 11 0 0 1 3.4 1.815 9.8 9.8 0 0 1 2.442 2.8 9.5 9.5 0 0 1 1.214 3.554zm9.924 17.718v-19.636h5.28v3.426h.204q.537-1.828 1.803-2.761 1.266-.946 2.915-.946.409 0 .882.051.472.051.831.141v4.832a7 7 0 0 0-1.061-.205 10 10 0 0 0-1.24-.089q-1.201 0-2.148.524a3.86 3.86 0 0 0-1.483 1.432q-.537.92-.537 2.122v11.109zm22.689.384q-2.98 0-5.152-1.266-2.161-1.278-3.337-3.554-1.176-2.288-1.176-5.305 0-3.042 1.176-5.318 1.176-2.288 3.337-3.554 2.173-1.278 5.152-1.279 2.977 0 5.139 1.279 2.173 1.266 3.349 3.554 1.176 2.276 1.176 5.318 0 3.017-1.176 5.305-1.176 2.276-3.349 3.554-2.162 1.266-5.139 1.266m.025-4.219q1.356 0 2.263-.767.908-.78 1.368-2.122.473-1.342.473-3.055t-.473-3.056q-.46-1.342-1.368-2.122-.907-.78-2.263-.78-1.368 0-2.301.78-.92.78-1.393 2.122-.46 1.343-.461 3.056 0 1.713.461 3.055.472 1.342 1.393 2.122.933.767 2.301.767m16.562 3.835-5.344-19.636h5.51l3.043 13.193h.179l3.17-13.193h5.408l3.221 13.117h.167l2.991-13.117h5.497l-5.331 19.636h-5.765l-3.375-12.349h-.243l-3.375 12.349zm47.003-214.179 22.674-13.091 8.668 15.013-3.952 2.282-5.9-10.219-5.403 3.12 5.324 9.222-3.952 2.282-5.325-9.223-9.366 5.408zm13.862 24.776q-1.49-2.58-1.48-5.095.027-2.51 1.409-4.666 1.394-2.163 4.007-3.671 2.634-1.522 5.194-1.641 2.57-.126 4.746 1.113 2.193 1.242 3.683 3.822t1.462 5.09q-.01 2.515-1.403 4.678-1.383 2.156-4.017 3.677-2.613 1.509-5.183 1.635a8.65 8.65 0 0 1-4.753-1.124q-2.176-1.239-3.665-3.818m3.666-2.087q.678 1.173 1.796 1.576 1.129.396 2.521.123 1.4-.261 2.883-1.118 1.483-.856 2.41-1.937.932-1.07 1.153-2.246.222-1.176-.456-2.349-.684-1.185-1.826-1.603-1.135-.407-2.534-.146-1.392.273-2.876 1.129t-2.416 1.927q-.927 1.08-1.141 2.267-.198 1.192.486 2.377m3.269 13.332 17.005-9.818 2.64 4.572-2.967 1.713.102.177q1.852-.449 3.293.181 1.452.623 2.277 2.051.204.354.397.79.192.435.293.789l-4.185 2.417a7 7 0 0 0-.353-1.022 9 9 0 0 0-.543-1.118q-.6-1.041-1.527-1.598a3.86 3.86 0 0 0-1.982-.568q-1.065-.006-2.106.596l-9.621 5.554zm30.085 12.836-3.543 2.046-5.912-10.241 3.542-2.046zm-.496-10.268 2.723 4.717-15.854 9.153q-.654.377-.904.787a1.27 1.27 0 0 0-.178.842q.066.449.342.924.191.332.439.632.258.294.393.452l-3.081 2.768a15 15 0 0 1-.83-.849q-.526-.553-1.09-1.453-1.05-1.666-1.272-3.251-.214-1.574.473-2.915t2.365-2.295zm-14.736 23.159 17.006-9.818 2.723 4.716-17.006 9.818zm20.566-8.715q-.608-1.052-.344-2.207.28-1.15 1.265-1.72.975-.562 2.1-.223a2.94 2.94 0 0 1 1.751 1.395q.606 1.053.327 2.203-.264 1.155-1.238 1.718-.984.569-2.128.225-1.126-.339-1.733-1.391m6.624 16.536-3.543 2.046-6.059-10.496 3.542-2.045zm-21.678 1.725 18.234-10.527q1.85-1.068 3.483-1.051a5.34 5.34 0 0 1 2.977.938q1.338.91 2.264 2.516.627 1.085.979 2.077.358 1.004.48 1.524l-4.028 1.204a7 7 0 0 0-.23-.783 5 5 0 0 0-.396-.864q-.601-1.04-1.324-1.169-.713-.134-1.577.364l-18.146 10.477zm1.64 17.568a11 11 0 0 1-.828-1.766q-.314-.851-.398-1.482l4.134-.97q.226.977.586 1.655.369.687.982.983.62.306 1.596.156l.879-.138 13.971-16.2 2.863 4.96-10.455 10.731.102.177 14.54-3.657 2.883 4.994-22.66 4.269q-1.647.317-3.139.086a6.15 6.15 0 0 1-2.766-1.134q-1.28-.915-2.29-2.664m-236.412-7.207L44.569 184.49l5.241-9.079q1.445-2.502 3.152-3.745t3.51-1.325q1.792-.087 3.497.898 1.33.767 2.03 1.88.69 1.107.794 2.407a6.9 6.9 0 0 1-.317 2.622l.221.127a5.86 5.86 0 0 1 2.13-2.002q1.335-.751 2.961-.756 1.617-.012 3.288.953 1.805 1.042 2.704 2.757.894 1.698.71 3.909t-1.654 4.757zm-1.151-7.057 2.256-3.908q1.156-2.004.924-3.364-.244-1.367-1.53-2.108-.94-.543-1.922-.505-.981.039-1.877.644-.889.593-1.554 1.745l-2.32 4.019zm-9.267-5.35 2.052-3.554q.569-.986.666-1.947.094-.98-.293-1.794-.38-.824-1.277-1.342-1.23-.71-2.486-.269-1.253.428-2.172 2.023l-2.103 3.642zm21.323-23.202-9.765-5.638 2.723-4.717 17.005 9.819-2.614 4.528-3.089-1.784-.102.178a5.8 5.8 0 0 1 1.297 3.302q.14 1.853-.965 3.768-.985 1.706-2.508 2.553t-3.373.754q-1.843-.105-3.843-1.245l-10.827-6.251 2.723-4.716 9.986 5.765q1.512.858 2.847.566 1.335-.291 2.108-1.631a3.9 3.9 0 0 0 .533-1.818 3.5 3.5 0 0 0-.483-1.874q-.507-.912-1.653-1.559m12.142-4.309-17.006-9.818 2.723-4.717 17.005 9.819zM72.46 144.21q-.607 1.051-1.74 1.402-1.137.333-2.122-.236-.975-.562-1.243-1.707a2.93 2.93 0 0 1 .333-2.214q.607-1.052 1.744-1.385 1.132-.35 2.106.213.986.569 1.26 1.731.27 1.144-.338 2.196m2.783-12.849 22.674 13.091-2.723 4.717-22.674-13.091zm28.75 3.206q-1.12 1.938-3.023 2.935-1.908.979-4.388.773-2.484-.223-5.329-1.866-2.923-1.687-4.317-3.747-1.406-2.066-1.467-4.184a7.4 7.4 0 0 1 1.014-4.005q.825-1.428 1.861-2.099 1.032-.689 2.09-.86 1.055-.189 1.92-.102l.083-.144-8.525-4.922 2.716-4.706 22.675 13.091-2.685 4.65-2.724-1.572-.115.199q.517.742.863 1.753.341.995.239 2.219-.096 1.215-.888 2.587m-2.89-3.661q.658-1.14.492-2.284-.172-1.162-1.057-2.235-.88-1.083-2.397-1.959t-2.878-1.101-2.43.221-1.728 1.586q-.67 1.163-.5 2.324t1.052 2.217q.882 1.054 2.355 1.905 1.483.856 2.86 1.105 1.372.231 2.468-.184 1.091-.432 1.763-1.595"/><defs><linearGradient id="a" x1="187.219" x2="187.219" y1="23.164" y2="242.715" gradientUnits="userSpaceOnUse"><stop stop-color="#4f46e5"/><stop offset="1" stop-color="#0d9488"/></linearGradient><filter id="b" width="398" height="348" x="-12" y="-16" color-interpolation-filters="sRGB" filterUnits="userSpaceOnUse"><feFlood flood-opacity="0" result="BackgroundImageFix"/><feBlend in="SourceGraphic" in2="BackgroundImageFix" result="shape"/><feGaussianBlur result="effect1_foregroundBlur_25_14" stdDeviation="5"><animate attributeName="stdDeviation" dur="4s" repeatCount="indefinite" values="3;8;3"/></feGaussianBlur></filter></defs></svg>