<svg xmlns="http://www.w3.org/2000/svg" width="368" height="72" fill="none" viewBox="0 0 368 72"><rect width="368" height="49" y="12.24" fill="#1a202c" rx="5.097"/><path fill="#7f9cf5" d="M20.759 40.24q-1.08 0-1.686-.577-.593-.578-.593-1.625V33.13h-2.354v-1.246h2.354V29.53h1.367v2.354h3.342v1.246h-3.342v4.907q0 .957.912.957h2.279v1.245zm4.931 0v-1.245h2.962V33.13H26.07v-1.246h3.95v7.11h2.81v1.245zm3.494-9.859q-.501 0-.79-.258-.288-.258-.289-.699 0-.454.289-.714.29-.273.79-.273.502 0 .79.273.289.258.289.714 0 .44-.29.7-.287.257-.789.257m9.792 9.86q-1.078 0-1.686-.578-.592-.578-.592-1.625V33.13h-2.355v-1.246h2.355V29.53h1.367v2.354h3.342v1.246h-3.342v4.907q0 .957.911.957h2.279v1.245zm9.337 0q-.73 0-1.276-.29a2.07 2.07 0 0 1-.85-.82q-.305-.532-.305-1.245v-7.49h-2.81v-1.245h4.177v8.735q0 .516.29.82.288.288.774.289h2.658v1.245zm7.97.151q-.988 0-1.733-.395a2.86 2.86 0 0 1-1.139-1.109q-.395-.729-.395-1.686v-2.279q0-.972.395-1.686a2.86 2.86 0 0 1 1.14-1.109q.744-.395 1.731-.395t1.717.395q.744.395 1.14 1.11.41.713.41 1.685v1.474h-5.196v.805q0 .987.501 1.52.502.516 1.428.516.79 0 1.276-.274.487-.289.593-.85h1.367q-.136 1.047-1.033 1.67-.881.609-2.203.608m1.929-4.907v-.562q0-.987-.502-1.519-.486-.531-1.428-.531-.925 0-1.428.531-.5.532-.5 1.52v.44h3.964z"/><path fill="#cbd5e0" d="M65.391 34.012q-.562 0-.911-.304-.35-.319-.35-.835 0-.517.35-.82.349-.32.911-.32.578 0 .911.32.35.303.35.82t-.35.835q-.333.304-.91.304m0 6.38q-.562 0-.911-.304-.35-.318-.35-.835t.35-.82q.349-.32.911-.32.578 0 .911.32.35.303.35.82t-.35.835q-.333.304-.91.304"/><path fill="#a0aec0" d="M82.925 41.911v-14.28h1.367v14.28z"/><path fill="#1a202c" stroke="#4a5568" stroke-width="1.012" d="M102.066.506h211.133a5.564 5.564 0 0 1 5.564 5.564v110.633a5.564 5.564 0 0 1-5.564 5.563H102.066a5.564 5.564 0 0 1-5.563-5.563V6.07a5.563 5.563 0 0 1 5.563-5.564Z"/><path fill="#4a5568" d="M95.997 6.07A6.07 6.07 0 0 1 102.066 0H313.2a6.07 6.07 0 0 1 6.069 6.07v18.9H95.997z" opacity=".82"/><path stroke="#a3bffa" stroke-linecap="round" stroke-linejoin="round" stroke-width="1.517" d="M117.53 14.925V9.53a1.35 1.35 0 0 0-.674-1.166l-4.72-2.698a1.35 1.35 0 0 0-1.349 0l-4.721 2.698a1.35 1.35 0 0 0-.674 1.166v5.395a1.35 1.35 0 0 0 .674 1.167l4.721 2.697a1.34 1.34 0 0 0 1.349 0l4.72-2.697a1.35 1.35 0 0 0 .674-1.167"/><path stroke="#a3bffa" stroke-linecap="round" stroke-linejoin="round" stroke-width="1.517" d="m105.574 8.827 5.887 3.406 5.887-3.406m-5.891 10.197v-6.797"/><path fill="#cbd5e0" d="M128.608 17.297q-.687 0-1.153-.269a2.2 2.2 0 0 1-.736-.72 3 3 0 0 1-.41-.98 5.3 5.3 0 0 1-.119-1.113v-.332q0-.553.119-1.098.126-.546.41-.989.285-.434.743-.702.467-.278 1.146-.278.443 0 .822.151.388.15.664.41.277.262.435.61.165.339.174.726h1.383q0-.648-.261-1.217a3 3 0 0 0-.72-.987 3.5 3.5 0 0 0-1.106-.649 3.8 3.8 0 0 0-1.391-.244q-.971 0-1.698.348a3.5 3.5 0 0 0-1.21.932q-.49.592-.735 1.367a5.4 5.4 0 0 0-.244 1.62v.332q0 .854.244 1.628.245.766.735 1.351.482.595 1.21.94.727.348 1.698.349.68 0 1.304-.23.625-.238 1.107-.632a3 3 0 0 0 .766-.901 2.26 2.26 0 0 0 .301-1.09h-1.383a1.35 1.35 0 0 1-.19.663q-.174.3-.467.522a2.38 2.38 0 0 1-1.438.483m5.667-3.327v.173a5.3 5.3 0 0 0 .268 1.716 4.1 4.1 0 0 0 .775 1.374q.497.585 1.216.917.727.333 1.636.333.901 0 1.621-.333.72-.33 1.224-.916.498-.585.767-1.375a5.3 5.3 0 0 0 .268-1.716v-.173q0-.925-.268-1.715a4.1 4.1 0 0 0-.767-1.383 3.6 3.6 0 0 0-1.233-.916q-.718-.34-1.627-.34a3.75 3.75 0 0 0-1.621.34 3.5 3.5 0 0 0-1.216.916 4.1 4.1 0 0 0-.775 1.383 5.3 5.3 0 0 0-.268 1.715m1.461.173v-.173q0-.625.151-1.193.15-.578.458-1.012.3-.435.751-.688.45-.26 1.059-.26.608 0 1.059.26.457.254.766.688.3.435.451 1.012.158.569.158 1.193v.173q0 .633-.15 1.21-.15.569-.451 1.004-.308.434-.767.687-.449.252-1.051.253-.609 0-1.066-.253a2.2 2.2 0 0 1-.759-.687 3.1 3.1 0 0 1-.458-1.004 4.8 4.8 0 0 1-.151-1.21m8.669 4.18h1.463v-6.131q.15-.277.348-.506.204-.229.442-.403.292-.197.64-.308.348-.12.751-.12.465 0 .822.112.363.11.616.355.245.246.371.64.127.396.127.964v5.398h1.461v-5.429q0-.854-.213-1.47a2.66 2.66 0 0 0-.592-1.027 2.35 2.35 0 0 0-.94-.593 3.7 3.7 0 0 0-1.217-.19 3.33 3.33 0 0 0-1.771.538 3 3 0 0 0-.482.395q-.221.221-.411.49l-.103-1.265h-1.312zm13.182-10.62h-1.469v2.07h-2.245v1.13h2.245v4.647q-.001.79.205 1.352.213.552.577.901.363.355.853.52.498.16 1.066.16a7.3 7.3 0 0 0 1.337-.127q.307-.056.568-.134.261-.088.443-.199l-.205-1.034-.348.079q-.206.039-.443.078-.245.04-.498.072a6 6 0 0 1-.489.024q-.325 0-.617-.08a1.27 1.27 0 0 1-.853-.79q-.127-.324-.127-.822v-4.647h3.256v-1.13h-3.256zm11.878 10.62h1.525v-.125a4 4 0 0 1-.221-.83 5.6 5.6 0 0 1-.079-.908v-3.976q0-.72-.261-1.256a2.6 2.6 0 0 0-.711-.901 3.1 3.1 0 0 0-1.083-.53 4.8 4.8 0 0 0-1.351-.181q-.798 0-1.43.221-.626.221-1.059.577a2.65 2.65 0 0 0-.68.814 2.1 2.1 0 0 0-.238.916h1.471q0-.268.126-.513.134-.254.372-.435.236-.181.576-.293.348-.11.783-.11.466 0 .838.118.38.12.639.332.26.222.404.53.142.308.142.695v.672h-1.597q-.892 0-1.62.174-.719.174-1.233.522a2.54 2.54 0 0 0-.798.885q-.276.53-.276 1.233 0 .537.206 1.003.212.459.599.79.38.34.926.538.552.197 1.232.198.419 0 .791-.087.37-.088.703-.238.324-.15.593-.348.276-.197.497-.419.025.27.071.522.056.245.143.41m-2.585-1.113q-.426 0-.75-.111a1.5 1.5 0 0 1-.537-.308 1.2 1.2 0 0 1-.325-.458 1.6 1.6 0 0 1-.102-.585q0-.332.118-.593.127-.26.363-.45.332-.269.894-.395.569-.135 1.328-.134h1.359v1.73a2.1 2.1 0 0 1-.348.49q-.22.23-.522.41a3 3 0 0 1-.679.293 2.8 2.8 0 0 1-.799.111m6.915-7.437v1.273h2.908v6.014h-2.908v1.264h7.16V17.06h-2.79V9.774zm2.719-2.244q0 .357.214.593.22.237.663.237.434 0 .656-.237a.84.84 0 0 0 .221-.593q0-.198-.062-.363a.7.7 0 0 0-.191-.276.7.7 0 0 0-.261-.16 1 1 0 0 0-.363-.062q-.206 0-.371.063a.7.7 0 0 0-.261.159.74.74 0 0 0-.19.284q-.055.165-.055.355m6.772 10.795h1.462v-6.132q.15-.277.348-.506.205-.229.443-.403a2.5 2.5 0 0 1 .639-.308q.348-.12.752-.12.467 0 .821.112.364.11.616.355.246.246.373.64.126.396.126.964v5.398h1.462v-5.429q0-.854-.214-1.47a2.66 2.66 0 0 0-.592-1.027 2.34 2.34 0 0 0-.941-.593 3.7 3.7 0 0 0-1.217-.19 3.33 3.33 0 0 0-1.77.538 3 3 0 0 0-.482.395q-.221.221-.411.49l-.103-1.265h-1.312zm15.403-2.268a1 1 0 0 1-.08.387 1.1 1.1 0 0 1-.228.332q-.246.245-.68.388-.434.134-1.02.134a3.7 3.7 0 0 1-.75-.079 2.2 2.2 0 0 1-.688-.269 1.7 1.7 0 0 1-.529-.497 1.5 1.5 0 0 1-.238-.76h-1.462q0 .545.245 1.052.254.506.727.885.466.387 1.147.624.68.23 1.548.23a5 5 0 0 0 1.399-.182 3.5 3.5 0 0 0 1.099-.514q.458-.333.711-.798a2.1 2.1 0 0 0 .261-1.035 1.85 1.85 0 0 0-.23-.933 2.2 2.2 0 0 0-.647-.71 4.1 4.1 0 0 0-1.051-.515 11 11 0 0 0-1.415-.387 9 9 0 0 1-.996-.245 2.4 2.4 0 0 1-.617-.285.9.9 0 0 1-.332-.355 1.05 1.05 0 0 1-.094-.45q0-.246.119-.475a1.2 1.2 0 0 1 .355-.403q.23-.174.577-.277.355-.102.822-.103.45 0 .806.127.364.127.616.333.253.204.395.473.144.26.143.538h1.462q0-.561-.245-1.044a2.5 2.5 0 0 0-.68-.853 3.2 3.2 0 0 0-1.075-.569 4.6 4.6 0 0 0-1.422-.205q-.735 0-1.352.197a3.5 3.5 0 0 0-1.051.537 2.5 2.5 0 0 0-.687.8q-.245.448-.245.97 0 .53.237.933.237.395.672.688.426.299 1.027.514.608.212 1.343.363.601.119 1.005.269.402.143.647.315.245.175.348.388.103.205.103.466"/><path stroke="#5a67d8" stroke-linecap="round" stroke-linejoin="round" stroke-width="1.517" d="M117.53 37.178v-5.395a1.35 1.35 0 0 0-.674-1.167l-4.72-2.697a1.35 1.35 0 0 0-1.349 0l-4.721 2.697a1.35 1.35 0 0 0-.674 1.167v5.395a1.35 1.35 0 0 0 .674 1.167l4.721 2.697a1.34 1.34 0 0 0 1.349 0l4.72-2.697a1.35 1.35 0 0 0 .674-1.167"/><path stroke="#5a67d8" stroke-linecap="round" stroke-linejoin="round" stroke-width="1.517" d="m105.574 31.081 5.887 3.406 5.887-3.406m-5.891 10.198V34.48"/><path fill="#cbd5e0" d="M128.748 40.736q1.248 0 2.094-.499.854-.505 1.28-1.153l-.893-.696a3 3 0 0 1-1.012.838q-.607.316-1.39.316a2.6 2.6 0 0 1-1.083-.221 2.5 2.5 0 0 1-.837-.608 2.8 2.8 0 0 1-.537-.839 3.9 3.9 0 0 1-.246-1.098v-.055h6.108v-.656a5.8 5.8 0 0 0-.228-1.66 3.8 3.8 0 0 0-.68-1.336 3.15 3.15 0 0 0-1.154-.876q-.687-.324-1.611-.324-.737 0-1.439.3-.695.3-1.241.861-.553.57-.885 1.39-.332.816-.332 1.85v.333q0 .892.301 1.65.3.76.837 1.313.538.553 1.288.861a4.4 4.4 0 0 0 1.66.309m-.189-7.666q.56 0 .964.206.41.205.679.537t.419.79q.15.45.15.846v.07h-4.6q.087-.591.301-1.042.22-.459.537-.775.316-.308.711-.467.395-.165.839-.166m6.131 7.507h1.462v-6.132q.15-.277.348-.505.206-.23.443-.404.292-.197.639-.308.349-.118.752-.119.467 0 .821.111a1.5 1.5 0 0 1 .617.355q.245.246.372.64.126.396.126.965v5.397h1.462v-5.429q0-.853-.214-1.47a2.65 2.65 0 0 0-.592-1.027 2.34 2.34 0 0 0-.941-.593 3.7 3.7 0 0 0-1.217-.19 3.33 3.33 0 0 0-1.77.538 3 3 0 0 0-.482.395q-.22.222-.41.49l-.104-1.264h-1.312zm9.444-4.346v.166q0 .917.245 1.715.245.79.688 1.375t1.067.916q.632.333 1.406.333.79 0 1.383-.27a2.8 2.8 0 0 0 1.019-.79l.064.901h1.343V28.44h-1.461v4.433a2.74 2.74 0 0 0-.997-.742q-.569-.261-1.335-.261-.782 0-1.415.324a3.2 3.2 0 0 0-1.074.9 4.2 4.2 0 0 0-.696 1.384 6.1 6.1 0 0 0-.237 1.754m1.462.166v-.166q0-.625.134-1.185.135-.57.419-1.004.277-.427.711-.68.444-.253 1.059-.253.72 0 1.202.34.482.332.767.854v3.967q-.285.56-.767.893t-1.217.332q-.608 0-1.044-.245a2.1 2.1 0 0 1-.711-.68 3 3 0 0 1-.419-.988 5 5 0 0 1-.134-1.185m14.217 1.912a1 1 0 0 1-.079.388 1.1 1.1 0 0 1-.23.331q-.244.245-.679.388-.435.134-1.019.134-.372 0-.752-.078a2.2 2.2 0 0 1-.686-.27 1.7 1.7 0 0 1-.53-.497 1.54 1.54 0 0 1-.237-.759h-1.462q0 .544.245 1.051.252.505.727.885.466.388 1.145.624.68.23 1.55.23.759 0 1.398-.182a3.5 3.5 0 0 0 1.098-.514q.46-.332.713-.798.26-.465.26-1.035a1.85 1.85 0 0 0-.229-.932 2.2 2.2 0 0 0-.648-.712 4.1 4.1 0 0 0-1.051-.514 11 11 0 0 0-1.415-.387q-.6-.118-.996-.245a2.4 2.4 0 0 1-.616-.285.9.9 0 0 1-.332-.355 1 1 0 0 1-.095-.45q0-.246.119-.474.118-.23.356-.404.229-.173.576-.276a3 3 0 0 1 .823-.104q.449 0 .805.127.364.127.617.333.253.204.394.473.143.26.143.538h1.462q0-.561-.245-1.044a2.5 2.5 0 0 0-.68-.852 3.2 3.2 0 0 0-1.074-.57 4.6 4.6 0 0 0-1.422-.205q-.736 0-1.352.197-.608.197-1.051.537a2.5 2.5 0 0 0-.688.8 2 2 0 0 0-.244.97q0 .53.236.933a2.2 2.2 0 0 0 .672.688q.426.3 1.028.514.608.212 1.343.363.6.119 1.003.269.403.142.649.316.245.174.347.387.103.205.103.466m4.639 2.268h1.501l1.407-8.18.087-.489.079.483 1.399 8.186h1.493l1.399-11.506h-1.383l-.829 7.918-.048.475-.087-.467-1.399-7.926h-1.272l-1.391 7.918-.087.475-.048-.459-.829-7.934h-1.391zm9.348-8.55V33.3h2.909v6.014H173.8v1.264h7.16v-1.264h-2.79v-7.286zm2.719-2.245q0 .357.214.593.22.238.663.238.435 0 .656-.238a.83.83 0 0 0 .221-.593q0-.197-.062-.363a.7.7 0 0 0-.19-.276.7.7 0 0 0-.261-.16 1 1 0 0 0-.364-.062q-.206 0-.371.063a.7.7 0 0 0-.261.159.74.74 0 0 0-.19.284q-.055.165-.055.355m10.234.174h-1.47v2.07h-2.244v1.13h2.244v4.648q0 .79.206 1.35.212.554.576.902.364.355.854.521.498.158 1.067.159a7.3 7.3 0 0 0 1.335-.127q.31-.055.569-.134.261-.088.443-.198l-.205-1.035-.348.079a15 15 0 0 1-.941.15 6 6 0 0 1-.49.024q-.325 0-.616-.08a1.24 1.24 0 0 1-.506-.276 1.26 1.26 0 0 1-.347-.513q-.127-.325-.127-.822v-4.648h3.256v-1.13h-3.256zm7.721 3.343v-4.86h-1.463v12.138h1.463v-6.21a2.8 2.8 0 0 1 .798-.831 2.46 2.46 0 0 1 1.406-.427q.482-.007.854.134.372.135.616.412.23.252.348.64.118.379.118.885v5.397h1.463v-5.381q0-.862-.213-1.486a2.74 2.74 0 0 0-.593-1.043 2.3 2.3 0 0 0-.941-.6 3.56 3.56 0 0 0-2.189-.048q-.45.142-.829.418a3 3 0 0 0-.451.388q-.214.213-.387.474"/><path stroke="#5a67d8" stroke-linecap="round" stroke-linejoin="round" stroke-width="1.517" d="M117.53 59.433v-5.396a1.35 1.35 0 0 0-.674-1.166l-4.72-2.698a1.35 1.35 0 0 0-1.349 0l-4.721 2.698a1.35 1.35 0 0 0-.674 1.166v5.396a1.35 1.35 0 0 0 .674 1.166l4.721 2.698a1.35 1.35 0 0 0 1.349 0l4.72-2.698a1.35 1.35 0 0 0 .674-1.166"/><path stroke="#5a67d8" stroke-linecap="round" stroke-linejoin="round" stroke-width="1.517" d="m105.574 53.335 5.887 3.405 5.887-3.406m-5.891 10.198v-6.797"/><path fill="#cbd5e0" d="M128.748 62.99q1.248 0 2.094-.499.854-.504 1.28-1.153l-.893-.696a3 3 0 0 1-1.012.838q-.607.317-1.39.317-.593 0-1.083-.222a2.5 2.5 0 0 1-.837-.608 2.8 2.8 0 0 1-.537-.838 3.9 3.9 0 0 1-.246-1.1v-.054h6.108v-.656a5.8 5.8 0 0 0-.228-1.66 3.8 3.8 0 0 0-.68-1.335 3.15 3.15 0 0 0-1.154-.877q-.687-.324-1.611-.324-.737 0-1.439.3-.695.3-1.241.861-.553.57-.885 1.391-.332.815-.332 1.85v.332q0 .892.301 1.65.3.76.837 1.313.538.553 1.288.862a4.4 4.4 0 0 0 1.66.308m-.189-7.666q.56 0 .964.206.41.206.679.537.269.333.419.79.15.45.15.846v.07h-4.6q.087-.591.301-1.042.22-.459.537-.775.316-.308.711-.466.395-.165.839-.166m5.862 3.16v.167q0 .918.23 1.715.236.79.68 1.375.442.585 1.074.916a3.1 3.1 0 0 0 1.455.333q.419 0 .781-.08.364-.078.672-.228a2.3 2.3 0 0 0 .451-.27q.213-.157.403-.355v4.062h1.462V54.28h-1.344l-.062.845a3 3 0 0 0-.357-.347 2.7 2.7 0 0 0-1.137-.56 3.6 3.6 0 0 0-.853-.096q-.822 0-1.471.324a3.14 3.14 0 0 0-1.082.901 4.1 4.1 0 0 0-.672 1.383 6.3 6.3 0 0 0-.23 1.754m1.463.167v-.166q0-.623.135-1.193a3.2 3.2 0 0 1 .434-1.011q.284-.435.727-.696.442-.261 1.051-.261.34 0 .624.087.292.079.538.23.236.15.426.354.198.199.348.443v4.22a3 3 0 0 1-.355.482 2 2 0 0 1-.451.364q-.237.135-.521.214-.286.078-.625.078-.609 0-1.051-.252a2.2 2.2 0 0 1-.72-.696 3.3 3.3 0 0 1-.425-1.004 5.2 5.2 0 0 1-.135-1.193m14.162 4.18h1.327v-8.55h-1.47v6.133a2.4 2.4 0 0 1-.301.513 1.8 1.8 0 0 1-.41.395 2.3 2.3 0 0 1-.672.324q-.387.111-.877.111-.419 0-.743-.111a1.17 1.17 0 0 1-.537-.387q-.222-.269-.332-.727t-.11-1.154V54.28h-1.463v5.082q0 .955.205 1.644.214.678.601 1.121.388.444.933.656.544.206 1.217.206.837 0 1.477-.348a3.1 3.1 0 0 0 1.068-.988zm9.704 0h1.525v-.126a4 4 0 0 1-.221-.83 5.5 5.5 0 0 1-.08-.908v-3.975q0-.72-.26-1.257a2.6 2.6 0 0 0-.711-.9 3.1 3.1 0 0 0-1.083-.53 4.8 4.8 0 0 0-1.352-.182 4.3 4.3 0 0 0-1.43.221 3.5 3.5 0 0 0-1.059.577 2.7 2.7 0 0 0-.68.814q-.229.45-.237.917h1.47q0-.269.127-.514.135-.254.371-.435a2 2 0 0 1 .577-.292q.348-.11.782-.11.466 0 .838.118.38.119.64.332.261.22.404.53.141.308.141.694v.672h-1.596a7 7 0 0 0-1.62.174q-.72.175-1.232.522a2.5 2.5 0 0 0-.798.885q-.278.53-.278 1.233 0 .536.206 1.004.213.457.601.79.38.339.924.537.553.197 1.233.198.418 0 .79-.087a4 4 0 0 0 .703-.238q.325-.15.593-.348.277-.196.499-.418.023.269.071.522.055.245.142.41m-2.584-1.113q-.427 0-.751-.112a1.5 1.5 0 0 1-.538-.307 1.24 1.24 0 0 1-.324-.458 1.6 1.6 0 0 1-.102-.586q0-.331.119-.593a1.3 1.3 0 0 1 .363-.45q.332-.268.893-.395.568-.135 1.327-.134h1.359v1.73q-.125.254-.347.49-.22.23-.521.411a3 3 0 0 1-.68.292 2.8 2.8 0 0 1-.798.112m6.915-11.025v1.272h2.908v9.602h-2.908v1.264h7.159v-1.264h-2.79V50.693zm15.173 9.87a1 1 0 0 1-.079.388 1.1 1.1 0 0 1-.23.332q-.244.244-.68.387a3.5 3.5 0 0 1-1.019.135q-.371 0-.751-.08a2.2 2.2 0 0 1-.687-.268 1.7 1.7 0 0 1-.53-.498 1.55 1.55 0 0 1-.236-.759h-1.463q0 .544.246 1.051.252.506.726.885.466.388 1.146.624.68.23 1.549.23.758 0 1.399-.182a3.5 3.5 0 0 0 1.098-.514q.459-.331.711-.798a2.1 2.1 0 0 0 .261-1.035 1.86 1.86 0 0 0-.228-.932 2.2 2.2 0 0 0-.649-.712 4.1 4.1 0 0 0-1.051-.513 11 11 0 0 0-1.415-.388 9 9 0 0 1-.995-.244 2.4 2.4 0 0 1-.616-.286.9.9 0 0 1-.332-.355 1 1 0 0 1-.095-.45q0-.246.118-.474.118-.23.356-.404.23-.172.577-.276.356-.103.821-.103.452 0 .806.126.365.127.617.333.252.204.395.473.143.26.143.538h1.461q0-.561-.245-1.043a2.5 2.5 0 0 0-.679-.853 3.3 3.3 0 0 0-1.075-.57 4.6 4.6 0 0 0-1.423-.205q-.733 0-1.351.197-.609.197-1.051.537a2.5 2.5 0 0 0-.687.8q-.246.45-.246.97 0 .531.238.933.236.396.672.688.426.3 1.027.514.608.213 1.344.363.599.118 1.003.27.403.142.647.315.246.174.348.387.104.206.104.466"/><path stroke="#5a67d8" stroke-linecap="round" stroke-linejoin="round" stroke-width="1.517" d="M117.53 81.686V76.29a1.35 1.35 0 0 0-.674-1.166l-4.72-2.698a1.35 1.35 0 0 0-1.349 0l-4.721 2.698a1.35 1.35 0 0 0-.674 1.166v5.396a1.35 1.35 0 0 0 .674 1.166l4.721 2.698a1.35 1.35 0 0 0 1.349 0l4.72-2.698a1.35 1.35 0 0 0 .674-1.166"/></svg>