<svg xmlns="http://www.w3.org/2000/svg" width="455" height="79" fill="none" viewBox="0 0 455 79"><rect width="444" height="99" y=".322" fill="#f9fafb" rx="5.097"/><path fill="#5a67d8" d="M16.373 26.322v-1.045h2.485v-4.919h-2.166v-1.044h3.313v5.963h2.357v1.045zm2.93-8.27q-.42 0-.662-.216-.242-.217-.242-.587 0-.382.242-.598.243-.23.663-.23t.662.23q.242.216.242.598 0 .37-.242.587t-.662.216m4.8 8.27v-7.008h1.146v1.338h.242l-.242.267q0-.828.497-1.274.497-.459 1.376-.459 1.058 0 1.682.65.625.65.625 1.771v4.715h-1.147v-4.587q0-.753-.408-1.147-.395-.408-1.083-.408-.714 0-1.134.433-.408.434-.408 1.25v4.459zm11.055 0q-.905 0-1.415-.484-.496-.485-.497-1.364v-4.116h-1.975v-1.044h1.975v-1.975h1.147v1.975h2.803v1.044h-2.803v4.116q0 .803.765.803h1.911v1.045zM18.896 44.424q-.714 0-1.249-.217a2.1 2.1 0 0 1-.84-.637 1.95 1.95 0 0 1-.37-.968h1.147a.9.9 0 0 0 .407.586q.344.216.905.216h.535q.675 0 1.007-.267a.92.92 0 0 0 .331-.74q0-.445-.306-.7-.293-.267-.879-.357l-.943-.153q-1.032-.178-1.542-.637-.496-.471-.497-1.363 0-.943.6-1.453.598-.522 1.796-.522h.484q1.006 0 1.618.471.611.473.74 1.274h-1.147a.82.82 0 0 0-.383-.522q-.305-.204-.828-.204h-.484q-.65 0-.956.242-.293.243-.293.727 0 .432.255.637.255.203.803.293l.943.152q1.134.18 1.643.663.523.484.523 1.402 0 .968-.624 1.529-.612.548-1.86.548zm8.621-.102q-.904 0-1.414-.484-.497-.485-.497-1.364V38.36h-1.975v-1.045h1.975V35.34h1.147v1.975h2.803v1.044h-2.803v4.116q0 .803.764.803h1.912v1.045zm4.468 0v-7.008h1.121v1.338h.268l-.37.828q0-1.134.485-1.708.496-.585 1.465-.586 1.108 0 1.758.701.663.688.663 1.873v.42h-1.147v-.318q0-.828-.408-1.261-.394-.447-1.134-.446-.726 0-1.147.446-.407.445-.407 1.261v4.46zm7.309 0v-1.045h2.485v-4.919h-2.167v-1.044h3.313v5.963h2.358v1.045zm2.93-8.27q-.42 0-.662-.216-.242-.217-.242-.587 0-.381.242-.599.242-.229.663-.229.42 0 .662.23.242.217.242.598 0 .37-.242.587t-.662.216m4.8 8.27v-7.008h1.146v1.338h.242l-.242.267q0-.828.497-1.274.497-.459 1.376-.459 1.058 0 1.682.65t.625 1.771v4.715h-1.147v-4.587q0-.753-.408-1.147-.395-.408-1.083-.408-.714 0-1.134.433-.408.434-.408 1.25v4.459zm8.519 2.293v-1.044h2.23q.535 0 .777-.243.255-.242.255-.751v-.892l.025-1.275h-.23l.218-.19q0 .764-.51 1.21t-1.364.446q-1.082 0-1.707-.701-.624-.714-.624-1.911v-1.478q0-1.199.624-1.899t1.707-.7q.854 0 1.364.445.51.446.51 1.21l-.217-.19h.217v-1.338h1.134v7.263q0 .942-.587 1.49-.573.549-1.605.548zm1.745-3.733q.714 0 1.122-.446t.408-1.236v-1.338q0-.79-.408-1.236t-1.121-.446q-.727 0-1.135.433-.395.434-.395 1.25V41.2q0 .816.395 1.249.408.433 1.134.433m-40.915 19.44v-1.045h2.485v-4.919h-2.166v-1.044h3.313v5.963h2.357v1.045zm2.93-8.27q-.42 0-.662-.216-.242-.217-.242-.587 0-.381.242-.599.243-.229.663-.229t.662.23q.242.216.242.598 0 .37-.242.587t-.662.216m4.8 8.27v-7.008h1.146v1.338h.242l-.242.267q0-.828.497-1.274.497-.459 1.376-.459 1.058 0 1.682.65.625.65.625 1.771v4.715h-1.147v-4.587q0-.753-.408-1.147-.395-.408-1.083-.408-.714 0-1.134.433-.408.434-.408 1.25v4.459zm11.055 0q-.905 0-1.415-.484-.496-.485-.497-1.364V56.36h-1.975v-1.045h1.975V53.34h1.147v1.975h2.803v1.044h-2.803v4.116q0 .803.765.803h1.911v1.045z"/><path fill="#4a5568" d="M47.023 26.322v-7.008h1.147v1.338h.242l-.242.267q0-.828.497-1.274.497-.459 1.376-.459 1.058 0 1.682.65t.625 1.771v4.715h-1.147v-4.587q0-.753-.408-1.147-.395-.408-1.083-.408-.714 0-1.134.433-.408.434-.408 1.25v4.459zm10.278.127q-1.21 0-1.937-.713-.726-.727-.726-1.963v-4.46h1.147v4.46q0 .79.408 1.236.408.435 1.108.434.714 0 1.122-.434.42-.445.42-1.236v-4.46h1.147v4.46q0 1.236-.74 1.963-.738.713-1.949.713m4.672-.127v-7.008h1.006v.84h.23l-.179.306q0-.585.306-.93.318-.345.854-.344.585 0 .904.433.32.434.319 1.224l-.344-.688h.535l-.242.305q0-.585.319-.93.331-.345.866-.344.663 0 1.02.497.369.498.369 1.313v5.326h-1.058v-5.34q0-.432-.19-.674-.18-.243-.536-.243a.68.68 0 0 0-.548.242q-.19.23-.191.663v5.352h-.917v-5.34q0-.445-.204-.674-.191-.243-.548-.243t-.535.242q-.18.23-.179.663v5.352zm15.522-5.224v-1.02h5.48v1.02zm0 3.058v-1.02h5.48v1.02zM101.5 28.36l1.019-3.962h1.657l-1.657 3.962zm1.529-7.262q-.42 0-.688-.268a.93.93 0 0 1-.267-.688q0-.408.267-.675a.94.94 0 0 1 .688-.28h.255q.408 0 .675.28a.9.9 0 0 1 .281.675q0 .42-.268.688a.93.93 0 0 1-.688.268zm-30.65 23.326q-.714 0-1.249-.217a2.1 2.1 0 0 1-.84-.637 1.95 1.95 0 0 1-.37-.968h1.147q.075.369.407.586.345.216.905.216h.535q.675 0 1.007-.267a.92.92 0 0 0 .331-.74q0-.445-.306-.7-.292-.267-.879-.357l-.943-.153q-1.032-.178-1.542-.637-.497-.471-.497-1.363 0-.943.6-1.453.597-.522 1.796-.522h.484q1.006 0 1.618.471.612.473.74 1.274h-1.148a.82.82 0 0 0-.382-.522q-.306-.204-.828-.204h-.484q-.65 0-.956.242-.293.243-.293.727 0 .432.255.637.255.203.803.293l.943.152q1.134.18 1.643.663.523.484.523 1.402 0 .968-.625 1.529-.61.548-1.86.548zM81 44.322q-.904 0-1.414-.484-.497-.485-.497-1.364V38.36h-1.975v-1.045h1.975V35.34h1.147v1.975h2.803v1.044h-2.803v4.116q0 .803.764.803h1.912v1.045zm4.468 0v-7.008h1.121v1.338h.268l-.37.828q0-1.134.484-1.708.498-.585 1.466-.586 1.109 0 1.758.701.663.688.663 1.873v.42H89.71v-.318q0-.828-.408-1.261-.395-.447-1.134-.446-.726 0-1.147.446-.408.445-.407 1.261v4.46zm14.949-5.225v-1.019h5.479v1.02zm0 3.059v-1.02h5.479v1.02zM139.7 46.36l1.02-3.963h1.656l-1.656 3.962zm1.53-7.264a.93.93 0 0 1-.689-.267.93.93 0 0 1-.267-.688q0-.408.267-.675a.94.94 0 0 1 .689-.28h.254q.408 0 .676.28.28.267.28.675a.93.93 0 0 1-.268.688.93.93 0 0 1-.688.267zM50.438 62.323q-.904 0-1.414-.484-.497-.485-.497-1.364V56.36h-1.975v-1.045h1.975V53.34h1.147v1.975h2.803v1.044h-2.803v4.116q0 .803.764.803h1.912v1.045zm6.876.102q-.84 0-1.453-.319a2.3 2.3 0 0 1-.955-.917q-.332-.612-.332-1.44v-1.86q0-.841.332-1.44.345-.6.955-.918.612-.318 1.453-.318.84 0 1.453.318.611.319.942.918.345.599.344 1.427v1.873q0 .828-.343 1.44-.332.599-.943.917-.612.32-1.453.319m0-1.02q.752 0 1.172-.42t.42-1.236v-1.86q0-.816-.42-1.236t-1.172-.42q-.739 0-1.172.42-.42.42-.42 1.236v1.86q0 .816.42 1.236.433.42 1.172.42m8.405.918q-.905 0-1.415-.484-.496-.485-.497-1.364V56.36h-1.974v-1.045h1.974V53.34h1.147v1.975h2.803v1.044h-2.803v4.116q0 .803.765.803h1.911v1.045zm6.264.127q-1.11 0-1.746-.56-.637-.574-.637-1.542 0-.981.637-1.542.637-.56 1.72-.56h2.167v-.701q0-.65-.395-.994-.382-.357-1.096-.357-.624 0-1.045.267-.42.255-.484.701h-1.147a2.02 2.02 0 0 1 .854-1.44q.738-.534 1.847-.535 1.21 0 1.912.625.7.624.7 1.694v4.817h-1.12v-1.338h-.192l.191-.191q0 .765-.599 1.21-.585.446-1.567.446m.28-.904q.816 0 1.338-.408t.523-1.045v-.994h-2.141q-.573 0-.905.319-.33.317-.331.866 0 .585.395.93.407.331 1.121.331m8.927.777a2.26 2.26 0 0 1-1.07-.242 1.74 1.74 0 0 1-.713-.688 2.07 2.07 0 0 1-.255-1.045v-6.282h-2.358V53.02H80.3v7.327q0 .433.242.688.242.242.65.242h2.23v1.045zm11.586-5.225v-1.019h5.479v1.02zm0 3.059v-1.02h5.479v1.02zm85.126 4.205 1.019-3.963h1.657l-1.657 3.962zm1.529-7.264q-.42 0-.688-.267a.93.93 0 0 1-.268-.688q0-.408.268-.675a.94.94 0 0 1 .688-.28h.255q.407 0 .675.28.28.267.28.675 0 .42-.267.688a.93.93 0 0 1-.688.267z"/><path fill="#e2e8f0" d="M95.49 26.45q-1.134 0-1.86-.587-.728-.585-.854-1.58h1.147q.064.548.471.854.408.293 1.109.293.802 0 1.197-.433.408-.434.408-1.224v-.904q0-.79-.408-1.224-.395-.433-1.185-.433-.497 0-.866.268-.37.255-.535.688h-1.147l.064-5.148h4.893v1.045h-3.785l-.038 3.096h.357l-.357.331q0-.599.471-.942.484-.345 1.287-.344 1.134-.013 1.759.7.637.702.637 1.963v.904q0 1.236-.726 1.963-.727.713-2.04.713m23.01 11.947 1.656-3.963h1.02l-1.02 3.963zm-2.931 0 1.657-3.963h1.019l-1.019 3.963zm10.482 6.052q-1.134 0-1.86-.586-.727-.585-.854-1.58h1.147q.063.548.471.854.408.293 1.109.293.802 0 1.197-.433.408-.434.408-1.224v-.904q0-.79-.408-1.224-.395-.432-1.185-.433-.497 0-.866.268-.37.255-.535.688h-1.147l.064-5.148h4.893v1.045H124.7l-.038 3.096h.357l-.357.331q0-.599.471-.942.484-.345 1.287-.344 1.134-.013 1.759.7.637.702.637 1.963v.904q0 1.236-.726 1.963-.727.713-2.039.713m7.857-6.052 1.019-3.963h1.657l-1.657 3.963zm-2.931 0 1.019-3.963h1.657l-1.657 3.963z"/><path fill="#f56565" d="M108.146 62.322v-7.008h1.146v1.338h.242l-.242.267q0-.828.497-1.274.498-.459 1.376-.459 1.058 0 1.682.65.625.65.625 1.771v4.715h-1.147v-4.587q0-.753-.408-1.147-.394-.408-1.083-.408-.714 0-1.134.433-.408.434-.408 1.25v4.459zm10.277.127q-1.21 0-1.936-.713-.727-.727-.727-1.963v-4.46h1.147v4.46q0 .79.408 1.236.408.434 1.108.434.714 0 1.122-.434.42-.445.42-1.236v-4.46h1.147v4.46q0 1.236-.739 1.963-.74.713-1.95.713m4.672-.127v-7.008h1.006v.84h.23l-.179.306q0-.585.306-.93.319-.344.854-.344.586 0 .905.433.318.434.318 1.224l-.344-.688h.535l-.242.305q0-.585.319-.93.331-.344.866-.344.663 0 1.02.497.369.497.369 1.313v5.326H128v-5.34q0-.432-.191-.675-.178-.241-.535-.242a.68.68 0 0 0-.548.242q-.19.23-.191.663v5.352h-.917v-5.34q0-.445-.204-.675-.191-.241-.548-.242-.357 0-.535.242-.179.23-.179.663v5.352zm17.701-1.21v-2.485h-2.433v-1.02h2.433v-2.484h1.122v2.484h2.433v1.02h-2.433v2.484zm15.625 1.312q-.714 0-1.249-.217a2.14 2.14 0 0 1-.841-.637 1.94 1.94 0 0 1-.369-.968h1.146a.9.9 0 0 0 .408.586q.345.216.905.216h.535q.675 0 1.007-.267a.92.92 0 0 0 .331-.74q0-.445-.306-.7-.293-.267-.879-.357l-.943-.153q-1.032-.178-1.542-.637-.497-.471-.497-1.363 0-.943.599-1.453.599-.522 1.797-.522h.484q1.006 0 1.618.471.612.473.739 1.274h-1.147a.8.8 0 0 0-.382-.522q-.306-.204-.828-.204h-.484q-.65 0-.956.242-.293.243-.293.727 0 .432.255.637.255.203.803.293l.943.152q1.133.18 1.643.663.523.484.523 1.402 0 .968-.625 1.529-.611.548-1.86.548zm8.621-.102q-.904 0-1.414-.484-.497-.485-.497-1.364V56.36h-1.975v-1.045h1.975V53.34h1.147v1.975h2.803v1.044h-2.803v4.116q0 .803.764.803h1.912v1.045zm4.468 0v-7.008h1.121v1.338h.268l-.37.828q0-1.134.484-1.708.497-.585 1.466-.586 1.108 0 1.758.701.663.688.663 1.873v.42h-1.147v-.318q0-.828-.408-1.261-.394-.447-1.134-.446-.726 0-1.147.446-.407.445-.407 1.261v4.46zm-62.537 2.293h68.768v.638h-68.768z"/><path fill="url(#paint0_linear_2545_2944)" fill-opacity=".6" d="M0 .322h443.58v80H0z"/><rect width="254" height="43" x="200.5" y="23.822" fill="#f9fafb" rx="3.5"/><rect width="254" height="43" x="200.5" y="23.822" stroke="#2d3748" rx="3.5"/><path fill="#4a5568" d="M210.065 39.254q0-1.343.348-2.468a7.7 7.7 0 0 1 1.002-2.078h.738q-.255.352-.479.867-.22.51-.387 1.125-.167.611-.263 1.264a9 9 0 0 0-.092 1.29q0 .845.163 1.715.164.87.441 1.616.276.746.617 1.214h-.738a7.7 7.7 0 0 1-1.002-2.074 8.4 8.4 0 0 1-.348-2.471m4.163-4.205v7.273h-.838v-7.273zm3.751 7.386q-.738 0-1.296-.351a2.4 2.4 0 0 1-.867-.984q-.309-.632-.309-1.477 0-.852.309-1.488.314-.636.867-.987.558-.352 1.296-.352t1.293.352q.557.351.866.987.312.636.313 1.488 0 .845-.313 1.477a2.36 2.36 0 0 1-.866.984q-.555.351-1.293.351m0-.752q.561 0 .923-.288.363-.288.537-.757.174-.468.174-1.015t-.174-1.02a1.7 1.7 0 0 0-.537-.763q-.362-.291-.923-.291t-.923.291-.536.764a2.9 2.9 0 0 0-.174 1.019q0 .546.174 1.016.174.468.536.756t.923.288m5.967.752q-.768 0-1.321-.362a2.36 2.36 0 0 1-.852-.998q-.299-.635-.299-1.452 0-.831.306-1.467.309-.639.859-.998.553-.362 1.293-.362.575 0 1.037.213.46.213.756.597.294.383.366.895h-.838a1.3 1.3 0 0 0-.426-.66q-.327-.292-.881-.292-.49 0-.86.256a1.67 1.67 0 0 0-.571.714 2.6 2.6 0 0 0-.203 1.075q0 .633.199 1.101.203.47.568.728.37.26.867.26.326 0 .593-.114a1.23 1.23 0 0 0 .714-.838h.838a1.95 1.95 0 0 1-.352.87q-.277.385-.735.61a2.4 2.4 0 0 1-1.058.224m4.975.015q-.519 0-.941-.196a1.6 1.6 0 0 1-.671-.571q-.249-.376-.249-.91 0-.468.185-.76a1.3 1.3 0 0 1 .493-.461q.31-.166.682-.249.376-.084.757-.135.497-.063.806-.096.313-.035.454-.117.146-.081.146-.284v-.028q0-.526-.288-.817-.284-.291-.863-.291-.6 0-.941.263t-.479.56l-.796-.283q.213-.498.569-.775.358-.28.781-.39.426-.114.838-.114.262 0 .604.064.344.06.664.252.323.192.536.58.213.386.213 1.036v3.594h-.838v-.739h-.043a1.5 1.5 0 0 1-.284.38q-.198.203-.529.345-.33.142-.806.142m.128-.753q.497 0 .838-.196a1.33 1.33 0 0 0 .696-1.154v-.767q-.054.065-.234.117a4 4 0 0 1-.412.09 20 20 0 0 1-.803.106 3.2 3.2 0 0 0-.611.138 1.05 1.05 0 0 0-.454.28q-.171.186-.171.505 0 .436.323.66.327.22.828.22m4.74-6.648v7.273h-.838v-7.273zm8.807 1.818-2.017 5.455h-.852l-2.017-5.455h.909l1.506 4.347h.057l1.505-4.347zm2.546 5.583q-.52 0-.941-.196a1.6 1.6 0 0 1-.672-.571q-.248-.376-.248-.91 0-.468.185-.76a1.3 1.3 0 0 1 .493-.461q.309-.166.682-.249.376-.084.756-.135.498-.063.806-.096.313-.035.455-.117.146-.081.146-.284v-.028q0-.526-.288-.817-.284-.291-.863-.291-.6 0-.941.263t-.479.56l-.796-.283q.214-.498.568-.775.359-.28.782-.39.426-.114.838-.114.263 0 .603.064.345.06.664.252.324.192.537.58.213.386.213 1.036v3.594h-.838v-.739h-.043a1.5 1.5 0 0 1-.284.38q-.2.203-.529.345-.33.142-.806.142m.128-.753q.496 0 .838-.196a1.33 1.33 0 0 0 .696-1.154v-.767q-.054.065-.235.117a4 4 0 0 1-.412.09 19 19 0 0 1-.802.106 3.2 3.2 0 0 0-.611.138 1.06 1.06 0 0 0-.455.28q-.17.186-.17.505 0 .436.323.66.327.22.828.22m3.901.625v-5.455h.81v.824h.057q.149-.405.54-.657.39-.252.88-.252a9 9 0 0 1 .441.014v.852a3 3 0 0 0-.196-.032 2 2 0 0 0-.316-.024q-.398 0-.71.167a1.23 1.23 0 0 0-.668 1.111v3.452zm3.721 0v-5.455h.838v5.455zm.426-6.364a.6.6 0 0 1-.422-.167.54.54 0 0 1-.174-.401q0-.234.174-.401a.6.6 0 0 1 .422-.167q.246 0 .419.167a.53.53 0 0 1 .178.401.53.53 0 0 1-.178.401.58.58 0 0 1-.419.167m3.552 6.492a2.2 2.2 0 0 1-.941-.196 1.6 1.6 0 0 1-.671-.571q-.249-.376-.249-.91 0-.468.185-.76.185-.294.494-.461.309-.166.681-.249.377-.084.757-.135.497-.063.806-.096.312-.035.455-.117.145-.081.145-.284v-.028q0-.526-.288-.817-.284-.291-.862-.291-.601 0-.941.263-.342.263-.48.56l-.795-.283q.213-.498.568-.775.358-.28.781-.39.427-.114.838-.114.263 0 .604.064.344.06.664.252.323.192.536.58.213.386.213 1.036v3.594h-.838v-.739h-.042a1.5 1.5 0 0 1-.285.38q-.199.203-.529.345t-.806.142m.128-.753q.497 0 .838-.196a1.33 1.33 0 0 0 .696-1.154v-.767q-.053.065-.234.117a4 4 0 0 1-.412.09 19 19 0 0 1-.803.106 3.2 3.2 0 0 0-.611.138 1.05 1.05 0 0 0-.454.28q-.171.186-.171.505 0 .436.324.66.326.22.827.22m4.015.625v-7.273h.839v2.685h.071q.091-.142.255-.363.168-.223.476-.397.312-.178.845-.178.69 0 1.215.345t.82.976q.295.633.295 1.492 0 .866-.295 1.502a2.3 2.3 0 0 1-.817.98q-.522.344-1.204.344-.525 0-.841-.174a1.6 1.6 0 0 1-.487-.4 5 5 0 0 1-.262-.377h-.1v.838zm.824-2.728q0 .619.181 1.09.182.47.53.736.348.263.852.263.525 0 .877-.277.355-.28.533-.753.18-.476.181-1.059 0-.575-.178-1.036a1.6 1.6 0 0 0-.529-.736q-.351-.273-.884-.273-.512 0-.86.26-.348.255-.525.717a3 3 0 0 0-.178 1.068m6.112-4.545v7.273h-.838v-7.273zm3.822 7.386q-.789 0-1.36-.348a2.34 2.34 0 0 1-.877-.98q-.306-.632-.306-1.47t.306-1.477q.309-.643.859-1.002.554-.362 1.293-.362.426 0 .841.142t.757.462q.34.316.543.838.202.522.202 1.285v.356h-4.204v-.725h3.352a1.8 1.8 0 0 0-.185-.824 1.4 1.4 0 0 0-.518-.571 1.45 1.45 0 0 0-.788-.21q-.501 0-.867.249a1.64 1.64 0 0 0-.557.639 1.9 1.9 0 0 0-.196.845v.483q0 .618.213 1.047.217.427.6.65.384.22.892.22.33 0 .596-.092.27-.095.466-.284.195-.191.301-.476l.81.228a1.8 1.8 0 0 1-.43.724 2.1 2.1 0 0 1-.745.483q-.444.17-.998.17m5.323-3.181q0 1.342-.352 2.471a7.6 7.6 0 0 1-.998 2.074h-.738q.255-.351.476-.866.224-.511.39-1.123.168-.615.26-1.267a9 9 0 0 0 .095-1.29 9.3 9.3 0 0 0-.163-1.715 10 10 0 0 0-.44-1.615q-.278-.746-.618-1.215h.738q.65.948.998 2.078.352 1.125.352 2.468m8.765-1.165-.795.213a1.3 1.3 0 0 0-.15-.37.76.76 0 0 0-.319-.294q-.213-.117-.583-.117-.5 0-.87.23-.37.228-.422.58-.053.308.142.493t.653.302l.782.199q.702.18 1.001.543.302.359.206.934a1.64 1.64 0 0 1-.408.838q-.33.369-.846.582a3 3 0 0 1-1.147.213q-.841 0-1.328-.362-.486-.365-.518-1.058l.838-.199q.032.436.312.66.285.22.796.22.586 0 .976-.248.391-.252.444-.604a.54.54 0 0 0-.113-.479q-.164-.192-.569-.288l-.866-.213q-.725-.18-1.016-.554-.287-.372-.191-.937.078-.462.397-.817.324-.355.81-.557a2.8 2.8 0 0 1 1.065-.203q.81 0 1.211.355.402.352.508.938m3.932-1.222-.114.71h-2.826l.113-.71zm-1.79-1.307h.838l-.866 5.2q-.057.354.018.532a.42.42 0 0 0 .234.234q.16.057.344.057.14 0 .228-.014l.142-.029.057.753a2.2 2.2 0 0 1-.654.1q-.355 0-.667-.153a1.06 1.06 0 0 1-.48-.465q-.167-.312-.089-.788zm2.142 6.762.909-5.455h.809l-.142.824h.057q.213-.405.65-.657.436-.252.927-.252a9 9 0 0 1 .44.014l-.142.852a2 2 0 0 0-.192-.032 2 2 0 0 0-.319-.024 1.64 1.64 0 0 0-1.3.621q-.227.287-.291.657l-.568 3.452zm3.74 0 .909-5.455h.838l-.909 5.455zm1.584-6.378a.6.6 0 0 1-.423-.167.54.54 0 0 1-.174-.401q0-.235.174-.401a.6.6 0 0 1 .423-.167q.245 0 .419.166a.53.53 0 0 1 .177.402q0 .234-.177.401a.58.58 0 0 1-.419.167m2.167 3.096-.54 3.282h-.838l.909-5.455h.81l-.142.852h.071q.255-.415.692-.667.437-.255 1.055-.256.546 0 .923.227.38.225.536.682.16.455.046 1.15l-.582 3.467h-.838l.568-3.41q.107-.639-.167-1-.27-.363-.856-.363a1.64 1.64 0 0 0-.749.174q-.34.174-.579.508a2 2 0 0 0-.319.81m6.332 5.44q-.61 0-1.022-.155a1.78 1.78 0 0 1-1.037-.938l.752-.469q.086.15.221.341.135.195.408.338.277.145.778.145.657 0 1.15-.32.494-.319.611-1l.171-1.109h-.072q-.113.15-.316.37a1.9 1.9 0 0 1-.543.387q-.34.166-.873.167-.664 0-1.137-.313-.472-.312-.678-.909-.202-.596-.06-1.449a3.9 3.9 0 0 1 .532-1.46q.398-.624.98-.965.583-.345 1.272-.345.532 0 .816.178.288.173.419.398.132.22.199.362h.086l.142-.867h.809l-.923 5.611q-.117.703-.508 1.143-.39.444-.959.65-.567.21-1.218.21m.441-2.996q.5 0 .891-.231.395-.23.653-.664a2.9 2.9 0 0 0 .359-1.037q.1-.59-.014-1.04a1.28 1.28 0 0 0-.43-.707q-.313-.255-.82-.256-.537 0-.927.27-.387.27-.629.724-.241.455-.333 1.009-.093.569.007 1.005.099.433.405.682.309.245.838.245m11.179-3.395-.796.213a1.2 1.2 0 0 0-.149-.37.76.76 0 0 0-.32-.294q-.213-.117-.582-.117-.501 0-.87.23-.369.228-.423.58-.053.308.142.493.196.185.654.302l.781.199q.703.18 1.002.543.301.359.205.934a1.64 1.64 0 0 1-.408.838q-.33.369-.845.582a3 3 0 0 1-1.147.213q-.842 0-1.328-.362-.487-.365-.519-1.058l.838-.199q.033.436.313.66.284.22.795.22.586 0 .977-.248.39-.252.444-.604a.55.55 0 0 0-.114-.479q-.163-.192-.568-.288l-.867-.213q-.724-.18-1.015-.554-.288-.372-.192-.937.078-.462.398-.817.323-.355.809-.557a2.8 2.8 0 0 1 1.066-.203q.81 0 1.211.355.401.352.508.938m3.932-1.222-.114.71h-2.827l.114-.71zm-1.79-1.307h.838l-.867 5.2q-.056.354.018.532a.42.42 0 0 0 .235.234q.16.057.344.057.138 0 .227-.014l.142-.029.057.753a2.2 2.2 0 0 1-.653.1 1.5 1.5 0 0 1-.668-.153 1.06 1.06 0 0 1-.479-.465q-.168-.312-.089-.788zm2.141 6.762.909-5.455h.81l-.142.824h.057a1.63 1.63 0 0 1 .65-.657q.437-.252.926-.252a9 9 0 0 1 .441.014l-.142.852a3 3 0 0 0-.192-.032 2 2 0 0 0-.32-.024 1.64 1.64 0 0 0-1.299.621q-.228.287-.292.657l-.568 3.452zM209.632 56.322v-7.273h4.901v1.268h-3.363v1.733h3.111v1.268h-3.111v1.736h3.377v1.268zm6.095 0v-5.455h1.466v.952h.057q.15-.508.501-.767.351-.263.81-.263a2.3 2.3 0 0 1 .475.053v1.343a2.7 2.7 0 0 0-.639-.082 1.2 1.2 0 0 0-.596.146 1.07 1.07 0 0 0-.412.397q-.15.255-.149.59v3.086zm4.092 0v-5.455h1.466v.952h.057q.148-.508.501-.767.351-.263.809-.263a2.3 2.3 0 0 1 .476.053v1.343a2 2 0 0 0-.295-.057 3 3 0 0 0-.344-.025q-.334 0-.597.146a1.1 1.1 0 0 0-.412.397q-.149.255-.149.59v3.086zm6.302.106q-.828 0-1.431-.351a2.4 2.4 0 0 1-.927-.987q-.327-.636-.327-1.474 0-.846.327-1.477a2.4 2.4 0 0 1 .927-.988q.603-.354 1.431-.355.827 0 1.427.355.604.352.931.987.327.633.327 1.478 0 .838-.327 1.474-.327.63-.931.987-.6.351-1.427.351m.007-1.172q.376 0 .629-.213.252-.215.38-.59.13-.371.131-.848 0-.476-.131-.849a1.33 1.33 0 0 0-.38-.59.93.93 0 0 0-.629-.216.96.96 0 0 0-.639.217q-.256.215-.387.59a2.6 2.6 0 0 0-.128.848q0 .476.128.849.13.372.387.59a.97.97 0 0 0 .639.212m3.661 1.066v-5.455h1.467v.952h.057q.149-.508.5-.767a1.32 1.32 0 0 1 .81-.263 2.3 2.3 0 0 1 .476.053v1.343a2 2 0 0 0-.295-.057 3 3 0 0 0-.344-.025 1.2 1.2 0 0 0-.597.146 1.07 1.07 0 0 0-.561.987v3.086zm4.976.092a.83.83 0 0 1-.603-.248.83.83 0 0 1-.249-.604q0-.348.249-.597a.83.83 0 0 1 .603-.248.83.83 0 0 1 .597.248q.256.249.256.597 0 .234-.121.43a.9.9 0 0 1-.309.309.8.8 0 0 1-.423.113m0-3.82a.83.83 0 0 1-.603-.25.82.82 0 0 1-.249-.603q0-.348.249-.593a.83.83 0 0 1 .603-.249.83.83 0 0 1 .597.249q.256.244.256.593a.8.8 0 0 1-.121.433.9.9 0 0 1-.309.305.8.8 0 0 1-.423.114m11.036-1.272h-.88a1.83 1.83 0 0 0-.743-1.15 2 2 0 0 0-.607-.3 2.4 2.4 0 0 0-.696-.099q-.66 0-1.197.334-.533.334-.848.984-.313.65-.313 1.594t.313 1.595q.315.65.848.983.537.334 1.197.334.363 0 .696-.1.334-.098.607-.294a1.87 1.87 0 0 0 .743-1.154h.88a2.9 2.9 0 0 1-.362.998 2.73 2.73 0 0 1-1.53 1.214q-.483.16-1.034.16-.93 0-1.655-.454t-1.14-1.293-.415-1.989.415-1.988 1.14-1.293 1.655-.454q.55 0 1.034.16.486.159.877.468.39.306.653.746.263.437.362.998m2.915 5.128q-.518 0-.941-.196a1.6 1.6 0 0 1-.671-.571q-.249-.376-.249-.91 0-.468.185-.76a1.3 1.3 0 0 1 .493-.461q.31-.166.682-.249.376-.084.757-.135.497-.063.806-.096.313-.035.454-.117.146-.081.146-.284v-.028q0-.526-.288-.817-.284-.291-.863-.291-.6 0-.941.263t-.479.56l-.796-.283q.213-.498.569-.775.358-.28.781-.39.426-.114.838-.114.262 0 .604.064.344.06.664.252.323.192.536.58.213.386.213 1.036v3.594h-.838v-.739h-.043a1.5 1.5 0 0 1-.284.38q-.198.203-.529.345-.33.142-.806.142m.128-.753q.497 0 .838-.196a1.33 1.33 0 0 0 .696-1.154v-.767q-.054.065-.235.117a4 4 0 0 1-.411.09 20 20 0 0 1-.803.106 3.2 3.2 0 0 0-.611.138 1.05 1.05 0 0 0-.454.28q-.171.186-.171.505 0 .436.323.66.327.22.828.22m4.74-2.657v3.282h-.838v-5.455h.809v.852h.071q.192-.415.583-.667.39-.256 1.008-.256.554 0 .97.227.415.225.646.682.231.455.231 1.15v3.467h-.838v-3.41q0-.642-.334-1-.334-.363-.916-.363-.402 0-.718.174a1.24 1.24 0 0 0-.493.508q-.181.333-.181.81m5.849 0v3.282h-.838v-5.455h.81v.852h.071q.192-.415.582-.667.391-.256 1.009-.256.553 0 .969.227.416.225.647.682.23.455.23 1.15v3.467h-.838v-3.41q0-.642-.334-1-.333-.363-.916-.363-.4 0-.717.174a1.25 1.25 0 0 0-.494.508q-.18.333-.181.81m7.228 3.395q-.74 0-1.296-.351a2.4 2.4 0 0 1-.867-.984q-.309-.632-.309-1.477 0-.852.309-1.488.312-.636.867-.987.557-.352 1.296-.352.738 0 1.292.352.558.351.867.987.312.636.312 1.488 0 .845-.312 1.477-.309.633-.867.984-.554.351-1.292.351m0-.752q.561 0 .923-.288t.536-.757.174-1.015-.174-1.02a1.7 1.7 0 0 0-.536-.763q-.362-.291-.923-.291t-.924.291-.536.764a2.9 2.9 0 0 0-.174 1.019q0 .546.174 1.016.174.468.536.756t.924.288m6.123-4.816v.71h-2.827v-.71zm-2.003-1.307h.838v5.2q0 .355.103.532a.53.53 0 0 0 .27.234q.166.057.351.057.139 0 .228-.014l.142-.029.17.753a2 2 0 0 1-.238.064 1.8 1.8 0 0 1-.387.036q-.356 0-.696-.153a1.4 1.4 0 0 1-.561-.465q-.22-.312-.22-.788zm6.076 6.762v-5.455h.838v5.455zm.426-6.364a.6.6 0 0 1-.423-.167.54.54 0 0 1-.174-.401q0-.234.174-.401a.6.6 0 0 1 .423-.167q.245 0 .419.167a.53.53 0 0 1 .178.401q0 .234-.178.401a.58.58 0 0 1-.419.167m1.947 6.364v-5.455h.81v.852h.071q.17-.436.55-.678.38-.245.913-.245.54 0 .898.245a1.6 1.6 0 0 1 .565.678h.057q.209-.422.628-.67.418-.253 1.005-.253.732 0 1.197.458.465.455.465 1.417v3.65h-.838v-3.65q0-.603-.33-.863-.33-.258-.778-.259-.576 0-.891.348-.316.344-.316.874v3.55h-.853v-3.735q0-.465-.302-.75-.302-.287-.777-.287-.327 0-.611.174a1.3 1.3 0 0 0-.455.483q-.17.306-.17.707v3.409zm8.691 2.045v-7.5h.81v.867h.099q.093-.142.256-.363.167-.223.476-.397.312-.178.845-.178.689 0 1.215.345.525.345.82.976.294.633.295 1.492 0 .866-.295 1.502a2.33 2.33 0 0 1-.817.98q-.522.344-1.204.344-.525 0-.841-.174a1.6 1.6 0 0 1-.487-.4 6 6 0 0 1-.263-.377h-.071v2.883zm.824-4.773q0 .619.181 1.09.181.47.529.736.349.263.853.263.525 0 .877-.277.355-.28.533-.753.18-.476.181-1.059 0-.575-.178-1.036a1.6 1.6 0 0 0-.529-.736q-.351-.273-.884-.273-.512 0-.86.26-.348.255-.525.717a2.9 2.9 0 0 0-.178 1.068m6.108-4.545v7.273h-.838v-7.273zm1.535 7.273v-5.455h.838v5.455zm.426-6.364a.6.6 0 0 1-.422-.167.54.54 0 0 1-.174-.401q0-.234.174-.401a.6.6 0 0 1 .422-.167q.245 0 .419.167a.53.53 0 0 1 .178.401.53.53 0 0 1-.178.401.58.58 0 0 1-.419.167m4.163 6.477q-.767 0-1.321-.362a2.36 2.36 0 0 1-.852-.998q-.298-.635-.298-1.452 0-.831.305-1.467.309-.639.859-.998.554-.362 1.293-.362.575 0 1.037.213t.756.597q.296.383.366.895h-.838a1.3 1.3 0 0 0-.426-.66q-.327-.292-.881-.292a1.47 1.47 0 0 0-.859.256 1.66 1.66 0 0 0-.572.714q-.202.458-.202 1.075 0 .633.198 1.101.203.47.569.728.37.26.866.26.327 0 .593-.114a1.22 1.22 0 0 0 .714-.838h.838a1.94 1.94 0 0 1-1.087 1.48q-.454.224-1.058.224m3.37-.113v-5.455h.838v5.455zm.426-6.364a.6.6 0 0 1-.422-.167.54.54 0 0 1-.174-.401q0-.234.174-.401a.6.6 0 0 1 .422-.167q.245 0 .419.167a.53.53 0 0 1 .178.401.53.53 0 0 1-.178.401.58.58 0 0 1-.419.167m4.319.91v.71h-2.826v-.71zm-2.003-1.308h.839v5.2q0 .355.103.532a.54.54 0 0 0 .269.234q.168.057.352.057.138 0 .227-.014l.142-.029.171.753a2 2 0 0 1-.238.064 1.8 1.8 0 0 1-.387.036q-.356 0-.696-.153a1.4 1.4 0 0 1-.561-.465q-.22-.312-.221-.788zm4.219-.511v7.273h-.838v-7.273zm2.075 9.318a1.8 1.8 0 0 1-.611-.1l.213-.738q.306.078.54.057a.65.65 0 0 0 .416-.21q.184-.184.337-.6l.156-.426-2.017-5.483h.909l1.506 4.347h.057l1.505-4.347h.909l-2.315 6.25a2.4 2.4 0 0 1-.387.7 1.46 1.46 0 0 1-.536.415q-.302.135-.682.135m10.055-1.932q-.767 0-1.321-.362a2.36 2.36 0 0 1-.852-.998q-.299-.635-.299-1.452 0-.831.306-1.467.309-.639.859-.998.554-.362 1.293-.362.575 0 1.037.213t.756.597q.296.383.366.895h-.838a1.3 1.3 0 0 0-.426-.66q-.327-.292-.881-.292a1.47 1.47 0 0 0-.859.256 1.66 1.66 0 0 0-.572.714q-.202.458-.202 1.075 0 .633.198 1.101.203.47.569.728.37.26.866.26.327 0 .593-.114a1.22 1.22 0 0 0 .714-.838h.838a1.94 1.94 0 0 1-1.087 1.48 2.4 2.4 0 0 1-1.058.224m5.586 0q-.739 0-1.296-.351a2.4 2.4 0 0 1-.867-.984q-.309-.632-.309-1.477 0-.852.309-1.488.313-.636.867-.987.557-.352 1.296-.352.738 0 1.293.352.557.351.866.987.313.636.313 1.488 0 .845-.313 1.477a2.36 2.36 0 0 1-.866.984q-.555.351-1.293.351m0-.752q.561 0 .923-.288.363-.288.536-.757.174-.468.174-1.015t-.174-1.02a1.7 1.7 0 0 0-.536-.763q-.362-.291-.923-.291t-.923.291a1.7 1.7 0 0 0-.537.764 2.9 2.9 0 0 0-.174 1.019q0 .546.174 1.016.174.468.537.756.362.288.923.288m4.589-2.642v3.28h-.838v-5.454h.81v.852h.071q.191-.415.582-.667.39-.256 1.008-.256.555 0 .97.227.415.225.646.682.231.455.231 1.15v3.467h-.838v-3.41q0-.642-.334-1-.334-.363-.916-.363-.402 0-.717.174a1.24 1.24 0 0 0-.494.508q-.181.333-.181.81m9.276-2.174-2.017 5.455h-.852l-2.017-5.455h.909l1.506 4.347h.057l1.505-4.347zm3.198 5.568q-.788 0-1.36-.348a2.34 2.34 0 0 1-.877-.98q-.306-.632-.305-1.47 0-.838.305-1.477.309-.643.859-1.002.555-.362 1.293-.362.426 0 .842.142.415.142.756.462.34.316.543.838t.203 1.285v.356h-4.205v-.725h3.352a1.8 1.8 0 0 0-.184-.824 1.4 1.4 0 0 0-.519-.571 1.45 1.45 0 0 0-.788-.21q-.501 0-.867.249a1.64 1.64 0 0 0-.557.639 1.9 1.9 0 0 0-.195.845v.483q0 .618.213 1.047.216.427.6.65.384.22.891.22.33 0 .597-.092.27-.096.465-.284.195-.191.302-.476l.809.228a1.8 1.8 0 0 1-.429.724q-.302.309-.746.483-.444.17-.998.17m3.534-.113v-5.455h.809v.824h.057q.148-.405.54-.657.39-.252.88-.252a9 9 0 0 1 .441.014v.852a3 3 0 0 0-.195-.032 2 2 0 0 0-.317-.024q-.397 0-.71.167a1.26 1.26 0 0 0-.49.454q-.177.287-.177.657v3.452zm6.434-5.455v.71h-2.826v-.71zm-2.003-1.307h.838v5.2q0 .355.103.532a.53.53 0 0 0 .27.234q.168.057.352.057.138 0 .227-.014l.142-.029.171.753a2 2 0 0 1-.238.064 1.8 1.8 0 0 1-.387.036q-.356 0-.696-.153a1.4 1.4 0 0 1-.561-.465q-.22-.312-.221-.788zm8.449 1.307v.71h-2.827v-.71zm-2.003-1.307h.838v5.2q0 .355.103.532a.53.53 0 0 0 .27.234q.167.057.351.057.139 0 .227-.014l.143-.029.17.753a2 2 0 0 1-.238.064 1.8 1.8 0 0 1-.387.036q-.356 0-.696-.153a1.4 1.4 0 0 1-.561-.465q-.22-.312-.22-.788zm3.803 8.807a1.8 1.8 0 0 1-.611-.1l.213-.738q.306.078.54.057a.65.65 0 0 0 .415-.21q.185-.184.338-.6l.156-.426-2.017-5.483h.909l1.506 4.347h.057l1.505-4.347h.909l-2.315 6.25a2.4 2.4 0 0 1-.387.7 1.46 1.46 0 0 1-.536.415q-.302.135-.682.135m5.027 0v-7.5h.809v.867h.1q.091-.142.255-.363.168-.223.476-.397.313-.178.845-.178.69 0 1.215.345t.82.976q.295.633.295 1.492 0 .866-.295 1.502a2.3 2.3 0 0 1-.817.98q-.522.344-1.203.344-.526 0-.842-.174a1.6 1.6 0 0 1-.487-.4 5 5 0 0 1-.262-.377h-.071v2.883zm.823-4.773q0 .619.182 1.09.18.47.529.736.348.263.852.263.526 0 .877-.277.355-.28.533-.753.18-.476.181-1.059 0-.575-.178-1.036a1.6 1.6 0 0 0-.529-.736q-.351-.273-.884-.273-.511 0-.859.26-.349.255-.526.717a3 3 0 0 0-.178 1.068m7.557 2.841q-.788 0-1.36-.348a2.34 2.34 0 0 1-.877-.98q-.305-.632-.305-1.47t.305-1.477q.309-.643.859-1.002.555-.362 1.293-.362.426 0 .842.142t.756.462q.34.316.543.838t.203 1.285v.356h-4.205v-.725h3.353a1.8 1.8 0 0 0-.185-.824 1.4 1.4 0 0 0-.519-.571 1.45 1.45 0 0 0-.788-.21 1.5 1.5 0 0 0-.866.249 1.63 1.63 0 0 0-.558.639 1.9 1.9 0 0 0-.195.845v.483q0 .618.213 1.047.216.427.6.65.384.22.891.22.33 0 .597-.092.27-.096.465-.284.195-.191.302-.476l.81.228a1.8 1.8 0 0 1-.43.724q-.302.309-.746.483-.443.17-.998.17m6.062-5.113v-.64q0-.291.103-.617.107-.33.305-.636a2.3 2.3 0 0 1 .487-.536l.454.37a5 5 0 0 0-.39.667 1.7 1.7 0 0 0-.163.738v.654zm6.14.767-.753.213a1.4 1.4 0 0 0-.209-.366q-.135-.18-.37-.298a1.34 1.34 0 0 0-.6-.117q-.501 0-.834.23-.331.228-.331.58 0 .312.228.493.227.18.71.302l.81.199q.731.178 1.09.543.358.362.358.934 0 .468-.269.838-.267.369-.746.582-.48.213-1.115.213-.835 0-1.382-.362t-.692-1.058l.795-.199q.114.441.43.66.32.22.835.22.585 0 .93-.248.348-.252.348-.604a.63.63 0 0 0-.199-.475q-.199-.196-.611-.291l-.909-.214q-.749-.177-1.101-.55-.348-.377-.348-.941 0-.462.26-.817.263-.355.713-.557a2.5 2.5 0 0 1 1.03-.203q.81 0 1.271.355.466.356.661.938m3.733-1.222v.71h-2.827v-.71zm-2.003-1.307h.838v5.2q0 .355.103.532a.53.53 0 0 0 .27.234q.167.057.352.057.138 0 .227-.014l.142-.029.171.753a2 2 0 0 1-.238.064 1.8 1.8 0 0 1-.387.036q-.355 0-.696-.153a1.4 1.4 0 0 1-.562-.465q-.22-.312-.22-.788zm3.264 6.762v-5.455h.809v.824h.057q.15-.405.54-.657t.881-.252a9 9 0 0 1 .44.014v.852a2 2 0 0 0-.195-.032 2 2 0 0 0-.316-.024q-.397 0-.711.167a1.26 1.26 0 0 0-.49.454q-.177.287-.177.657v3.452zm3.72 0v-5.455h.839v5.455zm.427-6.364a.6.6 0 0 1-.423-.167.54.54 0 0 1-.174-.401q0-.234.174-.401a.6.6 0 0 1 .423-.167q.245 0 .419.167a.53.53 0 0 1 .177.401q0 .234-.177.401a.58.58 0 0 1-.419.167m2.785 3.083v3.28h-.838v-5.454h.809v.852h.071q.192-.415.583-.667.39-.256 1.008-.256.554 0 .97.227.415.225.646.682.231.455.231 1.15v3.467h-.838v-3.41q0-.642-.334-1-.334-.363-.916-.363-.402 0-.718.174a1.24 1.24 0 0 0-.493.508q-.181.333-.181.81m7.213 5.44q-.607 0-1.044-.156a2.2 2.2 0 0 1-.728-.405 2.2 2.2 0 0 1-.458-.533l.667-.469q.114.15.288.341.174.195.476.338.305.145.799.145.66 0 1.09-.32.43-.319.43-1v-1.109h-.071q-.093.15-.263.37a1.5 1.5 0 0 1-.483.387q-.312.166-.845.167-.661 0-1.186-.313a2.2 2.2 0 0 1-.828-.909q-.302-.596-.302-1.449 0-.838.295-1.46a2.3 2.3 0 0 1 .82-.965q.526-.345 1.215-.345.533 0 .845.178.317.173.483.398.17.22.263.362h.085v-.867h.81v5.611q0 .703-.32 1.143a1.8 1.8 0 0 1-.852.65q-.533.21-1.186.21m-.029-2.997q.505 0 .853-.231.348-.23.529-.664t.181-1.037q0-.59-.178-1.04a1.56 1.56 0 0 0-.525-.707q-.348-.256-.86-.256-.533 0-.887.27-.352.27-.529.724a2.8 2.8 0 0 0-.174 1.009q0 .569.177 1.005.181.433.533.682.354.245.88.245m4.66-6.435v.64q0 .29-.107.62-.103.328-.305.636a2.3 2.3 0 0 1-.483.533l-.455-.37q.224-.319.387-.663.167-.349.167-.742v-.654zm6.291 1.818v.71h-2.826v-.71zm-2.003-1.307h.838v5.2q0 .355.103.532a.53.53 0 0 0 .27.234q.168.057.352.057.138 0 .227-.014l.142-.029.171.753a2 2 0 0 1-.238.064 1.8 1.8 0 0 1-.387.036q-.356 0-.696-.153a1.4 1.4 0 0 1-.561-.465q-.22-.312-.221-.788zm5.421 6.875q-.738 0-1.296-.351a2.4 2.4 0 0 1-.866-.984q-.309-.632-.309-1.477 0-.852.309-1.488.312-.636.866-.987.558-.352 1.296-.352.74 0 1.293.352.558.351.866.987.313.636.313 1.488 0 .845-.313 1.477-.309.633-.866.984-.554.351-1.293.351m0-.752q.561 0 .923-.288.363-.288.537-.757.174-.468.174-1.015t-.174-1.02a1.7 1.7 0 0 0-.537-.763q-.362-.291-.923-.291t-.923.291-.536.764a2.9 2.9 0 0 0-.174 1.019q0 .546.174 1.016.173.468.536.756.362.288.923.288m6.28-4.361v-.64q0-.291.102-.617a2.7 2.7 0 0 1 .306-.636q.202-.31.486-.536l.455.37a5 5 0 0 0-.391.667 1.7 1.7 0 0 0-.163.738v.654zm2.276 5v-5.455h.838v5.455zm.426-6.364a.6.6 0 0 1-.423-.167.54.54 0 0 1-.174-.401q0-.234.174-.401a.6.6 0 0 1 .423-.167q.245 0 .419.167a.53.53 0 0 1 .178.401q0 .234-.178.401a.58.58 0 0 1-.419.167m2.785 3.083v3.28h-.838v-5.454h.809v.852h.072q.19-.415.582-.667.39-.256 1.008-.256.555 0 .97.227.415.225.646.682.231.455.231 1.15v3.467h-.838v-3.41q0-.642-.334-1-.333-.363-.916-.363-.402 0-.717.174a1.24 1.24 0 0 0-.494.508q-.181.333-.181.81m7.384-2.174v.71h-2.827v-.71zm-2.003-1.307h.838v5.2q0 .355.103.532a.53.53 0 0 0 .27.234q.166.057.351.057.139 0 .228-.014l.142-.029.17.753a2 2 0 0 1-.238.064 1.8 1.8 0 0 1-.387.036q-.356 0-.696-.153a1.4 1.4 0 0 1-.561-.465q-.22-.312-.22-.788zm4.285-.511v.64q0 .29-.106.62a2.6 2.6 0 0 1-.306.636 2.2 2.2 0 0 1-.483.533l-.454-.37q.224-.319.387-.663.167-.349.167-.742v-.654z"/></svg>