<svg xmlns="http://www.w3.org/2000/svg" width="552" height="366" fill="none" viewBox="0 0 552 366"><g clip-path="url(#a)"><path fill="#e2e8f0" d="M2.015 49.283c-.562-8.51 5.891-15.865 14.413-16.426L515.04.034c8.522-.561 15.886 5.883 16.448 14.394l19.909 301.598c.561 8.512-5.892 15.865-14.414 16.426L38.371 365.276c-8.522.561-15.886-5.884-16.448-14.394z" opacity=".2"/><path fill="#f9fafb" d="M526.976 22.26H9.827A9.447 9.447 0 0 0 .38 31.705V317.33a9.447 9.447 0 0 0 9.447 9.447h517.149a9.45 9.45 0 0 0 9.447-9.447V31.706a9.447 9.447 0 0 0-9.447-9.447"/><path stroke="#cbd5e0" stroke-width=".76" d="M526.976 22.26H9.827A9.447 9.447 0 0 0 .38 31.705V317.33a9.447 9.447 0 0 0 9.447 9.447h517.149a9.45 9.45 0 0 0 9.447-9.447V31.706a9.447 9.447 0 0 0-9.447-9.447Z"/><path fill="#718096" d="M22.787 55.166a4.557 4.557 0 1 0 0-9.114 4.557 4.557 0 0 0 0 9.114m18.229 0a4.557 4.557 0 1 0 0-9.115 4.557 4.557 0 0 0 0 9.115m18.23 0a4.557 4.557 0 1 0 0-9.115 4.557 4.557 0 0 0 0 9.115m178.097.943v-1.732h2.917V49.47h-2.537v-1.716h4.36v6.623h2.582v1.732zm3.676-9.753q-.577 0-.911-.289-.334-.303-.334-.805 0-.5.334-.79.334-.303.911-.303t.912.303q.334.29.334.79 0 .502-.334.805-.334.29-.912.289m5.448 9.753v-8.355h1.853v1.595h.517l-.517.44q0-1.033.593-1.61.608-.577 1.656-.577 1.23 0 1.959.82.744.82.745 2.203v5.484h-1.899v-5.287q0-.759-.395-1.17-.396-.41-1.109-.41-.7 0-1.109.426-.395.425-.395 1.215v5.226zm11.782.152q-1.245 0-2.02-.866-.76-.866-.76-2.325v-2.263q0-1.473.76-2.34.76-.865 2.02-.865 1.034 0 1.641.592.608.578.608 1.595l-.426-.44h.441l-.061-1.99v-2.34h1.899v11.09h-1.853v-1.595h-.426l.426-.44q0 1.016-.608 1.61-.607.576-1.641.577m.669-1.641q.73 0 1.124-.425.41-.441.41-1.216v-2.096q0-.776-.41-1.2-.395-.44-1.124-.44t-1.14.425-.41 1.215v2.096q0 .79.41 1.216.411.425 1.14.425m9.169 1.64q-1.063 0-1.853-.41a3.04 3.04 0 0 1-1.231-1.139q-.425-.744-.425-1.732v-2.096q0-.987.425-1.717a3 3 0 0 1 1.231-1.154q.79-.41 1.853-.41 1.049 0 1.823.41.79.41 1.215 1.154.441.73.441 1.717v1.504h-5.15v.592q0 .882.426 1.337.424.44 1.26.44.639 0 1.033-.212.396-.228.502-.653h1.868q-.213 1.078-1.154 1.732-.927.638-2.264.638m1.641-4.936v-.456q0-.867-.41-1.322-.41-.47-1.231-.47-.82 0-1.245.47-.426.471-.426 1.337v.319l3.449-.03zm3.442 4.785 2.917-4.315-2.719-4.04h2.142l1.291 2.05q.122.183.213.41l.167.365q.06-.136.167-.364.107-.229.213-.41l1.306-2.051h2.142l-2.719 4.04 2.901 4.315h-2.157l-1.443-2.294a4 4 0 0 1-.228-.425 7 7 0 0 0-.182-.365q-.061.137-.167.364a4 4 0 0 1-.228.426l-1.474 2.294zm13.12.152q-.654 0-1.049-.38-.38-.38-.379-1.033 0-.654.379-1.033.395-.396 1.049-.395.652 0 1.033.395.394.38.394 1.033t-.394 1.033q-.38.38-1.033.38m10.02-.152q-1.2 0-1.884-.669-.669-.668-.668-1.838V49.47h-2.264v-1.716h2.264v-2.355h1.914v2.355h3.205v1.716h-3.205v4.132q0 .79.774.79h2.279v1.717zm7.878.136q-.957 0-1.671-.303-.714-.304-1.124-.836a2.3 2.3 0 0 1-.426-1.276h1.899a.83.83 0 0 0 .38.638q.365.243.942.243h.668q.7 0 1.049-.273a.9.9 0 0 0 .349-.745q0-.44-.319-.683-.304-.259-.957-.334l-1.033-.152q-1.428-.198-2.096-.76t-.669-1.686q0-1.17.79-1.808.79-.653 2.324-.653h.578q1.397 0 2.233.623.835.623.896 1.67h-1.899q-.045-.333-.38-.546-.318-.213-.85-.213h-.578q-.653 0-.957.243-.288.228-.288.684 0 .425.258.638.259.197.835.288l1.079.152q1.489.212 2.187.806.714.577.714 1.716 0 1.215-.835 1.899-.82.668-2.431.668zm5.417-.136 2.917-4.315-2.719-4.04h2.142l1.291 2.05q.121.183.213.41l.167.365q.06-.136.167-.364.106-.229.213-.41l1.306-2.051h2.142l-2.719 4.04 2.901 4.315h-2.157l-1.443-2.294a4 4 0 0 1-.228-.425 7 7 0 0 0-.182-.365q-.061.137-.167.364a4 4 0 0 1-.228.426l-1.474 2.294zM24.542 95.338v-1.246h3.008v-8.704l-3.008 2.248v-1.519l2.507-1.868h1.868v9.843h2.461v1.246zm.03 21v-1.398l3.388-3.6q.867-.927 1.261-1.641.396-.728.395-1.397 0-.927-.516-1.458-.502-.532-1.383-.532-.972 0-1.534.547-.547.546-.547 1.504H24.27q.03-1.003.456-1.732a2.95 2.95 0 0 1 1.2-1.139q.774-.395 1.792-.395 1.003 0 1.732.395a2.64 2.64 0 0 1 1.14 1.093q.394.714.394 1.702 0 .941-.5 1.868-.502.927-1.642 2.112l-2.734 2.825h5.059v1.246zm2.993 21.152q-1.002 0-1.762-.395a2.93 2.93 0 0 1-1.154-1.124q-.41-.714-.41-1.671h1.367q0 .927.516 1.458.532.517 1.459.517.941 0 1.458-.547.516-.548.516-1.428v-.79q0-.942-.516-1.458-.516-.517-1.459-.517h-1.139v-1.367l2.75-2.674h-4.497v-1.246h5.88v1.368l-2.963 2.871v-.167q1.52 0 2.415.866.897.866.897 2.324v.79q0 .957-.426 1.671a2.9 2.9 0 0 1-1.17 1.124q-.759.395-1.762.395m1.838 20.848v-2.431H24.39v-2.142l4.39-6.517h1.49l-4.512 6.806v.608h3.646v-2.704h1.367v6.38zm-1.7 21.152q-1.353 0-2.219-.699t-1.018-1.884h1.368q.075.654.562 1.018.486.35 1.321.35.957 0 1.428-.517.486-.516.486-1.458v-1.079q0-.942-.486-1.458-.471-.516-1.412-.517-.594 0-1.033.319a1.7 1.7 0 0 0-.639.821h-1.367l.076-6.138h5.834v1.246h-4.512l-.046 3.692h.426l-.426.395q0-.714.562-1.125.578-.41 1.535-.41 1.352-.015 2.096.836.76.836.76 2.339v1.079q-.001 1.473-.866 2.339-.867.85-2.43.851m.045 21q-1.064 0-1.869-.441a3.2 3.2 0 0 1-1.23-1.26q-.44-.805-.44-1.869a6 6 0 0 1 .227-1.641q.243-.804.714-1.549l2.78-4.482h1.52l-3.145 5.044.06.046a1.86 1.86 0 0 1 .79-.654 2.7 2.7 0 0 1 1.124-.228q.912 0 1.58.426.669.424 1.033 1.2.365.774.365 1.838t-.44 1.869a3.2 3.2 0 0 1-1.231 1.26q-.776.441-1.838.441m-.015-1.215q.973 0 1.564-.638.593-.654.593-1.717t-.593-1.701q-.592-.654-1.564-.654t-1.565.654q-.593.637-.593 1.701 0 1.063.593 1.717.592.638 1.565.638m-1.748 22.063 3.965-9.844h-4.192v1.641H24.39v-2.887h6.912v1.337l-3.843 9.753zm1.748 21.152q-1.019 0-1.778-.349a2.74 2.74 0 0 1-1.154-1.033q-.41-.67-.41-1.565 0-.987.531-1.702.547-.714 1.717-1.276l1.473-.714q.669-.319 1.033-.835a1.93 1.93 0 0 0 .365-1.139q0-.73-.486-1.155-.472-.425-1.291-.425-.82 0-1.307.44-.47.426-.47 1.155 0 .608.349 1.124.364.516.987.82l1.473.699q1.215.562 1.763 1.291.547.714.547 1.717 0 1.352-.912 2.157-.897.79-2.43.79m0-1.215q.926 0 1.458-.471.547-.486.547-1.292 0-.653-.35-1.184-.35-.532-1.002-.851l-1.459-.714q-1.215-.592-1.762-1.276t-.547-1.641q0-.85.38-1.473a2.47 2.47 0 0 1 1.079-.957q.697-.335 1.656-.335.957 0 1.655.335.7.333 1.079.957.38.623.38 1.473 0 .957-.547 1.641-.547.668-1.808 1.291l-1.458.714q-.624.304-.973.836a2.1 2.1 0 0 0-.334 1.154q0 .82.532 1.307.547.486 1.474.486m-1.717 22.063 3.144-5.043-.06-.046a1.86 1.86 0 0 1-.79.653 2.7 2.7 0 0 1-1.124.228q-.897 0-1.58-.425a2.8 2.8 0 0 1-1.033-1.2q-.365-.79-.365-1.839 0-1.078.44-1.868a3.1 3.1 0 0 1 1.231-1.246q.79-.456 1.838-.455 1.064 0 1.854.455.805.44 1.245 1.246.44.79.44 1.868 0 .836-.242 1.641a5.9 5.9 0 0 1-.699 1.55l-2.78 4.481zm1.717-5.317q.973 0 1.564-.638.593-.653.593-1.717 0-1.063-.593-1.701-.592-.653-1.564-.653t-1.565.653q-.593.638-.593 1.701t.593 1.717q.592.638 1.565.638m-7.745 26.317v-1.246h3.008v-8.704l-3.008 2.248v-1.519l2.506-1.869h1.869v9.844h2.461v1.246zm12.299.152q-1.018 0-1.777-.395a2.9 2.9 0 0 1-1.155-1.139q-.41-.745-.41-1.732v-4.861q0-1.003.41-1.732a2.8 2.8 0 0 1 1.154-1.124q.76-.41 1.778-.41 1.032 0 1.777.41.744.395 1.155 1.124.41.729.41 1.732v4.861q0 .987-.41 1.732a2.9 2.9 0 0 1-1.17 1.139q-.745.395-1.762.395m0-1.17q.912 0 1.458-.577.562-.592.562-1.519v-4.861q0-.927-.562-1.504-.546-.593-1.458-.593t-1.474.593q-.546.577-.547 1.504v4.861q0 .927.547 1.519.562.577 1.474.577m0-3.63a.9.9 0 0 1-.669-.259q-.243-.258-.243-.683 0-.41.243-.654a.9.9 0 0 1 .669-.258q.41 0 .653.258.258.244.258.654 0 .425-.258.683-.243.258-.653.259m-12.299 25.648v-1.246h3.008v-8.704l-3.008 2.248v-1.519l2.506-1.869h1.869v9.844h2.461v1.246zm9.109 0v-1.246h3.008v-8.704l-3.008 2.248v-1.519l2.506-1.869h1.869v9.844h2.46v1.246z"/><path fill="#667eea" d="M56.25 95.49q-1.323 0-2.082-.668-.76-.684-.76-1.839 0-1.17.76-1.838t2.05-.668h2.583v-.836q0-.774-.47-1.185-.457-.425-1.307-.425-.745 0-1.246.32-.5.303-.577.835h-1.367a2.4 2.4 0 0 1 1.017-1.717q.882-.638 2.203-.638 1.443 0 2.279.744.835.745.835 2.02v5.743h-1.336v-1.595h-.228l.228-.228q0 .912-.714 1.443-.7.532-1.869.532m.333-1.079q.972 0 1.595-.486.623-.487.623-1.245v-1.185h-2.55q-.683 0-1.079.38t-.395 1.032q0 .699.471 1.11.487.394 1.337.394m6.815.927-1.337-8.355h1.216l.835 5.924q.045.334.091.73.06.38.091.638.03-.258.092-.638.075-.396.121-.73l.927-5.924h1.306l.927 5.924q.046.334.106.73.076.38.106.638.03-.258.092-.638.075-.396.121-.73l.866-5.924h1.155l-1.398 8.355h-1.504l-.896-5.773q-.06-.425-.137-.85-.076-.426-.106-.669-.03.243-.091.669-.06.425-.137.85l-.942 5.773zm11.068.152q-1.32 0-2.08-.668-.76-.684-.76-1.839 0-1.17.76-1.838t2.05-.668h2.583v-.836q0-.774-.471-1.185-.456-.425-1.307-.425-.744 0-1.245.32-.502.303-.578.835h-1.367a2.4 2.4 0 0 1 1.018-1.717q.881-.638 2.203-.638 1.443 0 2.278.744.836.745.836 2.02v5.743H77.05v-1.595h-.228l.228-.228q0 .912-.714 1.443-.7.532-1.868.532m.335-1.079q.972 0 1.595-.486.623-.487.623-1.245v-1.185h-2.553q-.683 0-1.078.38t-.395 1.032q0 .699.47 1.11.487.394 1.338.394m6.237.927v-1.246h2.963V88.23H81.42v-1.246h3.95v7.11h2.81v1.245zm3.494-9.859q-.5 0-.79-.258-.288-.258-.288-.7 0-.454.288-.713.29-.273.79-.274.502 0 .79.274.29.258.289.714 0 .441-.289.699-.288.258-.79.258m9.793 9.859q-1.08 0-1.687-.577-.592-.578-.592-1.626V88.23h-2.355v-1.246h2.355v-2.355h1.367v2.355h3.342v1.246h-3.342v4.906q0 .957.912.957h2.278v1.246z"/><path fill="#7f9cf5" d="M108.471 98.072v-11.09h1.367v1.596h.274l-.274.319q0-.957.623-1.504.638-.562 1.671-.562 1.261 0 2.005.835.76.82.76 2.264v2.446q0 .957-.35 1.656a2.47 2.47 0 0 1-.957 1.078q-.608.38-1.458.38-1.018 0-1.656-.562t-.638-1.504l.274.319h-.304l.03 1.899v2.43zm3.205-3.767q.867 0 1.352-.517.502-.516.502-1.488v-2.28q0-.972-.502-1.489-.486-.516-1.352-.516-.835 0-1.337.532-.501.531-.501 1.473v2.28q0 .942.501 1.473.502.532 1.337.532m6.192 1.033v-8.355h1.337v1.595h.319l-.44.987q0-1.352.577-2.035.592-.699 1.747-.699 1.322 0 2.096.835.79.82.79 2.234v.5h-1.367v-.379q0-.987-.486-1.504-.471-.531-1.352-.531-.866 0-1.367.531-.487.532-.487 1.504v5.317zm8.714 0v-1.246h2.962V88.23h-2.582v-1.246h3.95v7.11h2.81v1.245zm3.494-9.859q-.501 0-.79-.258-.288-.258-.289-.7 0-.454.289-.713.288-.273.79-.274.502 0 .79.274.289.258.289.714 0 .441-.289.699-.288.258-.79.258m8.623 9.98q-.851 0-1.489-.258a2.54 2.54 0 0 1-1.003-.76 2.3 2.3 0 0 1-.44-1.154h1.367q.092.441.486.699.41.258 1.079.258h.638q.804 0 1.2-.319.395-.334.395-.88 0-.533-.365-.836-.35-.32-1.048-.426l-1.124-.182q-1.231-.213-1.838-.76-.593-.561-.593-1.625 0-1.125.714-1.732.714-.623 2.142-.623h.577q1.2 0 1.93.562t.881 1.52h-1.367a.97.97 0 0 0-.456-.623q-.364-.243-.988-.243h-.577q-.774 0-1.139.288-.35.289-.35.866 0 .517.304.76.305.243.957.35l1.124.181q1.353.213 1.96.79.623.577.623 1.671 0 1.155-.744 1.823-.73.654-2.218.654zm5.812-.121v-8.355h1.2v1.002h.273l-.212.365q0-.698.364-1.109.38-.41 1.018-.41.7 0 1.079.516.38.516.38 1.459l-.411-.82h.638l-.288.364q0-.698.38-1.109.394-.41 1.033-.41.789 0 1.215.592.44.593.44 1.565v6.35h-1.261v-6.365q0-.516-.227-.805-.213-.29-.638-.289a.81.81 0 0 0-.654.289q-.227.273-.227.79v6.38h-1.094v-6.365q0-.532-.243-.805-.228-.29-.654-.289-.425 0-.638.289-.212.273-.212.79v6.38zm11.934.152q-1.322 0-2.081-.668-.76-.684-.76-1.839 0-1.17.76-1.838t2.051-.668h2.582v-.836q0-.774-.471-1.185-.455-.425-1.306-.425-.744 0-1.246.32-.5.303-.577.835h-1.367a2.4 2.4 0 0 1 1.018-1.717q.88-.638 2.202-.638 1.443 0 2.279.744.835.745.835 2.02v5.743h-1.336v-1.595h-.228l.228-.228q0 .912-.714 1.443-.699.532-1.869.532m.334-1.079q.973 0 1.595-.486.624-.487.623-1.245v-1.185h-2.552q-.684 0-1.078.38-.395.38-.395 1.032 0 .699.471 1.11.486.394 1.336.394m-66.055 42.927-1.337-8.355h1.216l.835 5.924q.046.334.091.73.061.379.092.638.03-.259.09-.638.077-.396.122-.73l.927-5.924h1.306l.927 5.924q.046.334.106.73.077.379.107.638.03-.259.09-.638.077-.396.122-.73l.866-5.924h1.155l-1.398 8.355h-1.504l-.896-5.773a25 25 0 0 0-.137-.85q-.075-.426-.106-.669-.03.243-.091.669-.06.425-.137.85l-.942 5.773zm8.638 0v-11.09h1.367v4.33h.289l-.289.319q0-.987.593-1.519.593-.547 1.64-.547 1.261 0 2.006.775.744.774.744 2.111v5.621h-1.367v-5.469q0-.896-.486-1.382-.471-.501-1.291-.501-.851 0-1.353.531-.486.532-.486 1.504v5.317zm12.269.152q-.988 0-1.732-.395a2.85 2.85 0 0 1-1.139-1.109q-.395-.729-.395-1.686v-2.279q0-.972.395-1.686a2.85 2.85 0 0 1 1.139-1.109q.744-.395 1.732-.395.987 0 1.716.395.745.395 1.14 1.109.41.714.41 1.686v1.474h-5.196v.805q0 .987.502 1.519.501.516 1.428.516.79 0 1.276-.273.486-.288.592-.851h1.367q-.136 1.049-1.033 1.671-.88.608-2.202.608m1.929-4.907v-.562q0-.987-.501-1.519-.486-.532-1.428-.532-.927 0-1.428.532-.502.531-.502 1.519v.441h3.965zm4.308 4.755v-8.355h1.337v1.595h.319l-.44.987q0-1.351.577-2.035.592-.699 1.747-.699 1.322 0 2.096.835.79.82.79 2.234v.501h-1.367v-.38q0-.987-.486-1.504-.471-.531-1.352-.531-.866 0-1.367.531-.487.532-.487 1.504v5.317zm11.98.152q-.987 0-1.732-.395a2.85 2.85 0 0 1-1.139-1.109q-.395-.729-.395-1.686v-2.279q0-.972.395-1.686a2.85 2.85 0 0 1 1.139-1.109q.745-.395 1.732-.395.988 0 1.717.395.744.395 1.139 1.109.41.714.41 1.686v1.474h-5.195v.805q0 .987.501 1.519.501.516 1.428.516.79 0 1.276-.273.486-.288.593-.851h1.367q-.137 1.049-1.033 1.671-.882.608-2.203.608m1.929-4.907v-.562q0-.987-.501-1.519-.486-.532-1.428-.532-.927 0-1.428.532-.501.531-.501 1.519v.441h3.965zm34.506 4.907q-.987 0-1.732-.395a2.85 2.85 0 0 1-1.139-1.109q-.395-.729-.395-1.686v-2.279q0-.972.395-1.686a2.85 2.85 0 0 1 1.139-1.109q.745-.395 1.732-.395t1.717.395q.744.395 1.139 1.109.41.714.41 1.686v1.474h-5.195v.805q0 .987.501 1.519.501.516 1.428.516.79 0 1.276-.273.486-.288.593-.851h1.367q-.137 1.049-1.033 1.671-.882.608-2.203.608m1.929-4.907v-.562q0-.987-.501-1.519-.486-.532-1.428-.532-.927 0-1.428.532-.501.531-.501 1.519v.441h3.965zm3.625 4.755v-8.355h1.2v1.003h.274l-.213.364q0-.699.365-1.109.38-.41 1.017-.41.7 0 1.079.516.38.517.38 1.459l-.41-.82h.638l-.289.364q0-.699.38-1.109.394-.41 1.033-.41.789 0 1.215.592.441.593.441 1.565v6.35h-1.261v-6.365q0-.517-.228-.805-.213-.29-.638-.289a.8.8 0 0 0-.653.289q-.228.273-.228.79v6.38h-1.094v-6.365q0-.532-.243-.805-.228-.29-.653-.289-.426 0-.638.289-.213.273-.213.79v6.38zm11.934.152q-1.321 0-2.081-.668-.759-.684-.759-1.839 0-1.169.759-1.838.76-.668 2.051-.668h2.583v-.836q0-.774-.471-1.185-.456-.425-1.307-.425-.744 0-1.246.319-.5.304-.577.836h-1.367a2.4 2.4 0 0 1 1.018-1.717q.88-.638 2.203-.638 1.443 0 2.278.744.836.745.836 2.021v5.742h-1.337v-1.595h-.228l.228-.228q0 .912-.714 1.443-.699.532-1.869.532m.335-1.079q.971 0 1.595-.486.623-.486.623-1.245v-1.185h-2.553q-.683 0-1.078.379-.395.38-.395 1.033 0 .7.471 1.109.486.396 1.337.395m6.237.927v-1.246h2.963v-5.863h-2.583v-1.246h3.95v7.109h2.81v1.246zm3.494-9.859q-.5 0-.79-.258-.288-.258-.288-.699 0-.456.288-.714.29-.273.79-.273.502 0 .79.273.29.258.289.714 0 .441-.289.699-.288.258-.79.258m10.02 9.859q-.729 0-1.276-.289a2.07 2.07 0 0 1-.85-.82q-.304-.532-.304-1.246v-7.489h-2.811v-1.246h4.178v8.735q0 .517.289.821.288.288.774.288h2.659v1.246zm-94.915 63-1.337-8.355h1.215l.836 5.924q.046.334.091.73.06.379.091.638.03-.259.091-.638.076-.396.122-.73l.926-5.924h1.307l.927 5.924q.045.334.106.73.076.379.106.638.03-.259.091-.638.077-.396.122-.73l.866-5.924h1.154l-1.397 8.355h-1.504l-.896-5.773a28 28 0 0 0-.137-.85 15 15 0 0 1-.107-.669 34 34 0 0 1-.227 1.519l-.942 5.773zm8.638 0v-11.09h1.367v4.33h.288l-.288.319q0-.987.592-1.519.593-.547 1.641-.547 1.261 0 2.005.775.745.774.745 2.111v5.621h-1.368v-5.469q0-.896-.486-1.382-.47-.501-1.291-.501-.85 0-1.352.531-.486.532-.486 1.504v5.317zm12.268.152q-.987 0-1.732-.395a2.85 2.85 0 0 1-1.139-1.109q-.395-.729-.395-1.686v-2.279q0-.972.395-1.686a2.85 2.85 0 0 1 1.139-1.109q.745-.395 1.732-.395.988 0 1.717.395.744.395 1.139 1.109.41.714.41 1.686v1.474h-5.195v.805q0 .987.501 1.519.501.516 1.428.516.79 0 1.276-.273.486-.288.593-.851h1.367q-.137 1.048-1.033 1.671-.882.608-2.203.608m1.929-4.907v-.562q0-.987-.501-1.519-.486-.532-1.428-.532-.927 0-1.428.532-.501.531-.501 1.519v.441h3.965zm4.309 4.755v-8.355h1.337v1.595h.319l-.441.987q0-1.351.577-2.035.593-.699 1.747-.699 1.322 0 2.097.835.79.82.79 2.234v.501h-1.368v-.38q0-.987-.486-1.504-.47-.531-1.352-.531-.866 0-1.367.531-.486.532-.486 1.504v5.317zm11.98.152q-.988 0-1.732-.395a2.85 2.85 0 0 1-1.139-1.109q-.395-.729-.395-1.686v-2.279q0-.972.395-1.686a2.85 2.85 0 0 1 1.139-1.109q.744-.395 1.732-.395.987 0 1.716.395a2.74 2.74 0 0 1 1.14 1.109q.41.714.41 1.686v1.474h-5.196v.805q0 .987.502 1.519.501.516 1.428.516.79 0 1.276-.273.486-.288.592-.851h1.367q-.136 1.048-1.033 1.671-.88.608-2.202.608m1.929-4.907v-.562q0-.987-.501-1.519-.486-.532-1.428-.532-.927 0-1.428.532-.502.531-.502 1.519v.441h3.965zm-1.018 25.755q-1.078 0-1.686-.577-.593-.577-.593-1.626v-4.906h-2.354v-1.246h2.354v-2.355h1.368v2.355h3.342v1.246h-3.342v4.906q0 .957.911.957h2.279v1.246zm4.931 0v-1.246h2.963v-5.863h-2.583v-1.246h3.95v7.109h2.81v1.246zm3.494-9.859q-.5 0-.79-.258-.288-.258-.288-.699 0-.456.288-.714.29-.273.79-.273.502 0 .79.273.29.258.289.714 0 .441-.289.699-.288.258-.79.258m9.793 9.859q-1.079 0-1.687-.577-.592-.577-.592-1.626v-4.906h-2.355v-1.246h2.355v-2.355h1.367v2.355h3.342v1.246h-3.342v4.906q0 .957.912.957h2.278v1.246zm9.336 0q-.729 0-1.276-.289a2.1 2.1 0 0 1-.851-.82q-.303-.532-.303-1.246v-7.489h-2.811v-1.246h4.178v8.735q0 .517.288.821.29.288.775.288h2.659v1.246zm7.97.152q-.988 0-1.732-.395a2.86 2.86 0 0 1-1.14-1.109q-.395-.729-.395-1.686v-2.279q0-.972.395-1.686a2.86 2.86 0 0 1 1.14-1.109q.744-.395 1.732-.395.987 0 1.716.395a2.74 2.74 0 0 1 1.14 1.109q.41.714.41 1.686v1.474h-5.196v.805q0 .987.502 1.519.501.516 1.428.516.79 0 1.276-.273.486-.288.592-.851h1.367q-.136 1.048-1.033 1.671-.88.608-2.202.608m1.929-4.907v-.562q0-.987-.501-1.519-.487-.532-1.428-.532-.927 0-1.428.532-.502.531-.502 1.519v.441h3.965z"/><path fill="#718096" d="M166.283 95.49q-.578 0-.927-.334-.334-.334-.334-.897 0-.592.334-.941.35-.35.927-.35t.912.35q.35.35.349.941 0 .563-.349.897-.334.334-.912.334m9.094 0q-1.443 0-2.309-.85-.867-.867-.866-2.34v-5.317h1.367V92.3q0 .942.486 1.473.486.517 1.322.517.85 0 1.336-.517.502-.531.502-1.473v-5.317h1.367V92.3q0 1.473-.881 2.34-.88.85-2.324.85m8.865-.03q-.85 0-1.488-.259a2.5 2.5 0 0 1-1.003-.76 2.3 2.3 0 0 1-.441-1.154h1.368q.09.441.486.699.41.258 1.078.258h.638q.805 0 1.2-.319.395-.334.395-.88 0-.533-.364-.836-.35-.32-1.048-.426l-1.124-.182q-1.231-.213-1.839-.76-.592-.561-.592-1.625 0-1.125.714-1.732.714-.623 2.142-.623h.577q1.2 0 1.929.562t.881 1.52h-1.367a.97.97 0 0 0-.455-.623q-.366-.243-.988-.243h-.577q-.775 0-1.139.288-.35.289-.35.866 0 .517.304.76t.957.35l1.124.181q1.352.213 1.96.79.623.577.623 1.671 0 1.155-.745 1.823-.729.654-2.218.654zm9.367.03q-.987 0-1.731-.395a2.86 2.86 0 0 1-1.14-1.109q-.395-.729-.395-1.686v-2.28q0-.972.395-1.686a2.86 2.86 0 0 1 1.14-1.109q.744-.395 1.731-.395t1.717.395q.744.395 1.139 1.109.41.714.41 1.686v1.474h-5.195v.805q0 .987.501 1.519.502.516 1.428.516.79 0 1.276-.273.486-.288.593-.85h1.367q-.136 1.047-1.033 1.67-.881.608-2.203.608m1.93-4.907v-.562q0-.987-.502-1.519-.486-.532-1.428-.532-.925 0-1.428.532-.501.531-.501 1.52v.44h3.965zm4.308 4.755v-8.355h1.337v1.595h.319l-.441.987q0-1.352.577-2.035.593-.699 1.747-.699 1.322 0 2.097.835.79.82.79 2.234v.5h-1.367v-.379q0-.987-.487-1.504-.47-.531-1.352-.531-.866 0-1.367.531-.486.532-.486 1.504v5.317zM75.196 116.49q-.578 0-.927-.334-.334-.335-.334-.897 0-.592.334-.941.35-.35.927-.35t.911.35q.35.349.35.941 0 .563-.35.897-.334.334-.911.334m7.893-.152v-6.274h-2.43v-1.246h2.43v-1.443q0-.987.623-1.549.622-.578 1.717-.578h2.445v1.246H85.43q-.47 0-.73.228-.243.213-.243.653v1.443h3.418v1.246h-3.418v6.274zm7.058 0v-1.246h2.962v-5.863h-2.582v-1.246h3.95v7.109h2.81v1.246zm3.494-9.859q-.501 0-.79-.258-.288-.258-.288-.699 0-.456.288-.714.288-.273.79-.273.501 0 .79.273.288.258.289.714 0 .441-.289.699t-.79.258m5.721 9.859v-8.355h1.367v1.595h.289l-.289.319q0-.987.593-1.519.593-.547 1.64-.547 1.261 0 2.006.775.744.774.744 2.111v5.621h-1.367v-5.469q0-.896-.486-1.367-.471-.486-1.291-.486-.851 0-1.353.516-.486.517-.486 1.489v5.317zm11.783.152q-1.246 0-2.021-.836-.759-.835-.759-2.263v-2.446q0-1.443.759-2.279.76-.835 2.021-.835 1.032 0 1.655.562t.623 1.504l-.273-.319h.304l-.031-1.899v-2.431h1.367v11.09h-1.367v-1.595h-.273l.273-.319q0 .957-.623 1.519-.623.547-1.655.547m.455-1.185q.85 0 1.337-.532.486-.531.486-1.473v-2.279q0-.942-.486-1.473t-1.337-.532q-.866 0-1.367.516-.501.517-.501 1.489v2.279q0 .972.501 1.489.501.516 1.367.516m9.139 1.185q-1.55 0-2.369-.851-.82-.866-.821-2.339v-8.052h1.367v8.052q0 .91.441 1.443.456.532 1.382.532.912 0 1.368-.532.455-.532.455-1.443v-8.052h1.368v8.052q0 1.488-.821 2.339-.805.85-2.37.851m5.949-.152v-8.355h1.368v1.595h.288l-.288.319q0-.987.592-1.519.593-.547 1.641-.547 1.26 0 2.005.775.744.774.744 2.111v5.621h-1.367v-5.469q0-.896-.486-1.367-.47-.486-1.291-.486-.85 0-1.352.516-.486.517-.486 1.489v5.317zm9.003 0v-1.246h2.962v-5.863h-2.582v-1.246h3.949v7.109h2.811v1.246zm3.494-9.859q-.502 0-.79-.258-.29-.258-.289-.699 0-.456.289-.714.289-.273.79-.273.5 0 .79.273.288.258.288.714 0 .441-.288.699-.29.258-.79.258m10.673 12.593v-2.43l.031-1.899h-.304l.273-.319q0 .942-.623 1.504t-1.655.562q-1.261 0-2.006-.836-.729-.835-.729-2.278v-2.446q0-1.443.744-2.264.745-.835 1.991-.835 1.032 0 1.655.562.623.547.623 1.504l-.273-.319h.273v-1.595h1.367v11.089zm-1.823-3.767q.85 0 1.337-.532.486-.531.486-1.473v-2.279q0-.942-.486-1.473t-1.337-.532q-.866 0-1.352.516-.471.517-.471 1.489v2.279q0 .972.471 1.489.486.516 1.352.516m9.124 1.185q-1.443 0-2.309-.851-.866-.866-.866-2.339v-5.317h1.367v5.317q0 .942.487 1.473.486.517 1.321.517.85 0 1.337-.517.501-.531.501-1.473v-5.317h1.367v5.317q0 1.473-.881 2.339-.88.85-2.324.851m9.124 0q-.987 0-1.732-.395a2.85 2.85 0 0 1-1.139-1.109q-.395-.729-.395-1.686v-2.279q0-.972.395-1.686a2.85 2.85 0 0 1 1.139-1.109q.745-.395 1.732-.395t1.717.395q.744.395 1.139 1.109.41.714.41 1.686v1.474h-5.195v.805q0 .987.501 1.519.501.516 1.428.516.79 0 1.276-.273.486-.288.593-.851h1.367q-.137 1.049-1.033 1.671-.882.608-2.203.608m1.929-4.907v-.562q0-.988-.501-1.519-.486-.532-1.428-.532-.927 0-1.428.532-.501.531-.501 1.519v.441h3.965zm-29.255 19.527q-.562 0-.912-.304-.35-.319-.349-.836 0-.516.349-.82.35-.32.912-.319.578 0 .911.319.35.304.35.82 0 .517-.35.836-.333.303-.911.304m0 6.38q-.562 0-.912-.304-.35-.32-.349-.835 0-.517.349-.821.35-.318.912-.319.578 0 .911.319.35.304.35.821t-.35.835q-.333.304-.911.304m72.87-6.38q-.562 0-.912-.304-.35-.319-.349-.836 0-.516.349-.82.35-.32.912-.319.577 0 .911.319.35.304.35.82 0 .517-.35.836-.334.303-.911.304m0 6.38q-.562 0-.912-.304-.35-.32-.349-.835 0-.517.349-.821.35-.318.912-.319.577 0 .911.319.35.304.35.821t-.35.835q-.334.304-.911.304m169.8 1.519v-1.215h.683q.714 0 1.094-.334.38-.32.35-.973l-.152-2.491q-.061-.987.471-1.58.546-.592 1.503-.592v.076q-.972 0-1.503-.578-.532-.592-.471-1.58l.152-2.491q.03-.653-.35-.972-.38-.334-1.094-.334h-.683v-1.216h.683q.897 0 1.535.304a2.1 2.1 0 0 1 .987.851q.334.562.289 1.367l-.152 2.491q-.047.806.243 1.17.288.35 1.276.35h1.671v1.215h-1.671q-.973 0-1.276.364-.29.35-.243 1.155l.152 2.491q.045.79-.289 1.352a2.07 2.07 0 0 1-.987.866q-.638.304-1.535.304zM75.196 179.49q-.578 0-.927-.334-.334-.334-.334-.897 0-.592.334-.941.35-.35.927-.35t.911.35q.35.349.35.941 0 .563-.35.897-.334.334-.911.334m5.949 2.582v-11.089h1.367v1.595h.273l-.273.319q0-.957.623-1.504.638-.562 1.67-.562 1.262 0 2.006.835.76.82.76 2.264v2.446q0 .957-.35 1.656a2.5 2.5 0 0 1-.957 1.078q-.608.38-1.458.38-1.018 0-1.656-.562t-.638-1.504l.273.319h-.303l.03 1.899v2.43zm3.205-3.767q.866 0 1.352-.516.501-.517.501-1.489v-2.279q0-.972-.501-1.489-.486-.516-1.352-.516-.836 0-1.337.532-.501.531-.501 1.473v2.279q0 .942.501 1.473t1.337.532m9.063 1.155q-1.002 0-1.732-.38a2.76 2.76 0 0 1-1.139-1.094q-.395-.729-.395-1.717v-2.217q0-1.003.395-1.717a2.76 2.76 0 0 1 1.14-1.094q.729-.38 1.731-.38t1.732.38 1.124 1.094q.41.714.41 1.701v2.233q0 .988-.41 1.717a2.66 2.66 0 0 1-1.124 1.094q-.729.38-1.732.38m0-1.216q.897 0 1.398-.501.501-.5.501-1.474v-2.217q0-.973-.501-1.474t-1.398-.501q-.88 0-1.397.501-.502.5-.502 1.474v2.217q0 .973.502 1.474.516.501 1.397.501m8.851 1.216q-.851 0-1.489-.259a2.54 2.54 0 0 1-1.003-.759 2.3 2.3 0 0 1-.44-1.155h1.367q.091.441.486.699.41.258 1.079.258h.638q.804 0 1.2-.319.395-.334.395-.881 0-.532-.365-.835-.35-.32-1.048-.426l-1.124-.182q-1.23-.213-1.838-.76-.593-.561-.593-1.625 0-1.124.714-1.732.714-.623 2.142-.623h.577q1.201 0 1.93.562.73.563.881 1.52h-1.367a.97.97 0 0 0-.456-.623q-.364-.243-.988-.243h-.577q-.774 0-1.139.288-.35.289-.35.866 0 .517.304.76.305.243.957.349l1.124.182q1.353.214 1.96.79.623.577.623 1.671 0 1.155-.744 1.823-.73.654-2.218.654zm10.278-.122q-1.078 0-1.686-.577-.593-.577-.593-1.626v-4.906h-2.354v-1.246h2.354v-2.355h1.368v2.355h3.342v1.246h-3.342v4.906q0 .957.911.957h2.279v1.246zm7.939.122q-.85 0-1.489-.259a2.5 2.5 0 0 1-1.002-.759 2.3 2.3 0 0 1-.441-1.155h1.367q.091.441.487.699.41.258 1.078.258h.638q.805 0 1.2-.319.395-.334.395-.881 0-.532-.364-.835-.35-.32-1.049-.426l-1.124-.182q-1.23-.213-1.838-.76-.592-.561-.592-1.625 0-1.124.714-1.732.714-.623 2.142-.623h.577q1.2 0 1.929.562t.881 1.52h-1.367a.97.97 0 0 0-.456-.623q-.364-.243-.987-.243h-.577q-.776 0-1.14.288-.35.289-.349.866 0 .517.304.76.303.243.957.349l1.124.182q1.352.214 1.96.79.622.577.622 1.671 0 1.155-.744 1.823-.729.654-2.218.654zm36.693 14.65q-.561 0-.911-.304-.35-.319-.349-.836 0-.516.349-.82.35-.32.911-.319.578 0 .912.319.35.304.349.82 0 .517-.349.836-.334.303-.912.304m0 6.38q-.561 0-.911-.304-.35-.32-.349-.835 0-.517.349-.821.35-.318.911-.319.578 0 .912.319.35.304.349.821 0 .516-.349.835-.334.304-.912.304m36.435 14.62q-.561 0-.911-.304-.35-.319-.35-.836t.35-.82q.35-.32.911-.319.577 0 .912.319.35.304.349.82 0 .517-.349.836-.335.303-.912.304m0 6.38q-.561 0-.911-.304-.35-.32-.35-.835 0-.517.35-.821.35-.318.911-.319.577 0 .912.319.35.304.349.821 0 .516-.349.835-.335.304-.912.304"/><path fill="#a0aec0" d="M178.202 118.161q-2.157-.532-3.357-2.096-1.2-1.566-1.2-3.829v-2.734q0-1.489.547-2.689a5.7 5.7 0 0 1 1.58-2.051q1.032-.835 2.43-1.185v1.292a3.7 3.7 0 0 0-1.686.881 4.3 4.3 0 0 0-1.109 1.595q-.395.957-.395 2.157v2.734q0 1.17.38 2.127.395.957 1.109 1.595a4 4 0 0 0 1.701.851zm8.881-.152q-.896 0-1.549-.304a2.08 2.08 0 0 1-.973-.866q-.334-.561-.288-1.352l.152-2.491q.045-.806-.243-1.155-.29-.364-1.276-.364h-1.672v-1.215h1.672q.987 0 1.276-.35.288-.364.243-1.17l-.152-2.491q-.046-.805.288-1.367t.973-.851q.653-.303 1.549-.304h.684v1.216h-.684q-.714 0-1.094.334-.38.32-.349.972l.152 2.491q.06.988-.471 1.58-.532.578-1.504.578v-.076q.957 0 1.489.592.546.593.486 1.58l-.152 2.491q-.03.654.349.973.38.334 1.094.334h.684v1.215zm-27.326 21q-.897 0-1.55-.304a2.08 2.08 0 0 1-.972-.866q-.334-.561-.289-1.352l.152-2.491q.046-.806-.243-1.155-.288-.364-1.276-.364h-1.671v-1.215h1.671q.988 0 1.276-.35.29-.364.243-1.17l-.152-2.491q-.045-.805.289-1.367a2.1 2.1 0 0 1 .972-.851q.654-.303 1.55-.304h.683v1.216h-.683q-.714 0-1.094.334-.38.32-.349.972l.152 2.491q.06.988-.471 1.58-.532.578-1.504.578v-.076q.957 0 1.488.592.547.593.487 1.58l-.152 2.491q-.031.654.349.973.38.334 1.094.334h.683v1.215zm-87.827 21v-1.215h.683q.714 0 1.094-.334.38-.32.35-.973l-.153-2.491q-.06-.987.471-1.58.547-.592 1.504-.592v.076q-.972 0-1.504-.578-.531-.592-.47-1.58l.151-2.491q.03-.653-.349-.972-.38-.334-1.094-.334h-.683v-1.216h.683q.897 0 1.534.304.654.289.988.851t.289 1.367l-.152 2.491q-.046.806.243 1.17.288.35 1.276.35h1.67v1.215h-1.67q-.972 0-1.276.364-.29.35-.243 1.155l.152 2.491q.046.79-.29 1.352a2.07 2.07 0 0 1-.987.866q-.637.304-1.534.304zm9.564.152v-1.352a3.9 3.9 0 0 0 1.701-.851q.715-.638 1.094-1.595.395-.957.395-2.127v-2.734q0-1.2-.395-2.157a4.3 4.3 0 0 0-1.109-1.595 3.7 3.7 0 0 0-1.686-.881v-1.292q1.413.35 2.43 1.185a5.6 5.6 0 0 1 1.565 2.051q.562 1.2.562 2.689v2.734q0 2.263-1.2 3.829-1.2 1.564-3.357 2.096m51.165 21q-2.158-.532-3.358-2.096-1.2-1.566-1.2-3.829v-2.734q0-1.488.547-2.689a5.7 5.7 0 0 1 1.58-2.051q1.033-.835 2.431-1.185v1.292a3.7 3.7 0 0 0-1.687.881 4.3 4.3 0 0 0-1.109 1.595q-.395.957-.395 2.157v2.734q0 1.17.38 2.127.395.957 1.109 1.595a4 4 0 0 0 1.702.851zm8.88-.152q-.896 0-1.549-.304a2.08 2.08 0 0 1-.972-.866q-.334-.561-.289-1.352l.152-2.491q.045-.806-.243-1.155-.29-.364-1.276-.364h-1.671v-1.215h1.671q.987 0 1.276-.35.288-.364.243-1.17l-.152-2.491q-.045-.805.289-1.367t.972-.851q.653-.304 1.549-.304h.684v1.216h-.684q-.714 0-1.093.334-.38.32-.35.972l.152 2.491q.061.988-.471 1.58-.531.578-1.504.578v-.076q.958 0 1.489.592.548.593.486 1.58l-.152 2.491q-.03.654.35.973.38.334 1.093.334h.684v1.215zm36.435 21q-.896 0-1.549-.304a2.07 2.07 0 0 1-.972-.866q-.334-.561-.289-1.352l.152-2.491q.045-.806-.243-1.155-.29-.364-1.276-.364h-1.671v-1.215h1.671q.987 0 1.276-.35.288-.364.243-1.17l-.152-2.491q-.045-.805.289-1.367a2.1 2.1 0 0 1 .972-.851q.653-.304 1.549-.304h.684v1.216h-.684q-.714 0-1.093.334-.38.32-.35.972l.152 2.491q.061.988-.471 1.58-.531.578-1.504.578v-.076q.958 0 1.489.592.548.593.486 1.58l-.152 2.491q-.03.654.35.973.38.334 1.093.334h.684v1.215zm36.435 21q-.896 0-1.549-.304a2.07 2.07 0 0 1-.972-.866q-.334-.561-.289-1.352l.152-2.491q.045-.806-.243-1.155-.29-.364-1.276-.364h-1.671v-1.215h1.671q.987 0 1.276-.35.288-.364.243-1.17l-.152-2.491q-.045-.805.289-1.367a2.1 2.1 0 0 1 .972-.851q.653-.304 1.549-.304h.684v1.216h-.684q-.714 0-1.093.334-.38.32-.35.972l.152 2.491q.061.988-.471 1.58-.531.578-1.504.578v-.076q.957 0 1.489.592.547.593.486 1.58l-.152 2.491q-.03.654.35.973.38.334 1.093.334h.684v1.215zm-30.592 21v-14.28h1.367v14.28zm-39.017 21v-1.215h.683q.714 0 1.094-.334.38-.32.349-.973l-.152-2.491q-.06-.987.471-1.58.547-.592 1.504-.592v.076q-.972 0-1.504-.578-.531-.592-.471-1.58l.152-2.491q.031-.652-.349-.972-.38-.334-1.094-.334h-.683v-1.216h.683q.897 0 1.534.304.654.289.988.851t.288 1.367l-.151 2.491q-.046.806.243 1.17.288.35 1.276.35h1.671v1.215h-1.671q-.973 0-1.276.364-.29.35-.243 1.155l.151 2.491q.047.79-.288 1.352a2.07 2.07 0 0 1-.988.866q-.637.304-1.534.304zm-36.435 21v-1.215h.683q.714 0 1.094-.334.38-.32.349-.973l-.152-2.491q-.06-.987.471-1.58.547-.592 1.504-.592v.076q-.972 0-1.504-.578-.531-.592-.471-1.58l.152-2.491q.031-.653-.349-.972-.38-.334-1.094-.334h-.683v-1.216h.683q.897 0 1.534.304.654.289.988.851t.289 1.367l-.152 2.491q-.047.805.243 1.17.288.35 1.276.35h1.671v1.215h-1.671q-.972 0-1.276.364-.29.35-.243 1.155l.152 2.491q.045.79-.289 1.352a2.07 2.07 0 0 1-.988.866q-.637.304-1.534.304zm-36.435 21v-1.215h.683q.714 0 1.094-.334.38-.32.35-.973l-.153-2.491q-.06-.987.471-1.58.547-.592 1.504-.592v.076q-.972 0-1.504-.578-.531-.592-.47-1.58l.151-2.491q.03-.653-.349-.972-.38-.334-1.094-.334h-.683v-1.216h.683q.897 0 1.534.304.654.289.988.851t.289 1.367l-.152 2.491q-.046.805.243 1.17.288.35 1.276.35h1.67v1.215h-1.67q-.972 0-1.276.364-.29.35-.243 1.155l.152 2.491q.046.79-.29 1.352a2.07 2.07 0 0 1-.987.866q-.637.304-1.534.304zm9.564.152v-1.352a3.9 3.9 0 0 0 1.701-.851q.715-.638 1.094-1.595.395-.957.395-2.127v-2.734q0-1.2-.395-2.157a4.3 4.3 0 0 0-1.109-1.595 3.7 3.7 0 0 0-1.686-.881v-1.292q1.413.35 2.43 1.185a5.6 5.6 0 0 1 1.565 2.051q.562 1.2.562 2.689v2.734q0 2.263-1.2 3.829-1.2 1.564-3.357 2.096"/><path fill="#ed8936" d="m229.406 130.806-.182-2.279v-2.279h1.473v2.279l-.167 2.279zm9.018 6.684q-1.322 0-2.081-.668-.76-.684-.76-1.839 0-1.169.76-1.838.76-.668 2.05-.668h2.583v-.836q0-.774-.471-1.185-.456-.425-1.306-.425-.745 0-1.246.319-.501.304-.577.836h-1.368a2.42 2.42 0 0 1 1.018-1.717q.882-.638 2.203-.638 1.443 0 2.279.744.835.745.835 2.021v5.742h-1.337v-1.595h-.228l.228-.228q0 .912-.714 1.443-.698.532-1.868.532m.334-1.079q.972 0 1.595-.486t.623-1.245v-1.185h-2.552q-.684 0-1.079.379-.395.38-.395 1.033 0 .7.471 1.109.486.396 1.337.395m10.643.927q-.729 0-1.276-.289a2.07 2.07 0 0 1-.851-.82q-.303-.532-.303-1.246v-7.489h-2.811v-1.246h4.178v8.735q0 .517.288.821.29.288.775.288h2.659v1.246zm4.703 0v-1.246h2.963v-5.863h-2.583v-1.246h3.95v7.109h2.81v1.246zm3.494-9.859q-.5 0-.79-.258-.288-.258-.288-.699 0-.456.288-.714.29-.273.79-.273.502 0 .79.273.29.258.289.714 0 .441-.289.699-.288.258-.79.258m8.942 10.011q-1.002 0-1.762-.38a2.74 2.74 0 0 1-1.155-1.094q-.41-.729-.41-1.716v-2.279q0-1.002.41-1.716a2.74 2.74 0 0 1 1.155-1.094q.76-.38 1.762-.38 1.443 0 2.324.775.882.774.927 2.111h-1.367q-.046-.805-.547-1.23-.486-.441-1.337-.441-.897 0-1.428.517-.531.501-.532 1.443v2.294q0 .942.532 1.458.531.517 1.428.517.85 0 1.337-.441.5-.441.547-1.23h1.367q-.045 1.337-.927 2.111-.88.775-2.324.775m9.048 0q-.988 0-1.732-.395a2.85 2.85 0 0 1-1.139-1.109q-.395-.729-.395-1.686v-2.279q0-.972.395-1.686a2.85 2.85 0 0 1 1.139-1.109q.745-.395 1.732-.395t1.717.395q.744.395 1.139 1.109.41.714.41 1.686v1.474h-5.195v.805q0 .987.501 1.519.501.516 1.428.516.79 0 1.276-.273.487-.288.592-.851h1.368q-.137 1.049-1.033 1.671-.882.608-2.203.608m1.929-4.907v-.562q0-.987-.501-1.519-.486-.532-1.428-.532-.927 0-1.428.532-.501.531-.501 1.519v.441h3.965zm7.559 7.489q-1.29 0-2.248-.546a3.7 3.7 0 0 1-1.489-1.535q-.516-.987-.516-2.324v-5.165q0-1.367.486-2.355a3.6 3.6 0 0 1 1.413-1.519q.927-.531 2.203-.531 1.154 0 1.99.455.835.44 1.276 1.276.455.836.455 1.99v6.533h-1.078v-.836h-.426l.289-.304q0 .577-.44.942-.441.35-1.17.35-.988 0-1.519-.593-.517-.607-.517-1.762v-1.823q0-1.155.517-1.747.531-.608 1.519-.608.729 0 1.17.365.44.35.44.942l-.213-.319h.365l-.152-1.064v-.076q0-.865-.289-1.458a1.97 1.97 0 0 0-.85-.896q-.548-.304-1.367-.304-1.368 0-2.127.881-.76.881-.76 2.461v5.165q0 1.52.805 2.385.821.88 2.233.881h1.064v1.139zm1.14-4.527q.623 0 .911-.379.304-.38.304-1.17v-1.686q0-.714-.304-1.048-.288-.335-.911-.335-.608 0-.912.35-.303.334-.303 1.048v1.823q0 .714.303 1.063.305.334.912.334m4.43 4.527v-11.089h1.367v1.595h.273l-.273.319q0-.957.623-1.504.637-.562 1.671-.562 1.26 0 2.005.835.76.82.76 2.264v2.446q0 .957-.35 1.656a2.5 2.5 0 0 1-.957 1.078q-.608.38-1.458.38-1.019 0-1.656-.562-.638-.562-.638-1.504l.273.319h-.303l.03 1.899v2.43zm3.205-3.767q.866 0 1.352-.516.501-.517.501-1.489v-2.279q0-.972-.501-1.489-.486-.516-1.352-.516-.836 0-1.337.532-.501.531-.501 1.473v2.279q0 .942.501 1.473t1.337.532m6.192 1.033v-8.355h1.337v1.595h.319l-.441.987q0-1.351.578-2.035.592-.699 1.747-.699 1.321 0 2.096.835.79.82.79 2.234v.501h-1.367v-.38q0-.987-.486-1.504-.471-.531-1.352-.531-.866 0-1.368.531-.486.532-.486 1.504v5.317zm8.714 0v-1.246h2.962v-5.863h-2.582v-1.246h3.949v7.109h2.811v1.246zm3.494-9.859q-.502 0-.79-.258-.29-.258-.289-.699 0-.456.289-.714.288-.273.79-.273.5 0 .79.273.288.258.288.714 0 .441-.288.699-.29.258-.79.258m8.622 9.981q-.85 0-1.488-.259a2.5 2.5 0 0 1-1.003-.759 2.3 2.3 0 0 1-.44-1.155h1.367q.091.441.486.699.41.258 1.078.258h.638q.805 0 1.201-.319.395-.334.395-.881 0-.532-.365-.835-.35-.32-1.048-.426l-1.124-.182q-1.23-.213-1.839-.76-.591-.561-.592-1.625 0-1.124.714-1.732.714-.623 2.142-.623h.577q1.2 0 1.929.562t.882 1.52h-1.368a.97.97 0 0 0-.455-.623q-.365-.243-.988-.243h-.577q-.775 0-1.139.288-.35.289-.35.866 0 .517.304.76.305.243.957.349l1.124.182q1.353.214 1.96.79.623.577.623 1.671 0 1.155-.745 1.823-.729.654-2.218.654zm5.813-.122v-8.355h1.2v1.003h.273l-.212.364q0-.699.364-1.109.38-.41 1.018-.41.699 0 1.079.516.38.517.379 1.459l-.41-.82h.638l-.288.364q0-.699.379-1.109.396-.41 1.033-.41.79 0 1.216.592.44.593.44 1.565v6.35h-1.261v-6.365q0-.517-.228-.805-.212-.29-.638-.289a.81.81 0 0 0-.653.289q-.228.273-.228.79v6.38h-1.093v-6.365q0-.532-.244-.805-.227-.29-.653-.289-.425 0-.638.289-.212.273-.212.79v6.38zm11.934.152q-1.322 0-2.081-.668-.76-.684-.76-1.839 0-1.169.76-1.838.76-.668 2.051-.668h2.582v-.836q0-.774-.471-1.185-.456-.425-1.306-.425-.745 0-1.246.319-.502.304-.577.836h-1.367a2.4 2.4 0 0 1 1.017-1.717q.882-.638 2.203-.638 1.443 0 2.279.744.835.745.835 2.021v5.742h-1.337v-1.595h-.227l.227-.228q0 .912-.714 1.443-.698.532-1.868.532m.334-1.079q.972 0 1.595-.486t.623-1.245v-1.185h-2.552q-.683 0-1.079.379-.395.38-.395 1.033 0 .7.471 1.109.486.396 1.337.395m9.504 1.079q-.578 0-.927-.334-.334-.334-.334-.897 0-.592.334-.941.35-.35.927-.35t.911.35q.35.349.35.941 0 .563-.35.897-.333.334-.911.334m5.843-.152v-1.246h2.962v-5.863h-2.583v-1.246h3.95v7.109h2.81v1.246zm3.493-9.859q-.501 0-.789-.258-.29-.258-.289-.699 0-.456.289-.714.288-.273.789-.273t.79.273q.29.258.289.714 0 .441-.289.699-.288.258-.79.258m8.881 9.981q-1.002 0-1.731-.38a2.76 2.76 0 0 1-1.14-1.094q-.395-.729-.395-1.717v-2.217q0-1.003.395-1.717a2.76 2.76 0 0 1 1.14-1.094q.729-.38 1.731-.38t1.732.38a2.66 2.66 0 0 1 1.124 1.094q.41.714.41 1.701v2.233q0 .988-.41 1.717a2.66 2.66 0 0 1-1.124 1.094q-.729.38-1.732.38m0-1.216q.897 0 1.398-.501.501-.5.501-1.474v-2.217q0-.973-.501-1.474t-1.398-.501q-.88 0-1.397.501-.502.5-.502 1.474v2.217q0 .973.502 1.474.516.501 1.397.501m8.471-5.438-.182-2.279v-2.279h1.473v2.279l-.167 2.279z"/><path fill="#f9fafb" stroke="#718096" stroke-width="1.012" d="M206.057 242.266h211.132a5.564 5.564 0 0 1 5.564 5.563v110.633a5.564 5.564 0 0 1-5.564 5.564H206.057a5.564 5.564 0 0 1-5.564-5.564V247.829a5.564 5.564 0 0 1 5.564-5.563Z"/><path fill="#718096" d="M199.987 247.829a6.07 6.07 0 0 1 6.07-6.069H417.19a6.07 6.07 0 0 1 6.069 6.069v18.901H199.987z" opacity=".82"/><path stroke="#a3bffa" stroke-linecap="round" stroke-linejoin="round" stroke-width="1.517" d="M221.52 256.685v-5.396a1.35 1.35 0 0 0-.673-1.166l-4.721-2.698a1.36 1.36 0 0 0-1.349 0l-4.72 2.698a1.35 1.35 0 0 0-.675 1.166v5.396a1.35 1.35 0 0 0 .675 1.166l4.72 2.698a1.35 1.35 0 0 0 1.349 0l4.721-2.698a1.35 1.35 0 0 0 .673-1.166"/><path stroke="#a3bffa" stroke-linecap="round" stroke-linejoin="round" stroke-width="1.517" d="m209.564 250.587 5.888 3.406 5.887-3.406m-5.892 10.197v-6.797"/><path fill="#cbd5e0" d="M232.598 259.057q-.687 0-1.153-.269a2.2 2.2 0 0 1-.735-.719 3 3 0 0 1-.411-.981 5.3 5.3 0 0 1-.118-1.113v-.332q0-.553.118-1.099.127-.546.411-.988a2.2 2.2 0 0 1 .742-.703q.467-.276 1.146-.277.444 0 .823.151.387.15.663.41.277.261.435.609.165.34.174.727h1.383q0-.648-.261-1.217a3.1 3.1 0 0 0-.719-.988 3.5 3.5 0 0 0-1.107-.648 3.8 3.8 0 0 0-1.391-.245q-.971 0-1.698.348a3.5 3.5 0 0 0-1.21.933 4 4 0 0 0-.734 1.366 5.3 5.3 0 0 0-.245 1.621v.332q0 .852.245 1.627.244.767.734 1.352.482.593 1.21.94.727.348 1.698.348a3.77 3.77 0 0 0 2.411-.861q.481-.387.766-.902.294-.521.301-1.09h-1.383a1.35 1.35 0 0 1-.19.663 1.7 1.7 0 0 1-.466.522 2.2 2.2 0 0 1-.672.356 2.4 2.4 0 0 1-.767.127m5.667-3.327v.173q0 .925.268 1.715.27.791.775 1.375.498.586 1.217.917a3.9 3.9 0 0 0 1.635.332q.901 0 1.621-.332a3.6 3.6 0 0 0 1.225-.917q.498-.584.766-1.375a5.3 5.3 0 0 0 .269-1.715v-.173q0-.925-.269-1.716a4.1 4.1 0 0 0-.766-1.382 3.6 3.6 0 0 0-1.233-.917q-.72-.34-1.628-.34-.901 0-1.62.34-.72.333-1.217.917-.505.584-.775 1.382a5.3 5.3 0 0 0-.268 1.716m1.462.173v-.173q0-.625.15-1.194.15-.577.458-1.011.301-.435.751-.688.45-.261 1.059-.261t1.059.261q.459.253.766.688.3.434.451 1.011.158.57.158 1.194v.173q0 .633-.15 1.21-.15.568-.451 1.003-.307.434-.767.688-.449.252-1.051.253a2.2 2.2 0 0 1-1.066-.253 2.2 2.2 0 0 1-.759-.688 3.1 3.1 0 0 1-.458-1.003q-.15-.577-.15-1.21m8.668 4.181h1.463v-6.132q.15-.277.348-.506.205-.229.442-.404a2.5 2.5 0 0 1 .64-.307q.348-.12.751-.12.466 0 .822.112.363.11.616.355.245.246.372.64.126.396.126.964v5.398h1.462v-5.429q0-.853-.214-1.47a2.64 2.64 0 0 0-.592-1.028 2.35 2.35 0 0 0-.94-.593 3.7 3.7 0 0 0-1.217-.189 3.33 3.33 0 0 0-1.77.537q-.254.167-.483.396-.22.221-.41.489l-.104-1.264h-1.312zm13.183-10.622h-1.47v2.071h-2.245v1.13h2.245v4.647q0 .79.205 1.351.213.554.577.902.364.354.854.521.496.158 1.066.158a7.4 7.4 0 0 0 1.336-.126q.307-.055.568-.135.261-.087.443-.198l-.205-1.035q-.134.033-.348.079a14 14 0 0 1-.941.151 6 6 0 0 1-.489.023 2.3 2.3 0 0 1-.617-.079 1.26 1.26 0 0 1-.853-.79q-.127-.324-.126-.822v-4.647h3.255v-1.13h-3.255zm11.877 10.622h1.525v-.127a4 4 0 0 1-.221-.829 5.6 5.6 0 0 1-.079-.909v-3.975q0-.719-.261-1.256a2.6 2.6 0 0 0-.711-.902 3.1 3.1 0 0 0-1.082-.529 4.8 4.8 0 0 0-1.352-.182q-.798 0-1.43.222-.625.22-1.059.576a2.65 2.65 0 0 0-.68.815q-.23.45-.238.916h1.471q0-.268.127-.514.134-.253.371-.435.237-.18.576-.292.348-.11.783-.11.466 0 .838.118.38.119.639.332a1.54 1.54 0 0 1 .546 1.225v.671h-1.597q-.893 0-1.619.174-.72.175-1.233.522a2.5 2.5 0 0 0-.798.885q-.277.53-.277 1.234 0 .536.206 1.003.212.457.6.79.379.34.925.537a3.6 3.6 0 0 0 1.232.198q.419 0 .791-.087.371-.087.703-.237.324-.15.593-.348.276-.198.498-.419.024.268.07.522.057.245.143.411m-2.584-1.114q-.427 0-.751-.111a1.5 1.5 0 0 1-.537-.308 1.2 1.2 0 0 1-.325-.458 1.6 1.6 0 0 1-.102-.586q0-.331.118-.593.127-.26.364-.45.332-.268.893-.394.569-.135 1.328-.135h1.359v1.731q-.127.252-.348.49a2.6 2.6 0 0 1-.522.41 3 3 0 0 1-.679.293 2.8 2.8 0 0 1-.798.111m6.914-7.437v1.273h2.909v6.013h-2.909v1.265h7.16v-1.265h-2.79v-7.286zm2.719-2.245q0 .357.214.593.22.238.663.238.434 0 .656-.238a.83.83 0 0 0 .221-.593 1 1 0 0 0-.062-.363.7.7 0 0 0-.19-.276.7.7 0 0 0-.261-.159 1 1 0 0 0-.364-.062q-.205 0-.371.062a.75.75 0 0 0-.451.443 1.1 1.1 0 0 0-.055.355m6.773 10.796h1.461v-6.132q.151-.277.348-.506.206-.229.443-.404.292-.196.64-.307a2.3 2.3 0 0 1 .751-.12q.466 0 .822.112.363.11.616.355.245.246.372.64.126.396.126.964v5.398h1.462v-5.429q0-.853-.213-1.47a2.66 2.66 0 0 0-.593-1.028 2.34 2.34 0 0 0-.941-.593 3.7 3.7 0 0 0-1.217-.189 3.33 3.33 0 0 0-1.77.537 3 3 0 0 0-.481.396 3.7 3.7 0 0 0-.412.489l-.102-1.264h-1.312zm15.402-2.268a1 1 0 0 1-.08.387 1.1 1.1 0 0 1-.228.332q-.246.244-.68.387-.434.134-1.02.135a3.7 3.7 0 0 1-.75-.079 2.2 2.2 0 0 1-.688-.269 1.7 1.7 0 0 1-.529-.498 1.53 1.53 0 0 1-.238-.758h-1.461q0 .544.244 1.051.254.505.728.885.466.387 1.146.624.68.228 1.548.229.76 0 1.399-.182a3.5 3.5 0 0 0 1.099-.514q.457-.332.711-.798.261-.465.261-1.034 0-.53-.23-.933a2.16 2.16 0 0 0-.647-.711 4.2 4.2 0 0 0-1.051-.514 11 11 0 0 0-1.415-.387 9 9 0 0 1-.995-.245 2.4 2.4 0 0 1-.618-.286.9.9 0 0 1-.331-.355 1 1 0 0 1-.094-.45q0-.245.118-.474t.355-.404q.229-.173.578-.276.354-.103.821-.103.45 0 .806.126.364.127.616.333.253.206.396.474.142.26.142.538h1.462q0-.563-.245-1.044a2.5 2.5 0 0 0-.68-.853 3.2 3.2 0 0 0-1.075-.569 4.6 4.6 0 0 0-1.422-.206q-.736 0-1.351.198-.609.197-1.051.537a2.45 2.45 0 0 0-.688.799 2 2 0 0 0-.245.971q0 .53.238.932.236.396.671.688.427.301 1.027.514.61.213 1.343.363a6.6 6.6 0 0 1 1.005.269q.402.143.647.316.245.175.348.387.103.206.103.467"/><path stroke="#5a67d8" stroke-linecap="round" stroke-linejoin="round" stroke-width="1.517" d="M221.52 278.938v-5.396a1.35 1.35 0 0 0-.673-1.166l-4.721-2.698a1.36 1.36 0 0 0-1.349 0l-4.72 2.698a1.35 1.35 0 0 0-.675 1.166v5.396a1.35 1.35 0 0 0 .675 1.166l4.72 2.698a1.35 1.35 0 0 0 1.349 0l4.721-2.698a1.35 1.35 0 0 0 .673-1.166"/><path stroke="#5a67d8" stroke-linecap="round" stroke-linejoin="round" stroke-width="1.517" d="m209.564 272.841 5.888 3.406 5.887-3.406m-5.892 10.197v-6.797"/><path fill="#718096" d="M232.738 282.496q1.248 0 2.094-.499.854-.505 1.28-1.153l-.893-.696a3 3 0 0 1-1.011.837q-.608.317-1.391.317-.593 0-1.083-.222a2.5 2.5 0 0 1-.837-.607 2.8 2.8 0 0 1-.537-.839 3.9 3.9 0 0 1-.246-1.099v-.054h6.109v-.657q0-.892-.229-1.659a3.8 3.8 0 0 0-.68-1.336 3.16 3.16 0 0 0-1.154-.877q-.687-.323-1.611-.324-.736 0-1.439.301a3.8 3.8 0 0 0-1.241.861 4.3 4.3 0 0 0-.885 1.391q-.332.814-.332 1.849v.332q0 .893.301 1.651.3.76.837 1.312a3.8 3.8 0 0 0 1.288.862 4.4 4.4 0 0 0 1.66.309m-.189-7.667q.56 0 .964.207.41.204.68.537.268.331.418.79.15.45.15.845v.071h-4.599q.085-.591.3-1.043.222-.457.537-.775.317-.307.711-.466.395-.165.839-.166m6.132 7.508h1.461v-6.132q.15-.277.348-.506.207-.229.443-.404.292-.196.64-.307.348-.119.751-.119.467 0 .822.111.363.11.617.355.243.246.371.64.126.396.126.964v5.398h1.462v-5.429q0-.853-.213-1.47a2.66 2.66 0 0 0-.593-1.028 2.3 2.3 0 0 0-.941-.592 3.7 3.7 0 0 0-1.217-.19 3.4 3.4 0 0 0-.948.15 3.1 3.1 0 0 0-1.303.783 4 4 0 0 0-.411.49l-.103-1.265h-1.312zm9.443-4.347v.166q0 .918.245 1.716.246.79.688 1.374.442.586 1.067.917.632.332 1.406.333.79 0 1.383-.269a2.8 2.8 0 0 0 1.02-.79l.063.9h1.344v-12.139h-1.462v4.434a2.75 2.75 0 0 0-.996-.743q-.57-.261-1.336-.261a3.1 3.1 0 0 0-1.415.324 3.2 3.2 0 0 0-1.074.901 4.2 4.2 0 0 0-.696 1.383 6.1 6.1 0 0 0-.237 1.754m1.462.166v-.166q0-.624.135-1.184.135-.57.418-1.005a2.1 2.1 0 0 1 .711-.679q.444-.252 1.06-.253.719 0 1.201.339.482.332.767.854v3.967a2.36 2.36 0 0 1-.767.894q-.482.331-1.217.331-.608 0-1.044-.244a2.1 2.1 0 0 1-.711-.68 3 3 0 0 1-.418-.988 5 5 0 0 1-.135-1.186m14.217 1.913a1 1 0 0 1-.079.387 1.1 1.1 0 0 1-.229.332q-.245.244-.68.388a3.5 3.5 0 0 1-1.019.134q-.372 0-.751-.079a2.1 2.1 0 0 1-.687-.269 1.7 1.7 0 0 1-.53-.498 1.53 1.53 0 0 1-.237-.758h-1.462q0 .544.245 1.051.252.505.728.885.464.387 1.145.624.68.23 1.549.23.759 0 1.398-.182a3.5 3.5 0 0 0 1.099-.514q.458-.333.712-.798.26-.466.26-1.035 0-.53-.229-.933a2.2 2.2 0 0 0-.648-.711 4.1 4.1 0 0 0-1.051-.514 11 11 0 0 0-1.414-.387 9 9 0 0 1-.997-.245 2.4 2.4 0 0 1-.616-.285.9.9 0 0 1-.331-.355 1 1 0 0 1-.096-.45q0-.246.119-.475t.356-.404q.23-.173.576-.276a3 3 0 0 1 .823-.103q.449 0 .805.127.364.127.617.332.252.206.395.474.142.26.142.538h1.462q0-.561-.245-1.044a2.5 2.5 0 0 0-.68-.853 3.2 3.2 0 0 0-1.074-.569 4.6 4.6 0 0 0-1.422-.206q-.736 0-1.352.198-.608.197-1.051.537a2.4 2.4 0 0 0-.687.799 2 2 0 0 0-.245.971q0 .53.236.933.238.395.672.688.426.3 1.028.513.608.213 1.343.364a6.4 6.4 0 0 1 1.004.269q.403.143.648.315.245.175.347.388.103.205.103.466m4.639 2.268h1.501l1.407-8.179.087-.49.079.482 1.399 8.187h1.493l1.399-11.506h-1.383l-.829 7.918-.048.474-.087-.466-1.399-7.926h-1.272l-1.391 7.918-.087.474-.048-.458-.829-7.934h-1.391zm9.349-8.551v1.273h2.908v6.013h-2.908v1.265h7.159v-1.265h-2.79v-7.286zm2.719-2.244q0 .356.213.592.22.238.664.238.433 0 .655-.238a.83.83 0 0 0 .222-.592q0-.198-.063-.363a.7.7 0 0 0-.19-.277.7.7 0 0 0-.261-.158 1 1 0 0 0-.363-.063 1 1 0 0 0-.372.063.74.74 0 0 0-.451.443q-.054.165-.054.355m10.233.174h-1.469v2.07h-2.245v1.13h2.245v4.647q-.001.79.205 1.352.214.553.576.901.364.356.854.521a3.5 3.5 0 0 0 1.067.159 7.3 7.3 0 0 0 1.336-.127 5 5 0 0 0 .568-.134q.261-.088.443-.199l-.205-1.034-.348.078a14 14 0 0 1-.941.151 6 6 0 0 1-.489.023q-.325 0-.617-.078a1.2 1.2 0 0 1-.505-.278 1.26 1.26 0 0 1-.348-.512q-.127-.325-.127-.823v-4.647h3.256v-1.13h-3.256zm7.721 3.343v-4.861h-1.462v12.139h1.462v-6.211q.159-.254.355-.458.207-.214.443-.373a2.5 2.5 0 0 1 1.406-.426q.482-.007.854.134.372.135.616.412.23.252.348.639.119.38.119.885v5.398h1.462v-5.382q0-.86-.213-1.486a2.74 2.74 0 0 0-.593-1.042 2.3 2.3 0 0 0-.941-.601 3.54 3.54 0 0 0-2.189-.048q-.45.143-.829.419-.238.167-.451.387a3 3 0 0 0-.387.475"/><path stroke="#5a67d8" stroke-linecap="round" stroke-linejoin="round" stroke-width="1.517" d="M221.52 301.192v-5.395a1.36 1.36 0 0 0-.673-1.167l-4.721-2.697a1.35 1.35 0 0 0-1.349 0l-4.72 2.697a1.35 1.35 0 0 0-.675 1.167v5.395c.001.237.063.469.181.674.118.204.289.374.494.493l4.72 2.697a1.35 1.35 0 0 0 1.349 0l4.721-2.697a1.36 1.36 0 0 0 .673-1.167"/><path stroke="#5a67d8" stroke-linecap="round" stroke-linejoin="round" stroke-width="1.517" d="m209.564 295.094 5.888 3.406 5.887-3.406m-5.892 10.198v-6.798"/><path fill="#718096" d="M232.738 304.75q1.248 0 2.094-.499.854-.505 1.28-1.153l-.893-.696a3 3 0 0 1-1.011.838q-.608.316-1.391.316-.593 0-1.083-.221a2.5 2.5 0 0 1-.837-.608 2.8 2.8 0 0 1-.537-.839 3.9 3.9 0 0 1-.246-1.098v-.055h6.109v-.657q0-.892-.229-1.658a3.8 3.8 0 0 0-.68-1.337 3.16 3.16 0 0 0-1.154-.877q-.687-.323-1.611-.323-.736 0-1.439.3-.695.3-1.241.861a4.3 4.3 0 0 0-.885 1.391q-.332.814-.332 1.849v.333q0 .892.301 1.65.3.76.837 1.312.538.555 1.288.862a4.4 4.4 0 0 0 1.66.309m-.189-7.667q.56 0 .964.207.41.204.68.537.268.331.418.79.15.45.15.845v.071h-4.599q.085-.591.3-1.043.222-.457.537-.774.317-.308.711-.467.395-.166.839-.166m5.863 3.161v.166q0 .918.229 1.716.237.79.68 1.374.442.586 1.074.917a3.1 3.1 0 0 0 1.455.333q.419-.001.782-.08.363-.08.671-.229.245-.111.452-.269.212-.157.402-.355v4.061h1.462V296.04h-1.344l-.062.846a3 3 0 0 0-.356-.348 2.7 2.7 0 0 0-.403-.276 2.7 2.7 0 0 0-.735-.284 3.6 3.6 0 0 0-.853-.095 3.26 3.26 0 0 0-1.471.323 3.15 3.15 0 0 0-1.082.902 4.1 4.1 0 0 0-.672 1.382 6.3 6.3 0 0 0-.229 1.754m1.462.166v-.166q0-.623.135-1.192.142-.57.434-1.012.285-.435.727-.696t1.051-.261q.34 0 .624.087.292.08.538.23.237.15.426.355.199.197.348.443v4.22a3 3 0 0 1-.355.482 2 2 0 0 1-.451.364 2.3 2.3 0 0 1-1.146.292q-.609 0-1.051-.253a2.2 2.2 0 0 1-.719-.696 3.3 3.3 0 0 1-.426-1.003 5.2 5.2 0 0 1-.135-1.194m14.162 4.181h1.327v-8.551h-1.47v6.133a2.4 2.4 0 0 1-.3.513 1.8 1.8 0 0 1-.411.396 2.3 2.3 0 0 1-.672.323 3.2 3.2 0 0 1-.877.112q-.419 0-.743-.112a1.17 1.17 0 0 1-.537-.386q-.222-.27-.332-.727-.11-.459-.11-1.154v-5.098h-1.463v5.082q0 .956.205 1.644.214.679.601 1.122.388.443.933.655.545.207 1.217.207.837 0 1.478-.348a3.1 3.1 0 0 0 1.067-.988zm9.704 0h1.525v-.127a4 4 0 0 1-.221-.829 5.6 5.6 0 0 1-.08-.908v-3.976q0-.719-.26-1.256a2.6 2.6 0 0 0-.711-.901 3.1 3.1 0 0 0-1.083-.529 4.8 4.8 0 0 0-1.351-.182q-.799 0-1.431.221a3.5 3.5 0 0 0-1.059.577 2.7 2.7 0 0 0-.68.814q-.228.45-.236.916h1.469q0-.268.127-.513a1.3 1.3 0 0 1 .371-.435q.238-.182.578-.293a2.6 2.6 0 0 1 .782-.11q.465 0 .837.118a1.9 1.9 0 0 1 .64.332q.261.222.404.53.142.309.142.695v.672h-1.596q-.893 0-1.621.174-.719.174-1.232.522a2.5 2.5 0 0 0-.798.885q-.277.53-.277 1.233 0 .537.205 1.003.214.459.601.79.38.34.924.537.554.199 1.234.199a3.5 3.5 0 0 0 1.493-.325q.324-.15.592-.348a4 4 0 0 0 .499-.419q.023.269.071.522.055.245.142.411m-2.584-1.114q-.427 0-.751-.111a1.5 1.5 0 0 1-.538-.308 1.2 1.2 0 0 1-.323-.458 1.6 1.6 0 0 1-.103-.585q0-.332.119-.593.126-.26.363-.45.332-.269.893-.395a5.8 5.8 0 0 1 1.327-.134h1.36v1.73a2.1 2.1 0 0 1-.348.49 2.6 2.6 0 0 1-.521.411 3 3 0 0 1-.68.292 2.8 2.8 0 0 1-.798.111m6.915-11.024v1.272h2.908v9.602h-2.908v1.264h7.159v-1.264h-2.789v-10.874zm15.173 9.87a1 1 0 0 1-.079.387q-.08.183-.23.332-.244.245-.679.388-.435.134-1.02.134-.371 0-.751-.079a2.1 2.1 0 0 1-.686-.269 1.7 1.7 0 0 1-.531-.497 1.55 1.55 0 0 1-.236-.759h-1.463q0 .544.246 1.051.253.506.726.885.467.387 1.146.624.68.23 1.549.23.759 0 1.399-.182a3.5 3.5 0 0 0 1.098-.514q.46-.333.711-.798.261-.466.261-1.035a1.85 1.85 0 0 0-.228-.933 2.2 2.2 0 0 0-.649-.711 4.2 4.2 0 0 0-1.051-.514 11 11 0 0 0-1.415-.387 9 9 0 0 1-.995-.245 2.4 2.4 0 0 1-.616-.285.9.9 0 0 1-.332-.355 1 1 0 0 1-.095-.45q0-.246.118-.475t.357-.403q.228-.174.576-.277.356-.102.821-.103.451 0 .807.127.363.127.617.333.252.204.394.473.143.26.143.538h1.461q0-.561-.244-1.044a2.5 2.5 0 0 0-.68-.853 3.3 3.3 0 0 0-1.074-.569 4.6 4.6 0 0 0-1.424-.205q-.733 0-1.351.197-.609.196-1.051.537a2.5 2.5 0 0 0-.687.799q-.246.45-.246.971 0 .53.238.933.236.395.672.688.426.3 1.028.514.607.212 1.343.363.599.119 1.003.269.403.142.648.315.245.175.348.388.102.205.103.466"/><path stroke="#5a67d8" stroke-linecap="round" stroke-linejoin="round" stroke-width="1.517" d="M221.52 323.445v-5.395a1.35 1.35 0 0 0-.673-1.166l-4.721-2.698a1.35 1.35 0 0 0-1.349 0l-4.72 2.698a1.34 1.34 0 0 0-.675 1.166v5.395c.001.237.063.469.181.674.118.204.289.374.494.493l4.72 2.697a1.35 1.35 0 0 0 1.349 0l4.721-2.697a1.36 1.36 0 0 0 .673-1.167"/><path stroke="#5a67d8" stroke-linecap="round" stroke-linejoin="round" stroke-width="1.517" d="m209.564 317.348 5.888 3.406 5.887-3.406m-5.892 10.198v-6.797"/><path fill="#718096" d="M228.692 322.498v.166q0 .918.237 1.716.238.79.68 1.374.434.586 1.067.917a3 3 0 0 0 1.414.333q.467 0 .87-.104.403-.094.734-.276.215-.12.396-.277.19-.158.356-.348v.736q0 .551-.159.98a1.9 1.9 0 0 1-.45.711q-.3.291-.719.442-.419.15-.941.151-.291 0-.585-.064a2.6 2.6 0 0 1-.584-.189 2.8 2.8 0 0 1-.577-.364 3.6 3.6 0 0 1-.553-.546l-.759.877q.293.42.695.704.412.285.854.451.435.174.862.244.426.08.758.079.806 0 1.47-.237a3.2 3.2 0 0 0 1.146-.694q.474-.46.735-1.115.269-.656.269-1.501v-8.37h-1.328l-.071.933a2.9 2.9 0 0 0-.68-.624 2.7 2.7 0 0 0-.782-.348 3.5 3.5 0 0 0-.941-.119q-.798 0-1.43.324-.633.325-1.074.901a4.2 4.2 0 0 0-.68 1.383 6.3 6.3 0 0 0-.23 1.754m1.462.166v-.166q0-.623.126-1.184.136-.57.419-1.005.277-.427.712-.679.443-.252 1.058-.253.365 0 .665.095.3.086.545.245.245.166.434.387.19.22.333.491v3.919a2.8 2.8 0 0 1-.333.506 2.1 2.1 0 0 1-.426.394 2 2 0 0 1-.553.261q-.3.087-.68.087-.608 0-1.043-.244a2.1 2.1 0 0 1-.712-.68 3.1 3.1 0 0 1-.419-.988 5.5 5.5 0 0 1-.126-1.186m11.989-6.44h-1.47v2.07h-2.245v1.13h2.245v4.647q0 .79.205 1.352.214.553.577.901.364.356.854.521.497.158 1.067.159a7.4 7.4 0 0 0 1.335-.127q.308-.056.57-.134.258-.088.442-.199l-.206-1.034q-.134.032-.348.078a14 14 0 0 1-.94.151 6 6 0 0 1-.49.023q-.325 0-.616-.078a1.25 1.25 0 0 1-.506-.278 1.26 1.26 0 0 1-.348-.512q-.126-.325-.126-.823v-4.647h3.256v-1.13h-3.256z"/><path stroke="#5a67d8" stroke-linecap="round" stroke-linejoin="round" stroke-width="1.517" d="M221.52 345.7v-5.396a1.35 1.35 0 0 0-.673-1.166l-4.721-2.698a1.36 1.36 0 0 0-1.349 0l-4.72 2.698a1.35 1.35 0 0 0-.675 1.166v5.396a1.35 1.35 0 0 0 .675 1.166l4.72 2.698a1.35 1.35 0 0 0 1.349 0l4.721-2.698a1.35 1.35 0 0 0 .673-1.166"/><path stroke="#5a67d8" stroke-linecap="round" stroke-linejoin="round" stroke-width="1.517" d="m209.564 339.602 5.888 3.406 5.887-3.406m-5.892 10.197v-6.797"/><path fill="#718096" d="M228.692 344.752v.166q0 .918.237 1.716.238.79.68 1.375.434.586 1.067.916a3 3 0 0 0 1.414.333q.467 0 .87-.103.403-.096.734-.276.215-.12.396-.278.19-.158.356-.348v.736q0 .552-.159.98a1.9 1.9 0 0 1-.45.711q-.3.291-.719.442-.419.15-.941.151-.291 0-.585-.064a2.5 2.5 0 0 1-.584-.189 2.8 2.8 0 0 1-.577-.364 3.6 3.6 0 0 1-.553-.545l-.759.877q.293.418.695.704.412.284.854.45.435.173.862.245.426.078.758.078.806 0 1.47-.236.664-.237 1.146-.695.474-.46.735-1.115.269-.656.269-1.501v-8.369h-1.328l-.071.932a3 3 0 0 0-.324-.348 2.7 2.7 0 0 0-1.138-.624 3.5 3.5 0 0 0-.941-.118q-.798 0-1.43.323-.633.325-1.074.902a4.2 4.2 0 0 0-.68 1.382 6.3 6.3 0 0 0-.23 1.754m1.462.166v-.166q0-.623.126-1.184a3.2 3.2 0 0 1 .419-1.005q.277-.426.712-.679.443-.252 1.058-.253.365 0 .665.095.3.087.545.245.245.166.434.387.19.222.333.491v3.919a2.8 2.8 0 0 1-.333.506 2.2 2.2 0 0 1-.426.395 2 2 0 0 1-.553.261q-.3.086-.68.087-.608 0-1.043-.245a2.1 2.1 0 0 1-.712-.68 3.1 3.1 0 0 1-.419-.988 5.5 5.5 0 0 1-.126-1.186m11.989-6.44h-1.47v2.071h-2.245v1.129h2.245v4.647q0 .79.205 1.352.214.553.577.901.364.356.854.521.497.158 1.067.159a7 7 0 0 0 1.335-.127q.308-.056.57-.134.258-.089.442-.198l-.206-1.035-.348.079q-.204.039-.442.079-.246.04-.498.071a5 5 0 0 1-.49.024q-.325 0-.616-.079a1.27 1.27 0 0 1-.854-.79q-.126-.325-.126-.823v-4.647h3.256v-1.129h-3.256zm10.036 10.78q1.25 0 2.094-.499.854-.505 1.281-1.153l-.894-.696a3 3 0 0 1-1.011.838q-.608.316-1.391.316-.593 0-1.082-.221a2.5 2.5 0 0 1-.838-.608 2.8 2.8 0 0 1-.538-.839 4 4 0 0 1-.245-1.098v-.055h6.109v-.656q0-.893-.229-1.659a3.8 3.8 0 0 0-.679-1.337 3.2 3.2 0 0 0-1.155-.877q-.687-.323-1.612-.323-.735 0-1.438.3-.695.3-1.241.861a4.3 4.3 0 0 0-.885 1.391q-.331.814-.331 1.849v.333q0 .891.3 1.651.3.758.838 1.311.537.555 1.287.862a4.4 4.4 0 0 0 1.66.309m-.19-7.667q.561 0 .964.207.411.204.68.537.268.331.419.79.15.45.15.846v.07h-4.599q.086-.591.3-1.043.222-.457.537-.774.316-.308.711-.467a2.2 2.2 0 0 1 .838-.166"/></g><defs><clipPath id="a"><path fill="#fff" d="M0 0h552v366H0z"/></clipPath></defs></svg>