<svg xmlns="http://www.w3.org/2000/svg" width="502" height="80" fill="none" viewBox="0 0 502 80"><rect width="368" height="49" x="69" y="21" fill="#f9fafb" rx="5.097"/><path fill="#5a67d8" d="M89.759 49q-1.08 0-1.686-.577-.593-.577-.593-1.626v-4.906h-2.354v-1.246h2.354V38.29h1.367v2.355h3.342v1.246h-3.342v4.906q0 .957.912.957h2.278V49zm4.931 0v-1.246h2.962v-5.863H95.07v-1.246h3.95v7.11h2.81V49zm3.494-9.859q-.5 0-.79-.258-.288-.258-.289-.7 0-.454.289-.713.288-.273.79-.273.5 0 .79.273.288.258.289.714 0 .441-.29.699-.288.258-.789.258M107.976 49q-1.078 0-1.686-.577-.592-.577-.592-1.626v-4.906h-2.355v-1.246h2.355V38.29h1.367v2.355h3.342v1.246h-3.342v4.906q0 .957.911.957h2.279V49zm9.337 0q-.73 0-1.276-.289a2.1 2.1 0 0 1-.851-.82q-.304-.532-.304-1.246v-7.489h-2.81v-1.245h4.178v8.734q0 .517.288.82.29.29.775.29h2.658V49zm7.969.152q-.987 0-1.731-.395a2.86 2.86 0 0 1-1.14-1.109q-.395-.729-.395-1.686v-2.279q0-.972.395-1.686a2.86 2.86 0 0 1 1.14-1.11q.744-.393 1.731-.394.988 0 1.717.395.744.395 1.139 1.109.41.714.41 1.686v1.474h-5.195v.805q0 .987.501 1.519.503.516 1.428.516.79 0 1.276-.273.486-.288.593-.85h1.367q-.136 1.047-1.033 1.67-.881.608-2.203.608m1.93-4.907v-.562q0-.987-.502-1.519-.486-.532-1.428-.532-.925 0-1.428.532-.501.531-.501 1.52v.44h3.965z"/><path fill="#cbd5e0" d="M134.391 42.772q-.562 0-.911-.304-.35-.319-.35-.836t.35-.82q.349-.32.911-.319.578 0 .912.319.349.304.349.82 0 .517-.349.836-.334.303-.912.304m0 6.38q-.562 0-.911-.304-.35-.32-.35-.835 0-.517.35-.82.349-.32.911-.32.578 0 .912.32.349.303.349.82t-.349.835q-.334.304-.912.304"/><path fill="#4a5568" d="M151.925 50.671v-14.28h1.367v14.28z"/><path fill="#f9fafb" stroke="#4a5568" stroke-width="1.012" d="M171.066 9.266h211.133a5.564 5.564 0 0 1 5.564 5.563v110.633a5.564 5.564 0 0 1-5.564 5.564H171.066a5.564 5.564 0 0 1-5.563-5.564V14.829a5.564 5.564 0 0 1 5.563-5.563Z"/><path fill="#4a5568" d="M164.997 14.829a6.07 6.07 0 0 1 6.069-6.07H382.2a6.07 6.07 0 0 1 6.069 6.07V33.73H164.997z" opacity=".82"/><path stroke="#a3bffa" stroke-linecap="round" stroke-linejoin="round" stroke-width="1.517" d="M186.53 23.685V18.29a1.35 1.35 0 0 0-.674-1.167l-4.72-2.698a1.35 1.35 0 0 0-1.349 0l-4.721 2.698a1.35 1.35 0 0 0-.674 1.166v5.396a1.35 1.35 0 0 0 .674 1.166l4.721 2.698a1.35 1.35 0 0 0 1.349 0l4.72-2.698a1.35 1.35 0 0 0 .674-1.166"/><path stroke="#a3bffa" stroke-linecap="round" stroke-linejoin="round" stroke-width="1.517" d="m174.574 17.587 5.887 3.406 5.887-3.406m-5.891 10.197v-6.797"/><path fill="#cbd5e0" d="M197.608 26.057q-.687 0-1.153-.27a2.2 2.2 0 0 1-.736-.718 3 3 0 0 1-.41-.98 5.3 5.3 0 0 1-.119-1.114v-.332q0-.554.119-1.099.126-.545.41-.988.285-.435.743-.703.467-.276 1.146-.277.443 0 .822.15.388.15.664.411.277.26.435.61.165.339.174.726h1.383q0-.648-.261-1.217a3 3 0 0 0-.72-.988 3.5 3.5 0 0 0-1.106-.648 3.8 3.8 0 0 0-1.391-.245q-.971 0-1.698.348a3.5 3.5 0 0 0-1.21.933q-.49.591-.735 1.366a5.4 5.4 0 0 0-.244 1.62v.333q0 .853.244 1.627.244.767.735 1.352.482.593 1.21.94.727.348 1.698.348.68 0 1.304-.23.625-.237 1.107-.631a3 3 0 0 0 .766-.902 2.26 2.26 0 0 0 .301-1.09h-1.383a1.35 1.35 0 0 1-.19.663q-.174.3-.467.522a2.2 2.2 0 0 1-.671.356 2.4 2.4 0 0 1-.767.127m5.667-3.327v.173q0 .925.268 1.716.27.79.775 1.374.497.585 1.216.917.727.332 1.636.332.901 0 1.621-.332.72-.33 1.224-.917.498-.585.767-1.374a5.3 5.3 0 0 0 .268-1.716v-.173a5.3 5.3 0 0 0-.268-1.716 4.1 4.1 0 0 0-.767-1.382 3.6 3.6 0 0 0-1.233-.917q-.718-.34-1.627-.34a3.75 3.75 0 0 0-1.621.34 3.5 3.5 0 0 0-1.216.917q-.505.584-.775 1.382a5.3 5.3 0 0 0-.268 1.716m1.461.173v-.173q0-.625.151-1.194.15-.577.458-1.011.3-.435.751-.688.45-.261 1.059-.261.608 0 1.059.26.457.255.766.689.3.435.451 1.011.158.57.158 1.194v.173q0 .633-.15 1.21-.15.568-.451 1.003-.308.436-.767.688-.449.252-1.051.253-.609 0-1.066-.253a2.2 2.2 0 0 1-.759-.688 3.1 3.1 0 0 1-.458-1.003 4.8 4.8 0 0 1-.151-1.21m8.669 4.18h1.463v-6.131q.15-.277.348-.506a3 3 0 0 1 .442-.404q.292-.196.64-.307.348-.12.751-.12.465 0 .822.112.363.11.616.355.245.246.371.64.127.396.127.964v5.398h1.461v-5.43q0-.852-.213-1.47a2.65 2.65 0 0 0-.592-1.027 2.35 2.35 0 0 0-.94-.593 3.7 3.7 0 0 0-1.217-.189 3.33 3.33 0 0 0-1.771.537 3 3 0 0 0-.482.396q-.221.221-.411.49l-.103-1.265h-1.312zm13.182-10.62h-1.469v2.07h-2.245v1.13h2.245v4.647q-.001.79.205 1.351.213.554.577.902.363.355.853.52.498.16 1.066.16a7.3 7.3 0 0 0 1.337-.127q.307-.056.568-.135.261-.087.443-.198l-.205-1.035q-.134.032-.348.08-.206.039-.443.078-.245.039-.498.072a6 6 0 0 1-.489.023q-.325 0-.617-.079a1.27 1.27 0 0 1-.853-.79q-.127-.324-.127-.822v-4.647h3.256v-1.13h-3.256zm11.878 10.62h1.525v-.126a4 4 0 0 1-.221-.83 5.6 5.6 0 0 1-.079-.908v-3.975q0-.72-.261-1.256a2.6 2.6 0 0 0-.711-.902 3.1 3.1 0 0 0-1.083-.529 4.8 4.8 0 0 0-1.351-.182q-.798 0-1.43.222-.626.22-1.059.576a2.65 2.65 0 0 0-.68.815 2.1 2.1 0 0 0-.238.916h1.471q0-.268.126-.514.134-.253.372-.435.236-.18.576-.292.348-.11.783-.11.466 0 .838.118.38.119.639.332.26.222.404.53.142.308.142.695v.671h-1.597q-.892.002-1.62.174-.718.175-1.233.522a2.54 2.54 0 0 0-.798.886q-.276.528-.276 1.233 0 .536.206 1.003.212.459.599.79.38.34.926.537.552.198 1.232.198.419 0 .791-.087.37-.087.703-.237.323-.15.593-.348.276-.197.497-.42.025.27.071.523.056.245.143.41m-2.585-1.113q-.426 0-.75-.111a1.5 1.5 0 0 1-.537-.308 1.2 1.2 0 0 1-.325-.458 1.6 1.6 0 0 1-.102-.586q0-.331.118-.593.127-.26.363-.45.332-.268.894-.394.569-.135 1.328-.135h1.359v1.731a2.1 2.1 0 0 1-.348.49q-.22.228-.522.41a3 3 0 0 1-.679.293 2.8 2.8 0 0 1-.799.11m6.915-7.437v1.273h2.908v6.013h-2.908v1.265h7.16v-1.265h-2.79v-7.286zm2.719-2.245q0 .356.214.593.22.238.663.238.434 0 .656-.238a.84.84 0 0 0 .221-.593q0-.197-.062-.363a.7.7 0 0 0-.191-.276.7.7 0 0 0-.261-.159 1 1 0 0 0-.363-.062q-.206 0-.371.062a.7.7 0 0 0-.261.16.74.74 0 0 0-.19.283 1.1 1.1 0 0 0-.055.355m6.772 10.796h1.462v-6.132q.15-.277.348-.506.205-.229.443-.404.292-.196.639-.307.348-.12.752-.12.467 0 .821.112.364.11.616.355.246.246.373.64.126.396.126.964v5.398h1.462v-5.43q0-.852-.214-1.47a2.65 2.65 0 0 0-.592-1.027 2.34 2.34 0 0 0-.941-.593 3.7 3.7 0 0 0-1.217-.189 3.3 3.3 0 0 0-1.77.537 3 3 0 0 0-.482.396q-.221.221-.411.49l-.103-1.265h-1.312zm15.403-2.268a1 1 0 0 1-.08.387 1.1 1.1 0 0 1-.228.332q-.246.245-.68.387a3.5 3.5 0 0 1-1.02.135 3.7 3.7 0 0 1-.75-.079 2.2 2.2 0 0 1-.688-.27 1.7 1.7 0 0 1-.529-.497 1.5 1.5 0 0 1-.238-.758h-1.462q0 .544.245 1.05.254.506.727.886a3.7 3.7 0 0 0 1.147.624q.68.229 1.548.23a5 5 0 0 0 1.399-.183 3.5 3.5 0 0 0 1.099-.514q.457-.331.711-.798a2.1 2.1 0 0 0 .261-1.034 1.85 1.85 0 0 0-.23-.933 2.2 2.2 0 0 0-.647-.711 4.1 4.1 0 0 0-1.051-.514 11 11 0 0 0-1.415-.387 9 9 0 0 1-.996-.245 2.4 2.4 0 0 1-.617-.285.9.9 0 0 1-.332-.356 1.05 1.05 0 0 1-.094-.45q0-.245.119-.474a1.2 1.2 0 0 1 .355-.404q.23-.172.577-.276.356-.103.822-.103.45 0 .806.126.364.128.616.333.253.205.395.474.143.26.143.538h1.462q0-.562-.245-1.044a2.5 2.5 0 0 0-.68-.853 3.2 3.2 0 0 0-1.075-.57 4.6 4.6 0 0 0-1.422-.205q-.735 0-1.352.198-.607.196-1.051.537a2.5 2.5 0 0 0-.687.799q-.245.45-.245.97 0 .531.237.933.237.396.672.688.426.3 1.027.514.608.213 1.343.363.601.12 1.005.27.402.142.647.315.245.175.348.387.103.206.103.467"/><path stroke="#5a67d8" stroke-linecap="round" stroke-linejoin="round" stroke-width="1.517" d="M186.53 45.938v-5.396a1.35 1.35 0 0 0-.674-1.166l-4.72-2.698a1.35 1.35 0 0 0-1.349 0l-4.721 2.698a1.35 1.35 0 0 0-.674 1.166v5.396a1.35 1.35 0 0 0 .674 1.166l4.721 2.698a1.35 1.35 0 0 0 1.349 0l4.72-2.698a1.35 1.35 0 0 0 .674-1.166"/><path stroke="#5a67d8" stroke-linecap="round" stroke-linejoin="round" stroke-width="1.517" d="m174.574 39.841 5.887 3.406 5.887-3.406m-5.891 10.197v-6.797"/><path fill="#cbd5e0" d="M197.748 49.496q1.248 0 2.094-.5.854-.504 1.28-1.152l-.893-.696a3 3 0 0 1-1.012.837q-.607.317-1.39.317-.593 0-1.083-.221a2.5 2.5 0 0 1-.837-.609 2.8 2.8 0 0 1-.537-.838 3.9 3.9 0 0 1-.246-1.099v-.054h6.108v-.657a5.8 5.8 0 0 0-.228-1.659 3.8 3.8 0 0 0-.68-1.336 3.15 3.15 0 0 0-1.154-.877q-.687-.323-1.611-.323-.737 0-1.439.3-.695.3-1.241.86-.553.57-.885 1.392-.333.814-.332 1.849v.332q0 .892.301 1.651.3.76.837 1.312.538.555 1.288.862a4.4 4.4 0 0 0 1.66.309m-.189-7.667q.56 0 .964.206.41.205.679.538.269.331.419.79.15.45.15.845v.071h-4.6q.087-.591.301-1.043.22-.457.537-.775.316-.307.711-.466.395-.166.839-.166m6.131 7.508h1.462v-6.132q.15-.277.348-.506.206-.229.443-.404.292-.196.639-.307.349-.12.752-.12.467 0 .821.112.364.11.617.355.245.246.372.64.126.396.126.964v5.398h1.462v-5.43q0-.852-.214-1.469a2.66 2.66 0 0 0-.592-1.028 2.34 2.34 0 0 0-.941-.592 3.7 3.7 0 0 0-1.217-.19 3.3 3.3 0 0 0-1.77.538 3 3 0 0 0-.482.395q-.22.221-.41.49l-.104-1.265h-1.312zm9.444-4.347v.166q0 .918.245 1.716.245.79.688 1.374t1.067.917q.632.332 1.406.333.79 0 1.383-.27a2.8 2.8 0 0 0 1.019-.79l.064.9h1.343V37.199h-1.461v4.434a2.75 2.75 0 0 0-.997-.742q-.569-.262-1.335-.261-.782 0-1.415.323a3.2 3.2 0 0 0-1.074.901 4.2 4.2 0 0 0-.696 1.383 6.1 6.1 0 0 0-.237 1.754m1.462.166v-.166q0-.624.134-1.184.135-.57.419-1.005.277-.425.711-.68.444-.251 1.059-.252.72 0 1.202.34.482.331.767.853v3.968a2.36 2.36 0 0 1-.767.893q-.482.331-1.217.331-.608 0-1.044-.244a2.1 2.1 0 0 1-.711-.68 3.1 3.1 0 0 1-.419-.988 5 5 0 0 1-.134-1.186m14.217 1.913a1 1 0 0 1-.079.387 1.1 1.1 0 0 1-.23.332q-.244.245-.679.388-.435.134-1.019.134-.372 0-.752-.079a2.2 2.2 0 0 1-.686-.269 1.7 1.7 0 0 1-.53-.498 1.54 1.54 0 0 1-.237-.758h-1.462q0 .544.245 1.05.252.507.727.886a3.7 3.7 0 0 0 1.145.624q.68.23 1.55.23.759 0 1.398-.183a3.5 3.5 0 0 0 1.098-.513q.46-.333.713-.798.26-.466.26-1.035a1.85 1.85 0 0 0-.229-.933 2.2 2.2 0 0 0-.648-.711 4.1 4.1 0 0 0-1.051-.514 11 11 0 0 0-1.415-.387 9 9 0 0 1-.996-.245 2.4 2.4 0 0 1-.616-.285.9.9 0 0 1-.332-.355 1 1 0 0 1-.095-.45q0-.246.119-.475.118-.229.356-.404.229-.172.576-.276.355-.102.823-.103.449 0 .805.127.364.127.617.332t.394.474q.143.26.143.538h1.462q0-.561-.245-1.044a2.5 2.5 0 0 0-.68-.853 3.2 3.2 0 0 0-1.074-.57 4.6 4.6 0 0 0-1.422-.204q-.736 0-1.352.197-.608.197-1.051.537a2.5 2.5 0 0 0-.688.799 2 2 0 0 0-.244.971q0 .53.236.933.238.395.672.688.426.3 1.028.513.608.213 1.343.363.6.12 1.003.27.403.143.649.315.245.175.347.388.103.205.103.466m4.639 2.268h1.501l1.407-8.18.087-.49.079.483 1.399 8.187h1.493l1.399-11.506h-1.383l-.829 7.918-.048.474-.087-.466-1.399-7.926h-1.272l-1.391 7.918-.087.474-.048-.458-.829-7.934h-1.391zm9.348-8.55v1.272h2.909v6.013H242.8v1.265h7.16v-1.265h-2.79v-7.286zm2.719-2.245q0 .356.214.592.22.239.663.238.435 0 .656-.238a.83.83 0 0 0 .221-.592q0-.198-.062-.364a.7.7 0 0 0-.19-.276.7.7 0 0 0-.261-.158 1 1 0 0 0-.364-.063q-.206 0-.371.063a.7.7 0 0 0-.261.158.74.74 0 0 0-.19.285q-.055.165-.055.355m10.234.174h-1.47v2.07h-2.244v1.13h2.244v4.647q0 .79.206 1.352.212.553.576.9.364.357.854.522.498.158 1.067.159a7 7 0 0 0 1.335-.127 5 5 0 0 0 .569-.134q.261-.088.443-.199l-.205-1.035-.348.08a15 15 0 0 1-.941.15 6 6 0 0 1-.49.023q-.325 0-.616-.078a1.24 1.24 0 0 1-.506-.278 1.26 1.26 0 0 1-.347-.513q-.127-.324-.127-.822v-4.647h3.256v-1.13h-3.256zm7.721 3.343V37.2h-1.463v12.138h1.463v-6.211a2.8 2.8 0 0 1 .798-.83 2.46 2.46 0 0 1 1.406-.427q.482-.007.854.134.372.135.616.412.23.252.348.64.118.378.118.884v5.398h1.463v-5.382q0-.86-.213-1.486a2.74 2.74 0 0 0-.593-1.042 2.3 2.3 0 0 0-.941-.601 3.56 3.56 0 0 0-2.189-.048q-.45.143-.829.419-.238.166-.451.387-.214.213-.387.475"/><path stroke="#5a67d8" stroke-linecap="round" stroke-linejoin="round" stroke-width="1.517" d="M186.53 68.192v-5.395a1.35 1.35 0 0 0-.674-1.167l-4.72-2.697a1.35 1.35 0 0 0-1.349 0l-4.721 2.697a1.35 1.35 0 0 0-.674 1.167v5.395a1.35 1.35 0 0 0 .674 1.167l4.721 2.697a1.35 1.35 0 0 0 1.349 0l4.72-2.697a1.35 1.35 0 0 0 .674-1.167"/><path stroke="#5a67d8" stroke-linecap="round" stroke-linejoin="round" stroke-width="1.517" d="m174.574 62.094 5.887 3.406 5.887-3.406m-5.891 10.198v-6.798"/><path fill="#cbd5e0" d="M197.748 71.75q1.248 0 2.094-.499.854-.505 1.28-1.153l-.893-.696a3 3 0 0 1-1.012.838q-.607.316-1.39.316a2.6 2.6 0 0 1-1.083-.221 2.5 2.5 0 0 1-.837-.608 2.8 2.8 0 0 1-.537-.839 3.9 3.9 0 0 1-.246-1.098v-.055h6.108v-.656a5.8 5.8 0 0 0-.228-1.66 3.8 3.8 0 0 0-.68-1.336 3.15 3.15 0 0 0-1.154-.877q-.687-.323-1.611-.323-.737 0-1.439.3-.695.301-1.241.86-.553.57-.885 1.392-.333.814-.332 1.849v.333q0 .892.301 1.65.3.76.837 1.312.538.555 1.288.862a4.4 4.4 0 0 0 1.66.309m-.189-7.667q.56 0 .964.207.41.204.679.537.269.331.419.79.15.45.15.845v.071h-4.6q.087-.591.301-1.043.22-.458.537-.774.316-.308.711-.467.395-.166.839-.166m5.862 3.161v.166q0 .918.23 1.716.236.79.68 1.374.442.585 1.074.917a3.1 3.1 0 0 0 1.455.333q.419-.001.781-.08a3 3 0 0 0 .672-.229 2.3 2.3 0 0 0 .451-.269q.213-.157.403-.355v4.061h1.462V63.04h-1.344l-.062.846a3 3 0 0 0-.357-.348 2.7 2.7 0 0 0-1.137-.56 3.6 3.6 0 0 0-.853-.095q-.822 0-1.471.323a3.15 3.15 0 0 0-1.082.902 4.1 4.1 0 0 0-.672 1.382 6.3 6.3 0 0 0-.23 1.754m1.463.166v-.166q0-.623.135-1.192.141-.57.434-1.012.284-.435.727-.696.442-.26 1.051-.26.34 0 .624.086.292.08.538.23.236.15.426.355.198.199.348.443v4.22a3 3 0 0 1-.355.482 2 2 0 0 1-.451.364q-.237.133-.521.213-.286.08-.625.08-.609-.001-1.051-.254a2.2 2.2 0 0 1-.72-.696 3.3 3.3 0 0 1-.425-1.003 5.2 5.2 0 0 1-.135-1.194m14.162 4.18h1.327v-8.55h-1.47v6.133a2.4 2.4 0 0 1-.301.513 1.8 1.8 0 0 1-.41.396 2.3 2.3 0 0 1-.672.323q-.387.111-.877.112-.419 0-.743-.112a1.17 1.17 0 0 1-.537-.386q-.222-.27-.332-.727-.11-.458-.11-1.154V63.04h-1.463v5.082q0 .956.205 1.644.214.678.601 1.122.388.443.933.655.544.207 1.217.207.838 0 1.477-.348a3.1 3.1 0 0 0 1.068-.989zm9.704 0h1.525v-.126a4 4 0 0 1-.221-.829 5.5 5.5 0 0 1-.08-.908V65.75q0-.72-.26-1.256a2.6 2.6 0 0 0-.711-.901 3.1 3.1 0 0 0-1.083-.53 4.8 4.8 0 0 0-1.352-.181 4.3 4.3 0 0 0-1.43.221q-.624.221-1.059.577a2.7 2.7 0 0 0-.68.814q-.229.45-.237.916h1.47q0-.269.127-.513.135-.254.371-.435.238-.181.577-.293.348-.11.782-.11.466 0 .838.118.38.12.64.332.261.222.404.53.141.308.141.695v.672h-1.596q-.893 0-1.62.174-.72.174-1.232.522a2.5 2.5 0 0 0-.798.885q-.278.53-.278 1.233 0 .537.206 1.003.213.459.601.79.38.34.924.538.553.197 1.233.198.418 0 .79-.087a4 4 0 0 0 .703-.238q.325-.15.593-.348.277-.197.499-.419.023.27.071.522.055.245.142.41m-2.584-1.113a2.3 2.3 0 0 1-.751-.111 1.5 1.5 0 0 1-.538-.308 1.24 1.24 0 0 1-.324-.458 1.6 1.6 0 0 1-.102-.585q0-.333.119-.593.125-.26.363-.45.332-.269.893-.395.568-.135 1.327-.134h1.359v1.73q-.125.252-.347.49-.22.23-.521.41a3 3 0 0 1-.68.293 2.8 2.8 0 0 1-.798.111m6.915-11.025v1.273h2.908v9.601h-2.908v1.265h7.159v-1.264h-2.79V59.452zm15.173 9.871a1 1 0 0 1-.079.388 1.1 1.1 0 0 1-.23.331q-.244.245-.68.388a3.5 3.5 0 0 1-1.019.134q-.371 0-.751-.079a2.2 2.2 0 0 1-.687-.269 1.7 1.7 0 0 1-.53-.497 1.55 1.55 0 0 1-.236-.76h-1.463q0 .546.246 1.052.252.505.726.885.466.387 1.146.624.68.23 1.549.23.758 0 1.399-.182a3.5 3.5 0 0 0 1.098-.514q.459-.333.711-.798a2.1 2.1 0 0 0 .261-1.035 1.86 1.86 0 0 0-.228-.933 2.2 2.2 0 0 0-.649-.71 4.1 4.1 0 0 0-1.051-.515 11 11 0 0 0-1.415-.387 9 9 0 0 1-.995-.245 2.4 2.4 0 0 1-.616-.285.9.9 0 0 1-.332-.355 1 1 0 0 1-.095-.45q0-.246.118-.475.118-.23.356-.403.23-.174.577-.276.356-.104.821-.104.452 0 .806.127.365.127.617.333.252.204.395.473.143.26.143.538h1.461q0-.561-.245-1.044a2.5 2.5 0 0 0-.679-.853 3.3 3.3 0 0 0-1.075-.569 4.6 4.6 0 0 0-1.423-.205q-.733 0-1.351.197-.609.196-1.051.537a2.5 2.5 0 0 0-.687.8q-.246.449-.246.97 0 .53.238.933.236.395.672.688.426.299 1.027.514.608.212 1.344.363.599.119 1.003.269.403.142.647.315.246.175.348.388.104.205.104.466"/><path fill="url(#paint0_linear_2833_3884)" fill-opacity=".6" d="M0 0h502v80H0z"/></svg>