<svg xmlns="http://www.w3.org/2000/svg" width="444" height="45" fill="none" viewBox="0 0 444 45"><rect width="443.581" height="45" fill="#1a202c" rx="5.097"/><path fill="#a0aec0" d="M16.463 26v-7.008h1.147v1.338h.242l-.242.267q0-.828.497-1.274.496-.459 1.376-.459 1.057 0 1.682.65.624.65.624 1.771V26h-1.147v-4.587q0-.752-.407-1.147-.396-.408-1.084-.408-.713 0-1.134.434-.407.433-.407 1.248V26zm7.64 2.294v-9.302h1.147v1.338h.23l-.23.267q0-.802.522-1.261.535-.472 1.402-.472 1.058 0 1.682.701.637.688.637 1.899v2.051q0 .802-.293 1.39-.28.585-.803.904-.51.318-1.223.318-.854 0-1.389-.471t-.535-1.261l.23.267h-.256l.026 1.593v2.039zm2.689-3.16q.726 0 1.134-.434.42-.433.42-1.248V21.54q0-.815-.42-1.248-.408-.434-1.134-.434-.701 0-1.122.446-.42.447-.42 1.236v1.912q0 .789.42 1.236t1.122.446m4.416.866 2.485-3.606-2.332-3.402h1.35l1.39 2.166q.09.14.165.306.09.166.14.267.039-.102.115-.267.09-.165.178-.306l1.402-2.166h1.338l-2.332 3.415L37.58 26h-1.35l-1.504-2.294a4 4 0 0 1-.178-.318 3 3 0 0 0-.14-.306 5 5 0 0 1-.153.306q-.09.178-.192.318L32.546 26zm15.816 2.294v-9.302h1.147v1.338h.229l-.23.267q0-.802.523-1.261.535-.472 1.402-.472 1.057 0 1.682.701.636.688.637 1.899v2.051q0 .802-.293 1.39-.28.585-.803.904-.51.318-1.223.318-.854 0-1.39-.471-.534-.471-.534-1.261l.229.267h-.255l.026 1.593v2.039zm2.688-3.16q.727 0 1.134-.434.42-.433.421-1.248V21.54q0-.815-.42-1.248-.408-.434-1.135-.434-.7 0-1.12.446-.421.447-.421 1.236v1.912q0 .789.42 1.236t1.121.446m5.194.866v-7.008h1.122v1.338h.267l-.37.828q0-1.134.485-1.707.497-.587 1.465-.587 1.11 0 1.758.701.663.688.663 1.873v.42H59.15v-.318q0-.828-.407-1.261-.396-.446-1.134-.446-.727 0-1.147.446-.408.446-.408 1.261V26zm7.31 0v-1.045H64.7v-4.918h-2.166v-1.045h3.313v5.963h2.357V26zm2.93-8.27q-.42 0-.663-.216-.242-.217-.242-.586 0-.382.242-.6.243-.229.663-.229t.662.23q.243.216.243.599 0 .369-.243.586-.241.216-.662.216m7.232 8.372q-.713 0-1.248-.217a2.1 2.1 0 0 1-.841-.637 1.95 1.95 0 0 1-.37-.968h1.147q.076.369.408.586.344.216.904.217h.536q.675 0 1.006-.268a.92.92 0 0 0 .331-.74q0-.445-.305-.7-.294-.267-.88-.357l-.942-.153q-1.032-.177-1.542-.637-.497-.47-.497-1.363 0-.943.599-1.453.599-.522 1.796-.522h.484q1.007 0 1.619.471.611.473.739 1.275h-1.147a.82.82 0 0 0-.382-.523q-.306-.204-.829-.204h-.484q-.65 0-.955.242-.293.243-.293.727 0 .432.255.637.255.203.802.293l.943.153q1.134.179 1.644.662.522.484.522 1.402 0 .968-.624 1.529-.612.548-1.86.548zM77.254 26v-7.008h1.006v.84h.23l-.179.307q0-.587.306-.93.318-.345.854-.345.585 0 .904.434.32.433.319 1.223l-.344-.688h.535l-.242.306q0-.587.319-.93.331-.345.866-.345.663 0 1.02.497.369.498.369 1.313V26h-1.058v-5.339q0-.434-.19-.675-.18-.242-.536-.242a.68.68 0 0 0-.548.242q-.19.229-.191.662V26h-.917v-5.339q0-.445-.204-.675-.192-.242-.548-.242t-.535.242q-.18.229-.179.662V26zm10.01.127q-1.11 0-1.746-.56-.637-.574-.637-1.542 0-.981.637-1.542.637-.56 1.72-.56h2.167v-.701q0-.65-.395-.994-.382-.357-1.096-.357-.624 0-1.045.268-.42.255-.484.7h-1.147a2.02 2.02 0 0 1 .854-1.44q.738-.535 1.847-.535 1.21 0 1.912.625.7.624.7 1.694V26h-1.12v-1.338h-.192l.191-.191q0 .765-.599 1.21-.585.447-1.567.446m.28-.904q.816 0 1.338-.408t.523-1.045v-.994h-2.141q-.573 0-.905.319-.33.318-.331.866 0 .587.395.93.408.332 1.121.332m12.962 3.07v-9.301h1.147v1.338h.229l-.229.267q0-.802.522-1.261.535-.472 1.402-.472 1.057 0 1.682.701.636.688.637 1.899v2.051q0 .802-.293 1.39-.28.585-.803.904-.51.318-1.223.318-.855 0-1.389-.471-.535-.471-.535-1.261l.229.267h-.255l.026 1.593v2.039zm2.688-3.16q.728 0 1.134-.433.421-.433.421-1.248V21.54q0-.815-.421-1.248-.406-.434-1.134-.434-.7 0-1.121.446-.42.447-.42 1.236v1.912q0 .789.42 1.236t1.121.446m8.558.867q-.612 0-1.07-.242a1.74 1.74 0 0 1-.714-.688 2.07 2.07 0 0 1-.255-1.045v-6.282h-2.357v-1.045h3.504v7.327q0 .433.242.688.243.242.65.242h2.23V26zm6.073.127q-1.109 0-1.746-.56-.637-.574-.637-1.542 0-.981.637-1.542.637-.56 1.721-.56h2.166v-.701q0-.65-.395-.994-.382-.357-1.096-.357-.624 0-1.045.268-.42.255-.484.7h-1.147a2.02 2.02 0 0 1 .854-1.44q.738-.535 1.847-.535 1.21 0 1.912.625.7.624.7 1.694V26h-1.121v-1.338h-.191l.191-.191q0 .765-.599 1.21-.585.447-1.567.446m.28-.904q.816 0 1.338-.408t.523-1.045v-.994h-2.141q-.573 0-.905.319-.331.318-.331.866 0 .587.395.93.408.332 1.121.332m8.736.777q-.904 0-1.414-.484-.497-.484-.497-1.364v-4.115h-1.975v-1.045h1.975v-1.975h1.147v1.975h2.803v1.045h-2.803v4.115q0 .804.764.803h1.912V26zm5.857 0v-5.262h-2.039v-1.045h2.039v-1.21q0-.83.522-1.3.522-.485 1.44-.485h2.052v1.045h-2.052q-.395 0-.612.191-.203.18-.203.548v1.21h2.867v1.046h-2.867V26zm8.659.102q-.84 0-1.452-.319a2.3 2.3 0 0 1-.956-.917q-.331-.612-.331-1.44v-1.86q0-.84.331-1.44.344-.6.956-.918t1.452-.318q.841 0 1.453.319.612.318.943.917.344.6.344 1.427v1.873q0 .828-.344 1.44-.331.6-.943.917-.612.32-1.453.319m0-1.02q.752 0 1.173-.42.42-.42.42-1.236v-1.86q0-.816-.42-1.236t-1.173-.42q-.738 0-1.172.42-.42.42-.42 1.236v1.86q0 .816.42 1.236.434.42 1.172.42m5.232.918v-7.008h1.122v1.338h.267l-.369.828q0-1.134.484-1.707.497-.587 1.465-.587 1.108 0 1.759.701.662.688.662 1.873v.42h-1.146v-.318q0-.828-.408-1.261-.396-.446-1.134-.446-.726 0-1.147.446-.408.446-.408 1.261V26zm7.067 0v-7.008h1.007v.84h.229l-.178.307q0-.587.306-.93.319-.345.853-.345.587 0 .905.434.318.433.319 1.223l-.344-.688h.535l-.242.306q0-.587.318-.93.331-.345.867-.345.662 0 1.019.497.37.498.37 1.313V26h-1.058v-5.339q0-.434-.191-.675-.178-.242-.535-.242-.344 0-.548.242-.191.229-.191.662V26h-.918v-5.339q0-.445-.204-.675-.19-.242-.548-.242-.356 0-.535.242-.178.229-.178.662V26z"/><path fill="#7f9cf5" d="M170.708 27.402V15.424h3.122v1.02h-1.975v9.938h1.975v1.02zm8.902-1.275q-.842 0-1.478-.318a2.3 2.3 0 0 1-.969-.918q-.344-.61-.344-1.44v-1.91q0-.841.344-1.44.344-.6.969-.918.636-.319 1.478-.319 1.21 0 1.949.65t.778 1.771h-1.147q-.039-.675-.459-1.032-.408-.37-1.121-.37-.752 0-1.198.434-.446.42-.446 1.21v1.925q0 .79.446 1.223t1.198.433q.713 0 1.121-.37.42-.369.459-1.032h1.147q-.039 1.122-.778 1.772-.738.65-1.949.65m7.589-.025q-.841 0-1.453-.319a2.3 2.3 0 0 1-.955-.917q-.332-.612-.332-1.44v-1.86q0-.84.332-1.44.344-.6.955-.918.612-.318 1.453-.318t1.453.319q.611.318.943.917.344.6.344 1.427v1.873q0 .828-.344 1.44-.332.6-.943.917-.612.32-1.453.319m0-1.02q.752 0 1.172-.42.421-.42.421-1.236v-1.86q0-.816-.421-1.236-.42-.42-1.172-.42-.739 0-1.172.42-.421.42-.421 1.236v1.86q0 .816.421 1.236.433.42 1.172.42m4.659.918v-7.008h1.006v.84h.23l-.179.307q0-.587.306-.93.318-.345.854-.345.586 0 .904.434.32.433.319 1.223l-.344-.688h.535l-.242.306q0-.587.319-.93.33-.345.866-.345.663 0 1.019.497.37.498.37 1.313V26h-1.058v-5.339q0-.434-.191-.675-.178-.242-.535-.242a.68.68 0 0 0-.548.242q-.19.229-.191.662V26h-.917v-5.339q0-.445-.204-.675-.191-.242-.548-.242t-.535.242q-.179.229-.179.662V26zm7.64 0v-7.008h1.007v.84h.229l-.179.307q0-.587.306-.93.319-.345.854-.345.586 0 .905.434.318.433.318 1.223l-.344-.688h.535l-.242.306q0-.587.319-.93.332-.345.866-.345.663 0 1.02.497.369.498.369 1.313V26h-1.057v-5.339q0-.434-.192-.675-.178-.242-.535-.242a.68.68 0 0 0-.548.242q-.19.229-.191.662V26h-.917v-5.339q0-.445-.204-.675-.19-.242-.548-.242-.357 0-.535.242-.179.229-.179.662V26zm10.01.127q-1.109 0-1.745-.56-.638-.574-.638-1.542 0-.981.638-1.542.636-.56 1.72-.56h2.166v-.701q0-.65-.395-.994-.382-.357-1.096-.357-.624 0-1.045.268-.42.255-.484.7h-1.147a2.02 2.02 0 0 1 .854-1.44q.739-.535 1.848-.535 1.21 0 1.911.625.7.624.701 1.694V26h-1.122v-1.338h-.191l.191-.191q0 .765-.599 1.21-.585.447-1.567.446m.281-.904q.815 0 1.337-.408.523-.408.523-1.045v-.994h-2.141q-.573 0-.905.319-.33.318-.331.866 0 .587.395.93.408.332 1.122.332m5.321.777v-7.008h1.147v1.338h.242l-.242.267q0-.828.496-1.274.497-.459 1.377-.459 1.057 0 1.682.65.624.65.624 1.771V26h-1.147v-4.587q0-.752-.408-1.147-.394-.408-1.083-.408-.712 0-1.134.434-.407.433-.407 1.248V26zm9.883.127q-1.046 0-1.695-.7-.637-.701-.637-1.899v-2.051q0-1.211.637-1.912.638-.7 1.695-.7.866 0 1.388.47.523.473.523 1.262l-.229-.267h.254l-.025-1.593v-2.039h1.147V26h-1.147v-1.338h-.229l.229-.267q0 .803-.523 1.274-.522.458-1.388.458m.382-.993q.714-.001 1.121-.446.408-.447.408-1.236V21.54q0-.789-.408-1.236-.407-.446-1.121-.446-.726 0-1.147.434-.42.433-.42 1.248v1.912q0 .815.42 1.248.42.435 1.147.434m5.754 2.268v-1.02h1.975v-9.939h-1.975v-1.019h3.122v11.978zm15.982 0V15.424h3.121v1.02h-1.975v9.938h1.975v1.02zm8.85-1.3q-.84 0-1.452-.319a2.3 2.3 0 0 1-.956-.917q-.331-.612-.331-1.44v-1.86q0-.84.331-1.44.344-.6.956-.918t1.452-.318q.841 0 1.453.319.612.318.943.917.344.6.344 1.427v1.873q0 .828-.344 1.44-.331.6-.943.917-.612.32-1.453.319m0-1.02q.752 0 1.173-.42.42-.42.42-1.236v-1.86q0-.816-.42-1.236t-1.173-.42q-.738 0-1.172.42-.42.42-.42 1.236v1.86q0 .816.42 1.236.434.42 1.172.42m4.99 3.212v-9.302h1.147v1.338h.229l-.229.267q0-.802.523-1.261.535-.472 1.401-.472 1.058 0 1.682.701.637.688.637 1.899v2.051q0 .802-.293 1.39a2.1 2.1 0 0 1-.803.904q-.509.318-1.223.318-.853 0-1.389-.471-.535-.471-.535-1.261l.229.267h-.254l.025 1.593v2.039zm2.689-3.16q.726 0 1.134-.434.42-.433.42-1.248V21.54q0-.815-.42-1.248-.408-.434-1.134-.434-.7 0-1.121.446-.421.447-.421 1.236v1.912q0 .789.421 1.236.42.446 1.121.446m8.366.866q-.904 0-1.414-.484-.497-.484-.497-1.364v-4.115h-1.975v-1.045h1.975v-1.975h1.147v1.975h2.803v1.045h-2.803v4.115q0 .804.764.803h1.912V26zm4.137 0v-1.045h2.484v-4.918h-2.166v-1.045h3.313v5.963h2.357V26zm2.93-8.27q-.42 0-.662-.216-.243-.217-.242-.586 0-.382.242-.6.242-.229.662-.229t.663.23q.242.216.242.599 0 .369-.242.586t-.663.216m7.449 8.372q-.84 0-1.452-.319a2.3 2.3 0 0 1-.956-.917q-.331-.612-.331-1.44v-1.86q0-.84.331-1.44.344-.6.956-.918t1.452-.318q.841 0 1.453.319.612.318.943.917.344.6.344 1.427v1.873q0 .828-.344 1.44-.331.6-.943.917-.612.32-1.453.319m0-1.02q.752 0 1.173-.42.42-.42.42-1.236v-1.86q0-.816-.42-1.236t-1.173-.42q-.738 0-1.172.42-.42.42-.42 1.236v1.86q0 .816.42 1.236.434.42 1.172.42m4.99.918v-7.008h1.147v1.338h.242l-.242.267q0-.828.497-1.274.497-.459 1.376-.459 1.058 0 1.682.65.625.65.625 1.771V26h-1.147v-4.587q0-.752-.408-1.147-.394-.408-1.083-.408-.714 0-1.134.434-.408.433-.408 1.248V26zm10.074.102q-.713 0-1.248-.217a2.1 2.1 0 0 1-.841-.637 1.95 1.95 0 0 1-.37-.968h1.147a.9.9 0 0 0 .408.586q.344.216.904.217h.536q.675 0 1.006-.268a.92.92 0 0 0 .331-.74q0-.445-.305-.7-.294-.267-.88-.357l-.942-.153q-1.033-.177-1.542-.637-.498-.47-.497-1.363 0-.943.599-1.453.599-.522 1.796-.522h.485q1.006 0 1.618.471.612.473.739 1.275h-1.147a.82.82 0 0 0-.382-.523q-.306-.204-.828-.204h-.485q-.65 0-.955.242-.294.243-.293.727 0 .432.254.637.255.203.803.293l.943.153q1.134.179 1.644.662.522.484.522 1.402 0 .968-.624 1.529-.612.548-1.86.548zm5.946 1.3v-1.02h1.975v-9.939h-1.975v-1.019h3.122v11.978z"/><path fill="#f6ad55" d="M329.115 22.305v-1.02h5.288v1.02zm-6.435 0v-1.02h5.288v1.02zm17.324 3.822q-.828 0-1.452-.33a2.4 2.4 0 0 1-.956-.931q-.331-.613-.331-1.414V21.54q0-.815.331-1.414.344-.6.956-.93.624-.332 1.452-.332t1.44.332q.624.33.956.93.344.599.344 1.414v1.236h-4.358v.676q0 .827.421 1.274.42.433 1.197.433.663 0 1.071-.23.407-.241.497-.713h1.146q-.114.879-.866 1.402-.74.51-1.848.51m1.619-4.115v-.472q0-.828-.421-1.274-.408-.446-1.198-.446-.777 0-1.197.446t-.421 1.274v.37h3.326zm5.41 4.115q-1.109 0-1.746-.56-.637-.574-.637-1.542 0-.981.637-1.542.637-.56 1.721-.56h2.166v-.701q0-.65-.395-.994-.382-.357-1.096-.357-.625 0-1.045.268-.42.255-.484.7h-1.147a2.02 2.02 0 0 1 .854-1.44q.738-.535 1.847-.535 1.21 0 1.912.625.7.624.7 1.694V26h-1.121v-1.338h-.191l.191-.191q0 .765-.599 1.21-.585.447-1.567.446m.28-.904q.816 0 1.338-.408t.523-1.045v-.994h-2.141q-.573 0-.905.319-.331.318-.331.866 0 .587.395.93.408.332 1.121.332m5.564.777v-7.008h1.121v1.338h.268l-.37.828q0-1.134.484-1.707.497-.587 1.466-.587 1.108 0 1.758.701.663.688.663 1.873v.42h-1.147v-.318q0-.828-.408-1.261-.394-.446-1.134-.446-.727 0-1.147.446-.408.446-.408 1.261V26zm11.004 0q-.612 0-1.071-.242a1.75 1.75 0 0 1-.713-.688 2.07 2.07 0 0 1-.255-1.045v-6.282h-2.357v-1.045h3.504v7.327q0 .433.242.688.242.242.65.242h2.23V26zm5.13 2.294 1.032-2.727-2.599-6.575h1.274l1.631 4.332q.089.217.165.523.077.292.128.496.05-.203.127-.496.076-.306.153-.523l1.529-4.332h1.236l-3.453 9.302zm7.156-5.99v-1.019h4.077v1.02zm9.067 3.823q-1.109 0-1.745-.56-.637-.574-.637-1.542 0-.981.637-1.542.636-.56 1.72-.56h2.166v-.701q0-.65-.395-.994-.382-.357-1.096-.357-.624 0-1.045.268-.42.255-.484.7h-1.147a2.02 2.02 0 0 1 .854-1.44q.74-.535 1.848-.535 1.21 0 1.911.625.7.624.701 1.694V26H387.4v-1.338h-.191l.191-.191q0 .765-.598 1.21-.587.447-1.568.446m.281-.904q.814 0 1.338-.408.522-.408.522-1.045v-.994h-2.141q-.573 0-.904.319-.332.318-.332.866 0 .587.395.93.408.332 1.122.332m8.022.904q-.84 0-1.478-.318a2.3 2.3 0 0 1-.968-.918q-.345-.61-.344-1.44v-1.91q0-.841.344-1.44.344-.6.968-.918.638-.319 1.478-.319 1.21 0 1.95.65.738.65.777 1.771h-1.147q-.037-.675-.459-1.032-.407-.37-1.121-.37-.751 0-1.198.434-.446.42-.446 1.21v1.925q0 .79.446 1.223.447.433 1.198.433.714 0 1.121-.37.422-.369.459-1.032h1.147q-.039 1.122-.777 1.772-.74.65-1.95.65m7.64 0q-.84 0-1.478-.318a2.3 2.3 0 0 1-.968-.918q-.344-.61-.344-1.44v-1.91q0-.841.344-1.44.344-.6.968-.918.638-.319 1.478-.319 1.21 0 1.95.65t.777 1.771h-1.147q-.038-.675-.458-1.032-.408-.37-1.122-.37-.751 0-1.197.434-.447.42-.446 1.21v1.925q0 .79.446 1.223t1.197.433q.714 0 1.122-.37.42-.369.458-1.032h1.147q-.037 1.122-.777 1.772t-1.95.65m7.59 0q-.829 0-1.453-.33a2.4 2.4 0 0 1-.956-.931q-.33-.613-.331-1.414V21.54q0-.815.331-1.414.345-.6.956-.93.624-.332 1.453-.332.828 0 1.44.332.624.33.955.93.344.599.344 1.414v1.236h-4.357v.676q0 .827.42 1.274.42.433 1.198.433.662 0 1.07-.23.408-.241.497-.713h1.147q-.115.879-.867 1.402-.738.51-1.847.51m1.618-4.115v-.472q0-.828-.421-1.274-.407-.446-1.197-.446-.777 0-1.198.446t-.42 1.274v.37h3.325zm5.805 4.09q-.713 0-1.248-.217a2.1 2.1 0 0 1-.841-.637 1.95 1.95 0 0 1-.37-.968h1.147a.9.9 0 0 0 .408.586q.344.216.904.217h.536q.675 0 1.006-.268a.92.92 0 0 0 .331-.74q0-.445-.305-.7-.294-.267-.88-.357l-.942-.153q-1.033-.177-1.542-.637-.497-.47-.497-1.363 0-.943.599-1.453.599-.522 1.796-.522h.485q1.006 0 1.618.471.612.473.739 1.275h-1.147a.82.82 0 0 0-.382-.523q-.306-.204-.828-.204h-.485q-.65 0-.955.242-.293.243-.293.727 0 .432.254.637.255.203.803.293l.943.153q1.134.179 1.644.662.522.484.522 1.402 0 .968-.624 1.529-.612.548-1.86.548zm7.641 0q-.714 0-1.249-.217a2.1 2.1 0 0 1-.841-.637 1.95 1.95 0 0 1-.37-.968h1.147a.9.9 0 0 0 .408.586q.344.216.905.217h.535q.675 0 1.006-.268a.92.92 0 0 0 .332-.74q0-.445-.306-.7-.293-.267-.879-.357l-.943-.153q-1.032-.177-1.542-.637-.497-.47-.497-1.363 0-.943.599-1.453.599-.522 1.797-.522h.484q1.006 0 1.618.471.612.473.739 1.275h-1.147a.82.82 0 0 0-.382-.523q-.306-.204-.828-.204h-.484q-.65 0-.956.242-.293.243-.293.727 0 .432.255.637.255.203.802.293l.943.153q1.134.179 1.644.662.523.484.523 1.402 0 .968-.625 1.529-.612.548-1.86.548z"/></svg>