<svg xmlns="http://www.w3.org/2000/svg" width="146.21" height="19.303" viewBox="0 0 146.21 19.303"><g data-name="Gruppe 684"><g data-name="Gruppe 342"><path fill="#4dc709" d="M0 8.605a14.055 14.055 0 0 1 19.846-.523l-1.661 1.661a11.693 11.693 0 0 0-16.524.522Z" data-name="Schnittmenge 1"/></g><path fill="#fff" d="M28.02 19.283a7.5 7.5 0 0 1-2.895-.555 7.2 7.2 0 0 1-2.35-1.55 7.2 7.2 0 0 1-1.575-2.315 7.2 7.2 0 0 1-.56-2.87 7.1 7.1 0 0 1 .58-2.87 7.2 7.2 0 0 1 1.61-2.31 7.4 7.4 0 0 1 2.405-1.54 7.9 7.9 0 0 1 2.955-.55 8.1 8.1 0 0 1 3.315.66 6.6 6.6 0 0 1 2.465 1.83l-2.13 2.13a4.5 4.5 0 0 0-1.6-1.315 4.7 4.7 0 0 0-2.08-.445 4.45 4.45 0 0 0-2.225.55 3.95 3.95 0 0 0-1.535 1.54 4.65 4.65 0 0 0-.55 2.31 4.8 4.8 0 0 0 .54 2.32 3.97 3.97 0 0 0 1.48 1.56 4.14 4.14 0 0 0 2.16.56 4.46 4.46 0 0 0 2.115-.465 3.14 3.14 0 0 0 1.34-1.36 4.65 4.65 0 0 0 .465-2.165l2.09 1.39-6.3-.1v-2.65h7.41v.46a9.1 9.1 0 0 1-.91 4.26 6.16 6.16 0 0 1-2.515 2.61 7.6 7.6 0 0 1-3.705.88m14.02-.22L36.6 4.943h3.37l4.14 11.42h-1.38l4.19-11.42h3.32l-5.5 14.12Zm17.06.24a7.6 7.6 0 0 1-2.945-.56 7.4 7.4 0 0 1-2.37-1.555 7.1 7.1 0 0 1-1.58-2.33 7.3 7.3 0 0 1-.565-2.875 7.3 7.3 0 0 1 .56-2.87 7.2 7.2 0 0 1 1.565-2.315 7.1 7.1 0 0 1 2.355-1.545 7.7 7.7 0 0 1 2.94-.55 7.7 7.7 0 0 1 2.94.55 7.2 7.2 0 0 1 2.36 1.545 7.1 7.1 0 0 1 1.57 2.325 7.35 7.35 0 0 1 .56 2.88 7.3 7.3 0 0 1-.56 2.87 7.1 7.1 0 0 1-1.565 2.325 7.2 7.2 0 0 1-2.35 1.55 7.6 7.6 0 0 1-2.915.555m-.04-2.86a4.26 4.26 0 0 0 2.215-.56 3.85 3.85 0 0 0 1.47-1.565 5 5 0 0 0 .525-2.335 5.2 5.2 0 0 0-.3-1.8 4.05 4.05 0 0 0-.86-1.4 3.8 3.8 0 0 0-1.33-.9 4.5 4.5 0 0 0-1.72-.315 4.3 4.3 0 0 0-2.205.55 3.8 3.8 0 0 0-1.47 1.545 4.9 4.9 0 0 0-.525 2.32 5.3 5.3 0 0 0 .3 1.825 4 4 0 0 0 .855 1.41 3.8 3.8 0 0 0 1.33.9 4.5 4.5 0 0 0 1.715.325m10.46 2.62V4.943h3.15v14.12Zm2.42 0v-2.75h6.99v2.75Zm15.053.22a6.17 6.17 0 0 1-3.066-.745 5.4 5.4 0 0 1-2.083-2.051 5.84 5.84 0 0 1-.754-2.974v-8.57h3.15v8.74a2.83 2.83 0 0 0 .36 1.466 2.46 2.46 0 0 0 .99.945 2.96 2.96 0 0 0 1.4.329 2.9 2.9 0 0 0 1.393-.329 2.4 2.4 0 0 0 .955-.939 2.87 2.87 0 0 0 .35-1.452v-8.76h3.16v8.59a5.85 5.85 0 0 1-.744 2.965 5.4 5.4 0 0 1-2.06 2.04 6.1 6.1 0 0 1-3.051.745m12.757-.22V5.143h3.15v13.92Zm-4.41-11.37v-2.75h11.98v2.75Zm14.77 11.37V4.943h3.15v14.12Zm13.63.24a7.6 7.6 0 0 1-2.945-.56 7.4 7.4 0 0 1-2.37-1.555 7.1 7.1 0 0 1-1.58-2.33 7.3 7.3 0 0 1-.565-2.875 7.3 7.3 0 0 1 .56-2.87 7.2 7.2 0 0 1 1.56-2.315 7.1 7.1 0 0 1 2.355-1.545 7.7 7.7 0 0 1 2.94-.55 7.7 7.7 0 0 1 2.94.55A7.2 7.2 0 0 1 129 6.798a7.1 7.1 0 0 1 1.57 2.325 7.35 7.35 0 0 1 .56 2.88 7.3 7.3 0 0 1-.56 2.87 7.1 7.1 0 0 1-1.565 2.325 7.2 7.2 0 0 1-2.35 1.55 7.6 7.6 0 0 1-2.915.555m-.04-2.86a4.26 4.26 0 0 0 2.215-.56 3.85 3.85 0 0 0 1.47-1.565 5 5 0 0 0 .525-2.335 5.2 5.2 0 0 0-.3-1.8 4.05 4.05 0 0 0-.86-1.4 3.8 3.8 0 0 0-1.33-.9 4.5 4.5 0 0 0-1.72-.315 4.3 4.3 0 0 0-2.205.55 3.8 3.8 0 0 0-1.47 1.545 4.9 4.9 0 0 0-.525 2.32 5.3 5.3 0 0 0 .3 1.825 4 4 0 0 0 .855 1.41 3.8 3.8 0 0 0 1.33.9 4.5 4.5 0 0 0 1.715.325m10.46 2.62V4.943h2.2l.95 2.82v11.3Zm9.75 0-8.32-10.66.77-3.46 8.32 10.66Zm0 0-.85-2.81V4.943h3.15v14.12Z" data-name="Pfad 328"/><path fill="#fff" d="M.405 19.063 7.951.001h3.834l7.479 19.062h-4.481L9.072 3.241h1.539L4.806 19.063ZM4.7 15.621v-3.458h10.38v3.456Z" data-name="Pfad 329"/><g data-name="Gruppe 343"><path fill="#4dc709" d="M2.639 11.406a10.494 10.494 0 0 1 14.6-.384l-1.657 1.661a8.136 8.136 0 0 0-11.284.383Z" data-name="Schnittmenge 2"/></g></g></svg>