<svg xmlns="http://www.w3.org/2000/svg" width="48" height="48" fill="none" viewBox="0 0 48 48"><path fill="#fff" d="m32.798 29.598-.928-2.639-1.223-3.474-.884-2.514-1.158-3.29-1.345-3.822h-6.524l-1.04 2.96-.93 2.638-4.61 13.103h4.302l1.35-3.825h6.525l-1.158-3.29h-4.214l.885-2.515 1.847-5.25.305-.868.306.869 5.233 14.876.001.003h4.303z"/><path stroke="#fff" stroke-linecap="round" stroke-miterlimit="10" stroke-width="1.66" d="M41.012 14.427A19.4 19.4 0 0 1 43.518 24c0 10.78-8.739 19.518-19.518 19.518S4.482 34.779 4.482 24 13.22 4.482 24 4.482c3.502-.006 6.94.936 9.95 2.724"/><circle cx="33.798" cy="7.42" r="2.261" fill="#fff"/></svg>