<svg xmlns="http://www.w3.org/2000/svg" width="1485" height="374" fill="none" viewBox="0 0 1485 374"><path fill="#206fb7" d="M123.324 101.414c19.96 0 36.796 7.642 51.399 23.378l41.639-41.834c-25.314-28.366-56.307-42.291-93.099-42.291-34.564 0-63.897 11.658-87.798 34.649C12.004 98.24 0 126.669 0 160.865c0 34.256 12.004 62.559 35.517 85.546 23.914 22.988 53.247 34.259 87.797 34.259 36.796 0 67.786-13.988 93.103-42.416l-41.694-41.838c-14.603 15.803-31.439 23.444-51.399 23.444-32.008 0-57.198-24.729-57.198-59.061 0-34.13 24.806-59.385 57.198-59.385m350.289 93.718V47.802h-66.06v29.723c-6.637-19.815-32.846-33.802-66.51-33.802-31.439 0-58.156 11.267-79.395 34.259-20.849 22.534-31.552 50.447-31.552 83.344 0 33.353 10.631 61.266 31.552 84.254 21.239 22.535 47.891 33.757 79.395 33.757 35.071 0 59.431-10.814 74.031-32.897q4.684 14.184 19.96 24.284c9.311 5.44 21.682 8.098 36.353 8.098 12.882 0 22.636-1.296 29.714-3.567v-55.902c-3.951.453-7.888.906-11.029.906-11.932.129-16.459-7.189-16.459-25.127m-79.33 6.736c-11.091 10.798-24.933 16.189-41.257 16.189-15.941 0-29.268-5.311-40.363-16.189-11.03-11.271-16.387-24.729-16.387-40.542s5.357-29.257 16.387-40.086c11.095-11.267 24.422-16.718 40.363-16.718 16.39 0 30.18 5.44 41.257 16.718 11.483 10.815 17.282 24.284 17.282 40.086 0 15.803-5.734 29.271-17.282 40.542M596.477 78.941V47.855h-66.061v226.988h66.061V164.048c0-37.365 22.189-59.061 59.877-59.061 7.451.013 14.884.772 22.189 2.267v-63.09c-7.075-.843-12.878-1.296-17.278-1.296-30.671 0-54.572 13.082-64.788 36.073m271.909-1.416c-6.698-19.815-32.838-33.802-66.575-33.802-31.439 0-58.028 11.267-79.388 34.259-20.79 22.534-31.439 50.447-31.439 83.344 0 32.444 10.632 59.908 31.439 81.924 21.298 22.145 47.887 32.897 79.388 32.897 32.396 0 59.047-11.201 68.358-27.457v4.918c0 23.901-6.632 40.546-19.51 49.612-11.098 7.639-26.658 11.644-45.72 11.644-23.469 0-46.107-7.189-68.746-21.563l-31.435 48.567c29.713 21.176 66.063 32.043 109.489 32.043 32.392 0 59.431-8.613 81.174-26.161 30.548-23.9 39.026-58.089 39.026-110.808V47.802h-66.061zM855.059 200.97q-16.647 16.22-41.193 16.255c-16.006 0-29.337-5.441-40.366-16.255-11.098-10.815-16.462-23.831-16.462-39.633s5.354-29.258 16.462-40.086c11.029-11.268 24.35-16.719 40.366-16.719 16.383 0 30.095 5.441 41.193 16.719 11.475 10.815 17.278 24.283 17.278 40.086s-5.803 28.745-17.278 39.633m626.171 17.065h-4.45c-11.04 0-14.61-6.27-14.61-23.831v-57.173c0-59.062-30.99-94.163-84.62-94.163-30.16 0-55.03 13.472-64.34 33.353V47.855h-66.06v226.988h66.07V147.33c0-26.551 18.24-45.007 43.04-45.007 26.21 0 39.92 16.255 39.92 42.806v67.608c0 43.189 19.51 64.826 58.99 64.826 13.77 0 23.53-.906 28.89-3.177v-56.727zM1166.9 40.6l-30.29 52.976c7.78 6.764 14.01 15.158 18.28 24.605a72.8 72.8 0 0 1 6.47 30.117c0 39.828-31.76 72.209-70.97 72.209-39.22 0-70.98-32.319-70.98-72.209a72.6 72.6 0 0 1 6.37-29.907 71.5 71.5 0 0 1 18.06-24.491l-30.18-53.172c-32.843 24.159-54.14 63.273-54.14 107.57 0 73.439 58.6 132.89 130.85 132.89s130.79-59.518 130.79-132.89c.01-44.297-21.42-83.54-54.26-107.698"/><path fill="#6ec05d" d="M1115.65 137.927c-.08 6.733-2.77 13.163-7.48 17.896-4.72 4.734-11.08 7.388-17.71 7.388s-12.99-2.654-17.71-7.388c-4.72-4.733-7.4-11.163-7.48-17.896V25.708C1065.26 11.528 1076.55 0 1090.45 0c3.32.004 6.6.673 9.66 1.968a25.2 25.2 0 0 1 8.19 5.578 25.6 25.6 0 0 1 5.45 8.338 26 26 0 0 1 1.9 9.824z"/></svg>