<svg xmlns="http://www.w3.org/2000/svg" width="48" height="48" fill="none" viewBox="0 0 48 48"><g clip-path="url(#a)"><path fill="url(#b)" d="M37.008 31.812c1.4-4.533 1.16-9.295-.692-13.72-1.85-4.427-5.235-8.334-9.753-11.26 4.125-1.912 8.803-2.915 13.563-2.907 1.804 0 3.604.142 5.374.426l.744-2.412a38 38 0 0 0-6.118-.499c-5.769-.009-11.42 1.316-16.281 3.817C18.982 2.756 13.332 1.43 7.563 1.44a37.6 37.6 0 0 0-6.123.5l.744 2.411a34 34 0 0 1 5.38-.426c4.76-.008 9.438.993 13.567 2.903-3.692 2.39-6.64 5.444-8.605 8.917S9.63 23.013 9.809 26.827c.18 3.814 1.465 7.542 3.752 10.884s5.512 6.207 9.419 8.365l.874.484.87-.484c6.12-3.385 10.494-8.46 12.294-14.264zM22.303 42.526c-4.023-2.8-6.943-6.487-8.4-10.608-1.456-4.12-1.386-8.494.202-12.582 1.556 2.083 3.486 3.97 5.73 5.597.777.565 1.4 1.256 1.825 2.028.425.771.644 1.606.643 2.45zm1.541-18.155c-2.066-1.235-3.907-2.7-5.465-4.35-.998-1.058-1.538-2.35-1.538-3.678s.54-2.62 1.538-3.677c1.557-1.664 3.4-3.141 5.475-4.386 2.097 1.262 3.959 2.76 5.528 4.448.965 1.04 1.487 2.303 1.487 3.602s-.522 2.562-1.487 3.602c-1.575 1.684-3.44 3.179-5.538 4.44m1.537 18.156V29.411c0-.845.22-1.68.646-2.452.426-.771 1.049-1.462 1.828-2.027 2.242-1.626 4.171-3.513 5.724-5.597a18 18 0 0 1 1.244 6.58c-.004 3.153-.85 6.267-2.478 9.134-1.63 2.866-4.004 5.416-6.964 7.477"/></g><defs><linearGradient id="b" x1="1.44" x2="46.244" y1="14.224" y2="14.224" gradientUnits="userSpaceOnUse"><stop stop-color="#0037a5"/><stop offset=".504" stop-color="#6933ff"/><stop offset="1" stop-color="#00fced"/></linearGradient><clipPath id="a"><path fill="#fff" d="M1.44 1.44h45.12v45.12H1.44z"/></clipPath></defs></svg>