<svg xmlns="http://www.w3.org/2000/svg" xml:space="preserve" style="fill-rule:evenodd;clip-rule:evenodd;stroke-linejoin:round;stroke-miterlimit:2" viewBox="0 0 441 441"><path d="M3053.7 5296.9c1317.95 0 2387.96 1070.01 2387.96 2387.96S4371.65 10072.8 3053.7 10072.8 665.74 9002.81 665.74 7684.86 1735.75 5296.9 3053.7 5296.9m691.33 2846.32c-150.91-.4-300.72-18.65-421.16-33.07-91.58-10.97-178.88-30.92-250.77-51.92a27.965 27.965 0 0 0-31.35 11.01c-6.89 10.16-7.29 24.47 1.34 33.2 35.12 35.5 144.65 107.77 228.61 139.39-67.66 61.37-109.6 196.45-125.37 266.11-21.16 93.46-18.58 226.89-10.14 275.51 33.95 195.59 114.5 368.54 300.8 514.45 130.41 102.13 315.29 167.48 500.89 162.16 256.13-7.35 557.6-131.55 786.77-389.89 298.6-359.59 483.87-817.72 498.82-1320.67 35.61-1197.6-907.77-2198.81-2105.37-2234.42-1197.59-35.61-2198.799 907.78-2234.411 2105.37-18.443 620.21 225.681 1187.76 631.741 1595.75 11.3 11.19 28.78 13.23 42.35 4.94s19.73-24.78 14.92-39.94c-338.63-1108.65 226.41-2348.56 902.14-2764.1 250.87-154.28 499.15-220.04 728.72-139.4 351.48 123.45 559.47 345.56 995.5 520.23 436.03 174.66 497.29 496.81 393.52 830.21s-479.58 516.03-847.55 515.08m-827.86-1700.71c-139.42 17.46-223.24 194.93-230.09 306.91-6.9 111.97 56.95 293.28 239.11 281.21 213.33-14.14 269.7-199.93 238.05-375.69-23.76-132-130.51-227.04-247.07-212.43" style="fill:#fff" transform="rotate(2.663 10746.822 -855.133)scale(.09213)"/></svg>