<svg xmlns="http://www.w3.org/2000/svg" width="151" height="30" fill="none" viewBox="0 0 151 30"><path fill="#1e1c1f" d="M54.232 20.168v3.182h-4.258a5.33 5.33 0 0 1-3.76-1.553 5.3 5.3 0 0 1-1.558-3.752V3.184h3.189v3.182h4.783v3.182h-7.895l3.12 3.204v5.29a2.12 2.12 0 0 0 1.307 1.963c.258.107.534.162.814.163zM30.841 6.37h-2.129c-1.41 0-2.763.558-3.76 1.553a5.3 5.3 0 0 0-1.557 3.753v6.364a5.3 5.3 0 0 0 1.557 3.751 5.32 5.32 0 0 0 3.76 1.553h4.253v1.063a2.12 2.12 0 0 1-1.31 1.967 2.1 2.1 0 0 1-.814.163h-6.377v3.182h6.377a5.33 5.33 0 0 0 3.76-1.554 5.3 5.3 0 0 0 1.556-3.752V11.676a5.3 5.3 0 0 0-3.281-4.903 5.3 5.3 0 0 0-2.035-.404m2.125 13.798h-4.254a2.13 2.13 0 0 1-2.127-2.121v-6.364c0-.563.224-1.103.623-1.5a2.13 2.13 0 0 1 1.504-.622h2.13a2.13 2.13 0 0 1 1.502.622c.399.398.622.938.622 1.5zM79.22 9.025c0 .704.28 1.38.78 1.877a2.66 2.66 0 0 0 1.88.777h3.189a5.85 5.85 0 0 1 4.135 1.71 5.83 5.83 0 0 1 0 8.254 5.86 5.86 0 0 1-4.135 1.71h-7.974v-3.182h7.976c.705 0 1.381-.28 1.88-.778a2.65 2.65 0 0 0-1.88-4.528h-3.189a5.86 5.86 0 0 1-4.137-1.71 5.832 5.832 0 0 1 1.898-9.52 5.9 5.9 0 0 1 2.24-.444h7.973v3.182H81.88c-.705 0-1.381.28-1.88.777a2.65 2.65 0 0 0-.78 1.875m-5.314-5.839h-3.19v20.166h3.19zM62.739 6.37h-6.39v3.18h6.378a2.13 2.13 0 0 1 1.976 1.31c.108.258.163.535.163.815v1.063H60.61c-1.41 0-2.762.559-3.76 1.554a5.3 5.3 0 0 0 1.726 8.653 5.3 5.3 0 0 0 2.034.404h2.126a5.33 5.33 0 0 0 3.76-1.553 5.3 5.3 0 0 0 1.557-3.752V11.68A5.3 5.3 0 0 0 66.5 7.926a5.32 5.32 0 0 0-3.761-1.557m2.127 11.677a2.13 2.13 0 0 1-2.127 2.12H60.61a2.13 2.13 0 0 1-1.503-.62 2.12 2.12 0 0 1-.624-1.5 2.12 2.12 0 0 1 2.127-2.12h4.255zm51.044-1.064a5.33 5.33 0 0 0 3.761-1.554 5.3 5.3 0 0 0 0-7.505 5.33 5.33 0 0 0-3.761-1.554h-2.129a5.33 5.33 0 0 0-3.759 1.555 5.3 5.3 0 0 0-1.557 3.752v6.364a5.3 5.3 0 0 0 1.558 3.75 5.32 5.32 0 0 0 3.758 1.554h6.378v-3.182h-6.378a2.13 2.13 0 0 1-1.965-1.31 2.1 2.1 0 0 1-.161-.812v-1.064zm-4.254-5.306c0-.563.224-1.103.623-1.501a2.13 2.13 0 0 1 1.504-.622h2.127a2.124 2.124 0 0 1 1.505 3.624 2.13 2.13 0 0 1-1.505.621h-4.254zm19.141 5.306c1.411 0 2.763-.56 3.76-1.554a5.3 5.3 0 0 0 0-7.504 5.32 5.32 0 0 0-3.76-1.555h-2.129a5.33 5.33 0 0 0-3.759 1.555 5.3 5.3 0 0 0-1.557 3.752v6.364a5.3 5.3 0 0 0 1.558 3.75 5.32 5.32 0 0 0 3.758 1.554h6.377v-3.182h-6.377a2.13 2.13 0 0 1-1.965-1.31 2.1 2.1 0 0 1-.161-.812v-1.064zm-4.253-5.306a2.126 2.126 0 0 1 2.126-2.122h2.127a2.13 2.13 0 0 1 2.128 2.122 2.12 2.12 0 0 1-1.314 1.96 2.1 2.1 0 0 1-.814.162h-4.253zM8.508 3.186H0v20.166h8.508c1.692 0 3.314-.67 4.51-1.864a6.36 6.36 0 0 0 1.868-4.5V9.553a6.35 6.35 0 0 0-1.867-4.502 6.38 6.38 0 0 0-4.51-1.865m3.19 13.8a3.18 3.18 0 0 1-.935 2.25 3.2 3.2 0 0 1-2.255.932H3.191V9.513L0 6.37h8.508c.846 0 1.657.336 2.255.932s.934 1.406.934 2.25zM147.81 0v6.364h-4.255a5.33 5.33 0 0 0-3.759 1.554 5.3 5.3 0 0 0-1.557 3.752v6.364a5.3 5.3 0 0 0 1.557 3.752 5.32 5.32 0 0 0 3.759 1.554h2.128a5.32 5.32 0 0 0 3.759-1.554A5.3 5.3 0 0 0 151 18.034V0zm0 12.55v5.495a2.13 2.13 0 0 1-2.127 2.123h-2.128a2.125 2.125 0 0 1-2.126-2.123v-6.364a2.126 2.126 0 0 1 2.126-2.123h7.242zM20.736 3.186v3.181h-3.127l3.126 2.944V23.35h-3.188V3.186zm21.267 0v3.181h-3.14l3.14 2.944V23.35h-3.189V3.186zm58.488 3.184h-2.123c-1.41 0-2.763.558-3.76 1.553a5.3 5.3 0 0 0-1.558 3.753V29.72h3.189v-6.364h4.254a5.32 5.32 0 0 0 3.76-1.554 5.3 5.3 0 0 0 1.151-1.722 5.3 5.3 0 0 0 .404-2.03v-6.364a5.3 5.3 0 0 0-3.279-4.913 5.3 5.3 0 0 0-2.038-.405m2.127 11.675a2.12 2.12 0 0 1-.623 1.501 2.12 2.12 0 0 1-1.504.622h-4.254v-8.492a2.12 2.12 0 0 1 2.13-2.123h2.128a2.13 2.13 0 0 1 1.504.622c.399.398.623.938.623 1.5z" style="fill:#1e1c1f;fill:color(display-p3 .1176 .1098 .1216);fill-opacity:1"/></svg>