<svg xmlns="http://www.w3.org/2000/svg" fill="none" class="nav_logo-svg" viewBox="0 0 1625 353"><path fill="#fff" d="M171.5 0c16.954 0 33.332 2.46 48.799 7.043a6.37 6.37 0 0 0 4.146-.192c13.192-5.203 27.704-7.505 41.61-4.536 20.315 4.137 36.053 17.017 48.257 30.891l.203.232c1.597 1.821-1.253 4.343-3.124 2.805-27.82-25.056-66.924-26.463-90.577-1.823a140 140 0 0 0-5.104 4.99.4.4 0 0 0-.072.101l-.122.243a.095.095 0 0 1-.114.048.09.09 0 0 0-.096.023c-21.617 22.392-36.467 52.133-49.268 82.14-27.042 65.678-43.708 136.525-55.377 206.95-.953 5.959-1.91 12.146-2.773 18.16-.429 2.989-2.981 5.22-6 5.22H32.545c-3.852 0-6.7-3.555-5.793-7.299 3.07-12.68 8.373-32.918 10.589-39.325q2.795-8 5.603-15.911c.743-2.092.274-4.418-1.179-6.097C15.744 253.594 0 214.387 0 171.5 0 76.783 76.783 0 171.5 0m98.412 32.394a5.67 5.67 0 0 1 3.453 1.125C315.608 64.757 343 114.929 343 171.5c0 94.717-76.783 171.5-171.5 171.5a172.4 172.4 0 0 1-32.729-3.121c-3.153-.61-5.19-3.667-4.474-6.798 1.716-7.494 4.168-14.649 7.071-21.346 1.105-2.551 3.871-3.901 6.611-3.434a139.6 139.6 0 0 0 23.521 1.986c76.65 0 138.787-62.137 138.787-138.787 0-51.072-27.587-95.699-68.672-119.797-3.57-2.094-4.321-7.065-1-9.534 9.381-6.975 18.993-9.61 29.297-9.775m-98.412.319C94.85 32.713 32.713 94.85 32.713 171.5c0 25.22 6.727 48.869 18.485 69.25 2.428 4.21 8.49 3.509 10.25-1.021 18.425-47.378 39.216-92.743 67.334-137.445 13.664-20.96 28.248-41.878 46.258-60.106 3.444-3.485 1.36-9.465-3.54-9.465m261.17 263.46a6.67 6.67 0 0 1-6.67-6.67V61.497a6.67 6.67 0 0 1 6.67-6.67h138.405a6.67 6.67 0 0 1 6.671 6.67v20.448a6.67 6.67 0 0 1-6.671 6.67H469.833a6.67 6.67 0 0 0-6.671 6.67v55.961a6.67 6.67 0 0 0 6.671 6.67h91.608a6.67 6.67 0 0 1 6.67 6.671v20.447a6.67 6.67 0 0 1-6.67 6.671h-91.608a6.67 6.67 0 0 0-6.671 6.67v57.339a6.67 6.67 0 0 0 6.671 6.671h102.963a6.67 6.67 0 0 1 6.67 6.67v20.448a6.67 6.67 0 0 1-6.67 6.67zM700.104 301q-27.184 0-48.174-9.654t-33.033-28.272q-11.699-18.963-11.699-45.856v-1.949a6.67 6.67 0 0 1 6.67-6.67h23.478a6.67 6.67 0 0 1 6.67 6.67v1.949q0 25.514 15.14 38.271 15.484 12.757 40.948 12.757 25.806 0 38.882-10.688 13.076-11.034 13.076-28.272 0-11.377-6.194-18.618t-17.549-11.378q-11.355-4.482-27.183-8.275l-12.732-3.103q-23.054-5.517-40.259-13.446-16.86-8.275-26.151-21.721-9.29-13.447-9.29-34.479 0-21.376 10.322-36.546 10.668-15.171 29.248-23.445Q670.856 50 695.974 50t44.733 8.62q19.957 8.619 31.312 25.513t11.356 42.408v5.742a6.67 6.67 0 0 1-6.671 6.67h-23.477a6.67 6.67 0 0 1-6.671-6.67v-5.742q0-15.515-6.537-25.169-6.195-9.654-17.549-14.136-11.355-4.482-26.496-4.482-22.022 0-34.409 9.31-12.043 8.963-12.043 25.168 0 11.033 5.161 18.273 5.506 6.897 15.828 11.378 10.323 4.483 25.808 7.93l12.731 3.103q23.399 5.172 41.291 13.447 17.893 7.93 28.216 21.721 10.323 13.79 10.323 35.512 0 21.721-11.011 37.926-10.666 16.205-30.624 25.514Q727.287 301 700.104 301m217.252 0q-44.043 0-69.851-24.824-25.807-25.17-25.807-72.404v-56.544q0-47.235 25.807-72.059Q873.313 49.999 917.356 50q43.356 0 66.755 24.135 23.74 24.134 23.739 65.853c0 1.142-.92 2.068-2.07 2.068h-31.642a3.103 3.103 0 0 1-3.103-3.103q0-24.479-13.42-39.994-13.075-15.516-40.259-15.515-27.527 0-43.011 16.894-15.485 16.55-15.485 46.2v57.924q0 29.305 15.485 46.2 15.484 16.894 43.011 16.894 27.184 0 40.259-15.515 13.42-15.86 13.42-39.994a5.86 5.86 0 0 1 5.861-5.862h26.134c2.66 0 4.82 2.162 4.82 4.827q.002 41.72-23.739 65.853Q960.712 301 917.356 301m120.234-4.827c-4.43 0-7.63-4.239-6.41-8.499l65.01-228.006a6.68 6.68 0 0 1 6.42-4.841h55.3c2.98 0 5.6 1.98 6.42 4.85l64.69 228.005c1.21 4.258-1.99 8.491-6.42 8.491h-24.3c-3 0-5.62-1.997-6.43-4.882l-13.11-47.124a6.665 6.665 0 0 0-6.42-4.883h-84.15c-3 0-5.62 1.997-6.43 4.883l-13.11 47.124a6.67 6.67 0 0 1-6.43 4.882zm57.16-99.816c-1.18 4.249 2.02 8.449 6.43 8.449h58.17c4.4 0 7.6-4.2 6.43-8.448L1133.75 80.58a3.615 3.615 0 0 0-6.97 0zm175.98 99.816a6.666 6.666 0 0 1-6.67-6.67V61.497c0-3.684 2.98-6.67 6.67-6.67h88.99c14.68 0 27.75 2.988 39.22 8.964 11.7 5.746 20.76 14.021 27.19 24.824 6.65 10.574 9.98 23.331 9.98 38.271v4.482c0 14.941-3.45 27.812-10.33 38.616q-9.975 16.204-27.18 24.824-17.205 8.619-38.88 8.619h-51.83a6.673 6.673 0 0 0-6.67 6.671v79.405c0 3.684-2.99 6.67-6.67 6.67zm30.49-133.205a6.673 6.673 0 0 0 6.67 6.671h48.04c13.08 0 23.51-3.448 31.31-10.344q11.7-10.343 11.7-28.272v-3.447q0-18.275-11.7-28.617c-7.8-6.896-18.23-10.344-31.31-10.344h-48.04a6.673 6.673 0 0 0-6.67 6.67zm176.84 133.205a6.67 6.67 0 0 1-6.67-6.67V61.497c0-3.684 2.99-6.67 6.67-6.67h138.4c3.69 0 6.67 2.986 6.67 6.67v20.448c0 3.684-2.98 6.67-6.67 6.67h-101.24a6.673 6.673 0 0 0-6.67 6.67v55.961c0 3.684 2.99 6.67 6.67 6.67h91.61c3.68 0 6.67 2.987 6.67 6.671v20.447a6.673 6.673 0 0 1-6.67 6.671h-91.61a6.67 6.67 0 0 0-6.67 6.67v57.339a6.673 6.673 0 0 0 6.67 6.671h102.96c3.69 0 6.68 2.986 6.68 6.67v20.448c0 3.684-2.99 6.67-6.68 6.67z"/></svg>