<svg xmlns="http://www.w3.org/2000/svg" data-name="Layer 2" viewBox="0 0 116.32 27.32"><defs><clipPath id="a"><path d="M0 0h116.32v27.32H0z" style="fill:none"/></clipPath></defs><g data-name="Layer 1" style="clip-path:url(#a)"><path d="M0 14.17v-.06C0 9.4 3.3 5.65 7.68 5.65s7.42 3.69 7.42 8.48c0 .21 0 .42-.03.63H1.65c.29 4.03 3.17 6.38 6.34 6.38 2.51 0 4.22-1.11 5.55-2.54l1.08.95c-1.65 1.78-3.59 3.05-6.69 3.05C3.68 22.6 0 19.2 0 14.15Zm13.42-.8c-.22-3.27-2.09-6.29-5.81-6.29-3.2 0-5.68 2.7-5.96 6.29zm13.16-.47L38.74 0 27.57 13.94l6.63 8.29h-1.93l-5.71-7.21-11.7 12.29 10.72-13.34-6.34-7.94h1.93l5.42 6.86ZM39.8 6.04h1.55v3.62c1.4-2.13 3.46-4 6.66-4 3.9 0 7.87 3.15 7.87 8.42v.06c0 5.27-3.97 8.48-7.87 8.48-3.24 0-5.33-1.84-6.66-3.88v6.67l-1.55 1.91zm14.41 8.16v-.06c0-4.26-2.95-6.99-6.34-6.99s-6.6 2.83-6.6 6.96v.06c0 4.16 3.24 6.96 6.6 6.96s6.34-2.57 6.34-6.92Zm6.29 3.33v-.06c0-3.37 2.89-5.27 7.07-5.27 1.81-.02 3.62.22 5.36.7v-.7c0-3.27-2-4.96-5.33-4.96-1.77.01-3.52.46-5.08 1.3l-.57-1.37c1.78-.83 3.52-1.4 5.74-1.4s3.93.6 5.11 1.78c1.08 1.08 1.65 2.57 1.65 4.57v10.1h-1.52v-2.7c-1.11 1.56-3.11 3.08-6.19 3.08s-6.25-1.72-6.25-5.08Zm12.47-1.36v-1.84c-1.79-.48-3.64-.73-5.49-.73-3.42 0-5.33 1.52-5.33 3.78v.06c0 2.35 2.22 3.72 4.69 3.72 3.3 0 6.12-2.03 6.12-4.99Zm8.19-10.13h1.55v3.02c1.08-1.91 2.89-3.4 5.84-3.4 4.09 0 6.47 2.8 6.47 6.67v9.91h-1.55v-9.62c0-3.34-1.87-5.53-5.14-5.53s-5.62 2.41-5.62 5.78v9.37h-1.55zm19.07 8.16v-.06c0-5.27 3.96-8.48 7.87-8.48 3.23 0 5.33 1.84 6.66 3.88V1.91L116.31 0v22.24h-1.55v-3.62c-1.4 2.13-3.46 4-6.66 4-3.9 0-7.87-3.14-7.87-8.42m14.63-.03v-.06c0-4.16-3.24-6.96-6.6-6.96s-6.34 2.57-6.34 6.92v.06c0 4.26 2.95 6.99 6.34 6.99s6.6-2.83 6.6-6.96Z" style="fill:#fff"/></g></svg>