<svg xmlns="http://www.w3.org/2000/svg" fill="none" viewBox="0 0 408 96"><path fill="#3f3f47" d="M44.614 72.728c-7.702 1.71-14.122 2.724-17.665 5.695-3.544 2.97-4.703 5.601-6.406 9.354-.275.602-.485.841-.949.841h-2.855a.724.724 0 0 1-.739-.717c.377-7.13 8.086-30.527 20.158-46.584C48.23 25.253 56.2 17.767 73.235 6.87c.189.427.595 1.427.681 1.63 3.703 8.818 4.573 19.383.877 28.353-3.5 8.5-10.774 13.746-19.528 15.869-1.92.463-3.869.811-5.832 1.087a.724.724 0 0 0-.623.71v2.485c0 .355.246.652.594.717 1.71.312 4.021.435 7.477.102 3.276-.312 6.268-.978 8.239-1.913 0 0 1.355 12.26-20.506 16.81zm66.778-32.688h-9.038v-7.439h9.038v-6.557c0-7.346 4.482-11.38 12.189-11.38h8.257v7.259h-6.109c-3.854 0-5.199 1.699-5.199 5.017v5.661h10.498v7.44H120.53v39.974h-9.146V40.041zm22.947 16.491c0-15.06 8.156-24.647 21.777-24.647 14.966 0 22.138 10.845 20.974 26.26h-33.699c.087 10.396 5.198 15.595 12.999 15.595 6.182 0 10.13-2.958 11.474-7.527h8.785c-1.432 9.146-9.594 14.612-20.259 14.612-13.982 0-22.051-9.594-22.051-24.293m9.146-4.656h24.56c-.267-8.965-5.111-12.905-11.922-12.905-7.259 0-11.922 4.482-12.638 12.905m39.895 15.508c0-9.413 7.526-14.88 19.629-14.88h10.845v-4.568c0-6.182-3.586-8.872-9.681-8.872s-10.129 3.044-10.31 7.62h-9.051c.18-8.964 8.068-14.965 19.896-14.965s18.372 6.008 18.372 16.578v20.345c0 3.225 1.077 4.483 3.318 4.483h2.328v6.904h-5.198c-5.198 0-7.975-2.422-8.785-7.078h-.361c-2.509 4.75-8.698 7.794-15.595 7.794-9.233 0-15.414-5.285-15.414-13.354zm30.474-1.699v-7.266h-9.232c-7.708 0-11.829 3.044-11.829 8.336 0 4.57 3.492 7.44 9.052 7.44 5.914 0 10.484-3.492 12.009-8.51m23.953 3.486V40.128h-8.965V32.6h8.965V16.797l9.139-1.078v16.882h10.577v7.527h-10.484v27.517c0 3.318 1.613 4.663 4.664 4.663h5.914v7.707h-9.052c-7.172 0-10.758-3.224-10.758-10.845m36.822-54.492v26.628h.535c2.776-6.724 9.052-9.421 16.043-9.421 9.681 0 16.94 5.466 16.94 19.99v28.147h-9.232v-26.26c0-9.68-3.493-14.25-11.026-14.25-8.156 0-13.267 7.166-13.267 15.32v25.19h-9.139V14.678zm40.603 41.853c0-15.06 8.156-24.647 21.784-24.647 14.966 0 22.138 10.845 20.974 26.26h-33.698c.086 10.396 5.198 15.595 12.999 15.595 6.182 0 10.129-2.958 11.474-7.527h8.784c-1.431 9.146-9.587 14.612-20.258 14.612-13.983 0-22.051-9.594-22.051-24.293zm9.139-4.656h24.56c-.267-8.965-5.111-12.905-11.922-12.905-7.259 0-11.922 4.482-12.638 12.905M366.363 32.6h8.249l.448 8.422h.448c2.061-6.095 7.44-9.052 13.716-9.052 1.077 0 1.973.087 2.776.181v8.698c-.716-.087-1.793-.087-2.87-.087-8.423 0-13.173 4.389-13.622 12.19V80.02h-9.138V32.599z"/></svg>