<svg xmlns="http://www.w3.org/2000/svg" width="92" height="20" fill="none"><path fill="#000" d="M31.229.518h3.04v14.756h-3.04Zm-2.397 2.384q-.704 0-1.127.401-.424.384-.424 1.244v.559h2.136v2.263h-2.136v7.897h-3.04V7.369h-1.912V5.106h1.912v-.64q0-1.923.991-2.987.991-1.063 2.864-1.062 1.047 0 1.731.261v2.364a4.4 4.4 0 0 0-.991-.14h-.003Zm17.985 2.204-4.714 10.705q-.864 1.947-2.193 2.845-1.312.925-3.223 1.185l-.703-2.326q1.407-.301 2.113-.761a3.04 3.04 0 0 0 1.128-1.344l.301-.66-4.206-9.642h3.183l2.617 6.597 2.697-6.595Zm5.638 10.32q-2.496 0-3.926-1.403-1.41-1.404-1.409-3.829 0-1.583.684-2.786a4.7 4.7 0 0 1 1.913-1.884q1.247-.681 2.88-.682a6.9 6.9 0 0 1 2.154.341q1.046.34 1.671.921l-.806 2.106a4.7 4.7 0 0 0-1.323-.742 3.9 3.9 0 0 0-1.409-.28q-1.248 0-1.952.761-.686.742-.686 2.185 0 1.463.685 2.225.685.742 1.953.741c.479-.004.954-.09 1.404-.256a5 5 0 0 0 1.322-.762l.806 2.105a4.8 4.8 0 0 1-1.732.923 7.8 7.8 0 0 1-2.229.316m10.282-2.302q1.129 0 1.713-.741.605-.742.603-2.245 0-1.482-.603-2.224-.585-.762-1.713-.762-1.146 0-1.751.762-.603.742-.603 2.224 0 2.986 2.354 2.986m0 2.306q-1.629 0-2.858-.641a4.54 4.54 0 0 1-1.872-1.844q-.644-1.203-.644-2.807 0-1.605.644-2.805a4.54 4.54 0 0 1 1.872-1.846q1.23-.639 2.858-.641 1.63 0 2.819.642a4.4 4.4 0 0 1 1.855 1.844q.66 1.205.661 2.806c.001 1.601-.221 2.003-.661 2.807a4.4 4.4 0 0 1-1.855 1.843q-1.205.636-2.819.636Zm12.172-2.306q1.128 0 1.732-.76.606-.782.605-2.225 0-1.424-.625-2.186-.605-.781-1.712-.781-1.128 0-1.752.761-.623.762-.623 2.167 0 1.441.623 2.244.627.781 1.752.78M80.246.518v14.756h-3.004v-1.503a3.2 3.2 0 0 1-1.309 1.222 4.1 4.1 0 0 1-1.913.441 4.24 4.24 0 0 1-2.336-.661 4.6 4.6 0 0 1-1.606-1.886 6.6 6.6 0 0 1-.563-2.787q0-1.565.564-2.748a4.43 4.43 0 0 1 1.592-1.845 4.3 4.3 0 0 1 2.355-.661 4 4 0 0 1 1.873.441c.542.259.999.67 1.313 1.182V.523ZM87.29 6.97q-.866 0-1.409.501-.526.503-.686 1.463h4.047Q88.996 6.97 87.29 6.97m4.571 3.469h-6.726q.079 1.42.746 2.083.66.642 1.972.642a5.06 5.06 0 0 0 3.015-1.018l.806 2.044a5.5 5.5 0 0 1-1.811.923 7.5 7.5 0 0 1-2.155.321q-2.578 0-4.047-1.403-1.467-1.428-1.465-3.868c-.019-.955.195-1.9.624-2.753a4.6 4.6 0 0 1 1.79-1.884 5 5 0 0 1 2.599-.682q2.154 0 3.403 1.404 1.247 1.383 1.247 3.754ZM15.579 7.811a8 8 0 0 0-2.775 1.65l-.001.004.001.004a12.3 12.3 0 0 0 2.373 1.857l.004-.001a7.16 7.16 0 0 1 2.424-2.483 6.9 6.9 0 0 1 3.183-1.009l.004-.002.001-.003-.001-.004-.004-.001a6.9 6.9 0 0 1-3.183-1.014 7.14 7.14 0 0 1-2.413-2.505 12.4 12.4 0 0 0-2.365 1.845v.004a8 8 0 0 0 2.75 1.659"/><path fill="#000" d="M10.117 15.06h4.044l.003-.002.002-.004c0-1.309.347-2.595 1.006-3.726v-.002l-.001-.002a12 12 0 0 1-2.372-1.857 8.4 8.4 0 0 0-2.685 5.593m2.71-8.912a12 12 0 0 1 2.362-1.847v-.004A7.4 7.4 0 0 1 14.182.559l-.004-.001h-4.039l-.002.001-.001.002v.003a8.38 8.38 0 0 0 2.687 5.587z"/><path fill="transparent" d="M10 12V2H0v10Z"/><path fill="#000" d="m4.5 7.275-.436 1.6-.435-1.6c-.11-.402-.165-.603-.272-.769a1.3 1.3 0 0 0-.365-.364c-.164-.107-.365-.162-.768-.272l-1.6-.435 1.6-.436c.402-.109.602-.164.768-.272q.22-.144.365-.364c.107-.165.162-.366.272-.769l.435-1.6.436 1.6c.109.402.164.603.272.769.095.145.219.269.364.364.165.108.366.162.769.272l1.6.436-1.6.435c-.402.11-.603.165-.769.272a1.3 1.3 0 0 0-.364.364c-.108.165-.162.366-.272.769m3.825 3.288c-.106.152-.165.339-.285.712l-.226.7-.227-.7c-.119-.372-.179-.558-.285-.712a1.3 1.3 0 0 0-.35-.34c-.156-.1-.344-.154-.719-.261l-.607-.173.607-.173c.376-.108.564-.161.719-.261.138-.089.257-.205.35-.34.106-.152.165-.339.285-.712l.227-.7.226.7c.119.372.179.558.285.712q.141.204.351.34c.155.1.343.154.718.261l.607.173-.607.173c-.375.108-.563.161-.718.261a1.3 1.3 0 0 0-.351.34"/></svg>