<svg xmlns="http://www.w3.org/2000/svg" width="48" height="48" fill="none" viewBox="0 0 48 48"><path fill="#2d3748" d="M16.819 35.052c0-.158-.158-.316-.395-.316s-.395.158-.395.316.158.316.395.237c.237 0 .395-.08.395-.237m-2.448-.395c.079-.158.316-.237.552-.158.237.08.316.237.316.395a.38.38 0 0 1-.474.158c-.236 0-.394-.237-.394-.395m3.553-.079c.158-.079.395.08.395.237.079.158-.08.237-.316.316-.237.079-.474 0-.474-.158 0-.237.158-.395.395-.395m5.132-30.32c10.976 0 19.898 8.37 19.898 19.266 0 8.764-5.369 16.266-13.265 18.871-1.026.237-1.421-.395-1.421-.947 0-.632.079-3.948.079-6.554 0-1.895-.632-3.08-1.343-3.711 4.422-.474 9.08-1.105 9.08-8.686 0-2.21-.789-3.237-2.052-4.658.158-.553.868-2.606-.237-5.37-1.658-.552-5.448 2.132-5.448 2.132-1.58-.474-3.238-.631-4.975-.631-1.658 0-3.316.157-4.895.631 0 0-3.87-2.605-5.449-2.132-1.105 2.764-.473 4.817-.237 5.37-1.263 1.42-1.895 2.447-1.895 4.658 0 7.58 4.501 8.212 8.923 8.686-.632.553-1.105 1.421-1.263 2.685-1.185.552-4.027 1.42-5.765-1.659-1.105-1.895-3.079-2.053-3.079-2.053-1.895 0-.079 1.264-.079 1.264 1.264.552 2.132 2.842 2.132 2.842 1.184 3.554 6.712 2.37 6.712 2.37v4.895c0 .474-.316 1.105-1.343.947C9.238 39.79 3.79 32.288 3.79 23.524c0-10.897 8.37-19.267 19.266-19.267M11.45 31.497c.08-.078.237 0 .395.08.158.158.158.395.079.473-.158.08-.316 0-.474-.079-.079-.157-.158-.394 0-.473m-.868-.63c.079-.08.158-.08.316 0q.236.117.236.236c-.079.158-.236.158-.394.079s-.237-.158-.158-.316m2.526 2.842c.158-.158.395-.08.553.079.158.157.158.394.079.473-.079.158-.316.08-.474-.079-.237-.157-.237-.394-.158-.473m-.868-1.185c.158-.079.316 0 .473.158.08.158.08.395 0 .474-.157.079-.315 0-.473-.158s-.158-.395 0-.474"/></svg>