<svg xmlns="http://www.w3.org/2000/svg" viewBox="0 0 733.5 83.48"><path d="M153.65 12.6c0-2.6.9-4.48 6.44-5.08 5.54-.59 4.94-2.91 4.94-2.91V0h-47.86v4.74c0 1.06.59 2.24 5.95 2.94 5.35.7 5.38 4.71 5.38 4.71v21.19H95.67V12.6c0-2.6.9-4.48 6.44-5.08 5.54-.59 4.94-2.91 4.94-2.91V0H59.19v4.74c0 1.06.59 2.24 5.95 2.94s5.38 4.71 5.38 4.71v57.77s-.03 4.02-5.38 4.71c-5.36.7-5.95 1.88-5.95 2.94v5.68h47.86v-5.55s.59-2.32-4.94-2.91c-5.54-.59-6.44-2.47-6.44-5.07V47.19h32.83v22.98s-.03 4.02-5.38 4.71c-5.36.7-5.95 1.88-5.95 2.94v5.68h47.86v-5.55s.59-2.32-4.94-2.91c-5.54-.59-6.44-2.47-6.44-5.07zm65.64 62.42c-5.54-.59-6.44-2.47-6.44-5.07V12.6c0-2.6.9-4.48 6.44-5.08 5.54-.59 4.95-2.91 4.95-2.91V0h-47.86v4.74c0 1.06.59 2.24 5.95 2.94s5.38 4.71 5.38 4.71v57.77s-.02 4.02-5.38 4.71c-5.36.7-5.95 1.88-5.95 2.94v5.68h47.86v-5.55s.59-2.32-4.95-2.91M36.47 12.6c0-2.6.9-4.48 6.44-5.08 5.54-.59 4.94-2.91 4.94-2.91V0H0v4.74C0 5.8.59 6.98 5.95 7.68s5.38 4.71 5.38 4.71v57.77s-.03 4.02-5.38 4.71C.59 75.57 0 76.75 0 77.81v5.68h47.86v-5.55s.59-2.32-4.94-2.91c-5.54-.59-6.44-2.47-6.44-5.07V12.6Zm279.62 23.62c-3.17 2.71-5.09 6.31-5.78 10.82h34.67c-.61-4.42-2.48-8.01-5.61-10.76s-7.02-4.12-11.67-4.12-8.45 1.35-11.61 4.06m42.29 20.32h-47.95c.84 4.5 3.03 8.07 6.58 10.7s7.95 3.95 13.22 3.95c6.71 0 12.24-2.21 16.59-6.64l7.67 8.81q-4.125 4.92-10.41 7.44-6.3 2.52-14.19 2.52c-6.71 0-12.63-1.33-17.74-4.01q-7.665-4.005-11.85-11.16c-2.79-4.77-4.18-10.16-4.18-16.19s1.35-11.31 4.06-16.08 6.47-8.49 11.27-11.16c4.81-2.67 10.22-4 16.25-4s11.27 1.32 15.96 3.95 8.35 6.33 10.99 11.1c2.63 4.77 3.95 10.28 3.95 16.54 0 .99-.08 2.4-.23 4.23m368.15-29.07q-6.975-6.75-18.54-6.75c-4.5 0-8.55.73-12.13 2.17-3.59 1.45-6.56 3.59-8.93 6.41v-7.9H673.3v61.11h14.3v-30.9c0-5.95 1.53-10.51 4.58-13.68 3.05-3.16 7.21-4.75 12.47-4.75 4.65 0 8.24 1.36 10.76 4.06 2.52 2.71 3.78 6.73 3.78 12.07V82.5h14.3V47.48c0-8.85-2.33-15.52-6.98-20.03M640.23 52.3c0 5.95-1.51 10.51-4.52 13.67-3.02 3.17-7.08 4.75-12.19 4.75-4.58 0-8.11-1.35-10.59-4.06q-3.72-4.065-3.72-12.3V21.4h-14.3v34.9c0 8.93 2.35 15.66 7.04 20.2s11.12 6.81 19.28 6.81c3.97 0 7.67-.74 11.1-2.23s6.3-3.6 8.58-6.35v7.78h13.62V21.4h-14.3zm-68.66-2.97c-3.13-.99-7.13-1.87-12.02-2.63-4.88-.84-8.49-1.73-10.81-2.69-2.33-.95-3.49-2.58-3.49-4.86 0-2.06 1.09-3.72 3.26-4.98s5.36-1.89 9.56-1.89c6.48 0 12.32 1.53 17.51 4.58l5.49-10.87c-2.67-1.6-6.1-2.88-10.3-3.83s-8.39-1.43-12.59-1.43c-8.24 0-14.78 1.74-19.63 5.21s-7.27 8.11-7.27 13.91c0 4.42 1.16 7.88 3.49 10.36s5.07 4.22 8.24 5.21 7.27 1.87 12.3 2.63c4.81.76 8.3 1.57 10.47 2.4 2.17.84 3.26 2.33 3.26 4.46 0 4.5-4.27 6.75-12.82 6.75-3.74 0-7.54-.55-11.39-1.66q-5.775-1.665-9.9-4.41l-5.49 10.87c2.82 1.98 6.6 3.62 11.33 4.92a54.6 54.6 0 0 0 14.53 1.95c8.54 0 15.3-1.72 20.26-5.15S583 70.17 583 64.45c0-4.35-1.13-7.71-3.38-10.07a18.8 18.8 0 0 0-8.07-5.03M503.83 63.4c-1.14 3.05-3.11 5.4-5.89 7.04-2.79 1.64-5.97 2.46-9.55 2.46s-6.52-.76-8.58-2.29q-3.09-2.28-3.09-6.18c0-5.42 4.12-8.12 12.36-8.12h14.76v7.09Zm7.15-36.22c-4.77-4.31-11.65-6.47-20.66-6.47-5.04 0-9.8.65-14.3 1.95s-8.35 3.17-11.56 5.61l5.61 10.41c2.29-1.91 5.09-3.39 8.41-4.46s6.69-1.6 10.13-1.6c5.04 0 8.83 1.15 11.39 3.43 2.55 2.29 3.83 5.57 3.83 9.84v.91h-15.79c-8.77 0-15.2 1.66-19.28 4.98s-6.12 7.73-6.12 13.22c0 3.51.93 6.66 2.8 9.44 1.87 2.79 4.52 4.96 7.95 6.52s7.44 2.35 12.02 2.35 8.48-.71 11.73-2.12c3.24-1.41 5.74-3.45 7.49-6.12v7.44h13.5V46.69c0-8.7-2.39-15.2-7.15-19.51m-77.53 3.15V21.4h-13.62v61.11h14.3V52.87c0-6.1 1.56-10.77 4.69-14.02q4.695-4.86 13.05-4.86c.99 0 2.1.11 3.32.34V20.71c-10.38 0-17.62 3.2-21.74 9.61m-47.5.01V21.4h-13.62v61.11h14.3V52.87c0-6.1 1.56-10.77 4.69-14.02q4.695-4.86 13.05-4.86c.99 0 2.1.11 3.32.34V20.71c-10.38 0-17.62 3.2-21.74 9.61M279.41 71.53c-2.75 0-4.85-.78-6.29-2.35-1.45-1.56-2.17-3.83-2.17-6.81V33.3h16.36V21.86h-16.36V7.9h-14.3v13.96h-10.07V33.3h10.07v29.41c0 6.71 1.83 11.83 5.49 15.34s8.85 5.26 15.56 5.26c2.67 0 5.21-.34 7.61-1.03q3.6-1.035 6.12-3.09l-4.01-10.18q-3.21 2.52-8.01 2.52" style="fill:#005cab;stroke-width:0"/></svg>