<svg xmlns="http://www.w3.org/2000/svg" width="156" height="44" fill="none" viewBox="0 0 156 44"><g clip-path="url(#a)"><path fill="#fff" d="m20.272 25.783 8.944-9.52a.47.47 0 0 0 .094-.49.42.42 0 0 0-.386-.282H17.813a.41.41 0 0 0-.314.151l-7.76 8.837v-8.575c0-.25-.186-.45-.416-.45l-8.774.037c-.23 0-.416.2-.416.45v27.61c0 .249.185.449.416.449h8.774c.23 0 .416-.2.416-.45v-7.046l3.65-3.331 5.176 10.586a.42.42 0 0 0 .371.24h10.605a.41.41 0 0 0 .363-.228.5.5 0 0 0 0-.454z"/><path fill="#2bf7c6" d="M11.948 15.83c0-1.5-1.128-2.718-2.516-2.718h-8.35C.42 13.112 0 12.532 0 11.816V1.296C0 .58.42 0 1.082 0H28.74c.662 0 1.199.58 1.199 1.296V11.82c0 .716-.537 1.296-1.2 1.296h-11.13c-.67 0-1.305.31-1.748.85l-3.908 4.783v-2.915h-.004z"/><path fill="#fff" d="m53.81 34.894-1.437-2.767-1.101 1.504.023 3.662c0 .123-.091.217-.2.217H48.15c-.114 0-.2-.099-.2-.217l.09-8.273-.09-8.273c0-.122.09-.216.2-.216h2.943c.114 0 .2.098.2.216l-.067 8.204v.752l3.348-4.513a.5.5 0 0 1 .337-.171h3.303c.09 0 .113.098.068.171l-3.572 4.32 4.177 7.816c.045.098-.023.192-.114.192H55.27a.32.32 0 0 1-.291-.192l-1.17-2.428zm6.017 2.62c-.114 0-.201-.098-.201-.217l.09-6.04-.09-6.018c0-.122.09-.216.2-.216h2.967c.113 0 .2.098.2.216l-.09 1.893c.896-1.48 2.447-2.207 4.13-2.207.182 0 .36.024.52.049.113.024.2.147.2.265v2.257c0 .122-.091.192-.2.192-.137-.025-.292-.025-.428-.025-2.38 0-4.154 1.43-4.132 4.296v5.338c0 .123-.09.217-.2.217zm9.253-13.709c-.113 0-.2-.098-.2-.217v-2.84c0-.123.09-.217.2-.217h3.012c.114 0 .2.098.2.216v2.841c0 .123-.09.217-.2.217zm0 13.709c-.113 0-.2-.099-.2-.217l.068-6.017-.068-6.04c0-.123.09-.217.2-.217h3.03c.114 0 .201.098.201.216l-.068 6.041.068 6.017c0 .123-.09.217-.2.217zm10.151.294c-3.371 0-5.524-1.48-5.637-4.271 0-.123.09-.217.2-.217h2.876c.113 0 .2.098.2.217.091 1.406.942 2.015 2.516 2.015 1.324 0 2.043-.56 2.043-1.529 0-2.379-7.57-.074-7.57-5.313 0-2.596 1.933-3.982 5.054-3.982s5.078 1.313 5.278 3.932a.18.18 0 0 1-.182.217H81.27c-.113 0-.2-.098-.223-.216-.178-1.067-.81-1.721-2.18-1.721-1.1 0-1.796.437-1.796 1.504 0 2.379 7.57-.05 7.57 5.264 0 2.62-2.293 4.1-5.414 4.1zm17.722-4.517c.113 0 .2.098.181.217-.29 2.28-2.311 4.32-5.546 4.32-3.863 0-5.951-2.742-5.951-6.527 0-3.981 2.202-6.601 5.883-6.601s5.906 2.718 5.974 7.083c0 .123-.091.217-.2.217h-8.267c.136 2.354.987 3.396 2.606 3.396 1.124 0 1.934-.56 2.248-1.892.022-.123.136-.217.246-.217h2.83-.004zm-5.414-6.188c-1.347 0-2.157.875-2.425 2.595h4.74c-.136-1.336-.832-2.595-2.311-2.595zm7.388 10.41c-.113 0-.2-.098-.2-.216l.068-5.776-.023-6.286c0-.123.09-.217.2-.217h2.853c.114 0 .201.098.201.217l-.068 1.357c.787-1.091 2.111-1.868 3.726-1.868 2.448 0 4.022 1.794 4.022 4.852v2.62l.068 5.097c0 .122-.091.216-.204.216h-3.012c-.113 0-.2-.098-.2-.216l.045-5.097v-2.571c0-1.357-.742-2.232-1.752-2.232-1.214 0-2.516 1.214-2.516 3.883v.924l.046 5.097c0 .122-.091.216-.201.216zm17.877.315c-3.707 0-5.906-2.546-5.906-6.527s2.202-6.601 5.974-6.601c2.967 0 4.896 1.819 5.165 4.537a.18.18 0 0 1-.178.216h-2.717c-.113 0-.2-.098-.223-.216-.268-1.406-1.078-2.089-2.043-2.089-1.706.024-2.516 1.357-2.516 4.124s.833 4.1 2.516 4.124c1.147.025 1.998-.85 2.134-2.477.023-.122.113-.216.223-.216h2.785c.113 0 .204.098.178.216-.246 2.841-2.357 4.901-5.392 4.901zm12.466-10.431c-1.078 0-2.247.9-2.63 2.67l.091 7.23c0 .122-.091.216-.2.216h-2.944c-.113 0-.2-.098-.2-.216l.091-8.297-.091-8.249c0-.122.091-.216.2-.216h2.944c.113 0 .2.098.2.216l-.068 5.653c.81-1.116 1.975-1.676 3.504-1.676 2.606 0 4.199 1.676 4.131 5.338v2.67l.068 4.56c0 .123-.091.217-.2.217h-3.031c-.113 0-.204-.098-.204-.216l.068-4.513-.023-3.155c-.023-1.504-.787-2.232-1.706-2.232m14.801 10.116c-.114 0-.204-.098-.204-.216l.045-1.239c-.81 1.067-1.952 1.7-3.413 1.7-3.28 0-5.009-2.815-5.009-6.453s1.934-6.528 5.078-6.528c1.437 0 2.561.56 3.348 1.578l-.068-1.116c0-.122.091-.216.2-.216h3.012c.113 0 .204.098.204.216l-.068 6.041.068 6.017c0 .122-.091.216-.204.216zm-2.63-2.182c1.639 0 2.516-1.333 2.539-3.981.023-2.67-.855-4.124-2.47-4.149-1.707-.049-2.584 1.337-2.584 3.908 0 2.816.896 4.246 2.515 4.222m14.532 1.725a.36.36 0 0 1-.178.29c-.65.241-1.392.413-2.111.413-1.956 0-3.817-1.067-3.817-3.908l.023-6.261h-1.302c-.113 0-.204-.099-.204-.217v-2.134c0-.122.091-.216.204-.216h1.302l-.023-2.91c0-.123.091-.217.204-.217h2.989c.114 0 .201.098.201.217l-.023 2.91h2.561c.114 0 .201.098.201.216v2.134c0 .123-.091.217-.201.217h-2.584l.023 6.163c0 1.067.495 1.406 1.233 1.406.541 0 .965-.098 1.302-.216.113-.025.2.073.2.171z"/></g><defs><clipPath id="a"><path fill="#fff" d="M0 0h156v44H0z"/></clipPath></defs></svg>