<svg xmlns="http://www.w3.org/2000/svg" width="154" height="40" fill="none" viewBox="0 0 154 40"><path fill="#161616" d="m19.91 23.439 8.784-8.654a.41.41 0 0 0 .093-.446.41.41 0 0 0-.38-.256H17.495a.42.42 0 0 0-.308.137l-7.62 8.034v-7.796a.41.41 0 0 0-.41-.409l-8.616.034a.41.41 0 0 0-.41.409v25.1c0 .226.183.408.41.408h8.616a.41.41 0 0 0 .41-.409v-6.406l3.585-3.028 5.083 9.624c.07.134.212.22.364.22h10.415a.41.41 0 0 0 .357-.209.42.42 0 0 0 0-.412z"/><path fill="#2bf7c6" d="M11.734 14.391a2.47 2.47 0 0 0-2.47-2.47H1.062C.413 11.92 0 11.392 0 10.741V1.178C0 .528.412 0 1.063 0h27.162c.65 0 1.178.528 1.178 1.178v9.568c0 .65-.528 1.178-1.178 1.178H17.293c-.658 0-1.282.282-1.717.773l-3.838 4.347v-2.65h-.004z"/><path fill="#161616" d="m52.85 31.721-1.413-2.515-1.08 1.367.022 3.33c0 .11-.09.196-.197.196H47.29a.196.196 0 0 1-.197-.197l.089-7.52-.09-7.521c0-.111.09-.197.198-.197h2.89c.112 0 .198.09.198.197l-.067 7.458v.683L53.6 22.9a.5.5 0 0 1 .33-.156h3.245c.089 0 .111.09.067.156l-3.508 3.928 4.102 7.104c.045.09-.022.175-.111.175h-3.441c-.112 0-.242-.067-.286-.175l-1.149-2.207zm5.908 2.382a.196.196 0 0 1-.198-.197l.09-5.492-.09-5.47c0-.11.09-.196.197-.196h2.914c.111 0 .197.089.197.197l-.09 1.72c.881-1.345 2.405-2.006 4.058-2.006.178 0 .353.022.509.044a.26.26 0 0 1 .197.242v2.05c0 .112-.09.175-.197.175-.134-.022-.286-.022-.42-.022-2.337 0-4.08 1.3-4.057 3.906v4.852c0 .112-.09.197-.197.197zm9.087-12.463a.196.196 0 0 1-.197-.197v-2.582c0-.111.09-.197.197-.197h2.958c.112 0 .197.09.197.197v2.582c0 .112-.09.197-.197.197zm0 12.463a.196.196 0 0 1-.197-.197l.067-5.47-.067-5.491c0-.112.09-.197.197-.197h2.977c.111 0 .197.089.197.197l-.067 5.491.067 5.47c0 .111-.09.197-.197.197zm9.971.267c-3.311 0-5.425-1.345-5.537-3.883 0-.111.09-.196.197-.196H75.3c.112 0 .197.089.197.196.09 1.279.925 1.832 2.471 1.832 1.3 0 2.007-.509 2.007-1.39 0-2.162-7.436-.066-7.436-4.83 0-2.36 1.9-3.619 4.965-3.619s4.986 1.193 5.183 3.575c.022.111-.067.197-.178.197h-2.69c-.112 0-.197-.09-.22-.197-.174-.97-.795-1.565-2.14-1.565-1.081 0-1.765.398-1.765 1.368 0 2.162 7.435-.045 7.435 4.785 0 2.382-2.252 3.727-5.317 3.727zm17.404-4.105c.11 0 .196.089.178.197-.286 2.073-2.27 3.927-5.448 3.927-3.793 0-5.844-2.493-5.844-5.934 0-3.62 2.162-6 5.777-6s5.8 2.47 5.868 6.439c0 .111-.09.196-.197.196h-8.12c.135 2.14.97 3.088 2.56 3.088 1.105 0 1.9-.509 2.208-1.72a.26.26 0 0 1 .242-.197h2.779-.004zm-5.318-5.626c-1.323 0-2.118.795-2.382 2.36h4.656c-.134-1.216-.817-2.36-2.27-2.36zm7.258 9.464a.196.196 0 0 1-.197-.197l.067-5.25-.023-5.715c0-.111.09-.197.197-.197h2.802c.112 0 .197.09.197.197l-.067 1.234c.773-.992 2.074-1.698 3.66-1.698 2.404 0 3.95 1.63 3.95 4.41v2.382l.067 4.634a.197.197 0 0 1-.201.196h-2.958a.195.195 0 0 1-.196-.196l.044-4.634v-2.337c0-1.234-.728-2.03-1.72-2.03-1.193 0-2.471 1.104-2.471 3.53v.84l.044 4.634a.196.196 0 0 1-.197.197zm17.556.287c-3.641 0-5.8-2.316-5.8-5.935 0-3.62 2.163-6 5.867-6 2.913 0 4.808 1.653 5.072 4.124.022.111-.067.197-.174.197h-2.668c-.112 0-.197-.09-.22-.197-.263-1.279-1.059-1.9-2.006-1.9-1.676.023-2.471 1.235-2.471 3.75 0 2.516.817 3.727 2.471 3.75 1.126.021 1.962-.774 2.096-2.253.022-.111.111-.196.219-.196h2.735c.111 0 .2.089.174.197-.241 2.582-2.315 4.455-5.295 4.455zm12.244-9.483c-1.059 0-2.208.817-2.583 2.426l.089 6.573a.196.196 0 0 1-.197.197h-2.89a.196.196 0 0 1-.197-.197l.089-7.543-.089-7.498c0-.112.089-.197.197-.197h2.89c.112 0 .197.09.197.197l-.067 5.139c.796-1.015 1.94-1.524 3.441-1.524 2.56 0 4.125 1.524 4.058 4.853v2.427l.067 4.146a.196.196 0 0 1-.197.197h-2.977a.2.2 0 0 1-.2-.197l.067-4.102-.023-2.868c-.022-1.368-.772-2.03-1.675-2.03m14.536 9.197a.2.2 0 0 1-.201-.197l.045-1.126c-.796.97-1.918 1.546-3.352 1.546-3.222 0-4.92-2.56-4.92-5.867s1.899-5.934 4.987-5.934c1.412 0 2.515.509 3.288 1.434l-.067-1.014c0-.112.09-.197.197-.197h2.958c.112 0 .201.089.201.197l-.067 5.492.067 5.47a.197.197 0 0 1-.201.196zm-2.583-1.984c1.609 0 2.471-1.211 2.493-3.62.023-2.426-.839-3.748-2.426-3.77-1.676-.045-2.538 1.214-2.538 3.552 0 2.56.881 3.86 2.471 3.838m14.273 1.568c0 .111-.089.22-.174.264-.64.219-1.368.375-2.074.375-1.921 0-3.749-.97-3.749-3.552l.022-5.693h-1.278a.2.2 0 0 1-.201-.197v-1.94c0-.11.09-.196.201-.196h1.278l-.022-2.646c0-.111.089-.197.201-.197h2.935c.112 0 .197.09.197.197l-.022 2.646h2.515c.112 0 .197.089.197.197v1.94a.196.196 0 0 1-.197.196h-2.538l.023 5.604c0 .97.486 1.278 1.211 1.278.531 0 .948-.09 1.278-.197a.163.163 0 0 1 .197.156z"/></svg>