<svg xmlns="http://www.w3.org/2000/svg" width="48" height="48" fill="none" viewBox="0 0 48 48"><mask id="b" width="40" height="40" x="4" y="4" maskUnits="userSpaceOnUse" style="mask-type:alpha"><path fill="url(#a)" fill-rule="evenodd" d="M16.135 4c6.517 0 11.802 5.298 11.802 11.835v4.498h3.929c6.517 0 11.802 5.297 11.802 11.834S38.385 44 31.866 44H4.332V15.833C4.332 9.3 9.616 4 16.135 4" clip-rule="evenodd"/></mask><g mask="url(#b)"><g filter="url(#c)"><path fill="#4b73ff" d="M21.588 51.98c14.706 0 26.628-11.921 26.628-26.628 0-14.706-11.922-26.628-26.628-26.628S-5.04 10.646-5.04 25.352c0 14.707 11.922 26.628 26.628 26.628"/></g><g filter="url(#d)"><path fill="#ff66f4" d="M24.513 37.367c18.835 0 34.103-11.922 34.103-26.628S43.348-15.889 24.513-15.889C5.68-15.89-9.589-3.967-9.589 10.739S5.679 37.367 24.513 37.367"/></g><g filter="url(#e)"><path fill="#ff0105" d="M30.075 29.115c14.706 0 26.628-10.47 26.628-23.386S44.78-17.656 30.075-17.656 3.447-7.186 3.447 5.729s11.922 23.386 26.628 23.386"/></g><g filter="url(#f)"><path fill="#fe7b02" d="M24.988 26.748c8.844 0 16.014-7.17 16.014-16.015S33.832-5.282 24.987-5.282c-8.844 0-16.014 7.17-16.014 16.015s7.17 16.015 16.014 16.015"/></g></g><defs><filter id="c" width="77.125" height="77.125" x="-16.975" y="-13.21" color-interpolation-filters="sRGB" filterUnits="userSpaceOnUse"><feFlood flood-opacity="0" result="BackgroundImageFix"/><feBlend in="SourceGraphic" in2="BackgroundImageFix" result="shape"/><feGaussianBlur result="effect1_foregroundBlur_5816_27409" stdDeviation="5.967"/></filter><filter id="d" width="92.075" height="77.125" x="-21.524" y="-27.824" color-interpolation-filters="sRGB" filterUnits="userSpaceOnUse"><feFlood flood-opacity="0" result="BackgroundImageFix"/><feBlend in="SourceGraphic" in2="BackgroundImageFix" result="shape"/><feGaussianBlur result="effect1_foregroundBlur_5816_27409" stdDeviation="5.967"/></filter><filter id="e" width="77.125" height="70.64" x="-8.488" y="-29.591" color-interpolation-filters="sRGB" filterUnits="userSpaceOnUse"><feFlood flood-opacity="0" result="BackgroundImageFix"/><feBlend in="SourceGraphic" in2="BackgroundImageFix" result="shape"/><feGaussianBlur result="effect1_foregroundBlur_5816_27409" stdDeviation="5.967"/></filter><filter id="f" width="55.899" height="55.899" x="-2.962" y="-17.216" color-interpolation-filters="sRGB" filterUnits="userSpaceOnUse"><feFlood flood-opacity="0" result="BackgroundImageFix"/><feBlend in="SourceGraphic" in2="BackgroundImageFix" result="shape"/><feGaussianBlur result="effect1_foregroundBlur_5816_27409" stdDeviation="5.967"/></filter><linearGradient id="a" x1="17.57" x2="29.555" y1="11.029" y2="43.984" gradientUnits="userSpaceOnUse"><stop offset=".025" stop-color="#ff8e63"/><stop offset=".56" stop-color="#ff7eb0"/><stop offset=".95" stop-color="#4b73ff"/></linearGradient></defs></svg>