<svg xmlns="http://www.w3.org/2000/svg" width="208" height="22" fill="none" viewBox="0 0 208 22"><g fill="#2376ff" clip-path="url(#a)"><path d="M12.092 21.933h8.82V0h-5.797v7.603h-1.453V4.816C13.663 1.165 12.486 0 8.82 0H0v21.933h5.797V14.33H7.25v2.787c0 3.652 1.178 4.816 4.842 4.816m29.314 0V9.802c0-5.902-1.819-7.342-9.278-7.342s-9.279 1.44-9.279 7.342v12.131h8.572v-3.102h1.4v3.102zm-9.985-7.721v-6.15h1.4v6.15zM61.9 7.643c0-3.874-2.342-5.17-9.278-5.17-7.46 0-9.279 1.623-9.279 8.285v3.023c0 6.49 1.91 8.179 9.279 8.179 4.973 0 8.401-.943 9.278-1.204v-6.007c-.798.406-2.212.968-4.345.968-4.266 0-5.64-1.492-5.64-6.137V8.088h1.4V9.58c0 3.703.916 4.71 4.24 4.71s4.345-.994 4.345-4.606zm20.507 14.29V2.46h-8.585v5.837h-1.4V2.46h-8.585v19.473h8.585v-5.81h1.4v5.81zM93.622 2.46c-7.46 0-9.278 1.623-9.278 8.284v2.984c0 6.674 1.74 8.218 9.278 8.218s9.279-1.531 9.279-8.218v-2.984c0-6.648-1.819-8.284-9.279-8.284m.707 13.885h-1.4V8.06h1.4zm22.862 5.588h8.821V0h-5.797v7.603h-1.453V4.816c0-3.651-1.178-4.816-4.842-4.816h-8.821v21.933h5.798V14.33h1.452v2.787c0 3.652 1.178 4.816 4.842 4.816m29.315 0V9.802c0-5.902-1.819-7.342-9.279-7.342-7.459 0-9.278 1.44-9.278 7.342v12.131h8.572v-3.102h1.4v3.102zm-9.985-7.721v-6.15h1.4v6.15zm30.491-6.569c0-3.874-2.342-5.17-9.278-5.17-7.46 0-9.279 1.623-9.279 8.285v3.023c0 6.49 1.911 8.179 9.279 8.179 4.973 0 8.402-.943 9.278-1.204v-6.007c-.798.406-2.198.968-4.344.968-4.267 0-5.641-1.492-5.641-6.137V8.088h1.401V9.58c0 3.703.916 4.71 4.24 4.71s4.344-.994 4.344-4.606zm20.494 14.29V2.46h-8.585v5.837h-1.4V2.46h-8.572v19.473h8.572v-5.81h1.4v5.81zM198.722 2.46c-7.46 0-9.279 1.623-9.279 8.284v2.984c0 6.674 1.741 8.218 9.279 8.218S208 20.415 208 13.728v-2.984c0-6.648-1.819-8.284-9.278-8.284m.706 13.885h-1.4V8.06h1.4z"/></g><defs><clipPath id="a"><path fill="#fff" d="M0 0h208v21.933H0z"/></clipPath></defs></svg>