<svg xmlns="http://www.w3.org/2000/svg" width="48" height="48" fill="none" viewBox="0 0 48 48"><g clip-path="url(#a)"><path fill="#00e0d9" d="M5.05 11.584a6.535 6.535 0 0 1 6.534-6.534h24.832a6.535 6.535 0 0 1 6.534 6.534v21.12c0 3.733-4.725 5.353-7.016 2.406l-7.164-9.216V37.07a5.88 5.88 0 0 1-5.88 5.88H11.583a6.535 6.535 0 0 1-6.535-6.534zm6.534-1.306c-.722 0-1.306.584-1.306 1.305v24.833c0 .722.584 1.307 1.305 1.307h11.502c.361 0 .457-.292.457-.654V22.085c0-3.734 4.725-5.355 7.017-2.407l7.164 9.215V11.584c0-.722.067-1.306-.654-1.306z"/><path fill="url(#b)" d="M5.05 11.584a6.535 6.535 0 0 1 6.534-6.534h24.832a6.535 6.535 0 0 1 6.534 6.534v21.12c0 3.733-4.725 5.353-7.016 2.406l-7.164-9.216V37.07a5.88 5.88 0 0 1-5.88 5.88H11.583a6.535 6.535 0 0 1-6.535-6.534zm6.534-1.306c-.722 0-1.306.584-1.306 1.305v24.833c0 .722.584 1.307 1.305 1.307h11.502c.361 0 .457-.292.457-.654V22.085c0-3.734 4.725-5.355 7.017-2.407l7.164 9.215V11.584c0-.722.067-1.306-.654-1.306z"/><path fill="url(#c)" fill-opacity=".4" d="M5.05 11.584a6.535 6.535 0 0 1 6.534-6.534h24.832a6.535 6.535 0 0 1 6.534 6.534v21.12c0 3.733-4.725 5.353-7.016 2.406l-7.164-9.216V37.07a5.88 5.88 0 0 1-5.88 5.88H11.583a6.535 6.535 0 0 1-6.535-6.534zm6.534-1.306c-.722 0-1.306.584-1.306 1.305v24.833c0 .722.584 1.307 1.305 1.307h11.502c.361 0 .457-.292.457-.654V22.085c0-3.734 4.725-5.355 7.017-2.407l7.164 9.215V11.584c0-.722.067-1.306-.654-1.306z"/><path fill="#63f655" d="M36.415 5.05a6.535 6.535 0 0 1 6.535 6.534v21.12c0 3.733-4.725 5.353-7.016 2.406l-7.164-9.216V37.07a5.88 5.88 0 0 1-5.881 5.88.653.653 0 0 0 .652-.652V22.084c0-3.734 4.725-5.355 7.017-2.407l7.165 9.215V6.356c0-.721-.586-1.306-1.308-1.306"/></g><defs><linearGradient id="b" x1="3795.14" x2="462.492" y1="3795.14" y2="5.049" gradientUnits="userSpaceOnUse"><stop stop-color="#62f755"/><stop offset="1" stop-color="#8ff986" stop-opacity="0"/></linearGradient><linearGradient id="c" x1="3795.14" x2="1543.93" y1="3795.14" y2="2919.52" gradientUnits="userSpaceOnUse"><stop stop-opacity=".9"/><stop offset="1" stop-color="#1a1a1a" stop-opacity="0"/></linearGradient><clipPath id="a"><path fill="#fff" d="M5.05 5.05h37.9v37.9H5.05z"/></clipPath></defs></svg>