<svg xmlns="http://www.w3.org/2000/svg" width="48" height="48" fill="none" viewBox="0 0 48 48"><g clip-path="url(#a)"><path fill="#e0234d" fill-rule="evenodd" d="M28.174.592c-.34 0-.656.073-.947.17.62.413.959.96 1.129 1.578.012.085.036.146.048.23.013.074.025.146.025.22.048 1.067-.28 1.2-.51 1.832a2.6 2.6 0 0 0 .17 2.391c.036.085.085.182.146.267-.462-3.07 2.1-3.532 2.573-4.49.036-.838-.656-1.397-1.202-1.785a2.7 2.7 0 0 0-1.432-.413m3.86.692c-.049.28-.012.207-.025.352-.012.097-.012.219-.024.316a3 3 0 0 1-.085.291 3 3 0 0 1-.097.291c-.049.098-.085.182-.133.28-.037.048-.061.097-.098.145l-.072.11c-.061.084-.122.17-.182.242-.073.073-.134.158-.219.219v.012c-.073.06-.146.133-.23.194-.255.194-.547.34-.814.522-.085.06-.17.11-.242.182a2 2 0 0 0-.231.194c-.085.073-.146.146-.219.23-.06.074-.133.159-.182.244-.06.085-.121.17-.17.255-.048.097-.085.182-.133.279-.037.097-.073.182-.097.279a4 4 0 0 0-.085.303c-.012.049-.012.11-.024.158-.013.049-.013.097-.025.146 0 .097-.012.206-.012.303 0 .073 0 .146.012.219 0 .097.013.194.037.303.012.097.036.194.06.291.037.098.061.195.098.292.024.06.06.121.085.17l-2.792-1.08a30 30 0 0 0-1.408-.365l-.765-.182a23 23 0 0 0-2.209-.328c-.024 0-.036-.012-.06-.012a22 22 0 0 0-2.173-.109 23 23 0 0 0-3.811.328 8 8 0 0 0-.547.097c-.376.073-.74.158-1.092.243l-.546.145c-.182.073-.352.158-.522.23l-.4.183c-.025.012-.05.012-.061.024-.122.06-.231.11-.34.17a5 5 0 0 0-.461.23c-.085.037-.17.086-.243.122a1 1 0 0 1-.11.06c-.109.062-.218.122-.315.183q-.164.09-.291.182c-.085.06-.17.11-.243.17-.012.012-.024.012-.037.024-.072.049-.157.11-.23.17l-.024.024-.182.146c-.025.012-.05.036-.073.049-.061.048-.122.109-.182.157-.013.025-.037.037-.049.049-.073.073-.146.133-.218.206-.013 0-.013.012-.025.025-.073.06-.145.133-.218.206-.012.012-.012.024-.024.024-.061.06-.122.121-.182.194-.025.025-.061.049-.085.073-.061.073-.134.146-.207.219-.012.024-.036.036-.048.06-.097.097-.182.194-.28.292l-.036.036c-.194.206-.4.413-.619.595-.218.194-.45.376-.68.534a9 9 0 0 1-.728.461 7 7 0 0 1-.765.364 9 9 0 0 1-.789.292c-.51.109-1.031.315-1.48.351-.097 0-.207.025-.304.037-.109.024-.206.049-.303.073l-.292.109c-.097.036-.194.085-.29.133-.086.061-.183.11-.268.17s-.17.134-.243.207a2 2 0 0 0-.242.218c-.073.085-.146.158-.207.243-.06.097-.133.182-.182.28-.06.084-.121.181-.17.278-.048.11-.097.207-.133.316-.037.097-.073.206-.11.316a3 3 0 0 0-.06.29c0 .013-.012.025-.012.037-.025.11-.025.255-.037.328-.012.085-.024.158-.024.243 0 .048 0 .109.012.158a1.5 1.5 0 0 0 .134.449v.012c.036.073.085.145.133.218.049.073.097.146.158.219.06.06.134.133.206.194.073.073.146.133.23.194.292.255.365.34.741.534.061.037.122.06.195.097.012 0 .024.012.036.012 0 .025 0 .037.012.061.012.097.037.194.06.291.025.11.062.207.098.292.036.072.06.145.097.218.012.024.024.049.036.06a5 5 0 0 0 .146.268l.182.255c.06.073.134.158.206.23.073.073.146.134.231.207 0 0 .012.012.024.012.073.06.146.121.219.17.085.06.17.11.267.158.085.048.182.097.279.133.073.037.158.06.243.085.012.012.024.012.048.024.049.013.11.025.158.037-.036.655-.048 1.274.049 1.493.109.242.643-.498 1.177-1.348-.073.838-.121 1.821 0 2.112.134.304.862-.643 1.493-1.687 8.606-1.99 16.459 3.957 17.284 12.356-.158-1.31-1.772-2.039-2.512-1.857-.364.899-.983 2.052-1.979 2.768a7.8 7.8 0 0 0-.121-2.428 7.85 7.85 0 0 1-1.505 3.059c-1.153.085-2.306-.473-2.913-1.31-.049-.037-.061-.11-.097-.159a2 2 0 0 1-.097-.255 1 1 0 0 1-.073-.255c-.012-.084-.012-.17-.012-.267v-.182a2 2 0 0 1 .06-.255 2 2 0 0 1 .085-.254c.049-.085.085-.17.146-.255.206-.583.206-1.056-.17-1.335a1.4 1.4 0 0 0-.23-.122c-.05-.012-.11-.036-.159-.048-.036-.012-.06-.025-.097-.037a2 2 0 0 0-.255-.06 1 1 0 0 0-.254-.037 2 2 0 0 0-.268-.024c-.06 0-.12.012-.181.012a1 1 0 0 0-.268.036c-.085.013-.17.025-.255.049s-.17.049-.254.085c-.085.036-.158.073-.243.11-.073.036-.146.084-.23.12-2.829 1.846-1.142 6.166.788 7.417-.728.133-1.468.291-1.675.449l-.024.024a11.4 11.4 0 0 0 1.639.813 40 40 0 0 0 1.966.583v.012q1.51.31 3.059.218c5.377-.376 9.783-4.466 10.584-9.855l.072.315c.037.219.085.45.11.68v.012c.024.11.036.219.048.316v.048c.013.11.024.219.024.316.013.133.025.267.025.4v.195c0 .06.012.133.012.194 0 .073-.012.145-.012.218v.17c0 .085-.012.158-.012.243 0 .049 0 .097-.013.158 0 .085-.012.17-.012.267-.012.036-.012.073-.012.11l-.036.278c0 .037 0 .073-.012.11-.013.12-.037.23-.049.352v.024l-.073.34v.036l-.073.328c0 .012-.012.036-.012.048-.024.11-.048.219-.085.328v.037c-.036.12-.073.23-.097.34-.012.011-.012.024-.012.024l-.11.364c-.048.121-.084.23-.133.352-.048.121-.085.242-.133.352-.049.121-.097.23-.146.352h-.012c-.049.109-.097.23-.158.34a1 1 0 0 1-.036.084c-.012.013-.012.025-.025.037a11.5 11.5 0 0 1-3.41 4.078c-.097.06-.195.134-.292.207-.024.024-.06.036-.084.06a5 5 0 0 1-.268.182l.037.073h.012l.51-.073h.012a26 26 0 0 0 .947-.17c.085-.012.182-.036.267-.06.06-.012.109-.025.17-.037.085-.012.17-.036.255-.048.072-.025.145-.037.218-.061a23 23 0 0 0 3.52-1.165 19.44 19.44 0 0 1-7.538 6.154 20 20 0 0 0 4.14-.717 19.4 19.4 0 0 0 11.47-9.163 19.4 19.4 0 0 1-3.266 7.804 19 19 0 0 0 3.241-2.694 19.24 19.24 0 0 0 5.11-10.318 19.3 19.3 0 0 1 .352 5.85c8.764-12.222.729-24.894-2.634-28.231-.012-.025-.024-.037-.024-.061-.012.012-.012.012-.012.024 0-.012 0-.012-.012-.024 0 .146-.012.291-.024.437-.037.279-.073.546-.122.813-.06.267-.133.534-.206.801-.085.255-.182.522-.291.777-.11.243-.231.498-.365.74a9.3 9.3 0 0 1-.935 1.347c-.181.22-.376.413-.57.607-.121.11-.23.207-.352.304l-.279.243c-.218.17-.437.327-.68.473-.23.146-.473.291-.716.413-.255.121-.51.23-.764.34a9 9 0 0 1-.79.255 10 10 0 0 1-.813.181c-.279.05-.558.073-.825.098a9 9 0 0 1-.583.024c-.279 0-.558-.024-.825-.049a6 6 0 0 1-.825-.121 6 6 0 0 1-.814-.206h-.012c.267-.025.534-.049.801-.098a9 9 0 0 0 1.603-.436c.267-.098.522-.219.764-.34.255-.122.486-.255.729-.4.23-.159.46-.316.68-.486a7 7 0 0 0 .618-.546c.207-.183.389-.389.57-.595q.275-.328.51-.656c.025-.036.05-.085.073-.121.122-.194.243-.388.352-.583a8.4 8.4 0 0 0 .656-1.517c.085-.255.145-.522.206-.789.049-.28.097-.546.122-.813.024-.28.048-.558.048-.825 0-.195-.012-.389-.024-.583-.024-.28-.06-.546-.097-.813a9 9 0 0 0-.182-.814c-.085-.254-.17-.521-.267-.776a8 8 0 0 0-.34-.753c-.134-.243-.267-.485-.413-.716-.158-.23-.316-.45-.485-.668a26 26 0 0 0-.559-.619 8 8 0 0 0-.315-.303 22 22 0 0 0-1.687-1.19 2 2 0 0 0-.243-.12c-.4-.256-.777-.39-1.153-.51" clip-rule="evenodd"/></g><defs><clipPath id="a"><path fill="#fff" d="M0 0h48v48H0z"/></clipPath></defs></svg>