<svg xmlns="http://www.w3.org/2000/svg" width="48" height="48" fill="none" viewBox="0 0 48 48"><g clip-path="url(#a)"><mask id="b" width="47" height="42" x="1" y="3" maskUnits="userSpaceOnUse" style="mask-type:luminance"><path fill="#fff" d="M47.6 3H1v41.006h46.6z"/></mask><g mask="url(#b)"><path fill="#05bdba" d="M13.594 37.24h-.44l-2.196-2.196v-.44l3.358-3.358h2.326l.31.31v2.327zm-2.636-24.841v-.44l2.196-2.197h.44l3.358 3.358v2.326l-.31.31h-2.326z"/><path fill="#014847" d="M30.292 30.16h-3.195l-.267-.266v-7.48c0-1.33-.523-2.362-2.128-2.398-.826-.022-1.77 0-2.78.04l-.152.154v9.68l-.267.267h-3.195l-.267-.267V17.112l.267-.266h7.191a5.06 5.06 0 0 1 5.06 5.06v7.988z"/><path fill="#05bdba" d="M14.049 25.371H1.267L1 25.105v-3.203l.267-.267h12.782l.266.267v3.203zm33.288 0H34.555l-.267-.266v-3.203l.267-.267h12.782l.266.267v3.203zM22.459 12.853V3.267L22.726 3h3.203l.266.267v9.586l-.267.267h-3.202zm0 30.887v-9.587l.267-.267h3.203l.266.267v9.586l-.267.267h-3.202z"/></g></g><defs><clipPath id="a"><path fill="#fff" d="M1 3h46.6v41.139H1z"/></clipPath></defs></svg>