<svg xmlns="http://www.w3.org/2000/svg" width="49" height="48" fill="none" viewBox="0 0 49 48"><path fill="#161d2b" d="M18.56 17.457V12.9c0-.384.144-.672.48-.864l9.16-5.275c1.246-.72 2.733-1.055 4.268-1.055 5.754 0 9.4 4.46 9.4 9.208 0 .336 0 .72-.049 1.103l-9.495-5.563q-.864-.504-1.727 0zM39.949 35.2V24.314c0-.671-.288-1.15-.863-1.486l-12.038-7.002 3.933-2.254c.335-.192.623-.192.959 0l9.16 5.275c2.638 1.535 4.412 4.796 4.412 7.961 0 3.645-2.158 7.002-5.563 8.393M15.73 25.61l-3.932-2.302c-.336-.192-.48-.48-.48-.863V11.894c0-5.131 3.933-9.016 9.256-9.016 2.015 0 3.884.671 5.468 1.87l-9.448 5.468c-.576.335-.863.815-.863 1.486zm8.465 4.891-5.635-3.165v-6.714l5.635-3.165 5.635 3.165v6.714zm3.62 14.58c-2.014 0-3.884-.672-5.467-1.87l9.448-5.468c.575-.336.863-.815.863-1.487V22.348l3.98 2.302c.336.192.48.48.48.863v10.551c0 5.131-3.98 9.016-9.303 9.016M16.45 34.386l-9.16-5.275c-2.639-1.535-4.413-4.796-4.413-7.961 0-3.693 2.206-7.002 5.611-8.393v10.935c0 .671.288 1.15.863 1.486l11.99 6.954-3.932 2.254c-.336.192-.624.192-.96 0m-.528 7.865c-5.419 0-9.4-4.076-9.4-9.112 0-.384.048-.767.096-1.151l9.448 5.467q.862.504 1.726 0l12.038-6.953v4.556c0 .383-.144.671-.48.863l-9.16 5.275c-1.247.72-2.734 1.055-4.268 1.055m11.894 5.707c5.803 0 10.646-4.124 11.75-9.592 5.37-1.39 8.824-6.426 8.824-11.558 0-3.357-1.439-6.618-4.029-8.968.24-1.007.384-2.014.384-3.02 0-6.859-5.563-11.99-11.99-11.99-1.294 0-2.541.191-3.788.623C26.809 1.343 23.835 0 20.574 0 14.771 0 9.928 4.124 8.824 9.592 3.453 10.982 0 16.018 0 21.149c0 3.358 1.439 6.618 4.028 8.968-.24 1.008-.383 2.015-.383 3.022 0 6.858 5.563 11.99 11.99 11.99 1.294 0 2.541-.192 3.788-.624 2.158 2.11 5.131 3.453 8.393 3.453"/></svg>