<svg xmlns="http://www.w3.org/2000/svg" width="1201" height="269" fill="none" viewBox="0 0 1201 269"><path fill="#2f2e2e" d="M1098.31 268.507c-56.66 0-102.595-45.935-102.595-102.593 0-56.657 45.935-102.592 102.595-102.592s102.59 45.935 102.59 102.592c-.14 56.658-45.93 102.448-102.59 102.593m0-170.118c-37.24 0-67.38 30.14-67.38 67.38 0 37.241 30.14 67.381 67.38 67.381s67.38-30.14 67.38-67.381c0-37.095-30.14-67.235-67.38-67.38M616.643 268.505c-56.657 0-102.592-45.934-102.592-102.592S559.986 63.32 616.643 63.32c56.658 0 102.593 45.935 102.593 102.593s-45.935 102.592-102.593 102.592m0-170.118c-37.24 0-67.525 30.14-67.525 67.381s30.14 67.381 67.525 67.381c37.241 0 67.381-30.141 67.381-67.381 0-37.096-30.14-67.236-67.381-67.38"/><path fill="#2f2e2e" fill-rule="evenodd" d="M.898 165.913c0 56.658 45.935 102.592 102.593 102.592 56.524 0 102.375-45.717 102.592-102.19.216 56.473 46.068 102.19 102.592 102.19 56.657 0 102.592-45.934 102.592-102.592S365.332 63.32 308.675 63.32c-56.524 0-102.376 45.718-102.592 102.191-.217-56.473-46.068-102.19-102.592-102.19C46.833 63.32.898 109.254.898 165.912" clip-rule="evenodd"/><path fill="#2f2e2e" d="m815.741 195.079-52.89 72.308h-43.617l74.771-101.868-72.742-100.274h44.921l50.571 69.554 50.862-69.554h43.616l-72.887 99.549 74.771 102.593h-44.921zM933.984 65.39h38.4v202.14h-38.4zm19.127-21.629c12.084 0 21.881-9.796 21.881-21.88C974.992 9.796 965.195 0 953.111 0S931.23 9.796 931.23 21.88c0 12.085 9.797 21.881 21.881 21.881"/></svg>