<svg xmlns="http://www.w3.org/2000/svg" width="48" height="48" fill="none" viewBox="0 0 48 48"><g clip-path="url(#a)"><path fill="#2d3748" d="M46.374 28.612c-.27-.823-.98-1.395-1.898-1.533-.432-.065-.927-.037-1.514.084-1.021.212-1.78.292-2.332.308 2.087-3.535 3.786-7.567 4.763-11.361 1.58-6.136.736-8.931-.251-10.195C42.53 2.568 38.719.77 34.122.715c-2.453-.03-4.606.456-5.73.805a21 21 0 0 0-3.35-.308c-2.21-.035-4.165.448-5.835 1.442a26.6 26.6 0 0 0-4.12-1.037c-4.03-.664-7.278-.147-9.653 1.536C2.557 5.19 1.224 8.73 1.47 13.673c.079 1.57.954 6.346 2.333 10.875.793 2.604 1.638 4.766 2.512 6.426 1.24 2.356 2.566 3.743 4.055 4.24.834.28 2.35.475 3.946-.857.202.245.471.49.83.716a5.5 5.5 0 0 0 1.565.661c2 .502 3.875.376 5.473-.327.01.286.018.558.024.793.01.382.021.756.035 1.106.095 2.365.255 4.205.731 5.492.026.07.061.178.098.293.238.728.634 1.947 1.644 2.903 1.045.989 2.31 1.292 3.467 1.292.58 0 1.135-.076 1.62-.18 1.733-.373 3.7-.94 5.124-2.972 1.346-1.92 2-4.814 2.118-9.373l.043-.37.028-.24.317.028.082.005c1.764.081 3.922-.294 5.247-.911 1.047-.488 4.402-2.263 3.612-4.661"/><path fill="#417ba2" d="M43.357 29.078c-5.246 1.085-5.607-.696-5.607-.696 5.54-8.242 7.855-18.703 5.857-21.263C38.155.135 28.718 3.438 28.56 3.524l-.05.009a18.7 18.7 0 0 0-3.5-.366c-2.375-.039-4.175.624-5.542 1.663 0 0-16.834-6.954-16.051 8.746.166 3.34 4.774 25.271 10.27 18.647 2.008-2.422 3.95-4.47 3.95-4.47.963.642 2.117.97 3.327.852l.094-.08c-.03.3-.016.594.038.943-1.416 1.586-1 1.864-3.83 2.448-2.864.592-1.182 1.646-.083 1.921 1.331.334 4.412.807 6.494-2.115l-.083.334c.555.445.944 2.898.879 5.12-.066 2.224-.11 3.75.328 4.942.437 1.192.873 3.875 4.593 3.075 3.11-.668 4.72-2.399 4.944-5.286.16-2.053.52-1.75.542-3.585l.289-.87c.333-2.782.053-3.68 1.968-3.262l.466.04c1.41.065 3.255-.227 4.337-.731 2.332-1.085 3.715-2.897 1.416-2.421"/><path fill="#fff" d="M20.453 15.07c-.473-.067-.9-.006-1.117.159a.4.4 0 0 0-.17.273c-.027.195.11.411.194.523.237.315.584.532.927.58q.075.01.148.01c.572 0 1.092-.447 1.138-.777.058-.413-.54-.688-1.12-.769m15.657.014c-.046-.324-.62-.416-1.166-.34-.544.076-1.072.323-1.028.647.036.252.49.683 1.028.683a1 1 0 0 0 .137-.01c.359-.05.622-.278.747-.41.191-.2.301-.424.281-.57"/><path fill="#fff" d="M45.099 28.954c-.2-.607-.844-.802-1.914-.58-3.176.657-4.314.202-4.687-.074 2.469-3.771 4.5-8.33 5.595-12.583.52-2.015.806-3.886.83-5.41.025-1.675-.259-2.905-.845-3.656-2.364-3.03-5.834-4.654-10.035-4.699-2.887-.032-5.327.709-5.8.917-.996-.248-2.082-.4-3.264-.42-2.168-.035-4.041.485-5.593 1.546A25 25 0 0 0 14.841 2.8c-3.682-.594-6.607-.144-8.695 1.34-2.492 1.769-3.642 4.933-3.42 9.402.076 1.504.93 6.13 2.279 10.56 1.775 5.83 3.704 9.131 5.734 9.81.238.08.512.135.814.135.74 0 1.649-.335 2.593-1.473a94 94 0 0 1 3.575-4.056c.798.43 1.674.67 2.571.694l.006.07c-.18.214-.327.402-.453.562-.621.79-.75.955-2.75 1.368-.57.118-2.08.43-2.103 1.492-.024 1.16 1.786 1.648 1.992 1.7q1.08.27 2.072.269c1.606 0 3.019-.53 4.148-1.553-.035 4.136.137 8.212.633 9.454.405 1.017 1.396 3.501 4.527 3.501.46 0 .965-.053 1.521-.173 3.268-.702 4.686-2.15 5.235-5.342.294-1.706.798-5.78 1.035-7.965.5.156 1.144.228 1.84.228 1.453 0 3.129-.31 4.18-.799 1.18-.55 3.31-1.898 2.924-3.07m-7.78-14.766c-.012.645-.1 1.23-.194 1.842-.101.657-.206 1.337-.232 2.162-.026.803.074 1.638.171 2.445.196 1.631.396 3.31-.38 4.967a7 7 0 0 1-.344-.71c-.097-.234-.307-.61-.597-1.132-1.128-2.03-3.772-6.783-2.419-8.723.404-.577 1.426-1.17 3.994-.851m-3.113-10.93c3.763.084 6.74 1.496 8.848 4.196 1.616 2.072-.164 11.497-5.317 19.629l-.156-.198-.066-.082c1.332-2.205 1.072-4.387.84-6.321-.095-.794-.185-1.544-.162-2.248.023-.747.122-1.387.217-2.006.117-.763.236-1.552.203-2.483a1 1 0 0 0 .022-.35c-.084-.892-1.1-3.563-3.171-5.98-1.133-1.322-2.785-2.802-5.04-3.8a17 17 0 0 1 3.782-.356M13.146 31.74c-1.04 1.255-1.759 1.014-1.995.936-1.54-.516-3.327-3.78-4.903-8.955-1.363-4.478-2.16-8.981-2.223-10.244-.199-3.994.767-6.777 2.87-8.273 3.423-2.434 9.05-.977 11.312-.238l-.099.095c-3.71 3.758-3.622 10.178-3.613 10.57 0 .152.012.366.03.66.063 1.08.182 3.09-.135 5.366-.295 2.115.355 4.185 1.783 5.68q.223.232.462.436a96 96 0 0 0-3.488 3.967m3.966-5.305c-1.151-1.205-1.674-2.88-1.435-4.597.336-2.404.212-4.498.145-5.623l-.022-.404c.542-.482 3.054-1.832 4.846-1.42.817.187 1.315.745 1.523 1.706 1.072 4.97.142 7.042-.606 8.707-.154.343-.3.668-.424 1.003l-.096.26c-.244.655-.47 1.264-.611 1.843-1.224-.004-2.415-.528-3.32-1.475m.188 6.704a2.9 2.9 0 0 1-.867-.374c.157-.075.437-.176.924-.276 2.352-.486 2.716-.828 3.51-1.839.181-.231.387-.494.673-.813.425-.478.62-.398.973-.25.286.118.564.477.677.873.054.186.114.541-.083.817-1.657 2.327-4.072 2.297-5.807 1.862m12.313 11.489c-2.878.618-3.897-.855-4.57-2.538-.433-1.087-.645-5.988-.494-11.4a.6.6 0 0 0-.029-.207 3 3 0 0 0-.08-.382c-.225-.787-.772-1.446-1.43-1.72-.26-.108-.74-.307-1.315-.159.122-.507.335-1.08.566-1.7l.097-.261c.11-.295.246-.6.39-.922.783-1.742 1.854-4.128.691-9.518-.435-2.019-1.89-3.005-4.093-2.776-1.322.137-2.53.672-3.133.979q-.194.098-.36.191c.169-2.034.805-5.836 3.183-8.24 1.498-1.515 3.492-2.263 5.922-2.223 4.788.08 7.858 2.543 9.59 4.596 1.493 1.769 2.302 3.55 2.624 4.512-2.426-.248-4.076.233-4.913 1.432-1.82 2.609.996 7.672 2.35 10.105.247.446.461.831.529.995.44 1.07 1.01 1.786 1.428 2.308.127.16.251.315.345.45-.735.213-2.055.703-1.934 3.157-.097 1.231-.787 6.995-1.138 9.031-.463 2.69-1.45 3.693-4.226 4.29m12.014-13.786c-.751.35-2.01.612-3.204.669-1.32.061-1.991-.149-2.149-.278-.074-1.529.493-1.689 1.094-1.858q.141-.038.275-.083.084.068.182.133c1.06.702 2.953.778 5.623.225l.03-.006c-.36.338-.977.791-1.851 1.198"/></g><defs><clipPath id="a"><path fill="#fff" d="M1.441.714h45.117v46.572H1.441z"/></clipPath></defs></svg>