<svg xmlns="http://www.w3.org/2000/svg" width="169" height="46" fill="none" viewBox="0 0 169 46"><g clip-path="url(#a)"><path fill="#80134e" d="m29.4 44-1.3.4c-4.5 1.2-8.9.6-12-.3C8.8 41.9 4.3 36.7 2 31.5-.8 24.9.3 19.7.6 17.9c-2.2 14 16.7 29.7 28.8 26.1m9.2-10.3c-7.5 1.8-18.7-4.1-25-13.2-5.5-8.5-5.2-16.7.9-19.1-.5.2-4.6 1.7-7.9 5C5 8 3.5 9.8 3.2 13.3c-.8 14.9 25 35.5 35.9 24.7 3.6-3.6 4.8-7.3 5.4-9.1-.1 0-2 4.2-5.9 4.8M20.8 15.5c-4.9-7-4.1-13.8 1.7-15.2 1.5-.4 3.2-.3 5 .1l1.1.3c1.6.5 1.6.5 2.5.9 1.4.6 1.4.6 2.2 1 1.3.7 1.3.7 1.9 1.1 1.2.8 1.2.8 1.7 1.2 1.1.9 1.1.9 1.6 1.4 1 1 1 1 1.5 1.6.9 1.1 1 1.3 1.4 1.8.3.4.6.9.8 1.3.8 1.4.8 1.5 1.2 2.3.3.7.6 1.6.9 2.3 1.6 5 .1 9.1-4.2 10.2-5.9 1.3-14.5-3.2-19.3-10.3m7.3-4c2.7 3.9 7.5 6.4 10.7 5.6s3.6-4.5.9-8.4S32.2 2.3 29 3c-3.2.8-3.6 4.6-.9 8.5"/><path fill="#fff" d="M67.9 12.5H61V28h2.8v-6.2h4c1.7 0 3-.4 3.9-1.3.9-.8 1.3-2 1.3-3.4s-.4-2.6-1.3-3.4c-.8-.8-2.1-1.2-3.8-1.2m1.8 6.4q-.75.6-2.1.6h-3.7v-4.8h3.7q1.35 0 2.1.6c.5.4.7 1 .7 1.8s-.2 1.4-.7 1.8m12.4-2.2c.2 0 .3.1.5.1v2.4c-.3-.1-.5-.2-.7-.2h-.7c-.6 0-1.2.1-1.6.4s-.8.6-1 1.1-.3 1-.3 1.6V28h-2.8v-9.7c0-.5-.1-1-.1-1.4H78l.2 2c.1-.3.2-.5.4-.8.3-.5.8-.8 1.3-1.1.5-.2 1-.4 1.6-.4.2.1.4.1.6.1m10.1.7c-.8-.5-1.8-.7-3-.7-1.1 0-2.1.2-3 .7-.8.5-1.5 1.1-1.9 2-.5.9-.7 1.9-.7 3.1s.2 2.2.7 3.1 1.1 1.5 1.9 2 1.8.7 3 .7c1.1 0 2.1-.2 3-.7.8-.5 1.5-1.1 2-2s.7-1.9.7-3.1-.2-2.2-.7-3.1-1.2-1.5-2-2m-.9 7.8q-.75.9-2.1.9t-2.1-.9c-.5-.6-.8-1.5-.8-2.8 0-1.2.3-2.1.8-2.8s1.2-.9 2.1-.9q1.35 0 2.1.9c.5.6.8 1.5.8 2.8-.1 1.3-.3 2.2-.8 2.8m14-2.4c.5.5.8 1.1.8 1.9 0 .7-.2 1.4-.6 1.9s-.9.9-1.6 1.2-1.5.4-2.5.4-1.8-.1-2.6-.3-1.5-.5-2-1l.8-1.8q.9.6 1.8.9c.7.2 1.4.3 2 .3.7 0 1.3-.1 1.6-.4.4-.2.5-.6.5-1 0-.3-.1-.6-.3-.8s-.6-.3-1.1-.5l-2.2-.4c-.9-.2-1.7-.6-2.1-1.1s-.7-1.2-.7-2q0-1.05.6-1.8c.4-.5.9-.9 1.6-1.2s1.5-.5 2.5-.5c.8 0 1.6.1 2.3.3s1.3.5 1.8 1l-.8 1.8c-.5-.4-1-.7-1.6-.9s-1.2-.3-1.7-.3c-.8 0-1.3.1-1.7.4s-.5.6-.5 1c0 .3.1.6.3.8s.5.4 1 .5l2.2.4c1 .4 1.7.7 2.2 1.2m12.3-5.4c-.7-.5-1.6-.7-2.6-.7-.9 0-1.8.2-2.5.7-.6.4-1 .8-1.2 1.4l-.2-1.8h-2.7c.1.5.1.9.1 1.4v14.5h2.8v-6.5q.45.75 1.2 1.2c.7.5 1.5.7 2.4.7 1 0 1.8-.2 2.6-.7s1.3-1.1 1.7-2 .6-1.9.6-3.1-.2-2.2-.6-3.1c-.3-.9-.9-1.6-1.6-2m-1.2 7.8q-.75.9-2.1.9t-2.1-.9c-.5-.6-.8-1.5-.8-2.8 0-1.2.3-2.1.8-2.8s1.2-.9 2.1-.9q1.35 0 2.1.9c.5.6.8 1.5.8 2.8s-.3 2.2-.8 2.8m13.6-7.8c-.7-.5-1.6-.7-2.7-.7s-2 .2-2.8.7-1.4 1.2-1.9 2c-.5.9-.7 1.9-.7 3 0 1.8.5 3.2 1.6 4.2s2.5 1.5 4.4 1.5c.8 0 1.6-.1 2.3-.4s1.4-.6 1.9-1l-.8-1.8c-.5.4-1 .7-1.6.8s-1.1.3-1.8.3c-1.1 0-1.9-.3-2.5-.9-.5-.5-.8-1.3-.9-2.3h7.7v-.7c0-1.1-.2-2.1-.6-2.9s-.8-1.4-1.6-1.8m-2.6 1.2c.8 0 1.4.3 1.9.8.4.5.6 1.2.6 2h-5.3c.1-.8.3-1.4.7-1.9q.75-.9 2.1-.9m14-1.9c.2 0 .3.1.5.1v2.4c-.3-.1-.5-.2-.7-.2h-.7c-.6 0-1.2.1-1.6.4s-.8.6-1 1.1-.3 1-.3 1.6V28h-2.8v-9.7c0-.5-.1-1-.1-1.4h2.7l.2 2c.1-.3.2-.5.4-.8.3-.5.8-.8 1.3-1.1.5-.2 1-.4 1.6-.4.1.1.4.1.5.1m2.1-4.6h3.1v2.7h-3.1zm.2 4.8h2.8V28h-2.8zm9.4 0h3V19h-3v5c0 .8.1 1.3.4 1.6s.7.5 1.2.5c.3 0 .5 0 .7-.1.2 0 .4-.1.6-.2V28c-.2.1-.5.2-.8.2-.3.1-.6.1-.9.1-1.3 0-2.3-.3-3-1s-1-1.7-1-3.1V19h-2.1v-2.1h2.1v-2.8l2.8-.7zm15.8 0-5.1 11.7c-.3.8-.7 1.4-1.1 2-.4.5-.8.9-1.3 1.3-.5.3-1 .6-1.5.7-.5.2-1.1.3-1.8.4l-.6-2.2c.7-.1 1.3-.3 1.7-.5.5-.2.9-.4 1.2-.7s.6-.7.8-1.2l.3-.7-4.6-10.8h2.9l3.2 7.9 3.2-7.9z"/></g><defs><clipPath id="a"><path fill="#fff" d="M0 0h169v46H0z"/></clipPath></defs></svg>