<svg xmlns="http://www.w3.org/2000/svg" width="48" height="48" fill="none" viewBox="0 0 48 48"><g fill="#2d3748" clip-path="url(#a)"><path d="M5.225 21.268a19 19 0 0 0-.176 1.908h28.789a3.4 3.4 0 0 0-.372-.547c-4.922-6.358-7.57-5.807-11.356-5.968-1.263-.052-2.12-.073-7.145-.073-2.69 0-5.614.007-8.462.014-.369.995-.724 1.96-.897 2.744h14.752v1.922zm28.84 3.831h-29q.044.77.146 1.518h26.775c1.193 0 1.862-.678 2.079-1.518m-27.35 6.76s4.44 10.898 17.265 11.091c7.665 0 14.252-4.552 17.244-11.092z"/><path d="M23.978 5.05c-7.088 0-13.256 3.892-16.513 9.645 2.545-.005 7.502-.008 7.502-.008h.001v-.002c5.86 0 6.078.026 7.222.074l.709.026c2.469.083 5.503.348 7.89 2.154 1.297.98 3.168 3.142 4.283 4.683 1.031 1.425 1.328 3.063.627 4.632-.645 1.443-2.034 2.303-3.715 2.303H5.665s.157.664.392 1.397h35.925a18.9 18.9 0 0 0 .966-5.946c0-10.47-8.493-18.958-18.97-18.958"/></g><defs><clipPath id="a"><path fill="#fff" d="M5.05 5.05h37.9v37.9H5.05z"/></clipPath></defs></svg>