<svg xmlns="http://www.w3.org/2000/svg" width="48" height="48" fill="none" viewBox="0 0 48 48"><g clip-path="url(#a)"><path fill="#61dafb" d="M23.997 27.82A3.824 3.824 0 0 0 27.825 24c0-2.11-1.714-3.82-3.828-3.82A3.824 3.824 0 0 0 20.168 24c0 2.11 1.714 3.82 3.829 3.82"/><path stroke="#61dafb" stroke-width="2.261" d="M24.001 31.825c11.346 0 20.544-3.503 20.544-7.825S35.347 16.175 24 16.175 3.458 19.678 3.458 24s9.198 7.825 20.543 7.825Z"/><path stroke="#61dafb" stroke-width="2.261" d="M17.205 27.913c5.673 9.802 13.313 15.996 17.065 13.835 3.751-2.16 2.194-11.858-3.48-21.66C25.119 10.286 17.479 4.09 13.727 6.252s-2.194 11.859 3.479 21.66Z"/><path stroke="#61dafb" stroke-width="2.261" d="M17.211 20.088c-5.673 9.802-7.23 19.5-3.478 21.66 3.751 2.161 11.391-4.033 17.064-13.835 5.673-9.803 7.23-19.5 3.479-21.661S22.884 10.286 17.21 20.088Z"/></g><defs><clipPath id="a"><path fill="#fff" d="M2.523 4.937h42.954v38.125H2.523z"/></clipPath></defs></svg>