<svg xmlns="http://www.w3.org/2000/svg" width="48" height="48" fill="none" viewBox="0 0 48 48"><g fill="#161d2b" clip-path="url(#a)"><path fill-rule="evenodd" d="M41.33 35.932c.394 5.084.394 7.467.394 10.068h-11.69c0-.567.01-1.085.02-1.61.031-1.634.064-3.338-.199-6.779-.348-5.037-2.504-6.157-6.468-6.157H5V22.29h18.944c5.007 0 7.51-1.532 7.51-5.59 0-3.568-2.503-5.73-7.51-5.73H5V2h21.03C37.367 2 43 7.387 43 15.993c0 6.436-3.964 10.634-9.32 11.333 4.521.91 7.164 3.499 7.65 8.606" clip-rule="evenodd"/><path d="M5 46v-6.832h12.361c2.065 0 2.513 1.54 2.513 2.46V46z"/></g><defs><clipPath id="a"><path fill="#fff" d="M5 2h38v44H5z"/></clipPath></defs></svg>