<svg xmlns="http://www.w3.org/2000/svg" xml:space="preserve" viewBox="0 0 2133.486 282.443"><path d="M1255.203 79.034h5.2v120.908h-5.2zM21.016 78.888v121.199h80.112v-18.739H43.024V78.888zm135.911.001h22.004v121.199h-22.004zm140.797 122.915c-13.409 0-24.729-2.518-33.951-7.56-9.229-5.046-16.246-12.21-21.061-21.492q-7.221-13.927-7.22-33.008c0-12.831 2.462-23.922 7.392-33.264q7.392-14.007 21.317-21.66c9.286-5.099 20.398-7.648 33.351-7.648q12.717 0 23.894 3.692c7.452 2.465 13.637 5.874 18.568 10.229l-7.392 17.193q-8.08-6.358-16.505-9.114-8.422-2.747-18.564-2.749-19.258 0-29.136 11.172c-6.596 7.455-9.889 18.171-9.889 32.149q-.001 21.148 10.145 32.149 10.143 11.004 30.083 11.004c3.78 0 7.651-.316 11.603-.947a77.6 77.6 0 0 0 11.775-2.837V150.92h-27.846v-16.334h46.242v58.28q-8.425 4.124-19.942 6.533-11.52 2.405-22.864 2.405m100.804-1.717V78.888h22.004v50.544h62.407V78.888h22.004v121.199h-22.004v-52.262h-62.407v52.262zm197.118 0V97.284h-41.602V78.888h105.212v18.396H617.65v102.803zm110.378-.002V78.89h52.95c12.722 0 22.572 2.781 29.568 8.335 6.989 5.561 10.488 13.269 10.488 23.126 0 6.529-1.666 12.147-4.99 16.846-3.321 4.702-7.907 8.139-13.749 10.313 6.876 1.95 12.231 5.362 16.074 10.229 3.836 4.871 5.761 11.035 5.761 18.483 0 10.769-3.643 19.111-10.92 25.013q-10.919 8.852-30.343 8.851zm21.145-69.795h28.021q22.519 0 22.519-17.361c0-17.361-7.508-17.365-22.519-17.365h-28.021zm0 53.121h30.942q22.69 0 22.691-18.22 0-18.226-22.691-18.227h-30.942zm296.301 16.676 46.241-61.716-44.523-59.483h25.616l31.458 43.493 31.461-43.493h25.787l-44.526 59.483 46.073 61.716h-25.791l-33.004-45.386-32.833 45.386zM920.648 69.083l-31.237 18.038-31.233 18.031 62.47 36.073 62.47-36.073-31.233-18.031zm-62.474 108.209 52.529 30.332v-28.123l-28.176-16.271v-32.538l-24.353-14.061z" style="fill:#fff"/><path d="M920.648 141.222v72.137l31.223-18.031 31.247-18.042v-72.134zm11.225 23.487v-16.271l16.474-9.513 16.484-9.513c3.885-2.251 7.048-.428 7.048 4.068s-3.163 9.955-7.048 12.206l-16.484 9.51zm0 12.213 16.474-9.513 16.484-9.513c3.885-2.251 7.048-.428 7.048 4.068 0 4.492-3.163 9.962-7.048 12.203l-16.484 9.52-16.474 9.506zm446.274 23.429V78.625h45.928q19.51.002 29.784 8.979 10.272 8.978 10.273 25.553-.001 13.643-7.424 22.101-7.427 8.462-21.065 10.878c4.948 1.842 9.325 6.332 13.122 13.468l22.101 40.747h-11.568l-21.065-39.021q-4.492-8.113-10.015-10.878-5.526-2.763-14.848-2.764h-24.69v52.662h-10.533zm10.534-61.64h34.013q30.733 0 30.734-25.555-.001-25.38-30.734-25.38h-34.013zm126.904 61.64V78.625h74.935v9.152h-64.574v46.272h60.949v9.152h-60.949v47.998h64.574v9.152zm158.847 0L1621.77 78.625h11.396l46.618 108.431 46.62-108.431h11.047l-52.834 121.726zm102.907 0V78.625h74.933v9.152h-64.574v46.272h60.948v9.152h-60.948v47.998h64.574v9.152zm122.758 0V78.625h45.928q19.509.002 29.782 8.979 10.273 8.978 10.273 25.553-.001 13.643-7.424 22.101-7.427 8.462-21.063 10.878 7.421 2.764 13.122 13.468l22.098 40.747h-11.568l-21.064-39.021q-4.49-8.113-10.013-10.878c-3.688-1.841-8.633-2.764-14.852-2.764h-24.69v52.662h-10.529zm10.53-61.64h34.015q30.733 0 30.734-25.555-.001-25.38-30.734-25.38h-34.015zm126.909 61.64V78.625h74.933v9.152h-64.574v46.272h60.948v9.152h-60.948v47.998h64.574v9.152z" style="fill:#fff"/></svg>