<svg xmlns="http://www.w3.org/2000/svg" width="48" height="48" fill="none" viewBox="0 0 48 48"><g clip-path="url(#a)"><path fill="#0f80cc" d="M35.586 3.436H7.276a3.45 3.45 0 0 0-3.442 3.442V38.1c0 1.9 1.555 3.442 3.441 3.442H25.93c-.207-9.279 2.96-27.285 9.664-38.133z"/><path fill="url(#b)" d="M34.558 4.448H7.279a2.45 2.45 0 0 0-2.444 2.444v28.944c6.182-2.375 15.453-4.42 21.869-4.323a199 199 0 0 1 7.854-27.065"/><path fill="#003b57" d="M42.194 2.417c-1.94-1.72-4.288-1.032-6.608 1.02L34.554 4.44c-3.965 4.199-7.572 11.99-8.783 17.945a16.4 16.4 0 0 1 1.018 2.932l.152.689.151.702s-.034-.138-.179-.551l-.096-.275a3 3 0 0 0-.062-.152c-.262-.599-.964-1.872-1.287-2.423q-.375 1.098-.71 2.21c.91 1.666 1.46 4.515 1.46 4.515s-.048-.186-.275-.826c-.207-.571-1.212-2.34-1.446-2.753-.413 1.514-.571 2.533-.427 2.78.276.483.551 1.377.792 2.231q.558 2.272.909 4.584l.034.427a42 42 0 0 0 .103 5.163c.18 2.154.517 4.006.943 4.997l.29-.158c-.62-1.955-.882-4.509-.771-7.462.172-4.508 1.204-9.946 3.124-15.611C32.75 14.78 37.239 7.91 41.355 4.634c-3.75 3.387-8.824 14.345-10.338 18.399-1.7 4.543-2.905 8.81-3.635 12.892 1.253-3.827 5.3-5.479 5.3-5.479s1.997-2.45 4.31-5.954l-4.44 1.184-1.432.634s3.648-2.224 6.794-3.236c4.316-6.794 9.017-16.45 4.281-20.663"/></g><defs><linearGradient id="b" x1="21.982" x2="21.982" y1="5.088" y2="34.094" gradientUnits="userSpaceOnUse"><stop stop-color="#97d9f6"/><stop offset=".92" stop-color="#0f80cc"/><stop offset="1" stop-color="#0f80cc"/></linearGradient><clipPath id="a"><path fill="#fff" d="M1.44 1.44h45.12v45.12H1.44z"/></clipPath></defs></svg>