<svg xmlns="http://www.w3.org/2000/svg" width="48" height="49" fill="none" viewBox="0 0 48 49"><g clip-path="url(#a)"><path fill="url(#b)" d="M27.941 23.108c-.073-.22-.807.22-1.027.293.252 1.529.4 3.073.44 4.622a41 41 0 0 1-4.915-3.155l-.513.22v-.22l-.734.22c-.22.147-.146 0-.146.294a15.6 15.6 0 0 1-.807 6.235c-1.468-1.247-2.861-3.007-3.228-4.621a1.06 1.06 0 0 1-.514.147c-.22.073-.293 0-.22.22a9.63 9.63 0 0 0 3.448 4.841c-1.394.514-2.934 1.1-4.695 1.688-.587.22-1.467.44-2.42.807a37.6 37.6 0 0 0 3.594-7.483l-1.1.44a49.4 49.4 0 0 1-3.815 6.97c-.073.073-.073.146-.147.22a6.06 6.06 0 0 1-.44-4.842c.073-.294-.954.44-1.027.513-.293.147-.293.367-.367.66q-.134.691-.146 1.394a5.8 5.8 0 0 0 .953 3.008c-2.274.66-4.842 1.467-7.336 2.127v-.22c.367-1.76 2.128-4.035 4.182-5.208l.513-.587-2.787 1.907c-1.32 1.1-2.788 2.861-3.155 4.475-.513 2.348 1.247 4.182 3.155 5.575a21.4 21.4 0 0 0 6.749 2.935 51.7 51.7 0 0 0 11.15 1.54h.514q.095-.135.146-.293c.22-.44 3.522-6.603 4.402-11.811a31.5 31.5 0 0 0 .293-12.911m-6.015 2.2a44 44 0 0 0 5.355 3.008 29 29 0 0 1-6.235 3.375 16.5 16.5 0 0 0 .88-6.382m-6.015 9.464q1.876-.63 3.667-1.467a51 51 0 0 1-3.154 6.309q-.848-.45-1.614-1.027a13.8 13.8 0 0 1-2.787-2.641c1.32-.367 2.64-.734 3.888-1.174m-12.912 3.3c2.348-.587 4.842-1.1 7.336-1.687C8.501 39.1 6.887 41.08 6.007 42.62 4.54 41.521 3.073 39.834 3 38.073m3.302 4.768c1.467-2.2 3.3-4.181 4.915-6.162q.603.751 1.32 1.394c.838.76 1.776 1.4 2.788 1.907-2.876 1.027-5.81 2.128-8.657 3.081a.8.8 0 0 1-.366-.22m6.308 3.008c-.146-.073-.293-.073-.44-.147a19.4 19.4 0 0 1-5.208-2.347c1.173-.367 6.309-1.687 8.73-2.494-1.394 2.274-2.642 4.108-3.082 4.988m10.344 1.834c-1.98-.22-6.015-.88-8.73-1.394 3.742-.88 6.236-1.247 10.49-3.3-.733 1.98-1.393 3.887-1.76 4.694m-9.39-1.687a.8.8 0 0 1-.44-.074 44 44 0 0 0 3.815-5.135 25.2 25.2 0 0 0 7.776 1.834c-1.761.734-10.71 3.301-11.151 3.375m13.058-9.537a60 60 0 0 1-1.76 6.016 29.3 29.3 0 0 1-7.337-2.275c2.495-1.027 7.776-3.448 9.17-4.401 0 .22-.073.44-.073.66m.22-1.1c-1.467.88-6.456 2.787-8.803 3.668a32.6 32.6 0 0 0 2.714-6.089c1.9 1.1 3.952 1.915 6.089 2.42m0-.294a18.9 18.9 0 0 1-5.502-2.567 39 39 0 0 0 6.015-3.668 39 39 0 0 1-.513 6.235"/><path fill="url(#c)" d="M10.923 6.602c-.953-.733.074-1.76.66-2.2.22-.22.514-.367.734-.587.734.88 2.568 3.227 3.301 3.961l1.32-.073c-.66-.587-3.447-3.375-4.254-4.108a41 41 0 0 0 8.216 1.54v.073a40 40 0 0 0-3.961 2.275l1.1.146a13.5 13.5 0 0 0 3.081-2.127 32 32 0 0 0 1.6 3.081l1.026.147c-1.907-3.301-3.3-6.236-3.888-8.73-1.379.44-8.935 3.081-10.343 4.915-.66.734.88 1.32 1.394 1.687zM19.58.367c.132 1.46.478 2.894 1.027 4.255-1.761-.44-6.016-1.1-7.556-1.247A36.3 36.3 0 0 1 19.58.367"/><path fill="url(#d)" d="M45.4 19.073c-2.64-4.108-6.602-7.923-18.56-10.123-2.494-.44-5.502-.807-10.784-1.761-1.834-.293-7.335-1.174-6.675-2.274a.785.785 0 0 0 .132 1.1c2.714 3.081 6.676 4.915 6.676 11.224 0 5.796-5.209 11.224-10.49 15.552a8 8 0 0 0-.881.734 80 80 0 0 1 15.185-7.336c6.162-2.42 18.413-5.869 25.456-6.823zm-10.27-6.675a58 58 0 0 1 2.054.88c-3.107.667-6.15 1.6-9.097 2.787a15.3 15.3 0 0 0 1.614-5.428c1.82.513 3.668 1.1 5.429 1.76m-8.29 3.814a26.4 26.4 0 0 0-3.815-1.907 51 51 0 0 1 6.09-3.742c-.074 1.394-.808 3.302-2.275 5.65m-10.197-2.494c1.403.297 2.777.714 4.108 1.247a52 52 0 0 0-3.961 3.595 17.6 17.6 0 0 0-.147-4.842m4.607 1.98a18 18 0 0 1-2.2 5.282 5.9 5.9 0 0 0-2.128-1.54 34 34 0 0 1 4.328-3.741m.88-.22c1.1.514 2.275 1.1 3.448 1.688a37.6 37.6 0 0 0-5.135 2.86 13.3 13.3 0 0 0 1.702-4.547zm6.31-5.061a30.8 30.8 0 0 0-6.09 3.3 10.4 10.4 0 0 0-.88-4.62c2.362.366 4.637.806 6.984 1.32zm-7.483-1.394c.5 1.537.674 3.16.513 4.768a64 64 0 0 0-4.621-1.32 30 30 0 0 1 4.108-3.448m-9.83-2.2q1.32.44 3.08.88c.514 1.467.881 2.787 1.248 3.96a15.9 15.9 0 0 0-4.314-4.84zm3.594 1.026c2.128.514 4.402.88 5.722 1.1a16.5 16.5 0 0 0-4.181 3.082 25 25 0 0 0-1.526-4.182zm1.614 12.765c.584.264 1.127.61 1.614 1.027-1.247.88-2.42 1.76-3.374 2.567a11.7 11.7 0 0 0 1.775-3.594zm-2.64 4.915c.953-.66 2.273-1.614 3.96-2.715a24.3 24.3 0 0 1-6.308 5.429 20 20 0 0 0 2.362-2.714zm-1.174 2.787a26.8 26.8 0 0 0 6.235-5.795 5.14 5.14 0 0 1 1.1 2.567c-2.846 1.174-5.12 2.055-7.32 3.228zm7.863-3.374a7.06 7.06 0 0 0-.806-3.301 105 105 0 0 1 5.942-3.228 72 72 0 0 1-5.135 6.529m.808-.294a32 32 0 0 0 5.795-6.602c1.542.96 2.97 2.092 4.255 3.375a117 117 0 0 0-10.05 3.227m10.783-3.447a14.7 14.7 0 0 0-3.814-4.109 72 72 0 0 1 9.536-3.447c-1.1 1.98-2.934 4.034-5.722 7.556m.954-.22a20.7 20.7 0 0 0 5.355-7.116 22.5 22.5 0 0 1 6.309 4.988q.127.136.293.22c-4.038.25-8.042.888-11.957 1.907"/><path fill="#231f20" d="M25.742 46.803h-.44v1.32h-.146v-1.32h-.44v-.147h1.026m1.683 1.466h-.146v-1.32c0 .074 0 .147-.073.147l-.514 1.1h-.073l-.513-1.1a.23.23 0 0 0-.074-.147v1.247h-.146v-1.467h.22l.44 1.027a.26.26 0 0 0 .073.146.26.26 0 0 1 .073-.146l.44-1.027h.22"/></g><defs><radialGradient id="b" cx="0" cy="0" r="1" gradientTransform="translate(30.975 20.806)scale(42.3497)" gradientUnits="userSpaceOnUse"><stop stop-color="#fff"/><stop offset=".87" stop-color="#99a5b4"/><stop offset=".99" stop-color="#8a97a8"/></radialGradient><radialGradient id="c" cx="0" cy="0" r="1" gradientTransform="translate(26.16 11.193)scale(20.7364)" gradientUnits="userSpaceOnUse"><stop stop-color="#fff"/><stop offset=".87" stop-color="#99a5b4"/><stop offset=".99" stop-color="#8a97a8"/></radialGradient><radialGradient id="d" cx="0" cy="0" r="1" gradientTransform="translate(20.738 19.972)scale(17.5673)" gradientUnits="userSpaceOnUse"><stop stop-color="#e23126"/><stop offset="1" stop-color="#b92226"/></radialGradient><clipPath id="a"><path fill="#fff" d="M1.442 0h45.116v48.123H1.442z"/></clipPath></defs></svg>