<svg xmlns="http://www.w3.org/2000/svg" width="48" height="48" fill="none" viewBox="0 0 48 48"><path fill="url(#a)" d="M27.295 43.343c-1.023 1.287-3.095.582-3.12-1.062l-.36-24.042H39.98c2.928 0 4.561 3.382 2.74 5.675z"/><path fill="url(#b)" fill-opacity=".2" d="M27.295 43.343c-1.023 1.287-3.095.582-3.12-1.062l-.36-24.042H39.98c2.928 0 4.561 3.382 2.74 5.675z"/><path fill="#3ecf8e" d="M20.705 4.657c1.023-1.288 3.095-.582 3.12 1.062l.158 24.042H8.019c-2.928 0-4.561-3.382-2.74-5.675z"/><defs><linearGradient id="a" x1="23.815" x2="38.183" y1="23.57" y2="29.596" gradientUnits="userSpaceOnUse"><stop stop-color="#249361"/><stop offset="1" stop-color="#3ecf8e"/></linearGradient><linearGradient id="b" x1="17.445" x2="23.997" y1="14.848" y2="27.183" gradientUnits="userSpaceOnUse"><stop/><stop offset="1" stop-opacity="0"/></linearGradient></defs></svg>