<svg xmlns="http://www.w3.org/2000/svg" width="1003" height="332" fill="none" viewBox="0 0 1003 332"><path fill="#fff" d="M997.658 207.294c0 3.342-1.232 6.269-3.604 8.642l-.003.003c-2.449 2.442-5.451 3.721-8.883 3.721-3.395 0-6.35-1.255-8.717-3.681l-.45-.45c-2.18-2.283-3.324-5.065-3.324-8.235V70.817c0-3.416 1.251-6.407 3.668-8.824s5.407-3.667 8.823-3.667 6.406 1.25 8.822 3.667c2.417 2.417 3.668 5.408 3.668 8.824z"/><path fill="#f7a600" d="M1002.75 251.039c0 5.457-2.49 10.368-6.348 13.583l-.009.007-.01.008c-3.043 2.492-6.94 4.02-11.215 4.02a17.46 17.46 0 0 1-11.224-4.061 17.52 17.52 0 0 1-6.359-13.557c0-5.303 2.37-10.093 6.097-13.308 3.086-2.662 7.074-4.28 11.486-4.28 4.008 0 7.684 1.342 10.635 3.563l.58.457.011.008.011.009c3.845 3.215 6.345 8.082 6.345 13.551M208.432 81.951c0 4.609-2.111 8.78-5.422 11.516-2.543 2.06-5.849 3.356-9.399 3.356-3.744 0-7.1-1.342-9.695-3.601l-.091.097c-5.234-4.796-12.187-7.675-19.816-7.72h-.427a29.7 29.7 0 0 0-20.055 7.913l-.097-.045c-2.588 2.06-5.854 3.356-9.45 3.356-3.692 0-7.049-1.342-9.689-3.601l-.051.097c-5.177-4.745-12.084-7.624-19.663-7.72h-.58c-7.772.045-14.775 3.02-20.05 7.913l-.045-.045c-2.594 2.06-5.906 3.356-9.501 3.356-3.693 0-7.05-1.342-9.69-3.601l-.05.097c-5.23-4.796-12.182-7.675-19.811-7.72v-.052c-.142.051-.285.051-.433.051a29.68 29.68 0 0 0-20.05 7.914l-.096-.045c-2.543 2.06-5.854 3.356-9.404 3.356-3.738 0-7.095-1.342-9.69-3.601C2.015 90.537 0 86.463 0 81.952a14.74 14.74 0 0 1 5.371-11.368c2.543-2.162 5.854-3.454 9.496-3.454 5.712 0 9.694 3.118 9.694 3.118a29.94 29.94 0 0 0 19.76 7.772c.193 0 .387 0 .58.045v-.045c7.578-.097 20.05-7.436 20.05-7.436 2.543-2.162 5.854-3.454 9.45-3.454s6.907 1.292 9.5 3.403c0 0 12.42 7.39 20.05 7.487.433-.051.814-.051 1.201-.051 7.339-.194 13.672-3.55 19.088-7.675 2.02-1.536 4.893-3.164 9.74-3.164 4.751 0 9.74 3.118 9.74 3.118a29.86 29.86 0 0 0 19.76 7.772h.58c.125-.006.268-.023.381 0 7.488-.194 13.706-3.812 19.384-7.726 2.117-1.457 6.139-3.164 9.786-3.164 3.55 0 6.856 1.292 9.399 3.403a14.68 14.68 0 0 1 5.422 11.418m-35.184 21.967c3.255 2.719 5.36 6.827 5.36 11.441 0 4.608-2.105 8.756-5.36 11.47a14.88 14.88 0 0 1-9.472 3.396 14.72 14.72 0 0 1-9.473-3.43c-3.289-2.714-5.36-6.828-5.36-11.436 0-4.472 1.997-8.511 5.144-11.225 2.611-2.253 5.973-3.613 9.689-3.613 3.607 0 6.901 1.286 9.472 3.397m.023 201.435a14.97 14.97 0 0 0-9.496-3.357c-3.698.006-7.652 1.974-9.74 3.499-5.695 4.165-12.175 7.618-19.788 7.721-.159.011-.284-.012-.455.011-7.771-.102-14.252-3.766-20.055-7.971-2.031-1.473-5.945-3.254-9.496-3.254a14.85 14.85 0 0 0-9.689 3.544c-3.169 2.737-5.183 6.771-5.183 11.277 0 4.551 2.111 8.682 5.326 11.418 2.588 2.157 5.9 3.408 9.546 3.408 3.551 0 7.596-1.633 9.69-3.072 5.843-4.022 12.186-7.726 19.765-7.772.221 0 .574-.011.574 0 7.578.046 13.951 3.715 19.765 7.727 2.105 1.45 6.139 3.117 9.74 3.117 3.596 0 6.907-1.251 9.496-3.362 3.215-2.731 5.325-6.856 5.325-11.464 0-4.603-2.11-8.728-5.325-11.464m-59.625-134.28a14.77 14.77 0 0 0-9.404-3.408c-3.738 0-7.687 1.969-9.786 3.505-5.701 4.165-12.181 7.675-19.81 7.721 0 .017-.268.005-.433 0-7.72-.046-14.224-3.687-20.05-7.914-2.048-1.485-5.95-3.312-9.546-3.312-3.647 0-7.055 1.394-9.644 3.602a14.76 14.76 0 0 0-5.183 11.225c0 4.603 2.065 8.728 5.376 11.419 2.59 2.156 5.85 3.453 9.45 3.453 3.596 0 7.636-1.667 9.735-3.118 5.82-4.011 12.141-7.68 19.765-7.771.228 0 .575-.017.58 0 7.624.091 13.974 3.726 19.76 7.72 2.116 1.462 6.139 3.169 9.786 3.169a14.76 14.76 0 0 0 9.404-3.408c3.311-2.736 5.422-6.81 5.422-11.464 0-4.608-2.111-8.682-5.422-11.419M83.885 3.397a14.88 14.88 0 0 1 5.36 11.441c0 4.608-2.106 8.722-5.36 11.436a14.88 14.88 0 0 1-9.473 3.396c-3.681 0-7.078-1.36-9.65-3.613-3.185-2.68-5.182-6.719-5.182-11.219 0-4.58 2.07-8.688 5.359-11.407A14.72 14.72 0 0 1 74.412 0c3.613 0 6.895 1.286 9.473 3.397m0 134.3a14.88 14.88 0 0 1 5.36 11.441c0 4.609-2.106 8.722-5.36 11.436a14.88 14.88 0 0 1-9.473 3.397c-3.681 0-7.078-1.36-9.65-3.613-3.185-2.68-5.182-6.719-5.182-11.22 0-4.58 2.07-8.687 5.359-11.407a14.72 14.72 0 0 1 9.473-3.431 14.88 14.88 0 0 1 9.473 3.397m0 67.134a14.88 14.88 0 0 1 5.36 11.442c0 4.608-2.106 8.721-5.36 11.435a14.88 14.88 0 0 1-9.473 3.397c-3.681 0-7.078-1.36-9.65-3.613-3.185-2.68-5.182-6.719-5.182-11.219 0-4.58 2.07-8.688 5.359-11.408a14.72 14.72 0 0 1 9.473-3.43 14.88 14.88 0 0 1 9.473 3.396m119.13 67.134c-2.543-2.111-5.854-3.357-9.404-3.357-3.647 0-7.669 1.662-9.786 3.118-5.815 4.011-12.135 7.675-19.759 7.721-.222-.012-.581.011-.581 0-7.623-.046-13.916-3.744-19.765-7.772-2.099-1.445-6.139-3.067-9.734-3.067-3.602 0-7.635 1.667-9.741 3.118-5.814 4.011-12.135 7.675-19.713 7.721-.012.051-.364-.006-.575 0-7.63-.046-13.968-3.744-19.816-7.772-2.1-1.445-6.14-3.067-9.735-3.067a14.8 14.8 0 0 0-9.45 3.403c-3.311 2.691-5.376 6.816-5.376 11.418 0 4.461 2.02 8.489 5.131 11.226 2.64 2.253 6.003 3.601 9.695 3.601 3.596 0 7.499-1.832 9.547-3.311 5.82-4.228 12.278-7.869 20.05-7.914.17-.006.273-.029.432-.034v.034c7.629.045 14.093 3.521 19.81 7.72 2.089 1.531 6.048 3.505 9.741 3.505 3.595 0 7.504-1.832 9.547-3.311 5.769-4.188 12.277-7.869 20.049-7.914.006-.023.267-.017.432 0 7.63.045 14.093 3.521 19.811 7.72 2.094 1.536 6.048 3.505 9.786 3.505 3.55 0 6.861-1.252 9.404-3.363 3.312-2.73 5.422-6.855 5.422-11.464 0-4.602-2.11-8.727-5.422-11.464M119.062 48.228c0 4.609-2.11 8.733-5.422 11.419a14.74 14.74 0 0 1-9.398 3.402 15.04 15.04 0 0 1-9.547-3.402s-12.38-7.39-20.004-7.436h-.58c-7.624.045-20.05 7.436-20.05 7.436a14.78 14.78 0 0 1-9.45 3.402c-3.596 0-6.862-1.291-9.45-3.402a14.78 14.78 0 0 1-5.371-11.419 14.68 14.68 0 0 1 5.177-11.225 14.7 14.7 0 0 1 9.644-3.596c3.601 0 6.907 1.246 9.45 3.357l.097-.097c12.647 12.528 35.07 4.99 40.298.24l.09.05a14.85 14.85 0 0 1 9.696-3.55c3.55 0 6.855 1.246 9.398 3.357 3.312 2.73 5.422 6.861 5.422 11.464m0 67.114c0 4.603-2.11 8.779-5.422 11.464a14.74 14.74 0 0 1-9.398 3.408c-3.647 0-7.675-1.678-9.786-3.118-5.81-4.028-12.141-7.726-19.765-7.771v-.052c-.194.052-.387.052-.58.052-7.624.045-15.686 4.415-20.05 7.481-2.685 1.917-5.849 3.408-9.45 3.408-3.596 0-6.862-1.297-9.45-3.408-3.312-2.731-5.371-6.861-5.371-11.464 0-4.461 2.014-8.489 5.177-11.225a14.62 14.62 0 0 1 9.644-3.596c3.601 0 6.765 1.485 9.45 3.402 4.364 3.169 12.38 7.772 20.146 7.869h.484c7.624-.097 14.053-3.55 19.765-7.721 2.11-1.536 6.042-3.55 9.786-3.55 3.55 0 6.855 1.292 9.398 3.402a14.68 14.68 0 0 1 5.422 11.419m-4.363 123.859c-2.686-2.685-6.378-4.364-10.457-4.364-3.744 0-7.693 1.963-9.786 3.499-5.718 4.205-12.187 7.675-19.81 7.727-.007.017-.007.028-.007.045-.147-.011-.267-.045-.426-.045-7.249 0-13.598-2.976-18.997-7.004-2.287-1.707-6.48-4.222-10.605-4.222-4.074 0-7.772 1.679-10.457 4.364-2.731 2.64-4.364 6.378-4.364 10.457 0 4.558 2.065 8.682 5.325 11.419 2.589 2.111 5.9 3.402 9.496 3.402 3.601 0 7.6-1.621 9.695-3.066 5.837-4.034 12.18-7.727 19.81-7.772.222.006.376-.023.575-.034v.034c7.63.045 13.95 3.715 19.765 7.72 2.11 1.463 6.139 3.118 9.786 3.118 3.55 0 6.861-1.246 9.398-3.357 3.312-2.73 5.422-6.855 5.422-11.464 0-4.079-1.678-7.817-4.363-10.457"/><path fill="#fff" d="M273.561 216.857v-65.648h-6.966c-3.419 0-6.423-1.239-8.852-3.668l-.002-.003c-2.423-2.43-3.665-5.427-3.665-8.905 0-3.364 1.242-6.419 3.665-8.849l.005-.005c2.425-2.418 5.426-3.666 8.849-3.666h6.966V80.009c0-3.361 1.241-6.424 3.668-8.851l.028-.029.03-.027c2.491-2.351 5.4-3.618 8.852-3.618 3.427 0 6.432 1.247 8.854 3.676 2.432 2.428 3.671 5.49 3.671 8.85v46.103h16.956c3.379 0 6.381 1.253 8.796 3.668 2.431 2.431 3.673 5.488 3.673 8.852 0 3.477-1.243 6.474-3.672 8.904l.001.001c-2.418 2.427-5.422 3.671-8.798 3.671h-16.956v65.648c0 9.347 2.334 15.854 6.521 20.043 4.188 4.188 10.692 6.524 20.039 6.524 3.273 0 6.06 1.095 8.391 3.227l.461.441.003.002c2.459 2.466 3.721 5.399 3.721 8.906 0 3.385-1.257 6.401-3.752 8.823l-.001-.001c-2.417 2.403-5.345 3.64-8.823 3.64-16.71 0-29.76-4.178-38.614-13.017s-13.049-21.876-13.049-38.588M469.152 256v-58.738c0-12.466-4.292-23.083-12.919-31.989-8.635-8.904-20.853-14.064-33.258-14.059-12.256.005-22.774 4.151-31.589 12.447l-.847.816c-8.694 8.555-13.657 20.588-13.652 32.806.006 12.659 4.354 23.332 13.051 32.271l.816.817c8.526 8.317 20.306 13.058 32.259 13.053 5.713 0 11.028-.904 15.944-2.686l.383-.133c8.04-2.635 16.333 3.334 16.333 11.861 0 5.47-3.55 10.153-8.572 11.949-7.558 2.701-15.588 4.046-24.108 4.052-18.976 0-35.402-6.534-49.026-19.552l-1.309-1.28c-13.921-13.921-21.447-33.253-20.831-52.906.574-18.519 7.537-34.473 20.789-47.743 12.936-12.942 30.263-20.459 48.586-20.85 19.596-.419 36.539 6.019 50.555 19.29 14.775 13.991 22.383 33.899 22.383 54.077V256c0 3.379-1.254 6.381-3.673 8.8-2.415 2.415-5.36 3.667-8.852 3.667-3.375 0-6.374-1.253-8.793-3.664l-.005-.007c-2.412-2.419-3.665-5.417-3.665-8.796m394.06-12.574c5.777.016 11.116-.891 16.06-2.685 8.169-2.975 16.779 3.019 16.779 11.729 0 5.473-3.548 10.163-8.575 11.964h-.003c-7.543 2.697-15.59 4.036-24.104 4.036-19.647 0-36.454-6.97-50.328-20.838-13.879-13.868-21.404-33.106-20.842-52.694.533-18.605 7.495-34.63 20.795-47.948l.001-.002c12.929-12.929 30.231-20.451 48.533-20.854 19.593-.425 36.543 5.993 50.56 19.247 14.771 13.963 22.373 33.839 22.373 53.989v56.632c0 3.379-1.252 6.38-3.668 8.795-2.412 2.412-5.347 3.673-8.795 3.673-3.427 0-6.432-1.246-8.854-3.676-2.419-2.414-3.671-5.416-3.671-8.792v-58.737c0-12.21-4.113-22.641-12.392-31.436l-.814-.846c-8.595-8.735-20.66-13.771-32.919-13.766-12.791.006-23.594 4.485-32.615 13.447-8.596 8.536-13.526 20.469-13.526 32.594 0 12.86 4.481 23.665 13.5 32.695 8.532 8.542 20.417 13.435 32.505 13.473m-283.825 0c12.489 0 23.076-4.262 31.96-12.785 8.997-8.633 14.207-20.915 14.202-33.392 0-12.411-4.256-22.981-12.811-31.858-8.451-8.774-20.357-13.985-32.526-14.168h-.003c-5.87-.092-11.33.764-16.358 2.53-8.179 2.875-17.146-2.65-17.146-11.697 0-4.934 2.852-9.83 7.779-11.65 7.452-2.749 15.439-4.183 23.925-4.284 19.127-.231 37.769 7.335 51.295 20.867 13.868 13.874 20.832 30.686 20.832 50.277 0 19.083-6.535 35.403-19.552 49.018l-1.28 1.308c-13.443 13.455-31.96 21.027-50.976 20.873-18.589-.148-34.712-6.609-48.142-19.342-14.791-14.026-22.404-33.968-22.404-54.19V79.784c0-3.406 1.236-6.47 3.673-8.908 2.433-2.433 5.499-3.667 8.908-3.668 3.154 0 6.037 1.092 8.387 3.225l.462.44.007.006c2.429 2.436 3.664 5.5 3.664 8.905v112.999l.015 1.595.002 1.562v.035l-.001.033c-.28 11.115 3.34 22.196 10.442 30.617l.894 1.036c9.316 10.53 20.917 15.765 34.752 15.765m207.939-104.513c0 2.094-.488 3.941-1.359 5.67l-72.752 174.639-.002-.002a12.1 12.1 0 0 1-2.996 4.475l-.001-.001c-2.435 2.407-5.405 3.735-8.859 3.735-3.427 0-6.43-1.247-8.851-3.668-2.432-2.432-3.674-5.494-3.674-8.852 0-2.046.486-3.953 1.377-5.702l22.095-53.1-46.41-111.491a12.3 12.3 0 0 1-1.373-5.703c0-3.167 1.095-5.998 3.228-8.335l.44-.46c2.424-2.482 5.432-3.724 8.852-3.724 3.215 0 6.021 1.095 8.38 3.13l.466.42.085.08.078.086c1.237 1.375 2.204 2.869 2.848 4.489l37.051 88.811 36.995-88.809c.668-1.679 1.728-3.19 3.022-4.549l.024-.026.025-.025c2.376-2.369 5.376-3.607 8.793-3.607 3.435 0 6.445 1.252 8.877 3.749 2.405 2.417 3.641 5.404 3.641 8.77"/></svg>