<svg xmlns="http://www.w3.org/2000/svg" width="48" height="48" fill="none" viewBox="0 0 48 48"><path fill="#1ebca1" d="M23.972 12.49c18.386 0 15.107 7.649 15.107 7.649-.163 4.872-1.972 15.72-2.572 16.87-.6 1.152-3.786 4.451-6.279 5.717 0 0-.9-.962-1.451-1.809-.698.83-4.311 3.741-4.805 3.741z"/><path fill="#1ebca1" d="M39.304 18.815c0 .785-.225 1.319-.225 1.319-.163 4.873-1.972 15.72-2.572 16.87-.6 1.152-3.786 4.452-6.279 5.717 0 0-.9-.961-1.451-1.808-.698.83-4.311 3.74-4.805 3.74V18.816z"/><path fill="url(#a)" d="m36.991 20.046-.883 7.176-4.906.44.432 6.066s-2.987 2.492-7.659 2.492V20.487l13.02-.442z"/><path fill="#4ff7d1" d="m46.97 17.048-23.882 8.176v-7.847l21.54-5.47z"/><path fill="#4ff7d1" d="m46.972 17.046-6.58 2.21V3.342s6.58 7.19 6.58 13.704m-14.701-1.054 2.343-4.645 3.57 4.332m-15.096 1.698h5.295l1.068 14.353a25.7 25.7 0 0 1-6.358.798V17.377z"/><path fill="#1ebca1" d="M24.029 12.49c-18.386 0-15.107 7.649-15.107 7.649.163 4.872 1.973 15.72 2.572 16.87.6 1.152 3.785 4.451 6.28 5.717 0 0 .9-.962 1.45-1.809.697.83 4.31 3.741 4.805 3.741z"/><path fill="#1ebca1" d="M8.696 18.815c0 .785.225 1.319.225 1.319.164 4.873 1.972 15.72 2.573 16.87.6 1.152 3.784 4.452 6.278 5.717 0 0 .9-.961 1.45-1.808.698.83 4.312 3.74 4.806 3.74V18.816z"/><path fill="url(#b)" d="m11.01 20.046.882 7.176 4.906.44-.433 6.066s2.988 2.492 7.66 2.492V20.487l-13.02-.442z"/><path fill="#4ff7d1" d="m1.031 17.048 23.88 8.176v-7.847l-21.539-5.47z"/><path fill="#4ff7d1" d="m1.029 17.046 6.578 2.21V3.342s-6.58 7.19-6.58 13.704zm14.701-1.054-2.343-4.645-3.569 4.332m15.094 1.698h-5.295L18.55 31.73c2.087.533 4.221.798 6.357.798V17.377z"/><defs><linearGradient id="a" x1="36.991" x2="23.971" y1="-38.222" y2="-38.222" gradientUnits="userSpaceOnUse"><stop stop-color="#1d2b33"/><stop offset="1" stop-color="#121b24"/></linearGradient><linearGradient id="b" x1="11.01" x2="24.03" y1="-38.222" y2="-38.222" gradientUnits="userSpaceOnUse"><stop stop-color="#1d2b33"/><stop offset="1" stop-color="#121b24"/></linearGradient></defs></svg>