<svg xmlns="http://www.w3.org/2000/svg" width="598" height="235" fill="none" viewBox="0 0 598 235"><g filter="url(#a)"><path fill="#0a101d" stroke="#1f2937" d="M57.932.5h534a5.5 5.5 0 0 1 5.5 5.5v223a5.5 5.5 0 0 1-5.5 5.5h-534a5.5 5.5 0 0 1-5.5-5.5V6a5.5 5.5 0 0 1 5.5-5.5Z"/><path fill="#111827" d="M252.647 191.141h-55.626c-3.545 0-6.418 2.809-6.418 6.275v12.547c0 3.466 2.873 6.275 6.418 6.275h55.626c3.545 0 6.419-2.809 6.419-6.275v-12.547c0-3.466-2.874-6.275-6.419-6.275m-77.02 0h-87.72c-3.544 0-6.418 2.809-6.418 6.275v12.547c0 3.466 2.874 6.275 6.419 6.275h87.719c3.544 0 6.418-2.809 6.418-6.275v-12.547c0-3.466-2.874-6.275-6.418-6.275m258.876 0H274.042c-3.545 0-6.418 2.809-6.418 6.275v12.547c0 3.466 2.873 6.275 6.418 6.275h160.461c3.545 0 6.419-2.809 6.419-6.275v-12.547c0-3.466-2.874-6.275-6.419-6.275m134.788 0H455.899c-3.546 0-6.42 2.809-6.42 6.275v12.547c0 3.466 2.874 6.275 6.42 6.275h113.392c3.544 0 6.418-2.809 6.418-6.275v-12.547c0-3.466-2.874-6.275-6.418-6.275m-316.644-33.462h-55.626c-3.545 0-6.418 2.809-6.418 6.274v12.548c0 3.465 2.873 6.274 6.418 6.274h55.626c3.545 0 6.419-2.809 6.419-6.274v-12.548c0-3.465-2.874-6.274-6.419-6.274m-77.02 0h-87.72c-3.544 0-6.418 2.809-6.418 6.274v12.548c0 3.465 2.874 6.274 6.419 6.274h87.719c3.544 0 6.418-2.809 6.418-6.274v-12.548c0-3.465-2.874-6.274-6.418-6.274m258.876 0H274.042c-3.545 0-6.418 2.809-6.418 6.274v12.548c0 3.465 2.873 6.274 6.418 6.274h160.461c3.545 0 6.419-2.809 6.419-6.274v-12.548c0-3.465-2.874-6.274-6.419-6.274m134.788 0H455.899c-3.546 0-6.42 2.809-6.42 6.274v12.548c0 3.465 2.874 6.274 6.42 6.274h113.392c3.544 0 6.418-2.809 6.418-6.274v-12.548c0-3.465-2.874-6.274-6.418-6.274m-316.644-33.462h-55.626c-3.545 0-6.418 2.809-6.418 6.274v12.548c0 3.466 2.873 6.275 6.418 6.275h55.626c3.545 0 6.419-2.809 6.419-6.275v-12.548c0-3.465-2.874-6.274-6.419-6.274m-77.02 0h-87.72c-3.544 0-6.418 2.809-6.418 6.274v12.548c0 3.466 2.874 6.275 6.419 6.275h87.719c3.544 0 6.418-2.809 6.418-6.275v-12.548c0-3.465-2.874-6.274-6.418-6.274m258.876 0H274.042c-3.545 0-6.418 2.809-6.418 6.274v12.548c0 3.466 2.873 6.275 6.418 6.275h160.461c3.545 0 6.419-2.809 6.419-6.275v-12.548c0-3.465-2.874-6.274-6.419-6.274m134.788 0H455.899c-3.546 0-6.42 2.809-6.42 6.274v12.548c0 3.466 2.874 6.275 6.42 6.275h113.392c3.544 0 6.418-2.809 6.418-6.275v-12.548c0-3.465-2.874-6.274-6.418-6.274M252.647 90.755h-55.626c-3.545 0-6.418 2.809-6.418 6.274v12.549c0 3.464 2.873 6.274 6.418 6.274h55.626c3.545 0 6.419-2.81 6.419-6.274V97.029c0-3.465-2.874-6.274-6.419-6.274m-77.02 0h-87.72c-3.544 0-6.418 2.809-6.418 6.274v12.549c0 3.464 2.874 6.274 6.419 6.274h87.719c3.544 0 6.418-2.81 6.418-6.274V97.029c0-3.465-2.874-6.274-6.418-6.274m258.876 0H274.042c-3.545 0-6.418 2.809-6.418 6.274v12.549c0 3.464 2.873 6.274 6.418 6.274h160.461c3.545 0 6.419-2.81 6.419-6.274V97.029c0-3.465-2.874-6.274-6.419-6.274m134.788 0H455.899c-3.546 0-6.42 2.809-6.42 6.274v12.549c0 3.464 2.874 6.274 6.42 6.274h113.392c3.544 0 6.418-2.81 6.418-6.274V97.029c0-3.465-2.874-6.274-6.418-6.274"/><g filter="url(#b)"><rect width="343.946" height="103.783" x="26.145" y="82.498" fill="#030712" rx="7.747"/><rect width="174.113" height="30.588" x="42.638" y="99.927" fill="#111827" rx="7.747"/><path fill="#9ca3af" d="M59.988 116.226q0 1.213-.461 2.041a2.95 2.95 0 0 1-1.24 1.226q-.78.408-1.763.407-.975 0-1.763-.407a3 3 0 0 1-1.24-1.233q-.46-.827-.46-2.034t.46-2.04q.46-.84 1.24-1.254a3.7 3.7 0 0 1 1.763-.413q.976 0 1.762.413.786.414 1.24 1.247.462.834.461 2.047m-1.532 0q0-.853-.244-1.41-.245-.562-.678-.827a1.85 1.85 0 0 0-1.01-.271q-.583 0-1.017.271-.427.265-.671.827-.244.556-.244 1.41 0 .848.244 1.403.244.549.671.807.434.258 1.017.258.59 0 1.017-.258t.67-.807q.245-.555.245-1.403m6.42-2.257h.082v5.762h-1.505v-6.135l.305.305h-2.074v-1.22h3.063zm3.41.034q-.888 0-1.471.068-.576.06-1.091.251a4.8 4.8 0 0 0-1.065.576v-1.193h.387q.548-.61 1.125-.895.576-.291 1.43-.291.373 0 .685.067zm-6.602 4.514h5.626v1.22h-5.626zm13.178-9.15h1.505v10.37h-1.295l-.142-1.274h-.068zm-4.989 6.859q0-1.125.319-1.959.318-.833.935-1.288.624-.454 1.512-.454.732 0 1.26.292.537.284.875.773h.332v1.057q-.434-.461-.894-.664a2.3 2.3 0 0 0-.956-.204q-.603 0-1.017.271-.407.265-.617.814-.21.542-.21 1.362 0 .814.203 1.349.21.536.617.8t1.01.264q.502 0 .963-.196.461-.204.901-.664v1.057h-.325a3 3 0 0 1-.936.779q-.541.292-1.26.292-.882 0-1.491-.454-.604-.462-.916-1.281-.305-.828-.305-1.946m8.407-.027q0-1.186.447-2.013a2.95 2.95 0 0 1 1.261-1.247q.813-.42 1.905-.42 1.01 0 1.722.352.712.353 1.084 1.064.373.705.373 1.749v.644h-5.626v-.949h4.48l-.325.278v-.271q0-.834-.475-1.247-.474-.421-1.28-.421-.963 0-1.499.624-.535.617-.535 1.857 0 1.227.522 1.864.528.63 1.505.631.623 0 1.064-.258.447-.264.684-.8l1.458.224q-.244.684-.712 1.139-.468.453-1.105.677a4.1 4.1 0 0 1-1.396.224q-1.064 0-1.864-.42a3 3 0 0 1-1.247-1.254q-.44-.834-.44-2.027m11.816-2.23h.081v5.762h-1.504v-6.135l.305.305h-2.074v-1.22h3.063zm3.41.034q-.888 0-1.471.068-.576.06-1.091.251a4.8 4.8 0 0 0-1.065.576v-1.193h.387q.548-.61 1.125-.895.575-.291 1.43-.291.373 0 .685.067zm-6.602 4.514h5.626v1.22h-5.626zm8.06 2.779h7.186v.882h-7.185zm14.969-8.615v1.22h-6.508v-1.22zm-1.627 7.212q-1.092.007-1.722-.25a1.74 1.74 0 0 1-.922-.916q-.298-.657-.298-1.857v-6.304h1.505v6.264q0 .705.156 1.084a.94.94 0 0 0 .495.522q.338.149.948.149.733 0 1.627-.224v1.295q-.386.116-.847.176a7 7 0 0 1-.942.061m10.528-3.667q0 1.213-.461 2.041a2.95 2.95 0 0 1-1.24 1.226q-.78.408-1.763.407-.976 0-1.762-.407a3 3 0 0 1-1.24-1.233q-.462-.827-.461-2.034 0-1.206.461-2.04.46-.84 1.24-1.254a3.7 3.7 0 0 1 1.762-.413q.976 0 1.763.413.786.414 1.24 1.247.46.834.461 2.047m-1.532 0q0-.853-.244-1.41-.244-.562-.678-.827a1.85 1.85 0 0 0-1.01-.271q-.582 0-1.016.271-.428.265-.671.827-.244.556-.244 1.41 0 .848.244 1.403.243.549.671.807a1.95 1.95 0 0 0 1.016.258q.59 0 1.017-.258t.671-.807q.244-.555.244-1.403m9.444-3.545v1.22h-6.507v-1.22zm-1.627 7.212q-1.09.007-1.722-.25a1.74 1.74 0 0 1-.921-.916q-.299-.657-.299-1.857v-6.304h1.505v6.264q0 .705.156 1.084a.94.94 0 0 0 .495.522q.339.149.949.149.732 0 1.627-.224v1.295q-.386.116-.848.176a7 7 0 0 1-.942.061m6.868-7.374q.909 0 1.525.216.624.217.956.712.332.488.332 1.295v3.375q0 .252.068.373a.34.34 0 0 0 .23.163 1.6 1.6 0 0 0 .482-.007v1.091a3.6 3.6 0 0 1-.956.143q-.489 0-.766-.163a.92.92 0 0 1-.38-.44 1.9 1.9 0 0 1-.101-.651l-.082-.122v-3.681q0-.487-.176-.766a.88.88 0 0 0-.488-.379 2.3 2.3 0 0 0-.759-.109q-.447 0-.759.102a.98.98 0 0 0-.495.346q-.183.237-.183.637l-.007.284h-1.369v-.359q0-.956.705-1.505.711-.555 2.223-.555m1.918 4.189a7 7 0 0 0-.596-.082 5 5 0 0 0-.583-.034q-.752 0-1.274.129-.516.129-.793.4a.9.9 0 0 0-.272.685q0 .311.15.535a.93.93 0 0 0 .427.332q.277.115.664.115.508 0 .949-.189.447-.197.915-.563l.013.834h-.264q-.38.345-.678.549-.298.203-.725.339-.42.142-.929.142-.63 0-1.105-.224a1.7 1.7 0 0 1-.732-.657q-.25-.427-.25-1.017 0-.955.65-1.444.65-.494 1.654-.644 1.011-.155 2.352-.128zm3.52 1.809h6.331v1.22h-6.331zm2.413 1.22.007-9.584.305.42h-2.718v-1.206l3.728-.163.189.183-.006 10.35zm5.566 1.559h7.185v.882h-7.185zm12.04-8.777q.95 0 1.613.237.665.23 1.01.705.346.467.353 1.166l-1.363.101q-.06-.562-.481-.84-.42-.278-1.233-.278-.753 0-1.166.224-.414.224-.414.657 0 .25.156.42.163.17.488.299.326.128.956.277l.468.109q.983.21 1.538.44.556.231.861.617.305.387.305 1.01 0 .685-.366 1.186-.366.502-1.084.773t-1.756.271q-1.003 0-1.681-.21a2.3 2.3 0 0 1-1.085-.698q-.406-.481-.555-1.281l1.382-.17q.137.522.414.794.285.27.657.359t.943.088q.555 0 .921-.122.367-.129.529-.339a.76.76 0 0 0 .17-.481.59.59 0 0 0-.211-.468q-.21-.183-.637-.312-.42-.135-1.321-.332-.848-.176-1.397-.434-.549-.257-.84-.664-.292-.407-.292-1.01 0-.99.78-1.539.779-.555 2.338-.555m7.614 7.218v-6.269l.305.42h-2.718v-1.207l3.735-.162.183.183v7.035zm-2.413-1.22h6.331v1.22h-6.331zm2.894-7.402q-.312 0-.549-.115a.9.9 0 0 1-.373-.345 1 1 0 0 1-.135-.522q0-.449.291-.705.291-.265.766-.265t.766.265q.291.257.291.705 0 .454-.291.718t-.766.264m11.538 1.566v.895l-4.162 5.26-.264-.319h4.67v1.22h-6.202v-.901l4.162-5.26.346.325h-4.508v-1.22zm2.083 3.518q0-1.186.447-2.013a2.95 2.95 0 0 1 1.261-1.247q.813-.42 1.905-.42 1.01 0 1.721.352.712.353 1.085 1.064.373.705.373 1.749v.644h-5.626v-.949h4.48l-.325.278v-.271q0-.834-.475-1.247-.474-.421-1.281-.421-.963 0-1.498.624-.535.617-.535 1.857 0 1.227.522 1.864.529.63 1.504.631.624 0 1.065-.258.447-.264.684-.8l1.458.224q-.244.684-.712 1.139a3 3 0 0 1-1.105.677 4.1 4.1 0 0 1-1.396.224q-1.065 0-1.864-.42a3 3 0 0 1-1.248-1.254q-.44-.834-.44-2.027m22.289 1.447c-.264.264-.661.264-.9 0l-4.236-4.237a.58.58 0 0 1 0-.873.58.58 0 0 1 .874 0l3.786 3.786 3.813-3.813a.623.623 0 0 1 .873 0c.265.265.265.662 0 .9z"/><rect width="65.113" height="30.588" x="226.434" y="99.927" fill="#111827" rx="7.747"/><path fill="#9ca3af" d="M236.856 115.853q0-.996.332-1.748.333-.753.956-1.166.624-.414 1.464-.414.495 0 .902.143.406.135.711.372.312.238.536.55h.332v1.057q-.434-.461-.895-.664a2.3 2.3 0 0 0-.956-.204q-.576 0-.996.244-.414.244-.63.712-.217.46-.217 1.118 0 .645.21 1.105.21.455.623.698.414.238.997.238.501 0 .962-.197.462-.203.902-.664v1.057h-.326a3 3 0 0 1-.942.78q-.549.291-1.267.291-.834 0-1.444-.413-.61-.414-.935-1.159-.32-.746-.319-1.736m6.494 3.478q0 1.111-.36 1.803a2.17 2.17 0 0 1-1.071 1.016q-.711.326-1.789.326-.963 0-1.607-.237-.636-.238-.989-.658a2.4 2.4 0 0 1-.481-.99l1.369-.298q.196.57.61.841.42.271 1.098.271.813 0 1.261-.441.453-.433.454-1.471v-5.578h.081l.129-1.234h1.295zm8.345-6.65v1.22h-6.507v-1.22zm-1.627 7.212q-1.09.007-1.721-.25a1.74 1.74 0 0 1-.922-.916q-.298-.657-.298-1.857v-6.304h1.504v6.264q0 .705.156 1.084a.94.94 0 0 0 .495.522q.339.149.949.149.732 0 1.627-.224v1.295q-.387.116-.847.176a7 7 0 0 1-.943.061m3.601-3.694q0-1.186.448-2.013a2.94 2.94 0 0 1 1.26-1.247q.815-.42 1.905-.42 1.01 0 1.722.352a2.4 2.4 0 0 1 1.084 1.064q.373.705.373 1.749v.644h-5.626v-.949h4.481l-.326.278v-.271q0-.834-.474-1.247-.476-.421-1.281-.421-.963 0-1.498.624-.536.617-.536 1.857 0 1.227.522 1.864.529.63 1.505.631.623 0 1.064-.258a1.7 1.7 0 0 0 .685-.8l1.457.224q-.244.684-.712 1.139-.467.453-1.105.677-.63.225-1.396.224-1.064 0-1.864-.42a3 3 0 0 1-1.247-1.254q-.441-.834-.441-2.027m22.576 1.447c-.264.264-.662.264-.9 0l-4.236-4.237a.58.58 0 0 1 0-.873.58.58 0 0 1 .873 0l3.787 3.786 3.813-3.813a.623.623 0 0 1 .873 0c.265.265.265.662 0 .9z"/><rect width="53.367" height="30.588" x="301.23" y="99.927" fill="#111827" rx="7.747"/><path fill="#4b5563" d="M312.236 111.407q.366 0 .786-.197.427-.203.766-.562t.441-.807h1.403q-.02.773-.529 1.627a4.6 4.6 0 0 1-1.281 1.41q-.78.562-1.586.562zm1.993 8.33v-9.896h2.006v9.896zm-2.203-1.653h6.385v1.653h-6.385zm15.144-3.295q0 1.708-.42 2.854-.42 1.138-1.234 1.701-.813.563-1.986.563t-1.986-.563q-.813-.562-1.24-1.701-.421-1.146-.421-2.854 0-1.782.421-2.914.42-1.14 1.226-1.675.807-.535 2-.535 1.186 0 1.993.535t1.227 1.675q.42 1.132.42 2.914m-2.061 0q0-1.294-.156-2.026-.155-.732-.494-1.044-.34-.32-.929-.319-.59 0-.935.319-.339.312-.495 1.044t-.156 2.026q0 1.288.156 2.02t.495 1.051q.345.312.935.312t.929-.312q.34-.32.494-1.051.156-.732.156-2.02m-1.586 1.098q.386 0 .59-.271.203-.278.203-.779a1.5 1.5 0 0 0-.095-.57.72.72 0 0 0-.264-.359.75.75 0 0 0-.434-.122q-.386 0-.589.271-.198.272-.197.78 0 .332.088.569a.83.83 0 0 0 .264.359.74.74 0 0 0 .434.122m12.054-1.098q0 1.708-.421 2.854-.42 1.138-1.233 1.701-.815.563-1.986.563-1.173 0-1.986-.563-.814-.562-1.241-1.701-.42-1.146-.42-2.854 0-1.782.42-2.914.42-1.14 1.227-1.675t2-.535q1.186 0 1.992.535.807.535 1.227 1.675.421 1.132.421 2.914m-2.061 0q0-1.294-.156-2.026t-.495-1.044q-.339-.32-.928-.319-.59 0-.936.319-.339.312-.495 1.044t-.155 2.026q0 1.288.155 2.02.156.732.495 1.051.346.312.936.312t.928-.312q.339-.32.495-1.051.156-.732.156-2.02m-1.586 1.098q.386 0 .59-.271.203-.278.203-.779a1.5 1.5 0 0 0-.095-.57.73.73 0 0 0-.264-.359.75.75 0 0 0-.434-.122q-.387 0-.59.271-.196.272-.196.78 0 .332.088.569a.83.83 0 0 0 .264.359.74.74 0 0 0 .434.122m12.053-1.098q0 1.708-.42 2.854-.42 1.138-1.234 1.701-.813.563-1.986.563-1.171 0-1.986-.563-.813-.562-1.24-1.701-.42-1.146-.42-2.854 0-1.782.42-2.914.42-1.14 1.227-1.675.806-.535 1.999-.535 1.186 0 1.993.535t1.227 1.675q.42 1.132.42 2.914m-2.06 0q0-1.294-.156-2.026t-.495-1.044q-.34-.32-.929-.319-.59 0-.935.319-.339.312-.495 1.044t-.156 2.026q0 1.288.156 2.02t.495 1.051q.345.312.935.312t.929-.312q.339-.32.495-1.051.156-.732.156-2.02m-1.586 1.098q.386 0 .589-.271.204-.278.204-.779a1.5 1.5 0 0 0-.095-.57.73.73 0 0 0-.265-.359.74.74 0 0 0-.433-.122q-.387 0-.59.271-.197.272-.197.78 0 .332.088.569a.84.84 0 0 0 .265.359.74.74 0 0 0 .434.122"/><rect width="124.113" height="30.588" x="41.638" y="138.262" fill="#111827" rx="7.747"/><path fill="#9ca3af" d="M58.9 155.89q-.19.792-.672 1.321-.474.522-1.152.773a4.3 4.3 0 0 1-1.491.251q-1.065 0-1.857-.42a3 3 0 0 1-1.234-1.254q-.434-.834-.434-2.027 0-1.22.454-2.04.46-.828 1.268-1.234.813-.407 1.877-.407.896 0 1.593.285.706.278 1.132.847.434.57.515 1.403l-1.47.129q-.116-.732-.59-1.098-.468-.366-1.22-.366-.997 0-1.512.637-.508.631-.508 1.844 0 .834.237 1.39t.685.833q.454.271 1.077.271.72 0 1.18-.339.468-.345.67-1.009zm4.976-3.586h.082v5.761h-1.505v-6.134l.305.305h-2.074v-1.22h3.063zm3.41.034q-.888 0-1.471.068-.576.06-1.091.25a5 5 0 0 0-1.065.577v-1.193h.387q.548-.61 1.125-.895.576-.291 1.43-.292.373 0 .685.068zm-6.602 4.514h5.626v1.22h-5.626zm8.19-2.318q0-1.186.447-2.013a2.95 2.95 0 0 1 1.26-1.247q.815-.421 1.905-.421 1.01 0 1.722.353t1.084 1.064q.373.705.373 1.749v.644H70.04v-.949h4.48l-.325.278v-.271q0-.834-.474-1.248-.474-.42-1.281-.42-.963 0-1.498.624-.536.617-.536 1.857 0 1.227.522 1.864.529.63 1.505.63.623 0 1.064-.257a1.7 1.7 0 0 0 .685-.8l1.457.224q-.244.685-.712 1.138-.467.455-1.105.678-.63.224-1.396.224-1.064 0-1.864-.42a3 3 0 0 1-1.247-1.254q-.44-.834-.44-2.027m11.673-3.681q.909 0 1.525.217.624.217.956.712.332.488.332 1.295v3.375q0 .251.068.373a.34.34 0 0 0 .23.163q.17.033.482-.007v1.091a3.6 3.6 0 0 1-.956.143q-.487 0-.766-.163a.9.9 0 0 1-.38-.441 1.9 1.9 0 0 1-.101-.65l-.082-.122v-3.681q0-.488-.176-.766a.9.9 0 0 0-.488-.38 2.3 2.3 0 0 0-.759-.108q-.447 0-.76.102a1 1 0 0 0-.494.345q-.183.238-.183.638l-.007.284H77.62v-.359q0-.956.705-1.505.712-.555 2.223-.556m1.918 4.189a7 7 0 0 0-.596-.081 5 5 0 0 0-.583-.034q-.752 0-1.274.129-.516.129-.793.4a.9.9 0 0 0-.271.684q0 .312.149.536.148.217.427.332.277.115.664.115.508 0 .949-.189.447-.197.915-.563l.013.834h-.264q-.38.345-.678.549a2.8 2.8 0 0 1-.725.339q-.42.141-.929.142-.63 0-1.104-.224a1.7 1.7 0 0 1-.733-.657q-.25-.427-.25-1.017 0-.955.65-1.444.651-.495 1.654-.644 1.011-.156 2.352-.128zm9.654-4.026v1.22h-6.507v-1.22zm-1.626 7.212q-1.092.007-1.722-.251a1.74 1.74 0 0 1-.922-.915q-.298-.657-.298-1.857v-6.304h1.504v6.263q0 .705.156 1.085a.94.94 0 0 0 .495.522q.34.149.95.149a6.8 6.8 0 0 0 1.626-.224v1.295q-.387.115-.847.176a7 7 0 0 1-.942.061m3.6-3.694q0-1.186.448-2.013a2.95 2.95 0 0 1 1.26-1.247q.814-.421 1.905-.421 1.01 0 1.722.353t1.084 1.064q.373.705.373 1.749v.644H95.26v-.949h4.48l-.325.278v-.271q0-.834-.474-1.248-.474-.42-1.281-.42-.963 0-1.498.624-.536.617-.536 1.857 0 1.227.522 1.864.529.63 1.505.63.623 0 1.064-.257.448-.264.685-.8l1.457.224q-.244.685-.712 1.138-.467.455-1.105.678-.63.224-1.396.224-1.064 0-1.864-.42a3 3 0 0 1-1.247-1.254q-.44-.834-.44-2.027m13.396-6.832h1.505v10.37h-1.295l-.142-1.274h-.068zm-4.989 6.859q0-1.125.319-1.959.318-.834.935-1.288.624-.454 1.512-.454.732 0 1.26.292.536.284.875.772h.332v1.058q-.434-.461-.895-.664a2.3 2.3 0 0 0-.956-.204q-.603 0-1.016.271-.408.265-.617.814-.21.541-.21 1.362 0 .813.203 1.349.21.536.617.8t1.01.264q.501 0 .962-.196.462-.203.902-.665v1.058h-.326a3 3 0 0 1-.935.779q-.542.292-1.261.292-.88 0-1.491-.454-.603-.462-.915-1.282-.305-.826-.305-1.945m8.278 5.07h7.185v.881h-7.185zm11.802-8.778q.909 0 1.526.217.623.217.955.712.332.488.332 1.295v3.375q0 .251.068.373a.34.34 0 0 0 .231.163q.17.033.481-.007v1.091a3.6 3.6 0 0 1-.956.143q-.488 0-.766-.163a.9.9 0 0 1-.379-.441 1.8 1.8 0 0 1-.102-.65l-.081-.122v-3.681q0-.488-.177-.766a.9.9 0 0 0-.488-.38 2.3 2.3 0 0 0-.759-.108q-.447 0-.759.102a1 1 0 0 0-.495.345q-.183.238-.183.638l-.007.284h-1.369v-.359q0-.956.705-1.505.713-.555 2.223-.556m1.919 4.189a7 7 0 0 0-.597-.081 5 5 0 0 0-.583-.034q-.752 0-1.274.129-.516.129-.793.4a.9.9 0 0 0-.271.684.94.94 0 0 0 .149.536.94.94 0 0 0 .427.332q.278.115.664.115.508 0 .949-.189.447-.197.915-.563l.014.834h-.265q-.38.345-.677.549a2.8 2.8 0 0 1-.726.339 2.9 2.9 0 0 1-.928.142q-.631 0-1.105-.224a1.7 1.7 0 0 1-.732-.657q-.25-.427-.251-1.017 0-.955.651-1.444.65-.495 1.654-.644 1.01-.156 2.352-.128zm9.654-4.026v1.22h-6.508v-1.22zm-1.627 7.212q-1.092.007-1.722-.251a1.74 1.74 0 0 1-.922-.915q-.298-.657-.298-1.857v-6.304h1.505v6.263q0 .705.156 1.085a.94.94 0 0 0 .494.522q.34.149.949.149.733 0 1.627-.224v1.295q-.386.115-.847.176a7 7 0 0 1-.942.061m17.921-2.247c-.264.264-.661.264-.9 0l-4.236-4.237a.58.58 0 0 1 0-.874.58.58 0 0 1 .874 0l3.786 3.787 3.813-3.813a.623.623 0 0 1 .873 0c.265.265.265.662 0 .9z"/><rect width="65.113" height="30.588" x="175.434" y="138.262" fill="#111827" rx="7.747"/><path fill="#9ca3af" d="M186.154 156.852h6.331v1.22h-6.331zm2.413 1.22.007-9.584.305.42h-2.718v-1.206l3.728-.163.19.183-.007 10.35zm12.128-7.056v1.22h-6.507v-1.22zm-1.627 7.212q-1.09.007-1.721-.251a1.74 1.74 0 0 1-.922-.915q-.298-.657-.298-1.857v-6.304h1.504v6.263q0 .705.156 1.085a.94.94 0 0 0 .495.522q.339.149.949.149.732 0 1.627-.224v1.295q-.387.115-.847.176a7 7 0 0 1-.943.061m3.601-3.694q0-1.186.448-2.013a2.94 2.94 0 0 1 1.26-1.247q.814-.421 1.905-.421 1.01 0 1.722.353a2.4 2.4 0 0 1 1.084 1.064q.373.705.373 1.749v.644h-5.626v-.949h4.481l-.326.278v-.271q0-.834-.474-1.248-.475-.42-1.281-.42-.963 0-1.498.624-.536.617-.536 1.857 0 1.227.522 1.864.529.63 1.505.63.623 0 1.064-.257a1.7 1.7 0 0 0 .685-.8l1.457.224q-.244.685-.712 1.138a3 3 0 0 1-1.105.678 4.2 4.2 0 0 1-1.396.224q-1.064 0-1.864-.42a3 3 0 0 1-1.247-1.254q-.441-.834-.441-2.027m22.576 1.447c-.264.264-.662.264-.9 0l-4.236-4.237a.58.58 0 0 1 0-.874.58.58 0 0 1 .873 0l3.787 3.787 3.813-3.813a.623.623 0 0 1 .873 0c.265.265.265.662 0 .9z"/><rect width="104.366" height="30.588" x="250.23" y="138.262" fill="#111827" rx="7.747"/><path fill="#4b5563" d="M263.927 148.02q.996 0 1.728.292a2.32 2.32 0 0 1 1.132.915q.407.617.407 1.559 0 .915-.346 1.579a3.6 3.6 0 0 1-.847 1.091q-.501.427-1.288.915a17 17 0 0 1-.359.217q-.19.123-.353.224a7.5 7.5 0 0 0-.888.617 1.5 1.5 0 0 0-.413.542q-.13.305-.122.78l-.298-.333h5.124v1.654h-6.69v-1.654q0-.765.359-1.362.366-.597.915-1.03.55-.441 1.525-1.037.61-.373.936-.631a2.2 2.2 0 0 0 .549-.63q.223-.373.223-.902 0-.636-.311-.935-.306-.298-.963-.298-.44 0-.739.149-.291.142-.467.488-.177.345-.244.928l-1.817-.183q-.035-.955.339-1.613a2.36 2.36 0 0 1 1.112-1.003q.745-.339 1.796-.339m12.243 5.104q0 1.708-.42 2.854-.42 1.139-1.234 1.701-.813.563-1.986.563t-1.986-.563-1.24-1.701q-.421-1.146-.421-2.854 0-1.782.421-2.915.42-1.139 1.226-1.674.807-.535 2-.535 1.186 0 1.993.535t1.227 1.674q.42 1.133.42 2.915m-2.061 0q0-1.295-.156-2.027-.155-.732-.494-1.043-.34-.32-.929-.319-.59 0-.935.319-.339.31-.495 1.043t-.156 2.027q0 1.288.156 2.02t.495 1.051q.345.312.935.311.59 0 .929-.311.34-.32.494-1.051.156-.732.156-2.02m-1.586 1.098q.386 0 .59-.271.203-.278.203-.779a1.5 1.5 0 0 0-.095-.57.72.72 0 0 0-.264-.359.75.75 0 0 0-.434-.122q-.386 0-.589.271-.198.272-.197.78 0 .332.088.569a.84.84 0 0 0 .264.359.74.74 0 0 0 .434.122m8.217-6.202q.996 0 1.729.292.732.291 1.132.915.406.617.406 1.559 0 .915-.345 1.579a3.6 3.6 0 0 1-.848 1.091q-.5.427-1.288.915a17 17 0 0 1-.359.217q-.19.123-.352.224a7 7 0 0 0-.888.617 1.5 1.5 0 0 0-.414.542q-.128.305-.122.78l-.298-.333h5.124v1.654h-6.69v-1.654q0-.765.359-1.362.366-.597.916-1.03.549-.441 1.525-1.037.61-.373.935-.631a2.2 2.2 0 0 0 .549-.63q.224-.373.224-.902 0-.636-.312-.935-.304-.298-.963-.298-.44 0-.738.149a1.04 1.04 0 0 0-.468.488q-.177.345-.244.928l-1.817-.183q-.033-.955.339-1.613a2.36 2.36 0 0 1 1.112-1.003q.746-.339 1.796-.339m12.243 5.104q0 1.708-.42 2.854-.42 1.139-1.234 1.701-.813.563-1.986.563-1.171 0-1.986-.563-.813-.562-1.24-1.701-.42-1.146-.42-2.854 0-1.782.42-2.915.42-1.139 1.227-1.674.806-.535 1.999-.535 1.186 0 1.993.535t1.227 1.674q.42 1.133.42 2.915m-2.06 0q0-1.295-.156-2.027t-.495-1.043q-.34-.32-.929-.319-.59 0-.935.319-.339.31-.495 1.043t-.156 2.027q0 1.288.156 2.02t.495 1.051q.345.312.935.311.59 0 .929-.311.339-.32.495-1.051.156-.732.156-2.02m-1.586 1.098q.386 0 .589-.271.204-.278.204-.779a1.5 1.5 0 0 0-.095-.57.73.73 0 0 0-.265-.359.74.74 0 0 0-.433-.122q-.387 0-.59.271-.197.272-.197.78 0 .332.088.569a.85.85 0 0 0 .265.359.74.74 0 0 0 .434.122m6.237-1.505h4.338v1.654h-4.338zm7.695-2.975q.366 0 .786-.197.427-.203.766-.562t.441-.807h1.403q-.02.772-.529 1.627a4.6 4.6 0 0 1-1.281 1.41q-.78.562-1.586.562zm1.993 8.33v-9.896h2.006v9.896zm-2.203-1.654h6.385v1.654h-6.385zm11.308-8.398q.996 0 1.728.292.732.291 1.132.915.407.617.407 1.559 0 .915-.346 1.579a3.6 3.6 0 0 1-.847 1.091q-.502.427-1.288.915-.177.11-.359.217-.19.123-.353.224a7.5 7.5 0 0 0-.888.617 1.5 1.5 0 0 0-.413.542q-.13.305-.122.78l-.298-.333h5.124v1.654h-6.69v-1.654q0-.765.359-1.362.366-.597.915-1.03.549-.441 1.525-1.037.61-.373.936-.631a2.2 2.2 0 0 0 .549-.63q.223-.373.223-.902 0-.636-.311-.935-.306-.298-.963-.298-.44 0-.739.149-.291.142-.468.488-.175.345-.244.928l-1.816-.183q-.035-.955.339-1.613a2.36 2.36 0 0 1 1.111-1.003q.746-.339 1.797-.339m6.427 4.697h4.338v1.654h-4.338zm14.222.407q0 1.708-.42 2.854-.42 1.139-1.233 1.701-.815.563-1.986.563-1.173 0-1.987-.563-.813-.562-1.24-1.701-.42-1.146-.42-2.854 0-1.782.42-2.915.42-1.139 1.227-1.674t2-.535q1.186 0 1.992.535.807.535 1.227 1.674.42 1.133.42 2.915m-2.06 0q0-1.295-.156-2.027t-.495-1.043q-.339-.32-.928-.319-.59 0-.936.319-.339.31-.495 1.043t-.156 2.027q0 1.288.156 2.02t.495 1.051q.346.312.936.311.59 0 .928-.311.339-.32.495-1.051.156-.732.156-2.02m-1.586 1.098q.386 0 .589-.271.204-.278.204-.779a1.5 1.5 0 0 0-.095-.57.73.73 0 0 0-.264-.359.75.75 0 0 0-.434-.122q-.386 0-.59.271-.197.272-.197.78 0 .332.089.569a.84.84 0 0 0 .264.359.74.74 0 0 0 .434.122m5.526-4.48q.366 0 .786-.197.427-.203.766-.562.34-.36.44-.807h1.404q-.02.772-.529 1.627a4.6 4.6 0 0 1-1.281 1.41q-.78.562-1.586.562zm1.992 8.33v-9.896h2.007v9.896zm-2.202-1.654h6.385v1.654h-6.385z"/></g><rect width="33.367" height="29" x="85.362" y="40.176" fill="#1f2937" rx="7.747"/><path fill="#9ca3af" d="m105.266 52.36-.45-.45a4.283 4.283 0 0 0-6.01 0 4.283 4.283 0 0 0 0 6.01 4.283 4.283 0 0 0 6.01 0c.318-.343.847-.343 1.192 0 .317.318.317.848 0 1.192a5.96 5.96 0 0 1-8.394 0 5.96 5.96 0 0 1 0-8.393 5.96 5.96 0 0 1 8.394 0l.476.476V49.82c0-.45.371-.848.848-.848.45 0 .847.397.847.848v3.389a.853.853 0 0 1-.847.847h-3.39a.837.837 0 0 1-.847-.847c0-.45.371-.848.847-.848z"/><rect width="97.796" height="28.588" x="126.476" y="40.176" fill="#6366f1" rx="7.747"/><path fill="#f9fafb" d="M141.906 57.986v-8.76h1.572v8.76zm4.818-3.48h-3.882v-1.254h3.882zm-4.002-3.978v-1.302h4.752v1.302zm8.677 7.458v-5.478l.27.384h-2.358v-1.236l3.432-.144.18.174v6.3zm-2.088-1.242h5.694v1.242h-5.694zm2.592-6.306q-.306 0-.54-.114a.9.9 0 0 1-.366-.336 1 1 0 0 1-.126-.51q0-.438.282-.69.288-.258.75-.258.468 0 .75.258.288.252.288.69t-.288.702q-.282.258-.75.258m4.85 6.306h5.7v1.242h-5.7zm2.088 1.242v-8.334l.27.39h-2.352v-1.236l3.432-.15.18.18-.006 9.15zm10.831-6.33v1.242h-5.76v-1.242zm-1.446 6.492q-1.002 0-1.572-.228a1.53 1.53 0 0 1-.834-.822q-.264-.588-.264-1.692V49.85h1.524v5.544q0 .582.126.888a.77.77 0 0 0 .414.426q.282.12.792.12.612 0 1.404-.192v1.302q-.348.102-.75.156a6 6 0 0 1-.84.054m3.134-3.336q0-1.074.402-1.812a2.65 2.65 0 0 1 1.14-1.116q.732-.372 1.71-.372.912 0 1.554.324.642.318.972.96.336.642.336 1.602v.6h-4.92v-.93h3.702l-.27.24v-.24q0-.672-.384-1.014-.378-.348-1.038-.348-.78 0-1.218.516t-.438 1.59q0 1.038.42 1.578.426.54 1.224.54.504 0 .864-.21.366-.216.558-.648l1.482.216a2.6 2.6 0 0 1-.66 1.05 2.7 2.7 0 0 1-1.008.6q-.57.192-1.236.192-.954 0-1.674-.378a2.66 2.66 0 0 1-1.122-1.122q-.396-.744-.396-1.818m10.603-1.992h.09v5.16h-1.53v-5.352l.27.27h-1.764v-1.242h2.826zm2.982.21q-.762 0-1.272.048t-.966.198q-.45.144-.924.432v-1.116h.354q.462-.558.954-.816.498-.258 1.236-.258.342 0 .618.06zm-5.916 3.714h5.01v1.242h-5.01zm10.381-5.232q.864 0 1.464.216.6.21.906.636t.288 1.044l-1.38.108q-.042-.462-.378-.684-.336-.228-1.002-.228-.606 0-.936.18-.33.174-.33.516 0 .21.138.354.144.138.42.24t.834.24l.396.096q.846.192 1.326.396.48.198.762.552.282.348.282.924 0 .624-.336 1.08t-1.002.702q-.66.246-1.608.246-.894 0-1.494-.198a2.04 2.04 0 0 1-.948-.624q-.354-.432-.48-1.134l1.398-.162q.102.408.318.63t.516.306q.306.078.768.078t.756-.096q.3-.102.438-.27a.6.6 0 0 0 .138-.378q0-.24-.186-.39a1.6 1.6 0 0 0-.54-.258 17 17 0 0 0-1.134-.288 5.5 5.5 0 0 1-1.212-.39 1.9 1.9 0 0 1-.744-.606q-.264-.378-.264-.93 0-.906.708-1.404.714-.504 2.118-.504m15.853-2.43q.858 0 1.488.258t.972.792q.348.534.348 1.35 0 .81-.3 1.386-.294.57-.738.936-.444.36-1.11.756-.156.09-.306.18l-.372.222q-.588.366-.894.654t-.438.636-.12.852l-.258-.264h4.8v1.146h-5.832V56.84q0-.684.288-1.23.294-.552.804-.99.51-.444 1.392-.96.606-.354.942-.606t.558-.63.222-.918q0-.672-.354-.99-.354-.324-1.056-.324-.462 0-.78.144a1.13 1.13 0 0 0-.504.468q-.186.324-.246.858l-1.278-.12q.006-.834.354-1.38.348-.552.966-.816t1.452-.264"/><rect width="89.796" height="28.588" x="232.019" y="40.176" fill="#1f2937" rx="7.747"/><path fill="#9ca3af" d="M247.395 57.986v-8.76h1.77v8.76zm4.89-3.354h-3.852v-1.41h3.852zm-4.002-3.942v-1.464h4.746v1.464zm8.557 7.296v-5.412l.27.402h-2.304v-1.398l3.558-.156.204.192v6.372zm-2.034-1.404h5.79v1.404h-5.79zm2.628-6.066q-.336 0-.594-.126a1 1 0 0 1-.402-.372 1.05 1.05 0 0 1-.144-.552q0-.474.312-.756t.828-.282q.51 0 .822.282t.312.756q0 .48-.312.768-.312.282-.822.282m4.52 4.248q0-1.098.414-1.842.42-.75 1.164-1.116.75-.372 1.74-.372.924 0 1.578.324t.99.99q.342.66.342 1.65v.624h-4.86v-1.008h3.432l-.252.222v-.234q0-.612-.342-.924-.342-.318-.942-.318-.714 0-1.122.48-.402.48-.402 1.524 0 .996.384 1.518.384.516 1.122.516.45 0 .78-.192t.516-.588l1.674.234a2.6 2.6 0 0 1-.684 1.086q-.456.42-1.044.606a4 4 0 0 1-1.248.186q-.966 0-1.698-.378a2.7 2.7 0 0 1-1.134-1.14q-.408-.756-.408-1.848m7.735 1.818h5.796v1.404h-5.796zm2.034 1.404.006-8.178.27.396h-2.304v-1.398l3.558-.156.198.192v9.144zm9.452-9.18h1.722v9.18h-1.506l-.138-1.152h-.078zm-4.338 6q0-.99.258-1.746.264-.756.804-1.188.546-.432 1.362-.432.648 0 1.11.258t.714.666h.348v.96a2.4 2.4 0 0 0-.69-.348 2.4 2.4 0 0 0-.714-.114q-.492 0-.81.21-.318.204-.48.636-.162.426-.162 1.098t.156 1.092q.162.414.48.618.318.198.81.198a2.4 2.4 0 0 0 1.41-.462v.966h-.342a2.5 2.5 0 0 1-.78.666q-.462.258-1.098.258-.804 0-1.332-.426t-.786-1.17q-.258-.75-.258-1.74m10.681-3.372q.888 0 1.5.222.612.216.912.648.306.426.276 1.05l-1.554.12q-.042-.42-.336-.624-.294-.21-.906-.21-.552 0-.852.162-.294.156-.294.456 0 .198.138.33.144.126.408.222.27.09.822.234.198.042.384.09.816.204 1.284.402.474.192.768.558.294.36.294.96 0 .648-.354 1.116-.348.462-1.032.714-.684.246-1.668.246-.894 0-1.494-.198a2 2 0 0 1-.942-.636q-.342-.432-.468-1.14l1.572-.168q.09.36.27.564.18.198.456.282t.702.084.696-.09q.276-.09.396-.234a.5.5 0 0 0 .126-.336.43.43 0 0 0-.186-.36 1.5 1.5 0 0 0-.51-.24 19 19 0 0 0-1.092-.282 5.4 5.4 0 0 1-1.182-.402 2 2 0 0 1-.75-.624q-.27-.39-.27-.96 0-.936.726-1.446.732-.51 2.16-.51m16.266 6.552v-7.614l.372.06-3.174 4.464-.312-.282h3.552l.264-.06h1.608v1.14h-6.234v-1.14l3.834-5.328h1.422v8.76z"/><rect width="149.796" height="28.588" x="329.562" y="40.176" fill="#1f2937" rx="7.747"/><path fill="#9ca3af" d="M349.306 51.818q-.054-.498-.222-.786a.96.96 0 0 0-.456-.42q-.288-.132-.726-.132-.636 0-.948.246-.312.24-.312.684 0 .366.198.6.204.228.534.384.33.15.942.348.93.318 1.5.63t.9.804.33 1.242q0 .858-.42 1.47t-1.17.93q-.744.318-1.71.318-.936 0-1.614-.276a2.4 2.4 0 0 1-1.08-.864q-.402-.588-.486-1.506l1.692-.252q.12.744.498 1.098t1.11.354q.702 0 1.02-.282a.95.95 0 0 0 .318-.744q0-.33-.18-.546-.174-.216-.534-.39t-1.104-.444a7 7 0 0 1-1.302-.606 2.7 2.7 0 0 1-.864-.858q-.324-.522-.324-1.248 0-.798.366-1.35.366-.558 1.062-.846t1.686-.288q1.404 0 2.172.642.768.636.78 1.92zm3.073 6.168v-9.18h1.722v9.18zm4.014 0V53.72q0-.342-.102-.546a.57.57 0 0 0-.282-.288 1 1 0 0 0-.438-.084q-.474 0-.9.246a3.4 3.4 0 0 0-.822.684v-1.194h.444q.342-.378.648-.612t.672-.36a2.4 2.4 0 0 1 .828-.132q.558 0 .93.192t.558.6q.186.402.186 1.05v4.71zm9.488-3.174q0 1.122-.426 1.872-.42.744-1.14 1.098-.72.348-1.626.348t-1.626-.348a2.67 2.67 0 0 1-1.14-1.098q-.426-.75-.426-1.872 0-1.128.426-1.884a2.7 2.7 0 0 1 1.146-1.128 3.5 3.5 0 0 1 1.62-.366q.9 0 1.62.366.726.366 1.146 1.128.426.756.426 1.884m-1.74-.006q0-.738-.186-1.188-.186-.456-.51-.654a1.37 1.37 0 0 0-.756-.204 1.4 1.4 0 0 0-.762.204q-.324.198-.51.654-.18.45-.18 1.188 0 .732.18 1.176.186.444.504.63.324.186.768.186t.762-.186.504-.63.186-1.176m4.153-3.228.768 3.84h.084l1.026-3.12h1.044l.87 3.12h.108l.786-3.84h1.584l-1.464 6.408h-1.392l-1.08-3.564h-.072l-1.152 3.564h-1.296l-1.452-6.408zm8.924 6.408v-5.412l.27.402h-1.806v-1.398l3.06-.156.198.192v6.372zm-1.536-1.404h4.782v1.404h-4.782zm2.142-6.006q-.336 0-.594-.126a1 1 0 0 1-.402-.372 1.05 1.05 0 0 1-.144-.552q0-.474.312-.756t.828-.282q.51 0 .822.282t.312.756q0 .48-.312.768-.312.282-.822.282m6.043 7.41h-1.722v-6.408h1.506l.114 1.158h.102zm2.292 0V53.72q0-.342-.102-.546a.57.57 0 0 0-.282-.288 1 1 0 0 0-.438-.084q-.48 0-.906.246-.42.246-.822.684v-1.194h.348q.504-.552 1.026-.828a2.6 2.6 0 0 1 1.218-.276q.558 0 .93.192t.558.6q.192.402.192 1.05v4.71zm3.103-3.57q0-.876.282-1.548a2.36 2.36 0 0 1 .822-1.05q.54-.378 1.296-.378.438 0 .798.126.36.12.624.33.264.204.426.468h.348v.96a2.4 2.4 0 0 0-.69-.348 2.4 2.4 0 0 0-.714-.114q-.462 0-.786.18t-.498.528q-.168.348-.168.846 0 .492.168.834.168.336.492.51t.786.174a2.4 2.4 0 0 0 1.41-.462v.966h-.342a2.4 2.4 0 0 1-.792.666q-.474.258-1.11.258-.738 0-1.272-.372a2.3 2.3 0 0 1-.804-1.032q-.276-.666-.276-1.542m6.06 3.198q0 .954-.33 1.548a1.95 1.95 0 0 1-.984.882q-.654.288-1.668.288-.924 0-1.524-.222-.594-.216-.906-.6a2.3 2.3 0 0 1-.438-.906l1.572-.318q.18.438.474.654.3.216.822.216.6 0 .93-.318.33-.312.33-1.032v-5.124h.102l.114-1.104h1.506zm15.781-8.388v1.302h-4.02l.366-.444-.378 3-.144-.066a3 3 0 0 1 .858-.48 3.3 3.3 0 0 1 1.104-.174q.834 0 1.428.33.594.324.906.954t.312 1.524q0 .984-.378 1.644a2.35 2.35 0 0 1-1.086.978q-.702.324-1.692.324-.912 0-1.572-.282-.66-.288-1.02-.864-.36-.582-.372-1.44l1.488-.144q.036.474.234.804.198.324.528.492.33.162.786.162.48 0 .822-.18t.522-.558q.186-.378.186-.966 0-.564-.18-.954a1.3 1.3 0 0 0-.516-.588 1.5 1.5 0 0 0-.786-.198q-.492 0-.876.204a2.2 2.2 0 0 0-.66.516l-1.35-.204.552-4.692zm15.459 5.622q0 1.098-.414 1.836t-1.122 1.092q-.702.354-1.59.354a3.5 3.5 0 0 1-1.596-.354 2.6 2.6 0 0 1-1.116-1.092q-.414-.744-.414-1.836 0-1.104.414-1.848.414-.75 1.122-1.116a3.4 3.4 0 0 1 1.59-.372q.882 0 1.59.372A2.67 2.67 0 0 1 426.148 53q.414.744.414 1.848m-1.548-.006q0-.744-.198-1.218t-.552-.69a1.5 1.5 0 0 0-.828-.222q-.48 0-.834.222-.348.216-.546.69t-.198 1.218.198 1.212q.198.462.546.672.354.204.834.204t.828-.204q.354-.21.552-.672.198-.468.198-1.212m8.935-5.058a8 8 0 0 0-.708-.126 4.5 4.5 0 0 0-.66-.048q-.54 0-.846.132a.85.85 0 0 0-.45.456q-.144.324-.144.924v6.864h-1.53v-6.552q0-1.128.318-1.818t.954-1.002q.642-.318 1.626-.318.396 0 .75.048.36.042.69.138zm-5.838 6.96h5.016v1.242h-5.016zm5.64-3.846h-6.006v-1.242h6.006zm11.913-3.81q.918 0 1.56.27.648.264.984.786.336.516.336 1.254 0 .768-.36 1.26-.36.486-.906.714a3.6 3.6 0 0 1-1.14.27v-.264q.702.036 1.272.228.576.192.954.678.378.48.378 1.32 0 .816-.378 1.386-.372.564-1.062.852-.684.288-1.62.288-.966 0-1.644-.276a2.17 2.17 0 0 1-1.044-.852q-.36-.582-.372-1.47l1.446-.144q.072.492.258.816.186.318.516.48t.822.162q.774 0 1.128-.354.354-.36.354-.93 0-.51-.264-.816-.264-.312-.738-.45a4 4 0 0 0-1.134-.138h-.15V53h.156q.63 0 1.08-.174.456-.174.69-.498.24-.33.24-.78 0-.384-.156-.654a1.02 1.02 0 0 0-.456-.414q-.3-.144-.72-.144t-.726.15q-.3.144-.492.456-.186.306-.246.792l-1.398-.144q0-.858.342-1.416t.972-.822 1.518-.264m7.681 0q.816 0 1.416.264.6.258.948.786.354.528.402 1.332l-1.446.144a2.2 2.2 0 0 0-.228-.708q-.15-.276-.42-.42-.27-.15-.672-.15-.522 0-.882.282t-.564.996q-.204.708-.204 1.962 0 1.236.174 1.95t.51 1.02q.342.3.876.3.45 0 .78-.186a1.27 1.27 0 0 0 .516-.558q.18-.372.18-.882 0-.714-.348-1.104-.342-.396-.996-.396-.48 0-.918.204a3.2 3.2 0 0 0-.786.516q-.342.306-.606.66l-.132-.822a4.4 4.4 0 0 1 1.098-1.128q.69-.504 1.8-.504.756 0 1.302.276.546.27.84.846.3.57.3 1.452 0 .96-.36 1.608-.354.642-1.026.966t-1.632.324q-1.014 0-1.716-.42-.696-.42-1.092-1.422-.39-1.008-.39-2.706 0-1.65.408-2.64.414-.996 1.134-1.416.726-.426 1.734-.426m7.112 0q.87 0 1.506.258.642.258.99.798.354.54.354 1.368 0 .81-.3 1.386t-.75.954a9 9 0 0 1-1.122.786q-.156.09-.312.186a6 6 0 0 0-.342.21 6 6 0 0 0-.84.6q-.276.246-.402.558-.126.306-.114.768l-.264-.276h4.668v1.302h-5.874v-1.302q0-.684.306-1.218.306-.54.804-.954t1.368-.942q.576-.336.888-.576t.522-.594.21-.858q0-.618-.318-.912-.312-.294-.954-.294-.426 0-.714.138-.282.138-.456.456-.174.312-.234.834l-1.44-.144q-.018-.834.318-1.404.342-.57.978-.846.642-.282 1.524-.282"/><rect width="104.05" height="28.588" x="487.104" y="40.176" fill="#030712" rx="7.747"/><path fill="#9ca3af" d="m507.185 57.986-1.848-6.558h-.084l-1.818 6.558h-1.59l2.652-8.76h1.68l2.676 8.76zm-3.87-3.252h4.17v1.146h-4.17zm10.723-5.928h1.53v9.18h-1.332l-.132-1.14h-.066zm-4.374 6.036q0-.996.27-1.74t.816-1.158q.546-.42 1.344-.42.648 0 1.116.258.468.252.744.672h.318v.948a2.3 2.3 0 0 0-.738-.462q-.384-.15-.78-.15-.51 0-.852.222t-.516.678-.174 1.152.168 1.146q.174.444.51.66.342.216.858.216.402 0 .786-.144.384-.15.738-.468v.948h-.312q-.33.426-.804.684-.474.252-1.11.252-.786 0-1.32-.414t-.798-1.152-.264-1.728m11.816-6.036h1.53v9.18h-1.332l-.132-1.14h-.066zm-4.374 6.036q0-.996.27-1.74t.816-1.158q.546-.42 1.344-.42.648 0 1.116.258.468.252.744.672h.318v.948a2.3 2.3 0 0 0-.738-.462q-.384-.15-.78-.15-.51 0-.852.222t-.516.678-.174 1.152.168 1.146q.174.444.51.66.342.216.858.216.402 0 .786-.144.384-.15.738-.468v.948h-.312q-.33.426-.804.684-.474.252-1.11.252-.786 0-1.32-.414t-.798-1.152-.264-1.728m18.045-2.022h.09v5.16h-1.53v-5.352l.27.27h-1.764v-1.242h2.826zm2.982.21q-.762 0-1.272.048t-.966.198q-.45.144-.924.432v-1.116h.354q.462-.558.954-.816.498-.258 1.236-.258.342 0 .618.06zm-5.916 3.714h5.01v1.242h-5.01zm7.213-1.932q0-1.074.402-1.812a2.65 2.65 0 0 1 1.14-1.116q.732-.372 1.71-.372.912 0 1.554.324.642.318.972.96.336.642.336 1.602v.6h-4.92v-.93h3.702l-.27.24v-.24q0-.672-.384-1.014-.378-.348-1.038-.348-.78 0-1.218.516t-.438 1.59q0 1.038.42 1.578.426.54 1.224.54.504 0 .864-.21.366-.216.558-.648l1.482.216a2.6 2.6 0 0 1-.66 1.05 2.7 2.7 0 0 1-1.008.6q-.57.192-1.236.192-.954 0-1.674-.378a2.66 2.66 0 0 1-1.122-1.122q-.396-.744-.396-1.818m13.603 1.194q-.174.732-.618 1.212a2.6 2.6 0 0 1-1.05.696 4 4 0 0 1-1.338.216q-.96 0-1.674-.378a2.6 2.6 0 0 1-1.098-1.116q-.384-.744-.384-1.812 0-1.11.414-1.848a2.6 2.6 0 0 1 1.14-1.104q.732-.36 1.68-.36.81 0 1.446.258t1.02.774q.39.516.456 1.278l-1.482.126q-.102-.606-.486-.918-.378-.318-1.002-.318-.804 0-1.224.54-.414.534-.414 1.572 0 .702.192 1.176.192.468.558.702.366.228.882.228.588 0 .96-.288.378-.288.552-.834zm7.532-1.158q0 1.098-.414 1.836t-1.122 1.092q-.702.354-1.59.354a3.5 3.5 0 0 1-1.596-.354 2.6 2.6 0 0 1-1.116-1.092q-.414-.744-.414-1.836 0-1.104.414-1.848.414-.75 1.122-1.116a3.4 3.4 0 0 1 1.59-.372q.882 0 1.59.372A2.67 2.67 0 0 1 560.151 53q.414.744.414 1.848m-1.548-.006q0-.744-.198-1.218t-.552-.69a1.5 1.5 0 0 0-.828-.222q-.48 0-.834.222-.348.216-.546.69t-.198 1.218.198 1.212q.198.462.546.672.354.204.834.204t.828-.204q.354-.21.552-.672.198-.468.198-1.212m5.899-2.022h.09v5.16h-1.53v-5.352l.27.27h-1.764v-1.242h2.826zm2.982.21q-.762 0-1.272.048t-.966.198q-.45.144-.924.432v-1.116h.354q.462-.558.954-.816.498-.258 1.236-.258.342 0 .618.06zm-5.916 3.714h5.01v1.242h-5.01zm11.588-7.938h1.53v9.18h-1.332l-.132-1.14h-.066zm-4.374 6.036q0-.996.27-1.74t.816-1.158q.546-.42 1.344-.42.648 0 1.116.258.468.252.744.672h.318v.948a2.3 2.3 0 0 0-.738-.462q-.384-.15-.78-.15-.51 0-.852.222t-.516.678-.174 1.152.168 1.146q.174.444.51.66.342.216.858.216.402 0 .786-.144.384-.15.738-.468v.948h-.312q-.33.426-.804.684-.474.252-1.11.252-.786 0-1.32-.414t-.798-1.152-.264-1.728"/></g><defs><filter id="a" width="624.62" height="287.29" x="0" y="-17.43" color-interpolation-filters="sRGB" filterUnits="userSpaceOnUse"><feFlood flood-opacity="0" result="BackgroundImageFix"/><feColorMatrix in="SourceAlpha" result="hardAlpha" values="0 0 0 0 0 0 0 0 0 0 0 0 0 0 0 0 0 0 127 0"/><feOffset dy=".241"/><feGaussianBlur stdDeviation=".362"/><feColorMatrix values="0 0 0 0 0 0 0 0 0 0.0745098 0 0 0 0 0.207843 0 0 0 0.0168687 0"/><feBlend in2="BackgroundImageFix" result="effect1_dropShadow_8003_7439"/><feColorMatrix in="SourceAlpha" result="hardAlpha" values="0 0 0 0 0 0 0 0 0 0 0 0 0 0 0 0 0 0 127 0"/><feOffset dy=".58"/><feGaussianBlur stdDeviation=".869"/><feColorMatrix values="0 0 0 0 0 0 0 0 0 0.0745098 0 0 0 0 0.207843 0 0 0 0.0242336 0"/><feBlend in2="effect1_dropShadow_8003_7439" result="effect2_dropShadow_8003_7439"/><feColorMatrix in="SourceAlpha" result="hardAlpha" values="0 0 0 0 0 0 0 0 0 0 0 0 0 0 0 0 0 0 127 0"/><feOffset dy="1.091"/><feGaussianBlur stdDeviation="1.637"/><feColorMatrix values="0 0 0 0 0 0 0 0 0 0.0745098 0 0 0 0 0.207843 0 0 0 0.03 0"/><feBlend in2="effect2_dropShadow_8003_7439" result="effect3_dropShadow_8003_7439"/><feColorMatrix in="SourceAlpha" result="hardAlpha" values="0 0 0 0 0 0 0 0 0 0 0 0 0 0 0 0 0 0 127 0"/><feOffset dy="1.947"/><feGaussianBlur stdDeviation="2.92"/><feColorMatrix values="0 0 0 0 0 0 0 0 0 0.0745098 0 0 0 0 0.207843 0 0 0 0.0357664 0"/><feBlend in2="effect3_dropShadow_8003_7439" result="effect4_dropShadow_8003_7439"/><feColorMatrix in="SourceAlpha" result="hardAlpha" values="0 0 0 0 0 0 0 0 0 0 0 0 0 0 0 0 0 0 127 0"/><feOffset dy="3.641"/><feGaussianBlur stdDeviation="5.461"/><feColorMatrix values="0 0 0 0 0 0 0 0 0 0.0745098 0 0 0 0 0.207843 0 0 0 0.0431313 0"/><feBlend in2="effect4_dropShadow_8003_7439" result="effect5_dropShadow_8003_7439"/><feColorMatrix in="SourceAlpha" result="hardAlpha" values="0 0 0 0 0 0 0 0 0 0 0 0 0 0 0 0 0 0 127 0"/><feOffset dy="8.715"/><feGaussianBlur stdDeviation="13.072"/><feColorMatrix values="0 0 0 0 0 0 0 0 0 0.0745098 0 0 0 0 0.207843 0 0 0 0.06 0"/><feBlend in2="effect5_dropShadow_8003_7439" result="effect6_dropShadow_8003_7439"/><feBlend in="SourceGraphic" in2="effect6_dropShadow_8003_7439" result="shape"/></filter><filter id="b" width="391.945" height="151.783" x="2.145" y="63.498" color-interpolation-filters="sRGB" filterUnits="userSpaceOnUse"><feFlood flood-opacity="0" result="BackgroundImageFix"/><feColorMatrix in="SourceAlpha" result="hardAlpha" values="0 0 0 0 0 0 0 0 0 0 0 0 0 0 0 0 0 0 127 0"/><feOffset dy="8"/><feGaussianBlur stdDeviation="6"/><feColorMatrix values="0 0 0 0 0.0901961 0 0 0 0 0.168627 0 0 0 0 0.301961 0 0 0 0.08 0"/><feBlend in2="BackgroundImageFix" result="effect1_dropShadow_8003_7439"/><feColorMatrix in="SourceAlpha" result="hardAlpha" values="0 0 0 0 0 0 0 0 0 0 0 0 0 0 0 0 0 0 127 0"/><feOffset dy="5"/><feGaussianBlur stdDeviation="12"/><feColorMatrix values="0 0 0 0 0.0901961 0 0 0 0 0.168627 0 0 0 0 0.301961 0 0 0 0.04 0"/><feBlend in2="effect1_dropShadow_8003_7439" result="effect2_dropShadow_8003_7439"/><feBlend in="SourceGraphic" in2="effect2_dropShadow_8003_7439" result="shape"/></filter></defs></svg>