<svg xmlns="http://www.w3.org/2000/svg" width="522" height="295" fill="none" viewBox="0 0 522 295"><path fill="#0a101d" d="M6 .5h479.131a5.5 5.5 0 0 1 5.5 5.5v232.401a5.5 5.5 0 0 1-5.5 5.5H6a5.5 5.5 0 0 1-5.5-5.5V6A5.5 5.5 0 0 1 6 .5"/><path stroke="#1f2937" d="M6 .5h479.131a5.5 5.5 0 0 1 5.5 5.5v232.401a5.5 5.5 0 0 1-5.5 5.5H6a5.5 5.5 0 0 1-5.5-5.5V6A5.5 5.5 0 0 1 6 .5Z"/><rect width="437.665" height="23.658" x="20" y="20" fill="#111827" rx="3.785"/><path fill="#4b5563" d="M27.57 32.07a3.52 3.52 0 0 1 1.775-3.06 3.5 3.5 0 0 1 3.548 0c1.087.643 1.775 1.796 1.775 3.06 0 1.287-.688 2.44-1.775 3.083a3.5 3.5 0 0 1-3.548 0 3.53 3.53 0 0 1-1.775-3.083m12.732 0a3.52 3.52 0 0 1 1.774-3.06 3.5 3.5 0 0 1 3.549 0c1.087.643 1.774 1.796 1.774 3.06 0 1.287-.687 2.44-1.774 3.083a3.5 3.5 0 0 1-3.549 0 3.53 3.53 0 0 1-1.774-3.083m12.731 0c0-1.264.666-2.417 1.774-3.06a3.5 3.5 0 0 1 3.55 0c1.086.643 1.773 1.796 1.773 3.06 0 1.287-.687 2.44-1.774 3.083a3.5 3.5 0 0 1-3.549 0 3.53 3.53 0 0 1-1.774-3.083"/><rect width="123.019" height="6.309" x="327.075" y="28.674" fill="#1f2937" rx="3.154"/><rect width="95.419" height="23.658" x="11.482" y="52.963" fill="#1f2937" rx="3.785"/><path fill="#f9fafb" d="M20.117 65.21h4.081v-2.306h-4.08zm0 1.065v2.307c0 .2.156.355.355.355h3.726v-2.662zm5.146 2.662h3.726a.365.365 0 0 0 .355-.355v-2.307h-4.081zm4.08-3.726v-2.307h-4.08v2.307zm-8.87-5.146h8.516c.776 0 1.42.643 1.42 1.42v7.097c0 .798-.644 1.42-1.42 1.42h-8.517c-.798 0-1.42-.622-1.42-1.42v-7.097c0-.777.622-1.42 1.42-1.42"/><rect width="87.06" height="23.658" x="19.842" y="82.298" fill="#111827" rx="3.785"/><path fill="#4b5563" d="M34.532 88.69c.421 0 .732.422.62.821l-1.197 4.148h1.907c.422 0 .754.355.754.776a.76.76 0 0 1-.266.599l-5.744 4.88a.62.62 0 0 1-.4.132.637.637 0 0 1-.62-.798l1.197-4.17h-1.93a.74.74 0 0 1-.731-.732c0-.221.089-.421.244-.576l5.766-4.924a.64.64 0 0 1 .4-.155m-.799 1.886-4.014 3.438h1.774c.155 0 .31.088.421.222a.58.58 0 0 1 .09.465l-.999 3.482 4.059-3.46h-1.797a.56.56 0 0 1-.443-.2.58.58 0 0 1-.089-.465z"/><rect width="87.06" height="23.658" x="19.842" y="111.634" fill="#111827" rx="3.785"/><path fill="#4b5563" d="M29.608 119.579c.244.177.266.51.088.754a5.15 5.15 0 0 0-1.22 3.371c0 1.309.444 2.484 1.22 3.393.178.222.156.577-.088.755a.505.505 0 0 1-.732-.067c-.932-1.109-1.464-2.528-1.464-4.081 0-1.53.532-2.95 1.464-4.059a.504.504 0 0 1 .732-.066m8.361 0c.222-.2.555-.156.754.066a6.4 6.4 0 0 1 1.464 4.059 6.42 6.42 0 0 1-1.464 4.081.553.553 0 0 1-.754.067.53.53 0 0 1-.066-.755 5.3 5.3 0 0 0 1.22-3.393 5.27 5.27 0 0 0-1.22-3.371.53.53 0 0 1 .066-.754m-5.056 4.125c0-.31.155-.599.443-.754a.9.9 0 0 1 .887 0 .89.89 0 0 1 .444.754.89.89 0 0 1-.444.776.9.9 0 0 1-.887 0c-.288-.155-.444-.443-.444-.776m-1.376-1.73a2.95 2.95 0 0 0-.576 1.73c0 .665.222 1.264.576 1.752.2.222.156.555-.088.754a.51.51 0 0 1-.732-.111c-.532-.643-.82-1.486-.82-2.395 0-.887.288-1.73.82-2.395a.527.527 0 0 1 .732-.089c.244.177.288.51.088.754m5.346-.665c.51.665.82 1.508.82 2.395a3.86 3.86 0 0 1-.82 2.395c-.2.244-.533.289-.755.111-.243-.177-.266-.532-.088-.754a2.84 2.84 0 0 0 .599-1.752 2.82 2.82 0 0 0-.6-1.73c-.177-.244-.154-.577.09-.754.221-.177.554-.133.754.089"/><rect width="87.06" height="23.658" x="19.842" y="140.969" fill="#111827" rx="3.785"/><path fill="#4b5563" d="M36.284 149.269h-.023c-.11-.111-.354-.244-.731-.377-.755-.266-1.886-.466-3.15-.466-1.286 0-2.417.2-3.171.466-.377.133-.621.266-.732.377v1.974a5.5 5.5 0 0 0 1.197.443c.754.178 1.686.289 2.706.289.998 0 1.93-.111 2.684-.289a6.3 6.3 0 0 0 1.22-.443zm0 3.149c-.31.111-.621.222-.976.311-.843.199-1.863.31-2.928.31-1.087 0-2.107-.111-2.95-.31a8 8 0 0 1-.953-.311v1.664a5.5 5.5 0 0 0 1.197.443c.754.178 1.686.289 2.706.289.998 0 1.93-.111 2.684-.289a6.3 6.3 0 0 0 1.22-.443zm-7.807 4.392v.022c.133.089.355.244.732.377.754.266 1.885.444 3.171.444 1.264 0 2.395-.178 3.15-.444.377-.133.62-.288.731-.377l.023-.022v-1.553c-.31.111-.621.222-.976.311-.843.199-1.863.31-2.928.31-1.087 0-2.107-.111-2.95-.31a8 8 0 0 1-.953-.311zm7.851-.045-.022.023zm-7.896 0c-.022 0 0 0 0 0v.023zm0-7.43c-.022-.022 0-.022 0-.022zh-.022zm7.896-.022v.022h-.022c0-.022 0-.022.022-.022m1.02 7.63c0 .998-2.24 1.774-4.968 1.774-2.75 0-4.968-.776-4.968-1.774v-7.807c0-.976 2.218-1.774 4.968-1.774 2.728 0 4.968.798 4.968 1.774z"/><rect width="87.06" height="23.658" x="19.842" y="170.304" fill="#111827" rx="3.785"/><path fill="#4b5563" d="M32.025 180.6c0 .244.023.466.067.688a.5.5 0 0 1-.133.488l-3.482 3.482v1.73h1.42v-.887c0-.288.22-.532.531-.532h.888v-.888c0-.288.221-.532.532-.532h1.198l.643-.643c.133-.133.31-.177.488-.133.221.044.443.066.687.066a2.844 2.844 0 0 0 2.84-2.839 2.86 2.86 0 0 0-2.84-2.838 2.844 2.844 0 0 0-2.839 2.838m2.84-3.903a3.91 3.91 0 0 1 3.903 3.903 3.895 3.895 0 0 1-3.904 3.904c-.221 0-.421 0-.62-.044l-.6.598a.52.52 0 0 1-.377.156h-.887v.887c0 .31-.244.532-.532.532h-.887v.887a.526.526 0 0 1-.533.533h-2.484a.513.513 0 0 1-.532-.533v-2.484a.52.52 0 0 1 .155-.377l3.438-3.437c-.044-.2-.044-.4-.044-.622a3.895 3.895 0 0 1 3.903-3.903m.709 3.903a.7.7 0 0 1-.71-.709c0-.377.31-.71.71-.71a.73.73 0 0 1 .71.71.714.714 0 0 1-.71.709"/><rect width="87.06" height="24.604" x="19.842" y="199.64" fill="#111827" rx="3.785"/><path fill="#4b5563" d="M33.09 206.505c.377 0 .732.045 1.087.111.177.045.488.133.665.444.044.089.067.177.089.266l.222.865c.022.111.244.244.377.2l.842-.244c.09-.022.178-.045.267-.045.354 0 .598.222.71.355a5.7 5.7 0 0 1 1.108 1.908c.067.177.133.488-.066.776a.9.9 0 0 1-.178.222l-.62.621c-.112.088-.112.332 0 .421l.62.621c.067.067.133.133.178.222.177.288.11.599.066.776a5.7 5.7 0 0 1-1.109 1.908c-.11.133-.355.354-.71.354-.088 0-.177-.022-.266-.044l-.842-.266c-.133-.022-.355.089-.377.222l-.222.865a1.3 1.3 0 0 1-.089.266c-.177.31-.488.399-.665.443a6 6 0 0 1-1.087.089c-.377 0-.754-.022-1.109-.089-.178-.044-.488-.133-.665-.443-.045-.089-.067-.178-.09-.266l-.22-.865c-.023-.133-.245-.244-.356-.222l-.843.266c-.088.022-.2.022-.288.044-.355 0-.599-.221-.71-.354a5.7 5.7 0 0 1-1.109-1.908c-.044-.177-.11-.488.067-.798a1.5 1.5 0 0 1 .177-.222l.644-.599c.088-.089.088-.333 0-.421l-.644-.621c-.066-.067-.133-.133-.177-.222-.177-.288-.11-.599-.067-.776a5.7 5.7 0 0 1 1.11-1.908c.11-.133.354-.355.71-.355.088 0 .199.023.287.045l.843.244c.111.044.333-.089.355-.2l.222-.865c.022-.089.044-.177.089-.266.177-.311.488-.399.665-.444a6 6 0 0 1 1.109-.111m-.843 1.154-.2.776c-.177.71-.997 1.198-1.707.998l-.776-.244a5.4 5.4 0 0 0-.843 1.464l.599.554c.532.511.532 1.464 0 1.974l-.6.555c.2.532.489 1.02.844 1.464l.776-.244c.71-.2 1.53.288 1.707.998l.2.776a4.3 4.3 0 0 0 1.686 0l.177-.776c.178-.71.998-1.198 1.708-.998l.776.244a5.4 5.4 0 0 0 .843-1.464l-.577-.555c-.532-.51-.532-1.463 0-1.974l.577-.554a5.4 5.4 0 0 0-.843-1.464l-.776.244c-.688.2-1.53-.288-1.708-.998l-.177-.776a4.3 4.3 0 0 0-1.686 0m-.222 4.524c0 .4.2.732.533.932.31.199.731.199 1.064 0 .31-.2.532-.532.532-.932 0-.377-.221-.709-.532-.909a1.02 1.02 0 0 0-1.064 0c-.333.2-.533.532-.533.909m1.065 2.129a2.15 2.15 0 0 1-1.863-1.064 2.15 2.15 0 0 1 0-2.129c.4-.643 1.087-1.065 1.863-1.065.754 0 1.442.422 1.84 1.065a2.15 2.15 0 0 1 0 2.129 2.14 2.14 0 0 1-1.84 1.064"/><rect width="343" height="171" x="114.63" y="53.121" fill="#111827" rx="3.154"/><rect width="16.212" height="16.212" x="128.458" y="65.063" fill="#1f2937" rx="2.807"/><path fill="#9ca3af" d="M133.611 71.893a.41.41 0 0 1-.527.198.394.394 0 0 1-.214-.51 3.71 3.71 0 0 1 3.405-2.254 3.24 3.24 0 0 1 2.286.954l.872.872v-.905a.39.39 0 0 1 .395-.394.4.4 0 0 1 .395.394v1.843a.39.39 0 0 1-.395.394h-1.842a.38.38 0 0 1-.395-.394.39.39 0 0 1 .395-.395h.888l-.872-.855a2.45 2.45 0 0 0-1.727-.724c-1.201 0-2.237.74-2.664 1.776m6.052 2.582a3.72 3.72 0 0 1-3.388 2.22 3.18 3.18 0 0 1-2.303-.953l-.855-.855v.888a.39.39 0 0 1-.395.395.38.38 0 0 1-.394-.395v-1.842a.39.39 0 0 1 .394-.395h1.843a.4.4 0 0 1 .394.395.39.39 0 0 1-.394.394h-.905l.872.872a2.45 2.45 0 0 0 1.743.707c1.184 0 2.221-.707 2.648-1.743a.404.404 0 0 1 .526-.214.405.405 0 0 1 .214.526"/><path fill="#1f2937" d="M150.566 67.87a2.807 2.807 0 0 1 2.807-2.807h37.037v16.213h-37.037a2.807 2.807 0 0 1-2.807-2.807z"/><path fill="#9ca3af" d="M155.517 75.67v-5.11h.917v5.11zm2.81-2.03h-2.264v-.732h2.264zm-2.334-2.32v-.76h2.772v.76zm5.062 4.35v-3.196l.157.224h-1.375v-.72l2.002-.085.105.102v3.675zm-1.218-.725h3.321v.725h-3.321zm1.512-3.678a.7.7 0 0 1-.315-.067.53.53 0 0 1-.214-.196.6.6 0 0 1-.073-.297.51.51 0 0 1 .164-.403q.168-.15.438-.15.272 0 .437.15a.5.5 0 0 1 .168.403q0 .255-.168.41-.165.15-.437.15m2.828 3.678h3.325v.725h-3.325zm1.218.725v-4.862l.158.228h-1.372v-.721l2.002-.088.105.105-.004 5.338zm6.319-3.693v.725h-3.36v-.725zm-.844 3.787q-.584 0-.917-.133a.9.9 0 0 1-.486-.48q-.154-.342-.154-.986v-3.241h.889v3.234q0 .34.073.518a.45.45 0 0 0 .242.248q.164.07.462.07.357 0 .819-.112v.76q-.203.06-.438.09a4 4 0 0 1-.49.032m1.828-1.946q0-.627.235-1.057.237-.434.665-.65a2.2 2.2 0 0 1 .997-.218q.532 0 .907.19.373.185.567.56.196.373.196.934v.35h-2.87v-.543h2.159l-.157.14v-.14q0-.391-.224-.591-.22-.203-.606-.203-.455 0-.71.3-.256.301-.256.928 0 .605.245.92.249.316.714.316.294 0 .504-.123a.8.8 0 0 0 .326-.378l.864.126a1.5 1.5 0 0 1-.385.613 1.6 1.6 0 0 1-.588.35 2.3 2.3 0 0 1-.721.112q-.556 0-.976-.22a1.55 1.55 0 0 1-.655-.655q-.231-.435-.231-1.06m6.185-1.162h.053v3.01h-.893v-3.122l.158.158h-1.029v-.725h1.648zm1.74.123q-.445 0-.742.028a2.6 2.6 0 0 0-.564.115q-.262.084-.539.252v-.65h.207q.27-.327.556-.477.29-.15.721-.15a1.7 1.7 0 0 1 .361.035zm-3.451 2.166h2.922v.725h-2.922zm6.056-3.052q.504 0 .854.126.35.123.528.371a.97.97 0 0 1 .168.61l-.805.062a.5.5 0 0 0-.22-.399q-.197-.133-.585-.133-.353 0-.546.105-.192.102-.192.301 0 .122.08.207a.7.7 0 0 0 .245.14q.162.06.487.14l.231.056q.494.111.773.23.28.117.445.323.164.203.164.539 0 .363-.196.63-.195.265-.584.41-.386.143-.938.143a2.8 2.8 0 0 1-.872-.116 1.2 1.2 0 0 1-.553-.364 1.4 1.4 0 0 1-.28-.661l.816-.095a.8.8 0 0 0 .185.368.67.67 0 0 0 .301.178q.179.046.448.046.27-.001.441-.056a.55.55 0 0 0 .256-.158.35.35 0 0 0 .08-.22.28.28 0 0 0-.108-.228 1 1 0 0 0-.315-.15 10 10 0 0 0-.662-.168 3.2 3.2 0 0 1-.707-.228 1.1 1.1 0 0 1-.434-.353.93.93 0 0 1-.154-.543q0-.528.413-.819.417-.294 1.236-.294"/><path fill="#121521" d="M190.409 65.063h24.036a2.807 2.807 0 0 1 2.807 2.807v10.6a2.807 2.807 0 0 1-2.807 2.807h-24.036z"/><path fill="#9ca3af" d="M196.154 75.67h-.661v-3.595h.56l.07.606h.031zm1.694 0v-2.398a.95.95 0 0 0-.087-.44.5.5 0 0 0-.238-.232.8.8 0 0 0-.343-.066q-.347 0-.63.178a1.9 1.9 0 0 0-.515.49v-.612h.165q.255-.273.553-.434.297-.165.714-.165.325 0 .556.12a.8.8 0 0 1 .361.36q.126.245.126.626v2.573zm5.247-1.792q0 .609-.231 1.032a1.54 1.54 0 0 1-.63.634q-.399.21-.892.21-.494 0-.893-.21a1.6 1.6 0 0 1-.63-.634q-.231-.423-.231-1.032 0-.606.231-1.033.236-.427.63-.64.4-.214.893-.214t.892.214.63.64q.231.423.231 1.033m-.682 0q0-.45-.137-.75a.95.95 0 0 0-.374-.447 1.04 1.04 0 0 0-.56-.147q-.322 0-.564.147a1 1 0 0 0-.378.448q-.133.3-.133.749 0 .444.133.745a1 1 0 0 0 .375.445q.242.143.567.143.326 0 .563-.143a.96.96 0 0 0 .371-.445q.137-.301.137-.745m2.423 1.792h-.662v-3.595h.56l.07.606h.032zm1.694 0v-2.398a.9.9 0 0 0-.088-.44.5.5 0 0 0-.238-.232.8.8 0 0 0-.343-.066q-.346 0-.63.178-.283.175-.514.49v-.612h.164q.256-.273.553-.434.299-.165.714-.165.326 0 .557.12a.8.8 0 0 1 .36.36q.126.245.126.626v2.573zm1.74-1.803q0-.598.224-1.018.227-.424.641-.64.413-.218.966-.218.51 0 .871.179.36.175.55.532.192.356.192.878v.315h-2.936v-.44h2.464l-.175.15v-.144q0-.465-.27-.696t-.717-.231q-.54 0-.837.343-.294.339-.294.99 0 .661.294 1.005.294.34.837.34.35 0 .598-.148a.92.92 0 0 0 .378-.448l.644.109q-.123.332-.353.563-.228.23-.55.35a2.1 2.1 0 0 1-.721.116q-.543 0-.948-.217a1.53 1.53 0 0 1-.634-.64q-.224-.424-.224-1.03"/><path fill="#1f2937" d="M223.148 67.87a2.807 2.807 0 0 1 2.808-2.807h33.036v16.213h-33.036a2.807 2.807 0 0 1-2.808-2.807z"/><path fill="#9ca3af" d="M228.099 75.67v-5.11h.917v5.11zm2.81-2.03h-2.264v-.732h2.264zm-2.334-2.32v-.76h2.772v.76zm5.062 4.35v-3.196l.157.224h-1.375v-.72l2.002-.085.105.102v3.675zm-1.218-.725h3.321v.725h-3.321zm1.512-3.678a.7.7 0 0 1-.315-.067.53.53 0 0 1-.214-.196.6.6 0 0 1-.073-.297.51.51 0 0 1 .164-.403q.168-.15.438-.15.272 0 .437.15a.5.5 0 0 1 .168.403q0 .255-.168.41-.165.15-.437.15m2.667 2.551q0-.627.235-1.057.238-.434.665-.65.427-.219.997-.218.532 0 .907.19.375.185.567.56.196.373.196.934v.35h-2.87v-.543h2.159l-.157.14v-.14q0-.391-.224-.591-.22-.203-.606-.203-.455 0-.71.3-.255.301-.256.928 0 .605.245.92.249.316.714.316.294 0 .504-.123a.8.8 0 0 0 .326-.378l.864.126a1.5 1.5 0 0 1-.973.963 2.2 2.2 0 0 1-.721.112q-.556 0-.976-.22a1.56 1.56 0 0 1-.655-.655q-.231-.435-.231-1.06m4.502 1.127h3.325v.725H241.1zm1.218.725v-4.862l.158.228h-1.372v-.721l2.002-.088.105.105-.004 5.338zm5.514-5.355h.892v5.355h-.777l-.077-.665h-.038zm-2.552 3.52q0-.58.158-1.014.157-.435.476-.676.318-.245.784-.245.378 0 .651.15.272.149.434.393h.185v.553a1.4 1.4 0 0 0-.43-.27 1.2 1.2 0 0 0-.455-.087.9.9 0 0 0-.497.13.8.8 0 0 0-.301.395 1.9 1.9 0 0 0-.102.672q0 .405.098.668a.78.78 0 0 0 .298.385.9.9 0 0 0 .5.126q.234 0 .459-.084.223-.088.43-.273v.553h-.182a1.5 1.5 0 0 1-.469.4q-.276.146-.647.146-.46 0-.77-.241a1.44 1.44 0 0 1-.466-.672 3 3 0 0 1-.154-1.008m6.189-1.942q.504 0 .854.126.35.123.528.371a.97.97 0 0 1 .168.61l-.805.062a.5.5 0 0 0-.22-.399q-.197-.133-.585-.133-.353 0-.546.105-.192.102-.192.301 0 .122.08.207a.7.7 0 0 0 .245.14q.162.06.487.14l.231.056q.494.111.773.23.28.117.445.323.164.203.164.539 0 .363-.196.63-.195.265-.584.41a2.7 2.7 0 0 1-.938.143 2.8 2.8 0 0 1-.872-.116 1.2 1.2 0 0 1-.553-.364 1.4 1.4 0 0 1-.28-.661l.816-.095q.06.238.185.368a.67.67 0 0 0 .301.178q.179.046.448.046.27-.001.441-.056a.55.55 0 0 0 .256-.158.35.35 0 0 0 .08-.22.28.28 0 0 0-.108-.228.9.9 0 0 0-.315-.15 10 10 0 0 0-.662-.168 3.2 3.2 0 0 1-.707-.228 1.1 1.1 0 0 1-.434-.353.93.93 0 0 1-.154-.543q0-.528.413-.819.417-.294 1.236-.294"/><path fill="#121521" d="M258.991 65.063h20.036a2.807 2.807 0 0 1 2.807 2.807v10.6a2.807 2.807 0 0 1-2.807 2.807h-20.036z"/><path fill="#9ca3af" d="M265.499 71.991q.455 0 .763.112a.9.9 0 0 1 .469.36q.16.249.161.666v1.781q0 .133.039.2.037.066.129.084a.8.8 0 0 0 .259-.007v.483q-.238.07-.448.07a.7.7 0 0 1-.364-.08.47.47 0 0 1-.189-.218.9.9 0 0 1-.052-.318l-.035-.06v-1.897q0-.28-.098-.434a.5.5 0 0 0-.27-.21 1.3 1.3 0 0 0-.434-.06 1.5 1.5 0 0 0-.423.06.54.54 0 0 0-.28.19.6.6 0 0 0-.105.363v.154h-.62v-.189q0-.487.364-.766.365-.285 1.134-.284m.991 2.083a5 5 0 0 0-.305-.032 3 3 0 0 0-.287-.014q-.427 0-.721.07a.94.94 0 0 0-.451.217.5.5 0 0 0-.154.389q0 .178.08.3a.5.5 0 0 0 .238.186q.158.063.375.063.29 0 .532-.108.245-.11.521-.319l.018.396h-.13q-.22.185-.371.287a1.6 1.6 0 0 1-.868.245q-.333 0-.577-.116a.86.86 0 0 1-.378-.332 1 1 0 0 1-.133-.522q0-.483.329-.731.328-.25.847-.326a8 8 0 0 1 1.256-.07zm1.827 1.06h3.213v.536h-3.213zm1.274.536.004-5.037.157.207h-1.435v-.525l1.852-.077.087.08v5.352zm3.067-.536h3.213v.536h-3.213zm1.274.536.004-5.037.157.207h-1.435v-.525l1.852-.077.087.08v5.352z"/><path fill="#1f2937" d="M287.73 67.87a2.807 2.807 0 0 1 2.808-2.807h50.036v16.213h-50.036a2.807 2.807 0 0 1-2.808-2.807z"/><path fill="#9ca3af" d="M292.73 75.67v-5.11h.913v5.11zm1.372-2.503q.599 0 .854-.27.255-.272.255-.78 0-.318-.112-.507a.6.6 0 0 0-.336-.277 1.6 1.6 0 0 0-.577-.087h-.917v-.686h1.169q.812 0 1.263.346.456.347.455 1.106a2 2 0 0 1-.227.97 1.57 1.57 0 0 1-.711.654q-.483.238-1.218.238h-.7v-.707zm4.442-1.274q.483 0 .816.116a1 1 0 0 1 .511.374q.182.255.182.672v1.705q0 .122.031.185.035.06.116.08a.8.8 0 0 0 .234 0v.645a2 2 0 0 1-.539.077q-.273 0-.423-.088a.45.45 0 0 1-.207-.234 1 1 0 0 1-.056-.357L299.16 75v-1.904a.66.66 0 0 0-.084-.353.43.43 0 0 0-.227-.186 1.1 1.1 0 0 0-.357-.052 1.1 1.1 0 0 0-.361.052.45.45 0 0 0-.231.165.47.47 0 0 0-.084.29l-.003.144h-.798v-.182q0-.504.367-.791.371-.29 1.162-.29m.991 2.244a4 4 0 0 0-.312-.05 2 2 0 0 0-.315-.02q-.354 0-.595.063a.8.8 0 0 0-.367.192.44.44 0 0 0-.126.322q0 .144.07.249t.199.16a.8.8 0 0 0 .315.057q.238 0 .452-.091.213-.092.423-.263l-.007.47h-.143a2 2 0 0 1-.329.28q-.157.106-.375.178-.213.07-.462.07-.322 0-.567-.12a.87.87 0 0 1-.374-.342 1.03 1.03 0 0 1-.13-.529q0-.5.343-.76.346-.262.865-.339a6.6 6.6 0 0 1 1.172-.063zm1.645-.511q0-.515.165-.903.168-.393.486-.606.32-.217.76-.217.252 0 .462.074.213.069.367.192.158.12.263.277h.185v.553a1.4 1.4 0 0 0-.43-.27 1.2 1.2 0 0 0-.455-.087 1 1 0 0 0-.487.115.75.75 0 0 0-.308.336q-.105.22-.105.536 0 .31.102.528.105.217.304.33.204.111.49.111.235 0 .459-.084.224-.088.43-.273v.553h-.182a1.5 1.5 0 0 1-.476.396q-.28.15-.647.15a1.3 1.3 0 0 1-.746-.213 1.35 1.35 0 0 1-.476-.599 2.3 2.3 0 0 1-.161-.9m3.444 1.83q0 .564-.189.917a1.13 1.13 0 0 1-.563.522q-.375.165-.952.164-.517 0-.858-.126a1.17 1.17 0 0 1-.521-.343 1.25 1.25 0 0 1-.249-.518l.809-.171q.105.275.297.41.197.132.522.132.385 0 .598-.206.214-.204.214-.683V72.62h.052l.063-.644h.777zm2.276.214v-3.196l.158.224h-1.376v-.72l2.002-.085.105.102v3.675zm-1.218-.725h3.322v.725h-3.322zm1.512-3.678a.7.7 0 0 1-.315-.067.5.5 0 0 1-.213-.196.6.6 0 0 1-.074-.297q0-.255.165-.403a.63.63 0 0 1 .437-.15q.273 0 .438.15a.5.5 0 0 1 .168.403q0 .255-.168.41-.165.15-.438.15m3.764 4.403h-.893v-3.693h.777l.063.655h.053zm1.456 0v-2.457a.8.8 0 0 0-.07-.36.38.38 0 0 0-.186-.186.7.7 0 0 0-.287-.056q-.301-.001-.56.154-.26.15-.493.427v-.669h.192q.28-.305.581-.465.304-.161.711-.161.329 0 .549.112a.74.74 0 0 1 .34.353q.115.238.115.616v2.692zm3.493-3.777q.483 0 .816.116a1 1 0 0 1 .511.374q.182.255.182.672v1.705q0 .122.031.185.036.06.116.08a.8.8 0 0 0 .234 0v.645a2 2 0 0 1-.539.077q-.273 0-.423-.088a.46.46 0 0 1-.207-.234 1 1 0 0 1-.056-.357l-.049-.067v-1.904a.66.66 0 0 0-.084-.353.42.42 0 0 0-.227-.186 1.1 1.1 0 0 0-.357-.052q-.21 0-.361.052a.45.45 0 0 0-.231.165.47.47 0 0 0-.084.29l-.003.144h-.798v-.182q0-.504.367-.791.372-.29 1.162-.29m.991 2.244a4 4 0 0 0-.312-.05 2 2 0 0 0-.315-.02 2.4 2.4 0 0 0-.595.063.8.8 0 0 0-.367.192.44.44 0 0 0-.126.322q0 .144.07.249t.199.16a.8.8 0 0 0 .315.057q.239 0 .452-.091.213-.092.423-.263l-.007.47h-.143a2 2 0 0 1-.329.28q-.158.106-.375.178-.213.07-.462.07-.321 0-.567-.12a.9.9 0 0 1-.374-.342 1.04 1.04 0 0 1-.13-.529q0-.5.343-.76a1.86 1.86 0 0 1 .865-.339 6.6 6.6 0 0 1 1.172-.063zm5.002-2.16v.725h-3.36v-.725zm-.843 3.787q-.585 0-.917-.133a.9.9 0 0 1-.487-.48q-.154-.342-.154-.986v-3.241h.889v3.234q0 .34.074.518a.45.45 0 0 0 .241.248q.165.07.462.07.357 0 .819-.112v.76q-.203.06-.437.09a4 4 0 0 1-.49.032m3.207-.094v-3.196l.157.224h-1.375v-.72l2.002-.085.105.102v3.675zm-1.218-.725h3.321v.725h-3.321zm1.512-3.678a.7.7 0 0 1-.315-.067.53.53 0 0 1-.214-.196.6.6 0 0 1-.073-.297.51.51 0 0 1 .164-.403q.168-.15.438-.15.273 0 .437.15a.5.5 0 0 1 .168.403q0 .255-.168.41-.164.15-.437.15m6.314 2.572q0 .64-.241 1.071t-.655.637a2 2 0 0 1-.927.207q-.518 0-.931-.207a1.53 1.53 0 0 1-.651-.637q-.242-.434-.242-1.07 0-.645.242-1.079.242-.438.654-.65.414-.219.928-.218.514 0 .927.217.414.214.655.651.241.435.241 1.078m-.903-.003q0-.435-.115-.71a.82.82 0 0 0-.322-.403.9.9 0 0 0-.483-.13.9.9 0 0 0-.487.13.83.83 0 0 0-.318.402q-.116.276-.116.71 0 .435.116.708.115.27.318.392.207.119.487.119t.483-.12a.8.8 0 0 0 .322-.391q.115-.273.115-.707m2.693 1.834h-.893v-3.693h.777l.063.655h.053zm1.456 0v-2.457a.8.8 0 0 0-.07-.36.38.38 0 0 0-.186-.186.7.7 0 0 0-.287-.056q-.3-.001-.56.154-.259.15-.493.427v-.669h.192a2.2 2.2 0 0 1 .581-.465q.304-.161.711-.161.329 0 .549.112.225.111.34.353.115.238.115.616v2.692z"/><path fill="#121521" d="M340.573 65.063h46.036a2.807 2.807 0 0 1 2.807 2.807v10.6a2.807 2.807 0 0 1-2.807 2.807h-46.036z"/><path fill="#9ca3af" d="M348.919 70.738a4 4 0 0 0-.406-.077 3 3 0 0 0-.396-.024q-.329 0-.535.084a.6.6 0 0 0-.319.304q-.108.225-.108.644v4h-.662v-3.94q0-.61.189-.98.189-.371.543-.536.353-.165.875-.164a3 3 0 0 1 .819.112zm-3.378 4.396h2.888v.536h-2.888zm3.248-2.523h-3.451v-.536h3.451zm2.384 3.059v-3.28l.158.21h-1.432v-.525l1.852-.08.087.084v3.59zm-1.274-.536h3.213v.536h-3.213zm1.477-3.965a.6.6 0 0 1-.255-.053.43.43 0 0 1-.172-.157.46.46 0 0 1-.063-.242q0-.207.133-.325a.5.5 0 0 1 .357-.123q.218 0 .35.123a.41.41 0 0 1 .137.325q0 .21-.137.333a.5.5 0 0 1-.35.119m4.39 1.557h.032v2.94h-.662v-3.213l.158.158h-1.113v-.536h1.515zm1.782-.084a6 6 0 0 0-.774.039 2 2 0 0 0-.563.147 2.6 2.6 0 0 0-.564.34v-.582h.196q.298-.304.602-.448.304-.147.756-.147.19 0 .347.032zm-3.367 2.492h2.891v.536h-2.891zm6.021-3.143q.479 0 .812.12.336.114.514.353.182.238.196.598l-.602.042a.6.6 0 0 0-.276-.462q-.238-.157-.69-.157-.423 0-.658.126a.4.4 0 0 0-.231.374q0 .137.081.231a.7.7 0 0 0 .259.168q.174.07.5.147.129.024.252.053.522.108.816.227t.441.315q.15.192.15.5a1 1 0 0 1-.182.596 1.14 1.14 0 0 1-.535.392q-.354.136-.875.136-.511 0-.865-.105a1.2 1.2 0 0 1-.563-.353q-.215-.25-.294-.665l.609-.077a.9.9 0 0 0 .245.448q.164.15.371.196.21.045.528.045.308 0 .511-.073a.63.63 0 0 0 .294-.193.44.44 0 0 0 .095-.273.33.33 0 0 0-.109-.255.9.9 0 0 0-.343-.175 8 8 0 0 0-.703-.172 3.6 3.6 0 0 1-.742-.224 1.1 1.1 0 0 1-.431-.329.83.83 0 0 1-.143-.5q0-.498.388-.774.392-.28 1.18-.28m5.859.084v.536h-3.36v-.536zm-.836 3.665q-.543.003-.861-.13a.9.9 0 0 1-.469-.465q-.15-.333-.151-.931v-3.266h.665v3.234q0 .39.084.599.084.21.27.294.186.08.518.08a3.5 3.5 0 0 0 .864-.119v.578q-.2.06-.441.09a3 3 0 0 1-.479.036m6.533-4.197a.94.94 0 0 0 .437-.136q.252-.137.455-.364.203-.228.266-.483h.511a1.7 1.7 0 0 1-.308.798 2.2 2.2 0 0 1-.637.62q-.371.233-.724.234zm1.158 4.127v-5.11h.679v5.11zm-1.284-.574h3.283v.574h-3.283zm7.749-1.985q0 .879-.22 1.47-.218.591-.627.882-.409.29-.983.29t-.984-.29-.63-.882q-.216-.591-.217-1.47 0-.892.217-1.48.22-.588.627-.872.41-.287.987-.287.578 0 .983.287.41.285.627.872.22.588.22 1.48m-.717 0q0-.742-.126-1.19t-.371-.644a.94.94 0 0 0-.616-.2.94.94 0 0 0-.613.2q-.245.195-.374.644-.126.448-.126 1.19t.126 1.19q.13.449.374.648.246.2.613.2a.94.94 0 0 0 .616-.2q.245-.2.371-.648t.126-1.19m-1.113.553a.34.34 0 0 0 .29-.14q.102-.144.102-.402a.8.8 0 0 0-.046-.294.4.4 0 0 0-.133-.186.35.35 0 0 0-.213-.063.33.33 0 0 0-.287.144q-.102.14-.102.399 0 .171.046.294a.4.4 0 0 0 .129.185q.088.063.214.063m6.171-.553q0 .879-.22 1.47-.217.591-.627.882-.41.29-.983.29-.575 0-.984-.29-.41-.291-.63-.882-.216-.591-.217-1.47 0-.892.217-1.48.22-.588.627-.872.41-.287.987-.287.578 0 .983.287.41.285.627.872.22.588.22 1.48m-.717 0q0-.742-.126-1.19t-.371-.644a.95.95 0 0 0-.616-.2.94.94 0 0 0-.613.2q-.245.195-.374.644-.126.448-.126 1.19t.126 1.19q.13.449.374.648.246.2.613.2a.95.95 0 0 0 .616-.2q.245-.2.371-.648t.126-1.19m-1.113.553a.34.34 0 0 0 .29-.14q.102-.144.102-.402a.8.8 0 0 0-.046-.294.4.4 0 0 0-.133-.186.35.35 0 0 0-.213-.063.33.33 0 0 0-.287.144q-.102.14-.102.399a.8.8 0 0 0 .046.294.4.4 0 0 0 .129.185q.088.063.214.063"/><path fill="#1f2937" d="M395.312 67.87a2.807 2.807 0 0 1 2.808-2.807h37.036v16.213H398.12a2.807 2.807 0 0 1-2.808-2.807z"/><path fill="#9ca3af" d="M402.863 72.02a1.1 1.1 0 0 0-.14-.473.6.6 0 0 0-.29-.26 1.1 1.1 0 0 0-.459-.08q-.416 0-.619.154t-.203.448q0 .22.112.36a.95.95 0 0 0 .322.242q.207.101.595.242.55.2.878.381.33.182.518.466.193.28.193.707 0 .475-.235.826a1.5 1.5 0 0 1-.658.539 2.5 2.5 0 0 1-.997.185q-.56 0-.956-.168a1.4 1.4 0 0 1-.619-.507q-.224-.344-.266-.858l.885-.126q.067.466.305.686.242.217.707.217.448 0 .661-.182a.61.61 0 0 0 .217-.497.53.53 0 0 0-.112-.346.9.9 0 0 0-.325-.238 9 9 0 0 0-.686-.287 4 4 0 0 1-.763-.364 1.56 1.56 0 0 1-.497-.49 1.3 1.3 0 0 1-.186-.71q0-.453.207-.767.21-.32.609-.48.402-.16.969-.16.792 0 1.236.356.444.357.462 1.1zm5.206 1.82q0 .64-.242 1.07-.241.431-.654.637a2 2 0 0 1-.928.207q-.517 0-.931-.207a1.53 1.53 0 0 1-.651-.637q-.241-.434-.241-1.07 0-.645.241-1.079.241-.438.655-.65a1.96 1.96 0 0 1 .927-.218q.514 0 .928.217.413.214.654.651.242.435.242 1.078m-.903-.004q0-.435-.116-.71a.82.82 0 0 0-.322-.403.9.9 0 0 0-.483-.13.9.9 0 0 0-.486.13.83.83 0 0 0-.319.402q-.115.276-.115.71 0 .435.115.708a.8.8 0 0 0 .319.392q.206.119.486.119t.483-.12a.8.8 0 0 0 .322-.391q.116-.273.116-.707m3.441-1.18h.053v3.01h-.893v-3.122l.158.158h-1.029v-.725h1.648zm1.74.123q-.445 0-.742.028a2.5 2.5 0 0 0-1.103.367v-.65h.207a1.9 1.9 0 0 1 .556-.477q.29-.15.721-.15.2 0 .361.035zm-3.451 2.166h2.922v.725h-2.922zm7.564-2.968v.725h-3.36v-.725zm-.844 3.787q-.584 0-.917-.133a.9.9 0 0 1-.486-.48q-.154-.342-.154-.986v-3.241h.889v3.234q0 .34.073.518a.45.45 0 0 0 .242.248q.165.07.462.07.357 0 .819-.112v.76q-.202.06-.438.09a4 4 0 0 1-.49.032m7.226-.76-.077.666h-.777v-5.355h.892v4.69zm2.59-1.19q0 .581-.158 1.02-.157.433-.476.678-.318.242-.784.242-.378 0-.651-.147a1.2 1.2 0 0 1-.434-.396h-.185v-.553q.207.186.43.273.224.084.455.084a.9.9 0 0 0 .497-.13.8.8 0 0 0 .301-.395q.102-.266.102-.675 0-.404-.102-.662a.75.75 0 0 0-.297-.388.9.9 0 0 0-.497-.13q-.234 0-.459.088a1.3 1.3 0 0 0-.43.273v-.557h.182q.192-.245.469-.395t.647-.15q.46 0 .77.24.312.243.466.676.154.43.154 1.005m.603-1.837h.955l1.036 2.524h.049l.914-2.524h.896l-1.365 3.514q-.203.528-.438.865-.23.34-.574.521-.34.182-.829.182a3 3 0 0 1-.455-.038v-.798a2 2 0 0 0 .476.06q.262 0 .43-.07a.6.6 0 0 0 .263-.186.9.9 0 0 0 .157-.284l.189-.595.196.385-.157.518z"/><path fill="#121521" d="M435.155 65.063h15.036a2.807 2.807 0 0 1 2.807 2.807v10.6a2.807 2.807 0 0 1-2.807 2.807h-15.036z"/><path fill="#9ca3af" d="M441.415 75.67v-3.28l.157.21h-1.431v-.525l1.851-.08.088.084v3.59zm-1.274-.536h3.213v.536h-3.213zm1.477-3.965a.6.6 0 0 1-.256-.053.43.43 0 0 1-.171-.157.46.46 0 0 1-.063-.242q0-.207.133-.325a.5.5 0 0 1 .357-.123q.216 0 .35.123.136.118.136.325 0 .21-.136.333a.5.5 0 0 1-.35.119m5.317-.854h.661v5.355h-.56l-.073-.648h-.028zm-2.601 3.566q0-.585.168-1.008.172-.427.494-.654.326-.228.777-.228.375 0 .651.15t.465.41h.158v.536a1.5 1.5 0 0 0-.494-.41 1.2 1.2 0 0 0-.528-.126q-.325 0-.55.147a.93.93 0 0 0-.343.445 2 2 0 0 0-.115.738q0 .434.112.725.115.29.336.44a1 1 0 0 0 .549.148q.28 0 .532-.123t.501-.41v.536h-.154a1.6 1.6 0 0 1-.497.41q-.28.15-.651.15-.452 0-.767-.227a1.43 1.43 0 0 1-.479-.651 2.7 2.7 0 0 1-.165-.998"/><path fill="#121521" d="M142.129 91.992h-12.257c-.781 0-1.414 1.758-1.414 3.928v7.857c0 2.17.633 3.929 1.414 3.929h12.257c.781 0 1.414-1.759 1.414-3.929V95.92c0-2.17-.633-3.928-1.414-3.928"/><rect width="63.205" height="15.775" x="149.2" y="91.961" fill="#121521" rx="2.514"/><path fill="#4b5563" d="m157.094 101.849-1.005-3.442h-.039l-.996 3.442h-.69l1.353-4.38h.735l1.362 4.38zm-2.019-1.635h2.061v.51h-2.061zm5.409-2.956h.666v4.591h-.573l-.063-.564h-.03zm-2.208 3.037q0-.498.141-.868.141-.369.414-.57.276-.2.669-.2.324 0 .558.129.237.126.387.341h.147v.469a1.2 1.2 0 0 0-.396-.294 1 1 0 0 0-.423-.09.8.8 0 0 0-.45.12.7.7 0 0 0-.273.36q-.093.24-.093.603 0 .36.09.597a.72.72 0 0 0 .273.354q.18.117.447.117.222 0 .426-.087.204-.09.399-.294v.468h-.144a1.4 1.4 0 0 1-.414.345 1.16 1.16 0 0 1-.558.129q-.39 0-.66-.201a1.25 1.25 0 0 1-.405-.567 2.5 2.5 0 0 1-.135-.861m5.23-1h.036v2.551h-.666V99.13l.135.136h-.918v-.54h1.356zm1.509.016q-.393 0-.651.03a2 2 0 0 0-.483.11q-.225.084-.471.256v-.528h.171q.243-.27.498-.397.255-.128.633-.129.165 0 .303.03zm-2.922 1.998h2.49v.54h-2.49zm3.625-1.026q0-.525.198-.892.198-.366.558-.552.36-.185.843-.186.447 0 .762.156.315.157.48.472.165.31.165.774v.285h-2.49v-.42h1.983l-.144.123v-.12q0-.369-.21-.552-.21-.186-.567-.186-.426 0-.663.275-.237.274-.237.823 0 .543.231.825.234.279.666.279a.9.9 0 0 0 .471-.114.75.75 0 0 0 .303-.354l.645.099q-.108.303-.315.504a1.3 1.3 0 0 1-.489.3 1.8 1.8 0 0 1-.618.099q-.471 0-.825-.186a1.33 1.33 0 0 1-.552-.555q-.195-.369-.195-.897m5.271-1.63q.42 0 .714.105a.9.9 0 0 1 .447.313q.153.207.156.516l-.603.044a.48.48 0 0 0-.213-.371q-.186-.124-.546-.124-.333 0-.516.1-.183.098-.183.29 0 .111.069.187.072.075.216.132.144.056.423.123.105.023.207.048.435.093.681.195a.9.9 0 0 1 .381.273.7.7 0 0 1 .135.447.87.87 0 0 1-.162.525 1 1 0 0 1-.48.342 2.2 2.2 0 0 1-.777.12q-.444 0-.744-.093-.3-.096-.48-.309a1.2 1.2 0 0 1-.246-.567l.612-.075q.06.231.183.351.126.12.291.159t.417.039q.246 0 .408-.054a.5.5 0 0 0 .234-.15.34.34 0 0 0 .075-.213.26.26 0 0 0-.093-.207.8.8 0 0 0-.282-.138 7 7 0 0 0-.585-.147 2.8 2.8 0 0 1-.618-.192.93.93 0 0 1-.372-.294.75.75 0 0 1-.129-.448q0-.437.345-.68.345-.247 1.035-.247m3.721 0q.42 0 .714.105a.9.9 0 0 1 .447.313q.153.207.156.516l-.603.044a.48.48 0 0 0-.213-.371q-.186-.124-.546-.124-.333 0-.516.1-.183.098-.183.29 0 .111.069.187.072.075.216.132.144.056.423.123.105.023.207.048.435.093.681.195a.9.9 0 0 1 .381.273.7.7 0 0 1 .135.447.87.87 0 0 1-.162.525 1 1 0 0 1-.48.342 2.2 2.2 0 0 1-.777.12q-.444 0-.744-.093-.3-.096-.48-.309a1.2 1.2 0 0 1-.246-.567l.612-.075q.06.231.183.351.126.12.291.159t.417.039q.246 0 .408-.054a.5.5 0 0 0 .234-.15.34.34 0 0 0 .075-.213.26.26 0 0 0-.093-.207.8.8 0 0 0-.282-.138 7 7 0 0 0-.585-.147 2.8 2.8 0 0 1-.618-.192.93.93 0 0 1-.372-.294.75.75 0 0 1-.129-.448q0-.437.345-.68.345-.247 1.035-.247m30.186 3.805a.352.352 0 0 1-.55 0c-.598-.762-1.969-2.578-1.969-3.61a2.25 2.25 0 0 1 4.5 0c0 1.032-1.371 2.848-1.981 3.61m-.269-4.36a.79.79 0 0 0-.656.376.78.78 0 0 0 0 .75.76.76 0 0 0 .656.374c.258 0 .504-.14.644-.374a.78.78 0 0 0 0-.75.78.78 0 0 0-.644-.376"/><rect width="79.827" height="15.714" x="218.062" y="91.992" fill="#121521" rx="2.514"/><path fill="#4b5563" d="m224.249 101.285-.066.564h-.573v-4.59h.666v4.026zm2.235-1.005q0 .501-.141.87-.138.366-.414.57a1.1 1.1 0 0 1-.669.201q-.321 0-.558-.129a1.1 1.1 0 0 1-.384-.345h-.147v-.465q.189.201.393.291.207.09.423.09a.8.8 0 0 0 .447-.117q.183-.12.276-.36.096-.24.096-.606 0-.36-.093-.594a.7.7 0 0 0-.27-.355.8.8 0 0 0-.45-.12q-.219 0-.423.09t-.399.291v-.465h.144q.174-.218.411-.344a1.16 1.16 0 0 1 .558-.13q.39 0 .657.201.27.202.405.567.138.366.138.859m1.855 1.569v-2.776l.135.187h-1.203v-.535l1.653-.072.081.081v3.115zm-1.068-.54h2.802v.54h-2.802zm1.281-3.276a.55.55 0 0 1-.243-.052.4.4 0 0 1-.165-.152.44.44 0 0 1-.06-.231q0-.198.129-.312a.5.5 0 0 1 .339-.118q.21 0 .339.117.129.114.129.313 0 .2-.129.317a.5.5 0 0 1-.339.117m3.816 1.263h.036v2.55h-.666V99.13l.135.136h-.918v-.54h1.356zm1.509.014q-.393 0-.651.03a2 2 0 0 0-.483.111q-.225.084-.471.256v-.528h.171q.243-.27.498-.397.255-.128.633-.129.165 0 .303.03zm-2.922 1.999h2.49v.54h-2.49zm6.472-2.584v.54h-2.88v-.54zm-.72 3.193q-.483.003-.762-.111a.77.77 0 0 1-.408-.405q-.132-.291-.132-.822v-2.79h.666v2.772q0 .312.069.48.069.165.219.231t.42.066q.324 0 .72-.099v.573q-.171.051-.375.078a3 3 0 0 1-.417.027m1.786-.069v-4.59h.666v4.59zm2.016 0v-2.083a.74.74 0 0 0-.066-.342.37.37 0 0 0-.183-.18.7.7 0 0 0-.27-.05.96.96 0 0 0-.507.14 1.6 1.6 0 0 0-.426.394v-.55h.183q.15-.161.3-.272.15-.115.339-.184.192-.068.432-.069.276 0 .468.1a.66.66 0 0 1 .294.305q.102.207.102.534v2.257zm1.455.69h3.18v.39h-3.18zm5.986-5.28h.666v4.59h-.573l-.063-.564h-.03zm-2.208 3.036q0-.498.141-.868.141-.369.414-.57.276-.2.669-.2.324 0 .558.129.237.126.387.341h.147v.469a1.2 1.2 0 0 0-.396-.294 1 1 0 0 0-.423-.09.8.8 0 0 0-.45.12.7.7 0 0 0-.273.36q-.093.24-.093.603 0 .36.09.597a.72.72 0 0 0 .273.354q.18.117.447.117.222 0 .426-.087.204-.09.399-.294v.468h-.144a1.4 1.4 0 0 1-.414.345 1.16 1.16 0 0 1-.558.129q-.39 0-.66-.201a1.25 1.25 0 0 1-.405-.567 2.5 2.5 0 0 1-.135-.861m5.167-1.642q.402 0 .675.096a.8.8 0 0 1 .423.316q.147.216.147.573v1.494q0 .111.03.165t.102.072q.075.015.213-.003v.483q-.225.063-.423.063a.7.7 0 0 1-.339-.072.4.4 0 0 1-.168-.195.8.8 0 0 1-.045-.288l-.036-.054v-1.63a.63.63 0 0 0-.078-.338.4.4 0 0 0-.216-.168 1 1 0 0 0-.336-.049q-.198 0-.336.046a.43.43 0 0 0-.219.153.45.45 0 0 0-.081.282l-.003.126h-.606v-.16q0-.422.312-.665.315-.247.984-.247m.849 1.855a3 3 0 0 0-.522-.051q-.333 0-.564.057a.75.75 0 0 0-.351.177.4.4 0 0 0-.12.303q0 .138.066.237a.4.4 0 0 0 .189.147q.123.051.294.051.225 0 .42-.084.198-.087.405-.249l.006.369h-.117a3 3 0 0 1-.3.243q-.132.09-.321.15a1.3 1.3 0 0 1-.411.063q-.279 0-.489-.099a.75.75 0 0 1-.324-.291.9.9 0 0 1-.111-.45q0-.423.288-.639.288-.219.732-.285a6 6 0 0 1 1.041-.057zm4.272-1.782v.54h-2.88v-.54zm-.72 3.192q-.483.003-.762-.111a.77.77 0 0 1-.408-.405q-.132-.291-.132-.822v-2.79h.666v2.772q0 .312.069.48.069.165.219.231t.42.066q.324 0 .72-.099v.573q-.171.051-.375.078a3 3 0 0 1-.417.027m1.594-1.635q0-.525.198-.892.198-.366.558-.552.36-.185.843-.186.447 0 .762.156.315.157.48.472.165.31.165.774v.285h-2.49v-.42h1.983l-.144.123v-.12q0-.369-.21-.552-.21-.186-.567-.186-.426 0-.663.275-.237.274-.237.823 0 .543.231.825.234.279.666.279a.9.9 0 0 0 .471-.114.75.75 0 0 0 .303-.354l.645.099q-.108.303-.315.504a1.3 1.3 0 0 1-.489.3 1.8 1.8 0 0 1-.618.099q-.471 0-.825-.186a1.33 1.33 0 0 1-.552-.555q-.195-.369-.195-.897m31.082-3.308c0-.2.164-.376.375-.376.2 0 .375.176.375.376v.374h1.5v-.374c0-.2.164-.376.375-.376.2 0 .375.176.375.376v.374h.563a.57.57 0 0 1 .562.563v.563h-5.25v-.563c0-.305.246-.562.563-.562h.562zm4.125 1.874v3.188a.563.563 0 0 1-.562.563h-4.125a.556.556 0 0 1-.563-.563v-3.187z"/><rect width="79.343" height="15.775" x="303.546" y="91.961" fill="#121521" rx="2.514"/><path fill="#4b5563" d="M311.928 100.883a1.3 1.3 0 0 1-.297.585q-.21.231-.51.342t-.66.111a1.7 1.7 0 0 1-.822-.186 1.3 1.3 0 0 1-.546-.555q-.192-.369-.192-.897 0-.54.201-.904.204-.365.561-.546.36-.18.831-.18.396 0 .705.126.312.124.501.376.192.252.228.62l-.651.057q-.051-.323-.261-.485-.207-.162-.54-.162-.441 0-.669.281-.225.28-.225.817 0 .369.105.615t.303.369q.201.12.477.12.318 0 .522-.15a.84.84 0 0 0 .297-.447zm1.894.966v-2.776l.135.187h-1.203v-.535l1.653-.072.081.081v3.115zm-1.068-.54h2.802v.54h-2.802zm1.281-3.276a.55.55 0 0 1-.243-.052.4.4 0 0 1-.165-.152.44.44 0 0 1-.06-.231q0-.198.129-.312a.5.5 0 0 1 .339-.118q.21 0 .339.117.129.114.129.313 0 .2-.129.317a.5.5 0 0 1-.339.117m5.155.692v.54h-2.88v-.54zm-.72 3.193q-.483.003-.762-.111a.77.77 0 0 1-.408-.405q-.132-.291-.132-.822v-2.79h.666v2.772q0 .312.069.48.069.165.219.231t.42.066q.324 0 .72-.099v.573q-.171.051-.375.078a3 3 0 0 1-.417.027m1.512-3.193h.714l.966 2.287h.042l.846-2.287h.669l-1.179 3.022q-.165.426-.363.711a1.4 1.4 0 0 1-.489.444 1.4 1.4 0 0 1-.699.159q-.084 0-.165-.009a2 2 0 0 1-.21-.03v-.594l.057.012a1.5 1.5 0 0 0 .333.036 1 1 0 0 0 .39-.069.64.64 0 0 0 .252-.177.9.9 0 0 0 .147-.258l.156-.459.132.219-.105.444zm55.503-1.563v1.688h1.313a.57.57 0 0 1 .562.562v2.625a.563.563 0 0 1-.562.563h-6.375a.556.556 0 0 1-.563-.563v-3.75c0-.305.246-.562.563-.562h.187v-.844c0-.153.118-.281.282-.281.152 0 .281.128.281.28v.844h.75v-.843c0-.153.117-.281.281-.281.152 0 .281.128.281.28v.844h.75v-.562c0-.305.246-.562.563-.562h1.125a.57.57 0 0 1 .562.562m1.125 3.75a.2.2 0 0 0-.187-.187h-.375a.19.19 0 0 0-.188.187v.375c0 .105.082.188.188.188h.375a.193.193 0 0 0 .187-.188zm-3.937.563a.193.193 0 0 0 .187-.188v-.375a.2.2 0 0 0-.187-.187h-.375a.19.19 0 0 0-.188.187v.375c0 .105.082.188.188.188zm-1.313-.188v-.375a.2.2 0 0 0-.187-.187h-.375a.19.19 0 0 0-.188.187v.375c0 .105.082.188.188.188h.375a.193.193 0 0 0 .187-.188m5.063-1.687h-.375a.193.193 0 0 0-.188.187v.375c0 .105.082.188.188.188h.375a.193.193 0 0 0 .187-.188v-.375a.2.2 0 0 0-.187-.187m-3.563-.938a.2.2 0 0 0-.187-.187h-.375a.193.193 0 0 0-.188.187v.375c0 .105.082.188.188.188h.375a.19.19 0 0 0 .187-.188zm-1.687-.187h-.375a.193.193 0 0 0-.188.187v.375c0 .105.082.188.188.188h.375a.19.19 0 0 0 .187-.188v-.375a.2.2 0 0 0-.187-.187m1.687 1.687v-.375a.2.2 0 0 0-.187-.187h-.375a.193.193 0 0 0-.188.187v.375c0 .105.082.188.188.188h.375a.193.193 0 0 0 .187-.188m-1.687.188a.193.193 0 0 0 .187-.188v-.375a.2.2 0 0 0-.187-.187h-.375a.193.193 0 0 0-.188.187v.375c0 .105.082.188.188.188zm3.562-.563a.2.2 0 0 0-.187-.187h-.375a.193.193 0 0 0-.188.187v.375c0 .105.082.188.188.188h.375a.193.193 0 0 0 .187-.188zm-.187-2.437h-.375a.193.193 0 0 0-.188.187v.375c0 .105.082.188.188.188h.375a.19.19 0 0 0 .187-.188v-.375a.2.2 0 0 0-.187-.187m.187 1.312a.2.2 0 0 0-.187-.187h-.375a.193.193 0 0 0-.188.187v.375c0 .105.082.188.188.188h.375a.19.19 0 0 0 .187-.188z"/><rect width="60.342" height="15.714" x="388.546" y="91.992" fill="#121521" rx="2.514"/><path fill="#4b5563" d="M395.101 101.849v-2.776l.135.187h-1.203v-.535l1.653-.072.081.081v3.115zm-1.068-.54h2.802v.54h-2.802zm1.281-3.276a.55.55 0 0 1-.243-.052.4.4 0 0 1-.165-.152.44.44 0 0 1-.06-.231q0-.198.129-.312a.5.5 0 0 1 .339-.118q.21 0 .339.117.129.114.129.313 0 .2-.129.317a.5.5 0 0 1-.339.117m4.516-.775h.666v4.591h-.573l-.063-.564h-.03zm-2.208 3.037q0-.498.141-.868.141-.369.414-.57.276-.2.669-.2.324 0 .558.129.237.126.387.341h.147v.469a1.2 1.2 0 0 0-.396-.294 1 1 0 0 0-.423-.09.8.8 0 0 0-.45.12.7.7 0 0 0-.273.36q-.093.24-.093.603 0 .36.09.597a.72.72 0 0 0 .273.354q.18.117.447.117.222 0 .426-.087.204-.09.399-.294v.468h-.144a1.4 1.4 0 0 1-.414.345 1.16 1.16 0 0 1-.558.129q-.39 0-.66-.201a1.25 1.25 0 0 1-.405-.567 2.5 2.5 0 0 1-.135-.861m42.804 2.155.351-4.98h.807l-.351 4.98zm1.428 0 .351-4.98h.807l-.351 4.98zm-1.737-3.846h3.339v.813h-3.339zm-.132 1.899h3.339v.813h-3.339z"/><path fill="#818cf8" d="M142.129 113.079h-12.257c-.781 0-1.414 1.758-1.414 3.928v7.857c0 2.17.633 3.929 1.414 3.929h12.257c.781 0 1.414-1.759 1.414-3.929v-7.857c0-2.17-.633-3.928-1.414-3.928"/><rect width="63.205" height="15.775" x="149.2" y="113.048" fill="#121521" rx="2.514"/><rect width="79.827" height="16.343" x="218.062" y="112.764" fill="#121521" rx="2.514"/><rect width="79.343" height="15.775" x="303.546" y="113.048" fill="#121521" rx="2.514"/><rect width="60.342" height="15.714" x="388.546" y="113.079" fill="#121521" rx="2.514"/><path fill="#121521" d="M142.129 134.45h-12.257c-.781 0-1.414 1.758-1.414 3.928v7.857c0 2.17.633 3.929 1.414 3.929h12.257c.781 0 1.414-1.759 1.414-3.929v-7.857c0-2.17-.633-3.928-1.414-3.928"/><rect width="63.205" height="15.775" x="149.2" y="134.419" fill="#121521" rx="2.514"/><rect width="79.827" height="16.343" x="218.062" y="134.135" fill="#121521" rx="2.514"/><rect width="79.343" height="15.775" x="303.546" y="134.419" fill="#121521" rx="2.514"/><rect width="60.342" height="15.714" x="388.546" y="134.45" fill="#121521" rx="2.514"/><path fill="#121521" d="M142.129 155.821h-12.257c-.781 0-1.414 1.758-1.414 3.928v7.857c0 2.17.633 3.929 1.414 3.929h12.257c.781 0 1.414-1.759 1.414-3.929v-7.857c0-2.17-.633-3.928-1.414-3.928"/><rect width="63.205" height="15.775" x="149.2" y="155.79" fill="#121521" rx="2.514"/><rect width="79.827" height="16.343" x="218.062" y="155.506" fill="#121521" rx="2.514"/><rect width="79.343" height="15.775" x="303.546" y="155.79" fill="#121521" rx="2.514"/><rect width="60.342" height="15.714" x="388.546" y="155.821" fill="#121521" rx="2.514"/><path fill="#121521" d="M142.129 177.192h-12.257c-.781 0-1.414 1.758-1.414 3.928v7.857c0 2.17.633 3.928 1.414 3.928h12.257c.781 0 1.414-1.758 1.414-3.928v-7.857c0-2.17-.633-3.928-1.414-3.928"/><rect width="63.205" height="15.775" x="149.2" y="177.161" fill="#121521" rx="2.514"/><rect width="79.827" height="16.343" x="218.062" y="176.877" fill="#121521" rx="2.514"/><rect width="79.343" height="15.775" x="303.546" y="177.161" fill="#121521" rx="2.514"/><rect width="60.342" height="15.714" x="388.546" y="177.192" fill="#121521" rx="2.514"/><path fill="url(#a)" d="M85.56 97.14a1.5 1.5 0 0 0-2.12 0l-9.547 9.545a1.5 1.5 0 0 0 2.122 2.122l8.485-8.486 8.485 8.486a1.501 1.501 0 0 0 2.122-2.122zM342.5 271.2v-1.5c-70.988 0-135.188-19.297-181.598-50.416C114.482 188.157 86 145.319 86 98.2h-3c0 48.426 29.273 92.088 76.231 123.575C206.199 253.269 270.999 272.7 342.5 272.7z"/><path fill="url(#b)" d="M184.561 127.139a1.5 1.5 0 0 0-2.122 0l-9.546 9.546a1.5 1.5 0 0 0 0 2.122 1.5 1.5 0 0 0 2.122 0l8.485-8.486 8.485 8.486a1.5 1.5 0 0 0 2.122 0 1.5 1.5 0 0 0 0-2.122zM342.5 271.2v-1.5c-87.138 0-157.5-63.497-157.5-141.5h-3c0 79.951 72.012 144.5 160.5 144.5z"/><path fill="url(#c)" d="M418.439 101.139a1.5 1.5 0 0 1 2.122 0l9.546 9.546a1.5 1.5 0 0 1 0 2.122 1.5 1.5 0 0 1-2.122 0l-8.485-8.486-8.485 8.486a1.5 1.5 0 0 1-2.122 0 1.5 1.5 0 0 1 0-2.122zM342.5 271.2v-1.5c20.315 0 39.195-18.14 53.082-48.621C409.409 190.733 418 148.704 418 102.2h3c0 46.832-8.646 89.303-22.688 120.123-13.981 30.685-33.601 50.377-55.812 50.377z"/><path fill="url(#d)" d="M284.561 168.139a1.5 1.5 0 0 0-2.122 0l-9.546 9.546a1.5 1.5 0 0 0 0 2.122 1.5 1.5 0 0 0 2.122 0l8.485-8.486 8.485 8.486a1.5 1.5 0 0 0 2.122 0 1.5 1.5 0 0 0 0-2.122zM342.5 271.2v-1.5c-15.531 0-29.876-10.895-40.421-29.126C291.556 222.382 285 197.151 285 169.2h-3c0 28.382 6.651 54.151 17.482 72.876 10.809 18.686 25.964 30.624 43.018 30.624z"/><rect width="8.895" height="6.059" x="342.992" y="282.217" fill="url(#e)" rx="3.029"/><rect width="6.459" height="3.623" x="344.21" y="283.435" stroke="url(#f)" stroke-opacity=".46" stroke-width="2.436" rx="1.811"/><rect width="8.895" height="6.059" x="353.834" y="282.217" fill="url(#g)" rx="3.029"/><rect width="6.459" height="3.623" x="355.052" y="283.435" stroke="url(#h)" stroke-opacity=".46" stroke-width="2.436" rx="1.811"/><path fill="url(#i)" stroke="#1f2937" stroke-width="2.436" d="M293.153 286.464h121.101a3.435 3.435 0 0 1 0 6.872H293.153a3.436 3.436 0 0 1 0-6.872Z"/><path fill="url(#j)" stroke="#1f2937" stroke-width="2.436" d="M346.18 152.418h159.64a7.46 7.46 0 0 1 7.462 7.462v125.64a7.46 7.46 0 0 1-7.462 7.462H346.18a7.46 7.46 0 0 1-7.462-7.462V159.88a7.46 7.46 0 0 1 7.462-7.462Z"/><rect width="170.272" height="140.709" x="342.873" y="152.626" fill="url(#k)" stroke="#1f2937" stroke-width="2.436" rx="7.462"/><ellipse cx="33.121" cy="37.063" fill="#030712" rx="33.121" ry="37.063" transform="matrix(-1 0 0 1 466.26 189.26)"/><path fill="#f9fafb" fill-rule="evenodd" d="M419.118 230.073a1.78 1.78 0 0 0 .014 1.879l6.566 10.356a1.77 1.77 0 0 0 2.009.75l18.946-5.683a1.776 1.776 0 0 0 1.103-2.444l-12.18-26.42c-.594-1.289-2.384-1.394-3.126-.185zm16.135-15.522c-.259-.599-1.136-.507-1.264.133l-4.689 23.347a.666.666 0 0 0 .843.769l13.09-3.907a.667.667 0 0 0 .421-.903z" clip-rule="evenodd"/><defs><linearGradient id="a" x1="213.5" x2="213.5" y1="98.2" y2="299.7" gradientUnits="userSpaceOnUse"><stop stop-color="#818cf8"/><stop offset="1" stop-color="#111827"/></linearGradient><linearGradient id="b" x1="263" x2="263" y1="128.2" y2="294.758" gradientUnits="userSpaceOnUse"><stop stop-color="#818cf8"/><stop offset="1" stop-color="#111827"/></linearGradient><linearGradient id="c" x1="381" x2="381" y1="102.2" y2="299.041" gradientUnits="userSpaceOnUse"><stop stop-color="#818cf8"/><stop offset="1" stop-color="#111827"/></linearGradient><linearGradient id="d" x1="313" x2="313" y1="169.2" y2="288.003" gradientUnits="userSpaceOnUse"><stop stop-color="#818cf8"/><stop offset="1" stop-color="#111827"/></linearGradient><linearGradient id="e" x1="350.445" x2="344.127" y1="282.921" y2="286.631" gradientUnits="userSpaceOnUse"><stop stop-color="#b9cad2"/><stop offset="1" stop-color="#dbe6eb"/></linearGradient><linearGradient id="g" x1="361.287" x2="354.969" y1="282.921" y2="286.631" gradientUnits="userSpaceOnUse"><stop stop-color="#b9cad2"/><stop offset="1" stop-color="#dbe6eb"/></linearGradient><linearGradient id="i" x1="338.595" x2="289.032" y1="303.374" y2="268.708" gradientUnits="userSpaceOnUse"><stop stop-color="#161d2b"/><stop offset="1" stop-color="#4a5568"/></linearGradient><linearGradient id="j" x1="356" x2="523.302" y1="298.7" y2="-207.506" gradientUnits="userSpaceOnUse"><stop stop-color="#161d2b"/><stop offset="1" stop-color="#4a5568"/></linearGradient><linearGradient id="k" x1="408" x2="482.282" y1="430.2" y2="181.749" gradientUnits="userSpaceOnUse"><stop stop-color="#161d2b"/><stop offset="1" stop-color="#4a5568"/></linearGradient><radialGradient id="f" cx="0" cy="0" r="1" gradientTransform="matrix(3.18789 -4.07647 5.98476 15.9101 344.278 287.81)" gradientUnits="userSpaceOnUse"><stop stop-color="#fff"/><stop offset="1" stop-color="#fff" stop-opacity="0"/></radialGradient><radialGradient id="h" cx="0" cy="0" r="1" gradientTransform="matrix(3.18789 -4.07647 5.98476 15.9101 355.119 287.81)" gradientUnits="userSpaceOnUse"><stop stop-color="#fff"/><stop offset="1" stop-color="#fff" stop-opacity="0"/></radialGradient></defs></svg>