<svg xmlns="http://www.w3.org/2000/svg" width="561" height="215" fill="none" viewBox="0 0 561 215"><path fill="#0a101d" d="M5.5 35.5h534A5.5 5.5 0 0 1 545 41v167.608a5.5 5.5 0 0 1-5.5 5.5H5.5a5.5 5.5 0 0 1-5.5-5.5V41a5.5 5.5 0 0 1 5.5-5.5"/><path stroke="#1f2937" d="M5.5 35.5h534A5.5 5.5 0 0 1 545 41v167.608a5.5 5.5 0 0 1-5.5 5.5H5.5a5.5 5.5 0 0 1-5.5-5.5V41a5.5 5.5 0 0 1 5.5-5.5Z"/><rect width="33.367" height="30.588" x="19.5" y="55" fill="#030712" rx="7.747"/><path fill="#4b5563" d="m39.404 67.185-.45-.45a4.283 4.283 0 0 0-6.01 0 4.283 4.283 0 0 0 0 6.01 4.283 4.283 0 0 0 6.01 0c.318-.344.847-.344 1.191 0 .318.317.318.847 0 1.191a5.96 5.96 0 0 1-8.393 0 5.96 5.96 0 0 1 0-8.393 5.96 5.96 0 0 1 8.393 0l.477.476v-1.376c0-.45.37-.848.847-.848.45 0 .847.397.847.848v3.389a.853.853 0 0 1-.847.847H38.08a.836.836 0 0 1-.847-.847c0-.45.37-.847.847-.847z"/><rect width="97.796" height="30.588" x="60.613" y="55" fill="#030712" rx="7.747"/><path fill="#4b5563" d="M76.044 73.81v-8.76h1.572v8.76zm4.818-3.48H76.98v-1.254h3.882zm-4.002-3.978V65.05h4.752v1.302zm8.677 7.458v-5.478l.27.384H83.45V67.48l3.432-.144.18.174v6.3zm-2.088-1.242h5.694v1.242H83.45zm2.592-6.306q-.306 0-.54-.114a.9.9 0 0 1-.366-.336 1 1 0 0 1-.126-.51q0-.438.282-.69.288-.258.75-.258.468 0 .75.258.288.252.288.69t-.288.702q-.282.258-.75.258m4.85 6.306h5.7v1.242h-5.7zm2.087 1.242v-8.334l.27.39h-2.352V64.63l3.433-.15.18.18-.007 9.15zm10.832-6.33v1.242h-5.76V67.48zm-1.446 6.492q-1.002 0-1.572-.228a1.53 1.53 0 0 1-.834-.822q-.264-.588-.264-1.692v-5.556h1.524v5.544q0 .582.126.888a.77.77 0 0 0 .414.426q.282.12.792.12.612 0 1.404-.192v1.302q-.348.102-.75.156a6 6 0 0 1-.84.054m3.133-3.336q0-1.074.402-1.812a2.65 2.65 0 0 1 1.14-1.116q.732-.372 1.71-.372.912 0 1.554.324.642.318.972.96.336.642.336 1.602v.6h-4.92v-.93h3.702l-.27.24v-.24q0-.672-.384-1.014-.378-.348-1.038-.348-.78 0-1.218.516t-.438 1.59q0 1.038.42 1.578.426.54 1.224.54.504 0 .864-.21.366-.216.558-.648l1.482.216a2.6 2.6 0 0 1-.66 1.05 2.7 2.7 0 0 1-1.008.6q-.57.192-1.236.192-.954 0-1.674-.378a2.66 2.66 0 0 1-1.122-1.122q-.396-.744-.396-1.818m10.604-1.992h.09v5.16h-1.53v-5.352l.27.27h-1.764V67.48h2.826zm2.982.21q-.762 0-1.272.048t-.966.198q-.45.144-.924.432v-1.116h.354q.462-.558.954-.816.498-.258 1.236-.258.342 0 .618.06zm-5.916 3.714h5.01v1.242h-5.01zm10.381-5.232q.864 0 1.464.216.6.21.906.636t.288 1.044l-1.38.108q-.042-.462-.378-.684-.336-.228-1.002-.228-.606 0-.936.18-.33.174-.33.516 0 .21.138.354.144.138.42.24t.834.24l.396.096q.846.192 1.326.396.48.198.762.552.282.348.282.924 0 .624-.336 1.08t-1.002.702q-.66.246-1.608.246-.894 0-1.494-.198a2.04 2.04 0 0 1-.948-.624q-.354-.432-.48-1.134l1.398-.162q.102.408.318.63t.516.306q.306.078.768.078t.756-.096q.3-.102.438-.27a.6.6 0 0 0 .138-.378q0-.24-.186-.39a1.6 1.6 0 0 0-.54-.258 17 17 0 0 0-1.134-.288 5.5 5.5 0 0 1-1.212-.39 1.9 1.9 0 0 1-.744-.606q-.264-.378-.264-.93 0-.906.708-1.404.714-.504 2.118-.504"/><path fill="#1f2937" d="M139.491 64.912q.9 0 1.53.264.636.258.96.768.33.51.33 1.242 0 .744-.348 1.23-.342.48-.882.72a3.8 3.8 0 0 1-1.158.294v-.222q.72.048 1.29.252.576.198.948.684.378.48.378 1.314 0 .774-.354 1.338-.354.558-1.026.858t-1.62.3q-.96 0-1.626-.288a2.14 2.14 0 0 1-1.008-.864q-.348-.576-.366-1.434l1.284-.12q.072.528.276.876a1.3 1.3 0 0 0 .558.522q.354.174.864.174.822 0 1.218-.378.402-.378.402-1.008 0-.552-.294-.894a1.64 1.64 0 0 0-.798-.492 4 4 0 0 0-1.182-.156h-.15v-1.038h.15q.654 0 1.128-.186.48-.186.732-.534t.252-.828a1.3 1.3 0 0 0-.174-.69 1.06 1.06 0 0 0-.498-.444 1.8 1.8 0 0 0-.78-.156q-.444 0-.768.156-.324.15-.522.474-.198.318-.258.822l-1.248-.12q.018-.846.366-1.386.354-.546.966-.798t1.428-.252"/><rect width="89.796" height="30.588" x="166.156" y="55" fill="#030712" rx="7.747"/><path fill="#4b5563" d="M181.533 73.81v-8.76h1.77v8.76zm4.89-3.354h-3.852v-1.41h3.852zm-4.002-3.942V65.05h4.746v1.464zm8.557 7.296v-5.412l.27.402h-2.304v-1.398l3.558-.156.204.192v6.372zm-2.034-1.404h5.79v1.404h-5.79zm2.628-6.066q-.336 0-.594-.126a1 1 0 0 1-.402-.372 1.05 1.05 0 0 1-.144-.552q0-.474.312-.756t.828-.282q.51 0 .822.282t.312.756q0 .48-.312.768-.312.282-.822.282m4.519 4.248q0-1.098.414-1.842.42-.75 1.164-1.116.75-.372 1.74-.372.924 0 1.578.324t.99.99q.342.66.342 1.65v.624h-4.86v-1.008h3.432l-.252.222v-.234q0-.612-.342-.924-.342-.318-.942-.318-.714 0-1.122.48-.402.48-.402 1.524 0 .996.384 1.518.384.516 1.122.516.45 0 .78-.192t.516-.588l1.674.234a2.6 2.6 0 0 1-.684 1.086q-.456.42-1.044.606a4 4 0 0 1-1.248.186q-.966 0-1.698-.378a2.7 2.7 0 0 1-1.134-1.14q-.408-.756-.408-1.848m7.736 1.818h5.796v1.404h-5.796zm2.034 1.404.006-8.178.27.396h-2.304V64.63l3.558-.156.198.192v9.144zm9.451-9.18h1.722v9.18h-1.506l-.138-1.152h-.078zm-4.338 6q0-.99.258-1.746.264-.756.804-1.188.546-.432 1.362-.432.648 0 1.11.258t.714.666h.348v.96a2.4 2.4 0 0 0-.69-.348 2.4 2.4 0 0 0-.714-.114q-.492 0-.81.21-.318.204-.48.636-.162.426-.162 1.098t.156 1.092q.162.414.48.618.318.198.81.198a2.4 2.4 0 0 0 1.41-.462v.966h-.342a2.5 2.5 0 0 1-.78.666q-.462.258-1.098.258-.804 0-1.332-.426t-.786-1.17q-.258-.75-.258-1.74m10.682-3.372q.888 0 1.5.222.612.216.912.648.306.426.276 1.05l-1.554.12q-.042-.42-.336-.624-.294-.21-.906-.21-.552 0-.852.162-.294.156-.294.456 0 .198.138.33.144.126.408.222.27.09.822.234.198.042.384.09.816.204 1.284.402.474.192.768.558.294.36.294.96 0 .648-.354 1.116-.348.462-1.032.714-.684.246-1.668.246-.894 0-1.494-.198a2 2 0 0 1-.942-.636q-.342-.432-.468-1.14l1.572-.168q.09.36.27.564.18.198.456.282t.702.084.696-.09q.276-.09.396-.234a.5.5 0 0 0 .126-.336.43.43 0 0 0-.186-.36 1.5 1.5 0 0 0-.51-.24 19 19 0 0 0-1.092-.282 5.4 5.4 0 0 1-1.182-.402 2 2 0 0 1-.75-.624q-.27-.39-.27-.96 0-.936.726-1.446.732-.51 2.16-.51"/><path fill="#1f2937" d="M237.034 64.912q.9 0 1.53.264.636.258.96.768.33.51.33 1.242 0 .744-.348 1.23-.342.48-.882.72a3.8 3.8 0 0 1-1.158.294v-.222q.72.048 1.29.252.576.198.948.684.378.48.378 1.314 0 .774-.354 1.338-.354.558-1.026.858t-1.62.3q-.96 0-1.626-.288a2.14 2.14 0 0 1-1.008-.864q-.348-.576-.366-1.434l1.284-.12q.072.528.276.876a1.3 1.3 0 0 0 .558.522q.354.174.864.174.822 0 1.218-.378.402-.378.402-1.008 0-.552-.294-.894a1.64 1.64 0 0 0-.798-.492 4 4 0 0 0-1.182-.156h-.15v-1.038h.15q.654 0 1.128-.186.48-.186.732-.534t.252-.828a1.3 1.3 0 0 0-.174-.69 1.06 1.06 0 0 0-.498-.444 1.8 1.8 0 0 0-.78-.156q-.444 0-.768.156-.324.15-.522.474-.198.318-.258.822l-1.248-.12q.018-.846.366-1.386.354-.546.966-.798t1.428-.252"/><rect width="134.796" height="30.588" x="263.699" y="55" fill="#030712" rx="7.747"/><path fill="#4b5563" d="M283.444 67.642q-.054-.498-.222-.786a.96.96 0 0 0-.456-.42q-.288-.132-.726-.132-.636 0-.948.246-.312.24-.312.684 0 .366.198.6.204.228.534.384.33.15.942.348.93.318 1.5.63t.9.804.33 1.242q0 .858-.42 1.47t-1.17.93q-.744.318-1.71.318-.936 0-1.614-.276a2.4 2.4 0 0 1-1.08-.864q-.402-.588-.486-1.506l1.692-.252q.12.744.498 1.098t1.11.354q.702 0 1.02-.282a.95.95 0 0 0 .318-.744q0-.33-.18-.546-.174-.216-.534-.39t-1.104-.444a7 7 0 0 1-1.302-.606 2.7 2.7 0 0 1-.864-.858q-.324-.522-.324-1.248 0-.798.366-1.35.366-.558 1.062-.846t1.686-.288q1.404 0 2.172.642.768.636.78 1.92zm3.073 6.168v-9.18h1.722v9.18zm4.014 0v-4.266q0-.342-.102-.546a.57.57 0 0 0-.282-.288 1 1 0 0 0-.438-.084q-.474 0-.9.246a3.4 3.4 0 0 0-.822.684v-1.194h.444q.342-.378.648-.612t.672-.36a2.4 2.4 0 0 1 .828-.132q.558 0 .93.192t.558.6q.186.402.186 1.05v4.71zm9.487-3.174q0 1.122-.426 1.872-.42.744-1.14 1.098-.72.348-1.626.348t-1.626-.348a2.67 2.67 0 0 1-1.14-1.098q-.426-.75-.426-1.872 0-1.128.426-1.884a2.7 2.7 0 0 1 1.146-1.128 3.5 3.5 0 0 1 1.62-.366q.9 0 1.62.366.726.366 1.146 1.128.426.756.426 1.884m-1.74-.006q0-.738-.186-1.188-.186-.456-.51-.654a1.37 1.37 0 0 0-.756-.204 1.4 1.4 0 0 0-.762.204q-.324.198-.51.654-.18.45-.18 1.188 0 .732.18 1.176.186.444.504.63.324.186.768.186t.762-.186.504-.63.186-1.176m4.154-3.228.768 3.84h.084l1.026-3.12h1.044l.87 3.12h.108l.786-3.84h1.584l-1.464 6.408h-1.392l-1.08-3.564h-.072l-1.152 3.564h-1.296l-1.452-6.408zm8.923 6.408v-5.412l.27.402h-1.806v-1.398l3.06-.156.198.192v6.372zm-1.536-1.404h4.782v1.404h-4.782zm2.142-6.006q-.336 0-.594-.126a1 1 0 0 1-.402-.372 1.05 1.05 0 0 1-.144-.552q0-.474.312-.756t.828-.282q.51 0 .822.282t.312.756q0 .48-.312.768-.312.282-.822.282m6.044 7.41h-1.722v-6.408h1.506l.114 1.158h.102zm2.292 0v-4.266q0-.342-.102-.546a.57.57 0 0 0-.282-.288 1 1 0 0 0-.438-.084q-.48 0-.906.246-.42.246-.822.684v-1.194h.348q.504-.552 1.026-.828a2.6 2.6 0 0 1 1.218-.276q.558 0 .93.192t.558.6q.192.402.192 1.05v4.71zm3.103-3.57q0-.876.282-1.548a2.36 2.36 0 0 1 .822-1.05q.54-.378 1.296-.378.438 0 .798.126.36.12.624.33.264.204.426.468h.348v.96a2.4 2.4 0 0 0-.69-.348 2.4 2.4 0 0 0-.714-.114q-.462 0-.786.18t-.498.528q-.168.348-.168.846 0 .492.168.834.168.336.492.51t.786.174a2.4 2.4 0 0 0 1.41-.462v.966h-.342a2.4 2.4 0 0 1-.792.666q-.474.258-1.11.258-.738 0-1.272-.372a2.3 2.3 0 0 1-.804-1.032q-.276-.666-.276-1.542m6.06 3.198q0 .954-.33 1.548a1.95 1.95 0 0 1-.984.882q-.654.288-1.668.288-.924 0-1.524-.222-.594-.216-.906-.6a2.3 2.3 0 0 1-.438-.906l1.572-.318q.18.438.474.654.3.216.822.216.6 0 .93-.318.33-.312.33-1.032v-5.124h.102l.114-1.104h1.506z"/><path fill="#1f2937" d="M342.595 64.912q.918 0 1.56.27.648.264.984.786.336.516.336 1.254 0 .768-.36 1.26-.36.486-.906.714a3.6 3.6 0 0 1-1.14.27v-.264q.702.036 1.272.228.576.192.954.678.378.48.378 1.32 0 .816-.378 1.386-.372.564-1.062.852-.684.288-1.62.288-.966 0-1.644-.276a2.17 2.17 0 0 1-1.044-.852q-.36-.582-.372-1.47l1.446-.144q.072.492.258.816.186.318.516.48t.822.162q.774 0 1.128-.354.354-.36.354-.93 0-.51-.264-.816-.264-.312-.738-.45a4 4 0 0 0-1.134-.138h-.15v-1.158h.156q.63 0 1.08-.174.456-.174.69-.498.24-.33.24-.78 0-.384-.156-.654a1.02 1.02 0 0 0-.456-.414q-.3-.144-.72-.144t-.726.15q-.3.144-.492.456-.186.306-.246.792l-1.398-.144q0-.858.342-1.416t.972-.822 1.518-.264m18.105 5.76q0 1.098-.414 1.836t-1.122 1.092q-.702.354-1.59.354a3.5 3.5 0 0 1-1.596-.354 2.6 2.6 0 0 1-1.116-1.092q-.414-.744-.414-1.836 0-1.104.414-1.848.414-.75 1.122-1.116a3.4 3.4 0 0 1 1.59-.372q.882 0 1.59.372a2.67 2.67 0 0 1 1.122 1.116q.414.744.414 1.848m-1.548-.006q0-.744-.198-1.218t-.552-.69a1.5 1.5 0 0 0-.828-.222q-.48 0-.834.222-.348.216-.546.69t-.198 1.218.198 1.212q.198.462.546.672.354.204.834.204t.828-.204q.354-.21.552-.672.198-.468.198-1.212m8.935-5.058a8 8 0 0 0-.708-.126 4.5 4.5 0 0 0-.66-.048q-.54 0-.846.132a.85.85 0 0 0-.45.456q-.144.324-.144.924v6.864h-1.53v-6.552q0-1.128.318-1.818t.954-1.002q.642-.318 1.626-.318.396 0 .75.048.36.042.69.138zm-5.838 6.96h5.016v1.242h-5.016zm5.64-3.846h-6.006V67.48h6.006zm11.913-3.81q.918 0 1.56.27.648.264.984.786.336.516.336 1.254 0 .768-.36 1.26-.36.486-.906.714a3.6 3.6 0 0 1-1.14.27v-.264q.702.036 1.272.228.576.192.954.678.378.48.378 1.32 0 .816-.378 1.386-.372.564-1.062.852-.684.288-1.62.288-.966 0-1.644-.276a2.17 2.17 0 0 1-1.044-.852q-.36-.582-.372-1.47l1.446-.144q.072.492.258.816.186.318.516.48t.822.162q.774 0 1.128-.354.354-.36.354-.93 0-.51-.264-.816-.264-.312-.738-.45a4 4 0 0 0-1.134-.138h-.15v-1.158h.156q.63 0 1.08-.174.456-.174.69-.498.24-.33.24-.78 0-.384-.156-.654a1.02 1.02 0 0 0-.456-.414q-.3-.144-.72-.144t-.726.15q-.3.144-.492.456-.186.306-.246.792l-1.398-.144q0-.858.342-1.416t.972-.822 1.518-.264"/><rect width="104.05" height="30.588" x="406.242" y="55" fill="#030712" rx="7.747"/><path fill="#4b5563" d="m426.323 73.81-1.848-6.558h-.084l-1.818 6.558h-1.59l2.652-8.76h1.68l2.676 8.76zm-3.87-3.252h4.17v1.146h-4.17zm10.723-5.928h1.53v9.18h-1.332l-.132-1.14h-.066zm-4.374 6.036q0-.996.27-1.74t.816-1.158q.546-.42 1.344-.42.648 0 1.116.258.468.252.744.672h.318v.948a2.3 2.3 0 0 0-.738-.462q-.384-.15-.78-.15-.51 0-.852.222t-.516.678-.174 1.152.168 1.146q.174.444.51.66.342.216.858.216.402 0 .786-.144.384-.15.738-.468v.948h-.312q-.33.426-.804.684-.474.252-1.11.252-.786 0-1.32-.414t-.798-1.152-.264-1.728m11.815-6.036h1.53v9.18h-1.332l-.132-1.14h-.066zm-4.374 6.036q0-.996.27-1.74t.816-1.158q.546-.42 1.344-.42.648 0 1.116.258.468.252.744.672h.318v.948a2.3 2.3 0 0 0-.738-.462q-.384-.15-.78-.15-.51 0-.852.222t-.516.678-.174 1.152.168 1.146q.174.444.51.66.342.216.858.216.402 0 .786-.144.384-.15.738-.468v.948h-.312q-.33.426-.804.684-.474.252-1.11.252-.786 0-1.32-.414t-.798-1.152-.264-1.728m18.045-2.022h.09v5.16h-1.53v-5.352l.27.27h-1.764V67.48h2.826zm2.982.21q-.762 0-1.272.048t-.966.198q-.45.144-.924.432v-1.116h.354q.462-.558.954-.816.498-.258 1.236-.258.342 0 .618.06zm-5.916 3.714h5.01v1.242h-5.01zm7.214-1.932q0-1.074.402-1.812a2.65 2.65 0 0 1 1.14-1.116q.732-.372 1.71-.372.912 0 1.554.324.642.318.972.96.336.642.336 1.602v.6h-4.92v-.93h3.702l-.27.24v-.24q0-.672-.384-1.014-.378-.348-1.038-.348-.78 0-1.218.516t-.438 1.59q0 1.038.42 1.578.426.54 1.224.54.504 0 .864-.21.366-.216.558-.648l1.482.216a2.6 2.6 0 0 1-.66 1.05 2.7 2.7 0 0 1-1.008.6q-.57.192-1.236.192-.954 0-1.674-.378a2.66 2.66 0 0 1-1.122-1.122q-.396-.744-.396-1.818m13.603 1.194q-.174.732-.618 1.212a2.6 2.6 0 0 1-1.05.696 4 4 0 0 1-1.338.216q-.96 0-1.674-.378a2.6 2.6 0 0 1-1.098-1.116q-.384-.744-.384-1.812 0-1.11.414-1.848a2.6 2.6 0 0 1 1.14-1.104q.732-.36 1.68-.36.81 0 1.446.258t1.02.774q.39.516.456 1.278l-1.482.126q-.102-.606-.486-.918-.378-.318-1.002-.318-.804 0-1.224.54-.414.534-.414 1.572 0 .702.192 1.176.192.468.558.702.366.228.882.228.588 0 .96-.288.378-.288.552-.834zm7.531-1.158q0 1.098-.414 1.836t-1.122 1.092q-.702.354-1.59.354a3.5 3.5 0 0 1-1.596-.354 2.6 2.6 0 0 1-1.116-1.092q-.414-.744-.414-1.836 0-1.104.414-1.848.414-.75 1.122-1.116a3.4 3.4 0 0 1 1.59-.372q.882 0 1.59.372a2.67 2.67 0 0 1 1.122 1.116q.414.744.414 1.848m-1.548-.006q0-.744-.198-1.218t-.552-.69a1.5 1.5 0 0 0-.828-.222q-.48 0-.834.222-.348.216-.546.69t-.198 1.218.198 1.212q.198.462.546.672.354.204.834.204t.828-.204q.354-.21.552-.672.198-.468.198-1.212m5.9-2.022h.09v5.16h-1.53v-5.352l.27.27h-1.764V67.48h2.826zm2.982.21q-.762 0-1.272.048t-.966.198q-.45.144-.924.432v-1.116h.354q.462-.558.954-.816.498-.258 1.236-.258.342 0 .618.06zm-5.916 3.714h5.01v1.242h-5.01zm11.587-7.938h1.53v9.18h-1.332l-.132-1.14h-.066zm-4.374 6.036q0-.996.27-1.74t.816-1.158q.546-.42 1.344-.42.648 0 1.116.258.468.252.744.672h.318v.948a2.3 2.3 0 0 0-.738-.462q-.384-.15-.78-.15-.51 0-.852.222t-.516.678-.174 1.152.168 1.146q.174.444.51.66.342.216.858.216.402 0 .786-.144.384-.15.738-.468v.948h-.312q-.33.426-.804.684-.474.252-1.11.252-.786 0-1.32-.414t-.798-1.152-.264-1.728"/><path fill="#111827" d="M41.25 169.56h-19.5c-1.243 0-2.25 2.799-2.25 6.25v12.501c0 3.451 1.007 6.249 2.25 6.249h19.5c1.242 0 2.25-2.798 2.25-6.249V175.81c0-3.451-1.008-6.25-2.25-6.25m33 0h-19.5c-1.243 0-2.25 2.799-2.25 6.25v12.501c0 3.451 1.007 6.249 2.25 6.249h19.5c1.243 0 2.25-2.798 2.25-6.249V175.81c0-3.451-1.007-6.25-2.25-6.25m105.388-.048h-87.72c-3.544 0-6.418 2.809-6.418 6.274v12.549c0 3.464 2.874 6.273 6.418 6.273h87.72c3.544 0 6.418-2.809 6.418-6.273v-12.549c0-3.465-2.874-6.274-6.418-6.274m182.297 0H201.474c-3.545 0-6.418 2.809-6.418 6.274v12.549c0 3.464 2.873 6.273 6.418 6.273h160.461c3.545 0 6.419-2.809 6.419-6.273v-12.549c0-3.465-2.874-6.274-6.419-6.274m135.23 0H383.773c-3.545 0-6.419 2.809-6.419 6.274v12.549c0 3.464 2.874 6.273 6.419 6.273h113.392c3.544 0 6.418-2.809 6.418-6.273v-12.549c0-3.465-2.874-6.274-6.418-6.274M41.25 136.099h-19.5c-1.243 0-2.25 2.798-2.25 6.249v12.5c0 3.453 1.007 6.251 2.25 6.251h19.5c1.242 0 2.25-2.798 2.25-6.251v-12.5c0-3.451-1.008-6.249-2.25-6.249m33 0h-19.5c-1.243 0-2.25 2.798-2.25 6.249v12.5c0 3.453 1.007 6.251 2.25 6.251h19.5c1.243 0 2.25-2.798 2.25-6.251v-12.5c0-3.451-1.007-6.249-2.25-6.249m105.388-.049h-87.72c-3.544 0-6.418 2.809-6.418 6.274v12.549c0 3.465 2.874 6.274 6.418 6.274h87.72c3.544 0 6.418-2.809 6.418-6.274v-12.549c0-3.465-2.874-6.274-6.418-6.274m182.297 0H201.474c-3.545 0-6.418 2.809-6.418 6.274v12.549c0 3.465 2.873 6.274 6.418 6.274h160.461c3.545 0 6.419-2.809 6.419-6.274v-12.549c0-3.465-2.874-6.274-6.419-6.274m135.23 0H383.773c-3.545 0-6.419 2.809-6.419 6.274v12.549c0 3.465 2.874 6.274 6.419 6.274h113.392c3.544 0 6.418-2.809 6.418-6.274v-12.549c0-3.465-2.874-6.274-6.418-6.274M41.25 102.636h-19.5c-1.243 0-2.25 2.799-2.25 6.251v12.5c0 3.451 1.007 6.249 2.25 6.249h19.5c1.242 0 2.25-2.798 2.25-6.249v-12.5c0-3.452-1.008-6.251-2.25-6.251m33 0h-19.5c-1.243 0-2.25 2.799-2.25 6.251v12.5c0 3.451 1.007 6.249 2.25 6.249h19.5c1.243 0 2.25-2.798 2.25-6.249v-12.5c0-3.452-1.007-6.251-2.25-6.251m105.388-.048h-87.72c-3.544 0-6.418 2.809-6.418 6.274v12.549c0 3.465 2.874 6.274 6.418 6.274h87.72c3.544 0 6.418-2.809 6.418-6.274v-12.549c0-3.465-2.874-6.274-6.418-6.274"/><path fill="#4b5563" d="M96.18 120.412v-8.76h1.363v8.76zm3.433-8.76v1.14h-5.508v-1.14zm-5.508 7.614h5.508v1.146h-5.508zm7.441 1.146v-8.76h1.368v8.76zm4.494-4.476q0-1.134-.258-1.83-.252-.702-.78-1.026-.522-.33-1.362-.33h-1.404v-1.098h1.464q1.242 0 2.058.438.822.438 1.26 1.386t.438 2.46-.444 2.508q-.438.99-1.272 1.482-.828.486-2.04.486h-1.464v-1.104h1.404q.822 0 1.35-.372.534-.372.792-1.116.258-.75.258-1.884m59.349-5.44a.686.686 0 0 1 .558.795l-.215 1.246h2.041l.258-1.483a.686.686 0 1 1 1.354.237l-.215 1.246h1.268c.365 0 .687.322.687.687a.69.69 0 0 1-.687.688h-1.483l-.473 2.75h1.268c.365 0 .688.322.688.687a.693.693 0 0 1-.688.688h-1.482l-.258 1.504a.686.686 0 1 1-1.354-.237l.215-1.246h-2.041l-.258 1.483a.686.686 0 1 1-1.353-.237l.215-1.267h-1.246a.68.68 0 0 1-.688-.688c0-.365.301-.687.688-.687h1.46l.473-2.75h-1.246a.68.68 0 0 1-.687-.688c0-.365.3-.687.687-.687h1.461l.258-1.483a.686.686 0 0 1 .795-.558m.129 3.416-.473 2.75h2.041l.473-2.75z"/><path fill="#111827" d="M361.935 102.588H201.474c-3.545 0-6.418 2.809-6.418 6.274v12.549c0 3.465 2.873 6.274 6.418 6.274h160.461c3.545 0 6.419-2.809 6.419-6.274v-12.549c0-3.465-2.874-6.274-6.419-6.274"/><path fill="#4b5563" d="M204.105 120.412v-8.76h1.368v8.76zm4.92 0h-4.182v-1.146h4.182zm-.744-3.882h-3.348v-1.086h3.348zm-3.438-3.738v-1.14h4.182v1.14zm7.237-1.14 1.854 4.242h.072l1.884-4.242h1.338v8.76h-1.146v-6.69h-.096l-1.836 4.302h-.45l-1.83-4.302h-.072v6.69h-1.128v-8.76zm11.671 8.76-2.01-6.882h-.078l-1.992 6.882h-1.38l2.706-8.76h1.47l2.724 8.76zm-4.038-3.27h4.122v1.02h-4.122zm8.792 3.27v-8.76h1.362v8.76zm3.432-8.76v1.14h-5.508v-1.14zm-5.508 7.614h5.508v1.146h-5.508zm7.651 1.146v-8.76h1.368v8.76zm5.502 0h-4.8v-1.146h4.8zm107.949-9.25h8.938c.558 0 1.031.472 1.031 1.031 0 .344-.172.644-.43.838l-4.662 3.502a.68.68 0 0 1-.838 0l-4.662-3.502a1.03 1.03 0 0 1-.408-.838 1.03 1.03 0 0 1 1.031-1.031m-1.031 2.406 4.662 3.523c.494.366 1.16.366 1.654 0l4.684-3.523v4.469c0 .773-.623 1.375-1.375 1.375h-8.25a1.36 1.36 0 0 1-1.375-1.375z"/><path fill="#111827" d="M497.165 102.588H383.773c-3.545 0-6.419 2.809-6.419 6.274v12.549c0 3.465 2.874 6.274 6.419 6.274h113.392c3.544 0 6.418-2.809 6.418-6.274v-12.549c0-3.465-2.874-6.274-6.418-6.274"/><path fill="#4b5563" d="M387.323 113.866h-.072v6.546h-1.146v-8.76h1.44l2.85 6.486h.072v-6.486h1.146v8.76h-1.434zm10.987 6.546-2.01-6.882h-.078l-1.992 6.882h-1.38l2.706-8.76h1.47l2.724 8.76zm-4.038-3.27h4.122v1.02h-4.122zm7.945-5.49 1.86 4.242h.072l1.884-4.242h1.332v8.76h-1.146v-6.69h-.09l-1.842 4.302h-.45l-1.824-4.302h-.072v6.69h-1.128v-8.76zm6.806 8.76v-8.76h1.362v8.76zm4.914 0h-4.182v-1.146h4.182zm-.744-3.882h-3.348v-1.086h3.348zm-3.438-3.738v-1.14h4.182v1.14zm77.557 2.495c-.988 0-1.89-.516-2.384-1.375a2.74 2.74 0 0 1 0-2.75 2.78 2.78 0 0 1 2.384-1.375c.967 0 1.87.537 2.364 1.375a2.74 2.74 0 0 1 0 2.75 2.73 2.73 0 0 1-2.364 1.375m-.988 1.031h1.955a3.84 3.84 0 0 1 3.846 3.846c0 .343-.301.623-.645.623h-8.357a.624.624 0 0 1-.623-.623 3.824 3.824 0 0 1 3.824-3.846"/><rect width="479.235" height="46.588" x="81.5" y="-2" fill="#030712" rx="8"/><rect width="77.796" height="30.588" x="93.5" y="6" fill="#1f2937" rx="7.747"/><path fill="#9ca3af" d="M111.744 23.616q.492 0 .78-.168a.95.95 0 0 0 .408-.504q.126-.33.126-.882V16.05h1.572v6.174q0 1.332-.732 2.028-.726.696-2.154.696t-2.16-.696q-.726-.696-.726-2.028V16.05h1.572v6.012q0 .552.12.882.126.33.414.504.288.168.78.168m7.484-5.28q.864 0 1.464.216.6.21.906.636t.288 1.044l-1.38.108q-.042-.462-.378-.684-.336-.228-1.002-.228-.606 0-.936.18-.33.174-.33.516 0 .21.138.354.144.138.42.24t.834.24l.396.096q.846.192 1.326.396.48.198.762.552.282.348.282.924 0 .624-.336 1.08t-1.002.702q-.66.246-1.608.246-.894 0-1.494-.198a2.04 2.04 0 0 1-.948-.624q-.354-.432-.48-1.134l1.398-.162q.102.408.318.63t.516.306q.306.078.768.078t.756-.096q.3-.102.438-.27a.6.6 0 0 0 .138-.378q0-.24-.186-.39a1.6 1.6 0 0 0-.54-.258 17 17 0 0 0-1.134-.288 5.5 5.5 0 0 1-1.212-.39 1.9 1.9 0 0 1-.744-.606q-.264-.378-.264-.93 0-.906.708-1.404.714-.504 2.118-.504m4.273 3.3q0-1.074.402-1.812a2.65 2.65 0 0 1 1.14-1.116q.732-.372 1.71-.372.912 0 1.554.324.642.318.972.96.336.642.336 1.602v.6h-4.92v-.93h3.702l-.27.24v-.24q0-.672-.384-1.014-.378-.348-1.038-.348-.78 0-1.218.516t-.438 1.59q0 1.038.42 1.578.426.54 1.224.54.504 0 .864-.21.366-.216.558-.648l1.482.216a2.6 2.6 0 0 1-.66 1.05 2.7 2.7 0 0 1-1.008.6q-.57.192-1.236.192-.954 0-1.674-.378a2.66 2.66 0 0 1-1.122-1.122q-.396-.744-.396-1.818m10.604-1.992h.09v5.16h-1.53v-5.352l.27.27h-1.764V18.48h2.826zm2.982.21q-.762 0-1.272.048t-.966.198q-.45.144-.924.432v-1.116h.354q.462-.558.954-.816.498-.258 1.236-.258.342 0 .618.06zm-5.916 3.714h5.01v1.242h-5.01zm23.735-5.992-3.177 3.177 3.151 3.15a.58.58 0 0 1 0 .874.58.58 0 0 1-.874 0l-3.177-3.15-3.151 3.15a.58.58 0 0 1-.874 0c-.265-.238-.265-.635 0-.9l3.151-3.15-3.151-3.151c-.265-.239-.265-.636 0-.9.238-.239.636-.239.9 0l3.151 3.177 3.151-3.151c.238-.265.635-.265.9 0a.62.62 0 0 1 0 .874"/><rect width="70.796" height="30.588" x="179.296" y="6" fill="#1f2937" rx="7.747"/><path fill="#9ca3af" d="M196.76 24.81v-8.76h1.566v8.76zm-2.25-8.76h6.06v1.302h-6.06zm10.268 2.286q.828 0 1.398.198t.876.642q.312.438.312 1.152v2.922q0 .21.054.318.06.102.198.138.138.03.402 0v1.104a3.6 3.6 0 0 1-.924.132q-.468 0-.726-.15a.78.78 0 0 1-.354-.402 1.7 1.7 0 0 1-.096-.612l-.084-.114V20.4q0-.378-.144-.606a.73.73 0 0 0-.39-.318 1.8 1.8 0 0 0-.612-.09q-.36 0-.618.09a.78.78 0 0 0-.396.282.8.8 0 0 0-.144.498l-.006.246h-1.368v-.312q0-.864.63-1.356.636-.498 1.992-.498m1.698 3.846a7 7 0 0 0-.534-.084 4 4 0 0 0-.54-.036q-.606 0-1.02.108-.408.108-.63.33a.75.75 0 0 0-.216.552q0 .246.12.426t.342.276q.228.096.54.096.408 0 .774-.156t.726-.45l-.012.804h-.246q-.288.294-.564.48-.27.186-.642.306-.366.12-.792.12a2.2 2.2 0 0 1-.972-.204 1.5 1.5 0 0 1-.642-.588 1.8 1.8 0 0 1-.222-.906q0-.858.588-1.302.594-.45 1.482-.582a11.3 11.3 0 0 1 2.01-.108zm2.821-.876q0-.882.282-1.548.288-.672.834-1.038.546-.372 1.302-.372.432 0 .792.126.366.12.63.33.27.204.45.474h.318v.948a2.3 2.3 0 0 0-.738-.462q-.384-.15-.78-.15a1.66 1.66 0 0 0-.834.198 1.27 1.27 0 0 0-.528.576q-.18.378-.18.918 0 .534.174.906.18.372.522.564.348.192.84.192.402 0 .786-.144.384-.15.738-.468v.948h-.312q-.33.42-.816.678-.48.258-1.11.258-.744 0-1.278-.366a2.3 2.3 0 0 1-.816-1.026q-.276-.666-.276-1.542m5.904 3.138q0 .966-.324 1.572a1.95 1.95 0 0 1-.966.894q-.642.282-1.632.282-.888 0-1.47-.216-.582-.21-.894-.588a2.14 2.14 0 0 1-.426-.888l1.386-.294q.18.474.51.702.336.228.894.228.66 0 1.026-.354.366-.348.366-1.17v-5.028h.09l.108-1.104h1.332zm18.501-6.868-3.177 3.177 3.151 3.15a.58.58 0 0 1 0 .874.58.58 0 0 1-.874 0l-3.177-3.15-3.151 3.15a.58.58 0 0 1-.874 0c-.265-.238-.265-.635 0-.9l3.151-3.15-3.151-3.151c-.265-.239-.265-.636 0-.9.238-.239.635-.239.9 0l3.151 3.177 3.151-3.151c.238-.265.635-.265.9 0a.624.624 0 0 1 0 .874"/><rect width="77.796" height="30.588" x="258.093" y="6" fill="#1f2937" rx="7.747"/><path fill="#9ca3af" d="M273.607 24.81v-8.76h1.566v8.76zm2.352-4.29q1.026 0 1.464-.462.438-.468.438-1.338 0-.546-.192-.87a1.05 1.05 0 0 0-.576-.474q-.384-.15-.99-.15h-1.572V16.05h2.004q1.392 0 2.166.594.78.594.78 1.896 0 .942-.39 1.662-.39.714-1.218 1.122t-2.088.408h-1.2V20.52zm10.946 1.152q0 1.098-.414 1.836t-1.122 1.092q-.702.354-1.59.354a3.5 3.5 0 0 1-1.596-.354 2.6 2.6 0 0 1-1.116-1.092q-.414-.744-.414-1.836 0-1.104.414-1.848.414-.75 1.122-1.116a3.4 3.4 0 0 1 1.59-.372q.882 0 1.59.372a2.67 2.67 0 0 1 1.122 1.116q.414.744.414 1.848m-1.548-.006q0-.744-.198-1.218t-.552-.69a1.5 1.5 0 0 0-.828-.222q-.48 0-.834.222-.348.216-.546.69t-.198 1.218.198 1.212q.198.462.546.672.354.204.834.204t.828-.204q.354-.21.552-.672.198-.468.198-1.212m5.905-3.33q.864 0 1.464.216.6.21.906.636t.288 1.044l-1.38.108q-.042-.462-.378-.684-.336-.228-1.002-.228-.606 0-.936.18-.33.174-.33.516 0 .21.138.354.144.138.42.24t.834.24l.396.096q.846.192 1.326.396.48.198.762.552.282.348.282.924 0 .624-.336 1.08t-1.002.702q-.66.246-1.608.246-.894 0-1.494-.198a2.04 2.04 0 0 1-.948-.624q-.354-.432-.48-1.134l1.398-.162q.102.408.318.63t.516.306q.306.078.768.078t.756-.096q.3-.102.438-.27a.6.6 0 0 0 .138-.378q0-.24-.186-.39a1.6 1.6 0 0 0-.54-.258 17 17 0 0 0-1.134-.288 5.5 5.5 0 0 1-1.212-.39 1.9 1.9 0 0 1-.744-.606q-.264-.378-.264-.93 0-.906.708-1.404.714-.504 2.118-.504m10.027.144v1.242h-5.76V18.48zm-1.446 6.492q-1.002 0-1.572-.228a1.53 1.53 0 0 1-.834-.822q-.264-.588-.264-1.692v-5.556h1.524v5.544q0 .582.126.888a.77.77 0 0 0 .414.426q.282.12.792.12.612 0 1.404-.192v1.302q-.348.102-.75.156a6 6 0 0 1-.84.054m19.656-7.396-3.177 3.177 3.151 3.15a.58.58 0 0 1 0 .874.58.58 0 0 1-.874 0l-3.178-3.15-3.15 3.15a.58.58 0 0 1-.874 0c-.265-.238-.265-.635 0-.9l3.151-3.15-3.151-3.151c-.265-.239-.265-.636 0-.9.238-.239.635-.239.9 0l3.151 3.177 3.151-3.151c.238-.265.635-.265.9 0a.624.624 0 0 1 0 .874"/><rect width="100.796" height="30.588" x="343.889" y="6" fill="#1f2937" rx="7.747"/><path fill="#9ca3af" d="M360.561 20.43q0 1.152.198 1.854.198.696.576 1.008.378.306.93.306.45 0 .768-.192.318-.198.498-.582.18-.39.228-.96l1.458.102q-.03.978-.402 1.644a2.4 2.4 0 0 1-1.032 1.002q-.654.336-1.554.336-1.026 0-1.758-.474-.732-.48-1.134-1.488-.396-1.008-.396-2.556t.39-2.556q.396-1.008 1.128-1.488t1.77-.48q.888 0 1.548.336t1.032.996q.378.66.408 1.614l-1.458.102a2.7 2.7 0 0 0-.228-.924 1.3 1.3 0 0 0-.498-.576 1.43 1.43 0 0 0-.768-.198q-.552 0-.93.312t-.576 1.014q-.198.696-.198 1.848m12.139 1.242q0 1.098-.414 1.836t-1.122 1.092q-.702.354-1.59.354a3.5 3.5 0 0 1-1.596-.354 2.6 2.6 0 0 1-1.116-1.092q-.414-.744-.414-1.836 0-1.104.414-1.848.414-.75 1.122-1.116a3.4 3.4 0 0 1 1.59-.372q.882 0 1.59.372a2.67 2.67 0 0 1 1.122 1.116q.414.744.414 1.848m-1.548-.006q0-.744-.198-1.218t-.552-.69a1.5 1.5 0 0 0-.828-.222q-.48 0-.834.222-.348.216-.546.69t-.198 1.218.198 1.212q.198.462.546.672.354.204.834.204t.828-.204q.354-.21.552-.672.198-.468.198-1.212m4.196 3.144h-1.326v-6.33h1.128l.114 1.122h.084zm1.008 0v-4.668q0-.276-.114-.39a.4.4 0 0 0-.294-.114.74.74 0 0 0-.45.15q-.198.15-.45.426l-.078-.876h.39q.12-.27.3-.492.186-.222.45-.354.27-.138.6-.138.48 0 .726.306t.246.948v5.202zm2.334 0v-4.668q0-.276-.114-.39a.4.4 0 0 0-.3-.114.74.74 0 0 0-.45.15 2.7 2.7 0 0 0-.438.426l-.066-.876h.42q.114-.27.288-.492.18-.222.432-.354.258-.138.582-.138.48 0 .72.306.246.306.246.948v5.202zm4.099 0h-1.326v-6.33h1.128l.114 1.122h.084zm1.008 0v-4.668q0-.276-.114-.39a.4.4 0 0 0-.294-.114.74.74 0 0 0-.45.15q-.198.15-.45.426l-.078-.876h.39q.12-.27.3-.492.186-.222.45-.354.27-.138.6-.138.48 0 .726.306t.246.948v5.202zm2.334 0v-4.668q0-.276-.114-.39a.4.4 0 0 0-.3-.114.74.74 0 0 0-.45.15 2.7 2.7 0 0 0-.438.426l-.066-.876h.42q.114-.27.288-.492.18-.222.432-.354.258-.138.582-.138.48 0 .72.306.246.306.246.948v5.202zm2.642-3.174q0-1.074.402-1.812a2.65 2.65 0 0 1 1.14-1.116q.732-.372 1.71-.372.912 0 1.554.324.642.318.972.96.336.642.336 1.602v.6h-4.92v-.93h3.702l-.27.24v-.24q0-.672-.384-1.014-.378-.348-1.038-.348-.78 0-1.218.516t-.438 1.59q0 1.038.42 1.578.426.54 1.224.54.504 0 .864-.21.366-.216.558-.648l1.482.216a2.6 2.6 0 0 1-.66 1.05 2.7 2.7 0 0 1-1.008.6q-.57.192-1.236.192-.954 0-1.674-.378a2.66 2.66 0 0 1-1.122-1.122q-.396-.744-.396-1.818m9.319 3.174h-1.53v-6.33h1.332l.108 1.122h.09zm2.496 0v-4.212q0-.39-.12-.618a.65.65 0 0 0-.318-.318 1.15 1.15 0 0 0-.492-.096q-.516 0-.96.264a3.3 3.3 0 0 0-.846.732v-1.146h.33q.48-.522.996-.798.522-.276 1.218-.276.564 0 .942.192.384.192.582.606.198.408.198 1.056v4.614zm8.822-6.33v1.242h-5.76V18.48zm-1.446 6.492q-1.002 0-1.572-.228a1.53 1.53 0 0 1-.834-.822q-.264-.588-.264-1.692v-5.556h1.524v5.544q0 .582.126.888a.77.77 0 0 0 .414.426q.282.12.792.12.612 0 1.404-.192v1.302q-.348.102-.75.156a6 6 0 0 1-.84.054m20.331-7.396-3.177 3.177 3.15 3.15a.58.58 0 0 1 0 .874.58.58 0 0 1-.873 0l-3.178-3.15-3.15 3.15a.58.58 0 0 1-.874 0c-.265-.238-.265-.635 0-.9l3.151-3.15-3.151-3.151c-.265-.239-.265-.636 0-.9.238-.239.635-.239.9 0l3.151 3.177 3.151-3.151c.238-.265.635-.265.9 0a.624.624 0 0 1 0 .874"/><rect width="96.05" height="30.588" x="452.686" y="6" fill="#6366f1" rx="7.747"/><path fill="#f9fafb" d="M469.358 20.43q0 1.152.198 1.854.198.696.576 1.008.378.306.93.306.45 0 .768-.192.318-.198.498-.582.18-.39.228-.96l1.458.102q-.03.978-.402 1.644a2.4 2.4 0 0 1-1.032 1.002q-.654.336-1.554.336-1.026 0-1.758-.474-.732-.48-1.134-1.488-.396-1.008-.396-2.556t.39-2.556q.396-1.008 1.128-1.488t1.77-.48q.888 0 1.548.336t1.032.996q.378.66.408 1.614l-1.458.102a2.7 2.7 0 0 0-.228-.924 1.3 1.3 0 0 0-.498-.576 1.43 1.43 0 0 0-.768-.198q-.552 0-.93.312t-.576 1.014q-.198.696-.198 1.848m6.163 3.138h5.7v1.242h-5.7zm2.088 1.242v-8.334l.27.39h-2.352V15.63l3.432-.15.18.18-.006 9.15zm11.33-3.138q0 1.098-.414 1.836t-1.122 1.092q-.702.354-1.59.354a3.5 3.5 0 0 1-1.596-.354 2.6 2.6 0 0 1-1.116-1.092q-.414-.744-.414-1.836 0-1.104.414-1.848.414-.75 1.122-1.116a3.4 3.4 0 0 1 1.59-.372q.882 0 1.59.372a2.67 2.67 0 0 1 1.122 1.116q.414.744.414 1.848m-1.548-.006q0-.744-.198-1.218t-.552-.69a1.5 1.5 0 0 0-.828-.222q-.48 0-.834.222-.348.216-.546.69t-.198 1.218.198 1.212q.198.462.546.672.354.204.834.204t.828-.204q.354-.21.552-.672.198-.468.198-1.212m5.905-3.33q.864 0 1.464.216.6.21.906.636t.288 1.044l-1.38.108q-.042-.462-.378-.684-.336-.228-1.002-.228-.606 0-.936.18-.33.174-.33.516 0 .21.138.354.144.138.42.24t.834.24l.396.096q.846.192 1.326.396.48.198.762.552.282.348.282.924 0 .624-.336 1.08t-1.002.702q-.66.246-1.608.246-.894 0-1.494-.198a2.04 2.04 0 0 1-.948-.624q-.354-.432-.48-1.134l1.398-.162q.102.408.318.63t.516.306q.306.078.768.078t.756-.096q.3-.102.438-.27a.6.6 0 0 0 .138-.378q0-.24-.186-.39a1.6 1.6 0 0 0-.54-.258 17 17 0 0 0-1.134-.288 5.5 5.5 0 0 1-1.212-.39 1.9 1.9 0 0 1-.744-.606q-.264-.378-.264-.93 0-.906.708-1.404.714-.504 2.118-.504m4.274 3.3q0-1.074.402-1.812a2.65 2.65 0 0 1 1.14-1.116q.732-.372 1.71-.372.912 0 1.554.324.642.318.972.96.336.642.336 1.602v.6h-4.92v-.93h3.702l-.27.24v-.24q0-.672-.384-1.014-.378-.348-1.038-.348-.78 0-1.218.516t-.438 1.59q0 1.038.42 1.578.426.54 1.224.54.504 0 .864-.21.366-.216.558-.648l1.482.216a2.6 2.6 0 0 1-.66 1.05 2.7 2.7 0 0 1-1.008.6q-.57.192-1.236.192-.954 0-1.674-.378a2.66 2.66 0 0 1-1.122-1.122q-.396-.744-.396-1.818m17.804-3.3q.828 0 1.398.198t.876.642q.312.438.312 1.152v2.922q0 .21.054.318.06.102.198.138.138.03.402 0v1.104a3.6 3.6 0 0 1-.924.132q-.468 0-.726-.15a.78.78 0 0 1-.354-.402 1.7 1.7 0 0 1-.096-.612l-.084-.114V20.4q0-.378-.144-.606a.73.73 0 0 0-.39-.318 1.8 1.8 0 0 0-.612-.09q-.36 0-.618.09a.78.78 0 0 0-.396.282.8.8 0 0 0-.144.498l-.006.246h-1.368v-.312q0-.864.63-1.356.636-.498 1.992-.498m1.698 3.846a7 7 0 0 0-.534-.084 4 4 0 0 0-.54-.036q-.606 0-1.02.108-.408.108-.63.33a.75.75 0 0 0-.216.552q0 .246.12.426t.342.276q.228.096.54.096.408 0 .774-.156t.726-.45l-.012.804h-.246q-.288.294-.564.48-.27.186-.642.306-.366.12-.792.12a2.2 2.2 0 0 1-.972-.204 1.5 1.5 0 0 1-.642-.588 1.8 1.8 0 0 1-.222-.906q0-.858.588-1.302.594-.45 1.482-.582a11.3 11.3 0 0 1 2.01-.108zm3.098 1.386h5.7v1.242h-5.7zm2.088 1.242v-8.334l.27.39h-2.352V15.63l3.432-.15.18.18-.006 9.15zm5.353-1.242h5.7v1.242h-5.7zm2.088 1.242v-8.334l.27.39h-2.352V15.63l3.432-.15.18.18-.006 9.15z"/></svg>